<svg width="112" height="112" viewBox="0 0 112 112" fill="none" xmlns="http://www.w3.org/2000/svg">
    <path d="M111.273 56.1543C111.273 64.8767 109.209 73.4753 105.249 81.247C101.289 89.0188 95.5463 95.743 88.4897 100.87C81.4331 105.997 73.2633 109.381 64.6483 110.745C56.0333 112.11 47.2176 111.416 38.9221 108.721C30.6266 106.025 23.0868 101.405 16.9191 95.2371C10.7514 89.0695 6.13102 81.5296 3.43565 73.2341C0.740273 64.9386 0.0464661 56.123 1.41095 47.5079C2.77544 38.8929 6.15948 30.7231 11.2864 23.6665L17.9937 28.5397C13.6358 34.5378 10.7594 41.4821 9.5996 48.8049C8.43979 56.1277 9.02952 63.621 11.3206 70.6721C13.6117 77.7233 17.539 84.1322 22.7815 89.3747C28.0241 94.6172 34.4329 98.5446 41.4841 100.836C48.5353 103.127 56.0286 103.716 63.3514 102.557C70.6741 101.397 77.6185 98.5204 83.6166 94.1625C89.6146 89.8047 94.4962 84.0891 97.8621 77.4831C101.228 70.8771 102.983 63.5684 102.983 56.1543H111.273Z" fill="#FF5600"/>
    <path d="M20.4248 53.1543H19.4504L23.1542 42.9725H24.1485L27.8524 53.1543H26.8779L23.6862 44.1806H23.6166L20.4248 53.1543ZM21.1258 49.2516H26.1769V50.0868H21.1258V49.2516ZM29.4134 53.1543V45.5179H30.2984V48.9533H31.1286L33.9674 45.5179H35.1109L32.0484 49.1919L35.1805 53.1543H34.037L31.4021 49.7885H30.2984V53.1543H29.4134ZM36.1649 46.3532V45.5179H42.1308V46.3532H39.6052V53.1543H38.7203V46.3532H36.1649ZM44.8863 51.8965L48.9182 45.5179H49.9772V53.1543H49.0922V46.7757L45.0752 53.1543H44.0013V45.5179H44.8863V51.8965ZM52.3138 53.1543V45.5179H55.3216C56.1337 45.5179 56.7733 45.6936 57.2407 46.0449C57.7113 46.3962 57.9466 46.8702 57.9466 47.4668C57.9466 47.9209 57.8157 48.2838 57.5539 48.5556C57.2921 48.8274 56.9407 49.0196 56.4999 49.1323C56.7949 49.182 57.0683 49.2897 57.3202 49.4554C57.5754 49.6212 57.7826 49.8399 57.9417 50.1117C58.1008 50.3835 58.1803 50.7083 58.1803 51.0861C58.1803 51.4838 58.0809 51.8385 57.882 52.15C57.6832 52.4616 57.4031 52.7069 57.0418 52.8858C56.6805 53.0648 56.253 53.1543 55.7591 53.1543H52.3138ZM53.159 52.334H55.7591C56.2265 52.334 56.596 52.2147 56.8678 51.976C57.1396 51.7341 57.2755 51.4126 57.2755 51.0115C57.2755 50.584 57.1462 50.2426 56.8877 49.9874C56.6325 49.7289 56.2894 49.5996 55.8586 49.5996H53.159V52.334ZM53.159 48.8141H55.3763C55.721 48.8141 56.0193 48.7611 56.2712 48.655C56.5231 48.5489 56.717 48.3998 56.8529 48.2076C56.9921 48.012 57.06 47.7833 57.0567 47.5215C57.0567 47.147 56.9043 46.8569 56.5993 46.6515C56.2944 46.4426 55.8685 46.3382 55.3216 46.3382H53.159V48.8141ZM65.276 48.9235V49.7587H60.7867V48.9235H65.276ZM61.0054 45.5179V53.1543H60.1205V45.5179H61.0054ZM65.9273 45.5179V53.1543H65.0423V45.5179H65.9273ZM68.2925 53.1543V45.5179H69.1824V53.1543H68.2925ZM68.7449 44.2054C68.5626 44.2054 68.4069 44.1441 68.2776 44.0215C68.1483 43.8955 68.0837 43.7447 68.0837 43.5691C68.0837 43.3934 68.1483 43.2443 68.2776 43.1216C68.4069 42.9957 68.5626 42.9327 68.7449 42.9327C68.9272 42.9327 69.083 42.9957 69.2123 43.1216C69.3415 43.2443 69.4062 43.3934 69.4062 43.5691C69.4062 43.7447 69.3415 43.8955 69.2123 44.0215C69.083 44.1441 68.9272 44.2054 68.7449 44.2054ZM74.5058 53.3134C73.823 53.3134 73.2281 53.1427 72.721 52.8013C72.2172 52.4599 71.8261 51.9926 71.5477 51.3993C71.2693 50.806 71.1301 50.1299 71.1301 49.3709C71.1301 48.6053 71.2709 47.9242 71.5526 47.3276C71.8377 46.731 72.2321 46.2637 72.7359 45.9256C73.2397 45.5842 73.8247 45.4135 74.4909 45.4135C75.0013 45.4135 75.4636 45.513 75.8779 45.7118C76.2922 45.9074 76.6336 46.1841 76.9021 46.5421C77.1739 46.8967 77.3445 47.311 77.4142 47.785H76.5193C76.4265 47.3541 76.2027 46.9862 75.8481 46.6813C75.4968 46.373 75.0493 46.2189 74.5058 46.2189C74.0186 46.2189 73.5877 46.3515 73.2132 46.6167C72.8386 46.8785 72.5453 47.2447 72.3332 47.7154C72.1244 48.1827 72.02 48.7246 72.02 49.3411C72.02 49.9609 72.1227 50.5094 72.3282 50.9867C72.5337 51.4606 72.8221 51.8319 73.1933 52.1003C73.5678 52.3688 74.0053 52.503 74.5058 52.503C74.8438 52.503 75.1521 52.44 75.4305 52.3141C75.7122 52.1848 75.9475 52.0025 76.1365 51.7672C76.3287 51.5319 76.4579 51.2518 76.5242 50.927H77.4191C77.3528 51.3877 77.1888 51.7987 76.9269 52.16C76.6684 52.5179 76.332 52.7997 75.9177 53.0051C75.5067 53.2106 75.0361 53.3134 74.5058 53.3134ZM78.6844 46.3532V45.5179H84.6503V46.3532H82.1247V53.1543H81.2398V46.3532H78.6844ZM87.2567 48.4661H89.4889C90.3473 48.4661 91.0102 48.6749 91.4775 49.0925C91.9449 49.5101 92.1785 50.0752 92.1785 50.7878C92.1785 51.2618 92.0741 51.6761 91.8653 52.0307C91.6565 52.3854 91.3516 52.6621 90.9506 52.861C90.5495 53.0565 90.0623 53.1543 89.4889 53.1543H86.5209V45.5179H87.4058V52.3191H89.4889C90.0291 52.3191 90.465 52.1898 90.7964 51.9313C91.1279 51.6728 91.2936 51.3049 91.2936 50.8276C91.2936 50.3404 91.1279 49.9642 90.7964 49.699C90.465 49.4339 90.0291 49.3013 89.4889 49.3013H87.2567V48.4661ZM27.1588 65.9235V66.7587H22.6695V65.9235H27.1588ZM22.8882 62.5179V70.1543H22.0033V62.5179H22.8882ZM27.8101 62.5179V70.1543H26.9252V62.5179H27.8101ZM32.2982 70.3283C31.8375 70.3283 31.4166 70.2388 31.0354 70.0598C30.6543 69.8775 30.351 69.6157 30.1256 69.2743C29.9002 68.9296 29.7876 68.512 29.7876 68.0215C29.7876 67.6436 29.8588 67.3255 30.0013 67.0669C30.1439 66.8084 30.346 66.5963 30.6079 66.4306C30.8697 66.2649 31.1796 66.1339 31.5376 66.0378C31.8955 65.9417 32.2899 65.8671 32.7208 65.8141C33.1483 65.7611 33.5096 65.7147 33.8046 65.6749C34.1029 65.6351 34.3299 65.5721 34.4857 65.486C34.6415 65.3998 34.7194 65.2606 34.7194 65.0684V64.8894C34.7194 64.369 34.5636 63.9597 34.252 63.6614C33.9438 63.3598 33.4997 63.209 32.9197 63.209C32.3695 63.209 31.9204 63.33 31.5724 63.5719C31.2277 63.8139 30.9857 64.0989 30.8465 64.427L30.0063 64.1238C30.1787 63.7061 30.4173 63.373 30.7222 63.1245C31.0271 62.8726 31.3685 62.6919 31.7464 62.5826C32.1242 62.4699 32.507 62.4135 32.8948 62.4135C33.1865 62.4135 33.4897 62.4516 33.8046 62.5279C34.1228 62.6041 34.4178 62.7367 34.6895 62.9256C34.9613 63.1112 35.1817 63.3714 35.3508 63.7061C35.5198 64.0376 35.6043 64.4585 35.6043 64.9689V70.1543H34.7194V68.9462H34.6647C34.5586 69.1716 34.4012 69.3903 34.1924 69.6025C33.9836 69.8146 33.7217 69.9886 33.4069 70.1245C33.092 70.2604 32.7224 70.3283 32.2982 70.3283ZM32.4175 69.5179C32.8882 69.5179 33.2958 69.4135 33.6405 69.2047C33.9852 68.9959 34.2504 68.7192 34.436 68.3745C34.6249 68.0265 34.7194 67.6436 34.7194 67.226V66.1223C34.6531 66.1853 34.5421 66.2417 34.3863 66.2914C34.2338 66.3411 34.0565 66.3858 33.8543 66.4256C33.6555 66.4621 33.4566 66.4935 33.2577 66.5201C33.0589 66.5466 32.8799 66.5698 32.7208 66.5897C32.2899 66.6427 31.922 66.7256 31.6171 66.8382C31.3122 66.9509 31.0785 67.1067 30.9161 67.3056C30.7537 67.5011 30.6725 67.753 30.6725 68.0613C30.6725 68.5253 30.8382 68.8849 31.1697 69.1401C31.5011 69.392 31.9171 69.5179 32.4175 69.5179ZM42.5123 73.0179C42.3367 73.0179 42.1726 73.0014 42.0202 72.9682C41.8677 72.9351 41.7467 72.8986 41.6572 72.8588L41.8959 72.0783C42.1975 72.1711 42.4659 72.2042 42.7013 72.1777C42.9366 72.1545 43.1454 72.0485 43.3277 71.8596C43.51 71.6739 43.6724 71.3889 43.8149 71.0044L44.0933 70.2289L41.2844 62.5179H42.2439L44.5109 68.986H44.5805L46.8476 62.5179H47.8071L44.5756 71.3624C44.4397 71.7303 44.2723 72.0369 44.0734 72.2821C43.8746 72.5307 43.6442 72.7147 43.3824 72.834C43.1238 72.9566 42.8338 73.0179 42.5123 73.0179ZM49.5384 73.0179V62.5179H50.3985V63.9746H50.5029C50.609 63.7459 50.7548 63.5123 50.9404 63.2736C51.126 63.0317 51.3713 62.8278 51.6762 62.6621C51.9845 62.4964 52.3722 62.4135 52.8396 62.4135C53.4693 62.4135 54.0195 62.5792 54.4901 62.9107C54.9641 63.2388 55.332 63.6995 55.5938 64.2928C55.859 64.8828 55.9916 65.5705 55.9916 66.356C55.9916 67.1448 55.859 67.8359 55.5938 68.4292C55.332 69.0224 54.9641 69.4848 54.4901 69.8162C54.0195 70.1477 53.4726 70.3134 52.8495 70.3134C52.3888 70.3134 52.0027 70.2305 51.6911 70.0648C51.3829 69.8991 51.1327 69.6953 50.9404 69.4533C50.7515 69.208 50.6057 68.9694 50.5029 68.7374H50.4234V73.0179H49.5384ZM50.4134 66.3411C50.4134 66.9576 50.5046 67.5044 50.6869 67.9817C50.8725 68.4557 51.1376 68.8285 51.4823 69.1003C51.8303 69.3688 52.2513 69.503 52.7451 69.503C53.2522 69.503 53.6798 69.3638 54.0278 69.0854C54.3791 68.8037 54.6459 68.4242 54.8282 67.9469C55.0138 67.4696 55.1066 66.9344 55.1066 66.3411C55.1066 65.7544 55.0155 65.2258 54.8332 64.7551C54.6542 64.2845 54.3891 63.9116 54.0377 63.6365C53.6864 63.3581 53.2555 63.2189 52.7451 63.2189C52.248 63.2189 51.8254 63.3532 51.4774 63.6216C51.1294 63.8868 50.8642 64.2547 50.6819 64.7253C50.5029 65.1926 50.4134 65.7312 50.4134 66.3411ZM60.901 70.3134C60.2414 70.3134 59.6581 70.146 59.151 69.8113C58.6472 69.4765 58.2528 69.0141 57.9678 68.4242C57.6827 67.8309 57.5402 67.1465 57.5402 66.3709C57.5402 65.5887 57.6827 64.901 57.9678 64.3077C58.2528 63.7111 58.6472 63.2471 59.151 62.9157C59.6581 62.5809 60.2414 62.4135 60.901 62.4135C61.5606 62.4135 62.1423 62.5809 62.646 62.9157C63.1498 63.2504 63.5442 63.7144 63.8293 64.3077C64.1176 64.901 64.2618 65.5887 64.2618 66.3709C64.2618 67.1465 64.1193 67.8309 63.8343 68.4242C63.5492 69.0141 63.1531 69.4765 62.646 69.8113C62.1423 70.146 61.5606 70.3134 60.901 70.3134ZM60.901 69.503C61.4313 69.503 61.8804 69.3605 62.2483 69.0755C62.6162 68.7904 62.8946 68.4109 63.0835 67.937C63.2758 67.463 63.3719 66.941 63.3719 66.3709C63.3719 65.8008 63.2758 65.2772 63.0835 64.7999C62.8946 64.3226 62.6162 63.9398 62.2483 63.6515C61.8804 63.3631 61.4313 63.2189 60.901 63.2189C60.374 63.2189 59.9249 63.3631 59.5537 63.6515C59.1858 63.9398 58.9057 64.3226 58.7135 64.7999C58.5246 65.2772 58.4301 65.8008 58.4301 66.3709C58.4301 66.941 58.5246 67.463 58.7135 67.937C58.9057 68.4109 59.1858 68.7904 59.5537 69.0755C59.9216 69.3605 60.3707 69.503 60.901 69.503ZM66.2045 70.1543V62.5179H67.0894V65.9533H67.9197L70.7584 62.5179H71.9019L68.8394 66.1919L71.9715 70.1543H70.828L68.1931 66.7885H67.0894V70.1543H66.2045ZM75.556 70.3283C75.0953 70.3283 74.6744 70.2388 74.2932 70.0598C73.9121 69.8775 73.6088 69.6157 73.3834 69.2743C73.1581 68.9296 73.0454 68.512 73.0454 68.0215C73.0454 67.6436 73.1166 67.3255 73.2591 67.0669C73.4017 66.8084 73.6038 66.5963 73.8657 66.4306C74.1275 66.2649 74.4374 66.1339 74.7954 66.0378C75.1533 65.9417 75.5477 65.8671 75.9786 65.8141C76.4062 65.7611 76.7674 65.7147 77.0624 65.6749C77.3607 65.6351 77.5877 65.5721 77.7435 65.486C77.8993 65.3998 77.9772 65.2606 77.9772 65.0684V64.8894C77.9772 64.369 77.8214 63.9597 77.5099 63.6614C77.2016 63.3598 76.7575 63.209 76.1775 63.209C75.6273 63.209 75.1782 63.33 74.8302 63.5719C74.4855 63.8139 74.2435 64.0989 74.1043 64.427L73.2641 64.1238C73.4365 63.7061 73.6751 63.373 73.98 63.1245C74.2849 62.8726 74.6263 62.6919 75.0042 62.5826C75.382 62.4699 75.7648 62.4135 76.1526 62.4135C76.4443 62.4135 76.7475 62.4516 77.0624 62.5279C77.3806 62.6041 77.6756 62.7367 77.9474 62.9256C78.2191 63.1112 78.4395 63.3714 78.6086 63.7061C78.7776 64.0376 78.8621 64.4585 78.8621 64.9689V70.1543H77.9772V68.9462H77.9225C77.8164 69.1716 77.659 69.3903 77.4502 69.6025C77.2414 69.8146 76.9796 69.9886 76.6647 70.1245C76.3498 70.2604 75.9803 70.3283 75.556 70.3283ZM75.6753 69.5179C76.146 69.5179 76.5537 69.4135 76.8983 69.2047C77.243 68.9959 77.5082 68.7192 77.6938 68.3745C77.8827 68.0265 77.9772 67.6436 77.9772 67.226V66.1223C77.9109 66.1853 77.7999 66.2417 77.6441 66.2914C77.4916 66.3411 77.3143 66.3858 77.1121 66.4256C76.9133 66.4621 76.7144 66.4935 76.5155 66.5201C76.3167 66.5466 76.1377 66.5698 75.9786 66.5897C75.5477 66.6427 75.1798 66.7256 74.8749 66.8382C74.57 66.9509 74.3363 67.1067 74.1739 67.3056C74.0115 67.5011 73.9303 67.753 73.9303 68.0613C73.9303 68.5253 74.096 68.8849 74.4275 69.1401C74.7589 69.392 75.1749 69.5179 75.6753 69.5179ZM81.7631 62.5179L83.7318 65.7743L85.7006 62.5179H86.7297L84.2737 66.3361L86.7297 70.1543H85.7006L83.7318 67.0023L81.7631 70.1543H80.7389L83.165 66.3361L80.7389 62.5179H81.7631ZM89.2913 69.9604C89.0957 69.9604 88.9267 69.8908 88.7842 69.7516C88.645 69.6124 88.5754 69.4434 88.5754 69.2445C88.5754 69.0489 88.645 68.8816 88.7842 68.7424C88.9267 68.5998 89.0957 68.5286 89.2913 68.5286C89.4901 68.5286 89.6592 68.5998 89.7984 68.7424C89.9376 68.8816 90.0072 69.0489 90.0072 69.2445C90.0072 69.3771 89.974 69.498 89.9078 69.6074C89.8448 69.7135 89.7586 69.7997 89.6492 69.8659C89.5432 69.9289 89.4239 69.9604 89.2913 69.9604ZM89.2913 64.4519C89.0957 64.4519 88.9267 64.3823 88.7842 64.2431C88.645 64.1039 88.5754 63.9348 88.5754 63.736C88.5754 63.5404 88.645 63.373 88.7842 63.2338C88.9267 63.0913 89.0957 63.0201 89.2913 63.0201C89.4901 63.0201 89.6592 63.0913 89.7984 63.2338C89.9376 63.373 90.0072 63.5404 90.0072 63.736C90.0072 63.8685 89.974 63.9895 89.9078 64.0989C89.8448 64.205 89.7586 64.2911 89.6492 64.3574C89.5432 64.4204 89.4239 64.4519 89.2913 64.4519Z" fill="white"/>
    </svg>
    