<svg width="111" height="111" viewBox="0 0 111 111" fill="none" xmlns="http://www.w3.org/2000/svg">
    <g filter="url(#filter0_d_686_9695)">
    <circle cx="55.2656" cy="53.4258" r="50" fill="#EDEDED" fill-opacity="0.02" shape-rendering="crispEdges"/>
    </g>
    <g clip-path="url(#clip0_686_9695)">
    <g clip-path="url(#clip1_686_9695)">
    <path d="M66.9753 46.5331H64.3094C63.8179 46.5331 63.4327 46.3287 63.2413 45.8704C63.1464 45.6665 63.1112 45.4399 63.1399 45.2168C63.1686 44.9937 63.26 44.7833 63.4035 44.6101C63.4949 44.4918 63.6131 44.3968 63.7482 44.3329C63.8834 44.2691 64.0318 44.2382 64.1813 44.2427C65.9656 44.2362 67.7498 44.2232 69.5341 44.2427C70.208 44.2516 70.6249 44.7196 70.6282 45.4009C70.6363 47.144 70.6363 48.8875 70.6282 50.6312C70.6282 51.3206 70.1821 51.7415 69.5057 51.7439C68.8293 51.7464 68.3865 51.3262 68.3654 50.6409C68.3443 49.9556 68.3654 49.2711 68.3654 48.5087C67.805 48.9872 67.3111 49.4219 66.8066 49.8364C64.1448 52.014 61.1294 53.5736 57.9712 54.8842C52.6071 57.1154 47.0239 58.572 41.3216 59.6004C39.9274 59.8526 38.5235 60.0554 37.1205 60.2581C36.3224 60.3733 35.7944 59.9929 35.7133 59.2962C35.6322 58.5833 36.0377 58.1008 36.8342 57.9937C39.966 57.5799 43.0747 57.0063 46.148 56.2751C51.2454 55.0586 56.2275 53.5022 60.8861 51.0472C63.0475 49.9077 65.0458 48.533 66.8066 46.821C66.8793 46.7613 66.9563 46.7071 67.0369 46.6588C67.0134 46.6125 66.9931 46.5728 66.9753 46.5331Z" fill="#10788E"/>
    <path d="M67.7783 63.6947C67.7783 60.9793 67.7783 58.264 67.7783 55.5487C67.7783 54.5754 68.1838 54.1699 69.157 54.1699C71.3057 54.1699 73.4538 54.1699 75.6015 54.1699C76.4871 54.1699 76.9332 54.6038 76.9332 55.4805C76.9332 60.9793 76.9332 66.4778 76.9332 71.9761C76.9332 72.8585 76.4928 73.2973 75.612 73.2989C73.4368 73.3027 71.2616 73.3027 69.0864 73.2989C68.2065 73.2989 67.7807 72.8577 67.7799 71.9655C67.7772 69.208 67.7766 66.4511 67.7783 63.6947ZM70.0662 63.7174C70.0662 66.015 70.0718 68.3127 70.0597 70.6111C70.0597 70.9136 70.1408 71.0053 70.4457 71.0012C71.7299 70.9861 73.0137 70.9861 74.2973 71.0012C74.5804 71.0012 74.6631 70.9153 74.6631 70.633C74.655 66.0237 74.655 61.4149 74.6631 56.8066C74.6631 56.5154 74.5747 56.4481 74.2973 56.4513C73.0272 56.4651 71.7564 56.4684 70.4855 56.4513C70.1554 56.4465 70.054 56.5227 70.0564 56.869C70.0743 59.1488 70.0662 61.4335 70.0662 63.7174Z" fill="#10788E"/>
    <path d="M50.3578 39.2112C50.3578 40.1033 49.5629 40.6224 48.7576 40.2339C48.4202 40.0717 48.125 39.8227 47.803 39.624C45.9977 38.5089 44.1071 38.2582 42.1185 39.0855C41.7057 39.2619 41.3498 39.5491 41.0901 39.9152C40.9702 40.0709 40.8834 40.2495 40.8349 40.4399C40.7864 40.6304 40.7772 40.8287 40.8079 41.0228C40.8387 41.2169 40.9087 41.4027 41.0137 41.5688C41.1187 41.7349 41.2565 41.8779 41.4186 41.989C42.1728 42.5194 43.0682 42.6378 43.9401 42.8106C45.1818 43.0595 46.4316 43.2428 47.6359 43.6849C50.5719 44.7643 50.7835 48.6621 48.4818 50.3832C47.7081 50.9781 46.8065 51.3849 45.8484 51.5713C45.5532 51.6265 45.4486 51.7424 45.4721 52.0441C45.4952 52.4085 45.4952 52.7739 45.4721 53.1382C45.4348 53.8527 44.992 54.2737 44.3042 54.2623C43.6165 54.2509 43.2053 53.813 43.1915 53.0904C43.1842 52.7392 43.1761 52.3872 43.1915 52.036C43.2028 51.8025 43.1339 51.693 42.8898 51.6662C41.2612 51.4886 39.8947 50.7173 38.6197 49.7497C38.1031 49.358 38.0236 48.7067 38.4121 48.1698C38.492 48.0518 38.5946 47.9507 38.7138 47.8726C38.8331 47.7944 38.9666 47.7407 39.1068 47.7145C39.2469 47.6884 39.3909 47.6903 39.5303 47.7201C39.6697 47.75 39.8018 47.8072 39.919 47.8884C40.6732 48.388 41.3926 48.9517 42.2856 49.1909C43.8947 49.6208 45.4689 49.6443 46.9222 48.6776C47.7243 48.1439 47.9644 47.328 47.5646 46.5802C47.3269 46.1358 46.9101 45.9087 46.4624 45.7384C45.5346 45.3856 44.55 45.2737 43.5832 45.0896C42.6294 44.9063 41.6854 44.7051 40.773 44.341C38.1242 43.2866 37.8533 39.8381 39.5881 38.1244C40.4475 37.2711 41.5497 36.7045 42.7438 36.5024C43.0869 36.4399 43.2304 36.3231 43.1939 35.9606C43.1687 35.6637 43.1703 35.3651 43.1988 35.0685C43.2393 34.5137 43.6627 34.1188 44.2426 34.0725C44.5072 34.0444 44.773 34.1137 44.9903 34.2675C45.2075 34.4213 45.3612 34.6489 45.4226 34.9079C45.52 35.2956 45.4664 35.6889 45.4713 36.079C45.4713 36.2793 45.4964 36.3921 45.7398 36.4253C47.2953 36.6378 48.6408 37.3264 49.8638 38.2834C50.2077 38.5527 50.3586 38.8276 50.3578 39.2112Z" fill="#10788E"/>
    <path d="M66.0897 65.2472C66.0897 67.4759 66.0897 69.7049 66.0897 71.9342C66.0897 72.8644 65.6574 73.2967 64.728 73.2975C62.5803 73.2975 60.4325 73.2975 58.2843 73.2975C57.3857 73.2975 56.9502 72.8798 56.9494 71.9909C56.944 67.4795 56.944 62.9674 56.9494 58.4549C56.9494 57.5814 57.3808 57.1572 58.247 57.1572C60.4222 57.1507 62.5971 57.1507 64.7718 57.1572C65.6558 57.1572 66.0864 57.596 66.0872 58.4808C66.091 60.736 66.0918 62.9915 66.0897 65.2472ZM63.8018 65.2099C63.8018 63.3981 63.7961 61.5871 63.8074 59.776C63.8074 59.5141 63.7393 59.4338 63.4709 59.4362C62.1732 59.4497 60.8756 59.4497 59.5779 59.4362C59.2884 59.4362 59.2178 59.527 59.2186 59.8036C59.2267 63.4121 59.2267 67.0207 59.2186 70.6292C59.2186 70.9098 59.2997 71.0023 59.5852 70.9999C60.8423 70.9869 62.0994 70.9828 63.3557 70.9999C63.6979 71.0055 63.8155 70.9334 63.8107 70.5603C63.7888 68.7776 63.8018 66.9934 63.8018 65.2099Z" fill="#10788E"/>
    <path d="M46.1071 67.5666C46.1071 66.1068 46.1071 64.6469 46.1071 63.1871C46.1071 62.2949 46.5337 61.8708 47.4234 61.8691C49.597 61.8691 51.7711 61.8691 53.9457 61.8691C54.8176 61.8691 55.2709 62.3095 55.2725 63.1903C55.2796 66.1203 55.2796 69.0508 55.2725 71.9819C55.2725 72.8416 54.7932 73.2925 53.9238 73.2941C51.761 73.2941 49.6005 73.2941 47.442 73.2941C46.5499 73.2941 46.1087 72.8424 46.1071 71.9389C46.1049 70.4828 46.1049 69.0254 46.1071 67.5666ZM52.9725 67.5512C52.9725 66.5245 52.9668 65.4969 52.9765 64.4693C52.9765 64.2333 52.9222 64.1384 52.6618 64.1449C51.3377 64.1568 50.013 64.1568 48.6878 64.1449C48.4591 64.1449 48.3893 64.2081 48.3901 64.4401C48.3983 66.5212 48.3983 68.6028 48.3901 70.685C48.3901 70.9405 48.4761 71.0038 48.7146 71.0021C50.0122 70.9932 51.3098 70.9908 52.6075 71.0021C52.8889 71.0021 52.9814 70.921 52.9773 70.6347C52.9635 69.6064 52.9725 68.5788 52.9725 67.5496V67.5512Z" fill="#10788E"/>
    <path d="M39.8311 73.2979C38.7508 73.2979 37.6705 73.2979 36.5869 73.2979C35.7045 73.2979 35.2674 72.8567 35.265 71.9719C35.2606 70.1876 35.2606 68.405 35.265 66.6239C35.265 65.7318 35.6997 65.2955 36.5796 65.2939C38.7543 65.2901 40.9287 65.2901 43.1028 65.2939C43.9884 65.2939 44.4174 65.731 44.4182 66.6166C44.4182 68.4009 44.4182 70.1836 44.4182 71.9646C44.4182 72.8648 43.9819 73.2955 43.0695 73.2987C41.9933 73.3003 40.9122 73.2979 39.8311 73.2979ZM39.8805 70.9938C40.514 70.9938 41.1482 70.9857 41.7824 70.9938C42.0298 70.9986 42.1449 70.9427 42.1393 70.6604C42.1238 69.7432 42.1263 68.8259 42.1393 67.9086C42.1393 67.6572 42.0533 67.5842 41.8148 67.5842C40.5069 67.5923 39.1985 67.5923 37.8895 67.5842C37.6356 67.5842 37.565 67.6799 37.5707 67.9175C37.5805 68.8367 37.5805 69.754 37.5707 70.6694C37.5707 70.92 37.6599 70.9938 37.9016 70.9938C38.5577 70.9857 39.2195 70.9938 39.8846 70.9938H39.8805Z" fill="#10788E"/>
    </g>
    </g>
    <defs>
    <filter id="filter0_d_686_9695" x="0.265625" y="0.425781" width="110" height="110" filterUnits="userSpaceOnUse" color-interpolation-filters="sRGB">
    <feFlood flood-opacity="0" result="BackgroundImageFix"/>
    <feColorMatrix in="SourceAlpha" type="matrix" values="0 0 0 0 0 0 0 0 0 0 0 0 0 0 0 0 0 0 127 0" result="hardAlpha"/>
    <feOffset dy="2"/>
    <feGaussianBlur stdDeviation="2.5"/>
    <feComposite in2="hardAlpha" operator="out"/>
    <feColorMatrix type="matrix" values="0 0 0 0 0.0628125 0 0 0 0 0.46914 0 0 0 0 0.558333 0 0 0 1 0"/>
    <feBlend mode="normal" in2="BackgroundImageFix" result="effect1_dropShadow_686_9695"/>
    <feBlend mode="normal" in="SourceGraphic" in2="effect1_dropShadow_686_9695" result="shape"/>
    </filter>
    <clipPath id="clip0_686_9695">
    <rect width="41.6667" height="51.0196" fill="white" transform="translate(35.2656 28.4258)"/>
    </clipPath>
    <clipPath id="clip1_686_9695">
    <rect width="41.6667" height="39.2279" fill="white" transform="translate(35.2656 34.0723)"/>
    </clipPath>
    </defs>
    </svg>
    
    