<svg width="29" height="26" viewBox="0 0 29 26" fill="none" xmlns="http://www.w3.org/2000/svg">
    <path fill-rule="evenodd" clip-rule="evenodd" d="M19.4588 25.0086H12.7079C9.59667 25.0138 6.59517 23.8594 4.28923 21.7708C1.9833 19.6822 0.538449 16.8092 0.2367 13.7127C-0.414452 7.15733 4.22537 1.18964 10.7552 0.167656C11.6107 0.0441744 12.4753 -0.00467576 13.3393 0.0216573C13.7928 0.0300916 14.2465 0.0250024 14.7002 0.0199139C15.6207 0.00958776 16.541 -0.00073601 17.4594 0.101957C23.2625 1.33483 25.5103 3.28504 27.8924 8.50198C29.2794 13.0162 28.4954 17.0984 25.4645 20.7279C25.2338 21.0038 25.228 21.1513 25.4645 21.4155C25.908 21.9139 26.3366 22.4257 26.7655 22.9378C26.9931 23.2096 27.2208 23.4815 27.4508 23.7515C27.6698 24.0085 27.8158 24.2793 27.6596 24.6144C27.5034 24.9494 27.2092 25.0144 26.8683 25.0137C24.398 25.0064 21.9282 25.0047 19.4588 25.0086ZM20.0392 13.1827H14.3518C12.4427 13.1841 10.5335 13.1834 8.6243 13.1805C8.60382 13.1805 8.58313 13.1807 8.56231 13.1808C8.42362 13.1819 8.27952 13.183 8.15638 13.1367C7.85344 13.0228 7.68992 12.7761 7.72423 12.4527C7.75854 12.1293 7.94615 11.9176 8.2761 11.8636C8.40878 11.8473 8.54258 11.8419 8.67614 11.8475H20.0553C20.7049 11.8475 21.0232 12.084 21.0174 12.5257C21.0115 12.9673 20.6962 13.1827 20.0392 13.1827ZM17.5733 8.58373H14.3285L14.3314 8.583L13.8158 8.58266C12.6144 8.58178 11.4144 8.58091 10.2055 8.59176C9.87332 8.59322 9.60469 8.50052 9.45869 8.18224C9.26451 7.74862 9.56308 7.27851 10.0624 7.25004C10.3387 7.235 10.6154 7.23801 10.892 7.24102C11.0048 7.24224 11.1176 7.24347 11.2304 7.24347H18.2675C18.3082 7.24347 18.3488 7.24266 18.3895 7.24185C18.4707 7.24022 18.5517 7.2386 18.6325 7.24347C19.0566 7.26829 19.3355 7.54861 19.3238 7.93404C19.3136 8.30415 19.0384 8.57059 18.631 8.58373C18.396 8.5886 18.1609 8.58698 17.9259 8.58536C17.8083 8.58455 17.6908 8.58373 17.5733 8.58373ZM18.4135 16.4487C18.5228 16.4439 18.6324 16.4468 18.7413 16.4574C18.9003 16.4763 19.0471 16.5521 19.1544 16.6709C19.2618 16.7897 19.3225 16.9434 19.3253 17.1035C19.3298 17.2619 19.2768 17.4167 19.1762 17.5391C19.0756 17.6616 18.9341 17.7436 18.7778 17.77C18.6452 17.7881 18.5114 17.7942 18.3777 17.7882H10.3558C10.3274 17.7882 10.2989 17.7888 10.2704 17.7893C10.2135 17.7905 10.1568 17.7916 10.1004 17.7882C9.6755 17.7612 9.39883 17.4831 9.41051 17.0962C9.42146 16.7239 9.6952 16.464 10.1033 16.4465C10.2166 16.4426 10.3299 16.4439 10.4435 16.4452C10.5004 16.4458 10.5573 16.4465 10.6143 16.4465L18.4135 16.4487Z" fill="#EDEDED"/>
    </svg>
    