<svg width="111" height="111" viewBox="0 0 111 111" fill="none" xmlns="http://www.w3.org/2000/svg">
    <path d="M103.322 28.0576C107.683 35.6115 110.194 44.0902 110.651 52.8007C111.107 61.5111 109.496 70.206 105.948 78.1743C102.4 86.1426 97.0172 93.1581 90.2386 98.6473C83.46 104.137 75.4785 107.944 66.9467 109.757L65.223 101.647C72.475 100.106 79.2593 96.8701 85.0211 92.2042C90.7829 87.5384 95.3586 81.5752 98.3742 74.8021C101.39 68.0291 102.759 60.6385 102.371 53.2346C101.983 45.8307 99.8486 38.6237 96.1416 32.203L103.322 28.0576Z" fill="#FF5600"/>
    <path d="M43.0217 109.548C34.5228 107.586 26.609 103.64 19.9273 98.0338C13.2455 92.4271 7.98555 85.3187 4.57742 77.2897C1.1693 69.2607 -0.290207 60.539 0.318228 51.8379C0.926664 43.1367 3.58577 34.7031 8.07813 27.2265L15.1847 31.4965C11.3662 37.8516 9.10593 45.0202 8.58876 52.4162C8.07158 59.8122 9.31217 67.2256 12.2091 74.0502C15.106 80.8749 19.5769 86.9171 25.2564 91.6827C30.9359 96.4484 37.6627 99.8022 44.8867 101.47L43.0217 109.548Z" fill="#8E1010"/>
    <path d="M11.3133 22.4301C16.5626 15.4641 23.386 9.83933 31.2257 6.01568C39.0653 2.19202 47.6986 0.278068 56.4197 0.430293C65.1408 0.582518 73.702 2.7966 81.4035 6.89152C89.1049 10.9864 95.7278 16.8459 100.731 23.9909L93.9394 28.7463C89.6869 22.673 84.0574 17.6925 77.5112 14.2118C70.965 10.7311 63.6879 8.84914 56.275 8.71975C48.8621 8.59036 41.5238 10.2172 34.8601 13.4673C28.1964 16.7174 22.3965 21.4985 17.9346 27.4196L11.3133 22.4301Z" fill="#FF8001"/>
    <path d="M106.842 55.6934C106.842 58.4548 58.2145 60.6934 55.4531 60.6934C52.6917 60.6934 50.4531 58.4548 50.4531 55.6934C50.4531 52.9319 52.6917 50.6934 55.4531 50.6934C58.2145 50.6934 106.842 52.9319 106.842 55.6934Z" fill="#EDEDED"/>
    </svg>
    
    