<svg width="111" height="111" viewBox="0 0 111 111" fill="none" xmlns="http://www.w3.org/2000/svg">
    <path d="M103.423 28.0576C107.784 35.6115 110.296 44.0902 110.752 52.8007C111.209 61.5111 109.597 70.206 106.05 78.1743C102.502 86.1426 97.1187 93.1581 90.3402 98.6473C83.5616 104.137 75.5801 107.944 67.0483 109.757L65.3246 101.647C72.5766 100.106 79.3608 96.8701 85.1226 92.2042C90.8844 87.5384 95.4602 81.5752 98.4757 74.8021C101.491 68.0291 102.861 60.6385 102.473 53.2346C102.085 45.8307 99.9502 38.6237 96.2432 32.203L103.423 28.0576Z" fill="#FF5600"/>
    <path d="M43.1233 109.548C34.6244 107.586 26.7106 103.64 20.0288 98.0338C13.3471 92.4271 8.08711 85.3187 4.67899 77.2897C1.27086 69.2607 -0.188645 60.539 0.419791 51.8379C1.02823 43.1367 3.68733 34.7031 8.17969 27.2265L15.2862 31.4965C11.4677 37.8516 9.20749 45.0202 8.69032 52.4162C8.17315 59.8122 9.41373 67.2256 12.3106 74.0502C15.2075 80.8749 19.6785 86.9171 25.358 91.6827C31.0375 96.4484 37.7642 99.8022 44.9883 101.47L43.1233 109.548Z" fill="#8E1010"/>
    <path d="M11.4149 22.4301C16.6642 15.4641 23.4876 9.83933 31.3272 6.01568C39.1669 2.19202 47.8002 0.278068 56.5212 0.430293C65.2423 0.582518 73.8036 2.7966 81.505 6.89152C89.2064 10.9864 95.8294 16.8459 100.832 23.9909L94.041 28.7463C89.7885 22.673 84.159 17.6925 77.6128 14.2118C71.0665 10.7311 63.7895 8.84914 56.3766 8.71975C48.9636 8.59036 41.6253 10.2172 34.9616 13.4673C28.2979 16.7174 22.498 21.4985 18.0361 27.4196L11.4149 22.4301Z" fill="#FF8001"/>
    <path d="M85.4767 93.9565C83.1983 95.5167 53.8765 56.6594 52.3163 54.3809C50.7561 52.1025 51.3383 48.9907 53.6167 47.4305C55.8952 45.8703 59.007 46.4525 60.5672 48.7309C62.1274 51.0093 87.7551 92.3962 85.4767 93.9565Z" fill="#EDEDED"/>
    </svg>
    
    