<svg width="415" height="114" viewBox="0 0 415 114" fill="none" xmlns="http://www.w3.org/2000/svg">
    <path d="M159.002 4.70099V14.8828H158.072V5.67543H158.013L155.626 7.26136V6.29688L158.033 4.70099H159.002ZM165.256 15.022C164.54 15.022 163.929 14.8165 163.422 14.4055C162.918 13.9912 162.53 13.393 162.259 12.6108C161.99 11.8286 161.856 10.889 161.856 9.7919C161.856 8.69815 161.99 7.76184 162.259 6.98295C162.53 6.20076 162.92 5.60251 163.427 5.18821C163.937 4.7706 164.547 4.56179 165.256 4.56179C165.966 4.56179 166.574 4.7706 167.081 5.18821C167.591 5.60251 167.981 6.20076 168.249 6.98295C168.521 7.76184 168.657 8.69815 168.657 9.7919C168.657 10.889 168.521 11.8286 168.249 12.6108C167.981 13.393 167.593 13.9912 167.086 14.4055C166.582 14.8165 165.972 15.022 165.256 15.022ZM165.256 14.1868C166.042 14.1868 166.655 13.804 167.096 13.0384C167.537 12.2694 167.757 11.1873 167.757 9.7919C167.757 8.86387 167.656 8.07173 167.454 7.41548C167.255 6.75592 166.968 6.25213 166.594 5.90412C166.223 5.55611 165.777 5.3821 165.256 5.3821C164.478 5.3821 163.866 5.76989 163.422 6.54545C162.978 7.31771 162.756 8.39986 162.756 9.7919C162.756 10.7199 162.855 11.5121 163.054 12.1683C163.256 12.8246 163.543 13.325 163.914 13.6697C164.289 14.0144 164.736 14.1868 165.256 14.1868ZM179.192 7.24645V8.08168H175.538V14.8828H174.653V7.24645H179.192ZM183.623 15.0419C182.963 15.0419 182.38 14.8745 181.873 14.5398C181.369 14.205 180.974 13.7427 180.689 13.1527C180.404 12.5594 180.262 11.875 180.262 11.0994C180.262 10.3172 180.404 9.6295 180.689 9.03622C180.974 8.43963 181.369 7.97562 181.873 7.64418C182.38 7.30942 182.963 7.14205 183.623 7.14205C184.282 7.14205 184.864 7.30942 185.368 7.64418C185.872 7.97893 186.266 8.44294 186.551 9.03622C186.839 9.6295 186.983 10.3172 186.983 11.0994C186.983 11.875 186.841 12.5594 186.556 13.1527C186.271 13.7427 185.875 14.205 185.368 14.5398C184.864 14.8745 184.282 15.0419 183.623 15.0419ZM183.623 14.2315C184.153 14.2315 184.602 14.089 184.97 13.804C185.338 13.5189 185.616 13.1394 185.805 12.6655C185.997 12.1915 186.094 11.6695 186.094 11.0994C186.094 10.5294 185.997 10.0057 185.805 9.52841C185.616 9.05114 185.338 8.66832 184.97 8.37997C184.602 8.09162 184.153 7.94744 183.623 7.94744C183.096 7.94744 182.647 8.09162 182.275 8.37997C181.907 8.66832 181.627 9.05114 181.435 9.52841C181.246 10.0057 181.152 10.5294 181.152 11.0994C181.152 11.6695 181.246 12.1915 181.435 12.6655C181.627 13.1394 181.907 13.5189 182.275 13.804C182.643 14.089 183.092 14.2315 183.623 14.2315ZM188.021 17.0554V14.0476H188.683C188.848 13.862 188.992 13.6615 189.115 13.446C189.238 13.2306 189.344 12.9853 189.433 12.7102C189.526 12.4318 189.604 12.1087 189.667 11.7408C189.73 11.3696 189.783 10.937 189.826 10.4432L190.104 7.24645H194.624V14.0476H195.757V17.0554H194.872V14.8828H188.911V17.0554H188.021ZM189.702 14.0476H193.739V8.08168H190.93L190.701 10.4432C190.621 11.2453 190.509 11.9446 190.363 12.5412C190.217 13.1378 189.997 13.6399 189.702 14.0476ZM198.329 13.625L202.361 7.24645H203.42V14.8828H202.535V8.50426L198.518 14.8828H197.444V7.24645H198.329V13.625ZM210.912 10.652V11.4872H206.422V10.652H210.912ZM206.641 7.24645V14.8828H205.756V7.24645H206.641ZM211.563 7.24645V14.8828H210.678V7.24645H211.563Z" fill="#FF8001" fill-opacity="0.5"/>
    <path d="M313.717 35.522C313.067 35.522 312.489 35.3994 311.982 35.1541C311.475 34.9089 311.077 34.5741 310.789 34.1499C310.5 33.7223 310.356 33.2401 310.356 32.7031C310.356 32.2822 310.444 31.8894 310.62 31.5249C310.795 31.157 311.037 30.8487 311.346 30.6001C311.654 30.3482 312 30.1842 312.385 30.108V30.0533C311.884 29.9074 311.482 29.6207 311.177 29.1932C310.872 28.7623 310.721 28.2734 310.724 27.7266C310.721 27.2195 310.85 26.7654 311.112 26.3643C311.374 25.9633 311.73 25.6468 312.181 25.4148C312.635 25.1795 313.147 25.0618 313.717 25.0618C314.284 25.0618 314.793 25.1795 315.243 25.4148C315.694 25.6468 316.05 25.9633 316.312 26.3643C316.577 26.7654 316.712 27.2195 316.715 27.7266C316.712 28.2701 316.557 28.759 316.253 29.1932C315.948 29.6241 315.547 29.9107 315.049 30.0533V30.108C315.434 30.1809 315.779 30.3433 316.084 30.5952C316.388 30.8471 316.63 31.157 316.809 31.5249C316.988 31.8894 317.078 32.2822 317.078 32.7031C317.078 33.2401 316.932 33.7223 316.64 34.1499C316.352 34.5741 315.954 34.9089 315.447 35.1541C314.943 35.3994 314.367 35.522 313.717 35.522ZM313.717 34.6868C314.201 34.6868 314.625 34.6006 314.99 34.4283C315.358 34.2526 315.644 34.0123 315.85 33.7074C316.059 33.4025 316.163 33.0528 316.163 32.6584C316.163 32.2507 316.055 31.8878 315.84 31.5696C315.624 31.2481 315.333 30.9946 314.965 30.8089C314.597 30.62 314.181 30.5256 313.717 30.5256C313.253 30.5256 312.835 30.62 312.464 30.8089C312.096 30.9946 311.805 31.2481 311.589 31.5696C311.377 31.8878 311.271 32.2507 311.271 32.6584C311.271 33.0528 311.372 33.4025 311.574 33.7074C311.78 34.0123 312.066 34.2526 312.434 34.4283C312.806 34.6006 313.233 34.6868 313.717 34.6868ZM313.717 29.7301C314.115 29.7301 314.471 29.6456 314.786 29.4766C315.101 29.3075 315.349 29.0772 315.532 28.7855C315.717 28.4905 315.812 28.1558 315.815 27.7812C315.812 27.41 315.719 27.0819 315.537 26.7969C315.354 26.5085 315.106 26.2848 314.791 26.1257C314.479 25.9633 314.121 25.8821 313.717 25.8821C313.313 25.8821 312.951 25.9633 312.633 26.1257C312.318 26.2848 312.07 26.5085 311.888 26.7969C311.709 27.0819 311.621 27.41 311.624 27.7812C311.621 28.1558 311.71 28.4905 311.892 28.7855C312.078 29.0772 312.328 29.3075 312.643 29.4766C312.961 29.6456 313.319 29.7301 313.717 29.7301ZM327.654 27.7464V28.5817H324V35.3828H323.115V27.7464H327.654ZM332.085 35.5419C331.425 35.5419 330.842 35.3745 330.335 35.0398C329.831 34.705 329.436 34.2427 329.151 33.6527C328.866 33.0594 328.724 32.375 328.724 31.5994C328.724 30.8172 328.866 30.1295 329.151 29.5362C329.436 28.9396 329.831 28.4756 330.335 28.1442C330.842 27.8094 331.425 27.642 332.085 27.642C332.744 27.642 333.326 27.8094 333.83 28.1442C334.333 28.4789 334.728 28.9429 335.013 29.5362C335.301 30.1295 335.445 30.8172 335.445 31.5994C335.445 32.375 335.303 33.0594 335.018 33.6527C334.733 34.2427 334.337 34.705 333.83 35.0398C333.326 35.3745 332.744 35.5419 332.085 35.5419ZM332.085 34.7315C332.615 34.7315 333.064 34.589 333.432 34.304C333.8 34.0189 334.078 33.6394 334.267 33.1655C334.459 32.6915 334.555 32.1695 334.555 31.5994C334.555 31.0294 334.459 30.5057 334.267 30.0284C334.078 29.5511 333.8 29.1683 333.432 28.88C333.064 28.5916 332.615 28.4474 332.085 28.4474C331.558 28.4474 331.109 28.5916 330.737 28.88C330.369 29.1683 330.089 29.5511 329.897 30.0284C329.708 30.5057 329.614 31.0294 329.614 31.5994C329.614 32.1695 329.708 32.6915 329.897 33.1655C330.089 33.6394 330.369 34.0189 330.737 34.304C331.105 34.589 331.554 34.7315 332.085 34.7315ZM336.483 37.5554V34.5476H337.144C337.31 34.362 337.454 34.1615 337.577 33.946C337.7 33.7306 337.806 33.4853 337.895 33.2102C337.988 32.9318 338.066 32.6087 338.129 32.2408C338.192 31.8696 338.245 31.437 338.288 30.9432L338.566 27.7464H343.085V34.5476H344.219V37.5554H343.334V35.3828H337.373V37.5554H336.483ZM338.164 34.5476H342.201V28.5817H339.392L339.163 30.9432C339.083 31.7453 338.971 32.4446 338.825 33.0412C338.679 33.6378 338.459 34.1399 338.164 34.5476ZM346.791 34.125L350.823 27.7464H351.881V35.3828H350.997V29.0043L346.979 35.3828H345.906V27.7464H346.791V34.125ZM359.374 31.152V31.9872H354.884V31.152H359.374ZM355.103 27.7464V35.3828H354.218V27.7464H355.103ZM360.025 27.7464V35.3828H359.14V27.7464H360.025Z" fill="#FF8001" fill-opacity="0.5"/>
    <path d="M142.835 100.125V110.307H141.905V101.099H141.846L139.459 102.685V101.721L141.866 100.125H142.835ZM145.927 110.307V109.626L149.253 105.887C149.688 105.396 150.037 104.977 150.302 104.629C150.568 104.281 150.76 103.96 150.879 103.665C151.002 103.37 151.063 103.063 151.063 102.745C151.063 102.357 150.972 102.019 150.79 101.731C150.611 101.439 150.364 101.212 150.049 101.05C149.734 100.887 149.379 100.806 148.985 100.806C148.567 100.806 148.201 100.895 147.886 101.074C147.575 101.253 147.333 101.499 147.16 101.81C146.988 102.122 146.902 102.48 146.902 102.884H146.012C146.012 102.321 146.141 101.822 146.4 101.388C146.662 100.95 147.018 100.607 147.469 100.358C147.923 100.11 148.436 99.9856 149.01 99.9856C149.577 99.9856 150.08 100.108 150.521 100.354C150.962 100.595 151.308 100.925 151.56 101.343C151.812 101.76 151.938 102.228 151.938 102.745C151.938 103.119 151.872 103.482 151.739 103.834C151.61 104.185 151.386 104.576 151.068 105.007C150.75 105.438 150.309 105.965 149.746 106.588L147.22 109.407V109.471H152.256V110.307H145.927ZM157.694 110.307V109.471H157.933C158.204 109.471 158.423 109.422 158.589 109.322C158.758 109.22 158.889 109.047 158.982 108.805C159.074 108.563 159.144 108.233 159.19 107.816C159.237 107.398 159.273 106.875 159.3 106.245L159.464 102.67H164.316V110.307H163.426V103.506H160.304L160.16 106.543C160.13 107.163 160.08 107.708 160.011 108.179C159.944 108.649 159.835 109.042 159.683 109.357C159.533 109.672 159.325 109.909 159.056 110.068C158.791 110.227 158.443 110.307 158.012 110.307H157.694ZM167.546 109.049L171.578 102.67H172.637V110.307H171.752V103.928L167.735 110.307H166.661V102.67H167.546V109.049ZM177.957 110.466C177.274 110.466 176.679 110.295 176.172 109.954C175.668 109.612 175.277 109.145 174.999 108.552C174.72 107.958 174.581 107.282 174.581 106.523C174.581 105.758 174.722 105.077 175.004 104.48C175.289 103.883 175.683 103.416 176.187 103.078C176.691 102.737 177.276 102.566 177.942 102.566C178.452 102.566 178.915 102.665 179.329 102.864C179.743 103.06 180.085 103.336 180.353 103.694C180.625 104.049 180.796 104.463 180.865 104.937H179.97C179.878 104.506 179.654 104.139 179.299 103.834C178.948 103.525 178.501 103.371 177.957 103.371C177.47 103.371 177.039 103.504 176.664 103.769C176.29 104.031 175.996 104.397 175.784 104.868C175.576 105.335 175.471 105.877 175.471 106.493C175.471 107.113 175.574 107.662 175.779 108.139C175.985 108.613 176.273 108.984 176.644 109.253C177.019 109.521 177.456 109.655 177.957 109.655C178.295 109.655 178.603 109.592 178.882 109.466C179.163 109.337 179.399 109.155 179.588 108.92C179.78 108.684 179.909 108.404 179.975 108.079H180.87C180.804 108.54 180.64 108.951 180.378 109.312C180.12 109.67 179.783 109.952 179.369 110.157C178.958 110.363 178.487 110.466 177.957 110.466ZM182.136 103.506V102.67H188.101V103.506H185.576V110.307H184.691V103.506H182.136ZM192.544 110.466C191.884 110.466 191.301 110.298 190.794 109.964C190.29 109.629 189.895 109.166 189.61 108.577C189.325 107.983 189.183 107.299 189.183 106.523C189.183 105.741 189.325 105.053 189.61 104.46C189.895 103.863 190.29 103.399 190.794 103.068C191.301 102.733 191.884 102.566 192.544 102.566C193.203 102.566 193.785 102.733 194.289 103.068C194.792 103.403 195.187 103.867 195.472 104.46C195.76 105.053 195.904 105.741 195.904 106.523C195.904 107.299 195.762 107.983 195.477 108.577C195.192 109.166 194.796 109.629 194.289 109.964C193.785 110.298 193.203 110.466 192.544 110.466ZM192.544 109.655C193.074 109.655 193.523 109.513 193.891 109.228C194.259 108.943 194.537 108.563 194.726 108.089C194.918 107.615 195.014 107.093 195.014 106.523C195.014 105.953 194.918 105.43 194.726 104.952C194.537 104.475 194.259 104.092 193.891 103.804C193.523 103.515 193.074 103.371 192.544 103.371C192.017 103.371 191.568 103.515 191.196 103.804C190.828 104.092 190.548 104.475 190.356 104.952C190.167 105.43 190.073 105.953 190.073 106.523C190.073 107.093 190.167 107.615 190.356 108.089C190.548 108.563 190.828 108.943 191.196 109.228C191.564 109.513 192.013 109.655 192.544 109.655ZM197.857 110.307V102.67H203.639V110.307H202.749V103.506H198.747V110.307H197.857ZM208.115 110.481C207.654 110.481 207.233 110.391 206.852 110.212C206.471 110.03 206.167 109.768 205.942 109.427C205.717 109.082 205.604 108.664 205.604 108.174C205.604 107.796 205.675 107.478 205.818 107.219C205.96 106.961 206.162 106.749 206.424 106.583C206.686 106.417 206.996 106.286 207.354 106.19C207.712 106.094 208.106 106.019 208.537 105.966C208.965 105.913 209.326 105.867 209.621 105.827C209.919 105.787 210.146 105.724 210.302 105.638C210.458 105.552 210.536 105.413 210.536 105.221V105.042C210.536 104.521 210.38 104.112 210.068 103.814C209.76 103.512 209.316 103.361 208.736 103.361C208.186 103.361 207.737 103.482 207.389 103.724C207.044 103.966 206.802 104.251 206.663 104.579L205.823 104.276C205.995 103.858 206.234 103.525 206.539 103.277C206.844 103.025 207.185 102.844 207.563 102.735C207.941 102.622 208.323 102.566 208.711 102.566C209.003 102.566 209.306 102.604 209.621 102.68C209.939 102.756 210.234 102.889 210.506 103.078C210.778 103.264 210.998 103.524 211.167 103.858C211.336 104.19 211.421 104.611 211.421 105.121V110.307H210.536V109.099H210.481C210.375 109.324 210.218 109.543 210.009 109.755C209.8 109.967 209.538 110.141 209.223 110.277C208.908 110.413 208.539 110.481 208.115 110.481ZM208.234 109.67C208.705 109.67 209.112 109.566 209.457 109.357C209.802 109.148 210.067 108.872 210.252 108.527C210.441 108.179 210.536 107.796 210.536 107.378V106.275C210.469 106.338 210.358 106.394 210.203 106.444C210.05 106.493 209.873 106.538 209.671 106.578C209.472 106.614 209.273 106.646 209.074 106.672C208.875 106.699 208.696 106.722 208.537 106.742C208.106 106.795 207.738 106.878 207.434 106.991C207.129 107.103 206.895 107.259 206.733 107.458C206.57 107.653 206.489 107.905 206.489 108.214C206.489 108.678 206.655 109.037 206.986 109.292C207.318 109.544 207.733 109.67 208.234 109.67ZM212.87 112.479V109.471H213.531C213.697 109.286 213.841 109.085 213.964 108.87C214.086 108.654 214.192 108.409 214.282 108.134C214.375 107.856 214.453 107.532 214.516 107.165C214.579 106.793 214.632 106.361 214.675 105.867L214.953 102.67H219.472V109.471H220.606V112.479H219.721V110.307H213.76V112.479H212.87ZM214.55 109.471H218.587V103.506H215.778L215.55 105.867C215.47 106.669 215.357 107.368 215.212 107.965C215.066 108.562 214.845 109.064 214.55 109.471ZM224.425 110.481C223.964 110.481 223.544 110.391 223.162 110.212C222.781 110.03 222.478 109.768 222.253 109.427C222.027 109.082 221.915 108.664 221.915 108.174C221.915 107.796 221.986 107.478 222.128 107.219C222.271 106.961 222.473 106.749 222.735 106.583C222.997 106.417 223.307 106.286 223.665 106.19C224.022 106.094 224.417 106.019 224.848 105.966C225.275 105.913 225.637 105.867 225.932 105.827C226.23 105.787 226.457 105.724 226.613 105.638C226.768 105.552 226.846 105.413 226.846 105.221V105.042C226.846 104.521 226.691 104.112 226.379 103.814C226.071 103.512 225.627 103.361 225.047 103.361C224.496 103.361 224.047 103.482 223.699 103.724C223.355 103.966 223.113 104.251 222.973 104.579L222.133 104.276C222.306 103.858 222.544 103.525 222.849 103.277C223.154 103.025 223.495 102.844 223.873 102.735C224.251 102.622 224.634 102.566 225.022 102.566C225.313 102.566 225.617 102.604 225.932 102.68C226.25 102.756 226.545 102.889 226.816 103.078C227.088 103.264 227.309 103.524 227.478 103.858C227.647 104.19 227.731 104.611 227.731 105.121V110.307H226.846V109.099H226.792C226.686 109.324 226.528 109.543 226.319 109.755C226.111 109.967 225.849 110.141 225.534 110.277C225.219 110.413 224.849 110.481 224.425 110.481ZM224.544 109.67C225.015 109.67 225.423 109.566 225.767 109.357C226.112 109.148 226.377 108.872 226.563 108.527C226.752 108.179 226.846 107.796 226.846 107.378V106.275C226.78 106.338 226.669 106.394 226.513 106.444C226.361 106.493 226.183 106.538 225.981 106.578C225.782 106.614 225.584 106.646 225.385 106.672C225.186 106.699 225.007 106.722 224.848 106.742C224.417 106.795 224.049 106.878 223.744 106.991C223.439 107.103 223.205 107.259 223.043 107.458C222.881 107.653 222.799 107.905 222.799 108.214C222.799 108.678 222.965 109.037 223.297 109.292C223.628 109.544 224.044 109.67 224.544 109.67Z" fill="#FF8001" fill-opacity="0.5"/>
    <path d="M294.921 100.125V110.307H293.991V101.099H293.932L291.545 102.685V101.721L293.952 100.125H294.921ZM298.013 110.307V109.626L301.339 105.887C301.774 105.396 302.123 104.977 302.388 104.629C302.654 104.281 302.846 103.96 302.965 103.665C303.088 103.37 303.149 103.063 303.149 102.745C303.149 102.357 303.058 102.019 302.876 101.731C302.697 101.439 302.45 101.212 302.135 101.05C301.82 100.887 301.465 100.806 301.071 100.806C300.653 100.806 300.287 100.895 299.972 101.074C299.661 101.253 299.419 101.499 299.246 101.81C299.074 102.122 298.988 102.48 298.988 102.884H298.098C298.098 102.321 298.227 101.822 298.486 101.388C298.748 100.95 299.104 100.607 299.555 100.358C300.009 100.11 300.522 99.9856 301.096 99.9856C301.663 99.9856 302.166 100.108 302.607 100.354C303.048 100.595 303.394 100.925 303.646 101.343C303.898 101.76 304.024 102.228 304.024 102.745C304.024 103.119 303.958 103.482 303.825 103.834C303.696 104.185 303.472 104.576 303.154 105.007C302.836 105.438 302.395 105.965 301.832 106.588L299.306 109.407V109.471H304.342V110.307H298.013ZM309.78 110.307V109.471H310.019C310.29 109.471 310.509 109.422 310.675 109.322C310.844 109.22 310.975 109.047 311.068 108.805C311.16 108.563 311.23 108.233 311.276 107.816C311.323 107.398 311.359 106.875 311.386 106.245L311.55 102.67H316.402V110.307H315.512V103.506H312.39L312.246 106.543C312.216 107.163 312.166 107.708 312.097 108.179C312.03 108.649 311.921 109.042 311.769 109.357C311.619 109.672 311.411 109.909 311.142 110.068C310.877 110.227 310.529 110.307 310.098 110.307H309.78ZM319.632 109.049L323.664 102.67H324.723V110.307H323.838V103.928L319.821 110.307H318.747V102.67H319.632V109.049ZM330.043 110.466C329.36 110.466 328.765 110.295 328.258 109.954C327.754 109.612 327.363 109.145 327.085 108.552C326.806 107.958 326.667 107.282 326.667 106.523C326.667 105.758 326.808 105.077 327.09 104.48C327.375 103.883 327.769 103.416 328.273 103.078C328.777 102.737 329.362 102.566 330.028 102.566C330.538 102.566 331.001 102.665 331.415 102.864C331.829 103.06 332.171 103.336 332.439 103.694C332.711 104.049 332.882 104.463 332.951 104.937H332.056C331.964 104.506 331.74 104.139 331.385 103.834C331.034 103.525 330.586 103.371 330.043 103.371C329.556 103.371 329.125 103.504 328.75 103.769C328.376 104.031 328.082 104.397 327.87 104.868C327.661 105.335 327.557 105.877 327.557 106.493C327.557 107.113 327.66 107.662 327.865 108.139C328.071 108.613 328.359 108.984 328.73 109.253C329.105 109.521 329.542 109.655 330.043 109.655C330.381 109.655 330.689 109.592 330.968 109.466C331.249 109.337 331.485 109.155 331.674 108.92C331.866 108.684 331.995 108.404 332.061 108.079H332.956C332.89 108.54 332.726 108.951 332.464 109.312C332.206 109.67 331.869 109.952 331.455 110.157C331.044 110.363 330.573 110.466 330.043 110.466ZM334.222 103.506V102.67H340.187V103.506H337.662V110.307H336.777V103.506H334.222ZM344.63 110.466C343.97 110.466 343.387 110.298 342.88 109.964C342.376 109.629 341.981 109.166 341.696 108.577C341.411 107.983 341.269 107.299 341.269 106.523C341.269 105.741 341.411 105.053 341.696 104.46C341.981 103.863 342.376 103.399 342.88 103.068C343.387 102.733 343.97 102.566 344.63 102.566C345.289 102.566 345.871 102.733 346.375 103.068C346.878 103.403 347.273 103.867 347.558 104.46C347.846 105.053 347.99 105.741 347.99 106.523C347.99 107.299 347.848 107.983 347.563 108.577C347.278 109.166 346.882 109.629 346.375 109.964C345.871 110.298 345.289 110.466 344.63 110.466ZM344.63 109.655C345.16 109.655 345.609 109.513 345.977 109.228C346.345 108.943 346.623 108.563 346.812 108.089C347.004 107.615 347.1 107.093 347.1 106.523C347.1 105.953 347.004 105.43 346.812 104.952C346.623 104.475 346.345 104.092 345.977 103.804C345.609 103.515 345.16 103.371 344.63 103.371C344.103 103.371 343.653 103.515 343.282 103.804C342.914 104.092 342.634 104.475 342.442 104.952C342.253 105.43 342.159 105.953 342.159 106.523C342.159 107.093 342.253 107.615 342.442 108.089C342.634 108.563 342.914 108.943 343.282 109.228C343.65 109.513 344.099 109.655 344.63 109.655ZM349.943 110.307V102.67H355.725V110.307H354.835V103.506H350.833V110.307H349.943ZM360.201 110.481C359.74 110.481 359.319 110.391 358.938 110.212C358.557 110.03 358.253 109.768 358.028 109.427C357.803 109.082 357.69 108.664 357.69 108.174C357.69 107.796 357.761 107.478 357.904 107.219C358.046 106.961 358.248 106.749 358.51 106.583C358.772 106.417 359.082 106.286 359.44 106.19C359.798 106.094 360.192 106.019 360.623 105.966C361.051 105.913 361.412 105.867 361.707 105.827C362.005 105.787 362.232 105.724 362.388 105.638C362.544 105.552 362.622 105.413 362.622 105.221V105.042C362.622 104.521 362.466 104.112 362.154 103.814C361.846 103.512 361.402 103.361 360.822 103.361C360.272 103.361 359.823 103.482 359.475 103.724C359.13 103.966 358.888 104.251 358.749 104.579L357.909 104.276C358.081 103.858 358.32 103.525 358.625 103.277C358.929 103.025 359.271 102.844 359.649 102.735C360.027 102.622 360.409 102.566 360.797 102.566C361.089 102.566 361.392 102.604 361.707 102.68C362.025 102.756 362.32 102.889 362.592 103.078C362.864 103.264 363.084 103.524 363.253 103.858C363.422 104.19 363.507 104.611 363.507 105.121V110.307H362.622V109.099H362.567C362.461 109.324 362.304 109.543 362.095 109.755C361.886 109.967 361.624 110.141 361.309 110.277C360.994 110.413 360.625 110.481 360.201 110.481ZM360.32 109.67C360.791 109.67 361.198 109.566 361.543 109.357C361.888 109.148 362.153 108.872 362.338 108.527C362.527 108.179 362.622 107.796 362.622 107.378V106.275C362.555 106.338 362.444 106.394 362.289 106.444C362.136 106.493 361.959 106.538 361.757 106.578C361.558 106.614 361.359 106.646 361.16 106.672C360.961 106.699 360.782 106.722 360.623 106.742C360.192 106.795 359.824 106.878 359.519 106.991C359.215 107.103 358.981 107.259 358.818 107.458C358.656 107.653 358.575 107.905 358.575 108.214C358.575 108.678 358.741 109.037 359.072 109.292C359.403 109.544 359.819 109.67 360.32 109.67ZM364.956 112.479V109.471H365.617C365.783 109.286 365.927 109.085 366.05 108.87C366.172 108.654 366.278 108.409 366.368 108.134C366.461 107.856 366.539 107.532 366.601 107.165C366.664 106.793 366.717 106.361 366.761 105.867L367.039 102.67H371.558V109.471H372.692V112.479H371.807V110.307H365.846V112.479H364.956ZM366.636 109.471H370.673V103.506H367.864L367.636 105.867C367.556 106.669 367.443 107.368 367.297 107.965C367.152 108.562 366.931 109.064 366.636 109.471ZM376.511 110.481C376.05 110.481 375.629 110.391 375.248 110.212C374.867 110.03 374.564 109.768 374.339 109.427C374.113 109.082 374 108.664 374 108.174C374 107.796 374.072 107.478 374.214 107.219C374.357 106.961 374.559 106.749 374.821 106.583C375.083 106.417 375.392 106.286 375.75 106.19C376.108 106.094 376.503 106.019 376.934 105.966C377.361 105.913 377.723 105.867 378.017 105.827C378.316 105.787 378.543 105.724 378.699 105.638C378.854 105.552 378.932 105.413 378.932 105.221V105.042C378.932 104.521 378.776 104.112 378.465 103.814C378.157 103.512 377.713 103.361 377.133 103.361C376.582 103.361 376.133 103.482 375.785 103.724C375.441 103.966 375.199 104.251 375.059 104.579L374.219 104.276C374.392 103.858 374.63 103.525 374.935 103.277C375.24 103.025 375.581 102.844 375.959 102.735C376.337 102.622 376.72 102.566 377.108 102.566C377.399 102.566 377.703 102.604 378.017 102.68C378.336 102.756 378.631 102.889 378.902 103.078C379.174 103.264 379.395 103.524 379.564 103.858C379.733 104.19 379.817 104.611 379.817 105.121V110.307H378.932V109.099H378.878C378.772 109.324 378.614 109.543 378.405 109.755C378.196 109.967 377.935 110.141 377.62 110.277C377.305 110.413 376.935 110.481 376.511 110.481ZM376.63 109.67C377.101 109.67 377.509 109.566 377.853 109.357C378.198 109.148 378.463 108.872 378.649 108.527C378.838 108.179 378.932 107.796 378.932 107.378V106.275C378.866 106.338 378.755 106.394 378.599 106.444C378.447 106.493 378.269 106.538 378.067 106.578C377.868 106.614 377.669 106.646 377.471 106.672C377.272 106.699 377.093 106.722 376.934 106.742C376.503 106.795 376.135 106.878 375.83 106.991C375.525 107.103 375.291 107.259 375.129 107.458C374.967 107.653 374.885 107.905 374.885 108.214C374.885 108.678 375.051 109.037 375.383 109.292C375.714 109.544 376.13 109.67 376.63 109.67Z" fill="#FF8001" fill-opacity="0.5"/>
    <path d="M1.1875 71.8354C32.787 79.633 100.665 90.5498 119.379 71.8354C142.772 48.4424 171.91 20.9463 196.533 29.1542C221.157 37.362 243.318 56.2405 274.507 57.0613C305.697 57.8821 318.83 40.6457 349.198 48.8535C379.567 57.0613 393.521 71.8354 414.04 71.8354" stroke="#EDEDED" stroke-width="3"/>
    <circle cx="183.738" cy="27.748" r="5" fill="#FF5600"/>
    <circle cx="335.824" cy="46.0215" r="5" fill="#FF5600"/>
    <line x1="184.238" y1="37.6133" x2="184.238" y2="96.3066" stroke="#EDEDED" stroke-dasharray="2 2"/>
    <line x1="336.324" y1="57.8477" x2="336.324" y2="96.3066" stroke="#EDEDED" stroke-dasharray="2 2"/>
    </svg>
    