<svg width="111" height="112" viewBox="0 0 111 112" fill="none" xmlns="http://www.w3.org/2000/svg">
    <path d="M110.73 56.1543C110.73 69.3146 106.035 82.0431 97.4877 92.0503C88.9408 102.057 77.1036 108.687 64.1053 110.745C51.1071 112.804 37.8007 110.157 26.5797 103.281C15.3587 96.4047 6.95943 85.7503 2.89268 73.2341C-1.17408 60.7179 -0.641441 47.1613 4.3948 35.0028C9.43103 22.8443 18.6403 12.8817 30.3663 6.90704C42.0922 0.932382 55.5652 -0.662246 68.3619 2.40997C81.1586 5.48219 92.4391 13.0196 100.175 23.6666L93.4672 28.5397C86.8921 19.4898 77.3036 13.083 66.4264 10.4716C55.5493 7.86023 44.0972 9.21567 34.1302 14.2941C24.1631 19.3726 16.3352 27.8408 12.0544 38.1755C7.77362 48.5103 7.32088 60.0334 10.7776 70.6721C14.2344 81.3109 21.3737 90.3672 30.9116 96.212C40.4495 102.057 51.7598 104.307 62.8084 102.557C73.8569 100.807 83.9185 95.172 91.1834 86.6659C98.4483 78.1598 102.44 67.3406 102.44 56.1543H110.73Z" fill="#FF8001"/>
    <path d="M20.6355 53.1543V42.9725H24.0708C24.7337 42.9725 25.2856 43.0885 25.7264 43.3205C26.1705 43.5525 26.5036 43.869 26.7257 44.2701C26.9477 44.6711 27.0588 45.1268 27.0588 45.6373C27.0588 46.0615 26.9875 46.4244 26.845 46.726C26.7025 47.0276 26.5086 47.2712 26.2633 47.4569C26.0181 47.6425 25.7446 47.7767 25.443 47.8596V47.9391C25.7711 47.9623 26.0893 48.0783 26.3975 48.2871C26.7058 48.4926 26.9593 48.781 27.1582 49.1522C27.3571 49.5234 27.4565 49.9675 27.4565 50.4846C27.4565 50.9983 27.3422 51.4573 27.1135 51.8617C26.8848 52.2627 26.5334 52.5792 26.0595 52.8113C25.5888 53.04 24.9889 53.1543 24.2598 53.1543H20.6355ZM21.5652 52.3191H24.2598C25.0453 52.3191 25.6253 52.1451 25.9998 51.7971C26.3777 51.449 26.5666 51.0115 26.5666 50.4846C26.5666 50.0968 26.4721 49.7454 26.2832 49.4306C26.0976 49.1124 25.8341 48.8605 25.4927 48.6749C25.1547 48.4893 24.7569 48.3965 24.2995 48.3965H21.5652V52.3191ZM21.5652 47.5712H24.1554C24.5564 47.5712 24.9077 47.4883 25.2093 47.3226C25.5109 47.1569 25.7463 46.9282 25.9153 46.6365C26.0843 46.3449 26.1689 46.0118 26.1689 45.6373C26.1689 45.097 25.9932 44.6578 25.6419 44.3198C25.2905 43.9784 24.7669 43.8077 24.0708 43.8077H21.5652V47.5712ZM30.4009 51.8965L34.4329 45.5179H35.4918V53.1543H34.6069V46.7757L30.5898 53.1543H29.516V45.5179H30.4009V51.8965ZM37.8285 53.1543V45.5179H38.7134V48.9533H39.5437L42.3825 45.5179H43.5259L40.4634 49.1919L43.5955 53.1543H42.4521L39.8171 49.7885H38.7134V53.1543H37.8285ZM47.7008 53.3134C47.0413 53.3134 46.4579 53.146 45.9508 52.8113C45.447 52.4765 45.0526 52.0141 44.7676 51.4242C44.4825 50.8309 44.34 50.1465 44.34 49.3709C44.34 48.5887 44.4825 47.901 44.7676 47.3077C45.0526 46.7111 45.447 46.2471 45.9508 45.9157C46.4579 45.5809 47.0413 45.4135 47.7008 45.4135C48.3604 45.4135 48.9421 45.5809 49.4458 45.9157C49.9496 46.2504 50.344 46.7144 50.6291 47.3077C50.9174 47.901 51.0616 48.5887 51.0616 49.3709C51.0616 50.1465 50.9191 50.8309 50.6341 51.4242C50.349 52.0141 49.9529 52.4765 49.4458 52.8113C48.9421 53.146 48.3604 53.3134 47.7008 53.3134ZM47.7008 52.503C48.2311 52.503 48.6802 52.3605 49.0481 52.0755C49.416 51.7904 49.6944 51.4109 49.8833 50.937C50.0756 50.463 50.1717 49.941 50.1717 49.3709C50.1717 48.8008 50.0756 48.2772 49.8833 47.7999C49.6944 47.3226 49.416 46.9398 49.0481 46.6515C48.6802 46.3631 48.2311 46.2189 47.7008 46.2189C47.1738 46.2189 46.7247 46.3631 46.3535 46.6515C45.9856 46.9398 45.7056 47.3226 45.5133 47.7999C45.3244 48.2772 45.2299 48.8008 45.2299 49.3709C45.2299 49.941 45.3244 50.463 45.5133 50.937C45.7056 51.4109 45.9856 51.7904 46.3535 52.0755C46.7214 52.3605 47.1705 52.503 47.7008 52.503ZM58.1598 48.9235V49.7587H53.6705V48.9235H58.1598ZM53.8892 45.5179V53.1543H53.0043V45.5179H53.8892ZM58.8111 45.5179V53.1543H57.9261V45.5179H58.8111ZM63.2992 53.3283C62.8385 53.3283 62.4176 53.2388 62.0364 53.0598C61.6552 52.8775 61.352 52.6157 61.1266 52.2743C60.9012 51.9296 60.7885 51.512 60.7885 51.0215C60.7885 50.6436 60.8598 50.3255 61.0023 50.0669C61.1448 49.8084 61.347 49.5963 61.6088 49.4306C61.8707 49.2649 62.1806 49.1339 62.5385 49.0378C62.8965 48.9417 63.2909 48.8671 63.7218 48.8141C64.1493 48.7611 64.5106 48.7147 64.8056 48.6749C65.1039 48.6351 65.3309 48.5721 65.4867 48.486C65.6425 48.3998 65.7203 48.2606 65.7203 48.0684V47.8894C65.7203 47.369 65.5646 46.9597 65.253 46.6614C64.9448 46.3598 64.5007 46.209 63.9206 46.209C63.3704 46.209 62.9213 46.33 62.5733 46.5719C62.2286 46.8139 61.9867 47.0989 61.8475 47.427L61.0073 47.1238C61.1796 46.7061 61.4183 46.373 61.7232 46.1245C62.0281 45.8726 62.3695 45.6919 62.7473 45.5826C63.1252 45.4699 63.508 45.4135 63.8958 45.4135C64.1874 45.4135 64.4907 45.4516 64.8056 45.5279C65.1238 45.6041 65.4187 45.7367 65.6905 45.9256C65.9623 46.1112 66.1827 46.3714 66.3517 46.7061C66.5208 47.0376 66.6053 47.4585 66.6053 47.9689V53.1543H65.7203V51.9462H65.6657C65.5596 52.1716 65.4022 52.3903 65.1934 52.6025C64.9846 52.8146 64.7227 52.9886 64.4078 53.1245C64.093 53.2604 63.7234 53.3283 63.2992 53.3283ZM63.4185 52.5179C63.8891 52.5179 64.2968 52.4135 64.6415 52.2047C64.9862 51.9959 65.2514 51.7192 65.437 51.3745C65.6259 51.0265 65.7203 50.6436 65.7203 50.226V49.1223C65.6541 49.1853 65.543 49.2417 65.3873 49.2914C65.2348 49.3411 65.0575 49.3858 64.8553 49.4256C64.6564 49.4621 64.4576 49.4935 64.2587 49.5201C64.0598 49.5466 63.8809 49.5698 63.7218 49.5897C63.2909 49.6427 62.923 49.7256 62.6181 49.8382C62.3132 49.9509 62.0795 50.1067 61.9171 50.3056C61.7547 50.5011 61.6735 50.753 61.6735 51.0613C61.6735 51.5253 61.8392 51.8849 62.1706 52.1401C62.5021 52.392 62.918 52.5179 63.4185 52.5179ZM74.1149 48.9235V49.7587H69.6255V48.9235H74.1149ZM69.8443 45.5179V53.1543H68.9593V45.5179H69.8443ZM74.7662 45.5179V53.1543H73.8812V45.5179H74.7662ZM78.0064 51.8965L82.0384 45.5179H83.0973V53.1543H82.2124V46.7757L78.1953 53.1543H77.1214V45.5179H78.0064V51.8965ZM85.9808 45.5179L87.9496 48.7743L89.9183 45.5179H90.9474L88.4915 49.3361L90.9474 53.1543H89.9183L87.9496 50.0023L85.9808 53.1543H84.9567L87.3828 49.3361L84.9567 45.5179H85.9808ZM26.9798 68.2054H27.9195C27.946 68.6131 28.1217 68.9313 28.4465 69.16C28.7713 69.3887 29.1988 69.503 29.7291 69.503C30.2793 69.503 30.7334 69.3804 31.0914 69.1351C31.4493 68.8865 31.6283 68.5253 31.6283 68.0513C31.6283 67.763 31.5603 67.5127 31.4244 67.3006C31.2919 67.0885 31.1096 66.9228 30.8776 66.8034C30.6489 66.6808 30.3887 66.6178 30.097 66.6145H28.7646V65.8042H30.0821C30.5362 65.7776 30.8809 65.655 31.1162 65.4363C31.3515 65.2142 31.4692 64.9242 31.4692 64.5662C31.4692 64.1586 31.325 63.8321 31.0367 63.5868C30.7483 63.3382 30.3572 63.214 29.8634 63.214C29.3629 63.214 28.9469 63.3366 28.6155 63.5819C28.2841 63.8271 28.1084 64.142 28.0885 64.5265H27.1588C27.1754 64.1122 27.2997 63.7476 27.5317 63.4327C27.7637 63.1145 28.0769 62.8659 28.4713 62.687C28.8691 62.508 29.3198 62.4185 29.8236 62.4185C30.3406 62.4185 30.7897 62.5113 31.1709 62.6969C31.5521 62.8825 31.847 63.1361 32.0558 63.4576C32.2646 63.7757 32.3691 64.137 32.3691 64.5414C32.3691 64.9623 32.253 65.3087 32.021 65.5804C31.7923 65.8489 31.499 66.0378 31.1411 66.1472V66.2218C31.4128 66.2516 31.6515 66.351 31.857 66.5201C32.0658 66.6891 32.2298 66.9062 32.3492 67.1713C32.4685 67.4365 32.5281 67.7298 32.5281 68.0513C32.5281 68.5021 32.4105 68.8981 32.1752 69.2395C31.9398 69.5776 31.6117 69.8411 31.1908 70.03C30.7732 70.2189 30.2909 70.3134 29.7441 70.3134C29.2171 70.3134 28.7481 70.2256 28.3371 70.0499C27.9261 69.8709 27.5996 69.624 27.3577 69.3091C27.1191 68.9909 26.9931 68.623 26.9798 68.2054ZM36.4818 70.3283C36.0211 70.3283 35.6002 70.2388 35.219 70.0598C34.8379 69.8775 34.5346 69.6157 34.3092 69.2743C34.0838 68.9296 33.9711 68.512 33.9711 68.0215C33.9711 67.6436 34.0424 67.3255 34.1849 67.0669C34.3274 66.8084 34.5296 66.5963 34.7915 66.4306C35.0533 66.2649 35.3632 66.1339 35.7211 66.0378C36.0791 65.9417 36.4735 65.8671 36.9044 65.8141C37.3319 65.7611 37.6932 65.7147 37.9882 65.6749C38.2865 65.6351 38.5135 65.5721 38.6693 65.486C38.8251 65.3998 38.903 65.2606 38.903 65.0684V64.8894C38.903 64.369 38.7472 63.9597 38.4356 63.6614C38.1274 63.3598 37.6833 63.209 37.1032 63.209C36.5531 63.209 36.104 63.33 35.7559 63.5719C35.4113 63.8139 35.1693 64.0989 35.0301 64.427L34.1899 64.1238C34.3622 63.7061 34.6009 63.373 34.9058 63.1245C35.2107 62.8726 35.5521 62.6919 35.93 62.5826C36.3078 62.4699 36.6906 62.4135 37.0784 62.4135C37.3701 62.4135 37.6733 62.4516 37.9882 62.5279C38.3064 62.6041 38.6014 62.7367 38.8731 62.9256C39.1449 63.1112 39.3653 63.3714 39.5344 63.7061C39.7034 64.0376 39.7879 64.4585 39.7879 64.9689V70.1543H38.903V68.9462H38.8483C38.7422 69.1716 38.5848 69.3903 38.376 69.6025C38.1672 69.8146 37.9053 69.9886 37.5905 70.1245C37.2756 70.2604 36.906 70.3283 36.4818 70.3283ZM36.6011 69.5179C37.0718 69.5179 37.4794 69.4135 37.8241 69.2047C38.1688 68.9959 38.434 68.7192 38.6196 68.3745C38.8085 68.0265 38.903 67.6436 38.903 67.226V66.1223C38.8367 66.1853 38.7256 66.2417 38.5699 66.2914C38.4174 66.3411 38.2401 66.3858 38.0379 66.4256C37.839 66.4621 37.6402 66.4935 37.4413 66.5201C37.2425 66.5466 37.0635 66.5698 36.9044 66.5897C36.4735 66.6427 36.1056 66.7256 35.8007 66.8382C35.4958 66.9509 35.2621 67.1067 35.0997 67.3056C34.9373 67.5011 34.8561 67.753 34.8561 68.0613C34.8561 68.5253 35.0218 68.8849 35.3532 69.1401C35.6847 69.392 36.1006 69.5179 36.6011 69.5179ZM42.142 70.1543V62.5179H45.1498C45.9618 62.5179 46.6015 62.6936 47.0688 63.0449C47.5394 63.3962 47.7748 63.8702 47.7748 64.4668C47.7748 64.9209 47.6439 65.2838 47.382 65.5556C47.1202 65.8274 46.7689 66.0196 46.328 66.1323C46.623 66.182 46.8965 66.2897 47.1483 66.4554C47.4036 66.6212 47.6107 66.8399 47.7698 67.1117C47.9289 67.3835 48.0084 67.7083 48.0084 68.0861C48.0084 68.4838 47.909 68.8385 47.7101 69.15C47.5113 69.4616 47.2312 69.7069 46.8699 69.8858C46.5087 70.0648 46.0811 70.1543 45.5873 70.1543H42.142ZM42.9871 69.334H45.5873C46.0546 69.334 46.4242 69.2147 46.6959 68.976C46.9677 68.7341 47.1036 68.4126 47.1036 68.0115C47.1036 67.584 46.9743 67.2426 46.7158 66.9874C46.4606 66.7289 46.1176 66.5996 45.6867 66.5996H42.9871V69.334ZM42.9871 65.8141H45.2045C45.5492 65.8141 45.8474 65.7611 46.0993 65.655C46.3512 65.5489 46.5451 65.3998 46.681 65.2076C46.8202 65.012 46.8882 64.7833 46.8849 64.5215C46.8849 64.147 46.7324 63.8569 46.4275 63.6515C46.1225 63.4426 45.6966 63.3382 45.1498 63.3382H42.9871V65.8141ZM49.0438 72.3269V69.3191H49.705C49.8707 69.1335 50.0149 68.9329 50.1375 68.7175C50.2602 68.5021 50.3662 68.2568 50.4557 67.9817C50.5485 67.7033 50.6264 67.3801 50.6894 67.0123C50.7523 66.641 50.8054 66.2085 50.8485 65.7147L51.1269 62.5179H55.646V69.3191H56.7796V72.3269H55.8946V70.1543H49.9337V72.3269H49.0438ZM50.7242 69.3191H54.7611V63.3532H51.9521L51.7235 65.7147C51.6439 66.5167 51.5312 67.2161 51.3854 67.8127C51.2396 68.4093 51.0191 68.9114 50.7242 69.3191ZM60.599 70.3283C60.1383 70.3283 59.7174 70.2388 59.3362 70.0598C58.955 69.8775 58.6518 69.6157 58.4264 69.2743C58.201 68.9296 58.0883 68.512 58.0883 68.0215C58.0883 67.6436 58.1596 67.3255 58.3021 67.0669C58.4446 66.8084 58.6468 66.5963 58.9086 66.4306C59.1705 66.2649 59.4804 66.1339 59.8383 66.0378C60.1963 65.9417 60.5907 65.8671 61.0216 65.8141C61.4491 65.7611 61.8104 65.7147 62.1054 65.6749C62.4037 65.6351 62.6307 65.5721 62.7865 65.486C62.9423 65.3998 63.0202 65.2606 63.0202 65.0684V64.8894C63.0202 64.369 62.8644 63.9597 62.5528 63.6614C62.2446 63.3598 61.8005 63.209 61.2204 63.209C60.6702 63.209 60.2211 63.33 59.8731 63.5719C59.5284 63.8139 59.2865 64.0989 59.1473 64.427L58.3071 64.1238C58.4794 63.7061 58.7181 63.373 59.023 63.1245C59.3279 62.8726 59.6693 62.6919 60.0471 62.5826C60.425 62.4699 60.8078 62.4135 61.1956 62.4135C61.4872 62.4135 61.7905 62.4516 62.1054 62.5279C62.4236 62.6041 62.7185 62.7367 62.9903 62.9256C63.2621 63.1112 63.4825 63.3714 63.6515 63.7061C63.8206 64.0376 63.9051 64.4585 63.9051 64.9689V70.1543H63.0202V68.9462H62.9655C62.8594 69.1716 62.702 69.3903 62.4932 69.6025C62.2844 69.8146 62.0225 69.9886 61.7077 70.1245C61.3928 70.2604 61.0232 70.3283 60.599 70.3283ZM60.7183 69.5179C61.189 69.5179 61.5966 69.4135 61.9413 69.2047C62.286 68.9959 62.5512 68.7192 62.7368 68.3745C62.9257 68.0265 63.0202 67.6436 63.0202 67.226V66.1223C62.9539 66.1853 62.8428 66.2417 62.6871 66.2914C62.5346 66.3411 62.3573 66.3858 62.1551 66.4256C61.9562 66.4621 61.7574 66.4935 61.5585 66.5201C61.3596 66.5466 61.1807 66.5698 61.0216 66.5897C60.5907 66.6427 60.2228 66.7256 59.9179 66.8382C59.613 66.9509 59.3793 67.1067 59.2169 67.3056C59.0545 67.5011 58.9733 67.753 58.9733 68.0613C58.9733 68.5253 59.139 68.8849 59.4704 69.1401C59.8019 69.392 60.2178 69.5179 60.7183 69.5179ZM71.4147 65.9235V66.7587H66.9253V65.9235H71.4147ZM67.1441 62.5179V70.1543H66.2591V62.5179H67.1441ZM72.066 62.5179V70.1543H71.181V62.5179H72.066ZM75.157 65.4661H77.3893C78.2477 65.4661 78.9106 65.6749 79.3779 66.0925C79.8453 66.5101 80.0789 67.0752 80.0789 67.7878C80.0789 68.2618 79.9745 68.6761 79.7657 69.0307C79.5569 69.3854 79.252 69.6621 78.8509 69.861C78.4499 70.0565 77.9627 70.1543 77.3893 70.1543H74.4213V62.5179H75.3062V69.3191H77.3893C77.9295 69.3191 78.3654 69.1898 78.6968 68.9313C79.0283 68.6728 79.194 68.3049 79.194 67.8276C79.194 67.3404 79.0283 66.9642 78.6968 66.699C78.3654 66.4339 77.9295 66.3013 77.3893 66.3013H75.157V65.4661ZM82.7288 69.9604C82.5332 69.9604 82.3642 69.8908 82.2217 69.7516C82.0825 69.6124 82.0129 69.4434 82.0129 69.2445C82.0129 69.0489 82.0825 68.8816 82.2217 68.7424C82.3642 68.5998 82.5332 68.5286 82.7288 68.5286C82.9276 68.5286 83.0967 68.5998 83.2359 68.7424C83.3751 68.8816 83.4447 69.0489 83.4447 69.2445C83.4447 69.3771 83.4115 69.498 83.3453 69.6074C83.2823 69.7135 83.1961 69.7997 83.0867 69.8659C82.9807 69.9289 82.8614 69.9604 82.7288 69.9604ZM82.7288 64.4519C82.5332 64.4519 82.3642 64.3823 82.2217 64.2431C82.0825 64.1039 82.0129 63.9348 82.0129 63.736C82.0129 63.5404 82.0825 63.373 82.2217 63.2338C82.3642 63.0913 82.5332 63.0201 82.7288 63.0201C82.9276 63.0201 83.0967 63.0913 83.2359 63.2338C83.3751 63.373 83.4447 63.5404 83.4447 63.736C83.4447 63.8685 83.4115 63.9895 83.3453 64.0989C83.2823 64.205 83.1961 64.2911 83.0867 64.3574C82.9807 64.4204 82.8614 64.4519 82.7288 64.4519Z" fill="#EDEDED"/>
    </svg>
    