<svg width="150" height="15" viewBox="0 0 150 15" fill="none" xmlns="http://www.w3.org/2000/svg">
<path d="M16.3646 -1.16828e-05C15.9677 2.17366 15.7414 3.85193 15.277 5.47291C14.9 6.79059 15.277 7.10064 16.8647 7.01302C26.4262 6.48729 35.9917 6.00202 45.5573 5.57403C63.4499 4.78994 81.3545 4.37092 99.271 4.317C113.683 4.25297 128.095 4.27656 142.49 4.99101C144.912 5.11233 147.353 5.1831 150 5.83015C148.559 6.57155 147.202 6.60862 145.88 6.69624C129.258 7.77465 112.603 7.86902 95.9489 8.09481C69.6378 8.44866 43.3266 8.35092 17.0115 8.27678C15.3405 8.27678 14.8881 8.70814 14.8365 10.046C14.7809 11.5592 14.8881 13.0791 14.9675 15C10.5419 11.4311 5.75122 8.89351 -1.86011e-07 6.62885C6.28308 5.48304 11.4707 3.48123 16.3646 -1.16828e-05Z" fill="url(#paint0_linear_231_474)"/>
<defs>
<linearGradient id="paint0_linear_231_474" x1="150" y1="7.5" x2="-6.55671e-07" y2="7.49999" gradientUnits="userSpaceOnUse">
<stop offset="0.765403" stop-color="#EDEDED" stop-opacity="0"/>
<stop offset="0.839832" stop-color="#EDEDED"/>
<stop offset="1" stop-color="#EDEDED"/>
</linearGradient>
</defs>
</svg>
