<svg width="76" height="76" viewBox="0 0 76 76" fill="none" xmlns="http://www.w3.org/2000/svg">
<path d="M26.4271 44L31.0656 34.718V34.6534H25.7211V33.8182H32.04V34.6932L27.4065 44H26.4271ZM37.1645 33.8182V44H36.2348V34.7926H36.1751L33.7888 36.3786V35.4141L36.195 33.8182H37.1645ZM45.4074 42.1108V41.6484C45.4074 41.2673 45.4836 40.9242 45.6361 40.6193C45.7885 40.3111 46.0056 40.0675 46.2874 39.8885C46.5691 39.7095 46.9038 39.62 47.2916 39.62C47.6827 39.62 48.0175 39.7095 48.2959 39.8885C48.5743 40.0675 48.7881 40.3111 48.9372 40.6193C49.0864 40.9242 49.1609 41.2673 49.1609 41.6484V42.1108C49.1609 42.492 49.0847 42.835 48.9322 43.1399C48.7831 43.4448 48.5693 43.6884 48.2909 43.8707C48.0125 44.0497 47.6794 44.1392 47.2916 44.1392C46.8972 44.1392 46.5591 44.0497 46.2774 43.8707C45.999 43.6884 45.7836 43.4448 45.6311 43.1399C45.482 42.835 45.4074 42.492 45.4074 42.1108ZM46.1879 41.6484V42.1108C46.1879 42.4853 46.2791 42.8052 46.4614 43.0703C46.647 43.3321 46.9237 43.4631 47.2916 43.4631C47.6496 43.4631 47.9197 43.3321 48.102 43.0703C48.2843 42.8052 48.3754 42.4853 48.3754 42.1108V41.6484C48.3754 41.2739 48.2859 40.9557 48.107 40.6939C47.928 40.4287 47.6562 40.2962 47.2916 40.2962C46.9303 40.2962 46.6553 40.4287 46.4663 40.6939C46.2807 40.9557 46.1879 41.2739 46.1879 41.6484ZM40.2767 36.1697V35.7074C40.2767 35.3262 40.3529 34.9832 40.5054 34.6783C40.6579 34.3733 40.8749 34.1314 41.1567 33.9524C41.4384 33.7701 41.7731 33.679 42.1609 33.679C42.552 33.679 42.8868 33.7701 43.1652 33.9524C43.4436 34.1314 43.6574 34.3733 43.8065 34.6783C43.9557 34.9832 44.0303 35.3262 44.0303 35.7074V36.1697C44.0303 36.5509 43.954 36.8956 43.8016 37.2038C43.6524 37.5088 43.4386 37.7507 43.1602 37.9297C42.8818 38.1087 42.5487 38.1982 42.1609 38.1982C41.7665 38.1982 41.4285 38.1087 41.1467 37.9297C40.8683 37.7507 40.6529 37.5088 40.5004 37.2038C40.3513 36.8956 40.2767 36.5509 40.2767 36.1697ZM41.0572 35.7074V36.1697C41.0572 36.5443 41.1484 36.8641 41.3307 37.1293C41.5163 37.3911 41.793 37.522 42.1609 37.522C42.5189 37.522 42.789 37.3911 42.9713 37.1293C43.1536 36.8641 43.2447 36.5443 43.2447 36.1697V35.7074C43.2447 35.3329 43.1553 35.0147 42.9763 34.7528C42.7973 34.4877 42.5255 34.3551 42.1609 34.3551C41.7997 34.3551 41.5246 34.4877 41.3356 34.7528C41.15 35.0147 41.0572 35.3329 41.0572 35.7074ZM40.7341 44L47.7291 33.8182H48.6091L41.6141 44H40.7341Z" fill="#FF5600"/>
<mask id="path-2-outside-1_80_4591" maskUnits="userSpaceOnUse" x="0.000244141" y="0" width="76" height="76" fill="black">
<rect fill="white" x="0.000244141" width="76" height="76"/>
<path d="M38.0002 73C31.4521 73 25.0352 71.163 19.479 67.6979C13.9228 64.2327 9.45008 59.2783 6.56928 53.3979C3.68847 47.5174 2.5151 40.9467 3.18252 34.4326C3.84994 27.9186 6.33139 21.7223 10.3448 16.5483C14.3583 11.3742 19.7427 7.42974 25.8861 5.1633C32.0296 2.89686 38.6857 2.39931 45.0978 3.7272C51.5099 5.05509 57.421 8.15516 62.159 12.6751C66.8971 17.195 70.2722 22.9534 71.9007 29.2959L65.1206 31.0367C63.8178 25.9627 61.1177 21.356 57.3273 17.74C53.5368 14.1241 48.808 11.6441 43.6783 10.5818C38.5486 9.51945 33.2237 9.91749 28.309 11.7306C23.3942 13.5438 19.0867 16.6993 15.8759 20.8386C12.6652 24.9779 10.68 29.9348 10.1461 35.1461C9.61213 40.3574 10.5508 45.6139 12.8555 50.3183C15.1601 55.0227 18.7383 58.9862 23.1832 61.7583C27.6282 64.5304 32.7617 66 38.0002 66V73Z"/>
</mask>
<path d="M38.0002 73C31.4521 73 25.0352 71.163 19.479 67.6979C13.9228 64.2327 9.45008 59.2783 6.56928 53.3979C3.68847 47.5174 2.5151 40.9467 3.18252 34.4326C3.84994 27.9186 6.33139 21.7223 10.3448 16.5483C14.3583 11.3742 19.7427 7.42974 25.8861 5.1633C32.0296 2.89686 38.6857 2.39931 45.0978 3.7272C51.5099 5.05509 57.421 8.15516 62.159 12.6751C66.8971 17.195 70.2722 22.9534 71.9007 29.2959L65.1206 31.0367C63.8178 25.9627 61.1177 21.356 57.3273 17.74C53.5368 14.1241 48.808 11.6441 43.6783 10.5818C38.5486 9.51945 33.2237 9.91749 28.309 11.7306C23.3942 13.5438 19.0867 16.6993 15.8759 20.8386C12.6652 24.9779 10.68 29.9348 10.1461 35.1461C9.61213 40.3574 10.5508 45.6139 12.8555 50.3183C15.1601 55.0227 18.7383 58.9862 23.1832 61.7583C27.6282 64.5304 32.7617 66 38.0002 66V73Z" stroke="#FF5600" stroke-width="6" mask="url(#path-2-outside-1_80_4591)"/>
</svg>

