<svg width="210" height="210" viewBox="0 0 210 210" fill="none" xmlns="http://www.w3.org/2000/svg">
<g filter="url(#filter0_d_80_275)">
<circle cx="105" cy="103" r="100" fill="#EDEDED" fill-opacity="0.02" shape-rendering="crispEdges"/>
</g>
<g clip-path="url(#clip0_80_275)">
<path d="M90.9136 133.951C90.9136 138.914 90.9136 143.876 90.9136 148.838C90.9136 151.509 89.4572 152.984 86.8051 152.992C81.9447 153.004 77.0829 153.004 72.2198 152.992C71.7417 153.005 71.264 152.953 70.8002 152.836C69.8512 152.561 69.3212 152.068 69.3273 150.88C69.3849 141.059 69.3602 131.235 69.3602 121.412V120.693C69.3499 119.361 69.0007 118.844 68.1174 118.844C67.234 118.844 66.8725 119.386 66.8725 120.693C66.8725 128.394 66.8519 136.1 66.8971 143.797C66.8971 144.662 66.6116 144.972 65.8412 145.184C62.2052 146.184 58.4582 143.602 58.0514 139.771C58.0112 139.361 57.9927 138.95 57.996 138.538C57.996 130.458 57.996 122.378 57.996 114.298C57.996 110.481 59.5654 107.566 63.0269 105.799C64.4258 105.084 65.9439 104.86 67.5011 104.86C75.9236 104.86 84.3461 104.848 92.7686 104.879C93.2066 104.903 93.6439 104.821 94.0429 104.639C94.442 104.456 94.7907 104.18 95.0592 103.833C98.7055 99.5192 102.397 95.2524 106.074 90.9693C106.964 89.9421 108.005 89.1204 109.379 88.8534C109.768 88.7753 109.914 88.6336 109.996 88.2104C110.817 83.88 111.662 79.5537 112.549 75.2356C112.684 74.6093 113.05 74.0569 113.575 73.6893C114.099 73.3216 114.743 73.1659 115.378 73.2532C115.71 73.3006 116.029 73.4153 116.316 73.5903C116.602 73.7653 116.85 73.9969 117.043 74.271C117.237 74.5451 117.373 74.8558 117.442 75.1842C117.511 75.5125 117.513 75.8516 117.447 76.1806C116.83 79.5783 116.144 82.9597 115.452 86.3451C115.228 87.4441 115.179 88.6048 114.63 89.6135C114.425 90.0099 114.7 90.166 114.897 90.3859C117.212 92.9907 117.362 95.727 115.238 98.4633C110.781 104.228 106.286 109.967 101.818 115.719C101.373 116.329 100.783 116.817 100.101 117.14C99.4195 117.463 98.6678 117.61 97.9146 117.568C95.8952 117.523 93.8738 117.595 91.8565 117.537C91.078 117.517 90.891 117.743 90.8951 118.511C90.9301 123.682 90.9136 128.817 90.9136 133.951Z" fill="#EDEDED"/>
<path d="M125.144 58.0533H105.731C103.194 58.0533 102.323 58.9099 102.323 61.4203C102.323 69.3963 102.323 77.3737 102.323 85.3525C102.323 87.0288 101.865 87.8321 100.719 88.2614C99.1081 88.8633 97.5325 87.9286 97.3045 86.2277C97.2788 85.9546 97.2705 85.6801 97.2798 85.406C97.2798 77.2916 97.2798 69.1772 97.2798 61.0628C97.2798 57.7904 98.6356 55.3335 101.542 53.7784C102.754 53.1292 104.092 53.0142 105.429 53.0121C118.576 53.0012 131.724 53.0012 144.871 53.0121C149.898 53.0224 152.992 56.1695 152.996 61.1861C153.004 73.4788 153.004 85.7703 152.996 98.0603C152.996 102.085 150.981 104.839 147.256 105.957C146.434 106.208 145.568 106.22 144.715 106.222C136.738 106.233 128.761 106.233 120.785 106.222C120.101 106.222 119.411 106.247 118.798 105.848C117.798 105.197 117.34 104.098 117.619 103.013C117.917 101.865 118.872 101.152 120.245 101.148C127.092 101.136 133.94 101.136 140.787 101.148C142.225 101.148 143.663 101.164 145.101 101.148C146.925 101.119 147.905 100.174 147.907 98.3376C147.922 85.875 147.922 73.4124 147.907 60.9498C147.907 58.986 146.932 58.0615 144.974 58.0615C138.361 58.0519 131.751 58.0492 125.144 58.0533Z" fill="#EDEDED"/>
<path d="M92.1812 87.2201C92.1722 89.9706 91.3489 92.6569 89.8149 94.94C88.281 97.2231 86.1052 99.0007 83.5621 100.049C81.019 101.097 78.2224 101.368 75.5254 100.828C72.8283 100.288 70.3514 98.9619 68.4074 97.0161C66.4633 95.0703 65.1391 92.5923 64.6018 89.8948C64.0644 87.1972 64.3381 84.401 65.3883 81.8588C66.4384 79.3166 68.218 77.1424 70.5024 75.6104C72.7869 74.0785 75.4739 73.2575 78.2244 73.251C80.0588 73.2491 81.8756 73.6092 83.5705 74.3107C85.2655 75.0122 86.8054 76.0413 88.1019 77.3389C89.3985 78.6366 90.4262 80.1774 91.1262 81.873C91.8262 83.5686 92.1847 85.3857 92.1812 87.2201Z" fill="#EDEDED"/>
<path d="M125.144 63.1462C130.172 63.1462 135.199 63.1462 140.227 63.1462C141.537 63.1462 142.414 63.8076 142.762 64.9703C142.911 65.4827 142.894 66.0294 142.712 66.5313C142.531 67.0332 142.194 67.4643 141.751 67.7621C141.291 68.0654 140.746 68.2157 140.196 68.1914C130.142 68.1914 120.089 68.1914 110.035 68.1914C108.474 68.1914 107.364 67.0801 107.381 65.6544C107.397 64.2288 108.504 63.1585 110.064 63.1585C115.09 63.1379 120.117 63.1462 125.144 63.1462Z" fill="#EDEDED"/>
<path d="M131.479 88.4544C134.318 88.4544 137.157 88.4544 139.996 88.4544C141.707 88.4544 142.872 89.4816 142.872 90.9874C142.872 92.4931 141.707 93.5614 140.017 93.5614C134.339 93.5709 128.66 93.5709 122.981 93.5614C121.179 93.5614 120.047 92.5342 120.068 90.9689C120.088 89.4487 121.21 88.4668 122.96 88.4627C125.799 88.4483 128.636 88.4544 131.479 88.4544Z" fill="#EDEDED"/>
<path d="M131.485 80.8666C128.646 80.8666 125.807 80.8666 122.968 80.8666C121.206 80.8666 120.092 79.9011 120.068 78.3871C120.045 76.83 121.173 75.7946 122.977 75.7905C128.655 75.7782 134.333 75.7782 140.011 75.7905C141.714 75.7905 142.874 76.8587 142.872 78.344C142.87 79.8292 141.728 80.8625 139.996 80.8666C137.163 80.8707 134.324 80.8666 131.485 80.8666Z" fill="#EDEDED"/>
</g>
<defs>
<filter id="filter0_d_80_275" x="0" y="0" width="210" height="210" filterUnits="userSpaceOnUse" color-interpolation-filters="sRGB">
<feFlood flood-opacity="0" result="BackgroundImageFix"/>
<feColorMatrix in="SourceAlpha" type="matrix" values="0 0 0 0 0 0 0 0 0 0 0 0 0 0 0 0 0 0 127 0" result="hardAlpha"/>
<feOffset dy="2"/>
<feGaussianBlur stdDeviation="2.5"/>
<feComposite in2="hardAlpha" operator="out"/>
<feColorMatrix type="matrix" values="0 0 0 0 1 0 0 0 0 0.337255 0 0 0 0 0 0 0 0 1 0"/>
<feBlend mode="normal" in2="BackgroundImageFix" result="effect1_dropShadow_80_275"/>
<feBlend mode="normal" in="SourceGraphic" in2="effect1_dropShadow_80_275" result="shape"/>
</filter>
<clipPath id="clip0_80_275">
<rect width="94.9917" height="100" fill="white" transform="translate(58 53)"/>
</clipPath>
</defs>
</svg>
