<svg width="598" height="264" viewBox="0 0 598 264" fill="none" xmlns="http://www.w3.org/2000/svg">
<rect x="0.000244141" y="-0.000976562" width="100" height="188" fill="#EDEDED"/>
<path d="M28.1189 29.8172H29.9832L33.2247 37.732H33.344L36.5855 29.8172H38.4498V39.999H36.9882V32.6311H36.8937L33.8909 39.9841H32.6778L29.675 32.6262H29.5805V39.999H28.1189V29.8172ZM42.7863 40.1681C42.3024 40.1681 41.8649 40.0786 41.4738 39.8996C41.0827 39.7173 40.7728 39.4538 40.5441 39.1091C40.3187 38.7644 40.206 38.3418 40.206 37.8414C40.206 37.4105 40.2889 37.0558 40.4546 36.7774C40.6203 36.499 40.8441 36.2786 41.1258 36.1162C41.4075 35.9538 41.7224 35.8312 42.0704 35.7483C42.4184 35.6655 42.773 35.6025 43.1343 35.5594C43.5917 35.5064 43.9629 35.4633 44.2479 35.4301C44.533 35.3937 44.7401 35.3357 44.8694 35.2561C44.9986 35.1766 45.0633 35.0473 45.0633 34.8683V34.8335C45.0633 34.3994 44.9406 34.0629 44.6954 33.8243C44.4534 33.5857 44.0922 33.4664 43.6116 33.4664C43.1111 33.4664 42.7167 33.5774 42.4283 33.7994C42.1433 34.0182 41.9461 34.2618 41.8367 34.5303L40.4397 34.2121C40.6054 33.7481 40.8474 33.3735 41.1655 33.0885C41.487 32.8002 41.8566 32.5914 42.2742 32.4621C42.6918 32.3295 43.131 32.2632 43.5917 32.2632C43.8966 32.2632 44.2198 32.2997 44.5611 32.3726C44.9058 32.4422 45.2273 32.5715 45.5256 32.7604C45.8272 32.9493 46.0742 33.2194 46.2664 33.5708C46.4586 33.9188 46.5548 34.3712 46.5548 34.928V39.999H45.103V38.955H45.0434C44.9473 39.1472 44.8031 39.3361 44.6109 39.5218C44.4186 39.7074 44.1717 39.8615 43.8701 39.9841C43.5685 40.1067 43.2072 40.1681 42.7863 40.1681ZM43.1094 38.9749C43.5204 38.9749 43.8718 38.8937 44.1634 38.7313C44.4584 38.5689 44.6821 38.3567 44.8346 38.0949C44.9904 37.8298 45.0682 37.5464 45.0682 37.2448V36.2604C45.0152 36.3134 44.9125 36.3631 44.76 36.4095C44.6109 36.4526 44.4402 36.4907 44.2479 36.5239C44.0557 36.5537 43.8684 36.5819 43.6861 36.6084C43.5039 36.6316 43.3514 36.6515 43.2288 36.6681C42.9404 36.7045 42.6769 36.7658 42.4383 36.852C42.203 36.9382 42.014 37.0625 41.8715 37.2249C41.7323 37.384 41.6627 37.5961 41.6627 37.8612C41.6627 38.2291 41.7986 38.5075 42.0704 38.6965C42.3422 38.8821 42.6885 38.9749 43.1094 38.9749ZM48.5347 39.999V32.3627H49.9715V33.5757H50.051C50.1902 33.1647 50.4355 32.8416 50.7868 32.6063C51.1415 32.3676 51.5425 32.2483 51.9899 32.2483C52.0827 32.2483 52.1921 32.2516 52.3181 32.2583C52.4473 32.2649 52.5484 32.2732 52.6213 32.2831V33.705C52.5617 33.6884 52.4556 33.6702 52.3032 33.6503C52.1507 33.6271 51.9982 33.6155 51.8458 33.6155C51.4944 33.6155 51.1812 33.6901 50.9061 33.8392C50.6344 33.9851 50.4189 34.1889 50.2598 34.4507C50.1007 34.7093 50.0212 35.0042 50.0212 35.3357V39.999H48.5347ZM56.8509 40.1531C56.1118 40.1531 55.4754 39.9858 54.9418 39.651C54.4115 39.3129 54.0039 38.8473 53.7188 38.254C53.4338 37.6607 53.2913 36.9813 53.2913 36.2156C53.2913 35.4401 53.4371 34.7557 53.7288 34.1624C54.0204 33.5658 54.4314 33.1001 54.9617 32.7654C55.492 32.4306 56.1168 32.2632 56.836 32.2632C57.416 32.2632 57.9331 32.3709 58.3871 32.5864C58.8412 32.7985 59.2075 33.0968 59.4859 33.4813C59.7676 33.8657 59.935 34.3148 59.988 34.8286H58.5413C58.4617 34.4706 58.2794 34.1624 57.9944 33.9039C57.7127 33.6453 57.3348 33.5161 56.8609 33.5161C56.4466 33.5161 56.0836 33.6254 55.7721 33.8442C55.4638 34.0596 55.2236 34.3679 55.0512 34.7689C54.8789 35.1666 54.7927 35.6373 54.7927 36.1808C54.7927 36.7377 54.8772 37.2182 55.0462 37.6226C55.2153 38.027 55.4539 38.3402 55.7621 38.5622C56.0737 38.7843 56.4399 38.8953 56.8609 38.8953C57.1426 38.8953 57.3978 38.844 57.6265 38.7412C57.8585 38.6352 58.0524 38.4843 58.2082 38.2888C58.3673 38.0932 58.4783 37.8579 58.5413 37.5828H59.988C59.935 38.0767 59.7742 38.5175 59.5057 38.9053C59.2373 39.2931 58.8777 39.598 58.4269 39.82C57.9795 40.0421 57.4541 40.1531 56.8509 40.1531ZM63.0642 35.4649V39.999H61.5777V29.8172H63.0443V33.6056H63.1387C63.3177 33.1946 63.5912 32.8681 63.9591 32.6262C64.3269 32.3842 64.8075 32.2632 65.4008 32.2632C65.9245 32.2632 66.3819 32.3709 66.773 32.5864C67.1674 32.8018 67.4723 33.1233 67.6877 33.5509C67.9065 33.9751 68.0159 34.5054 68.0159 35.1418V39.999H66.5294V35.3208C66.5294 34.7606 66.3852 34.3264 66.0968 34.0182C65.8085 33.7066 65.4074 33.5509 64.8937 33.5509C64.5424 33.5509 64.2275 33.6254 63.9491 33.7746C63.674 33.9237 63.4569 34.1425 63.2978 34.4308C63.1421 34.7159 63.0642 35.0606 63.0642 35.4649ZM28.1338 56.999V56.3179L31.4598 52.5793C31.8939 52.0887 32.2436 51.6695 32.5088 51.3215C32.7739 50.9735 32.9662 50.652 33.0855 50.357C33.2081 50.062 33.2694 49.7554 33.2694 49.4372C33.2694 49.0494 33.1783 48.7114 32.996 48.423C32.817 48.1314 32.5701 47.9043 32.2552 47.7419C31.9403 47.5795 31.5857 47.4983 31.1913 47.4983C30.7737 47.4983 30.4074 47.5878 30.0926 47.7668C29.781 47.9458 29.5391 48.191 29.3667 48.5026C29.1944 48.8141 29.1082 49.1721 29.1082 49.5764H28.2183C28.2183 49.013 28.3475 48.5142 28.6061 48.08C28.8679 47.6425 29.2242 47.2994 29.675 47.0509C30.129 46.8023 30.6428 46.678 31.2162 46.678C31.7829 46.678 32.2867 46.8006 32.7275 47.0459C33.1683 47.2878 33.5147 47.6176 33.7666 48.0352C34.0185 48.4529 34.1444 48.9202 34.1444 49.4372C34.1444 49.8118 34.0781 50.1747 33.9456 50.526C33.8163 50.8773 33.5926 51.2684 33.2744 51.6993C32.9562 52.1302 32.5154 52.6572 31.9519 53.2803L29.4264 56.0992V56.1638H34.4626V56.999H28.1338ZM39.8406 57.1382C39.1247 57.1382 38.5132 56.9327 38.0061 56.5218C37.5023 56.1075 37.1145 55.5092 36.8428 54.727C36.5743 53.9448 36.4401 53.0052 36.4401 51.9081C36.4401 50.8144 36.5743 49.878 36.8428 49.0992C37.1145 48.317 37.504 47.7187 38.0111 47.3044C38.5215 46.8868 39.1313 46.678 39.8406 46.678C40.5499 46.678 41.1581 46.8868 41.6652 47.3044C42.1756 47.7187 42.5651 48.317 42.8335 49.0992C43.1053 49.878 43.2412 50.8144 43.2412 51.9081C43.2412 53.0052 43.1053 53.9448 42.8335 54.727C42.5651 55.5092 42.1773 56.1075 41.6702 56.5218C41.1664 56.9327 40.5565 57.1382 39.8406 57.1382ZM39.8406 56.303C40.6261 56.303 41.2393 55.9202 41.6801 55.1546C42.1209 54.3856 42.3413 53.3035 42.3413 51.9081C42.3413 50.9801 42.2402 50.1879 42.0381 49.5317C41.8392 48.8721 41.5525 48.3683 41.178 48.0203C40.8068 47.6723 40.361 47.4983 39.8406 47.4983C39.0617 47.4983 38.4502 47.8861 38.0061 48.6617C37.562 49.4339 37.3399 50.5161 37.3399 51.9081C37.3399 52.8361 37.4393 53.6283 37.6382 54.2845C37.8404 54.9408 38.1271 55.4413 38.4983 55.786C38.8728 56.1307 39.3203 56.303 39.8406 56.303ZM45.2646 56.999V56.3179L48.5906 52.5793C49.0248 52.0887 49.3745 51.6695 49.6396 51.3215C49.9048 50.9735 50.097 50.652 50.2163 50.357C50.339 50.062 50.4003 49.7554 50.4003 49.4372C50.4003 49.0494 50.3091 48.7114 50.1268 48.423C49.9479 48.1314 49.7009 47.9043 49.3861 47.7419C49.0712 47.5795 48.7166 47.4983 48.3222 47.4983C47.9045 47.4983 47.5383 47.5878 47.2234 47.7668C46.9119 47.9458 46.6699 48.191 46.4976 48.5026C46.3252 48.8141 46.2391 49.1721 46.2391 49.5764H45.3491C45.3491 49.013 45.4784 48.5142 45.7369 48.08C45.9988 47.6425 46.3551 47.2994 46.8058 47.0509C47.2599 46.8023 47.7736 46.678 48.347 46.678C48.9138 46.678 49.4176 46.8006 49.8584 47.0459C50.2992 47.2878 50.6455 47.6176 50.8974 48.0352C51.1493 48.4529 51.2753 48.9202 51.2753 49.4372C51.2753 49.8118 51.209 50.1747 51.0764 50.526C50.9472 50.8773 50.7234 51.2684 50.4053 51.6993C50.0871 52.1302 49.6463 52.6572 49.0828 53.2803L46.5572 56.0992V56.1638H51.5935V56.999H45.2646ZM53.8095 56.999V56.3179L57.1355 52.5793C57.5697 52.0887 57.9194 51.6695 58.1845 51.3215C58.4497 50.9735 58.6419 50.652 58.7613 50.357C58.8839 50.062 58.9452 49.7554 58.9452 49.4372C58.9452 49.0494 58.8541 48.7114 58.6718 48.423C58.4928 48.1314 58.2459 47.9043 57.931 47.7419C57.6161 47.5795 57.2615 47.4983 56.8671 47.4983C56.4495 47.4983 56.0832 47.5878 55.7684 47.7668C55.4568 47.9458 55.2149 48.191 55.0425 48.5026C54.8702 48.8141 54.784 49.1721 54.784 49.5764H53.8941C53.8941 49.013 54.0233 48.5142 54.2818 48.08C54.5437 47.6425 54.9 47.2994 55.3507 47.0509C55.8048 46.8023 56.3185 46.678 56.8919 46.678C57.4587 46.678 57.9625 46.8006 58.4033 47.0459C58.8441 47.2878 59.1905 47.6176 59.4424 48.0352C59.6943 48.4529 59.8202 48.9202 59.8202 49.4372C59.8202 49.8118 59.7539 50.1747 59.6213 50.526C59.4921 50.8773 59.2684 51.2684 58.9502 51.6993C58.632 52.1302 58.1912 52.6572 57.6277 53.2803L55.1022 56.0992V56.1638H60.1384V56.999H53.8095ZM33.6721 83.4919C33.6191 83.0213 33.4003 82.6567 33.0159 82.3982C32.6314 82.1363 32.1475 82.0054 31.5642 82.0054C31.1466 82.0054 30.7853 82.0717 30.4804 82.2043C30.1754 82.3335 29.9385 82.5125 29.7694 82.7412C29.6037 82.9666 29.5208 83.2235 29.5208 83.5118C29.5208 83.7538 29.5772 83.9626 29.6899 84.1382C29.8059 84.3139 29.9567 84.4614 30.1423 84.5807C30.3312 84.6967 30.5334 84.7945 30.7488 84.874C30.9643 84.9503 31.1714 85.0132 31.3703 85.0629L32.3646 85.3215C32.6894 85.401 33.0225 85.5087 33.3639 85.6446C33.7053 85.7805 34.0218 85.9595 34.3135 86.1816C34.6051 86.4036 34.8404 86.6787 35.0194 87.0068C35.2017 87.335 35.2929 87.7277 35.2929 88.1851C35.2929 88.7618 35.1437 89.2739 34.8454 89.7213C34.5504 90.1688 34.1212 90.5218 33.5578 90.7803C32.9976 91.0388 32.3198 91.1681 31.5244 91.1681C30.7621 91.1681 30.1025 91.0471 29.5457 90.8051C28.9889 90.5632 28.553 90.2201 28.2382 89.776C27.9233 89.3286 27.7493 88.7983 27.7162 88.1851H29.2573C29.2872 88.553 29.4065 88.8596 29.6153 89.1048C29.8274 89.3468 30.0975 89.5274 30.4257 89.6468C30.7571 89.7628 31.12 89.8208 31.5144 89.8208C31.9486 89.8208 32.3348 89.7528 32.6728 89.6169C33.0142 89.4777 33.2827 89.2855 33.4782 89.0402C33.6738 88.7916 33.7716 88.5016 33.7716 88.1702C33.7716 87.8686 33.6854 87.6217 33.513 87.4294C33.344 87.2372 33.1136 87.0781 32.822 86.9521C32.5336 86.8262 32.2072 86.7152 31.8426 86.6191L30.6394 86.2909C29.8241 86.0689 29.1778 85.7424 28.7005 85.3115C28.2266 84.8807 27.9896 84.3106 27.9896 83.6013C27.9896 83.0146 28.1487 82.5026 28.4669 82.0651C28.785 81.6276 29.2159 81.2878 29.7595 81.0459C30.303 80.8006 30.9162 80.678 31.599 80.678C32.2884 80.678 32.8966 80.799 33.4235 81.0409C33.9538 81.2829 34.3715 81.616 34.6764 82.0402C34.9813 82.4611 35.1404 82.945 35.1537 83.4919H33.6721ZM39.2316 91.1681C38.7477 91.1681 38.3102 91.0786 37.9191 90.8996C37.528 90.7173 37.2181 90.4538 36.9894 90.1091C36.764 89.7644 36.6513 89.3418 36.6513 88.8414C36.6513 88.4105 36.7342 88.0558 36.8999 87.7774C37.0656 87.499 37.2894 87.2786 37.5711 87.1162C37.8528 86.9538 38.1677 86.8312 38.5157 86.7483C38.8637 86.6655 39.2183 86.6025 39.5796 86.5594C40.037 86.5064 40.4082 86.4633 40.6932 86.4301C40.9783 86.3937 41.1854 86.3357 41.3147 86.2561C41.444 86.1766 41.5086 86.0473 41.5086 85.8683V85.8335C41.5086 85.3994 41.386 85.0629 41.1407 84.8243C40.8987 84.5857 40.5375 84.4664 40.0569 84.4664C39.5564 84.4664 39.162 84.5774 38.8736 84.7994C38.5886 85.0182 38.3914 85.2618 38.282 85.5303L36.885 85.2121C37.0507 84.7481 37.2927 84.3735 37.6109 84.0885C37.9324 83.8002 38.3019 83.5914 38.7195 83.4621C39.1371 83.3295 39.5763 83.2632 40.037 83.2632C40.3419 83.2632 40.6651 83.2997 41.0065 83.3726C41.3512 83.4422 41.6727 83.5715 41.9709 83.7604C42.2726 83.9493 42.5195 84.2194 42.7117 84.5708C42.9039 84.9188 43.0001 85.3712 43.0001 85.928V90.999H41.5484V89.955H41.4887C41.3926 90.1472 41.2484 90.3361 41.0562 90.5218C40.8639 90.7074 40.617 90.8615 40.3154 90.9841C40.0138 91.1067 39.6525 91.1681 39.2316 91.1681ZM39.5548 89.9749C39.9657 89.9749 40.3171 89.8937 40.6087 89.7313C40.9037 89.5689 41.1274 89.3567 41.2799 89.0949C41.4357 88.8298 41.5136 88.5464 41.5136 88.2448V87.2604C41.4605 87.3134 41.3578 87.3631 41.2053 87.4095C41.0562 87.4526 40.8855 87.4907 40.6932 87.5239C40.501 87.5537 40.3138 87.5819 40.1315 87.6084C39.9492 87.6316 39.7967 87.6515 39.6741 87.6681C39.3857 87.7045 39.1222 87.7658 38.8836 87.852C38.6483 87.9382 38.4593 88.0625 38.3168 88.2249C38.1776 88.384 38.108 88.5961 38.108 88.8612C38.108 89.2291 38.2439 89.5075 38.5157 89.6965C38.7875 89.8821 39.1338 89.9749 39.5548 89.9749ZM46.4665 80.8172V90.999H44.98V80.8172H46.4665ZM51.7575 91.1531C51.0052 91.1531 50.3572 90.9924 49.8136 90.6709C49.2734 90.3461 48.8558 89.8904 48.5608 89.3037C48.2691 88.7137 48.1233 88.0227 48.1233 87.2306C48.1233 86.4484 48.2691 85.759 48.5608 85.1624C48.8558 84.5658 49.2668 84.1001 49.7937 83.7654C50.324 83.4306 50.9438 83.2632 51.6531 83.2632C52.084 83.2632 52.5016 83.3345 52.906 83.477C53.3103 83.6195 53.6732 83.8432 53.9947 84.1482C54.3162 84.4531 54.5698 84.8492 54.7554 85.3364C54.941 85.8203 55.0338 86.4086 55.0338 87.1013V87.6283H48.9635V86.5146H53.5771C53.5771 86.1235 53.4976 85.7772 53.3385 85.4756C53.1794 85.1707 52.9557 84.9304 52.6673 84.7547C52.3823 84.579 52.0475 84.4912 51.6631 84.4912C51.2455 84.4912 50.8809 84.594 50.5693 84.7994C50.2611 85.0016 50.0224 85.2668 49.8534 85.5949C49.6877 85.9197 49.6048 86.2727 49.6048 86.6539V87.5239C49.6048 88.0343 49.6943 88.4685 49.8733 88.8264C50.0556 89.1844 50.3091 89.4578 50.6339 89.6468C50.9588 89.8324 51.3383 89.9252 51.7724 89.9252C52.0542 89.9252 52.311 89.8854 52.543 89.8058C52.775 89.723 52.9756 89.6003 53.1446 89.4379C53.3136 89.2755 53.4429 89.075 53.5324 88.8364L54.9393 89.0899C54.8267 89.5042 54.6245 89.8672 54.3328 90.1787C54.0445 90.4869 53.6815 90.7272 53.244 90.8996C52.8098 91.0686 52.3143 91.1531 51.7575 91.1531ZM62.4054 85.227L61.0581 85.4656C61.0018 85.2933 60.9123 85.1292 60.7897 84.9735C60.6703 84.8177 60.5079 84.6901 60.3024 84.5906C60.097 84.4912 59.8401 84.4415 59.5318 84.4415C59.1109 84.4415 58.7596 84.536 58.4779 84.7249C58.1961 84.9105 58.0553 85.1508 58.0553 85.4458C58.0553 85.701 58.1497 85.9065 58.3387 86.0622C58.5276 86.218 58.8325 86.3456 59.2534 86.445L60.4665 86.7235C61.1692 86.8859 61.6928 87.1361 62.0375 87.4742C62.3822 87.8122 62.5546 88.2514 62.5546 88.7916C62.5546 89.249 62.422 89.6567 62.1568 90.0146C61.895 90.3693 61.5288 90.6477 61.0581 90.8499C60.5908 91.0521 60.0489 91.1531 59.4324 91.1531C58.5773 91.1531 57.8796 90.9709 57.3394 90.6063C56.7991 90.2384 56.4677 89.7164 56.3451 89.0402L57.7818 88.8215C57.8713 89.196 58.0553 89.4794 58.3337 89.6716C58.6121 89.8605 58.975 89.955 59.4225 89.955C59.9097 89.955 60.2991 89.8539 60.5908 89.6517C60.8825 89.4462 61.0283 89.196 61.0283 88.901C61.0283 88.6624 60.9388 88.4619 60.7598 88.2994C60.5842 88.137 60.314 88.0144 59.9495 87.9316L58.6568 87.6482C57.9443 87.4858 57.4173 87.2272 57.0759 86.8726C56.7378 86.518 56.5688 86.0689 56.5688 85.5253C56.5688 85.0745 56.6947 84.6801 56.9466 84.3421C57.1985 84.004 57.5465 83.7405 57.9907 83.5516C58.4348 83.3593 58.9435 83.2632 59.5169 83.2632C60.3422 83.2632 60.9918 83.4422 61.4658 83.8002C61.9398 84.1548 62.253 84.6304 62.4054 85.227ZM65.1684 91.0935C64.8966 91.0935 64.6629 90.9974 64.4674 90.8051C64.2718 90.6096 64.1741 90.3743 64.1741 90.0992C64.1741 89.8274 64.2718 89.5954 64.4674 89.4031C64.6629 89.2076 64.8966 89.1098 65.1684 89.1098C65.4402 89.1098 65.6738 89.2076 65.8694 89.4031C66.0649 89.5954 66.1627 89.8274 66.1627 90.0992C66.1627 90.2815 66.1163 90.4488 66.0235 90.6013C65.934 90.7504 65.8147 90.8698 65.6655 90.9593C65.5164 91.0487 65.3507 91.0935 65.1684 91.0935ZM65.1684 85.5352C64.8966 85.5352 64.6629 85.4375 64.4674 85.2419C64.2718 85.0464 64.1741 84.8127 64.1741 84.5409C64.1741 84.2691 64.2718 84.0371 64.4674 83.8449C64.6629 83.6494 64.8966 83.5516 65.1684 83.5516C65.4402 83.5516 65.6738 83.6494 65.8694 83.8449C66.0649 84.0371 66.1627 84.2691 66.1627 84.5409C66.1627 84.7232 66.1163 84.8906 66.0235 85.0431C65.934 85.1922 65.8147 85.3115 65.6655 85.401C65.5164 85.4905 65.3507 85.5352 65.1684 85.5352ZM31.2758 97.8172V107.999H30.3461V98.7916H30.2865L27.9001 100.378V99.4131L30.3064 97.8172H31.2758ZM38.062 105.812V105.056L42.6011 97.8172H43.1579V99.085H42.7453L39.1011 104.912V104.976H45.0521V105.812H38.062ZM42.8149 107.999V105.573V105.225V97.8172H43.6998V107.999H42.8149ZM50.276 108.138C49.8551 108.135 49.4441 108.05 49.043 107.885C48.642 107.716 48.2807 107.446 47.9592 107.074C47.6377 106.7 47.3825 106.206 47.1936 105.593C47.0047 104.98 46.9102 104.226 46.9102 103.331C46.9102 102.502 46.9831 101.743 47.129 101.054C47.2748 100.364 47.4936 99.7677 47.7852 99.2639C48.0769 98.7602 48.4415 98.3707 48.879 98.0956C49.3165 97.8172 49.8285 97.678 50.4152 97.678C50.9654 97.678 51.4509 97.7923 51.8719 98.021C52.2928 98.2464 52.6342 98.5613 52.896 98.9656C53.1579 99.37 53.3219 99.8357 53.3882 100.363H52.4734C52.3806 99.8257 52.1602 99.3833 51.8122 99.0352C51.4642 98.6872 50.9985 98.5132 50.4152 98.5132C49.58 98.5132 48.9337 98.901 48.4763 99.6766C48.0189 100.449 47.7885 101.546 47.7852 102.968H47.8499C48.0123 102.666 48.2211 102.406 48.4763 102.187C48.7348 101.965 49.0281 101.793 49.3562 101.67C49.6844 101.544 50.0291 101.481 50.3903 101.481C50.9571 101.481 51.4758 101.625 51.9464 101.914C52.4171 102.199 52.7933 102.592 53.075 103.092C53.3567 103.589 53.4976 104.158 53.4976 104.797C53.4976 105.404 53.3633 105.962 53.0949 106.473C52.8297 106.983 52.4552 107.389 51.9713 107.691C51.4907 107.992 50.9256 108.142 50.276 108.138ZM50.276 107.303C50.7201 107.303 51.1162 107.19 51.4642 106.965C51.8155 106.74 52.0923 106.438 52.2945 106.06C52.4966 105.679 52.5977 105.258 52.5977 104.797C52.5977 104.337 52.4966 103.919 52.2945 103.544C52.0923 103.17 51.8155 102.872 51.4642 102.65C51.1162 102.428 50.7201 102.316 50.276 102.316C49.9379 102.316 49.6231 102.386 49.3314 102.525C49.0397 102.661 48.7862 102.848 48.5707 103.087C48.3586 103.322 48.1962 103.593 48.0835 103.897C47.9741 104.202 47.9327 104.522 47.9592 104.857C47.9957 105.324 48.1167 105.744 48.3222 106.115C48.531 106.483 48.8027 106.773 49.1375 106.985C49.4756 107.197 49.8551 107.303 50.276 107.303ZM58.7625 108.138C58.0466 108.138 57.4351 107.933 56.928 107.522C56.4242 107.107 56.0364 106.509 55.7646 105.727C55.4962 104.945 55.3619 104.005 55.3619 102.908C55.3619 101.814 55.4962 100.878 55.7646 100.099C56.0364 99.317 56.4258 98.7187 56.933 98.3044C57.4434 97.8868 58.0532 97.678 58.7625 97.678C59.4718 97.678 60.08 97.8868 60.5871 98.3044C61.0975 98.7187 61.4869 99.317 61.7554 100.099C62.0272 100.878 62.1631 101.814 62.1631 102.908C62.1631 104.005 62.0272 104.945 61.7554 105.727C61.4869 106.509 61.0991 107.107 60.592 107.522C60.0883 107.933 59.4784 108.138 58.7625 108.138ZM58.7625 107.303C59.548 107.303 60.1612 106.92 60.602 106.155C61.0428 105.386 61.2632 104.303 61.2632 102.908C61.2632 101.98 61.1621 101.188 60.9599 100.532C60.7611 99.8721 60.4744 99.3683 60.0999 99.0203C59.7286 98.6723 59.2829 98.4983 58.7625 98.4983C57.9836 98.4983 57.3721 98.8861 56.928 99.6617C56.4838 100.434 56.2618 101.516 56.2618 102.908C56.2618 103.836 56.3612 104.628 56.5601 105.285C56.7623 105.941 57.049 106.441 57.4202 106.786C57.7947 107.131 58.2421 107.303 58.7625 107.303ZM29.0088 131.817L31.8426 140.11H31.9569L34.7907 131.817H36.4512L32.7872 141.999H31.0123L27.3483 131.817H29.0088ZM37.8023 141.999V134.363H39.2888V141.999H37.8023ZM38.553 133.184C38.2945 133.184 38.0724 133.098 37.8868 132.926C37.7045 132.75 37.6133 132.541 37.6133 132.299C37.6133 132.054 37.7045 131.845 37.8868 131.673C38.0724 131.497 38.2945 131.41 38.553 131.41C38.8115 131.41 39.0319 131.497 39.2142 131.673C39.3998 131.845 39.4926 132.054 39.4926 132.299C39.4926 132.541 39.3998 132.75 39.2142 132.926C39.0319 133.098 38.8115 133.184 38.553 133.184ZM44.5798 142.153C43.8274 142.153 43.1795 141.992 42.6359 141.671C42.0957 141.346 41.678 140.89 41.3831 140.304C41.0914 139.714 40.9456 139.023 40.9456 138.231C40.9456 137.448 41.0914 136.759 41.3831 136.162C41.678 135.566 42.089 135.1 42.616 134.765C43.1463 134.431 43.7661 134.263 44.4754 134.263C44.9063 134.263 45.3239 134.334 45.7282 134.477C46.1326 134.62 46.4955 134.843 46.817 135.148C47.1385 135.453 47.3921 135.849 47.5777 136.336C47.7633 136.82 47.8561 137.409 47.8561 138.101V138.628H41.7858V137.515H46.3994C46.3994 137.124 46.3198 136.777 46.1608 136.476C46.0017 136.171 45.7779 135.93 45.4896 135.755C45.2046 135.579 44.8698 135.491 44.4853 135.491C44.0677 135.491 43.7031 135.594 43.3916 135.799C43.0833 136.002 42.8447 136.267 42.6757 136.595C42.51 136.92 42.4271 137.273 42.4271 137.654V138.524C42.4271 139.034 42.5166 139.468 42.6956 139.826C42.8778 140.184 43.1314 140.458 43.4562 140.647C43.781 140.832 44.1605 140.925 44.5947 140.925C44.8764 140.925 45.1333 140.885 45.3653 140.806C45.5973 140.723 45.7978 140.6 45.9669 140.438C46.1359 140.276 46.2652 140.075 46.3546 139.836L47.7616 140.09C47.6489 140.504 47.4467 140.867 47.1551 141.179C46.8667 141.487 46.5038 141.727 46.0663 141.9C45.6321 142.069 45.1366 142.153 44.5798 142.153ZM51.1473 141.999L48.9001 134.363H50.4363L51.9328 139.971H52.0073L53.5088 134.363H55.045L56.5365 139.946H56.611L58.0975 134.363H59.6338L57.3916 141.999H55.8752L54.3241 136.486H54.2098L52.6586 141.999H51.1473ZM66.7668 136.227L65.4195 136.466C65.3631 136.293 65.2736 136.129 65.151 135.973C65.0317 135.818 64.8693 135.69 64.6638 135.591C64.4583 135.491 64.2014 135.441 63.8932 135.441C63.4722 135.441 63.1209 135.536 62.8392 135.725C62.5575 135.91 62.4166 136.151 62.4166 136.446C62.4166 136.701 62.5111 136.906 62.7 137.062C62.8889 137.218 63.1938 137.346 63.6148 137.445L64.8278 137.723C65.5305 137.886 66.0542 138.136 66.3989 138.474C66.7436 138.812 66.9159 139.251 66.9159 139.792C66.9159 140.249 66.7833 140.657 66.5182 141.015C66.2563 141.369 65.8901 141.648 65.4195 141.85C64.9521 142.052 64.4102 142.153 63.7937 142.153C62.9386 142.153 62.241 141.971 61.7007 141.606C61.1605 141.238 60.829 140.716 60.7064 140.04L62.1432 139.821C62.2327 140.196 62.4166 140.479 62.695 140.672C62.9734 140.861 63.3364 140.955 63.7838 140.955C64.271 140.955 64.6605 140.854 64.9521 140.652C65.2438 140.446 65.3896 140.196 65.3896 139.901C65.3896 139.662 65.3001 139.462 65.1212 139.299C64.9455 139.137 64.6754 139.014 64.3108 138.932L63.0182 138.648C62.3056 138.486 61.7786 138.227 61.4372 137.873C61.0991 137.518 60.9301 137.069 60.9301 136.525C60.9301 136.075 61.0561 135.68 61.308 135.342C61.5598 135.004 61.9079 134.741 62.352 134.552C62.7961 134.359 63.3049 134.263 63.8783 134.263C64.7035 134.263 65.3532 134.442 65.8271 134.8C66.3011 135.155 66.6143 135.63 66.7668 136.227ZM69.5297 142.093C69.2579 142.093 69.0243 141.997 68.8287 141.805C68.6332 141.61 68.5354 141.374 68.5354 141.099C68.5354 140.827 68.6332 140.595 68.8287 140.403C69.0243 140.208 69.2579 140.11 69.5297 140.11C69.8015 140.11 70.0352 140.208 70.2307 140.403C70.4263 140.595 70.524 140.827 70.524 141.099C70.524 141.281 70.4776 141.449 70.3848 141.601C70.2953 141.75 70.176 141.87 70.0269 141.959C69.8777 142.049 69.712 142.093 69.5297 142.093ZM69.5297 136.535C69.2579 136.535 69.0243 136.437 68.8287 136.242C68.6332 136.046 68.5354 135.813 68.5354 135.541C68.5354 135.269 68.6332 135.037 68.8287 134.845C69.0243 134.649 69.2579 134.552 69.5297 134.552C69.8015 134.552 70.0352 134.649 70.2307 134.845C70.4263 135.037 70.524 135.269 70.524 135.541C70.524 135.723 70.4776 135.891 70.3848 136.043C70.2953 136.192 70.176 136.312 70.0269 136.401C69.8777 136.491 69.712 136.535 69.5297 136.535ZM31.2758 148.817V158.999H30.3461V149.792H30.2865L27.9001 151.378V150.413L30.3064 148.817H31.2758ZM37.5152 159.138C36.8655 159.138 36.2872 159.016 35.7801 158.77C35.273 158.525 34.8752 158.19 34.5869 157.766C34.2985 157.339 34.1544 156.856 34.1544 156.319C34.1544 155.898 34.2422 155.506 34.4179 155.141C34.5935 154.773 34.8355 154.465 35.1437 154.216C35.4519 153.964 35.7983 153.8 36.1828 153.724V153.669C35.6823 153.524 35.2796 153.237 34.9747 152.809C34.6698 152.379 34.5189 151.89 34.5223 151.343C34.5189 150.836 34.6482 150.382 34.91 149.981C35.1719 149.58 35.5282 149.263 35.9789 149.031C36.433 148.796 36.9451 148.678 37.5152 148.678C38.0819 148.678 38.5907 148.796 39.0414 149.031C39.4922 149.263 39.8485 149.58 40.1103 149.981C40.3755 150.382 40.5097 150.836 40.513 151.343C40.5097 151.886 40.3556 152.375 40.0507 152.809C39.7457 153.24 39.3447 153.527 38.8475 153.669V153.724C39.232 153.797 39.5767 153.959 39.8816 154.211C40.1866 154.463 40.4285 154.773 40.6075 155.141C40.7865 155.506 40.876 155.898 40.876 156.319C40.876 156.856 40.7301 157.339 40.4385 157.766C40.1501 158.19 39.7524 158.525 39.2453 158.77C38.7415 159.016 38.1648 159.138 37.5152 159.138ZM37.5152 158.303C37.9991 158.303 38.4233 158.217 38.7879 158.044C39.1558 157.869 39.4425 157.629 39.648 157.324C39.8568 157.019 39.9612 156.669 39.9612 156.275C39.9612 155.867 39.8535 155.504 39.638 155.186C39.4226 154.864 39.1309 154.611 38.763 154.425C38.3951 154.236 37.9792 154.142 37.5152 154.142C37.0511 154.142 36.6335 154.236 36.2623 154.425C35.8944 154.611 35.6028 154.864 35.3873 155.186C35.1752 155.504 35.0691 155.867 35.0691 156.275C35.0691 156.669 35.1702 157.019 35.3724 157.324C35.5779 157.629 35.8646 157.869 36.2325 158.044C36.6037 158.217 37.0313 158.303 37.5152 158.303ZM37.5152 153.346C37.9129 153.346 38.2692 153.262 38.5841 153.093C38.8989 152.924 39.1475 152.693 39.3298 152.402C39.5154 152.107 39.6099 151.772 39.6132 151.397C39.6099 151.026 39.5171 150.698 39.3348 150.413C39.1525 150.125 38.9039 149.901 38.589 149.742C38.2775 149.58 37.9195 149.498 37.5152 149.498C37.1108 149.498 36.7495 149.58 36.4314 149.742C36.1165 149.901 35.8679 150.125 35.6856 150.413C35.5066 150.698 35.4188 151.026 35.4221 151.397C35.4188 151.772 35.5083 152.107 35.6906 152.402C35.8762 152.693 36.1264 152.924 36.4413 153.093C36.7595 153.262 37.1174 153.346 37.5152 153.346ZM47.1712 158.999L51.8097 149.717V149.652H46.4653V148.817H52.7842V149.692L48.1506 158.999H47.1712ZM54.7666 158.999V158.318L58.0926 154.579C58.5268 154.089 58.8764 153.669 59.1416 153.321C59.4067 152.973 59.599 152.652 59.7183 152.357C59.8409 152.062 59.9022 151.755 59.9022 151.437C59.9022 151.049 59.8111 150.711 59.6288 150.423C59.4498 150.131 59.2029 149.904 58.888 149.742C58.5732 149.58 58.2185 149.498 57.8241 149.498C57.4065 149.498 57.0403 149.588 56.7254 149.767C56.4138 149.946 56.1719 150.191 55.9995 150.503C55.8272 150.814 55.741 151.172 55.741 151.576H54.8511C54.8511 151.013 54.9804 150.514 55.2389 150.08C55.5007 149.642 55.857 149.299 56.3078 149.051C56.7618 148.802 57.2756 148.678 57.849 148.678C58.4157 148.678 58.9195 148.801 59.3603 149.046C59.8011 149.288 60.1475 149.618 60.3994 150.035C60.6513 150.453 60.7772 150.92 60.7772 151.437C60.7772 151.812 60.7109 152.175 60.5784 152.526C60.4491 152.877 60.2254 153.268 59.9072 153.699C59.589 154.13 59.1482 154.657 58.5848 155.28L56.0592 158.099V158.164H61.0954V158.999H54.7666ZM66.4734 159.138C65.7575 159.138 65.146 158.933 64.6389 158.522C64.1351 158.107 63.7473 157.509 63.4756 156.727C63.2071 155.945 63.0729 155.005 63.0729 153.908C63.0729 152.814 63.2071 151.878 63.4756 151.099C63.7473 150.317 64.1368 149.719 64.6439 149.304C65.1543 148.887 65.7642 148.678 66.4734 148.678C67.1827 148.678 67.7909 148.887 68.298 149.304C68.8084 149.719 69.1979 150.317 69.4663 151.099C69.7381 151.878 69.874 152.814 69.874 153.908C69.874 155.005 69.7381 155.945 69.4663 156.727C69.1979 157.509 68.8101 158.107 68.303 158.522C67.7992 158.933 67.1893 159.138 66.4734 159.138ZM66.4734 158.303C67.2589 158.303 67.8721 157.92 68.3129 157.155C68.7537 156.386 68.9741 155.303 68.9741 153.908C68.9741 152.98 68.8731 152.188 68.6709 151.532C68.472 150.872 68.1853 150.368 67.8108 150.02C67.4396 149.672 66.9938 149.498 66.4734 149.498C65.6946 149.498 65.083 149.886 64.6389 150.662C64.1948 151.434 63.9727 152.516 63.9727 153.908C63.9727 154.836 64.0722 155.628 64.271 156.285C64.4732 156.941 64.7599 157.441 65.1311 157.786C65.5056 158.131 65.9531 158.303 66.4734 158.303Z" fill="#0F0F0F"/>
<path d="M147 254.672L147 255.607C146.652 255.677 146.331 255.803 146.036 255.985C145.737 256.164 145.477 256.389 145.255 256.661C145.033 256.933 144.861 257.241 144.738 257.586C144.616 257.93 144.554 258.303 144.554 258.704C144.554 259.347 144.722 259.934 145.056 260.464C145.391 260.991 145.883 261.414 146.533 261.732C147.179 262.047 147.971 262.204 148.909 262.204C149.854 262.204 150.649 262.047 151.296 261.732C151.942 261.414 152.433 260.991 152.767 260.464C153.099 259.934 153.264 259.347 153.264 258.704C153.264 258.303 153.203 257.93 153.08 257.586C152.958 257.241 152.787 256.933 152.568 256.661C152.346 256.389 152.086 256.164 151.788 255.985C151.49 255.803 151.166 255.677 150.818 255.607L150.818 254.672C151.286 254.755 151.722 254.911 152.126 255.14C152.527 255.365 152.878 255.653 153.18 256.005C153.482 256.353 153.717 256.754 153.886 257.208C154.055 257.662 154.139 258.161 154.139 258.704C154.139 259.559 153.926 260.318 153.498 260.981C153.067 261.644 152.461 262.165 151.679 262.542C150.896 262.917 149.973 263.104 148.909 263.104C147.845 263.104 146.922 262.917 146.14 262.542C145.358 262.165 144.753 261.644 144.326 260.981C143.895 260.318 143.679 259.559 143.679 258.704C143.679 258.161 143.764 257.662 143.933 257.208C144.098 256.754 144.334 256.353 144.639 256.005C144.94 255.653 145.292 255.365 145.693 255.14C146.094 254.911 146.53 254.755 147 254.672ZM154 252.663L146.364 252.663L146.364 251.773L154 251.773L154 252.663ZM145.051 252.21C145.051 252.392 144.99 252.548 144.867 252.677C144.741 252.807 144.591 252.871 144.415 252.871C144.239 252.871 144.09 252.807 143.968 252.677C143.842 252.548 143.779 252.392 143.779 252.21C143.779 252.028 143.842 251.872 143.968 251.743C144.09 251.614 144.239 251.549 144.415 251.549C144.591 251.549 144.741 251.614 144.867 251.743C144.99 251.872 145.051 252.028 145.051 252.21ZM146.364 243.799L154 243.799L154 244.689L146.364 244.689L146.364 243.799ZM150.137 244.128L150.982 244.128C151.092 244.429 151.185 244.716 151.261 244.988C151.334 245.259 151.39 245.533 151.43 245.808C151.47 246.08 151.49 246.37 151.49 246.678C151.486 247.536 151.266 248.211 150.828 248.701C150.391 249.189 149.725 249.432 148.83 249.432L146.339 249.432L146.339 248.547L148.83 248.547C149.254 248.547 149.6 248.471 149.869 248.319C150.137 248.166 150.336 247.951 150.465 247.672C150.591 247.394 150.654 247.066 150.654 246.688C150.654 246.224 150.608 245.786 150.515 245.375C150.422 244.964 150.296 244.549 150.137 244.128ZM154.159 238.361C154.159 239.073 153.994 239.69 153.662 240.21C153.327 240.73 152.865 241.133 152.275 241.418C151.682 241.7 150.999 241.841 150.227 241.841C149.458 241.841 148.775 241.7 148.179 241.418C147.579 241.133 147.11 240.74 146.772 240.24C146.43 239.736 146.259 239.154 146.259 238.495C146.259 238.08 146.336 237.681 146.488 237.297C146.637 236.912 146.868 236.567 147.179 236.263C147.487 235.954 147.877 235.711 148.348 235.532C148.815 235.353 149.368 235.263 150.008 235.263L150.446 235.263L150.446 241.229L149.665 241.229L149.665 236.168C149.174 236.168 148.734 236.267 148.343 236.466C147.948 236.662 147.637 236.935 147.408 237.287C147.179 237.635 147.065 238.037 147.065 238.495C147.065 238.979 147.194 239.405 147.453 239.772C147.711 240.14 148.053 240.429 148.477 240.638C148.901 240.843 149.365 240.947 149.869 240.951L150.336 240.951C150.943 240.951 151.473 240.846 151.927 240.638C152.378 240.425 152.728 240.125 152.976 239.738C153.225 239.35 153.349 238.891 153.349 238.361C153.349 237.999 153.293 237.683 153.18 237.411C153.067 237.136 152.916 236.906 152.728 236.72C152.535 236.531 152.325 236.388 152.096 236.292L152.37 235.452C152.691 235.568 152.988 235.759 153.259 236.024C153.531 236.286 153.75 236.614 153.916 237.008C154.078 237.399 154.159 237.85 154.159 238.361ZM149.769 228.158L150.605 228.158L150.605 232.647L149.769 232.647L149.769 228.158ZM146.364 232.428L154 232.428L154 233.313L146.364 233.313L146.364 232.428ZM146.364 227.506L154 227.506L154 228.391L146.364 228.391L146.364 227.506ZM149.312 224.415L149.312 222.183C149.312 221.325 149.521 220.662 149.938 220.194C150.356 219.727 150.921 219.493 151.634 219.493C152.108 219.493 152.522 219.598 152.877 219.807C153.231 220.015 153.508 220.32 153.707 220.721C153.902 221.122 154 221.61 154 222.183L154 225.151L146.364 225.151L146.364 224.266L153.165 224.266L153.165 222.183C153.165 221.643 153.036 221.207 152.777 220.875C152.519 220.544 152.151 220.378 151.674 220.378C151.186 220.378 150.81 220.544 150.545 220.875C150.28 221.207 150.147 221.643 150.147 222.183L150.147 224.415L149.312 224.415Z" fill="#EDEDED"/>
<path d="M212 263.606L211.14 263.606L211.14 263.338C211.14 262.917 211.001 262.584 210.723 262.339C210.441 262.093 209.99 261.913 209.37 261.797C208.75 261.681 207.935 261.604 206.924 261.568L201.818 261.389L201.818 255.413L212 255.413L212 256.343L202.654 256.343L202.654 260.504L207.128 260.668C208.205 260.708 209.105 260.807 209.828 260.966C210.547 261.125 211.089 261.391 211.453 261.762C211.818 262.13 212 262.65 212 263.323L212 263.606ZM207.844 249.605L208.679 249.605L208.679 253.339L207.844 253.339L207.844 249.605ZM204.364 252.628L212 252.628L212 253.518L204.364 253.518L204.364 252.628ZM212.159 247.045C212.159 247.704 211.992 248.286 211.657 248.79C211.322 249.293 210.86 249.69 210.27 249.978C209.677 250.263 208.992 250.405 208.217 250.405C207.435 250.405 206.747 250.263 206.154 249.978C205.557 249.69 205.093 249.293 204.762 248.79C204.427 248.286 204.259 247.704 204.259 247.045C204.259 246.385 204.427 245.803 204.762 245.3C205.096 244.793 205.56 244.396 206.154 244.111C206.747 243.826 207.435 243.684 208.217 243.684C208.992 243.684 209.677 243.826 210.27 244.111C210.86 244.396 211.322 244.793 211.657 245.3C211.992 245.803 212.159 246.385 212.159 247.045ZM211.349 247.045C211.349 246.514 211.206 246.065 210.921 245.697C210.636 245.329 210.257 245.049 209.783 244.857C209.309 244.665 208.787 244.569 208.217 244.569C207.647 244.569 207.123 244.665 206.646 244.857C206.169 245.049 205.786 245.329 205.497 245.697C205.209 246.065 205.065 246.514 205.065 247.045C205.065 247.572 205.209 248.019 205.497 248.387C205.786 248.755 206.169 249.035 206.646 249.227C207.123 249.419 207.647 249.516 208.217 249.516C208.787 249.516 209.309 249.421 209.783 249.232C210.257 249.04 210.636 248.76 210.921 248.392C211.206 248.021 211.349 247.572 211.349 247.045ZM205.199 242.626L204.364 242.626L204.364 236.66L205.199 236.66L205.199 239.186L212 239.186L212 240.071L205.199 240.071L205.199 242.626ZM210.742 233.905L204.364 229.873L204.364 228.814L212 228.814L212 229.699L205.622 229.699L212 233.716L212 234.79L204.364 234.79L204.364 233.905L210.742 233.905ZM210.742 225.592L204.364 221.56L204.364 220.501L212 220.501L212 221.386L205.622 221.386L212 225.403L212 226.477L204.364 226.477L204.364 225.592L210.742 225.592ZM201.818 222.574L201.818 221.739C202.292 221.739 202.677 221.897 202.972 222.212C203.267 222.523 203.414 222.949 203.414 223.489C203.414 224.023 203.267 224.445 202.972 224.757C202.677 225.069 202.292 225.224 201.818 225.224L201.818 224.389C202.077 224.389 202.296 224.32 202.475 224.18C202.65 224.038 202.738 223.807 202.738 223.489C202.738 223.171 202.65 222.939 202.475 222.793C202.296 222.647 202.077 222.574 201.818 222.574Z" fill="#EDEDED"/>
<path d="M270 262.647H259.818V256.706H260.654V261.717H264.293V258.829C264.293 258.149 264.407 257.572 264.636 257.098C264.865 256.621 265.188 256.257 265.605 256.005C266.023 255.753 266.514 255.627 267.077 255.627C267.66 255.627 268.171 255.753 268.608 256.005C269.046 256.253 269.387 256.616 269.632 257.093C269.878 257.567 270 258.146 270 258.829V262.647ZM269.18 261.717V258.829C269.18 258.341 269.085 257.929 268.897 257.591C268.704 257.249 268.449 256.989 268.131 256.81C267.809 256.631 267.451 256.542 267.057 256.542C266.51 256.542 266.053 256.744 265.685 257.148C265.314 257.549 265.128 258.109 265.128 258.829V261.717H269.18ZM270.159 250.487C270.159 251.2 269.994 251.817 269.662 252.337C269.327 252.857 268.865 253.26 268.275 253.545C267.682 253.827 266.999 253.968 266.227 253.968C265.458 253.968 264.775 253.827 264.179 253.545C263.579 253.26 263.11 252.867 262.772 252.367C262.43 251.863 262.259 251.281 262.259 250.622C262.259 250.207 262.336 249.808 262.488 249.424C262.637 249.039 262.868 248.694 263.179 248.389C263.487 248.081 263.877 247.838 264.348 247.659C264.815 247.48 265.368 247.39 266.008 247.39H266.446V253.356H265.665V248.295C265.174 248.295 264.734 248.394 264.343 248.593C263.948 248.789 263.637 249.062 263.408 249.414C263.179 249.762 263.065 250.164 263.065 250.622C263.065 251.106 263.194 251.532 263.453 251.899C263.711 252.267 264.053 252.556 264.477 252.764C264.901 252.97 265.365 253.074 265.869 253.078H266.336C266.943 253.078 267.473 252.973 267.927 252.764C268.378 252.552 268.728 252.252 268.976 251.865C269.225 251.477 269.349 251.018 269.349 250.487C269.349 250.126 269.293 249.81 269.18 249.538C269.067 249.263 268.916 249.032 268.728 248.847C268.535 248.658 268.325 248.515 268.096 248.419L268.37 247.579C268.691 247.695 268.988 247.886 269.259 248.151C269.531 248.413 269.75 248.741 269.916 249.135C270.078 249.526 270.159 249.977 270.159 250.487ZM272.864 245.44H262.364V244.58H263.821V244.476C263.592 244.37 263.358 244.224 263.12 244.038C262.878 243.852 262.674 243.607 262.508 243.302C262.342 242.994 262.259 242.606 262.259 242.139C262.259 241.509 262.425 240.959 262.757 240.488C263.085 240.014 263.545 239.647 264.139 239.385C264.729 239.12 265.416 238.987 266.202 238.987C266.991 238.987 267.682 239.12 268.275 239.385C268.868 239.647 269.331 240.014 269.662 240.488C269.994 240.959 270.159 241.506 270.159 242.129C270.159 242.59 270.076 242.976 269.911 243.287C269.745 243.596 269.541 243.846 269.299 244.038C269.054 244.227 268.815 244.373 268.583 244.476V244.555H272.864V245.44ZM266.187 244.565C266.804 244.565 267.35 244.474 267.828 244.292C268.302 244.106 268.674 243.841 268.946 243.496C269.215 243.148 269.349 242.727 269.349 242.233C269.349 241.726 269.21 241.299 268.931 240.951C268.65 240.599 268.27 240.333 267.793 240.15C267.316 239.965 266.78 239.872 266.187 239.872C265.6 239.872 265.072 239.963 264.601 240.145C264.13 240.324 263.758 240.589 263.482 240.941C263.204 241.292 263.065 241.723 263.065 242.233C263.065 242.731 263.199 243.153 263.468 243.501C263.733 243.849 264.101 244.114 264.571 244.297C265.039 244.476 265.577 244.565 266.187 244.565ZM270.159 233.958C270.159 234.671 269.994 235.287 269.662 235.808C269.327 236.328 268.865 236.731 268.275 237.016C267.682 237.297 266.999 237.438 266.227 237.438C265.458 237.438 264.775 237.297 264.179 237.016C263.579 236.731 263.11 236.338 262.772 235.837C262.43 235.334 262.259 234.752 262.259 234.092C262.259 233.678 262.336 233.279 262.488 232.894C262.637 232.51 262.868 232.165 263.179 231.86C263.487 231.552 263.877 231.308 264.348 231.129C264.815 230.95 265.368 230.861 266.008 230.861H266.446V236.827H265.665V231.766C265.174 231.766 264.734 231.865 264.343 232.064C263.948 232.26 263.637 232.533 263.408 232.884C263.179 233.232 263.065 233.635 263.065 234.092C263.065 234.576 263.194 235.002 263.453 235.37C263.711 235.738 264.053 236.026 264.477 236.235C264.901 236.441 265.365 236.545 265.869 236.548H266.336C266.943 236.548 267.473 236.444 267.927 236.235C268.378 236.023 268.728 235.723 268.976 235.335C269.225 234.948 269.349 234.488 269.349 233.958C269.349 233.597 269.293 233.28 269.18 233.009C269.067 232.734 268.916 232.503 268.728 232.318C268.535 232.129 268.325 231.986 268.096 231.89L268.37 231.05C268.691 231.166 268.988 231.356 269.259 231.622C269.531 231.883 269.75 232.211 269.916 232.606C270.078 232.997 270.159 233.448 270.159 233.958ZM268.051 229.403V228.463C268.459 228.437 268.777 228.261 269.006 227.936C269.235 227.612 269.349 227.184 269.349 226.654C269.349 226.103 269.226 225.649 268.981 225.291C268.732 224.934 268.371 224.755 267.897 224.755C267.609 224.755 267.359 224.822 267.147 224.958C266.934 225.091 266.769 225.273 266.649 225.505C266.527 225.734 266.464 225.994 266.46 226.286V227.618H265.65V226.301C265.624 225.847 265.501 225.502 265.282 225.267C265.06 225.031 264.77 224.914 264.412 224.914C264.005 224.914 263.678 225.058 263.433 225.346C263.184 225.634 263.06 226.026 263.06 226.519C263.06 227.02 263.183 227.436 263.428 227.767C263.673 228.099 263.988 228.274 264.372 228.294V229.224C263.958 229.207 263.594 229.083 263.279 228.851C262.96 228.619 262.712 228.306 262.533 227.911C262.354 227.514 262.264 227.063 262.264 226.559C262.264 226.042 262.357 225.593 262.543 225.212C262.728 224.831 262.982 224.536 263.304 224.327C263.622 224.118 263.983 224.014 264.387 224.014C264.808 224.014 265.155 224.13 265.426 224.362C265.695 224.59 265.884 224.884 265.993 225.242H266.068C266.098 224.97 266.197 224.731 266.366 224.526C266.535 224.317 266.752 224.153 267.017 224.034C267.282 223.914 267.576 223.855 267.897 223.855C268.348 223.855 268.744 223.972 269.085 224.208C269.424 224.443 269.687 224.771 269.876 225.192C270.065 225.61 270.159 226.092 270.159 226.639C270.159 227.166 270.072 227.635 269.896 228.046C269.717 228.457 269.47 228.783 269.155 229.025C268.837 229.264 268.469 229.39 268.051 229.403ZM270.159 218.946C270.159 219.659 269.994 220.276 269.662 220.796C269.327 221.316 268.865 221.719 268.275 222.004C267.682 222.286 266.999 222.427 266.227 222.427C265.458 222.427 264.775 222.286 264.179 222.004C263.579 221.719 263.11 221.326 262.772 220.826C262.43 220.322 262.259 219.74 262.259 219.081C262.259 218.666 262.336 218.267 262.488 217.883C262.637 217.498 262.868 217.153 263.179 216.848C263.487 216.54 263.877 216.297 264.348 216.118C264.815 215.939 265.368 215.849 266.008 215.849H266.446V221.815H265.665V216.754C265.174 216.754 264.734 216.853 264.343 217.052C263.948 217.248 263.637 217.521 263.408 217.873C263.179 218.221 263.065 218.623 263.065 219.081C263.065 219.565 263.194 219.991 263.453 220.358C263.711 220.726 264.053 221.015 264.477 221.223C264.901 221.429 265.365 221.533 265.869 221.537H266.336C266.943 221.537 267.473 221.432 267.927 221.223C268.378 221.011 268.728 220.711 268.976 220.324C269.225 219.936 269.349 219.477 269.349 218.946C269.349 218.585 269.293 218.269 269.18 217.997C269.067 217.722 268.916 217.491 268.728 217.306C268.535 217.117 268.325 216.974 268.096 216.878L268.37 216.038C268.691 216.154 268.988 216.345 269.259 216.61C269.531 216.872 269.75 217.2 269.916 217.594C270.078 217.985 270.159 218.436 270.159 218.946ZM265.769 208.744H266.605V213.233H265.769V208.744ZM262.364 213.014H270V213.899H262.364V213.014ZM262.364 208.092H270V208.977H262.364V208.092ZM265.312 205.001V202.769C265.312 201.91 265.521 201.248 265.938 200.78C266.356 200.313 266.921 200.079 267.634 200.079C268.108 200.079 268.522 200.184 268.877 200.392C269.231 200.601 269.508 200.906 269.707 201.307C269.902 201.708 270 202.196 270 202.769V205.737H262.364V204.852H269.165V202.769C269.165 202.229 269.036 201.793 268.777 201.461C268.519 201.13 268.151 200.964 267.674 200.964C267.186 200.964 266.81 201.13 266.545 201.461C266.28 201.793 266.147 202.229 266.147 202.769V205.001H265.312Z" fill="#EDEDED"/>
<path d="M328 256.745L323.198 260.25V261.717H328V262.647H317.818V261.717H322.367V260.797L317.818 257.044V255.94L322.407 259.714L328 255.632V256.745ZM328 254.067H320.364V251.059C320.364 250.247 320.54 249.608 320.891 249.14C321.242 248.67 321.716 248.434 322.313 248.434C322.767 248.434 323.13 248.565 323.402 248.827C323.673 249.089 323.866 249.44 323.978 249.881C324.028 249.586 324.136 249.313 324.301 249.061C324.467 248.805 324.686 248.598 324.958 248.439C325.229 248.28 325.554 248.201 325.932 248.201C326.33 248.201 326.684 248.3 326.996 248.499C327.308 248.698 327.553 248.978 327.732 249.339C327.911 249.7 328 250.128 328 250.622V254.067ZM327.18 253.222V250.622C327.18 250.154 327.061 249.785 326.822 249.513C326.58 249.241 326.259 249.105 325.857 249.105C325.43 249.105 325.089 249.235 324.833 249.493C324.575 249.748 324.446 250.091 324.446 250.522V253.222H327.18ZM323.66 253.222V251.005C323.66 250.66 323.607 250.362 323.501 250.11C323.395 249.858 323.246 249.664 323.054 249.528C322.858 249.389 322.629 249.321 322.367 249.324C321.993 249.324 321.703 249.477 321.497 249.782C321.289 250.086 321.184 250.512 321.184 251.059V253.222H323.66ZM328 246.25H320.364V245.361H328V246.25ZM319.051 245.798C319.051 245.98 318.99 246.136 318.867 246.265C318.741 246.395 318.591 246.459 318.415 246.459C318.239 246.459 318.09 246.395 317.968 246.265C317.842 246.136 317.779 245.98 317.779 245.798C317.779 245.616 317.842 245.46 317.968 245.331C318.09 245.201 318.239 245.137 318.415 245.137C318.591 245.137 318.741 245.201 318.867 245.331C318.99 245.46 319.051 245.616 319.051 245.798ZM321.199 243.487H320.364V237.522H321.199V240.047H328V240.932H321.199V243.487ZM328.159 232.96C328.159 233.673 327.994 234.289 327.662 234.81C327.327 235.33 326.865 235.733 326.275 236.018C325.682 236.299 324.999 236.44 324.227 236.44C323.458 236.44 322.775 236.299 322.179 236.018C321.579 235.733 321.11 235.34 320.772 234.839C320.43 234.336 320.259 233.754 320.259 233.094C320.259 232.68 320.336 232.281 320.488 231.896C320.637 231.512 320.868 231.167 321.179 230.862C321.487 230.554 321.877 230.31 322.348 230.131C322.815 229.952 323.368 229.863 324.008 229.863H324.446V235.829H323.665V230.768C323.174 230.768 322.734 230.867 322.343 231.066C321.948 231.262 321.637 231.535 321.408 231.886C321.179 232.234 321.065 232.637 321.065 233.094C321.065 233.578 321.194 234.004 321.453 234.372C321.711 234.74 322.053 235.028 322.477 235.237C322.901 235.443 323.365 235.547 323.869 235.55H324.336C324.943 235.55 325.473 235.446 325.927 235.237C326.378 235.025 326.728 234.725 326.976 234.337C327.225 233.949 327.349 233.49 327.349 232.96C327.349 232.599 327.293 232.282 327.18 232.011C327.067 231.735 326.916 231.505 326.728 231.32C326.535 231.131 326.325 230.988 326.096 230.892L326.37 230.052C326.691 230.168 326.988 230.358 327.259 230.623C327.531 230.885 327.75 231.213 327.916 231.608C328.078 231.999 328.159 232.45 328.159 232.96ZM323.769 222.757H324.605V227.247H323.769V222.757ZM320.364 227.028H328V227.913H320.364V227.028ZM320.364 222.106H328V222.991H320.364V222.106ZM323.312 219.015V216.783C323.312 215.924 323.521 215.261 323.938 214.794C324.356 214.327 324.921 214.093 325.634 214.093C326.108 214.093 326.522 214.197 326.877 214.406C327.231 214.615 327.508 214.92 327.707 215.321C327.902 215.722 328 216.209 328 216.783V219.751H320.364V218.866H327.165V216.783C327.165 216.242 327.036 215.806 326.777 215.475C326.519 215.144 326.151 214.978 325.674 214.978C325.186 214.978 324.81 215.144 324.545 215.475C324.28 215.806 324.147 216.242 324.147 216.783V219.015H323.312Z" fill="#EDEDED"/>
<path d="M375.654 263.263H374.818V255.88H375.654V259.107H385V260.037H375.654V263.263ZM387.864 254.764H377.364V253.904H378.821V253.8C378.592 253.694 378.358 253.548 378.12 253.362C377.878 253.177 377.674 252.931 377.508 252.627C377.342 252.318 377.259 251.93 377.259 251.463C377.259 250.833 377.425 250.283 377.757 249.813C378.085 249.339 378.545 248.971 379.139 248.709C379.729 248.444 380.416 248.311 381.202 248.311C381.991 248.311 382.682 248.444 383.275 248.709C383.868 248.971 384.331 249.339 384.662 249.813C384.994 250.283 385.159 250.83 385.159 251.453C385.159 251.914 385.076 252.3 384.911 252.612C384.745 252.92 384.541 253.17 384.299 253.362C384.054 253.551 383.815 253.697 383.583 253.8V253.879H387.864V254.764ZM381.187 253.889C381.804 253.889 382.35 253.798 382.828 253.616C383.302 253.43 383.674 253.165 383.946 252.82C384.215 252.472 384.349 252.051 384.349 251.558C384.349 251.051 384.21 250.623 383.931 250.275C383.65 249.924 383.27 249.657 382.793 249.475C382.316 249.289 381.78 249.196 381.187 249.196C380.6 249.196 380.072 249.287 379.601 249.47C379.13 249.649 378.758 249.914 378.482 250.265C378.204 250.616 378.065 251.047 378.065 251.558C378.065 252.055 378.199 252.477 378.468 252.825C378.733 253.173 379.101 253.439 379.571 253.621C380.039 253.8 380.577 253.889 381.187 253.889ZM385.174 244.237C385.174 244.698 385.085 245.119 384.906 245.5C384.723 245.881 384.462 246.184 384.12 246.41C383.776 246.635 383.358 246.748 382.867 246.748C382.49 246.748 382.171 246.676 381.913 246.534C381.654 246.391 381.442 246.189 381.277 245.927C381.111 245.665 380.98 245.356 380.884 244.998C380.788 244.64 380.713 244.245 380.66 243.814C380.607 243.387 380.561 243.026 380.521 242.731C380.481 242.432 380.418 242.205 380.332 242.049C380.246 241.894 380.107 241.816 379.914 241.816H379.735C379.215 241.816 378.806 241.972 378.507 242.283C378.206 242.591 378.055 243.035 378.055 243.616C378.055 244.166 378.176 244.615 378.418 244.963C378.66 245.307 378.945 245.549 379.273 245.689L378.97 246.529C378.552 246.357 378.219 246.118 377.97 245.813C377.719 245.508 377.538 245.167 377.429 244.789C377.316 244.411 377.259 244.028 377.259 243.64C377.259 243.349 377.298 243.045 377.374 242.731C377.45 242.412 377.583 242.117 377.772 241.846C377.957 241.574 378.217 241.353 378.552 241.184C378.884 241.015 379.304 240.931 379.815 240.931H385V241.816H383.792V241.87C384.018 241.977 384.236 242.134 384.448 242.343C384.661 242.552 384.835 242.813 384.97 243.128C385.106 243.443 385.174 243.813 385.174 244.237ZM384.364 244.118C384.364 243.647 384.259 243.239 384.051 242.895C383.842 242.55 383.565 242.285 383.22 242.099C382.872 241.91 382.49 241.816 382.072 241.816H380.968C381.031 241.882 381.088 241.993 381.137 242.149C381.187 242.301 381.232 242.479 381.272 242.681C381.308 242.88 381.339 243.079 381.366 243.277C381.393 243.476 381.416 243.655 381.436 243.814C381.489 244.245 381.572 244.613 381.684 244.918C381.797 245.223 381.953 245.457 382.152 245.619C382.347 245.781 382.599 245.863 382.907 245.863C383.371 245.863 383.731 245.697 383.986 245.366C384.238 245.034 384.364 244.618 384.364 244.118ZM385 238.577H377.364V235.569C377.364 234.757 377.54 234.117 377.891 233.65C378.242 233.179 378.716 232.944 379.313 232.944C379.767 232.944 380.13 233.075 380.402 233.337C380.673 233.599 380.866 233.95 380.978 234.391C381.028 234.096 381.136 233.822 381.301 233.57C381.467 233.315 381.686 233.108 381.958 232.949C382.229 232.79 382.554 232.71 382.932 232.71C383.33 232.71 383.684 232.81 383.996 233.009C384.308 233.207 384.553 233.488 384.732 233.849C384.911 234.21 385 234.638 385 235.131V238.577ZM384.18 237.732V235.131C384.18 234.664 384.061 234.295 383.822 234.023C383.58 233.751 383.259 233.615 382.857 233.615C382.43 233.615 382.089 233.744 381.833 234.003C381.575 234.258 381.446 234.601 381.446 235.032V237.732H384.18ZM380.66 237.732V235.514C380.66 235.17 380.607 234.871 380.501 234.619C380.395 234.368 380.246 234.174 380.054 234.038C379.858 233.899 379.629 233.831 379.367 233.834C378.993 233.834 378.703 233.986 378.497 234.291C378.289 234.596 378.184 235.022 378.184 235.569V237.732H380.66ZM385.159 227.683C385.159 228.395 384.994 229.012 384.662 229.532C384.327 230.053 383.865 230.455 383.275 230.74C382.682 231.022 381.999 231.163 381.227 231.163C380.458 231.163 379.775 231.022 379.179 230.74C378.579 230.455 378.11 230.063 377.772 229.562C377.43 229.058 377.259 228.477 377.259 227.817C377.259 227.403 377.336 227.003 377.488 226.619C377.637 226.234 377.868 225.89 378.179 225.585C378.487 225.277 378.877 225.033 379.348 224.854C379.815 224.675 380.368 224.585 381.008 224.585H381.446V230.551H380.665V225.49C380.174 225.49 379.734 225.59 379.343 225.789C378.948 225.984 378.637 226.258 378.408 226.609C378.179 226.957 378.065 227.36 378.065 227.817C378.065 228.301 378.194 228.727 378.453 229.095C378.711 229.463 379.053 229.751 379.477 229.96C379.901 230.165 380.365 230.27 380.869 230.273H381.336C381.943 230.273 382.473 230.169 382.927 229.96C383.378 229.748 383.728 229.448 383.976 229.06C384.225 228.672 384.349 228.213 384.349 227.683C384.349 227.322 384.293 227.005 384.18 226.733C384.067 226.458 383.916 226.228 383.728 226.042C383.535 225.853 383.325 225.711 383.096 225.615L383.37 224.774C383.691 224.89 383.988 225.081 384.259 225.346C384.531 225.608 384.75 225.936 384.916 226.331C385.078 226.722 385.159 227.172 385.159 227.683ZM380.769 217.48H381.605V221.969H380.769V217.48ZM377.364 221.75H385V222.635H377.364V221.75ZM377.364 216.829H385V217.714H377.364V216.829ZM380.312 213.737V211.505C380.312 210.647 380.521 209.984 380.938 209.517C381.356 209.049 381.921 208.816 382.634 208.816C383.108 208.816 383.522 208.92 383.877 209.129C384.231 209.338 384.508 209.643 384.707 210.044C384.902 210.445 385 210.932 385 211.505V214.473H377.364V213.588H384.165V211.505C384.165 210.965 384.036 210.529 383.777 210.198C383.519 209.866 383.151 209.701 382.674 209.701C382.186 209.701 381.81 209.866 381.545 210.198C381.28 210.529 381.147 210.965 381.147 211.505V213.737H380.312Z" fill="#EDEDED"/>
<path d="M432.818 262.652V261.727H436.194C436.721 261.727 437.145 261.636 437.467 261.454C437.785 261.268 438.015 261.001 438.158 260.653C438.3 260.305 438.372 259.886 438.372 259.395C438.372 259.127 438.36 258.86 438.337 258.595C438.314 258.33 438.281 258.068 438.237 257.809C438.191 257.548 438.136 257.289 438.073 257.034C438.01 256.779 437.938 256.528 437.855 256.283H438.71C438.793 256.542 438.866 256.794 438.929 257.039C438.991 257.284 439.046 257.531 439.093 257.78C439.136 258.025 439.169 258.28 439.192 258.545C439.212 258.81 439.222 259.092 439.222 259.39C439.222 260.08 439.117 260.668 438.909 261.155C438.7 261.642 438.373 262.014 437.929 262.269C437.482 262.524 436.903 262.652 436.194 262.652H432.818ZM432.818 256.402V255.493H443V256.402H432.818ZM443.159 249.886C443.159 250.599 442.994 251.215 442.662 251.735C442.327 252.256 441.865 252.658 441.275 252.943C440.682 253.225 439.999 253.366 439.227 253.366C438.458 253.366 437.775 253.225 437.179 252.943C436.579 252.658 436.11 252.266 435.772 251.765C435.43 251.261 435.259 250.68 435.259 250.02C435.259 249.606 435.336 249.206 435.488 248.822C435.637 248.438 435.868 248.093 436.179 247.788C436.487 247.48 436.877 247.236 437.348 247.057C437.815 246.878 438.368 246.789 439.008 246.789H439.446V252.755H438.665V247.693C438.174 247.693 437.734 247.793 437.343 247.992C436.948 248.187 436.637 248.461 436.408 248.812C436.179 249.16 436.065 249.563 436.065 250.02C436.065 250.504 436.194 250.93 436.453 251.298C436.711 251.666 437.053 251.954 437.477 252.163C437.901 252.368 438.365 252.473 438.869 252.476H439.336C439.943 252.476 440.473 252.372 440.927 252.163C441.378 251.951 441.728 251.651 441.976 251.263C442.225 250.875 442.349 250.416 442.349 249.886C442.349 249.525 442.293 249.208 442.18 248.936C442.067 248.661 441.916 248.431 441.728 248.245C441.535 248.056 441.325 247.914 441.096 247.818L441.37 246.978C441.691 247.094 441.988 247.284 442.259 247.549C442.531 247.811 442.75 248.139 442.916 248.534C443.078 248.925 443.159 249.376 443.159 249.886ZM445.864 244.839H435.364V243.978H436.821V243.874C436.592 243.768 436.358 243.622 436.12 243.437C435.878 243.251 435.674 243.006 435.508 242.701C435.342 242.392 435.259 242.005 435.259 241.537C435.259 240.908 435.425 240.357 435.757 239.887C436.085 239.413 436.545 239.045 437.139 238.783C437.729 238.518 438.416 238.385 439.202 238.385C439.991 238.385 440.682 238.518 441.275 238.783C441.868 239.045 442.331 239.413 442.662 239.887C442.994 240.357 443.159 240.904 443.159 241.527C443.159 241.988 443.076 242.374 442.911 242.686C442.745 242.994 442.541 243.244 442.299 243.437C442.054 243.625 441.815 243.771 441.583 243.874V243.954H445.864V244.839ZM439.187 243.964C439.804 243.964 440.35 243.872 440.828 243.69C441.302 243.504 441.674 243.239 441.946 242.895C442.215 242.547 442.349 242.126 442.349 241.632C442.349 241.125 442.21 240.697 441.931 240.349C441.65 239.998 441.27 239.731 440.793 239.549C440.316 239.363 439.78 239.27 439.187 239.27C438.6 239.27 438.072 239.361 437.601 239.544C437.13 239.723 436.758 239.988 436.482 240.339C436.204 240.691 436.065 241.121 436.065 241.632C436.065 242.129 436.199 242.552 436.468 242.9C436.733 243.248 437.101 243.513 437.571 243.695C438.039 243.874 438.577 243.964 439.187 243.964ZM443 236.444H435.364V233.436C435.364 232.624 435.54 231.984 435.891 231.517C436.242 231.046 436.716 230.811 437.313 230.811C437.767 230.811 438.13 230.942 438.402 231.204C438.673 231.466 438.866 231.817 438.978 232.258C439.028 231.963 439.136 231.689 439.301 231.438C439.467 231.182 439.686 230.975 439.958 230.816C440.229 230.657 440.554 230.578 440.932 230.578C441.33 230.578 441.684 230.677 441.996 230.876C442.308 231.075 442.553 231.355 442.732 231.716C442.911 232.077 443 232.505 443 232.999V236.444ZM442.18 235.599V232.999C442.18 232.531 442.061 232.162 441.822 231.89C441.58 231.618 441.259 231.482 440.857 231.482C440.43 231.482 440.089 231.612 439.833 231.87C439.575 232.125 439.446 232.468 439.446 232.899V235.599H442.18ZM438.66 235.599V233.381C438.66 233.037 438.607 232.738 438.501 232.487C438.395 232.235 438.246 232.041 438.054 231.905C437.858 231.766 437.629 231.698 437.367 231.701C436.993 231.701 436.703 231.854 436.497 232.158C436.289 232.463 436.184 232.889 436.184 233.436V235.599H438.66ZM443.159 225.55C443.159 226.263 442.994 226.879 442.662 227.399C442.327 227.92 441.865 228.322 441.275 228.608C440.682 228.889 439.999 229.03 439.227 229.03C438.458 229.03 437.775 228.889 437.179 228.608C436.579 228.322 436.11 227.93 435.772 227.429C435.43 226.925 435.259 226.344 435.259 225.684C435.259 225.27 435.336 224.871 435.488 224.486C435.637 224.102 435.868 223.757 436.179 223.452C436.487 223.144 436.877 222.9 437.348 222.721C437.815 222.542 438.368 222.453 439.008 222.453H439.446V228.419H438.665V223.358C438.174 223.358 437.734 223.457 437.343 223.656C436.948 223.851 436.637 224.125 436.408 224.476C436.179 224.824 436.065 225.227 436.065 225.684C436.065 226.168 436.194 226.594 436.453 226.962C436.711 227.33 437.053 227.618 437.477 227.827C437.901 228.032 438.365 228.137 438.869 228.14H439.336C439.943 228.14 440.473 228.036 440.927 227.827C441.378 227.615 441.728 227.315 441.976 226.927C442.225 226.539 442.349 226.08 442.349 225.55C442.349 225.189 442.293 224.872 442.18 224.6C442.067 224.325 441.916 224.095 441.728 223.909C441.535 223.72 441.325 223.578 441.096 223.482L441.37 222.642C441.691 222.758 441.988 222.948 442.259 223.213C442.531 223.475 442.75 223.803 442.916 224.198C443.078 224.589 443.159 225.04 443.159 225.55ZM438.769 215.347H439.605V219.836H438.769V215.347ZM435.364 219.618H443V220.503H435.364V219.618ZM435.364 214.696H443V215.581H435.364V214.696ZM438.312 211.605V209.372C438.312 208.514 438.521 207.851 438.938 207.384C439.356 206.916 439.921 206.683 440.634 206.683C441.108 206.683 441.522 206.787 441.877 206.996C442.231 207.205 442.508 207.51 442.707 207.911C442.902 208.312 443 208.799 443 209.372V212.34H435.364V211.456H442.165V209.372C442.165 208.832 442.036 208.396 441.777 208.065C441.519 207.733 441.151 207.568 440.674 207.568C440.186 207.568 439.81 207.733 439.545 208.065C439.28 208.396 439.147 208.832 439.147 209.372V211.605H438.312Z" fill="#EDEDED"/>
<path d="M500 263.606H499.14V263.338C499.14 262.917 499.001 262.584 498.723 262.339C498.441 262.093 497.99 261.913 497.37 261.797C496.75 261.681 495.935 261.604 494.924 261.568L489.818 261.389V255.413H500V256.343H490.654V260.504L495.128 260.668C496.205 260.708 497.105 260.807 497.828 260.966C498.547 261.125 499.089 261.391 499.453 261.762C499.818 262.13 500 262.65 500 263.323V263.606ZM498.742 252.006L492.364 247.974V246.915H500V247.8H493.622L500 251.817V252.891H492.364V252.006H498.742ZM500 244.569H492.364V238.787H500V239.677H493.199V243.679H500V244.569ZM500.159 233.357C500.159 234.069 499.994 234.686 499.662 235.206C499.327 235.726 498.865 236.129 498.275 236.414C497.682 236.696 496.999 236.837 496.227 236.837C495.458 236.837 494.775 236.696 494.179 236.414C493.579 236.129 493.11 235.736 492.772 235.236C492.43 234.732 492.259 234.15 492.259 233.491C492.259 233.077 492.336 232.677 492.488 232.293C492.637 231.908 492.868 231.564 493.179 231.259C493.487 230.95 493.877 230.707 494.348 230.528C494.815 230.349 495.368 230.259 496.008 230.259H496.446V236.225H495.665V231.164C495.174 231.164 494.734 231.264 494.343 231.462C493.948 231.658 493.637 231.931 493.408 232.283C493.179 232.631 493.065 233.033 493.065 233.491C493.065 233.975 493.194 234.401 493.453 234.769C493.711 235.136 494.053 235.425 494.477 235.634C494.901 235.839 495.365 235.944 495.869 235.947H496.336C496.943 235.947 497.473 235.842 497.927 235.634C498.378 235.421 498.728 235.122 498.976 234.734C499.225 234.346 499.349 233.887 499.349 233.357C499.349 232.995 499.293 232.679 499.18 232.407C499.067 232.132 498.916 231.902 498.728 231.716C498.535 231.527 498.325 231.385 498.096 231.288L498.37 230.448C498.691 230.564 498.988 230.755 499.259 231.02C499.531 231.282 499.75 231.61 499.916 232.004C500.078 232.395 500.159 232.846 500.159 233.357ZM495.769 223.154H496.605V227.643H495.769V223.154ZM492.364 227.424H500V228.309H492.364V227.424ZM492.364 222.502H500V223.387H492.364V222.502ZM495.312 219.411V217.179C495.312 216.321 495.521 215.658 495.938 215.19C496.356 214.723 496.921 214.489 497.634 214.489C498.108 214.489 498.522 214.594 498.877 214.803C499.231 215.011 499.508 215.316 499.707 215.717C499.902 216.118 500 216.606 500 217.179V220.147H492.364V219.262H499.165V217.179C499.165 216.639 499.036 216.203 498.777 215.872C498.519 215.54 498.151 215.374 497.674 215.374C497.186 215.374 496.81 215.54 496.545 215.872C496.28 216.203 496.147 216.639 496.147 217.179V219.411H495.312Z" fill="#EDEDED"/>
<path d="M551 254.672V255.607C550.652 255.677 550.331 255.803 550.036 255.985C549.737 256.164 549.477 256.389 549.255 256.661C549.033 256.933 548.861 257.241 548.738 257.586C548.616 257.93 548.554 258.303 548.554 258.704C548.554 259.347 548.722 259.934 549.056 260.464C549.391 260.991 549.883 261.414 550.533 261.732C551.179 262.047 551.971 262.204 552.909 262.204C553.854 262.204 554.649 262.047 555.296 261.732C555.942 261.414 556.433 260.991 556.767 260.464C557.099 259.934 557.264 259.347 557.264 258.704C557.264 258.303 557.203 257.93 557.08 257.586C556.958 257.241 556.787 256.933 556.568 256.661C556.346 256.389 556.086 256.164 555.788 255.985C555.49 255.803 555.166 255.677 554.818 255.607V254.672C555.286 254.755 555.722 254.911 556.126 255.14C556.527 255.365 556.878 255.653 557.18 256.005C557.482 256.353 557.717 256.754 557.886 257.208C558.055 257.662 558.139 258.161 558.139 258.704C558.139 259.559 557.926 260.318 557.498 260.981C557.067 261.644 556.461 262.165 555.679 262.542C554.896 262.917 553.973 263.104 552.909 263.104C551.845 263.104 550.922 262.917 550.14 262.542C549.358 262.165 548.753 261.644 548.326 260.981C547.895 260.318 547.679 259.559 547.679 258.704C547.679 258.161 547.764 257.662 547.933 257.208C548.098 256.754 548.334 256.353 548.639 256.005C548.94 255.653 549.292 255.365 549.693 255.14C550.094 254.911 550.53 254.755 551 254.672ZM558.159 249.585C558.159 250.298 557.994 250.914 557.662 251.435C557.327 251.955 556.865 252.358 556.275 252.643C555.682 252.924 554.999 253.065 554.227 253.065C553.458 253.065 552.775 252.924 552.179 252.643C551.579 252.358 551.11 251.965 550.772 251.464C550.43 250.961 550.259 250.379 550.259 249.719C550.259 249.305 550.336 248.906 550.488 248.521C550.637 248.137 550.868 247.792 551.179 247.487C551.487 247.179 551.877 246.935 552.348 246.756C552.815 246.577 553.368 246.488 554.008 246.488H554.446V252.454H553.665V247.393C553.174 247.393 552.734 247.492 552.343 247.691C551.948 247.887 551.637 248.16 551.408 248.511C551.179 248.859 551.065 249.262 551.065 249.719C551.065 250.203 551.194 250.629 551.453 250.997C551.711 251.365 552.053 251.653 552.477 251.862C552.901 252.068 553.365 252.172 553.869 252.175H554.336C554.943 252.175 555.473 252.071 555.927 251.862C556.378 251.65 556.728 251.35 556.976 250.962C557.225 250.574 557.349 250.115 557.349 249.585C557.349 249.224 557.293 248.907 557.18 248.636C557.067 248.36 556.916 248.13 556.728 247.945C556.535 247.756 556.325 247.613 556.096 247.517L556.37 246.677C556.691 246.793 556.988 246.983 557.259 247.248C557.531 247.51 557.75 247.838 557.916 248.233C558.078 248.624 558.159 249.075 558.159 249.585ZM560.864 244.538H550.364V243.678H551.821V243.573C551.592 243.467 551.358 243.321 551.12 243.136C550.878 242.95 550.674 242.705 550.508 242.4C550.342 242.092 550.259 241.704 550.259 241.237C550.259 240.607 550.425 240.057 550.757 239.586C551.085 239.112 551.545 238.744 552.139 238.482C552.729 238.217 553.416 238.085 554.202 238.085C554.991 238.085 555.682 238.217 556.275 238.482C556.868 238.744 557.331 239.112 557.662 239.586C557.994 240.057 558.159 240.604 558.159 241.227C558.159 241.687 558.076 242.073 557.911 242.385C557.745 242.693 557.541 242.944 557.299 243.136C557.054 243.325 556.815 243.47 556.583 243.573V243.653H560.864V244.538ZM554.187 243.663C554.804 243.663 555.35 243.572 555.828 243.389C556.302 243.204 556.674 242.939 556.946 242.594C557.215 242.246 557.349 241.825 557.349 241.331C557.349 240.824 557.21 240.396 556.931 240.048C556.65 239.697 556.27 239.43 555.793 239.248C555.316 239.062 554.78 238.97 554.187 238.97C553.6 238.97 553.072 239.061 552.601 239.243C552.13 239.422 551.758 239.687 551.482 240.038C551.204 240.39 551.065 240.821 551.065 241.331C551.065 241.828 551.199 242.251 551.468 242.599C551.733 242.947 552.101 243.212 552.571 243.394C553.039 243.573 553.577 243.663 554.187 243.663ZM558 236.133H550.364V230.351H558V231.241H551.199V235.243H558V236.133ZM558.159 224.921C558.159 225.634 557.994 226.25 557.662 226.771C557.327 227.291 556.865 227.694 556.275 227.979C555.682 228.26 554.999 228.401 554.227 228.401C553.458 228.401 552.775 228.26 552.179 227.979C551.579 227.694 551.11 227.301 550.772 226.8C550.43 226.297 550.259 225.715 550.259 225.055C550.259 224.641 550.336 224.242 550.488 223.857C550.637 223.473 550.868 223.128 551.179 222.823C551.487 222.515 551.877 222.271 552.348 222.092C552.815 221.913 553.368 221.824 554.008 221.824H554.446V227.79H553.665V222.729C553.174 222.729 552.734 222.828 552.343 223.027C551.948 223.222 551.637 223.496 551.408 223.847C551.179 224.195 551.065 224.598 551.065 225.055C551.065 225.539 551.194 225.965 551.453 226.333C551.711 226.701 552.053 226.989 552.477 227.198C552.901 227.404 553.365 227.508 553.869 227.511H554.336C554.943 227.511 555.473 227.407 555.927 227.198C556.378 226.986 556.728 226.686 556.976 226.298C557.225 225.91 557.349 225.451 557.349 224.921C557.349 224.56 557.293 224.243 557.18 223.972C557.067 223.696 556.916 223.466 556.728 223.28C556.535 223.092 556.325 222.949 556.096 222.853L556.37 222.013C556.691 222.129 556.988 222.319 557.259 222.584C557.531 222.846 557.75 223.174 557.916 223.569C558.078 223.96 558.159 224.411 558.159 224.921ZM553.769 214.718H554.605V219.207H553.769V214.718ZM550.364 218.989H558V219.874H550.364V218.989ZM550.364 214.067H558V214.952H550.364V214.067ZM553.312 210.976V208.744C553.312 207.885 553.521 207.222 553.938 206.755C554.356 206.288 554.921 206.054 555.634 206.054C556.108 206.054 556.522 206.158 556.877 206.367C557.231 206.576 557.508 206.881 557.707 207.282C557.902 207.683 558 208.17 558 208.744V211.712H550.364V210.827H557.165V208.744C557.165 208.203 557.036 207.767 556.777 207.436C556.519 207.105 556.151 206.939 555.674 206.939C555.186 206.939 554.81 207.105 554.545 207.436C554.28 207.767 554.147 208.203 554.147 208.744V210.976H553.312Z" fill="#EDEDED"/>
<rect x="531" y="49.9697" width="42.5963" height="138.438" rx="5" fill="#FF8001"/>
<rect x="531" y="67.9912" width="42.5963" height="120.416" rx="5" fill="#FF5600"/>
<rect x="531" y="97.4814" width="42.5963" height="90.9266" rx="5" fill="#10788E"/>
<rect x="474" y="49.9697" width="42.5963" height="138.438" rx="5" fill="#FF8001"/>
<rect x="474" y="67.9912" width="42.5963" height="120.416" rx="5" fill="#FF5600"/>
<rect x="474" y="97.4814" width="42.5963" height="90.9266" rx="5" fill="#10788E"/>
<rect x="416" y="67.9912" width="42.5963" height="120.416" rx="5" fill="#FF8001"/>
<rect x="416" y="83.5537" width="42.5963" height="104.852" rx="5" fill="#FF5600"/>
<rect x="416" y="108.949" width="42.5963" height="79.4584" rx="5" fill="#10788E"/>
<rect x="358" y="39.3223" width="42.5963" height="149.087" rx="5" fill="#FF8001"/>
<rect x="358" y="58.9805" width="42.5963" height="129.427" rx="5" fill="#FF5600"/>
<rect x="358" y="90.1094" width="42.5963" height="98.299" rx="5" fill="#10788E"/>
<rect x="301" y="49.9697" width="42.5963" height="138.438" rx="5" fill="#FF8001"/>
<rect x="301" y="67.9912" width="42.5963" height="120.416" rx="5" fill="#FF5600"/>
<rect x="301" y="97.4814" width="42.5963" height="90.9266" rx="5" fill="#10788E"/>
<rect x="243" y="72.9053" width="42.5963" height="115.501" rx="5" fill="#FF8001"/>
<rect x="243" y="87.6504" width="42.5963" height="100.757" rx="5" fill="#FF5600"/>
<rect x="243" y="112.226" width="42.5963" height="76.1817" rx="5" fill="#10788E"/>
<rect x="186.016" y="114.684" width="42.5963" height="73.7243" rx="5" fill="#FF8001"/>
<rect x="186" y="123.693" width="42.5963" height="64.7135" rx="5" fill="#FF5600"/>
<rect x="186" y="140.076" width="42.5963" height="48.3304" rx="5" fill="#10788E"/>
<rect x="127" y="135.981" width="42.5963" height="52.4262" rx="5" fill="#FF8001"/>
<rect x="127" y="142.533" width="42.5963" height="45.8729" rx="5" fill="#FF5600"/>
<rect x="127" y="154.002" width="42.5963" height="34.4047" rx="5" fill="#10788E"/>
<line x1="105" y1="186.999" x2="597" y2="186.999" stroke="#EDEDED" stroke-width="2" stroke-linecap="round"/>
<line x1="105" y1="0.999023" x2="105" y2="187.406" stroke="#EDEDED" stroke-width="2" stroke-linecap="round"/>
</svg>
