<svg width="111" height="75" viewBox="0 0 111 75" fill="none" xmlns="http://www.w3.org/2000/svg">
<g clip-path="url(#clip0_498_402)">
<path d="M42.5195 46.2846C31.3766 46.2846 20.2338 46.2846 9.09091 46.2846C6.09457 46.2846 3.8524 45.0712 2.47449 42.3771C2.04273 41.5241 1.82185 40.5799 1.83039 39.6238C1.83039 28.6476 1.81 17.6714 1.84058 6.69318C1.84058 2.86313 4.88177 0.00181006 8.8402 -0.000229369C27.3849 -0.00838709 45.9296 -0.00838709 64.4743 -0.000229369C68.3818 -0.000229369 72.2872 -0.000229369 76.1927 -0.000229369C80.2388 0.0140466 83.1801 2.85497 83.1923 6.90732C83.2276 17.7122 83.2276 28.5212 83.1923 39.3342C83.1801 43.4865 80.2755 46.2683 76.0337 46.2826C64.865 46.2948 53.6936 46.2955 42.5195 46.2846ZM42.5541 5.58781H9.22952C7.48675 5.58781 7.39502 5.68978 7.39502 7.43757C7.39502 17.9066 7.39502 28.3757 7.39502 38.8448C7.39502 40.6089 7.53159 40.7435 9.31921 40.7435H75.7687C77.5176 40.7435 77.6725 40.5885 77.6725 38.8162C77.6725 28.3825 77.6725 17.9481 77.6725 7.51303C77.6725 5.68774 77.5788 5.58985 75.7932 5.58985L42.5541 5.58781Z" fill="#EDEDED"/>
<path d="M69.2706 74.9796C66.2131 74.9796 63.1658 74.9592 60.1144 74.9919C59.3643 74.9919 59.1972 74.7879 59.3276 74.0476C60.1552 69.3569 64.3093 65.8348 69.1544 65.743C73.9995 65.6513 78.3269 69.0367 79.2788 73.6744C79.5438 74.9674 79.5377 74.9776 78.2229 74.9796H69.2706Z" fill="#EDEDED"/>
<path d="M15.5994 74.9795C12.6133 74.9795 9.62918 74.9468 6.64507 74.9999C5.75024 75.0141 5.53825 74.7531 5.69928 73.8986C6.54926 69.3629 10.6524 65.8775 15.3467 65.7408C20.1673 65.6083 24.4234 68.7592 25.5281 73.3214C26.0072 75.2874 25.9093 74.9672 24.2481 74.9713C21.3645 74.9822 18.4816 74.9849 15.5994 74.9795Z" fill="#EDEDED"/>
<path d="M42.4115 74.9797C39.3928 74.9797 36.374 74.9573 33.3552 74.994C32.5888 75.0042 32.3361 74.8268 32.4869 74.0192C32.9347 71.6993 34.1723 69.6064 35.9889 68.0968C37.8055 66.5872 40.0888 65.7541 42.4502 65.7395C44.8117 65.7248 47.1052 66.5294 48.9404 68.0163C50.7755 69.5033 52.039 71.5806 52.5156 73.8948C52.6949 74.7717 52.4462 75.0103 51.5698 74.996C48.5163 74.9512 45.465 74.9797 42.4115 74.9797Z" fill="#EDEDED"/>
<path d="M15.7277 63.8604C14.81 63.8681 13.9107 63.6026 13.1443 63.0975C12.3778 62.5925 11.7787 61.8709 11.4232 61.0243C11.0678 60.1778 10.9719 59.2446 11.1479 58.3434C11.3238 57.4422 11.7636 56.6138 12.4114 55.9633C13.0592 55.3129 13.8857 54.8699 14.7857 54.6906C15.6858 54.5114 16.6188 54.604 17.4662 54.9567C18.3135 55.3093 19.0369 55.9062 19.5443 56.6713C20.0518 57.4363 20.3204 58.3351 20.316 59.2533C20.3176 60.4729 19.8352 61.6432 18.9749 62.5071C18.1145 63.3709 16.9466 63.8577 15.7277 63.8604Z" fill="#EDEDED"/>
<path d="M42.4665 63.8607C41.5539 63.8486 40.6652 63.5667 39.9123 63.0506C39.1594 62.5344 38.5759 61.807 38.2352 60.9599C37.8944 60.1127 37.8117 59.1836 37.9974 58.2896C38.1831 57.3955 38.629 56.5763 39.2789 55.9352C39.9287 55.294 40.7536 54.8594 41.6497 54.6862C42.5458 54.5129 43.4731 54.6086 44.315 54.9614C45.1568 55.3141 45.8756 55.9081 46.3809 56.6686C46.8861 57.4291 47.1554 58.3221 47.1546 59.2352C47.1564 59.8486 47.0358 60.4563 46.8 61.0225C46.5642 61.5887 46.2178 62.1022 45.7813 62.5329C45.3448 62.9636 44.8267 63.3029 44.2576 63.5309C43.6884 63.7588 43.0795 63.871 42.4665 63.8607Z" fill="#EDEDED"/>
<path d="M64.7415 59.2453C64.7353 58.6418 64.848 58.0431 65.0731 57.4833C65.2982 56.9234 65.6313 56.4134 66.0534 55.9824C66.4755 55.5514 66.9783 55.2078 67.5331 54.9712C68.0879 54.7346 68.6839 54.6096 69.287 54.6035C69.8953 54.6028 70.4978 54.7221 71.06 54.9544C71.6223 55.1866 72.1333 55.5275 72.5639 55.9574C72.9945 56.3872 73.3362 56.8978 73.5696 57.4598C73.803 58.0219 73.9235 58.6244 73.9242 59.233C73.9248 59.8416 73.8057 60.4444 73.5735 61.007C73.3414 61.5695 73.0007 62.0808 72.5711 62.5117C72.1414 62.9425 71.6312 63.2845 71.0694 63.518C70.5077 63.7515 69.9055 63.8721 69.2972 63.8727C68.6937 63.8706 68.0966 63.749 67.5403 63.5148C66.984 63.2806 66.4795 62.9386 66.056 62.5084C65.6325 62.0782 65.2983 61.5684 65.0727 61.0083C64.8471 60.4483 64.7345 59.8491 64.7415 59.2453Z" fill="#EDEDED"/>
<path d="M2.74567 61.9886C2.38016 61.9968 2.01681 61.9304 1.67777 61.7935C1.33872 61.6566 1.03109 61.4521 0.773619 61.1924C0.51615 60.9327 0.314232 60.6233 0.180185 60.2829C0.0461376 59.9426 -0.0172312 59.5785 -0.00606877 59.2129C-0.00203888 58.6685 0.163091 58.1375 0.46848 57.6869C0.773868 57.2363 1.20582 56.8864 1.70983 56.6812C2.21383 56.476 2.76729 56.4248 3.30034 56.5341C3.83339 56.6434 4.32213 56.9082 4.70489 57.2951C5.08765 57.6821 5.34726 58.1738 5.45095 58.7082C5.55464 59.2427 5.49778 59.7959 5.28751 60.298C5.07725 60.8001 4.72303 61.2287 4.26956 61.5295C3.81608 61.8304 3.28367 61.9902 2.73955 61.9886H2.74567Z" fill="#FF8001"/>
<path d="M58.2005 54.5792C58.2044 54.8176 58.1613 55.0544 58.0737 55.2761C57.9861 55.4978 57.8558 55.7001 57.69 55.8713C57.5243 56.0426 57.3265 56.1796 57.1079 56.2744C56.8893 56.3692 56.6542 56.42 56.4159 56.4239C56.1777 56.4278 55.941 56.3847 55.7194 56.297C55.4979 56.2094 55.2957 56.079 55.1245 55.9132C54.9533 55.7474 54.8164 55.5495 54.7217 55.3307C54.6269 55.112 54.5761 54.8767 54.5723 54.6384C54.5684 54.4 54.6115 54.1632 54.699 53.9415C54.7866 53.7198 54.917 53.5175 55.0827 53.3462C55.2484 53.1749 55.4462 53.038 55.6648 52.9432C55.8834 52.8484 56.1186 52.7976 56.3568 52.7937C56.5951 52.7898 56.8317 52.8329 57.0533 52.9206C57.2749 53.0082 57.477 53.1386 57.6482 53.3044C57.8194 53.4702 57.9563 53.6681 58.0511 53.8869C58.1458 54.1056 58.1966 54.3409 58.2005 54.5792Z" fill="#FF5600"/>
<path d="M31.3943 38.8937C24.3988 38.8937 17.4033 38.8794 10.3996 38.91C9.49861 38.91 9.17656 38.7061 9.17656 37.7333C9.23975 34.2336 9.21936 30.734 9.17656 27.2323C9.16128 26.9495 9.21664 26.6674 9.33763 26.4114C9.45863 26.1553 9.64145 25.9335 9.86959 25.7659C16.8991 19.8801 23.9198 13.9821 30.9316 8.07184C31.4354 7.62262 32.0916 7.38265 32.7661 7.40087C46.692 7.41854 60.6172 7.41854 74.5417 7.40087C75.4936 7.40087 75.836 7.62113 75.8177 8.62453C75.7586 12.0569 75.7789 15.4892 75.8177 18.9216C75.8417 19.2376 75.7871 19.5547 75.6587 19.8444C75.5303 20.1341 75.3321 20.3874 75.0818 20.5817C68.0714 26.4403 61.0772 32.3179 54.0993 38.2146C53.5669 38.6846 52.8744 38.9321 52.1649 38.906C45.2448 38.8835 38.3145 38.8937 31.3943 38.8937ZM27.7498 23.1004C27.7426 25.6555 28.4922 28.1555 29.904 30.2847C31.3157 32.4139 33.3263 34.0768 35.6819 35.0636C38.0375 36.0504 40.6325 36.3168 43.1393 35.8291C45.6461 35.3414 47.9523 34.1215 49.7667 32.3235C51.5811 30.5254 52.8225 28.2298 53.3339 25.7265C53.8454 23.2231 53.6041 20.6243 52.6405 18.258C51.6769 15.8918 50.0342 13.8642 47.9198 12.4313C45.8054 10.9984 43.3141 10.2245 40.7605 10.2071C39.0598 10.198 37.374 10.5244 35.7994 11.1675C34.2249 11.8107 32.7925 12.7581 31.5842 13.9556C30.3758 15.153 29.4152 16.577 28.7573 18.1461C28.0994 19.7153 27.757 21.3988 27.7498 23.1004Z" fill="#FF5600"/>
<path d="M56.5779 38.7164C56.6248 38.3289 56.9856 38.1964 57.22 37.9924C63.0835 33.0543 68.9526 28.123 74.827 23.1984C75.0696 22.9945 75.2857 22.554 75.6424 22.7212C75.9991 22.8884 75.8156 23.333 75.8156 23.6552C75.8156 28.3724 75.8156 33.0896 75.834 37.8068C75.834 38.5329 75.7239 38.9163 74.8474 38.9102C69.0137 38.8775 63.178 38.8939 57.3443 38.8898C57.0875 38.8877 56.798 38.9754 56.5779 38.7164Z" fill="#EDEDED"/>
<path d="M28.7487 7.53366C26.5595 9.37934 24.5925 11.0517 22.6194 12.7016C18.4585 16.1999 14.2949 19.6941 10.1286 23.1842C9.90639 23.3719 9.70053 23.7512 9.38866 23.6268C9.0768 23.5024 9.22152 23.0863 9.22152 22.811C9.22152 18.0184 9.22151 13.2257 9.20113 8.43509C9.20113 7.72537 9.32955 7.40314 10.1408 7.41537C16.0173 7.44597 21.8958 7.43168 27.7723 7.43576C27.9986 7.41945 28.2228 7.47044 28.7487 7.53366Z" fill="#EDEDED"/>
<path d="M40.6076 34.236C38.4113 34.2214 36.2686 33.555 34.451 32.3214C32.6333 31.0877 31.2224 29.3422 30.3968 27.3058C29.5711 25.2694 29.3679 23.0337 29.8129 20.8817C30.2579 18.7297 31.3311 16.7582 32.8965 15.2168C34.462 13.6753 36.4494 12.6333 38.607 12.2226C40.7647 11.8118 42.9957 12.0508 45.0175 12.9094C47.0394 13.7679 48.7611 15.2074 49.9649 17.0455C51.1686 18.8837 51.8002 21.0378 51.7797 23.2353C51.7706 24.6923 51.4742 26.1333 50.9073 27.4754C50.3405 28.8176 49.5144 30.0345 48.4765 31.0566C47.4385 32.0786 46.2091 32.8855 44.8588 33.4311C43.5085 33.9767 42.0638 34.2502 40.6076 34.236ZM36.2762 23.1415C36.2762 25.0096 36.2762 26.8777 36.2762 28.7438C36.2762 30.1857 36.8877 30.5507 38.1107 29.8492C41.372 27.9729 44.6333 26.0898 47.8946 24.2C49.085 23.5086 49.0871 22.8213 47.8946 22.1259C44.6116 20.2129 41.3231 18.3094 38.0291 16.4155C36.9162 15.7771 36.2925 16.1422 36.2823 17.4352C36.2558 19.3359 36.2762 21.2489 36.2762 23.1415Z" fill="#EDEDED"/>
<path d="M45.9132 23.0845C45.0734 23.8208 44.1623 24.2042 43.3286 24.7018C41.8467 25.589 40.3384 26.4292 38.8443 27.3C38.3754 27.5733 38.0942 27.5794 38.0962 26.9187C38.0962 24.4115 38.0962 21.9037 38.0962 19.3952C38.0962 18.9343 38.19 18.6284 38.7342 18.9404L45.9132 23.0845Z" fill="#FF8001"/>
</g>
<path d="M103.6 20.2169C108.065 20.2169 110.796 17.5693 110.796 13.4027V3.50684H107.458V13.3159C107.458 15.7898 106.071 17.2655 103.6 17.2655C101.173 17.2655 99.7423 15.7898 99.7423 13.3159V3.50684H96.4046V13.4027C96.4046 17.5693 99.1788 20.2169 103.6 20.2169Z" fill="#EDEDED"/>
<path d="M103.384 46.8835C106.895 46.8835 109.496 45.0606 110.406 42.0658L107.285 40.9808C106.678 42.9773 105.291 44.0624 103.34 44.0624C100.566 44.0624 98.832 41.8922 98.832 38.42C98.832 34.9478 100.609 32.7776 103.34 32.7776C105.291 32.7776 106.678 33.8627 107.285 35.8592L110.406 34.7742C109.452 31.6926 106.895 29.9565 103.384 29.9565C98.6587 29.9565 95.4509 33.3853 95.4509 38.42C95.4509 43.5415 98.6153 46.8835 103.384 46.8835Z" fill="#EDEDED"/>
<path d="M101.91 73.5502C106.114 73.5502 108.629 71.6839 108.629 68.5155C108.629 65.3905 105.681 64.3488 102.56 63.5241C100.132 62.8731 98.9187 62.3523 98.9187 61.2672C98.9187 60.2255 100.089 59.5311 101.91 59.5311C103.6 59.5311 105.204 60.0953 106.418 61.0936L108.238 58.5762C106.418 57.2742 104.424 56.6231 102.083 56.6231C98.1385 56.6231 95.6243 58.446 95.6243 61.4408C95.6243 64.8262 98.9187 65.8245 101.823 66.6491C104.12 67.3002 105.247 67.6474 105.247 68.7759C105.247 69.9912 104.034 70.6856 102.04 70.6856C100.089 70.6856 98.2252 69.9912 96.8381 68.6457L94.9741 71.163C96.708 72.7255 99.1788 73.5502 101.91 73.5502Z" fill="#EDEDED"/>
<defs>
<clipPath id="clip0_498_402">
<rect width="83.227" height="75" fill="white"/>
</clipPath>
</defs>
</svg>
