<svg width="41" height="42" viewBox="0 0 41 42" fill="none" xmlns="http://www.w3.org/2000/svg">
<path d="M21.3999 39.9966C20.8823 40.4459 20.2572 40.6213 19.5591 40.3395C18.843 40.0491 18.5086 39.4793 18.4652 38.7222C18.4618 38.6662 18.4639 38.6096 18.4642 38.5533L18.4605 3.42459C18.4605 2.49719 18.9023 1.85129 19.7059 1.59914C20.6916 1.28831 21.7469 1.94649 21.907 2.97249C21.9327 3.13913 21.9454 3.3075 21.9452 3.47611C21.9452 8.64786 21.9414 13.8193 21.9339 18.9903C21.9332 19.2039 21.9773 19.267 22.2038 19.2664C27.3999 19.2566 32.5951 19.2513 37.7894 19.2507C38.7092 19.25 39.3654 19.7157 39.6114 20.5377C39.899 21.4982 39.2272 22.5563 38.235 22.6989C38.06 22.7236 37.8835 22.7359 37.7068 22.7357C32.5434 22.7355 27.3805 22.7318 22.2178 22.7245C21.9834 22.7241 21.9319 22.7797 21.9319 23.0104C21.9428 28.1912 21.9478 33.3707 21.9469 38.5488C21.9476 39.0873 21.8022 39.5622 21.3999 39.9966Z" fill="#FF5600"/>
<path d="M1.17551 22.1612C0.749 21.691 0.589316 21.0769 0.841125 20.3972C1.07656 19.7605 1.54708 19.3787 2.23119 19.2869C2.39036 19.2659 2.55072 19.2553 2.71127 19.2552C6.7716 19.2547 10.832 19.2535 14.8926 19.2514C15.1031 19.2511 15.1782 19.2907 15.1751 19.5223C15.1605 20.519 15.1618 21.5146 15.1738 22.5133C15.1755 22.6979 15.1233 22.7358 14.9462 22.7362C10.8294 22.7307 6.71303 22.7299 2.59696 22.7338C2.07594 22.7334 1.61395 22.5915 1.17551 22.1612Z" fill="#FF5600"/>
</svg>
