<svg width="210" height="210" viewBox="0 0 210 210" fill="none" xmlns="http://www.w3.org/2000/svg">
<g filter="url(#filter0_d_80_317)">
<circle cx="105" cy="103" r="100" fill="#EDEDED" fill-opacity="0.02" shape-rendering="crispEdges"/>
</g>
<g clip-path="url(#clip0_80_317)">
<path d="M100.816 137.606C100.816 141.456 100.798 145.307 100.83 149.16C100.83 149.871 100.698 150.124 99.9231 150.124C91.3675 150.124 82.8971 149.333 74.553 147.401C72.7753 146.988 70.9462 146.606 69.3979 145.557C66.2977 143.456 64.6641 140.621 65.0569 136.756C65.9333 128.158 66.7563 119.554 67.6256 110.954C67.8442 108.808 67.9971 106.656 68.6175 104.555C69.6289 101.134 72.2225 99.0991 75.7991 99.044C77.1323 99.0245 78.4655 99.0689 79.7969 99.0298C80.3439 99.0002 80.8912 99.0821 81.4055 99.2707C81.9199 99.4592 82.3904 99.7504 82.7887 100.127C85.6334 102.748 89.1041 104.595 92.8678 105.49C98.789 106.912 104.433 106.169 109.824 103.357C111.435 102.537 112.92 101.492 114.237 100.255C114.667 99.8269 115.184 99.4961 115.753 99.2846C116.321 99.073 116.929 98.9855 117.534 99.028C119.041 99.0902 120.556 98.9658 122.063 99.0867C125.263 99.3462 127.585 101.398 128.555 104.674C129.22 106.905 129.348 109.216 129.609 111.505C129.965 114.68 130.246 117.865 130.6 121.042C130.66 121.575 130.546 121.753 130.016 121.849C128.123 122.192 126.241 122.585 124.357 122.974C124.037 123.028 123.71 123.012 123.397 122.928C117.868 121.769 112.339 120.616 106.808 119.469C104.675 119.03 103.23 120.166 103.201 122.313C103.192 122.96 103.119 123.344 102.378 123.557C101.24 123.883 100.808 124.802 100.812 125.961C100.821 129.847 100.816 133.725 100.816 137.606Z" fill="#EDEDED"/>
<path d="M80.7141 83.6939C80.696 81.482 81.0567 79.2833 81.7807 77.1931C82.0491 76.395 82.426 76.5194 82.9966 76.6901C87.5491 78.0588 92.1104 79.4027 96.6611 80.7786C98.2268 81.2552 99.9001 81.2465 101.461 80.7537C105.905 79.4187 110.349 78.1175 114.793 76.7701C115.451 76.571 115.733 76.7061 115.945 77.3585C119.576 88.5788 112.457 99.7565 101.368 101.356C91.6216 102.762 83.0588 96.699 81.0056 87.0767C80.7699 85.9653 80.672 84.8292 80.7141 83.6939Z" fill="#EDEDED"/>
<path d="M121.1 62.7698L111.307 65.6904C107.517 66.821 103.722 67.9373 99.9302 69.0874C99.0801 69.3424 98.1728 69.3338 97.3277 69.0625C89.396 66.7161 81.4619 64.3744 73.5254 62.0374C73.3263 61.9787 73.1272 61.9201 72.9335 61.8507C72.6117 61.7334 72.3486 61.5734 72.3486 61.1681C72.3486 60.7628 72.5602 60.5228 72.9512 60.4073C74.224 60.0287 75.4915 59.6305 76.7642 59.2536C83.5038 57.2627 90.2416 55.2718 96.9776 53.2808C98.0263 52.9697 99.036 52.8809 100.106 53.2008C108.062 55.571 116.021 57.9311 123.983 60.2811C124.428 60.4144 125.007 60.4589 124.996 61.0757C124.986 61.6925 124.417 61.7476 123.972 61.8934C122.158 62.4818 122.158 62.48 122.158 64.4318C122.158 66.533 122.158 68.6353 122.158 70.7388C122.158 71.0819 122.126 71.3965 122.46 71.6899C123.025 72.1858 123.112 73.4461 122.568 73.9332C122.165 74.2887 122.278 74.5358 122.446 74.8931C122.746 75.5348 123.027 76.1855 123.311 76.8361C123.564 77.4156 123.35 77.7604 122.744 77.8422C122.009 77.9435 121.264 77.9435 120.529 77.8422C119.864 77.748 119.683 77.3765 119.95 76.7756C120.14 76.3437 120.355 75.9206 120.524 75.4797C120.751 74.8878 121.251 74.4043 120.538 73.6506C120.106 73.1919 120.131 72.2285 120.815 71.6543C120.908 71.5842 120.982 71.4924 121.031 71.3871C121.08 71.2817 121.102 71.1659 121.096 71.0499C121.096 68.3266 121.1 65.6051 121.1 62.7698Z" fill="#EDEDED"/>
<path d="M102.981 137.892V126.871C102.981 125.449 102.993 125.362 104.383 125.39C105.245 125.408 105.54 125.172 105.441 124.309C105.366 123.668 105.43 123.008 105.427 122.354C105.423 121.7 105.642 121.392 106.403 121.551C111.558 122.617 116.729 123.561 121.848 124.75C123.932 125.237 125.816 124.784 127.768 124.395C132.404 123.456 137.038 122.505 141.67 121.542C142.382 121.392 142.678 121.641 142.673 122.34C142.673 123.111 142.698 123.881 142.673 124.651C142.652 125.164 142.792 125.362 143.354 125.396C145.891 125.532 145.517 125.396 145.523 127.706C145.533 134.845 145.533 141.984 145.523 149.121C145.523 150.309 145.523 150.314 144.364 150.28C137.755 150.074 131.158 150.96 124.838 152.902C124.477 153.029 124.085 153.036 123.72 152.922C117.381 150.945 110.753 150.053 104.116 150.286C102.989 150.321 102.988 150.318 102.988 149.178C102.983 145.416 102.981 141.654 102.981 137.892ZM123.411 137.892C123.411 134.249 123.411 130.608 123.411 126.967C123.411 126.539 123.437 126.19 122.845 126.078C117.603 125.034 112.365 123.968 107.133 122.878C106.488 122.745 106.349 122.896 106.351 123.538C106.372 130.793 106.372 138.047 106.351 145.301C106.351 145.95 106.57 146.172 107.151 146.288C112.306 147.31 117.461 148.332 122.616 149.406C123.327 149.557 123.441 149.406 123.436 148.732C123.397 145.125 123.411 141.511 123.411 137.899V137.892ZM124.477 137.8C124.477 141.471 124.477 145.143 124.467 148.821C124.467 149.408 124.572 149.562 125.203 149.431C130.383 148.35 135.567 147.296 140.757 146.268C141.359 146.149 141.551 145.913 141.55 145.285C141.524 138.056 141.524 130.827 141.55 123.598C141.55 122.887 141.354 122.745 140.689 122.887C135.569 123.954 130.444 125.003 125.315 126.035C124.671 126.163 124.454 126.377 124.461 127.049C124.492 130.64 124.474 134.223 124.474 137.807L124.477 137.8Z" fill="#EDEDED"/>
<path d="M116.144 70.2876C116.144 71.3239 116.119 72.362 116.155 73.3966C116.174 73.9601 115.977 74.2854 115.433 74.4436C110.367 75.9368 105.3 77.4443 100.234 78.9286C99.2854 79.189 98.2811 79.1655 97.3455 78.861C92.4713 77.4129 87.6047 75.9677 82.7459 74.5254C82.0598 74.3245 81.7256 74.0117 81.7487 73.226C81.8056 71.2706 81.7913 69.3152 81.7487 67.3598C81.7362 66.6914 81.8962 66.567 82.545 66.7643C87.0655 68.1384 91.6109 69.4307 96.1172 70.8528C97.8659 71.4243 99.7511 71.4243 101.5 70.8528C105.976 69.4592 110.475 68.1366 114.965 66.7874C115.196 66.7368 115.424 66.6739 115.648 66.599C116.094 66.407 116.149 66.6417 116.147 67.0007C116.139 68.0975 116.144 69.1926 116.144 70.2876Z" fill="#EDEDED"/>
<path d="M109.092 128.742C110.306 128.988 111.52 129.24 112.736 129.484C115.369 130.017 118.003 130.529 120.636 131.064C121.039 131.147 121.64 131.126 121.471 131.805C121.331 132.372 120.846 132.209 120.446 132.129C116.686 131.366 112.926 130.596 109.163 129.843C108.781 129.766 108.452 129.69 108.484 129.212C108.507 128.831 108.745 128.714 109.092 128.742Z" fill="#EDEDED"/>
<path d="M108.984 134.292C111.41 134.797 113.636 135.264 115.863 135.714C117.482 136.043 119.107 136.354 120.728 136.672C121.095 136.745 121.592 136.71 121.493 137.287C121.393 137.865 120.959 137.796 120.519 137.707C116.988 136.996 113.456 136.285 109.922 135.574C109.604 135.512 109.288 135.44 108.969 135.375C108.589 135.296 108.392 135.087 108.493 134.683C108.511 134.568 108.571 134.465 108.662 134.392C108.753 134.32 108.868 134.284 108.984 134.292Z" fill="#EDEDED"/>
<path d="M120.721 140.631L110.916 138.651C110.31 138.528 109.7 138.416 109.097 138.272C108.742 138.187 108.386 138.036 108.489 137.561C108.593 137.087 108.946 137.133 109.323 137.206C113.173 137.99 117.02 138.768 120.863 139.54C121.251 139.616 121.59 139.693 121.489 140.182C121.407 140.585 121.071 140.622 120.721 140.631Z" fill="#EDEDED"/>
<path d="M120.707 129.449C119.518 129.219 118.218 128.979 116.905 128.714C114.386 128.202 111.868 127.682 109.35 127.152C108.962 127.072 108.42 127.07 108.504 126.476C108.6 125.788 109.161 126.012 109.57 126.092C113.339 126.843 117.104 127.612 120.871 128.373C121.203 128.439 121.544 128.499 121.518 128.938C121.491 129.377 121.194 129.468 120.707 129.449Z" fill="#EDEDED"/>
<path d="M120.739 135.024C119.022 134.699 117.338 134.4 115.662 134.059C113.529 133.623 111.396 133.154 109.263 132.703C108.847 132.616 108.374 132.553 108.507 131.963C108.63 131.409 109.092 131.569 109.449 131.64C113.236 132.397 117.02 133.163 120.803 133.938C121.127 134.004 121.557 134.007 121.502 134.543C121.447 135.078 121.055 135.003 120.739 135.024Z" fill="#EDEDED"/>
<path d="M120.684 143.337C119.294 143.063 117.788 142.774 116.288 142.47C113.918 141.988 111.552 141.494 109.177 141.014C108.776 140.932 108.383 140.857 108.493 140.314C108.603 139.77 109.055 139.88 109.416 139.958C113.261 140.728 117.104 141.504 120.945 142.285C121.256 142.349 121.527 142.463 121.495 142.848C121.464 143.273 121.153 143.341 120.684 143.337Z" fill="#EDEDED"/>
<path d="M120.775 146.189C118.878 145.833 116.962 145.478 115.051 145.085C113.111 144.694 111.179 144.267 109.241 143.864C108.847 143.782 108.433 143.711 108.498 143.184C108.571 142.614 109.032 142.719 109.398 142.792C113.251 143.56 117.102 144.333 120.952 145.113C121.265 145.175 121.537 145.302 121.502 145.68C121.459 146.102 121.143 146.18 120.775 146.189Z" fill="#EDEDED"/>
<path d="M127.258 140.624C126.968 140.61 126.63 140.559 126.598 140.132C126.561 139.636 126.964 139.599 127.309 139.522C130.175 138.946 133.041 138.373 135.908 137.802C136.777 137.624 137.641 137.434 138.508 137.258C138.926 137.174 139.457 136.925 139.575 137.602C139.692 138.28 139.086 138.241 138.686 138.324C135.737 138.936 132.786 139.531 129.835 140.128C128.993 140.297 128.152 140.452 127.258 140.624Z" fill="#EDEDED"/>
<path d="M127.364 129.503C126.998 129.471 126.671 129.418 126.603 129.006C126.536 128.593 126.858 128.454 127.195 128.385L138.736 126.053C139.104 125.978 139.463 125.936 139.594 126.408C139.697 126.787 139.452 126.979 139.145 127.045C135.216 127.872 131.289 128.691 127.364 129.503Z" fill="#EDEDED"/>
<path d="M127.174 132.211C126.872 132.211 126.612 132.127 126.595 131.733C126.577 131.302 126.868 131.185 127.21 131.117C128.454 130.872 129.698 130.634 130.943 130.382C133.513 129.859 136.083 129.332 138.652 128.799C139.047 128.718 139.457 128.622 139.587 129.137C139.717 129.653 139.28 129.775 138.903 129.848C135.092 130.626 131.279 131.396 127.464 132.159C127.375 132.18 127.286 132.193 127.174 132.211Z" fill="#EDEDED"/>
<path d="M127.226 137.79C126.927 137.79 126.643 137.737 126.593 137.355C126.541 136.939 126.799 136.782 127.162 136.713C128.497 136.455 129.828 136.198 131.163 135.926C133.652 135.421 136.14 134.905 138.629 134.395C139.006 134.319 139.431 134.169 139.569 134.719C139.708 135.268 139.255 135.364 138.887 135.43C135.066 136.214 131.243 136.989 127.418 137.755C127.364 137.776 127.306 137.78 127.226 137.79Z" fill="#EDEDED"/>
<path d="M127.279 143.334C126.923 143.353 126.6 143.312 126.591 142.857C126.578 142.301 127.05 142.308 127.4 142.237C130.093 141.693 132.791 141.17 135.486 140.637C136.586 140.417 137.682 140.166 138.782 139.944C139.153 139.869 139.534 139.889 139.6 140.372C139.656 140.779 139.374 140.934 139.016 141.007L127.542 143.303C127.457 143.321 127.364 143.323 127.279 143.334Z" fill="#EDEDED"/>
<path d="M127.277 135.03C126.989 134.998 126.658 135.002 126.605 134.609C126.539 134.122 126.898 134.022 127.265 133.951C129.06 133.596 130.861 133.267 132.654 132.902C134.679 132.492 136.698 132.056 138.72 131.626C139.093 131.546 139.456 131.505 139.585 131.966C139.715 132.426 139.365 132.597 139 132.677C135.154 133.455 131.306 134.23 127.458 135.002C127.402 135.009 127.343 135.018 127.277 135.03Z" fill="#EDEDED"/>
<path d="M127.29 146.172C126.993 146.172 126.66 146.172 126.594 145.727C126.529 145.283 126.879 145.167 127.19 145.105C131.068 144.32 134.947 143.542 138.828 142.773C139.184 142.704 139.502 142.746 139.591 143.162C139.68 143.578 139.413 143.753 139.057 143.825L127.503 146.151C127.453 146.161 127.393 146.161 127.29 146.172Z" fill="#EDEDED"/>
</g>
<defs>
<filter id="filter0_d_80_317" x="0" y="0" width="210" height="210" filterUnits="userSpaceOnUse" color-interpolation-filters="sRGB">
<feFlood flood-opacity="0" result="BackgroundImageFix"/>
<feColorMatrix in="SourceAlpha" type="matrix" values="0 0 0 0 0 0 0 0 0 0 0 0 0 0 0 0 0 0 127 0" result="hardAlpha"/>
<feOffset dy="2"/>
<feGaussianBlur stdDeviation="2.5"/>
<feComposite in2="hardAlpha" operator="out"/>
<feColorMatrix type="matrix" values="0 0 0 0 0.0628125 0 0 0 0 0.46914 0 0 0 0 0.558333 0 0 0 1 0"/>
<feBlend mode="normal" in2="BackgroundImageFix" result="effect1_dropShadow_80_317"/>
<feBlend mode="normal" in="SourceGraphic" in2="effect1_dropShadow_80_317" result="shape"/>
</filter>
<clipPath id="clip0_80_317">
<rect width="80.5315" height="100" fill="white" transform="translate(65 53)"/>
</clipPath>
</defs>
</svg>
