<svg width="36" height="25" viewBox="0 0 36 25" fill="none" xmlns="http://www.w3.org/2000/svg">
    <path d="M6.5 3.21875C6.11875 3.21875 5.75312 3.3274 5.48353 3.5208C5.21395 3.71419 5.0625 3.9765 5.0625 4.25V7.57887C5.0625 7.98913 4.83532 8.38259 4.43095 8.67268C4.02657 8.96278 3.47812 9.12575 2.90625 9.12575C2.33438 9.12575 1.78593 8.96278 1.38155 8.67268C0.977175 8.38259 0.75 7.98913 0.75 7.57887V4.25C0.75 3.15598 1.3558 2.10677 2.43414 1.33318C3.51247 0.559597 4.97501 0.125 6.5 0.125H11.1402C11.7121 0.125 12.2606 0.287974 12.6649 0.578069C13.0693 0.868164 13.2965 1.26162 13.2965 1.67188C13.2965 2.08213 13.0693 2.47559 12.6649 2.76568C12.2606 3.05578 11.7121 3.21875 11.1402 3.21875H6.5ZM22.7035 1.67188C22.7035 1.26162 22.9307 0.868164 23.3351 0.578069C23.7394 0.287974 24.2879 0.125 24.8597 0.125H29.5C31.025 0.125 32.4875 0.559597 33.5659 1.33318C34.6442 2.10677 35.25 3.15598 35.25 4.25V7.57887C35.25 7.98913 35.0228 8.38259 34.6184 8.67268C34.2141 8.96278 33.6656 9.12575 33.0938 9.12575C32.5219 9.12575 31.9734 8.96278 31.5691 8.67268C31.1647 8.38259 30.9375 7.98913 30.9375 7.57887V4.25C30.9375 3.9765 30.7861 3.71419 30.5165 3.5208C30.2469 3.3274 29.8812 3.21875 29.5 3.21875H24.8597C24.2879 3.21875 23.7394 3.05578 23.3351 2.76568C22.9307 2.47559 22.7035 2.08213 22.7035 1.67188ZM2.90625 15.8742C3.47812 15.8742 4.02657 16.0372 4.43095 16.3273C4.83532 16.6174 5.0625 17.0109 5.0625 17.4211V20.75C5.0625 21.0235 5.21395 21.2858 5.48353 21.4792C5.75312 21.6726 6.11875 21.7812 6.5 21.7812H11.1402C11.7121 21.7812 12.2606 21.9442 12.6649 22.2343C13.0693 22.5244 13.2965 22.9179 13.2965 23.3281C13.2965 23.7384 13.0693 24.1318 12.6649 24.4219C12.2606 24.712 11.7121 24.875 11.1402 24.875H6.5C4.97501 24.875 3.51247 24.4404 2.43414 23.6668C1.3558 22.8932 0.75 21.844 0.75 20.75V17.4211C0.75 17.0109 0.977175 16.6174 1.38155 16.3273C1.78593 16.0372 2.33438 15.8742 2.90625 15.8742ZM33.0938 15.8742C33.6656 15.8742 34.2141 16.0372 34.6184 16.3273C35.0228 16.6174 35.25 17.0109 35.25 17.4211V20.75C35.25 21.844 34.6442 22.8932 33.5659 23.6668C32.4875 24.4404 31.025 24.875 29.5 24.875H24.8597C24.2879 24.875 23.7394 24.712 23.3351 24.4219C22.9307 24.1318 22.7035 23.7384 22.7035 23.3281C22.7035 22.9179 22.9307 22.5244 23.3351 22.2343C23.7394 21.9442 24.2879 21.7812 24.8597 21.7812H29.5C29.8812 21.7812 30.2469 21.6726 30.5165 21.4792C30.7861 21.2858 30.9375 21.0235 30.9375 20.75V17.4211C30.9375 17.0109 31.1647 16.6174 31.5691 16.3273C31.9734 16.0372 32.5219 15.8742 33.0938 15.8742Z" fill="#EDEDED"/>
    </svg>
    