<svg width="36" height="36" viewBox="0 0 36 36" fill="none" xmlns="http://www.w3.org/2000/svg">
       <path d="M17.998 31.4733C12.2851 31.4733 7.25237 27.9504 5.29176 22.5361C4.44843 20.234 4.27123 17.7408 4.7805 15.3426C4.95544 14.4953 4.96223 14.4968 5.8083 14.7124C6.82329 14.9702 6.80067 14.9657 6.59255 15.9849C6.34331 17.2459 6.33053 18.5422 6.55484 19.8078C7.01709 22.5535 8.26962 24.8852 10.3833 26.7073C12.8914 28.8702 15.8232 29.8789 19.1253 29.4921C24.0472 28.9162 27.3893 26.2158 29.0038 21.5561C30.9915 15.8266 27.8621 9.34331 22.2171 7.20834C19.7995 6.29263 17.3482 6.16899 14.8633 6.83743C14.6099 6.90528 14.4998 6.86759 14.435 6.60448C14.3511 6.23772 14.2374 5.87843 14.0949 5.53021C13.9441 5.17891 14.0949 5.05602 14.3965 4.97838C15.177 4.78086 15.9642 4.59767 16.7658 4.5547C22.4968 4.24787 26.8901 6.52005 29.7956 11.4836C31.2871 14.0332 31.7826 16.8361 31.352 19.7626C30.6137 24.7819 27.8621 28.3153 23.2675 30.4073C21.6093 31.1642 19.8319 31.4944 17.998 31.4733Z" fill="#EDEDED"/>
       <path d="M11.2019 9.75298C11.2011 10.2266 11.0121 10.6806 10.6765 11.0149C10.3409 11.3493 9.88625 11.5367 9.41246 11.5359C8.93867 11.5351 8.48461 11.3462 8.15016 11.0107C7.81571 10.6752 7.62826 10.2206 7.62906 9.74695C7.62592 9.50848 7.67058 9.2718 7.76042 9.05086C7.85026 8.82993 7.98345 8.62923 8.15213 8.46059C8.32082 8.29195 8.52158 8.15879 8.74258 8.06898C8.96357 7.97917 9.20032 7.93451 9.43885 7.93765C10.4176 7.93615 11.2079 8.75108 11.2019 9.75298Z" fill="#EDEDED"/>
       <rect x="6.11328" y="12.7578" width="1.96016" height="7.43017" rx="0.980079" transform="rotate(43.4929 6.11328 12.7578)" fill="#EDEDED"/>
       <rect x="9.4375" y="19.0703" width="1.96016" height="6.61776" rx="0.980079" transform="rotate(156.515 9.4375 19.0703)" fill="#EDEDED"/>
       <path d="M15.1506 14.2727V23H13.8295V15.5938H13.7784L11.6903 16.9574V15.696L13.8679 14.2727H15.1506ZM20.5497 23.1449C19.8764 23.142 19.3011 22.9645 18.8239 22.6122C18.3466 22.2599 17.9815 21.7472 17.7287 21.0739C17.4759 20.4006 17.3494 19.5895 17.3494 18.6406C17.3494 17.6946 17.4759 16.8864 17.7287 16.2159C17.9844 15.5455 18.3509 15.0341 18.8281 14.6818C19.3082 14.3295 19.8821 14.1534 20.5497 14.1534C21.2173 14.1534 21.7898 14.331 22.267 14.6861C22.7443 15.0384 23.1094 15.5497 23.3622 16.2202C23.6179 16.8878 23.7457 17.6946 23.7457 18.6406C23.7457 19.5923 23.6193 20.4048 23.3665 21.0781C23.1136 21.7486 22.7486 22.2614 22.2713 22.6165C21.794 22.9688 21.2202 23.1449 20.5497 23.1449ZM20.5497 22.0071C21.1406 22.0071 21.6023 21.7188 21.9347 21.142C22.2699 20.5653 22.4375 19.7315 22.4375 18.6406C22.4375 17.9162 22.3608 17.304 22.2074 16.804C22.0568 16.3011 21.8395 15.9205 21.5554 15.6619C21.2741 15.4006 20.9389 15.2699 20.5497 15.2699C19.9616 15.2699 19.5 15.5597 19.1648 16.1392C18.8295 16.7187 18.6605 17.5526 18.6577 18.6406C18.6577 19.3679 18.733 19.983 18.8835 20.4858C19.0369 20.9858 19.2543 21.3651 19.5355 21.6236C19.8168 21.8793 20.1548 22.0071 20.5497 22.0071Z" fill="white"/>
       </svg>
       
        