<svg width="31" height="31" viewBox="0 0 31 31" fill="none" xmlns="http://www.w3.org/2000/svg">
    <path d="M27.9951 18.9417L26.0122 17.2464C26.1061 16.6712 26.1545 16.0839 26.1545 15.4966C26.1545 14.9093 26.1061 14.322 26.0122 13.7468L27.9951 12.0515C28.1447 11.9235 28.2517 11.7529 28.302 11.5626C28.3523 11.3722 28.3435 11.1711 28.2767 10.9859L28.2494 10.9072C27.7035 9.38148 26.8861 7.96713 25.8366 6.73247L25.7821 6.6689C25.6548 6.5192 25.4851 6.41159 25.2955 6.36025C25.1058 6.30891 24.905 6.31625 24.7195 6.3813L22.2583 7.2562C21.3501 6.51147 20.3359 5.92417 19.24 5.51245L18.7648 2.93921C18.7289 2.74559 18.635 2.56746 18.4955 2.42849C18.3559 2.28952 18.1775 2.19629 17.9837 2.16118L17.902 2.14604C16.3247 1.86147 14.6657 1.86147 13.0885 2.14604L13.0067 2.16118C12.813 2.19629 12.6345 2.28952 12.495 2.42849C12.3555 2.56746 12.2615 2.74559 12.2257 2.93921L11.7474 5.52456C10.6602 5.93637 9.64781 6.52336 8.7503 7.26226L6.2709 6.3813C6.08553 6.31573 5.88459 6.30813 5.69479 6.3595C5.50498 6.41087 5.33531 6.51878 5.20831 6.6689L5.15381 6.73247C4.10559 7.968 3.28829 9.38211 2.74102 10.9072L2.71378 10.9859C2.57755 11.3643 2.68956 11.7881 2.99532 12.0515L5.00245 13.765C4.9086 14.3341 4.86319 14.9154 4.86319 15.4936C4.86319 16.0749 4.9086 16.6561 5.00245 17.2222L2.99532 18.9357C2.84575 19.0637 2.73871 19.2343 2.68842 19.4246C2.63813 19.615 2.64697 19.8161 2.71378 20.0013L2.74102 20.08C3.28897 21.6058 4.1003 23.0135 5.15381 24.2547L5.20831 24.3183C5.33562 24.468 5.5053 24.5756 5.69499 24.627C5.88468 24.6783 6.08547 24.671 6.2709 24.6059L8.7503 23.725C9.65245 24.4667 10.6606 25.054 11.7474 25.4626L12.2257 28.048C12.2615 28.2416 12.3555 28.4198 12.495 28.5587C12.6345 28.6977 12.813 28.7909 13.0067 28.826L13.0885 28.8412C14.6802 29.1273 16.3102 29.1273 17.902 28.8412L17.9837 28.826C18.1775 28.7909 18.3559 28.6977 18.4955 28.5587C18.635 28.4198 18.7289 28.2416 18.7648 28.048L19.24 25.4748C20.3355 25.0641 21.3554 24.4749 22.2583 23.731L24.7195 24.6059C24.9049 24.6715 25.1059 24.6791 25.2957 24.6277C25.4855 24.5763 25.6551 24.4684 25.7821 24.3183L25.8366 24.2547C26.8901 23.0105 27.7015 21.6058 28.2494 20.08L28.2767 20.0013C28.4129 19.629 28.3009 19.2051 27.9951 18.9417ZM23.8628 14.1041C23.9385 14.5612 23.9778 15.0304 23.9778 15.4997C23.9778 15.9689 23.9385 16.4381 23.8628 16.8953L23.663 18.1092L25.9244 20.0437C25.5816 20.8335 25.1489 21.5811 24.6348 22.2718L21.8254 21.2758L20.8748 22.0569C20.1513 22.6502 19.346 23.1165 18.4741 23.4434L17.3207 23.8763L16.7788 26.8128C15.9238 26.9097 15.0606 26.9097 14.2056 26.8128L13.6637 23.8703L12.5193 23.4313C11.6565 23.1043 10.8543 22.6381 10.1368 22.0478L9.18624 21.2637L6.3587 22.2688C5.84405 21.5755 5.41417 20.8278 5.06905 20.0407L7.35469 18.088L7.15792 16.8771C7.08526 16.426 7.04591 15.9598 7.04591 15.4997C7.04591 15.0365 7.08223 14.5733 7.15792 14.1222L7.35469 12.9113L5.06905 10.9586C5.41114 10.1685 5.84405 9.42378 6.3587 8.73052L9.18624 9.7356L10.1368 8.95151C10.8543 8.36118 11.6565 7.89497 12.5193 7.56802L13.6667 7.13511L14.2086 4.19253C15.0593 4.09565 15.9281 4.09565 16.7818 4.19253L17.3237 7.12905L18.4772 7.56196C19.346 7.88892 20.1543 8.35513 20.8778 8.94849L21.8284 9.72954L24.6378 8.73354C25.1524 9.42681 25.5823 10.1746 25.9274 10.9617L23.666 12.8961L23.8628 14.1041ZM15.4982 9.8688C12.5557 9.8688 10.1701 12.2543 10.1701 15.1969C10.1701 18.1395 12.5557 20.525 15.4982 20.525C18.4408 20.525 20.8264 18.1395 20.8264 15.1969C20.8264 12.2543 18.4408 9.8688 15.4982 9.8688ZM17.8959 17.5946C17.5814 17.91 17.2077 18.16 16.7962 18.3305C16.3847 18.5009 15.9436 18.5882 15.4982 18.5875C14.5931 18.5875 13.7424 18.2334 13.1006 17.5946C12.7852 17.2801 12.5351 16.9064 12.3647 16.4949C12.1943 16.0834 12.1069 15.6423 12.1076 15.1969C12.1076 14.2917 12.4618 13.4411 13.1006 12.7993C13.7424 12.1575 14.5931 11.8063 15.4982 11.8063C16.4034 11.8063 17.2541 12.1575 17.8959 12.7993C18.2113 13.1137 18.4614 13.4875 18.6318 13.899C18.8022 14.3104 18.8896 14.7516 18.8889 15.1969C18.8889 16.1021 18.5347 16.9528 17.8959 17.5946Z" fill="#EDEDED"/>
    </svg>
    