<svg width="36" height="36" viewBox="0 0 36 36" fill="none" xmlns="http://www.w3.org/2000/svg">
        <path d="M17.998 31.4733C12.2851 31.4733 7.25237 27.9504 5.29176 22.5361C4.44843 20.234 4.27123 17.7408 4.7805 15.3426C4.95544 14.4953 4.96223 14.4968 5.8083 14.7124C6.82329 14.9702 6.80067 14.9657 6.59255 15.9849C6.34331 17.2459 6.33053 18.5422 6.55484 19.8078C7.01709 22.5535 8.26962 24.8852 10.3833 26.7073C12.8914 28.8702 15.8232 29.8789 19.1253 29.4921C24.0472 28.9162 27.3893 26.2158 29.0038 21.5561C30.9915 15.8266 27.8621 9.34331 22.2171 7.20834C19.7995 6.29263 17.3482 6.16899 14.8633 6.83743C14.6099 6.90528 14.4998 6.86759 14.435 6.60448C14.3511 6.23772 14.2374 5.87843 14.0949 5.53021C13.9441 5.17891 14.0949 5.05602 14.3965 4.97838C15.177 4.78086 15.9642 4.59767 16.7658 4.5547C22.4968 4.24787 26.8901 6.52005 29.7956 11.4836C31.2871 14.0332 31.7826 16.8361 31.352 19.7626C30.6137 24.7819 27.8621 28.3153 23.2675 30.4073C21.6093 31.1642 19.8319 31.4944 17.998 31.4733Z" fill="#EDEDED"/>
        <path d="M11.2019 9.75298C11.2011 10.2266 11.0121 10.6806 10.6765 11.0149C10.3409 11.3493 9.88625 11.5367 9.41246 11.5359C8.93867 11.5351 8.48461 11.3462 8.15016 11.0107C7.81571 10.6752 7.62826 10.2206 7.62906 9.74695C7.62592 9.50848 7.67058 9.2718 7.76042 9.05086C7.85026 8.82993 7.98345 8.62923 8.15213 8.46059C8.32082 8.29195 8.52158 8.15879 8.74258 8.06898C8.96357 7.97917 9.20032 7.93451 9.43885 7.93765C10.4176 7.93615 11.2079 8.75108 11.2019 9.75298Z" fill="#EDEDED"/>
        <rect x="13" y="13" width="3" height="10" rx="1.5" fill="#EDEDED"/>
        <rect x="20" y="13" width="3" height="10" rx="1.5" fill="#EDEDED"/>
        </svg>
        