<svg width="36" height="36" viewBox="0 0 36 36" fill="none" xmlns="http://www.w3.org/2000/svg">
    <path d="M17.998 31.4733C12.2851 31.4733 7.25237 27.9504 5.29176 22.5361C4.44843 20.234 4.27123 17.7408 4.7805 15.3426C4.95544 14.4953 4.96223 14.4968 5.8083 14.7124C6.82329 14.9702 6.80067 14.9657 6.59255 15.9849C6.34331 17.2459 6.33053 18.5422 6.55484 19.8078C7.01709 22.5535 8.26962 24.8852 10.3833 26.7073C12.8914 28.8702 15.8232 29.8789 19.1253 29.4921C24.0472 28.9162 27.3893 26.2158 29.0038 21.5561C30.9915 15.8266 27.8621 9.34331 22.2171 7.20834C19.7995 6.29263 17.3482 6.16899 14.8633 6.83743C14.6099 6.90528 14.4998 6.86759 14.435 6.60448C14.3511 6.23772 14.2374 5.87843 14.0949 5.53021C13.9441 5.17891 14.0949 5.05602 14.3965 4.97838C15.177 4.78086 15.9642 4.59767 16.7658 4.5547C22.4968 4.24787 26.8901 6.52005 29.7956 11.4836C31.2871 14.0332 31.7826 16.8361 31.352 19.7626C30.6137 24.7819 27.8621 28.3153 23.2675 30.4073C21.6093 31.1642 19.8319 31.4944 17.998 31.4733Z" fill="#EDEDED"/>
    <path d="M11.2019 9.75201C11.2011 10.2257 11.0121 10.6796 10.6765 11.014C10.3409 11.3483 9.88625 11.5357 9.41246 11.5349C8.93867 11.5341 8.48461 11.3452 8.15016 11.0097C7.81571 10.6742 7.62826 10.2196 7.62906 9.74598C7.62592 9.50751 7.67058 9.27082 7.76042 9.04989C7.85026 8.82895 7.98345 8.62825 8.15213 8.45961C8.32082 8.29097 8.52158 8.15782 8.74258 8.068C8.96357 7.97819 9.20032 7.93354 9.43885 7.93668C10.4176 7.93517 11.2079 8.75011 11.2019 9.75201Z" fill="#EDEDED"/>
    <path d="M15.2542 18.0028C15.2542 16.687 15.2542 15.3713 15.2542 14.0555C15.252 13.938 15.2646 13.8208 15.2919 13.7065C15.3507 13.4803 15.5483 13.3733 15.7662 13.466C16.0912 13.6039 16.3823 13.8037 16.6854 13.9809C18.7179 15.165 20.7492 16.3518 22.7791 17.5414C22.8423 17.5773 22.903 17.6174 22.9609 17.6613C23.2467 17.8875 23.2361 18.2063 22.9322 18.4031C22.7588 18.5154 22.5778 18.6149 22.3998 18.7182C20.2572 19.9636 18.1144 21.208 15.9713 22.4514C15.8696 22.5252 15.7478 22.566 15.6222 22.5683C15.4412 22.5585 15.3394 22.4884 15.2926 22.3119C15.2648 22.1978 15.2518 22.0804 15.2542 21.9629C15.2542 20.6431 15.2542 19.3231 15.2542 18.0028Z" fill="#EDEDED"/>
    </svg>
    