<svg width="33" height="25" viewBox="0 0 33 25" fill="none" xmlns="http://www.w3.org/2000/svg">
    <path d="M4.125 0.125C3.03098 0.125 1.98177 0.559597 1.20818 1.33318C0.434597 2.10677 0 3.15598 0 4.25L0 20.75C0 21.844 0.434597 22.8932 1.20818 23.6668C1.98177 24.4404 3.03098 24.875 4.125 24.875H28.875C29.969 24.875 31.0182 24.4404 31.7918 23.6668C32.5654 22.8932 33 21.844 33 20.75V4.25C33 3.15598 32.5654 2.10677 31.7918 1.33318C31.0182 0.559597 29.969 0.125 28.875 0.125H4.125ZM10.3682 8.37912C8.65631 8.37912 7.64775 9.70325 7.64775 11.9947V13.5271C7.64775 15.8103 8.63775 17.0891 10.3682 17.0891C11.7913 17.0891 12.7153 16.1919 12.8143 14.9234H15.18V15.1586C15.0624 17.5242 13.0598 19.1557 10.3496 19.1557C7.02281 19.1557 5.15625 17.0354 5.15625 13.5271V11.9864C5.15625 8.48019 7.04138 6.3125 10.3496 6.3125C13.068 6.3125 15.0728 7.98931 15.18 10.4375V10.6644H12.8143C12.7153 9.3485 11.7727 8.37912 10.3682 8.37912ZM23.0319 8.37912C21.318 8.37912 20.3115 9.70325 20.3115 11.9947V13.5271C20.3115 15.8103 21.3015 17.0891 23.0299 17.0891C24.453 17.0891 25.3791 16.1919 25.4781 14.9234H27.8438V15.1586C27.7262 17.5242 25.7235 19.1557 23.0134 19.1557C19.6866 19.1557 17.82 17.0354 17.82 13.5271V11.9864C17.82 8.48019 19.7051 6.3125 23.0134 6.3125C25.7318 6.3125 27.7365 7.98931 27.8438 10.4375V10.6644H25.4781C25.3791 9.3485 24.4365 8.37912 23.0299 8.37912H23.0319Z" fill="#EDEDED"/>
    </svg>
    