<svg width="29" height="22" viewBox="0 0 29 22" fill="none" xmlns="http://www.w3.org/2000/svg">
    <path d="M0.75 14.2501V8.75007C0.75 8.3854 0.894866 8.03566 1.15273 7.7778C1.41059 7.51993 1.76033 7.37507 2.125 7.37507H5.83338C6.10498 7.37513 6.37052 7.29475 6.5965 7.14407L12.3619 3.29957C12.5691 3.16128 12.8101 3.08191 13.059 3.06995C13.3079 3.05798 13.5553 3.11387 13.7749 3.23164C13.9945 3.34941 14.1779 3.52463 14.3056 3.73857C14.4334 3.95252 14.5005 4.19715 14.5 4.44632V18.5538C14.5 18.8028 14.4325 19.047 14.3046 19.2606C14.1767 19.4741 13.9932 19.649 13.7737 19.7664C13.5542 19.8838 13.3069 19.9395 13.0583 19.9274C12.8097 19.9153 12.569 19.836 12.3619 19.6978L6.5965 15.8547C6.37037 15.7045 6.10484 15.6246 5.83338 15.6251H2.125C1.76033 15.6251 1.41059 15.4802 1.15273 15.2223C0.894866 14.9645 0.75 14.6147 0.75 14.2501Z" fill="#EDEDED" stroke="#EDEDED" stroke-width="1.5"/>
    <path d="M20.6875 5.3125C20.6875 5.3125 22.75 7.375 22.75 10.8125C22.75 14.25 20.6875 16.3125 20.6875 16.3125M24.8125 1.1875C24.8125 1.1875 28.25 4.625 28.25 10.8125C28.25 17 24.8125 20.4375 24.8125 20.4375" stroke="#EDEDED" stroke-width="1.5" stroke-linecap="round" stroke-linejoin="round"/>
    </svg>
    