<svg width="66" height="25" viewBox="0 0 66 25" fill="none" xmlns="http://www.w3.org/2000/svg">
    <g clip-path="url(#clip0_1960_56777)">
    <path d="M8.86812 4.13602L8.87802 4.09227L8.90442 3.9079L7.68342 3.90165C6.58122 3.8954 6.24297 3.90165 6.21327 3.92821C6.19842 3.94071 5.81727 5.31102 5.13912 7.79227C4.81572 8.97665 4.54347 9.92196 4.53357 9.89384C4.52367 9.86571 4.13757 8.51415 3.67227 6.89071C3.39368 5.89812 3.10547 4.90797 2.80767 3.9204C2.79117 3.90477 1.31277 3.89852 0.11487 3.9079C-0.0583804 3.90946 -0.15573 3.58759 1.66257 9.06259C1.91337 9.8204 2.29122 10.8938 2.49912 11.447C2.74002 12.0845 2.91162 12.5782 3.02877 12.9891C3.23667 13.772 3.24327 14.2626 3.19872 14.836C3.14592 15.497 3.13932 20.1688 3.19047 20.247C3.23007 20.3063 5.54172 20.3345 5.76117 20.2782C5.79582 20.2688 5.81892 20.2376 5.83542 20.061C5.88987 19.9095 5.89482 19.3048 5.89482 16.7954V13.5907L6.04332 13.1485C6.14067 12.8595 6.38322 12.0985 6.58452 11.4579L7.12407 9.75477C7.99692 7.06102 8.82852 4.41259 8.85162 4.26102L8.86977 4.13759L8.86812 4.13602ZM21.814 8.02352V8.19071H21.786L21.7711 12.8048L21.7563 17.2782L21.3784 17.6423C20.9544 18.0501 20.6161 18.2063 20.3092 18.1329C19.9743 18.0532 19.9842 18.1766 19.9561 12.8891L19.9297 8.02196H17.4976V8.18915H17.4696V13.4704C17.4696 19.1282 17.4696 19.1251 17.7732 19.6923C18.0141 20.1454 18.3672 20.3657 18.9694 20.4407C19.7631 20.5407 20.6194 20.2001 21.4131 19.4688L21.7579 19.1516V19.7001C21.7579 20.1735 21.7728 20.2516 21.8635 20.2751C22.012 20.3141 23.8534 20.3173 24.0514 20.2782L24.2164 20.2454V20.0829L24.2445 20.0782V7.99071L21.8157 8.02196L21.814 8.02352ZM15.6463 10.4079C15.4153 9.47196 14.9847 8.84227 14.2735 8.4079C13.1581 7.72509 11.8827 7.65165 10.7013 8.20477C9.83997 8.6079 9.28392 9.27665 8.99847 10.2579C8.96182 10.3759 8.93588 10.4967 8.92092 10.6188C8.84832 10.9657 8.84007 11.4813 8.82027 13.8891C8.79057 17.5985 8.83677 18.0391 9.32682 18.8813C9.80862 19.7079 10.8069 20.3141 11.8942 20.4391C12.2209 20.4767 12.8842 20.4188 13.267 20.3173C14.1333 20.0891 14.9649 19.4407 15.3328 18.7048C15.4948 18.4101 15.6004 18.0906 15.6447 17.761C15.7519 17.2095 15.7602 16.3157 15.7602 14.0407C15.7602 11.1391 15.7503 10.822 15.648 10.4063L15.6463 10.4079ZM12.8727 17.9688C12.6219 18.1241 12.3164 18.1791 12.0229 18.122C11.8002 18.0766 11.4982 17.7454 11.4058 17.4438C11.2903 17.0673 11.2821 11.8282 11.3811 10.8016C11.5461 10.2876 12.0048 10.0188 12.5064 10.147C12.8974 10.247 13.0971 10.4782 13.2109 10.9641C13.2951 11.3251 13.305 11.7735 13.2868 14.4126C13.2753 16.1626 13.2687 17.0188 13.2076 17.4782C13.1466 17.7673 13.0443 17.8454 12.8727 17.9704V17.9688ZM59.307 13.0407H60.4818L60.4636 12.0329C60.4455 11.1079 60.4306 11.0032 60.3003 10.7516C60.094 10.3563 59.7904 10.1798 59.3086 10.1798C58.7295 10.1798 58.3632 10.4454 58.1899 10.9891C58.1157 11.2204 58.0381 12.8126 58.0942 12.9501C58.1256 13.0266 58.2939 13.0407 59.307 13.0407ZM51.453 10.7485C51.3831 10.6096 51.2706 10.4939 51.1302 10.4164C50.9898 10.3389 50.828 10.3033 50.6659 10.3141C50.3589 10.3364 50.0664 10.447 49.8277 10.6313L49.6182 10.7829V18.0235L49.8277 18.1751C50.3029 18.5188 50.8243 18.5907 51.184 18.3626C51.3331 18.263 51.4414 18.1179 51.4909 17.9516C51.585 17.6954 51.5932 17.3657 51.5817 14.3188C51.5685 11.1438 51.5619 10.9563 51.453 10.7485Z" fill="#EDEDED"/>
    <path d="M66.0246 7.48606C65.7903 4.82824 65.6038 3.96574 65.0263 2.85793C64.2591 1.39074 63.1519 0.617307 61.5745 0.446995C60.3552 0.315745 55.7649 0.129807 51.5194 0.0407445C44.167 -0.113943 32.0791 0.184495 30.5347 0.557932C29.8455 0.718121 29.2191 1.06188 28.7296 1.54856C27.7545 2.46731 27.172 3.78606 26.9394 5.61106C26.4064 9.77668 26.3949 14.8079 26.908 19.1251C27.1291 20.9814 27.5845 22.1876 28.4392 23.1814C28.9722 23.8017 29.8929 24.3282 30.7146 24.4861C31.2921 24.597 34.1796 24.7501 38.3871 24.8923C39.0141 24.9142 40.6723 24.9501 42.0748 24.9736C44.9953 25.022 50.3661 24.9939 53.4367 24.9126C55.5025 24.8579 59.2678 24.7126 59.9724 24.6611C60.1704 24.647 60.6291 24.6189 60.9921 24.6001C62.2114 24.5345 62.9869 24.2939 63.7146 23.7517C64.6567 23.0501 65.386 21.7548 65.6946 20.2345C65.9866 18.797 66.1813 16.2361 66.2209 13.3282C66.2539 10.8986 66.2094 9.58918 66.0246 7.48293V7.48606ZM36.747 6.52356L35.3808 6.53918L35.3214 20.3361L34.1367 20.3501C33.2209 20.3626 32.9421 20.3486 32.9206 20.2939C32.9041 20.2548 32.886 17.1439 32.8777 13.3814L32.8629 6.53918L30.1948 6.50793V4.35168L38.0802 4.38137L38.1132 6.50637L36.747 6.52199V6.52356ZM45.124 14.4314V20.3642H42.9658V19.7392C42.9658 19.2689 42.9477 19.1142 42.8883 19.1142C42.8454 19.1142 42.6507 19.2689 42.4543 19.4579C42.027 19.8689 41.5221 20.1986 41.0898 20.3517C40.1955 20.6689 39.3474 20.4829 38.986 19.8939C38.6544 19.3548 38.6494 19.2329 38.6494 13.6361V8.49543H40.806L40.8225 13.3361C40.839 18.0923 40.8406 18.1798 40.9611 18.3736C41.1211 18.6298 41.3637 18.7001 41.7498 18.5986C41.9775 18.5392 42.1326 18.4345 42.5005 18.0876L42.9658 17.6501V8.49543H45.124V14.4282V14.4314ZM53.5423 19.5173C53.3526 19.9189 52.9285 20.3111 52.5804 20.4079C51.6745 20.6611 50.9469 20.4548 50.107 19.7064C49.8463 19.4736 49.6038 19.2861 49.5675 19.2861C49.5229 19.2861 49.4998 19.4673 49.4998 19.8251V20.3642H47.3416V4.35168H49.4998V6.96418C49.4998 8.40012 49.5196 9.57668 49.5444 9.57668C49.5691 9.57668 49.7968 9.38606 50.0509 9.15481C50.635 8.62199 51.1218 8.38762 51.7405 8.34387C52.8444 8.26418 53.5027 8.80325 53.803 10.0314C53.8971 10.4142 53.9053 10.8517 53.9053 14.4032C53.9053 18.7282 53.9053 18.747 53.5407 19.5173H53.5423ZM62.6751 17.1423C62.6639 17.5235 62.6214 17.9033 62.548 18.2782C62.2477 19.3314 61.4491 20.0782 60.2941 20.3845C58.7398 20.797 57.0271 20.122 56.344 18.8267C55.9612 18.1001 55.9464 17.9548 55.9464 14.4032C55.9464 11.5079 55.9579 11.1517 56.0553 10.7564C56.3325 9.63918 57.0189 8.91574 58.1821 8.51418C58.5187 8.39856 58.8702 8.33762 59.2216 8.33137C60.4773 8.30637 61.7214 8.94543 62.2444 9.98606C62.5959 10.6876 62.6404 10.9892 62.6751 12.9673L62.7064 14.7423L58.1046 14.772L58.0881 15.9642C58.0633 17.647 58.1838 18.1642 58.6639 18.4689C59.0665 18.7267 59.6869 18.7064 60.0235 18.4267C60.3403 18.1642 60.4294 17.8814 60.4608 17.0564L60.4888 16.3329H62.7114L62.6751 17.1423Z" fill="#EDEDED"/>
    </g>
    <defs>
    <clipPath id="clip0_1960_56777">
    <rect width="66" height="25" fill="white"/>
    </clipPath>
    </defs>
    </svg>
    