<svg width="111" height="111" viewBox="0 0 111 111" fill="none" xmlns="http://www.w3.org/2000/svg">
    <g filter="url(#filter0_d_1523_65245)">
    <circle cx="55.2578" cy="53.5039" r="50" fill="#0F0F0F"/>
    </g>
    <path d="M53.4976 57.3425V36.5094C53.4976 36.3566 53.4912 36.2038 53.5032 36.0517C53.5602 35.3272 54.1228 34.7991 54.8241 34.8047C55.5254 34.8104 56.0768 35.3554 56.119 36.0785C56.1282 36.2306 56.1225 36.3841 56.1225 36.5362C56.1225 43.3174 56.1225 50.0991 56.1225 56.8813V57.3537C56.3098 57.3432 56.3788 57.2073 56.469 57.1164C58.1631 55.4265 59.8547 53.7333 61.5436 52.0368C61.8647 51.7137 62.2161 51.4996 62.6892 51.5242C62.9039 51.535 63.1125 51.5992 63.2961 51.7109C63.4797 51.8226 63.6326 51.9784 63.7408 52.1641C63.849 52.3498 63.9092 52.5595 63.9159 52.7744C63.9227 52.9892 63.8757 53.2023 63.7792 53.3944C63.6707 53.5894 63.5314 53.7656 63.3666 53.9162C61.4824 55.7985 59.5984 57.6809 57.7146 59.5633C55.9705 61.3025 53.6158 61.2919 51.8703 59.545C49.9556 57.6269 48.0396 55.7101 46.1225 53.7944C45.3867 53.0564 45.6071 51.9171 46.5513 51.5925C47.1027 51.4031 47.5822 51.558 47.9941 51.9721C49.4728 53.4606 50.9648 54.9414 52.4449 56.4306C52.7639 56.751 53.0589 57.096 53.3645 57.4298L53.4976 57.3425Z" fill="#EDEDED"/>
    <path d="M54.736 71.2727C51.7322 71.2727 48.7284 71.2798 45.7232 71.2727C43.7755 71.2671 42.2476 70.0623 41.8167 68.207C41.7546 67.9317 41.7234 67.6505 41.7237 67.3683C41.7153 65.2095 41.7089 63.0499 41.7237 60.8904C41.7308 59.8828 42.6708 59.2519 43.5509 59.6462C44.0889 59.887 44.3311 60.3299 44.3311 60.9136C44.3311 62.9791 44.3311 65.0445 44.3311 67.1099C44.3311 68.1661 44.824 68.6675 45.8802 68.6682C51.7949 68.6682 57.7084 68.6682 63.6207 68.6682C64.6853 68.6682 65.1698 68.1795 65.1698 67.1191C65.1698 65.0426 65.1634 62.9647 65.1747 60.889C65.1803 59.8842 66.121 59.2526 67.0054 59.6532C67.5406 59.8961 67.78 60.3404 67.78 60.9249C67.78 62.3444 67.78 63.7639 67.78 65.1834C67.78 65.9932 67.7976 66.8029 67.7624 67.612C67.6772 69.5927 66.0211 71.2418 64.0305 71.2622C60.9323 71.2946 57.8342 71.2706 54.736 71.2706V71.2727Z" fill="#EDEDED"/>
    <defs>
    <filter id="filter0_d_1523_65245" x="0.257812" y="0.503906" width="110" height="110" filterUnits="userSpaceOnUse" color-interpolation-filters="sRGB">
    <feFlood flood-opacity="0" result="BackgroundImageFix"/>
    <feColorMatrix in="SourceAlpha" type="matrix" values="0 0 0 0 0 0 0 0 0 0 0 0 0 0 0 0 0 0 127 0" result="hardAlpha"/>
    <feOffset dy="2"/>
    <feGaussianBlur stdDeviation="2.5"/>
    <feComposite in2="hardAlpha" operator="out"/>
    <feColorMatrix type="matrix" values="0 0 0 0 0.93 0 0 0 0 0.93 0 0 0 0 0.93 0 0 0 1 0"/>
    <feBlend mode="normal" in2="BackgroundImageFix" result="effect1_dropShadow_1523_65245"/>
    <feBlend mode="normal" in="SourceGraphic" in2="effect1_dropShadow_1523_65245" result="shape"/>
    </filter>
    </defs>
    </svg>
    