<svg width="111" height="111" viewBox="0 0 111 111" fill="none" xmlns="http://www.w3.org/2000/svg">
    <g filter="url(#filter0_d_1523_65296)">
    <circle cx="55.7578" cy="53.5039" r="50" fill="#0F0F0F"/>
    </g>
    <path d="M73.9718 59.5878L68.8667 55.1054C68.2904 54.5973 67.6939 54.1012 67.1416 53.573C66.5552 53.0047 65.9969 53.0167 65.3522 53.4726C64.1232 54.3402 62.8178 55.1114 61.643 56.0452C60.8396 56.6859 60.3556 56.5493 59.7612 55.8083C59.1326 55.029 58.3855 54.3462 57.7027 53.6132C57.1002 52.9746 56.5259 52.9364 55.8953 53.573C53.4853 56.0312 51.0674 58.4866 48.6414 60.9394C48.1734 61.4154 47.8903 61.9576 48.4807 62.5018C49.0711 63.0461 49.5833 62.6826 50.0391 62.2207C52.0595 60.1702 54.0999 58.1399 56.0901 56.0613C56.6142 55.513 56.9195 55.507 57.4336 56.0613C59.1547 57.931 60.928 59.7565 62.6812 61.5981C62.8821 61.815 63.105 62.0259 63.3098 62.2468C63.7737 62.7428 64.314 63.024 64.8622 62.4597C65.4105 61.8953 65.0992 61.3692 64.6373 60.8912C63.8942 60.12 63.1773 59.3247 62.4282 58.5616C62.0888 58.2142 62.0828 57.9852 62.5065 57.7061C63.5977 56.9911 64.6761 56.2548 65.7419 55.497C66.0853 55.256 66.3323 55.3162 66.6235 55.5733C68.9571 57.6324 71.3001 59.6836 73.6525 61.7267C73.9798 62.0118 73.9898 62.3492 73.9898 62.7207C73.9898 64.494 73.9898 66.2674 73.9898 68.0407C73.9898 69.1271 73.7087 69.3983 72.6081 69.3983C61.3618 69.3983 50.1155 69.3983 38.8691 69.3983C37.7967 69.3983 37.5215 69.1131 37.5195 68.0105C37.5195 61.9201 37.5195 55.8283 37.5195 49.7352C37.5195 48.6347 37.8188 48.221 38.8711 48.3796C41.9177 48.8355 44.2011 47.6787 46.3359 45.568C48.545 43.3871 51.0433 41.5013 53.4231 39.497C53.7444 39.2084 54.0224 38.8749 54.2485 38.5069C55.0518 37.302 56.6283 37.302 57.4095 38.525C57.6848 38.9431 58.0236 39.3158 58.4137 39.6296C61.6148 42.3207 64.8221 45.0077 68.0052 47.7189C68.2317 47.9361 68.5 48.1049 68.7938 48.2151C69.0876 48.3252 69.4008 48.3744 69.7142 48.3596C70.7505 48.3093 71.7888 48.3596 72.8271 48.3455C73.4998 48.3455 73.9678 48.6347 73.9718 49.3255C73.9838 52.6532 73.9718 55.9609 73.9718 59.5878ZM65.6776 48.3053C63.1652 46.1826 60.8577 44.2185 58.5241 42.2604C57.7851 41.6399 57.1324 40.7361 55.9595 41.437C55.8975 41.4645 55.83 41.4775 55.7621 41.4751C55.6943 41.4727 55.6279 41.4548 55.5679 41.423C54.628 40.8446 54.0376 41.4511 53.415 42.0254C52.8949 42.4974 52.3466 42.9352 51.8084 43.3911L46.0346 48.3134L65.6776 48.3053ZM45.4141 53.2035C44.9076 53.2265 44.4302 53.4463 44.0836 53.8162C43.7369 54.1861 43.5485 54.6768 43.5584 55.1837C43.5893 55.6741 43.8088 56.1334 44.1709 56.4656C44.5329 56.7978 45.0095 56.9769 45.5007 56.9655C45.9919 56.954 46.4597 56.7529 46.8059 56.4043C47.1522 56.0557 47.35 55.5866 47.3581 55.0953C47.3435 54.5892 47.1323 54.1086 46.7695 53.7555C46.4066 53.4023 45.9204 53.2044 45.4141 53.2035Z" fill="#EDEDED"/>
    <defs>
    <filter id="filter0_d_1523_65296" x="0.757812" y="0.503906" width="110" height="110" filterUnits="userSpaceOnUse" color-interpolation-filters="sRGB">
    <feFlood flood-opacity="0" result="BackgroundImageFix"/>
    <feColorMatrix in="SourceAlpha" type="matrix" values="0 0 0 0 0 0 0 0 0 0 0 0 0 0 0 0 0 0 127 0" result="hardAlpha"/>
    <feOffset dy="2"/>
    <feGaussianBlur stdDeviation="2.5"/>
    <feComposite in2="hardAlpha" operator="out"/>
    <feColorMatrix type="matrix" values="0 0 0 0 0.93 0 0 0 0 0.93 0 0 0 0 0.93 0 0 0 1 0"/>
    <feBlend mode="normal" in2="BackgroundImageFix" result="effect1_dropShadow_1523_65296"/>
    <feBlend mode="normal" in="SourceGraphic" in2="effect1_dropShadow_1523_65296" result="shape"/>
    </filter>
    </defs>
    </svg>
    