<svg width="111" height="111" viewBox="0 0 111 111" fill="none" xmlns="http://www.w3.org/2000/svg">
    <g filter="url(#filter0_d_1523_65265)">
    <circle cx="55.2578" cy="53.5039" r="50" fill="#0F0F0F"/>
    </g>
    <path d="M42.8682 71.7376C40.6635 71.5901 38.6676 70.4446 37.5945 68.03C36.4976 65.562 36.8827 63.1999 38.7261 61.2446C41.1565 58.6707 43.6849 56.1808 46.2342 53.7207C47.6785 52.3268 49.4704 51.8051 51.4811 52.1496C51.6296 52.1753 51.8563 52.1229 51.9028 52.3179C51.9454 52.4961 51.7464 52.5931 51.6346 52.705C48.159 56.1825 44.6822 59.658 41.204 63.1316C40.5991 63.7355 40.1902 64.4186 40.1615 65.2996C40.118 66.6549 40.7912 67.7964 41.9643 68.3379C42.5381 68.6045 43.1799 68.6884 43.8029 68.5785C44.4259 68.4685 45.0002 68.17 45.4481 67.7232C46.7044 66.5084 47.9231 65.2591 49.1635 64.0236C51.4616 61.7268 53.7591 59.4297 56.0559 57.1322C56.1687 57.0203 56.2667 56.8233 56.4439 56.8639C56.6419 56.9105 56.5835 57.1382 56.6093 57.2857C56.9647 59.3142 56.4113 61.11 55.0065 62.5653C52.5562 65.1016 50.0417 67.5766 47.5291 70.0516C46.4015 71.1604 44.8195 71.7465 42.8682 71.7376Z" fill="#EDEDED"/>
    <path d="M67.3861 35.2695C69.8245 35.4131 71.8074 36.5565 72.8915 38.9375C74.0022 41.3738 73.6666 43.7419 71.8431 45.6902C69.378 48.3236 66.7684 50.8233 64.2083 53.3676C63.6612 53.8988 63.0047 54.3042 62.2847 54.5556C61.2145 54.9436 60.1176 55.1268 58.9841 54.8634C58.8504 54.8318 58.6504 54.8882 58.6059 54.708C58.5663 54.5437 58.7376 54.4546 58.8385 54.3536C61.2145 51.9723 63.5931 49.5934 65.9744 47.2167C67.1287 46.0624 68.3019 44.9259 69.4305 43.7468C71.1134 41.9856 70.4442 39.2721 68.1227 38.5454C66.9278 38.1712 65.8457 38.4939 64.9547 39.3909C63.3938 40.9557 61.8313 42.5189 60.2671 44.0805C58.3426 46.005 56.4177 47.9286 54.4925 49.8511C54.3677 49.9759 54.2618 50.1976 54.0727 50.158C53.8549 50.1125 53.9213 49.8551 53.8945 49.6937C53.5639 47.7246 54.0717 45.9565 55.4369 44.5378C57.905 41.9738 60.4413 39.475 62.9817 36.9812C64.1439 35.8269 65.6071 35.32 67.3861 35.2695Z" fill="#EDEDED"/>
    <path d="M62.078 48.4904C62.0305 49.3972 61.6107 50.111 60.9761 50.7396C58.7321 52.9691 56.4921 55.2058 54.2561 57.4498C53.5631 58.1428 52.8958 58.8427 52.184 59.505C51.491 60.1535 50.6604 60.495 49.6942 60.2525C49.2891 60.1513 48.9352 59.9051 48.6996 59.5604C48.4641 59.2157 48.3632 58.7965 48.4161 58.3824C48.5062 57.6795 48.7675 57.0469 49.2794 56.536L58.2695 47.5459C58.7942 47.0212 59.4446 46.7609 60.1673 46.6856C61.2197 46.5757 62.078 47.4004 62.078 48.4904Z" fill="#EDEDED"/>
    <defs>
    <filter id="filter0_d_1523_65265" x="0.257812" y="0.503906" width="110" height="110" filterUnits="userSpaceOnUse" color-interpolation-filters="sRGB">
    <feFlood flood-opacity="0" result="BackgroundImageFix"/>
    <feColorMatrix in="SourceAlpha" type="matrix" values="0 0 0 0 0 0 0 0 0 0 0 0 0 0 0 0 0 0 127 0" result="hardAlpha"/>
    <feOffset dy="2"/>
    <feGaussianBlur stdDeviation="2.5"/>
    <feComposite in2="hardAlpha" operator="out"/>
    <feColorMatrix type="matrix" values="0 0 0 0 0.93 0 0 0 0 0.93 0 0 0 0 0.93 0 0 0 1 0"/>
    <feBlend mode="normal" in2="BackgroundImageFix" result="effect1_dropShadow_1523_65265"/>
    <feBlend mode="normal" in="SourceGraphic" in2="effect1_dropShadow_1523_65265" result="shape"/>
    </filter>
    </defs>
    </svg>
    