<svg width="111" height="111" viewBox="0 0 111 111" fill="none" xmlns="http://www.w3.org/2000/svg">
    <g filter="url(#filter0_d_1523_65256)">
    <circle cx="55.2578" cy="53.5039" r="50" fill="#0F0F0F"/>
    </g>
    <path d="M36.2979 53.5064C36.2979 48.2297 36.3053 42.9504 36.2979 37.6762C36.2979 36.6094 36.709 35.8494 37.695 35.4097C37.9856 35.2998 38.2965 35.2536 38.6066 35.2744C42.6418 35.2744 46.6771 35.2744 50.7124 35.2744C51.5528 35.2633 52.3868 35.4218 53.1646 35.7403C53.9424 36.0589 54.6479 36.531 55.2391 37.1285C57.5539 39.4086 59.8439 41.7123 62.1327 44.0185C63.4218 45.3162 64.0254 46.912 64.0278 48.7252C64.0378 55.5746 64.0378 62.424 64.0278 69.2733C64.0278 70.9101 63.1585 71.7372 61.5168 71.7385C53.9438 71.7385 46.3704 71.7385 38.7966 71.7385C37.1101 71.7385 36.3053 70.9238 36.3041 69.2125C36.2975 63.9776 36.2954 58.7422 36.2979 53.5064ZM57.6856 45.4777V45.5075C58.6981 45.5075 59.7102 45.5075 60.722 45.5075C60.9169 45.5075 61.1802 45.6615 61.287 45.4504C61.3938 45.2392 61.1318 45.0952 60.9964 44.9536C59.4821 43.4302 57.9633 41.9106 56.4399 40.3947C55.6799 39.6359 54.9224 38.8746 54.1561 38.122C54.0605 38.0276 53.9512 37.8662 53.7935 37.9395C53.6072 38.0276 53.7562 38.194 53.7637 38.3244C53.7798 38.6324 53.8196 38.9454 53.8208 39.2496C53.8208 41.1125 53.8345 42.9753 53.8208 44.8294C53.8208 45.3063 53.9761 45.4926 54.4654 45.4814C55.5359 45.4628 56.6101 45.4777 57.6856 45.4777ZM47.2215 65.8756C47.5295 65.888 47.7182 65.7228 47.8598 65.467C48.0399 65.1329 47.9045 64.846 47.6822 64.6213C47.0513 63.9655 46.4155 63.3136 45.7536 62.6914C45.4245 62.3809 45.3947 62.1636 45.7411 61.8407C46.3919 61.2347 47.0091 60.5988 47.6301 59.958C47.9765 59.6028 48.0982 59.1955 47.6859 58.8204C47.2985 58.469 46.9271 58.6292 46.598 58.9595C45.9771 59.5904 45.3276 60.2014 44.7203 60.8522C44.4161 61.1788 44.2049 61.1502 43.9143 60.8447C43.3158 60.2163 42.6899 59.614 42.0764 58.9993C41.7398 58.6615 41.3722 58.4553 40.9388 58.818C40.5849 59.1135 40.6308 59.5767 41.0518 60.0089C41.6293 60.6001 42.203 61.1974 42.8116 61.755C43.2015 62.1114 43.2462 62.3759 42.8289 62.7485C42.208 63.3011 41.6442 63.9022 41.0655 64.4871C40.6383 64.9218 40.5824 65.3738 40.9251 65.6781C41.3499 66.0507 41.7212 65.8631 42.0615 65.5241C42.6911 64.8957 43.3294 64.2822 43.9441 63.6352C44.2261 63.3409 44.4297 63.3533 44.7067 63.6439C45.3177 64.2884 45.956 64.9081 46.5856 65.534C46.762 65.7203 46.9408 65.8954 47.2215 65.8756ZM44.3105 54.2019C44.6185 54.2242 44.8073 54.0268 44.9985 53.8368C45.862 52.9774 46.7235 52.1164 47.5829 51.2537C48.1082 50.7271 48.6397 50.208 49.1538 49.6715C49.4631 49.3461 49.5264 48.986 49.1787 48.6345C48.831 48.2831 48.4758 48.3638 48.1367 48.6569C48.0126 48.7649 47.902 48.8891 47.7853 49.0059C46.8067 49.9832 45.8082 50.942 44.8582 51.9466C44.457 52.3701 44.1925 52.4322 43.7802 51.964C43.2363 51.3431 42.6203 50.7904 42.0416 50.2068C41.6877 49.8541 41.2704 49.7212 40.9015 50.1074C40.565 50.4601 40.6693 50.8736 41.0046 51.2102C41.9087 52.1209 42.8145 53.0258 43.7219 53.9249C43.8796 54.0876 44.0609 54.2242 44.3105 54.2019ZM54.5113 62.9882C55.8538 62.9882 57.195 62.9944 58.5362 62.9882C59.2528 62.9882 59.6316 62.7125 59.6192 62.2431C59.6067 61.7736 59.2466 61.5464 58.5673 61.529H50.5783C50.412 61.5219 50.2455 61.5327 50.0815 61.5613C49.709 61.6445 49.4308 61.8531 49.4382 62.2741C49.4382 62.6616 49.7015 62.869 50.0517 62.946C50.2565 62.9826 50.4647 62.9972 50.6727 62.9894C51.9518 62.9927 53.2313 62.9923 54.5113 62.9882ZM54.5796 51.3443H50.3684C49.8903 51.3443 49.4879 51.4586 49.4457 52.0249C49.4121 52.4645 49.7934 52.77 50.3821 52.77C53.149 52.7774 55.9155 52.7774 58.6815 52.77C59.269 52.77 59.6552 52.4459 59.6067 52.005C59.5459 51.4511 59.1497 51.3344 58.6679 51.3369C57.3018 51.3493 55.942 51.3456 54.5796 51.3468V51.3443Z" fill="#EDEDED"/>
    <path d="M65.4806 53.4753C65.4806 49.2529 65.4806 45.0305 65.4806 40.8081C65.4806 39.8407 65.5402 39.76 66.5014 39.647C66.8739 39.6023 66.9298 39.4085 66.9286 39.1055C66.922 38.1542 66.922 37.2021 66.9286 36.2492C66.9286 35.4916 67.1422 35.2818 67.8786 35.2669C68.2313 35.2606 68.5828 35.2594 68.9342 35.2669C69.58 35.2818 69.8334 35.5152 69.852 36.1685C69.8781 37.0986 69.8756 38.0313 69.8594 38.9614C69.8507 39.4172 69.9836 39.6619 70.4878 39.6507C71.0479 39.6395 71.3385 39.9785 71.3199 40.5113C71.3012 41.0441 71.5546 41.1323 72.0004 41.1074C72.4748 41.0801 72.9517 41.1074 73.4273 41.1074C73.9328 41.1074 74.2073 41.3719 74.2085 41.8687C74.2176 44.7449 74.2176 47.6211 74.2085 50.4973C74.2085 50.994 73.9452 51.3107 73.4547 51.2846C72.9641 51.2585 72.7542 50.9195 72.7555 50.429C72.7555 48.0495 72.7456 45.6688 72.7667 43.2894C72.7667 42.7579 72.671 42.5281 72.0613 42.5256C71.4292 42.5256 71.3161 42.7554 71.3161 43.3204C71.3311 50.8723 71.3236 58.4254 71.3323 65.9786C71.3412 66.4967 71.2209 67.0089 70.9821 67.4688C70.381 68.6225 69.8222 69.7973 69.236 70.9585C69.0522 71.3224 68.8982 71.7384 68.3667 71.7272C67.8799 71.7185 67.7259 71.3472 67.5483 70.992C66.9572 69.8098 66.371 68.625 65.7625 67.4514C65.5566 67.0464 65.4546 66.5966 65.4657 66.1425C65.4806 61.9184 65.4855 57.696 65.4806 53.4753ZM66.9385 53.8479C66.9385 57.8807 66.9385 61.9139 66.9385 65.9475C66.9385 66.3747 66.9733 66.6715 67.5235 66.6243C67.9954 66.5833 68.4735 66.6169 68.9491 66.6156C69.842 66.6156 69.8433 66.6156 69.8433 65.7376C69.8433 57.8368 69.8433 49.9355 69.8433 42.0339C69.8433 41.8898 69.8358 41.7445 69.8433 41.6004C69.8594 41.2602 69.7054 41.1124 69.3627 41.1198C68.784 41.131 68.2015 41.1571 67.624 41.1111C67.0702 41.0664 66.9298 41.2676 66.9323 41.8091C66.9485 45.8191 66.9385 49.8316 66.9385 53.8454V53.8479Z" fill="#EDEDED"/>
    <defs>
    <filter id="filter0_d_1523_65256" x="0.257812" y="0.503906" width="110" height="110" filterUnits="userSpaceOnUse" color-interpolation-filters="sRGB">
    <feFlood flood-opacity="0" result="BackgroundImageFix"/>
    <feColorMatrix in="SourceAlpha" type="matrix" values="0 0 0 0 0 0 0 0 0 0 0 0 0 0 0 0 0 0 127 0" result="hardAlpha"/>
    <feOffset dy="2"/>
    <feGaussianBlur stdDeviation="2.5"/>
    <feComposite in2="hardAlpha" operator="out"/>
    <feColorMatrix type="matrix" values="0 0 0 0 0.93 0 0 0 0 0.93 0 0 0 0 0.93 0 0 0 1 0"/>
    <feBlend mode="normal" in2="BackgroundImageFix" result="effect1_dropShadow_1523_65256"/>
    <feBlend mode="normal" in="SourceGraphic" in2="effect1_dropShadow_1523_65256" result="shape"/>
    </filter>
    </defs>
    </svg>
    