<svg width="111" height="111" viewBox="0 0 111 111" fill="none" xmlns="http://www.w3.org/2000/svg">
    <g filter="url(#filter0_d_1523_65238)">
    <circle cx="55.7578" cy="53.5039" r="50" fill="#0F0F0F"/>
    </g>
    <path d="M57.22 73.3133C56.6807 73.7815 56.0293 73.9643 55.3019 73.6706C54.5556 73.368 54.2072 72.7743 54.162 71.9853C54.1585 71.927 54.1606 71.868 54.161 71.8093L54.157 35.2049C54.157 34.2386 54.6175 33.5656 55.4548 33.3028C56.4819 32.9789 57.5816 33.6648 57.7483 34.7339C57.7751 34.9075 57.7884 35.0829 57.7882 35.2586C57.7882 40.6476 57.7842 46.0363 57.7764 51.4246C57.7757 51.6472 57.8216 51.7129 58.0577 51.7122C63.472 51.702 68.8854 51.6966 74.2979 51.6959C75.2564 51.6951 75.9401 52.1805 76.1965 53.0369C76.4962 54.0378 75.7961 55.1403 74.7622 55.2889C74.5799 55.3147 74.396 55.3275 74.2119 55.3273C68.8316 55.3271 63.4518 55.3232 58.0722 55.3156C57.828 55.3152 57.7743 55.3732 57.7743 55.6135C57.7857 61.012 57.7909 66.4091 57.7899 71.8047C57.7906 72.3658 57.6392 72.8607 57.22 73.3133Z" fill="#EDEDED"/>
    <path d="M36.147 54.7251C35.7026 54.2352 35.5362 53.5952 35.7986 52.887C36.0439 52.2235 36.5342 51.8257 37.247 51.7301C37.4129 51.7082 37.58 51.6971 37.7473 51.697C41.9782 51.6965 46.2092 51.6952 50.4403 51.6931C50.6597 51.6927 50.7379 51.734 50.7347 51.9754C50.7194 53.0139 50.7208 54.0514 50.7333 55.092C50.7351 55.2844 50.6807 55.3238 50.4961 55.3242C46.2065 55.3185 41.9171 55.3177 37.6282 55.3217C37.0852 55.3213 36.6038 55.1734 36.147 54.7251Z" fill="#EDEDED"/>
    <defs>
    <filter id="filter0_d_1523_65238" x="0.757812" y="0.503906" width="110" height="110" filterUnits="userSpaceOnUse" color-interpolation-filters="sRGB">
    <feFlood flood-opacity="0" result="BackgroundImageFix"/>
    <feColorMatrix in="SourceAlpha" type="matrix" values="0 0 0 0 0 0 0 0 0 0 0 0 0 0 0 0 0 0 127 0" result="hardAlpha"/>
    <feOffset dy="2"/>
    <feGaussianBlur stdDeviation="2.5"/>
    <feComposite in2="hardAlpha" operator="out"/>
    <feColorMatrix type="matrix" values="0 0 0 0 0.93 0 0 0 0 0.93 0 0 0 0 0.93 0 0 0 1 0"/>
    <feBlend mode="normal" in2="BackgroundImageFix" result="effect1_dropShadow_1523_65238"/>
    <feBlend mode="normal" in="SourceGraphic" in2="effect1_dropShadow_1523_65238" result="shape"/>
    </filter>
    </defs>
    </svg>
    