<svg width="51" height="21" viewBox="0 0 51 21" fill="none" xmlns="http://www.w3.org/2000/svg">
    <path d="M50.3671 2.08218C50.3671 2.61065 50.0274 2.97583 49.5611 3.30558C44.8453 6.63886 40.1318 9.97489 35.4207 13.3137C32.0441 15.7031 28.6696 18.0933 25.2972 20.4844C25.0605 20.6528 24.939 20.6699 24.6891 20.4844C16.8385 14.7394 8.98132 8.99705 1.11773 3.25747C0.185885 2.5771 0.118128 1.72838 0.934698 1.08472C1.2758 0.818256 1.74395 0.654 2.24589 0.624677C2.74782 0.595354 3.24669 0.703116 3.64311 0.926497C3.80237 1.01942 3.9526 1.12008 4.09275 1.22776C10.9356 6.32642 17.7753 11.428 24.6117 16.5326C24.932 16.7718 25.0772 16.7459 25.379 16.5288C32.4929 11.3989 39.6135 6.2741 46.7409 1.15434C47.6789 0.479669 48.8527 0.438531 49.752 1.04232C49.9487 1.17579 50.1048 1.33707 50.2106 1.51601C50.3165 1.69496 50.3698 1.88772 50.3671 2.08218Z" fill="#EDEDED"/>
    </svg>
    