<svg width="66" height="66" viewBox="0 0 66 66" fill="none" xmlns="http://www.w3.org/2000/svg">
    <path d="M35.4727 63.9267C34.6315 64.657 33.6157 64.942 32.4812 64.484C31.3173 64.0121 30.7739 63.0861 30.7035 61.8557C30.698 61.7648 30.7013 61.6727 30.7019 61.5812L30.6958 4.49388C30.6958 2.98678 31.4138 1.93713 32.7196 1.52736C34.3216 1.02223 36.0366 2.09184 36.2966 3.75918C36.3384 4.02998 36.3592 4.30361 36.3587 4.57761C36.3587 12.9822 36.3526 21.3862 36.3404 29.7896C36.3393 30.1368 36.4109 30.2393 36.779 30.2382C45.2232 30.2223 53.6658 30.2138 62.107 30.2127C63.6019 30.2116 64.6682 30.9685 65.0679 32.3042C65.5354 33.8651 64.4436 35.5846 62.8311 35.8164C62.5468 35.8566 62.26 35.8766 61.9728 35.8763C53.5819 35.8759 45.1916 35.8698 36.8018 35.858C36.4208 35.8574 36.3371 35.9478 36.3371 36.3226C36.3549 44.742 36.363 53.1591 36.3615 61.574C36.3626 62.449 36.1264 63.2209 35.4727 63.9267Z" fill="#EDEDED"/>
    <path d="M2.60377 34.9436C1.91066 34.1795 1.65116 33.1815 2.06037 32.0769C2.44297 31.0422 3.20761 30.4218 4.31936 30.2726C4.57802 30.2385 4.83863 30.2213 5.09953 30.221C11.6979 30.2203 18.2965 30.2183 24.8953 30.2149C25.2374 30.2144 25.3594 30.2787 25.3544 30.6552C25.3306 32.2749 25.3328 33.8929 25.3522 35.5158C25.355 35.8158 25.2702 35.8774 24.9824 35.8779C18.2923 35.8691 11.6028 35.8678 4.91377 35.874C4.06707 35.8735 3.31629 35.6428 2.60377 34.9436Z" fill="#EDEDED"/>
    </svg>
    