<svg width="71" height="71" viewBox="0 0 71 71" fill="none" xmlns="http://www.w3.org/2000/svg">
    <g filter="url(#filter0_d_1109_48682)">
    <circle cx="35.0117" cy="33.6172" r="30" fill="#0F0F0F"/>
    </g>
    <path d="M35.8922 45.5036C35.5685 45.7845 35.1777 45.8942 34.7413 45.718C34.2935 45.5364 34.0845 45.1802 34.0574 44.7068C34.0552 44.6718 34.0565 44.6364 34.0567 44.6012L34.0544 22.6386C34.0544 22.0588 34.3306 21.655 34.833 21.4973C35.4493 21.303 36.1091 21.7145 36.2092 22.3559C36.2252 22.4601 36.2332 22.5654 36.233 22.6708C36.233 25.9042 36.2307 29.1374 36.226 32.3704C36.2256 32.5039 36.2531 32.5434 36.3947 32.543C39.6434 32.5368 42.8914 32.5336 46.1389 32.5331C46.714 32.5327 47.1242 32.8239 47.278 33.3378C47.4579 33.9383 47.0378 34.5998 46.4175 34.689C46.3081 34.7044 46.1978 34.7121 46.0873 34.712C42.8591 34.7119 39.6312 34.7095 36.4035 34.705C36.2569 34.7048 36.2247 34.7395 36.2247 34.8837C36.2316 38.1228 36.2347 41.3611 36.2341 44.5985C36.2345 44.9351 36.1437 45.232 35.8922 45.5036Z" fill="#EDEDED"/>
    <path d="M23.2483 34.3499C22.9817 34.0559 22.8819 33.672 23.0393 33.247C23.1865 32.849 23.4807 32.6103 23.9084 32.5529C24.0079 32.5398 24.1081 32.5331 24.2085 32.533C26.7471 32.5328 29.2857 32.532 31.8243 32.5307C31.956 32.5305 32.0029 32.5552 32.001 32.7001C31.9918 33.3232 31.9927 33.9457 32.0001 34.5701C32.0012 34.6855 31.9686 34.7091 31.8578 34.7094C29.284 34.7059 26.7104 34.7054 24.137 34.7079C23.8113 34.7076 23.5225 34.6189 23.2483 34.3499Z" fill="#EDEDED"/>
    <defs>
    <filter id="filter0_d_1109_48682" x="0.0117188" y="0.617188" width="70" height="70" filterUnits="userSpaceOnUse" color-interpolation-filters="sRGB">
    <feFlood flood-opacity="0" result="BackgroundImageFix"/>
    <feColorMatrix in="SourceAlpha" type="matrix" values="0 0 0 0 0 0 0 0 0 0 0 0 0 0 0 0 0 0 127 0" result="hardAlpha"/>
    <feOffset dy="2"/>
    <feGaussianBlur stdDeviation="2.5"/>
    <feComposite in2="hardAlpha" operator="out"/>
    <feColorMatrix type="matrix" values="0 0 0 0 0.93 0 0 0 0 0.93 0 0 0 0 0.93 0 0 0 1 0"/>
    <feBlend mode="normal" in2="BackgroundImageFix" result="effect1_dropShadow_1109_48682"/>
    <feBlend mode="normal" in="SourceGraphic" in2="effect1_dropShadow_1109_48682" result="shape"/>
    </filter>
    </defs>
    </svg>
    