<svg width="26" height="26" viewBox="0 0 26 26" fill="none" xmlns="http://www.w3.org/2000/svg">
    <path d="M13.8023 24.8903C13.4787 25.1713 13.0879 25.2809 12.6514 25.1047C12.2037 24.9232 11.9946 24.5669 11.9675 24.0935C11.9654 24.0586 11.9667 24.0232 11.9669 23.988L11.9645 2.02531C11.9645 1.4455 12.2408 1.04168 12.7432 0.884035C13.3595 0.689698 14.0193 1.1012 14.1193 1.74266C14.1354 1.84684 14.1434 1.95211 14.1432 2.05752C14.1432 5.29093 14.1409 8.52412 14.1362 11.7571C14.1357 11.8906 14.1633 11.9301 14.3049 11.9297C17.5535 11.9236 20.8016 11.9203 24.0491 11.9199C24.6242 11.9194 25.0344 12.2106 25.1882 12.7245C25.368 13.325 24.948 13.9865 24.3277 14.0757C24.2183 14.0912 24.1079 14.0989 23.9974 14.0987C20.7693 14.0986 17.5414 14.0962 14.3136 14.0917C14.1671 14.0915 14.1349 14.1263 14.1349 14.2705C14.1417 17.5096 14.1448 20.7478 14.1443 23.9852C14.1447 24.3218 14.0538 24.6187 13.8023 24.8903Z" fill="#EDEDED"/>
    <path d="M1.1585 13.7366C0.891847 13.4427 0.792012 13.0587 0.949444 12.6337C1.09664 12.2357 1.39081 11.997 1.81852 11.9396C1.91803 11.9265 2.01829 11.9198 2.11867 11.9198C4.65721 11.9195 7.19582 11.9187 9.7345 11.9174C9.86612 11.9172 9.91305 11.9419 9.91113 12.0868C9.90196 12.7099 9.90281 13.3324 9.91028 13.9568C9.91135 14.0722 9.87871 14.0959 9.76799 14.0961C7.19418 14.0927 4.62059 14.0922 2.0472 14.0946C1.72146 14.0944 1.43262 14.0056 1.1585 13.7366Z" fill="#EDEDED"/>
    </svg>
    