<svg width="36" height="36" viewBox="0 0 36 36" fill="none" xmlns="http://www.w3.org/2000/svg">
    <path d="M14.3107 35.5322C11.2281 35.5322 8.14603 35.5322 5.06463 35.5322C2.33921 35.5322 0.466747 33.6636 0.46481 30.9498C0.459647 24.7689 0.459647 18.5887 0.46481 12.4092C0.46481 9.74957 2.34792 7.86453 4.9988 7.85872C9.90424 7.85291 14.8097 7.85485 19.7151 7.86453C19.8892 7.8728 20.0629 7.84236 20.2238 7.77539C20.3847 7.70842 20.5288 7.6066 20.6455 7.47726C22.345 5.73454 24.0555 4.00149 25.7769 2.27813C28.7783 -0.723224 33.7644 0.352423 35.1499 4.35391C35.9099 6.54877 35.3251 8.51708 33.6976 10.163C31.9975 11.8844 30.2851 13.5949 28.5604 15.2943C28.4153 15.4282 28.3016 15.5925 28.2273 15.7754C28.153 15.9583 28.1199 16.1554 28.1305 16.3526C28.1451 21.1131 28.0608 25.8746 28.1693 30.6322C28.2341 33.47 26.1564 35.6668 23.219 35.5545C20.2515 35.4441 17.2792 35.5322 14.3107 35.5322ZM17.1959 10.7778H5.14306C3.91734 10.7778 3.38387 11.3142 3.38387 12.5486C3.38387 18.632 3.38387 24.7151 3.38387 30.7978C3.38387 32.0903 3.90573 32.6112 5.20212 32.6112C11.2532 32.6112 17.3044 32.5899 23.3545 32.6267C24.8184 32.6354 25.2783 31.7553 25.2783 30.7029C25.2783 26.9593 25.2783 23.2157 25.2783 19.472C25.2783 19.3016 25.3577 19.0625 25.1815 18.9783C24.9878 18.8814 24.891 19.1264 24.771 19.2426C23.3042 20.7036 21.8519 22.1655 20.3851 23.6217C17.4018 26.5907 13.8063 28.1314 9.59862 28.2437C8.35645 28.2786 7.78038 27.6996 7.80458 26.4487C7.87526 22.8752 9.01287 19.6715 11.3123 16.9354C12.994 14.9322 14.9681 13.206 16.7854 11.3296C16.9248 11.1844 17.1165 11.076 17.1959 10.7778ZM32.3915 6.51779C32.3838 5.08779 31.768 4.14381 30.7456 3.73815C29.6458 3.3015 28.6447 3.50385 27.8081 4.33842C23.2532 8.8837 18.705 13.4364 14.1636 17.9965C12.3444 19.8361 11.2726 22.0842 10.8389 24.6324C10.7517 25.1436 10.8243 25.2017 11.3317 25.1107C12.9071 24.833 14.4173 24.2651 15.7853 23.4358C17.3508 22.486 18.5611 21.1402 19.8371 19.8661C23.7273 15.9824 27.6152 12.0971 31.5008 8.21017C32.0565 7.65153 32.4051 7.00575 32.3915 6.51973V6.51779Z" fill="#EDEDED"/>
    </svg>
    