<svg width="58" height="58" viewBox="0 0 58 58" fill="none" xmlns="http://www.w3.org/2000/svg">
    <path d="M23.1947 57.0306C18.1851 57.0306 13.1765 57.0306 8.16893 57.0306C3.73986 57.0306 0.69694 53.994 0.693794 49.5838C0.685402 39.5394 0.685402 29.496 0.693794 19.4536C0.693794 15.1315 3.75402 12.0681 8.06194 12.0587C16.0337 12.0492 24.0055 12.0524 31.9773 12.0681C32.2602 12.0816 32.5426 12.0321 32.804 11.9233C33.0655 11.8144 33.2996 11.649 33.4894 11.4388C36.2512 8.6067 39.0308 5.79034 41.8283 2.98972C46.7058 -1.88776 54.8087 -0.139733 57.0602 6.36305C58.2953 9.92991 57.345 13.1286 54.7001 15.8033C51.9373 18.6008 49.1545 21.3805 46.3518 24.1423C46.116 24.3599 45.9311 24.6268 45.8104 24.9241C45.6896 25.2213 45.6359 25.5416 45.6532 25.862C45.6768 33.5983 45.5399 41.3362 45.7161 49.0678C45.8215 53.6793 42.4451 57.2494 37.6714 57.0668C32.849 56.8875 28.0187 57.0306 23.1947 57.0306ZM27.8834 16.8024H8.29638C6.30447 16.8024 5.43754 17.6741 5.43754 19.6802C5.43754 29.5662 5.43754 39.4518 5.43754 49.3368C5.43754 51.4373 6.2856 52.2838 8.39236 52.2838C18.226 52.2838 28.0596 52.2491 37.8917 52.3089C40.2706 52.3231 41.018 50.8929 41.018 49.1826C41.018 43.0989 41.018 37.0152 41.018 30.9314C41.018 30.6545 41.147 30.2659 40.8607 30.129C40.546 29.9716 40.3886 30.3697 40.1936 30.5585C37.8099 32.9327 35.4498 35.3086 33.0661 37.6749C28.218 42.5 22.375 45.0037 15.5371 45.1862C13.5184 45.2429 12.5823 44.302 12.6216 42.2692C12.7365 36.4618 14.5852 31.2555 18.322 26.8091C21.0549 23.5538 24.2631 20.7485 27.2163 17.6993C27.4429 17.4633 27.7544 17.287 27.8834 16.8024ZM52.5776 9.87956C52.565 7.55568 51.5644 6.02163 49.9029 5.36238C48.1155 4.65278 46.4887 4.98162 45.1292 6.33788C37.727 13.7244 30.3358 21.1229 22.9556 28.5336C19.9992 31.523 18.2575 35.1764 17.5526 39.3175C17.411 40.1483 17.529 40.2427 18.3534 40.0948C20.9137 39.6435 23.3679 38.7205 25.591 37.3728C28.1352 35.8293 30.1019 33.6423 32.1756 31.5718C38.4974 25.2604 44.8156 18.9464 51.1301 12.6298C52.0332 11.722 52.5997 10.6725 52.5776 9.88271V9.87956Z" fill="#EDEDED"/>
    </svg>
    