<svg width="41" height="41" viewBox="0 0 41 41" fill="none" xmlns="http://www.w3.org/2000/svg">
    <path d="M15.0141 30.8881C6.78963 30.9265 0.026742 24.1696 0.0156388 15.8987C0.00453551 7.6278 6.7099 0.912339 14.9859 0.87903C23.2164 0.84572 29.945 7.56521 29.9934 15.8664C30.0419 24.0727 23.284 30.8487 15.0141 30.8881ZM15.005 27.9892C18.2338 27.9892 21.3304 26.7065 23.6135 24.4234C25.8966 22.1403 27.1793 19.0437 27.1793 15.8149C27.1793 12.5861 25.8966 9.48957 23.6135 7.20646C21.3304 4.92335 18.2338 3.64071 15.005 3.64071C8.31179 3.64071 2.84596 9.09141 2.82072 15.8059C2.81526 17.4074 3.12669 18.9942 3.73708 20.4749C4.34748 21.9556 5.24477 23.3009 6.37729 24.4333C7.50981 25.5657 8.85518 26.4629 10.3359 27.0732C11.8166 27.6835 13.4035 27.9948 15.005 27.9892Z" fill="#EDEDED"/>
    <path d="M40.0158 39.5018C40.0154 39.7449 39.9507 39.9836 39.8282 40.1936C39.7057 40.4036 39.5298 40.5774 39.3184 40.6974C39.107 40.8174 38.8675 40.8792 38.6244 40.8767C38.3813 40.8741 38.1433 40.8072 37.9344 40.6828C37.7337 40.5604 37.5495 40.4129 37.3863 40.2437C33.8871 36.7533 30.3922 33.2605 26.9018 29.7653C26.4728 29.3373 26.2033 28.87 26.3628 28.2371C26.4175 28.0166 26.5259 27.8131 26.6784 27.6447C26.8308 27.4763 27.0225 27.3482 27.2364 27.2717C27.4503 27.1953 27.6797 27.173 27.9044 27.2067C28.129 27.2404 28.3418 27.3291 28.5239 27.4649C28.656 27.5689 28.7801 27.6826 28.8953 27.8051C32.4141 31.3218 35.9324 34.8388 39.4505 38.3562C39.7836 38.6883 40.041 39.0446 40.0158 39.5018Z" fill="#EDEDED"/>
    </svg>
    