<svg width="40" height="42" viewBox="0 0 40 42" fill="none" xmlns="http://www.w3.org/2000/svg">
    <path fill-rule="evenodd" clip-rule="evenodd" d="M31.6654 19.2923C32.678 19.2923 33.6667 19.6075 34.5007 20.1961C35.3348 20.7847 35.9748 21.619 36.3361 22.5886C36.6974 23.5582 36.763 24.6174 36.5242 25.626C36.2854 26.6346 35.7534 27.5452 34.9987 28.2372V36.7019C34.9987 36.8476 34.9623 36.9908 34.8931 37.118C34.8239 37.2453 34.7241 37.3522 34.6031 37.4287C34.4822 37.5052 34.3442 37.5488 34.2023 37.5552C34.0603 37.5617 33.9191 37.5308 33.792 37.4656L31.6654 36.3757L29.5387 37.4656C29.4117 37.5308 29.2704 37.5617 29.1285 37.5552C28.9865 37.5488 28.8485 37.5052 28.7276 37.4287C28.6067 37.3522 28.5068 37.2453 28.4376 37.118C28.3684 36.9908 28.332 36.8476 28.332 36.7019V28.2372C27.5773 27.5452 27.0453 26.6346 26.8065 25.626C26.5677 24.6174 26.6333 23.5582 26.9946 22.5886C27.356 21.619 27.996 20.7847 28.83 20.1961C29.664 19.6075 30.6528 19.2923 31.6654 19.2923ZM33.332 7.33398C34.2161 7.33398 35.0639 7.69395 35.6891 8.3347C36.3142 8.97545 36.6654 9.84449 36.6654 10.7507V17.584C35.0606 16.3503 33.0755 15.7514 31.0746 15.8971C29.0737 16.0429 27.1912 16.9236 25.7728 18.3774C24.3544 19.8313 23.4952 21.7609 23.353 23.8118C23.2108 25.8627 23.7951 27.8974 24.9987 29.5423V34.6673H6.66536C5.78131 34.6673 4.93346 34.3073 4.30834 33.6666C3.68322 33.0259 3.33203 32.1568 3.33203 31.2507V10.7507C3.33203 9.84449 3.68322 8.97545 4.30834 8.3347C4.93346 7.69395 5.78131 7.33398 6.66536 7.33398H33.332ZM13.332 22.709H9.9987C9.55667 22.709 9.13275 22.889 8.82019 23.2093C8.50763 23.5297 8.33203 23.9642 8.33203 24.4173C8.33203 24.8704 8.50763 25.3049 8.82019 25.6253C9.13275 25.9457 9.55667 26.1257 9.9987 26.1257H13.332C13.7741 26.1257 14.198 25.9457 14.5105 25.6253C14.8231 25.3049 14.9987 24.8704 14.9987 24.4173C14.9987 23.9642 14.8231 23.5297 14.5105 23.2093C14.198 22.889 13.7741 22.709 13.332 22.709ZM19.9987 15.8757H9.9987C9.5739 15.8761 9.16531 16.0429 8.85642 16.3418C8.54752 16.6407 8.36164 17.0492 8.33675 17.4839C8.31185 17.9185 8.44982 18.3465 8.72247 18.6804C8.99512 19.0143 9.38187 19.2289 9.8037 19.2804L9.9987 19.2923H19.9987C20.4235 19.2918 20.8321 19.1251 21.141 18.8262C21.4499 18.5273 21.6358 18.1188 21.6607 17.6841C21.6855 17.2494 21.5476 16.8214 21.2749 16.4875C21.0023 16.1536 20.6155 15.939 20.1937 15.8876L19.9987 15.8757Z" fill="#EDEDED"/>
    </svg>
    