<svg width="28" height="35" viewBox="0 0 28 35" fill="none" xmlns="http://www.w3.org/2000/svg">
    <path d="M14.875 9.40625V0.875H8.96875C7.98248 0.875 7.0366 1.2668 6.3392 1.9642C5.6418 2.6616 5.25 3.60748 5.25 4.59375V26.0312C5.25 27.0175 5.6418 27.9634 6.3392 28.6608C7.0366 29.3582 7.98248 29.75 8.96875 29.75H23.4062C24.3925 29.75 25.3384 29.3582 26.0358 28.6608C26.7332 27.9634 27.125 27.0175 27.125 26.0312V13.125H18.5938C17.6075 13.125 16.6616 12.7332 15.9642 12.0358C15.2668 11.3384 14.875 10.3925 14.875 9.40625ZM17.0625 9.40625V1.3125L26.6875 10.9375H18.5938C18.1876 10.9375 17.7982 10.7762 17.511 10.489C17.2238 10.2018 17.0625 9.81236 17.0625 9.40625ZM0.875 8.4875C0.874786 7.79006 1.08289 7.10845 1.47264 6.53007C1.86238 5.95169 2.416 5.5029 3.0625 5.24125V26.0312C3.0625 27.5977 3.68476 29.1 4.7924 30.2076C5.90004 31.3152 7.40232 31.9375 8.96875 31.9375H22.7587C22.4971 32.584 22.0483 33.1376 21.4699 33.5274C20.8916 33.9171 20.2099 34.1252 19.5125 34.125H8.96875C6.82215 34.125 4.76348 33.2723 3.2456 31.7544C1.72773 30.2365 0.875 28.1778 0.875 26.0312V8.4875Z" fill="#EDEDED"/>
    </svg>
    