<svg width="35" height="32" viewBox="0 0 35 32" fill="none" xmlns="http://www.w3.org/2000/svg">
    <path d="M23.4989 11.6158C23.4989 15.0286 23.4989 18.4423 23.4989 21.8568C23.5039 22.0655 23.492 22.2743 23.4631 22.4815C23.3339 23.2343 22.4801 23.5763 21.8025 23.1013C20.5459 22.2214 19.3116 21.3179 18.0996 20.3907C17.0629 19.5953 16.9215 19.6004 15.8726 20.4133C14.703 21.319 13.5042 22.1922 12.279 23.0469C11.493 23.5997 10.6194 23.2426 10.5166 22.3619C10.5022 22.195 10.4971 22.0275 10.5016 21.8601C10.5016 14.9904 10.5016 8.1213 10.5016 1.25271C10.5016 1.11304 10.5016 0.973369 10.5119 0.834536C10.5242 0.620433 10.6448 0.5 10.8974 0.5C11.0227 0.5 11.1481 0.5 11.2744 0.5H22.7204C23.4876 0.5 23.497 0.507528 23.497 1.20922L23.4989 11.6158Z" fill="#EDEDED"/>
    <path d="M8.08824 2H5C3.34314 2 2 3.34315 2 5V27.5C2 29.1568 3.34315 30.5 5 30.5H30C31.6569 30.5 33 29.1568 33 27.5V5C33 3.34314 31.6569 2 30 2H25.9706" stroke="#EDEDED" stroke-width="3"/>
    </svg>
    