<svg width="22" height="27" viewBox="0 0 22 27" fill="none" xmlns="http://www.w3.org/2000/svg">
    <path d="M21.625 17.2191C21.625 16.3737 21.2892 15.563 20.6914 14.9652C20.0936 14.3674 19.2829 14.0316 18.4375 14.0316H3.5625C2.71712 14.0316 1.90637 14.3674 1.3086 14.9652C0.710825 15.563 0.375 16.3737 0.375 17.2191V18.2816C0.375 22.47 4.3275 26.7816 11 26.7816C17.6725 26.7816 21.625 22.47 21.625 18.2816V17.2191ZM16.8438 6.06287C16.8438 4.80306 16.4368 3.57695 15.6833 2.56731C14.9298 1.55768 13.8702 0.818582 12.6624 0.460195C11.4546 0.101809 10.1634 0.143324 8.98115 0.578554C7.79891 1.01378 6.78897 1.81942 6.10188 2.87537H2.5C2.21821 2.87537 1.94796 2.98731 1.7487 3.18657C1.54944 3.38583 1.4375 3.65608 1.4375 3.93787V8.18787C1.4375 8.22187 1.4375 8.25375 1.44175 8.28562H1.4375V10.3129C1.4375 11.1582 1.77333 11.969 2.3711 12.5668C2.96887 13.1645 3.77962 13.5004 4.625 13.5004H5.44738C5.66637 13.5002 5.8818 13.4449 6.07374 13.3394C6.26568 13.234 6.42794 13.0819 6.54551 12.8971C6.66309 12.7123 6.73218 12.5009 6.74642 12.2824C6.76065 12.0639 6.71955 11.8453 6.62693 11.6468C6.53431 11.4484 6.39315 11.2765 6.21651 11.147C6.03986 11.0176 5.83344 10.9348 5.61631 10.9062C5.39918 10.8777 5.17836 10.9044 4.97426 10.9838C4.77017 11.0632 4.58938 11.1927 4.44862 11.3605C4.20092 11.3188 3.976 11.1907 3.81378 10.9989C3.65156 10.8071 3.56253 10.5641 3.5625 10.3129V9.25037H4.09375C4.72487 9.25037 5.3135 9.0655 5.80863 8.74887C6.41008 9.9126 7.3851 10.8405 8.57718 11.3836C9.76925 11.9267 11.1092 12.0535 12.382 11.7437C13.6549 11.4339 14.7866 10.7055 15.5958 9.67525C16.4049 8.64503 16.8444 7.37284 16.8438 6.06287ZM5.15625 6.06287C5.15625 6.34467 5.04431 6.61492 4.84505 6.81417C4.64579 7.01343 4.37554 7.12537 4.09375 7.12537H3.5625V5.00037H5.15625V6.06287Z" fill="#EDEDED"/>
    </svg>
    