<svg width="34" height="32" viewBox="0 0 34 32" fill="none" xmlns="http://www.w3.org/2000/svg">
    <path d="M5.88462 0.5C4.32392 0.5 2.82714 1.11998 1.72356 2.22356C0.619984 3.32714 0 4.82392 0 6.38462V20.7692C0 22.3299 0.619984 23.8267 1.72356 24.9303C2.82714 26.0339 4.32392 26.6538 5.88462 26.6538H22.8846C24.4453 26.6538 25.9421 26.0339 27.0457 24.9303C28.1492 23.8267 28.7692 22.3299 28.7692 20.7692V6.38462C28.7692 4.82392 28.1492 3.32714 27.0457 2.22356C25.9421 1.11998 24.4453 0.5 22.8846 0.5H5.88462ZM10.4615 18.7972V8.35662C10.4613 8.11966 10.5255 7.8871 10.6473 7.6838C10.769 7.4805 10.9437 7.31409 11.1526 7.20236C11.3616 7.09063 11.597 7.03777 11.8336 7.04944C12.0703 7.06111 12.2994 7.13687 12.4963 7.26861L20.3346 12.4889C20.5143 12.6082 20.6616 12.7701 20.7635 12.9602C20.8655 13.1503 20.9188 13.3626 20.9188 13.5782C20.9188 13.7939 20.8655 14.0062 20.7635 14.1963C20.6616 14.3863 20.5143 14.5482 20.3346 14.6675L12.4937 19.8878C12.2966 20.019 12.0676 20.0942 11.8311 20.1054C11.5946 20.1166 11.3595 20.0634 11.1508 19.9514C10.9422 19.8395 10.7679 19.673 10.6465 19.4697C10.5251 19.2664 10.4612 19.034 10.4615 18.7972ZM10.4615 31.8846C9.44633 31.8854 8.44493 31.6495 7.5369 31.1954C6.62887 30.7414 5.83924 30.0819 5.23077 29.2692H24.1923C26.0998 29.2692 27.9292 28.5115 29.278 27.1627C30.6269 25.8138 31.3846 23.9844 31.3846 22.0769V5.73077C32.9722 6.92338 34 8.82215 34 10.9615V22.0769C34 24.6781 32.9667 27.1727 31.1274 29.012C29.2881 30.8513 26.7935 31.8846 24.1923 31.8846H10.4615Z" fill="#EDEDED"/>
    </svg>
    