<svg width="26" height="26" viewBox="0 0 26 26" fill="none" xmlns="http://www.w3.org/2000/svg">
<path d="M0.493652 12.4464C0.499134 11.0348 0.480717 9.55843 0.537502 8.08333C0.562716 7.42273 0.584203 6.76126 0.684838 6.10615C0.902332 4.69024 1.39608 3.39953 2.37897 2.32477C3.22066 1.40393 4.24696 0.79376 5.43989 0.448225C6.25265 0.212752 7.08425 0.109925 7.92661 0.0796687C11.0643 -0.0328056 14.2028 -0.00803041 17.3409 0.0507281C18.0274 0.0634445 18.7138 0.0983049 19.3948 0.200036C21.1194 0.457434 22.6134 1.15026 23.7605 2.5039C24.3511 3.20089 24.7537 3.9961 25.0199 4.8652C25.2797 5.71369 25.3834 6.5863 25.4178 7.46855C25.5274 10.292 25.4937 13.1164 25.4673 15.9407C25.4601 16.7408 25.4369 17.5413 25.3645 18.3382C25.2507 19.5914 24.9376 20.7846 24.2463 21.8532C23.4115 23.1441 22.2534 24.0174 20.7949 24.5002C19.8699 24.8071 18.9153 24.9198 17.9482 24.954C14.9274 25.0608 11.906 25.0356 8.8845 24.985C8.0632 24.9711 7.24014 24.9429 6.42739 24.8032C5.19061 24.5905 4.04547 24.1652 3.06587 23.3562C2.04527 22.5127 1.35091 21.4551 0.968106 20.188C0.755435 19.4845 0.637479 18.7658 0.590779 18.0346C0.473262 16.1935 0.498695 14.3514 0.493652 12.4464ZM13.0728 2.26229C11.3456 2.26623 9.69397 2.25066 8.04346 2.32916C7.30767 2.36402 6.58064 2.44514 5.87488 2.67272C4.96237 2.96739 4.23366 3.50762 3.68876 4.2934C3.27219 4.89392 3.06324 5.57578 2.93827 6.28746C2.81461 6.99191 2.79422 7.70534 2.78282 8.41724C2.73415 11.4679 2.70324 14.5187 2.81922 17.5689C2.84684 18.2937 2.94353 19.0089 3.1801 19.7006C3.53791 20.748 4.20114 21.5392 5.17526 22.0589C5.92355 22.4579 6.74245 22.6116 7.57954 22.6682C8.80864 22.7515 10.0402 22.7638 11.2717 22.7622C13.3984 22.7594 15.5251 22.7927 17.6505 22.7083C18.3194 22.6818 18.9859 22.6408 19.6402 22.4855C20.4487 22.2935 21.1712 21.9398 21.7695 21.3518C22.5206 20.6131 22.8877 19.6925 23.0528 18.6724C23.1624 17.9988 23.1856 17.3189 23.1975 16.6404C23.2483 13.6994 23.2696 10.7582 23.1755 7.81716C23.1536 7.16292 23.106 6.51175 22.9563 5.87111C22.7335 4.9108 22.2845 4.08687 21.5213 3.44491C20.8484 2.87837 20.0545 2.60212 19.2041 2.45303C18.5069 2.33113 17.8009 2.32148 17.0962 2.29758C15.7303 2.25132 14.3637 2.26689 13.0728 2.26229Z" fill="#EDEDED"/>
<path d="M10.6146 16.8048C10.6146 15.5407 10.6146 14.2763 10.6146 13.0118C10.6146 12.9022 10.6071 12.7926 10.6038 12.683C10.6019 12.6172 10.567 12.5815 10.5036 12.5749C10.4403 12.5683 10.3798 12.5628 10.3179 12.5626C9.98556 12.5613 9.65296 12.5626 9.32058 12.5615C9.24757 12.5615 9.17434 12.5615 9.10133 12.5582C8.91409 12.5494 8.90204 12.5407 8.89546 12.3567C8.88888 12.1728 8.88998 11.984 8.88998 11.7979C8.88998 11.1732 8.88866 10.5481 8.89129 9.92373C8.89239 9.62709 8.91059 9.60955 9.20701 9.60648C9.55408 9.60275 9.90115 9.6102 10.2482 9.60297C10.6578 9.59464 10.6067 9.61437 10.6126 9.23485C10.6205 8.72729 10.6126 8.21929 10.6299 7.71173C10.6448 7.28047 10.6637 6.84812 10.7567 6.42628C11.0031 5.30812 11.6948 4.61069 12.7904 4.29563C13.2881 4.15246 13.7989 4.12856 14.3085 4.10598C15.0166 4.07463 15.7259 4.09129 16.4352 4.09173C16.7084 4.09173 16.7242 4.10225 16.7257 4.37039C16.7305 5.19608 16.7305 6.02192 16.7257 6.8479C16.7244 7.10376 16.7134 7.11099 16.4584 7.11341C15.9579 7.11889 15.4573 7.11735 14.9568 7.12174C14.8436 7.12364 14.7306 7.13147 14.6183 7.1452C14.3639 7.1748 14.1927 7.34252 14.1541 7.59575C14.1237 7.79527 14.1302 7.99676 14.1256 8.19737C14.1166 8.59202 14.109 8.98666 14.1074 9.38131C14.1074 9.57995 14.1294 9.59902 14.3286 9.60297C14.9206 9.61415 15.5126 9.59245 16.1046 9.61656C16.2506 9.6227 16.3959 9.63586 16.5411 9.65449C16.6373 9.66699 16.6794 9.71435 16.6869 9.81016C16.7004 10.0182 16.6947 10.227 16.6698 10.4339C16.602 11.0621 16.5735 11.6942 16.4847 12.3195C16.4606 12.4892 16.4527 12.5025 16.2784 12.5087C15.6834 12.5306 15.0879 12.5444 14.4929 12.5622C14.4161 12.5644 14.3394 12.5714 14.2629 12.5722C14.1627 12.5736 14.118 12.6273 14.1144 12.722C14.1109 12.8167 14.1061 12.9116 14.1061 13.007C14.1061 15.5424 14.1061 18.0779 14.1061 20.6134C14.1061 20.7083 14.1061 20.8035 14.1008 20.8984C14.0916 21.0475 14.0272 21.1142 13.8779 21.1317C13.8269 21.1364 13.7756 21.1382 13.7244 21.137H10.9386C10.8985 21.138 10.8583 21.137 10.8183 21.1339C10.699 21.1214 10.6405 21.0668 10.6291 20.9469C10.619 20.8372 10.6148 20.7276 10.6148 20.618C10.6142 19.3472 10.6141 18.0762 10.6146 16.8048Z" fill="#EDEDED"/>
</svg>
