<svg width="26" height="25" viewBox="0 0 26 25" fill="none" xmlns="http://www.w3.org/2000/svg">
<path d="M12.9848 0.0200011C14.5843 0.0200011 16.1867 -0.0346071 17.7831 0.0366403C19.1484 0.0980752 20.5161 0.245689 21.7636 0.913794C23.349 1.76279 24.381 3.05804 24.9501 4.74665C25.2155 5.53378 25.2953 6.35462 25.4194 7.16863C25.4902 7.64347 25.4787 8.11832 25.4791 8.59358C25.4791 11.4166 25.5218 14.24 25.4608 17.0614C25.4335 18.3528 25.3175 19.657 24.7654 20.872C23.9527 22.6596 22.5934 23.8213 20.7508 24.4451C19.9504 24.716 19.1138 24.7898 18.284 24.9063C17.6748 24.9916 17.0643 24.9715 16.4542 24.972C13.7378 24.9741 11.0206 25.0185 8.30553 24.954C6.91983 24.9212 5.52773 24.7603 4.25637 24.0888C2.79943 23.3209 1.77423 22.1758 1.15647 20.6536C0.815164 19.8072 0.702534 18.9134 0.576251 18.0204C0.523265 17.5974 0.500454 17.1711 0.507991 16.7448C0.507991 13.7298 0.465326 10.7144 0.527187 7.70022C0.557905 6.20359 0.778473 4.7138 1.59377 3.3857C2.3617 2.13652 3.42316 1.24785 4.77217 0.691518C5.6489 0.330162 6.57469 0.179561 7.50858 0.090395C9.16775 -0.070445 10.8325 0.057118 12.4946 0.0200011C12.6576 0.0170146 12.821 0.0204277 12.9848 0.0200011ZM13.0655 22.5888C14.6013 22.5888 16.1372 22.5952 17.6731 22.5858C18.3557 22.5815 19.034 22.5564 19.706 22.4015C21.3174 22.0303 22.6711 20.6096 22.9659 18.9885C23.0879 18.3178 23.0836 17.6441 23.0879 16.9705C23.1007 14.944 23.104 12.9176 23.0977 10.8914C23.093 9.45623 23.1425 8.01976 23.0307 6.58628C22.9857 5.9394 22.8104 5.30829 22.5153 4.73086C21.7858 3.32042 20.5528 2.67493 19.0387 2.47825C18.0148 2.34514 16.9802 2.37885 15.9516 2.36135C13.8121 2.32424 11.6717 2.34386 9.53167 2.33021C8.55596 2.32381 7.5858 2.36818 6.62332 2.53926C5.40273 2.75599 4.38692 3.30378 3.68298 4.35372C3.12836 5.17925 2.93297 6.11102 2.91505 7.08416C2.88902 8.31371 2.87238 9.54369 2.87238 10.7732C2.87238 12.9341 2.8856 15.0954 2.89926 17.258C2.90352 17.9257 2.92613 18.593 3.09167 19.2461C3.43084 20.5832 4.20432 21.561 5.47526 22.1229C6.29695 22.486 7.17026 22.5845 8.05638 22.5884C9.72408 22.5935 11.3948 22.5888 13.0655 22.5892V22.5888Z" fill="#EDEDED"/>
<path d="M12.9849 6.09095C16.5605 6.08156 19.4053 8.92207 19.4032 12.499C19.4006 16.0562 16.581 18.8882 13.014 18.8984C9.41574 18.9082 6.66525 16.1048 6.5812 12.6794C6.48905 8.93914 9.43793 6.06876 12.9849 6.09095ZM12.9918 8.38366C10.7259 8.38366 8.89056 10.1904 8.87179 12.4064C8.85174 14.7895 10.6884 16.6104 12.9862 16.6061C15.2943 16.6023 17.1245 14.7678 17.1113 12.496C17.0964 10.1896 15.2879 8.38409 12.9918 8.38366Z" fill="#EDEDED"/>
<path d="M21.1316 5.83766C21.129 6.70457 20.4869 7.37097 19.6435 7.36969C18.7574 7.36969 18.0939 6.58 18.1204 5.8287C18.1503 4.99762 18.803 4.34104 19.6435 4.34573C20.5168 4.35085 21.1337 4.96946 21.1316 5.83766Z" fill="#EDEDED"/>
</svg>
