<svg width="41" height="10" viewBox="0 0 41 10" fill="none" xmlns="http://www.w3.org/2000/svg">
<path d="M34.6957 9.86402C33.2739 9.86402 31.852 9.8686 30.4298 9.86141C30.0108 9.85945 29.7761 9.60972 29.7761 9.20571C29.7674 6.355 29.7674 3.50439 29.7761 0.653898C29.7761 0.245641 30.0274 0.00866197 30.4223 0.0073545C33.2769 -0.0024515 36.1316 -0.0024515 38.9862 0.0073545C39.3752 0.0073545 39.6269 0.252504 39.6282 0.646379C39.6373 3.50254 39.6368 6.35859 39.6265 9.21454C39.6265 9.60057 39.3899 9.8588 38.9787 9.86108C37.5506 9.86893 36.1232 9.86402 34.6957 9.86402ZM33.6001 3.67219V8.43431H35.1416C35.1416 7.59001 35.1282 6.75977 35.1465 5.92985C35.1589 5.36274 35.3518 4.87963 36.0248 4.88977C36.69 4.89957 36.6723 5.44544 36.6841 5.90076C36.7056 6.74147 36.6903 7.58347 36.6903 8.43267H38.22C38.22 7.44325 38.2243 6.47147 38.22 5.49676C38.2154 4.70933 38.1288 3.9278 37.2535 3.62152C36.4118 3.32734 35.643 3.50254 35.0308 4.24715V3.67219H33.6001ZM32.7005 8.43889V3.67447H31.1927V8.43889H32.7005ZM31.9693 1.23605C31.3973 1.30371 31.0342 1.58776 31.0289 2.16925C31.0234 2.73539 31.3434 3.08448 31.9184 3.09461C32.5028 3.10605 32.8535 2.78115 32.863 2.19213C32.8731 1.60998 32.5136 1.3243 31.9693 1.23605Z" fill="#EDEDED"/>
<path d="M26.7779 4.11154V1.45215H28.2458V8.41441H26.9338V7.81624C25.6413 8.78442 24.4208 8.77364 23.6246 7.80677C22.777 6.77746 22.9022 4.96302 23.8821 4.06643C24.6689 3.34798 26.0058 3.35288 26.7779 4.11154ZM25.7149 4.84078C24.9477 4.90158 24.5503 5.32356 24.5408 6.07339C24.5313 6.82322 24.933 7.256 25.6881 7.25011C26.4683 7.24358 26.9204 6.80361 26.9302 6.02175C26.94 5.23988 26.4369 4.9104 25.7149 4.84078Z" fill="#EDEDED"/>
<path d="M18.0224 8.4092H16.206L14.6158 6.14042V8.41443H13.1406V1.44824H14.6014V5.62887C15.5611 4.54694 16.2429 3.09042 18.024 3.78469L16.173 5.86225L18.0224 8.4092Z" fill="#EDEDED"/>
<path d="M21.4453 6.85875L22.4415 7.63114C21.9222 8.50747 20.2545 8.84283 19.1873 8.30808C17.9919 7.70893 17.449 6.27137 17.9566 5.04954C18.442 3.88067 19.9021 3.23641 21.1625 3.63454C22.2641 3.98232 22.8982 5.2267 22.5929 6.48645H19.2778C19.3298 6.86202 19.5122 7.1173 19.8106 7.26799C20.4558 7.59322 20.9814 7.35755 21.4453 6.85875ZM19.2608 5.45714H21.1932C21.1452 4.97763 20.887 4.68835 20.4431 4.63115C19.8394 4.55336 19.4134 4.79818 19.2608 5.45714Z" fill="#EDEDED"/>
<path d="M7.78271 8.41207V3.69931H9.17124V4.30237C10.1518 3.33354 11.5168 3.28484 12.0634 4.18209C12.3422 4.6397 12.3556 5.16073 12.3526 5.6811C12.3474 6.58914 12.351 7.49717 12.351 8.41534H10.8749C10.8749 7.5632 10.885 6.71563 10.871 5.86872C10.8631 5.38823 10.8569 4.8623 10.1724 4.85903C9.47785 4.85576 9.28336 5.34573 9.26571 5.91841C9.24021 6.7444 9.25917 7.5717 9.25917 8.41207H7.78271Z" fill="#EDEDED"/>
<path d="M2.02993 7.02457H4.81189V8.41441H0.493652V1.45215H2.02993V7.02457Z" fill="#EDEDED"/>
<path d="M5.53418 3.70117H6.98678V8.40805H5.53418V3.70117Z" fill="#EDEDED"/>
<path d="M6.2336 3.08647C5.70571 2.99887 5.35629 2.72169 5.37525 2.1634C5.39388 1.61851 5.72565 1.28086 6.2738 1.29851C6.81117 1.31518 7.14621 1.65251 7.14164 2.19968C7.13739 2.75961 6.76051 3.00901 6.2336 3.08647Z" fill="#EDEDED"/>
<path d="M40.1227 8.24078C40.1678 8.20809 40.0272 8.06165 40.1505 8.07734L40.0508 8.13422L40.1443 8.2349L40.1227 8.24078Z" fill="#EDEDED"/>
<path d="M39.9194 8.11751C39.9217 8.16622 39.9237 8.21557 39.926 8.26362H39.9485V8.11719L39.9194 8.11751Z" fill="#EDEDED"/>
<path d="M40.1512 7.91999H40.2591V7.9043H40.146L40.1512 7.91999Z" fill="#EDEDED"/>
<path d="M40.4565 8.07259V8.30434H40.4954V8.07227L40.4565 8.07259Z" fill="#EDEDED"/>
</svg>
