<svg width="26" height="26" viewBox="0 0 26 26" fill="none" xmlns="http://www.w3.org/2000/svg">
<path d="M10.4148 15.8252C10.2017 15.8054 10.0111 15.7945 9.82552 15.7471C9.07893 15.5577 8.50802 15.1552 8.12692 14.5168C8.0572 14.3963 7.99743 14.2709 7.94815 14.1417C7.94035 14.1219 7.91565 14.0994 7.93272 14.0786C7.94978 14.0578 7.97887 14.074 8.00146 14.0777C8.35314 14.1365 8.70141 14.1146 9.04789 14.0414C9.05861 14.0391 9.06885 14.0368 9.07584 14.0124C8.98126 13.9986 8.89122 13.9693 8.80103 13.9402C8.28023 13.7717 7.85373 13.4803 7.52155 13.066C7.24893 12.7309 7.07261 12.3351 7.00964 11.9169C6.99338 11.8088 6.98818 11.6989 6.97811 11.5898C6.97226 11.5285 6.99273 11.5203 7.05091 11.5497C7.38195 11.7167 7.73949 11.8014 8.11229 11.8281C8.12031 11.8296 8.1286 11.8291 8.13635 11.8266C8.1441 11.8242 8.15104 11.8199 8.1565 11.8141C8.06468 11.7495 7.97627 11.6824 7.89176 11.6105C7.45866 11.2416 7.17832 10.7887 7.05823 10.2511C6.92561 9.65738 7.01971 9.09066 7.31029 8.55151C7.36067 8.4579 7.3605 8.45958 7.43233 8.53895C7.86168 9.01827 8.35418 9.44396 8.89789 9.80569C9.34427 10.1029 9.82384 10.3531 10.328 10.5518C10.9638 10.8026 11.6242 10.9744 12.3107 11.0496C12.4719 11.0672 12.6331 11.0824 12.7948 11.094C12.8584 11.0986 12.8809 11.0907 12.8665 11.022C12.7927 10.6757 12.7966 10.3186 12.8779 9.97376C12.9835 9.52302 13.21 9.1311 13.5442 8.79404C13.7973 8.53762 14.1052 8.33465 14.4476 8.19851C14.7357 8.08134 15.0442 8.01483 15.3577 8.00225C15.8148 7.98524 16.2495 8.06445 16.6623 8.25045C16.9386 8.3747 17.1801 8.54477 17.3971 8.74609C17.4128 8.76324 17.4334 8.77575 17.4564 8.78211C17.4795 8.78847 17.504 8.78841 17.5271 8.78194C18.057 8.67582 18.5666 8.49417 19.0385 8.24325C19.0597 8.23206 19.081 8.22103 19.1035 8.21107C19.1164 8.20858 19.1296 8.2075 19.1428 8.20786C18.9344 8.78546 18.5577 9.22671 18.0279 9.56163C18.5345 9.51827 19.0115 9.37777 19.4937 9.19392C19.4335 9.30255 19.3636 9.38528 19.2949 9.46832C19.0835 9.72651 18.8462 9.96497 18.5865 10.1804C18.481 10.2675 18.3704 10.349 18.2594 10.43C18.2054 10.4692 18.1744 10.5066 18.1771 10.58C18.1967 11.0803 18.1571 11.5811 18.0591 12.0732C17.9665 12.5492 17.8241 13.0155 17.6338 13.465C17.5133 13.7464 17.3841 14.0236 17.2298 14.2899C16.9082 14.8508 16.5109 15.3701 16.0477 15.8347C15.7074 16.1735 15.3322 16.4795 14.9277 16.7483C14.3731 17.1168 13.7652 17.4082 13.1226 17.6133C12.7205 17.7408 12.308 17.8367 11.8891 17.9001C11.4032 17.9748 10.9111 18.0077 10.4189 17.9985C10.0568 17.993 9.69558 17.9623 9.3383 17.9066C8.33469 17.7544 7.3741 17.4124 6.51429 16.9012C6.50844 16.8977 6.506 16.8889 6.49365 16.8705C7.94214 17.0002 9.24128 16.6594 10.4148 15.8252Z" fill="#EDEDED"/>
<path d="M0.493652 12.4464C0.499134 11.0348 0.480717 9.55843 0.537502 8.08333C0.562716 7.42273 0.584203 6.76126 0.684838 6.10615C0.902332 4.69024 1.39608 3.39953 2.37897 2.32477C3.22066 1.40393 4.24696 0.79376 5.43989 0.448225C6.25265 0.212752 7.08425 0.109925 7.92661 0.0796687C11.0643 -0.0328056 14.2028 -0.00803041 17.3409 0.0507281C18.0274 0.0634445 18.7138 0.0983049 19.3948 0.200036C21.1194 0.457434 22.6134 1.15026 23.7605 2.5039C24.3511 3.20089 24.7537 3.9961 25.0199 4.8652C25.2797 5.71369 25.3834 6.5863 25.4178 7.46855C25.5274 10.292 25.4937 13.1164 25.4673 15.9407C25.4601 16.7408 25.4369 17.5413 25.3645 18.3382C25.2507 19.5914 24.9376 20.7846 24.2463 21.8532C23.4115 23.1441 22.2534 24.0174 20.7949 24.5002C19.8699 24.8071 18.9153 24.9198 17.9482 24.954C14.9274 25.0608 11.906 25.0356 8.8845 24.985C8.0632 24.9711 7.24014 24.9429 6.42739 24.8032C5.19061 24.5905 4.04547 24.1652 3.06587 23.3562C2.04527 22.5127 1.35091 21.4551 0.968106 20.188C0.755435 19.4845 0.637479 18.7658 0.590779 18.0346C0.473262 16.1935 0.498695 14.3514 0.493652 12.4464ZM13.0728 2.26229C11.3456 2.26623 9.69397 2.25066 8.04346 2.32916C7.30767 2.36402 6.58064 2.44514 5.87488 2.67272C4.96237 2.96739 4.23366 3.50762 3.68876 4.2934C3.27219 4.89392 3.06324 5.57578 2.93827 6.28746C2.81461 6.99191 2.79422 7.70534 2.78282 8.41724C2.73415 11.4679 2.70324 14.5187 2.81922 17.5689C2.84684 18.2937 2.94353 19.0089 3.1801 19.7006C3.53791 20.748 4.20114 21.5392 5.17526 22.0589C5.92355 22.4579 6.74245 22.6116 7.57954 22.6682C8.80864 22.7515 10.0402 22.7638 11.2717 22.7622C13.3984 22.7594 15.5251 22.7927 17.6505 22.7083C18.3194 22.6818 18.9859 22.6408 19.6402 22.4855C20.4487 22.2935 21.1712 21.9398 21.7695 21.3518C22.5206 20.6131 22.8877 19.6925 23.0528 18.6724C23.1624 17.9988 23.1856 17.3189 23.1975 16.6404C23.2483 13.6994 23.2696 10.7582 23.1755 7.81716C23.1536 7.16292 23.106 6.51175 22.9563 5.87111C22.7335 4.9108 22.2845 4.08687 21.5213 3.44491C20.8484 2.87837 20.0545 2.60212 19.2041 2.45303C18.5069 2.33113 17.8009 2.32148 17.0962 2.29758C15.7303 2.25132 14.3637 2.26689 13.0728 2.26229Z" fill="#EDEDED"/>
</svg>
