<svg width="71" height="71" viewBox="0 0 71 71" fill="none" xmlns="http://www.w3.org/2000/svg">
    <g filter="url(#filter0_d_1629_16511)">
    <circle cx="35.0938" cy="33.1016" r="30" fill="#EDEDED" fill-opacity="0.02" shape-rendering="crispEdges"/>
    </g>
    <path d="M35.1709 28.9722H48.8533C49.2418 28.9722 49.2418 28.9722 49.2418 29.3708C49.2418 33.7905 49.2418 38.21 49.2418 42.6293C49.2418 43.8843 48.5031 44.8252 47.3308 45.069C47.1371 45.1043 46.9404 45.12 46.7435 45.1158C39.0299 45.118 31.316 45.118 23.6016 45.1158C22.0994 45.1158 21.1028 44.1101 21.1022 42.6011C21.1022 38.1717 21.0994 33.7423 21.0938 29.3128C21.0938 29.0088 21.1945 28.9643 21.462 28.9648C26.0318 28.9731 30.6014 28.9755 35.1709 28.9722ZM31.7644 40.9502C32.2711 40.9502 32.7779 40.9542 33.2846 40.9502C33.6349 40.9463 33.8606 40.7357 33.8606 40.4305C33.8606 40.1253 33.6354 39.9114 33.2841 39.9097C32.2901 39.904 31.2965 39.904 30.3032 39.9097C29.9378 39.9097 29.7019 40.1349 29.712 40.4457C29.7221 40.7565 29.9479 40.948 30.3038 40.9525C30.7897 40.9536 31.2773 40.9502 31.7644 40.9502ZM38.5453 40.9502C39.0324 40.9502 39.52 40.9502 40.0093 40.9502C40.4034 40.9502 40.6399 40.7419 40.6337 40.4198C40.6275 40.1101 40.3927 39.9085 40.0177 39.9074C39.0418 39.904 38.0669 39.904 37.0932 39.9074C36.721 39.9074 36.4873 40.1146 36.4845 40.4249C36.4817 40.7351 36.7131 40.9468 37.0842 40.9496C37.5701 40.9536 38.0577 40.9502 38.5453 40.9502ZM31.779 37.2987C32.2858 37.2987 32.7925 37.3027 33.2993 37.2987C33.6371 37.2948 33.8516 37.0977 33.8623 36.7987C33.873 36.4998 33.663 36.2728 33.3285 36.2689C32.3075 36.2576 31.2863 36.2576 30.2649 36.2689C29.9271 36.2723 29.7142 36.4941 29.7148 36.7864C29.7148 37.091 29.94 37.2971 30.2936 37.3004C30.7858 37.3027 31.2824 37.2987 31.779 37.2987ZM38.551 37.2987C39.0577 37.2987 39.5645 37.3027 40.0712 37.2987C40.4091 37.2948 40.6253 37.0938 40.6343 36.7976C40.6433 36.5014 40.4276 36.2723 40.0966 36.2689C39.0752 36.2576 38.054 36.2576 37.0329 36.2689C36.6951 36.2723 36.4862 36.4908 36.4868 36.7875C36.4868 37.0955 36.7075 37.2971 37.0639 37.3004C37.5577 37.3027 38.0543 37.2987 38.551 37.2987ZM25.0065 40.9502C25.5037 40.9502 26.0003 40.9536 26.4975 40.9502C26.8556 40.9468 27.0769 40.7509 27.0847 40.4435C27.0932 40.1231 26.8702 39.9091 26.4986 39.9074C25.5144 39.9022 24.5301 39.9022 23.5459 39.9074C23.1743 39.9074 22.9395 40.118 22.9383 40.4288C22.9372 40.7396 23.1737 40.9468 23.5442 40.9496C24.0318 40.9536 24.5194 40.9502 25.0065 40.9502ZM45.3184 40.9502C45.806 40.9502 46.2936 40.953 46.7824 40.9502C47.1703 40.9502 47.4124 40.7368 47.4046 40.417C47.3967 40.1067 47.163 39.9102 46.7852 39.9102C45.8092 39.9069 44.8344 39.9069 43.8606 39.9102C43.4817 39.9102 43.2587 40.1118 43.2576 40.4305C43.2565 40.7492 43.4828 40.9496 43.8567 40.9525C44.3437 40.9536 44.8336 40.9502 45.3184 40.9502ZM25.0138 37.2987C25.5104 37.2987 26.007 37.3021 26.5037 37.2987C26.8674 37.2987 27.0814 37.1051 27.087 36.792C27.0926 36.4789 26.8854 36.2672 26.5239 36.2638C25.5217 36.2548 24.5191 36.2548 23.516 36.2638C23.1619 36.2666 22.9395 36.4857 22.9412 36.7864C22.9428 37.087 23.1726 37.2931 23.5239 37.2971C24.0183 37.3021 24.5149 37.2987 25.0138 37.2987ZM45.319 37.2987C45.8156 37.2987 46.3128 37.3021 46.8094 37.2987C47.1675 37.2987 47.3939 37.1022 47.4051 36.801C47.4164 36.4998 47.194 36.2695 46.8421 36.2661C45.8285 36.2571 44.8165 36.2571 43.806 36.2661C43.4502 36.2695 43.243 36.4913 43.2587 36.8078C43.2705 37.1067 43.4839 37.2937 43.8274 37.2976C44.3235 37.3027 44.8201 37.2987 45.3167 37.2987H45.319ZM31.7801 33.6524C32.2767 33.6524 32.7734 33.6563 33.2694 33.6524C33.6354 33.6484 33.8505 33.4587 33.8584 33.1518C33.8663 32.8331 33.6444 32.6281 33.2666 32.6264C32.2828 32.6219 31.2991 32.6219 30.3156 32.6264C29.9378 32.6264 29.7086 32.8292 29.7103 33.1405C29.712 33.4519 29.94 33.6473 30.319 33.6529C30.806 33.6557 31.2931 33.6524 31.7801 33.6524ZM38.5645 32.6231C38.0678 32.6231 37.5718 32.6191 37.0752 32.6231C36.6968 32.627 36.4755 32.8303 36.4834 33.1484C36.4913 33.4553 36.7086 33.6473 37.0723 33.649C38.0562 33.6535 39.0399 33.6535 40.0234 33.649C40.4017 33.649 40.6303 33.448 40.632 33.1366C40.6337 32.8252 40.4068 32.6259 40.0256 32.6219C39.5408 32.6197 39.0515 32.6231 38.5645 32.6231ZM25.0273 33.6518C25.5239 33.6518 26.0206 33.6574 26.5166 33.6518C26.8787 33.6467 27.087 33.4485 27.0847 33.1338C27.0825 32.819 26.873 32.627 26.5065 32.627C25.5132 32.6221 24.5202 32.6221 23.5273 32.627C23.1698 32.627 22.9445 32.8303 22.9389 33.1338C22.9333 33.4446 23.1641 33.6518 23.538 33.6557C24.0346 33.6563 24.5307 33.6524 25.0273 33.6518ZM45.3359 33.6518C45.8319 33.6518 46.3285 33.6569 46.8252 33.6518C47.1776 33.6473 47.404 33.4389 47.4029 33.1371C47.4017 32.8353 47.1776 32.6304 46.8218 32.627C45.8285 32.6221 44.8355 32.6221 43.8426 32.627C43.4716 32.627 43.2638 32.8151 43.2576 33.1276C43.2514 33.453 43.4637 33.6484 43.846 33.6529C44.3426 33.6569 44.8392 33.6524 45.3359 33.6518Z" fill="#EDEDED"/>
    <path d="M35.1663 27.9311H21.5154C21.0211 27.9311 21.1038 27.9559 21.1016 27.5043C21.0978 26.7254 21.0978 25.9467 21.1016 25.1682C21.1106 23.7357 22.123 22.7256 23.5548 22.72C24.3803 22.7166 25.2057 22.7256 26.0323 22.7144C26.2468 22.7144 26.3409 22.7622 26.3217 22.9925C26.3105 23.2176 26.3105 23.4431 26.3217 23.6682C26.3291 24.0471 26.5261 24.2746 26.8403 24.2746C27.1545 24.2746 27.355 24.0443 27.3555 23.6687C27.3589 22.6928 27.3589 21.7168 27.3555 20.7408C27.3555 20.5539 27.3882 20.3844 27.5329 20.2566C27.604 20.187 27.6947 20.1408 27.7928 20.1241C27.8909 20.1074 27.9917 20.121 28.0819 20.1631C28.3071 20.2588 28.4045 20.4446 28.4068 20.6772C28.4118 21.2403 28.4231 21.8033 28.4034 22.3664C28.3932 22.6395 28.4529 22.7301 28.7513 22.7279C30.6185 22.7115 32.4856 22.725 34.3521 22.7138C34.6061 22.7138 34.6838 22.7864 34.6618 23.0308C34.65 23.2463 34.65 23.4623 34.6618 23.6778C34.6691 24.055 34.8702 24.2814 35.1849 24.2752C35.4901 24.269 35.686 24.0499 35.6883 23.6862C35.6934 22.7571 35.6883 21.8281 35.6883 20.8996C35.6847 20.7966 35.6885 20.6935 35.6995 20.591C35.7423 20.2949 35.958 20.1102 36.2356 20.1214C36.3688 20.125 36.4953 20.1809 36.5876 20.277C36.6799 20.3731 36.7307 20.5017 36.7288 20.635C36.7418 21.198 36.7345 21.7611 36.7356 22.3241C36.7356 22.7183 36.7356 22.7183 37.1247 22.7183C38.9828 22.7183 40.8409 22.7228 42.699 22.7132C42.9343 22.7132 43.0154 22.7763 42.994 23.0111C42.9749 23.225 42.9884 23.4424 42.9906 23.658C42.9952 24.0392 43.1843 24.2678 43.4974 24.2735C43.8212 24.2791 44.0244 24.0482 44.0256 23.6485C44.0295 22.72 44.0256 21.7904 44.0256 20.8624C44.0256 20.3653 44.2018 20.1175 44.5498 20.1198C44.8977 20.122 45.0723 20.3664 45.0734 20.8675C45.0734 21.3928 45.0841 21.9187 45.0684 22.4441C45.0616 22.6727 45.1416 22.7296 45.3589 22.7256C45.8656 22.711 46.3724 22.716 46.8792 22.7228C48.1787 22.7397 49.2024 23.7363 49.2356 25.0364C49.2581 25.9272 49.2356 26.8185 49.2452 27.7098C49.2452 27.885 49.1832 27.9413 49.0199 27.9351C48.7761 27.9266 48.5318 27.9351 48.2879 27.9351L35.1663 27.9311Z" fill="#EDEDED"/>
    <defs>
    <filter id="filter0_d_1629_16511" x="0.09375" y="0.101562" width="70" height="70" filterUnits="userSpaceOnUse" color-interpolation-filters="sRGB">
    <feFlood flood-opacity="0" result="BackgroundImageFix"/>
    <feColorMatrix in="SourceAlpha" type="matrix" values="0 0 0 0 0 0 0 0 0 0 0 0 0 0 0 0 0 0 127 0" result="hardAlpha"/>
    <feOffset dy="2"/>
    <feGaussianBlur stdDeviation="2.5"/>
    <feComposite in2="hardAlpha" operator="out"/>
    <feColorMatrix type="matrix" values="0 0 0 0 0.0628125 0 0 0 0 0.46914 0 0 0 0 0.558333 0 0 0 1 0"/>
    <feBlend mode="normal" in2="BackgroundImageFix" result="effect1_dropShadow_1629_16511"/>
    <feBlend mode="normal" in="SourceGraphic" in2="effect1_dropShadow_1629_16511" result="shape"/>
    </filter>
    </defs>
    </svg>
    