<svg width="71" height="71" viewBox="0 0 71 71" fill="none" xmlns="http://www.w3.org/2000/svg">
    <g filter="url(#filter0_d_1629_16528)">
    <circle cx="35.0938" cy="33.1016" r="30" fill="#EDEDED" fill-opacity="0.02" shape-rendering="crispEdges"/>
    </g>
    <path d="M41.7578 40.8806C41.7578 42.8512 40.4615 44.4659 38.4609 44.9692C37.4404 45.2259 36.4215 45.1427 35.4124 44.8961C33.5587 44.4431 31.9166 43.5449 30.3822 42.4429C27.6799 40.5006 25.4395 38.128 23.753 35.2492C23.0352 34.0226 22.4745 32.728 22.2207 31.3198C21.9779 29.975 22.0404 28.6597 22.7878 27.4682C23.7522 25.9274 25.2398 25.294 26.9849 25.5039C27.4025 25.5541 27.6659 25.7876 27.7935 26.1993C28.2697 27.7363 28.7529 29.2714 29.243 30.8047C29.3697 31.2016 29.2954 31.5352 29.0036 31.829C28.7211 32.1136 28.4433 32.4029 28.1646 32.6908C27.8294 33.0367 27.8036 33.3588 28.0886 33.7464C29.6047 35.8064 31.4239 37.6249 33.4844 39.1401C33.8505 39.41 34.182 39.3872 34.5088 39.0743C34.8086 38.7871 35.1061 38.4976 35.4014 38.2057C35.6834 37.9275 36.0069 37.8477 36.3877 37.9688C37.9217 38.4557 39.4574 38.9366 40.9902 39.4226C41.4968 39.5822 41.6864 39.8275 41.7265 40.3515C41.7426 40.5293 41.7485 40.7054 41.7578 40.8806Z" fill="#EDEDED"/>
    <path d="M47.0943 34.8091C47.1044 35.141 46.8857 35.3948 46.5754 35.4104C46.2714 35.4256 46.0294 35.1993 46.0041 34.8564C45.941 34.0433 45.8035 33.2376 45.5932 32.4496C45.1239 30.67 44.3216 28.9954 43.2287 27.5145C41.5727 25.2475 39.4716 23.5163 36.9023 22.3712C35.4823 21.7316 33.9626 21.3421 32.4101 21.2197C31.9562 21.1851 31.7015 20.8435 31.8519 20.4635C31.9439 20.2308 32.1631 20.1042 32.4493 20.1278C33.6882 20.2287 34.8983 20.4656 36.073 20.8815C40.1497 22.3268 43.2059 24.9772 45.2909 28.7504C46.3127 30.5973 46.9267 32.6419 47.0914 34.7462C47.0914 34.7669 47.0926 34.7901 47.0943 34.8091Z" fill="#EDEDED"/>
    <path d="M43.9299 34.5877C43.94 34.9103 43.7276 35.1561 43.4232 35.1751C43.1099 35.1941 42.8705 34.9838 42.8417 34.6363C42.7992 34.0964 42.713 33.5607 42.5838 33.0348C41.9766 30.5972 40.6689 28.5979 38.7616 26.9849C37.188 25.6523 35.3837 24.7939 33.3409 24.4667C33.1049 24.4291 32.8663 24.4075 32.6286 24.3856C32.2418 24.3501 32.0164 24.1191 32.0455 23.7814C32.0746 23.4436 32.347 23.2544 32.7308 23.2996C37.3623 23.8434 40.6516 26.3026 42.7729 30.3856C43.5773 31.9314 43.8285 33.3472 43.9299 34.5877Z" fill="#EDEDED"/>
    <path d="M40.7665 34.3944C40.7709 34.5305 40.7234 34.6632 40.6337 34.7656C40.5439 34.868 40.4185 34.9324 40.283 34.9459C39.96 34.975 39.7084 34.7647 39.678 34.4109C39.6357 33.9253 39.5631 33.4448 39.4048 32.985C38.4091 30.0909 36.4343 28.2799 33.4301 27.6225C33.2388 27.5803 33.0399 27.5719 32.844 27.5516C32.464 27.5127 32.2406 27.2683 32.2774 26.9313C32.3111 26.6151 32.5894 26.4318 32.9597 26.4647C36.5031 26.7802 39.5467 29.4749 40.4819 32.7819C40.6301 33.3086 40.7254 33.8488 40.7665 34.3944Z" fill="#EDEDED"/>
    <defs>
    <filter id="filter0_d_1629_16528" x="0.09375" y="0.101562" width="70" height="70" filterUnits="userSpaceOnUse" color-interpolation-filters="sRGB">
    <feFlood flood-opacity="0" result="BackgroundImageFix"/>
    <feColorMatrix in="SourceAlpha" type="matrix" values="0 0 0 0 0 0 0 0 0 0 0 0 0 0 0 0 0 0 127 0" result="hardAlpha"/>
    <feOffset dy="2"/>
    <feGaussianBlur stdDeviation="2.5"/>
    <feComposite in2="hardAlpha" operator="out"/>
    <feColorMatrix type="matrix" values="0 0 0 0 0.0628125 0 0 0 0 0.46914 0 0 0 0 0.558333 0 0 0 1 0"/>
    <feBlend mode="normal" in2="BackgroundImageFix" result="effect1_dropShadow_1629_16528"/>
    <feBlend mode="normal" in="SourceGraphic" in2="effect1_dropShadow_1629_16528" result="shape"/>
    </filter>
    </defs>
    </svg>
    