<svg width="40" height="41" viewBox="0 0 40 41" fill="none" xmlns="http://www.w3.org/2000/svg">
    <path fill-rule="evenodd" clip-rule="evenodd" d="M31.6654 18.7904C32.678 18.7904 33.6667 19.1056 34.5007 19.6942C35.3348 20.2828 35.9748 21.117 36.3361 22.0866C36.6974 23.0562 36.763 24.1154 36.5242 25.124C36.2854 26.1327 35.7534 27.0432 34.9987 27.7352V36.2C34.9987 36.3456 34.9623 36.4889 34.8931 36.6161C34.8239 36.7433 34.7241 36.8502 34.6031 36.9268C34.4822 37.0033 34.3442 37.0468 34.2023 37.0533C34.0603 37.0597 33.9191 37.0289 33.792 36.9636L31.6654 35.8737L29.5387 36.9636C29.4117 37.0289 29.2704 37.0597 29.1285 37.0533C28.9865 37.0468 28.8485 37.0033 28.7276 36.9268C28.6067 36.8502 28.5068 36.7433 28.4376 36.6161C28.3684 36.4889 28.332 36.3456 28.332 36.2V27.7352C27.5773 27.0432 27.0453 26.1327 26.8065 25.124C26.5677 24.1154 26.6333 23.0562 26.9946 22.0866C27.356 21.117 27.996 20.2828 28.83 19.6942C29.664 19.1056 30.6528 18.7904 31.6654 18.7904ZM33.332 6.83203C34.2161 6.83203 35.0639 7.192 35.6891 7.83275C36.3142 8.4735 36.6654 9.34254 36.6654 10.2487V17.082C35.0606 15.8484 33.0755 15.2494 31.0746 15.3952C29.0737 15.5409 27.1912 16.4216 25.7728 17.8755C24.3544 19.3294 23.4952 21.2589 23.353 23.3099C23.2108 25.3608 23.7951 27.3955 24.9987 29.0404V34.1654H6.66536C5.78131 34.1654 4.93346 33.8054 4.30834 33.1646C3.68322 32.5239 3.33203 31.6549 3.33203 30.7487V10.2487C3.33203 9.34254 3.68322 8.4735 4.30834 7.83275C4.93346 7.192 5.78131 6.83203 6.66536 6.83203H33.332ZM13.332 22.207H9.9987C9.55667 22.207 9.13275 22.387 8.82019 22.7074C8.50763 23.0278 8.33203 23.4623 8.33203 23.9154C8.33203 24.3684 8.50763 24.803 8.82019 25.1233C9.13275 25.4437 9.55667 25.6237 9.9987 25.6237H13.332C13.7741 25.6237 14.198 25.4437 14.5105 25.1233C14.8231 24.803 14.9987 24.3684 14.9987 23.9154C14.9987 23.4623 14.8231 23.0278 14.5105 22.7074C14.198 22.387 13.7741 22.207 13.332 22.207ZM19.9987 15.3737H9.9987C9.5739 15.3742 9.16531 15.5409 8.85642 15.8398C8.54752 16.1387 8.36164 16.5472 8.33675 16.9819C8.31185 17.4166 8.44982 17.8446 8.72247 18.1785C8.99512 18.5124 9.38187 18.727 9.8037 18.7784L9.9987 18.7904H19.9987C20.4235 18.7899 20.8321 18.6232 21.141 18.3242C21.4499 18.0253 21.6358 17.6168 21.6607 17.1821C21.6855 16.7475 21.5476 16.3195 21.2749 15.9856C21.0023 15.6517 20.6155 15.4371 20.1937 15.3857L19.9987 15.3737Z" fill="#EDEDED"/>
    </svg>
    