<svg width="71" height="71" viewBox="0 0 71 71" fill="none" xmlns="http://www.w3.org/2000/svg">
    <g filter="url(#filter0_d_1629_16539)">
    <circle cx="35.0938" cy="33.1016" r="30" fill="#EDEDED" fill-opacity="0.02" shape-rendering="crispEdges"/>
    </g>
    <path d="M20.0935 30.7199C20.0935 29.4757 20.119 28.2305 20.0871 26.9854C20.0434 25.3085 21.2466 24.4815 22.5346 24.5261C24.3991 24.5862 26.2691 24.5316 28.1345 24.5498C28.5262 24.5498 28.671 24.4468 28.6646 24.0388C28.6528 23.3575 28.5991 22.6725 28.7175 21.9939C28.8842 21.0412 29.7112 20.2769 30.6758 20.2715C33.6209 20.2533 36.566 20.2533 39.5111 20.2715C40.4712 20.2779 41.2937 21.0512 41.4576 22.0021C41.5742 22.6816 41.5159 23.3684 41.5114 24.0479C41.5114 24.4204 41.6261 24.547 42.0078 24.5434C43.9206 24.527 45.8334 24.5343 47.7462 24.537C49.1343 24.537 50.0479 25.3568 50.0661 26.7231C50.1026 29.4247 50.0771 32.1263 50.0835 34.8297C50.0835 35.1485 49.9395 35.2533 49.638 35.2514C47.7708 35.246 45.9038 35.246 44.0372 35.2514C43.7402 35.2514 43.6328 35.1348 43.6428 34.8443C43.6574 34.3889 43.6364 33.9334 43.6492 33.478C43.6574 33.2148 43.5817 33.0945 43.2921 33.0973C42.1092 33.1094 40.9251 33.1094 39.7398 33.0973C39.4665 33.0973 39.3572 33.182 39.3672 33.4616C39.3836 33.9316 39.3617 34.4034 39.3745 34.8734C39.3809 35.1467 39.2625 35.2487 38.9947 35.2478C36.3835 35.2442 33.7724 35.2442 31.1613 35.2478C30.8798 35.2478 30.797 35.1203 30.797 34.857C30.8079 34.387 30.7906 33.9161 30.8024 33.4452C30.8088 33.1938 30.7186 33.0954 30.4608 33.0973C29.2609 33.1058 28.0617 33.1058 26.863 33.0973C26.6034 33.0973 26.5159 33.1965 26.5223 33.447C26.5351 33.887 26.5086 34.3278 26.5305 34.7669C26.5487 35.113 26.4394 35.256 26.0751 35.2533C24.2388 35.2387 22.4022 35.2387 20.5653 35.2533C20.2073 35.2533 20.0862 35.1157 20.0889 34.7669C20.1008 33.4188 20.0935 32.068 20.0935 30.7199ZM35.0379 24.5352C36.3404 24.5352 37.6439 24.5279 38.9464 24.5407C39.2543 24.5407 39.3891 24.4623 39.3699 24.1326C39.3454 23.7243 39.3454 23.3149 39.3699 22.9066C39.3927 22.5368 39.2707 22.3874 38.8854 22.402C38.2478 22.4266 37.6102 22.4083 36.9771 22.4083C35.0825 22.4083 33.1889 22.4165 31.2952 22.402C30.9199 22.402 30.7778 22.5195 30.8033 22.8993C30.8279 23.3076 30.8279 23.717 30.8033 24.1253C30.786 24.445 30.9017 24.5452 31.2187 24.5416C32.4921 24.5261 33.7645 24.5352 35.0379 24.5352Z" fill="#EDEDED"/>
    <path d="M35.0786 45.9477C30.8887 45.9477 26.6988 45.9477 22.5088 45.9477C20.9658 45.9477 20.1051 45.107 20.095 43.5658C20.0832 41.6694 20.0996 39.7712 20.0859 37.8748C20.0859 37.5105 20.188 37.3684 20.5751 37.372C22.4114 37.3884 24.2476 37.3829 26.0848 37.372C26.3581 37.372 26.502 37.4103 26.5658 37.7436C26.7707 38.8112 27.6032 39.487 28.6416 39.4998C29.68 39.5125 30.5426 38.8276 30.763 37.74C30.8222 37.4485 30.9242 37.3711 31.2011 37.3711C33.7965 37.379 36.3918 37.379 38.9871 37.3711C39.2422 37.3711 39.346 37.4385 39.4007 37.7118C39.6211 38.8112 40.4454 39.4943 41.4956 39.4989C42.5459 39.5034 43.3857 38.8203 43.6043 37.7254C43.6653 37.4194 43.7864 37.3702 44.0542 37.3711C45.906 37.3784 47.7578 37.3829 49.6105 37.3711C49.9748 37.3711 50.0841 37.4904 50.0823 37.8438C50.0695 39.7712 50.0887 41.6995 50.0704 43.6269C50.0568 45.1016 49.1733 45.945 47.6867 45.9459C43.4859 45.9483 39.2832 45.949 35.0786 45.9477Z" fill="#EDEDED"/>
    <defs>
    <filter id="filter0_d_1629_16539" x="0.09375" y="0.101562" width="70" height="70" filterUnits="userSpaceOnUse" color-interpolation-filters="sRGB">
    <feFlood flood-opacity="0" result="BackgroundImageFix"/>
    <feColorMatrix in="SourceAlpha" type="matrix" values="0 0 0 0 0 0 0 0 0 0 0 0 0 0 0 0 0 0 127 0" result="hardAlpha"/>
    <feOffset dy="2"/>
    <feGaussianBlur stdDeviation="2.5"/>
    <feComposite in2="hardAlpha" operator="out"/>
    <feColorMatrix type="matrix" values="0 0 0 0 1 0 0 0 0 0.337255 0 0 0 0 0 0 0 0 1 0"/>
    <feBlend mode="normal" in2="BackgroundImageFix" result="effect1_dropShadow_1629_16539"/>
    <feBlend mode="normal" in="SourceGraphic" in2="effect1_dropShadow_1629_16539" result="shape"/>
    </filter>
    </defs>
    </svg>
    