<svg width="71" height="71" viewBox="0 0 71 71" fill="none" xmlns="http://www.w3.org/2000/svg">
    <g filter="url(#filter0_d_1629_16516)">
    <circle cx="35.0938" cy="33.1016" r="30" fill="#EDEDED" fill-opacity="0.02" shape-rendering="crispEdges"/>
    </g>
    <path fill-rule="evenodd" clip-rule="evenodd" d="M40.3768 45.1199H33.6258C30.5146 45.1251 27.5131 43.9708 25.2072 41.8821C22.9013 39.7935 21.4564 36.9205 21.1547 33.824C20.5035 27.2687 25.1433 21.301 31.6731 20.279C32.5287 20.1555 33.3933 20.1067 34.2573 20.133C34.7108 20.1414 35.1645 20.1363 35.6181 20.1312C36.5387 20.1209 37.459 20.1106 38.3774 20.2133C44.1805 21.4462 46.4283 23.3964 48.8104 28.6133C50.1974 33.1276 49.4134 37.2097 46.3825 40.8392C46.1518 41.1152 46.1459 41.2626 46.3825 41.5269C46.826 42.0252 47.2546 42.537 47.6835 43.0492C47.911 43.3209 48.1387 43.5928 48.3688 43.8628C48.5878 44.1198 48.7338 44.3906 48.5776 44.7257C48.4213 45.0608 48.1271 45.1257 47.7862 45.125C45.3159 45.1177 42.8461 45.116 40.3768 45.1199ZM40.9572 33.294H35.2698C33.3606 33.2955 31.4514 33.2947 29.5423 33.2918C29.5218 33.2918 29.5011 33.292 29.4803 33.2921C29.3416 33.2932 29.1975 33.2944 29.0744 33.248C28.7714 33.1341 28.6079 32.8874 28.6422 32.564C28.6765 32.2406 28.8641 32.0289 29.1941 31.9749C29.3267 31.9586 29.4605 31.9532 29.5941 31.9589H40.9732C41.6229 31.9589 41.9412 32.1954 41.9354 32.637C41.9295 33.0787 41.6142 33.294 40.9572 33.294ZM38.4912 28.6951H35.2464L35.2494 28.6943L34.7337 28.694C33.5324 28.6931 32.3324 28.6922 31.1234 28.7031C30.7913 28.7046 30.5227 28.6118 30.3767 28.2936C30.1825 27.86 30.481 27.3898 30.9804 27.3614C31.2567 27.3463 31.5334 27.3493 31.8099 27.3523C31.9228 27.3536 32.0356 27.3548 32.1483 27.3548H39.1855C39.2261 27.3548 39.2668 27.354 39.3074 27.3532C39.3886 27.3516 39.4697 27.3499 39.5505 27.3548C39.9746 27.3796 40.2534 27.6599 40.2418 28.0454C40.2315 28.4155 39.9563 28.6819 39.549 28.6951C39.3139 28.6999 39.0789 28.6983 38.8438 28.6967C38.7263 28.6959 38.6088 28.6951 38.4912 28.6951ZM39.3315 36.56C39.4408 36.5552 39.5503 36.5582 39.6592 36.5688C39.8182 36.5876 39.965 36.6635 40.0724 36.7823C40.1798 36.901 40.2405 37.0547 40.2432 37.2148C40.2477 37.3732 40.1948 37.528 40.0942 37.6505C39.9935 37.7729 39.852 37.8549 39.6957 37.8813C39.5632 37.8995 39.4293 37.9056 39.2957 37.8995H31.2738C31.2453 37.8995 31.2168 37.9001 31.1884 37.9007C31.1315 37.9018 31.0747 37.9029 31.0183 37.8995C30.5935 37.8725 30.3168 37.5944 30.3285 37.2075C30.3394 36.8352 30.6132 36.5753 31.0212 36.5578C31.1346 36.5539 31.2479 36.5552 31.3615 36.5565C31.4183 36.5572 31.4752 36.5578 31.5322 36.5578L39.3315 36.56Z" fill="#EDEDED"/>
    <defs>
    <filter id="filter0_d_1629_16516" x="0.09375" y="0.101562" width="70" height="70" filterUnits="userSpaceOnUse" color-interpolation-filters="sRGB">
    <feFlood flood-opacity="0" result="BackgroundImageFix"/>
    <feColorMatrix in="SourceAlpha" type="matrix" values="0 0 0 0 0 0 0 0 0 0 0 0 0 0 0 0 0 0 127 0" result="hardAlpha"/>
    <feOffset dy="2"/>
    <feGaussianBlur stdDeviation="2.5"/>
    <feComposite in2="hardAlpha" operator="out"/>
    <feColorMatrix type="matrix" values="0 0 0 0 1 0 0 0 0 0.501961 0 0 0 0 0.00392157 0 0 0 1 0"/>
    <feBlend mode="normal" in2="BackgroundImageFix" result="effect1_dropShadow_1629_16516"/>
    <feBlend mode="normal" in="SourceGraphic" in2="effect1_dropShadow_1629_16516" result="shape"/>
    </filter>
    </defs>
    </svg>
    