<svg width="36" height="34" viewBox="0 0 36 34" fill="none" xmlns="http://www.w3.org/2000/svg">
    <path fill-rule="evenodd" clip-rule="evenodd" d="M8.39844 0C7.44366 0 6.52798 0.358213 5.85285 0.995837C5.17772 1.63346 4.79844 2.49826 4.79844 3.4V9.06667H2.39844V11.3333H4.79844V22.6667H2.39844V24.9333H4.79844V30.6C4.79844 31.5017 5.17772 32.3665 5.85285 33.0042C6.52798 33.6418 7.44366 34 8.39844 34H29.9984C30.9532 34 31.8689 33.6418 32.544 33.0042C33.2192 32.3665 33.5984 31.5017 33.5984 30.6V3.4C33.5984 2.49826 33.2192 1.63346 32.544 0.995837C31.8689 0.358213 30.9532 0 29.9984 0L8.39844 0ZM14.3984 11.3333C14.3984 10.131 14.9042 8.97795 15.8043 8.12778C16.7045 7.27762 17.9254 6.8 19.1984 6.8C20.4715 6.8 21.6924 7.27762 22.5926 8.12778C23.4927 8.97795 23.9984 10.131 23.9984 11.3333C23.9984 12.5356 23.4927 13.6887 22.5926 14.5389C21.6924 15.389 20.4715 15.8667 19.1984 15.8667C17.9254 15.8667 16.7045 15.389 15.8043 14.5389C14.9042 13.6887 14.3984 12.5356 14.3984 11.3333ZM11.9984 24.9333C11.9984 23.1299 12.757 21.4003 14.1073 20.125C15.4575 18.8498 17.2889 18.1333 19.1984 18.1333C21.108 18.1333 22.9393 18.8498 24.2896 20.125C25.6399 21.4003 26.3984 23.1299 26.3984 24.9333V27.2H11.9984V24.9333Z" fill="#EDEDED"/>
    </svg>
    