<svg width="71" height="71" viewBox="0 0 71 71" fill="none" xmlns="http://www.w3.org/2000/svg">
    <g filter="url(#filter0_d_1629_16544)">
    <circle cx="35.0938" cy="33.1016" r="30" fill="#EDEDED" fill-opacity="0.02" shape-rendering="crispEdges"/>
    </g>
    <path d="M35.4014 45.1279C30.8558 45.1279 26.3101 45.1279 21.7645 45.1279C21.486 45.1279 21.1007 45.2002 21.09 44.7993C21.0802 44.3836 21.4802 44.4206 21.7472 44.4609C22.3223 44.5488 22.5958 44.2686 22.8505 43.7946C24.2298 41.2323 25.6436 38.6898 27.0344 36.1333C27.2809 35.6765 27.5898 35.3578 28.1352 35.3496C28.6988 35.3413 29.0389 35.6502 29.2788 36.1325C29.4669 36.5112 29.6739 36.8825 29.8941 37.2431C30.0411 37.4822 30.0304 37.6826 29.9006 37.9299C28.8601 39.913 27.8277 41.901 26.8036 43.894C26.7264 44.0435 26.4635 44.2226 26.7124 44.4214C26.903 44.5726 27.2727 44.4099 27.4181 44.1323C28.4302 42.1951 29.4403 40.2569 30.4486 38.3177C30.9842 37.2875 31.5231 36.259 32.0489 35.2239C32.1885 34.9487 32.2994 34.9174 32.4958 35.1729C32.7858 35.5533 33.093 35.9213 33.3994 36.2861C33.6812 36.6147 33.8792 36.6147 34.1634 36.2746C34.4978 35.877 34.8297 35.4769 35.1492 35.067C35.3209 34.846 35.4532 34.8386 35.6274 35.067C35.9198 35.4457 36.2287 35.8112 36.531 36.1809C36.9311 36.6656 37.0642 36.6656 37.4766 36.1702C37.7304 35.8655 37.9744 35.5525 38.2282 35.2477C38.5289 34.8862 38.5494 34.8887 38.7647 35.2994L43.1039 43.6205C43.2049 43.8143 43.3158 44.0033 43.4045 44.2029C43.5376 44.5036 43.7972 44.4847 44.0338 44.4337C44.2868 44.3787 44.1455 44.2095 44.0806 44.0838C43.4234 42.8241 42.7676 41.5645 42.1131 40.3049C41.7024 39.5179 41.2998 38.7268 40.8809 37.9463C40.7486 37.6999 40.7363 37.4978 40.8809 37.2579C41.1076 36.885 41.3245 36.5038 41.5175 36.1078C41.7508 35.6371 42.0926 35.3455 42.634 35.3512C43.1753 35.357 43.4965 35.6699 43.7446 36.1251C45.0656 38.5479 46.3937 40.9667 47.7289 43.3814C47.7818 43.4612 47.8275 43.5456 47.8653 43.6336C48.0797 44.2785 48.4896 44.5816 49.192 44.46C49.4261 44.4198 49.7071 44.4789 49.6997 44.7886C49.6923 45.1172 49.4146 45.132 49.1526 45.132C44.5702 45.1282 39.9865 45.1268 35.4014 45.1279Z" fill="#EDEDED"/>
    <path d="M41.8344 23.2223V25.1118C41.8344 25.309 41.8106 25.502 41.6176 25.6105C41.4245 25.7189 41.2791 25.5784 41.1394 25.4765C40.4469 24.973 39.7429 25.1545 39.0339 25.4314C38.5271 25.631 38.0383 25.875 37.5109 26.0286C37.0122 26.1748 36.5152 26.2085 36.019 26.0541C35.7915 25.9834 35.7225 26.0483 35.7241 26.2734C35.729 27.2724 35.729 28.271 35.7241 29.2694C35.7241 29.4896 35.8375 29.6613 35.9303 29.8404C36.6319 31.1983 37.3334 32.5571 38.0514 33.9076C38.173 34.1368 38.1697 34.2979 37.9997 34.4909C37.7368 34.7875 37.4846 35.0947 37.248 35.4118C37.0582 35.6657 36.9235 35.6221 36.7502 35.3962C36.4421 34.9945 36.1201 34.6051 35.7972 34.2157C35.4744 33.8263 35.3043 33.8378 34.9839 34.2239C34.6553 34.624 34.3267 35.0265 34.0055 35.4373C33.8412 35.6451 33.7098 35.6476 33.5635 35.4373C33.5561 35.4258 33.5471 35.4151 33.5389 35.4044C33.2431 35.0126 32.7453 34.6889 32.6755 34.2354C32.6057 33.782 33.0394 33.3523 33.2588 32.921C33.7812 31.8851 34.3267 30.8615 34.8714 29.8363C35.007 29.584 35.076 29.3012 35.0718 29.0148C35.0644 26.3038 35.0718 23.5969 35.0718 20.8885C35.0718 20.7513 35.0718 20.6141 35.0784 20.4777C35.0924 20.274 35.195 20.1335 35.407 20.1368C35.5959 20.1409 35.6945 20.2674 35.72 20.4539C35.752 20.6847 35.6436 20.9583 35.9393 21.1061C36.2647 21.2852 36.6418 21.347 37.0073 21.2811C37.7664 21.1333 38.4342 20.7406 39.1572 20.4933C39.9442 20.2239 40.704 20.1943 41.4327 20.6781C41.7096 20.8613 41.8484 21.0831 41.8394 21.4233C41.8238 22.0188 41.8353 22.621 41.8344 23.2223Z" fill="#EDEDED"/>
    <defs>
    <filter id="filter0_d_1629_16544" x="0.09375" y="0.101562" width="70" height="70" filterUnits="userSpaceOnUse" color-interpolation-filters="sRGB">
    <feFlood flood-opacity="0" result="BackgroundImageFix"/>
    <feColorMatrix in="SourceAlpha" type="matrix" values="0 0 0 0 0 0 0 0 0 0 0 0 0 0 0 0 0 0 127 0" result="hardAlpha"/>
    <feOffset dy="2"/>
    <feGaussianBlur stdDeviation="2.5"/>
    <feComposite in2="hardAlpha" operator="out"/>
    <feColorMatrix type="matrix" values="0 0 0 0 0.558333 0 0 0 0 0.0628125 0 0 0 0 0.0628127 0 0 0 1 0"/>
    <feBlend mode="normal" in2="BackgroundImageFix" result="effect1_dropShadow_1629_16544"/>
    <feBlend mode="normal" in="SourceGraphic" in2="effect1_dropShadow_1629_16544" result="shape"/>
    </filter>
    </defs>
    </svg>
    