<svg width="71" height="71" viewBox="0 0 71 71" fill="none" xmlns="http://www.w3.org/2000/svg">
    <g filter="url(#filter0_d_1629_16535)">
    <circle cx="35.0938" cy="33.1016" r="30" fill="#EDEDED" fill-opacity="0.02" shape-rendering="crispEdges"/>
    </g>
    <path d="M35.1233 38.8702V39.9205C35.1233 41.4164 35.1233 42.9126 35.1233 44.4092C35.1269 44.4973 35.124 44.5855 35.1148 44.6732C35.0978 44.7988 35.0355 44.9139 34.9397 44.997C34.8439 45.08 34.7211 45.1253 34.5944 45.1243C34.4676 45.1234 34.3455 45.0762 34.251 44.9917C34.1565 44.9072 34.096 44.7912 34.0809 44.6653C34.0716 44.5689 34.069 44.4721 34.0729 44.3754C34.0729 42.6503 34.0729 40.9253 34.0729 39.2002V38.9225L34.0201 38.9045C33.9404 39.0043 33.8617 39.1041 33.7809 39.205C32.3298 41.0522 30.8786 42.9004 29.4275 44.7498C29.3789 44.8121 29.3314 44.876 29.2775 44.9335C29.0726 45.1543 28.7568 45.1881 28.5414 45.0154C28.3259 44.8427 28.2773 44.5301 28.4648 44.2824C28.8693 43.7501 29.287 43.2263 29.7 42.7019C30.9124 41.1596 32.125 39.617 33.3379 38.0744C33.3812 38.0216 33.4202 37.9614 33.4678 37.8953C33.3759 37.8066 33.2655 37.8425 33.1689 37.8425C30.5285 37.8404 27.8881 37.8404 25.2477 37.8425C23.9122 37.8425 23.1354 37.0642 23.1328 35.726C23.1328 32.3382 23.1339 28.9503 23.136 25.5621C23.136 25.3509 23.1022 25.221 22.8878 25.1064C22.2641 24.7727 21.9774 24.0772 22.1374 23.4002C22.2188 23.0731 22.403 22.7807 22.663 22.5662C22.923 22.3516 23.245 22.2262 23.5817 22.2083C23.7047 22.2009 23.8283 22.2031 23.9513 22.2031H32.6646C33.087 22.2031 33.0263 22.2242 33.0284 21.8297C33.0353 20.7297 33.8247 20.0005 34.8508 20.1478C35.597 20.2534 36.1409 20.8966 36.171 21.7014C36.1884 22.2036 36.1884 22.2036 36.6991 22.2036C39.6035 22.2036 42.5079 22.2036 45.4123 22.2036C45.9224 22.2036 46.3676 22.3456 46.7108 22.7354C47.3783 23.4937 47.1819 24.6364 46.2884 25.1265C46.1104 25.2242 46.0661 25.3314 46.0666 25.5178C46.0712 28.9503 46.0712 32.3828 46.0666 35.8153C46.0666 36.7658 45.5649 37.4834 44.7274 37.7528C44.4907 37.8222 44.2447 37.8541 43.9981 37.8473C41.3577 37.8452 38.7174 37.8452 36.077 37.8473H35.7644C35.729 37.9724 35.8209 38.0221 35.87 38.0844C37.4232 40.0647 38.9777 42.0436 40.5334 44.021C40.6182 44.1218 40.6969 44.2276 40.7689 44.3379C40.8381 44.4465 40.8644 44.5769 40.8426 44.7039C40.8209 44.8308 40.7526 44.945 40.6512 45.0244C40.5478 45.1011 40.42 45.1376 40.2916 45.1271C40.1633 45.1166 40.0432 45.0599 39.9536 44.9673C39.8529 44.8567 39.7581 44.7409 39.6695 44.6204C38.2176 42.7732 36.7661 40.9261 35.315 39.0793C35.2706 39.0196 35.2204 38.9737 35.1233 38.8702ZM40.8381 26.3738C39.0126 26.3976 37.8233 28.1951 38.4005 29.7609C38.8911 31.0927 39.6404 32.2793 40.4331 33.4416C40.6443 33.7505 41.0287 33.7404 41.2632 33.4447C41.3957 33.2701 41.5191 33.0887 41.6329 32.9013C42.2576 31.9233 42.8517 30.9311 43.2699 29.8385C43.9163 28.1724 42.6505 26.377 40.8381 26.3738ZM28.3523 26.3738C26.6186 26.3706 25.3629 28.0193 25.8783 29.6653C26.3139 31.0562 27.1219 32.2576 27.9378 33.4468C28.149 33.7552 28.554 33.7489 28.7658 33.4379C29.5579 32.2761 30.3051 31.0885 30.7973 29.7561C31.3639 28.2178 30.2048 26.396 28.3523 26.3738ZM37.1912 28.7501C37.1289 27.8455 36.6331 27.036 35.6376 26.6035C34.6422 26.171 33.6748 26.3189 32.8631 27.055C32.071 27.7727 31.7969 28.6767 32.1423 29.7139C32.598 31.0811 33.3812 32.2745 34.1896 33.449C34.4188 33.7822 34.8202 33.7383 35.0663 33.3755C35.7475 32.3696 36.3938 31.3419 36.8707 30.2192C37.046 29.8031 37.2007 29.3817 37.1912 28.748V28.7501ZM28.3481 34.1941C27.8564 34.1941 27.3648 34.1909 26.8732 34.1941C26.4998 34.1972 26.2712 34.3947 26.2701 34.7047C26.269 35.0147 26.4961 35.2201 26.8695 35.2222C27.8527 35.2265 28.8358 35.2265 29.8188 35.2222C30.1911 35.2222 30.4245 35.0152 30.4255 34.7084C30.4266 34.4016 30.1937 34.1983 29.824 34.1946C29.3314 34.1904 28.8397 34.1935 28.3481 34.1941ZM40.8497 35.2238C41.3414 35.2238 41.833 35.228 42.3246 35.2238C42.6943 35.2196 42.9251 35.0184 42.9251 34.7074C42.9251 34.3963 42.6985 34.1972 42.3231 34.1962C41.3398 34.193 40.3567 34.193 39.3738 34.1962C39.0041 34.1962 38.7686 34.4032 38.7691 34.7089C38.7696 35.0147 39.0041 35.2196 39.3748 35.2238C39.8665 35.2302 40.3581 35.2238 40.8497 35.2238ZM34.5978 34.1941C34.1062 34.1941 33.6146 34.1909 33.1229 34.1941C32.7496 34.1972 32.5209 34.3958 32.5209 34.7063C32.5209 35.0168 32.7496 35.2206 33.1224 35.2222C34.1057 35.2265 35.0888 35.2265 36.0717 35.2222C36.4451 35.2222 36.6737 35.0173 36.6737 34.7068C36.6737 34.3963 36.4472 34.1972 36.0728 34.1941C35.5801 34.1909 35.0895 34.1941 34.5978 34.1941Z" fill="#EDEDED"/>
    <defs>
    <filter id="filter0_d_1629_16535" x="0.09375" y="0.101562" width="70" height="70" filterUnits="userSpaceOnUse" color-interpolation-filters="sRGB">
    <feFlood flood-opacity="0" result="BackgroundImageFix"/>
    <feColorMatrix in="SourceAlpha" type="matrix" values="0 0 0 0 0 0 0 0 0 0 0 0 0 0 0 0 0 0 127 0" result="hardAlpha"/>
    <feOffset dy="2"/>
    <feGaussianBlur stdDeviation="2.5"/>
    <feComposite in2="hardAlpha" operator="out"/>
    <feColorMatrix type="matrix" values="0 0 0 0 1 0 0 0 0 0.501961 0 0 0 0 0.00392157 0 0 0 1 0"/>
    <feBlend mode="normal" in2="BackgroundImageFix" result="effect1_dropShadow_1629_16535"/>
    <feBlend mode="normal" in="SourceGraphic" in2="effect1_dropShadow_1629_16535" result="shape"/>
    </filter>
    </defs>
    </svg>
    