<svg width="35" height="32" viewBox="0 0 35 32" fill="none" xmlns="http://www.w3.org/2000/svg">
    <path d="M23.4989 11.1158C23.4989 14.5286 23.4989 17.9423 23.4989 21.3568C23.5039 21.5655 23.492 21.7743 23.4631 21.9815C23.3339 22.7343 22.4801 23.0763 21.8025 22.6013C20.5459 21.7214 19.3116 20.8179 18.0996 19.8907C17.0629 19.0953 16.9215 19.1004 15.8726 19.9133C14.703 20.819 13.5042 21.6922 12.279 22.5469C11.493 23.0997 10.6194 22.7426 10.5166 21.8619C10.5022 21.695 10.4971 21.5275 10.5016 21.3601C10.5016 14.4904 10.5016 7.6213 10.5016 0.752707C10.5016 0.613038 10.5016 0.473369 10.5119 0.334536C10.5242 0.120433 10.6448 0 10.8974 0C11.0227 0 11.1481 0 11.2744 0H22.7204C23.4876 0 23.497 0.00752783 23.497 0.709218L23.4989 11.1158Z" fill="#EDEDED"/>
    <path d="M8.08824 1.5H5C3.34314 1.5 2 2.84315 2 4.5V27C2 28.6568 3.34315 30 5 30H30C31.6569 30 33 28.6568 33 27V4.5C33 2.84314 31.6569 1.5 30 1.5H25.9706" stroke="#EDEDED" stroke-width="3"/>
    </svg>
    