<svg width="22" height="28" viewBox="0 0 22 28" fill="none" xmlns="http://www.w3.org/2000/svg">
    <path d="M21.625 17.7191C21.625 16.8737 21.2892 16.063 20.6914 15.4652C20.0936 14.8674 19.2829 14.5316 18.4375 14.5316H3.5625C2.71712 14.5316 1.90637 14.8674 1.3086 15.4652C0.710825 16.063 0.375 16.8737 0.375 17.7191V18.7816C0.375 22.97 4.3275 27.2816 11 27.2816C17.6725 27.2816 21.625 22.97 21.625 18.7816V17.7191ZM16.8438 6.56287C16.8438 5.30306 16.4368 4.07695 15.6833 3.06731C14.9298 2.05768 13.8702 1.31858 12.6624 0.960195C11.4546 0.601809 10.1634 0.643324 8.98115 1.07855C7.79891 1.51378 6.78897 2.31942 6.10188 3.37537H2.5C2.21821 3.37537 1.94796 3.48731 1.7487 3.68657C1.54944 3.88583 1.4375 4.15608 1.4375 4.43787V8.68787C1.4375 8.72187 1.4375 8.75375 1.44175 8.78562H1.4375V10.8129C1.4375 11.6582 1.77333 12.469 2.3711 13.0668C2.96887 13.6645 3.77962 14.0004 4.625 14.0004H5.44738C5.66637 14.0002 5.8818 13.9449 6.07374 13.8394C6.26568 13.734 6.42794 13.5819 6.54551 13.3971C6.66309 13.2123 6.73218 13.0009 6.74642 12.7824C6.76065 12.5639 6.71955 12.3453 6.62693 12.1468C6.53431 11.9484 6.39315 11.7765 6.21651 11.647C6.03986 11.5176 5.83344 11.4348 5.61631 11.4062C5.39918 11.3777 5.17836 11.4044 4.97426 11.4838C4.77017 11.5632 4.58938 11.6927 4.44862 11.8605C4.20092 11.8188 3.976 11.6907 3.81378 11.4989C3.65156 11.3071 3.56253 11.0641 3.5625 10.8129V9.75037H4.09375C4.72487 9.75037 5.3135 9.5655 5.80863 9.24887C6.41008 10.4126 7.3851 11.3405 8.57718 11.8836C9.76925 12.4267 11.1092 12.5535 12.382 12.2437C13.6549 11.9339 14.7866 11.2055 15.5958 10.1752C16.4049 9.14503 16.8444 7.87284 16.8438 6.56287ZM5.15625 6.56287C5.15625 6.84467 5.04431 7.11492 4.84505 7.31417C4.64579 7.51343 4.37554 7.62537 4.09375 7.62537H3.5625V5.50037H5.15625V6.56287Z" fill="#EDEDED"/>
    </svg>
    