<svg width="71" height="71" viewBox="0 0 71 71" fill="none" xmlns="http://www.w3.org/2000/svg">
    <g filter="url(#filter0_d_1629_16520)">
    <circle cx="35.0938" cy="33.1016" r="30" fill="#EDEDED" fill-opacity="0.02" shape-rendering="crispEdges"/>
    </g>
    <path d="M31.6723 39.0176H23.5244C23.3869 39.0176 23.2486 39.0212 23.1111 39.0133C22.4642 38.9768 22.0968 38.6205 22.096 38.0081C22.093 34.4208 22.093 30.8335 22.096 27.2463C22.096 26.6138 22.4642 26.2575 23.1337 26.2246C23.3335 26.2146 23.5341 26.2167 23.7348 26.2167C29.1041 26.2167 34.4735 26.2167 39.8428 26.2167C40.0802 26.2097 40.3178 26.2222 40.5529 26.2539C41.0112 26.3255 41.2983 26.6474 41.3358 27.0874C41.3456 27.2055 41.3441 27.325 41.3441 27.4452C41.3441 30.8894 41.3441 34.3335 41.3441 37.7777C41.3441 38.7293 41.0436 39.0162 40.0457 39.0169C37.2551 39.0183 34.464 39.0185 31.6723 39.0176ZM28.5639 32.6207C28.5639 33.5616 28.5594 34.5031 28.5639 35.4439C28.5639 36.0814 28.9629 36.3025 29.5407 35.9884C31.2628 35.0473 32.9822 34.1022 34.6989 33.153C35.2624 32.8411 35.2609 32.3975 34.6989 32.0849C32.9777 31.1362 31.2563 30.1906 29.5347 29.2481C28.9576 28.9333 28.5646 29.1565 28.5579 29.7969C28.5556 30.7391 28.5639 31.6806 28.5639 32.6207Z" fill="#EDEDED"/>
    <path d="M48.0903 32.617C48.0903 33.9525 48.0903 35.288 48.0903 36.6235C48.0903 37.1379 48.0903 37.1408 47.6191 36.9283C46.018 36.1992 44.4168 35.4702 42.8163 34.744C42.5594 34.6274 42.4527 34.4743 42.4572 34.1924C42.4744 33.1314 42.4714 32.0696 42.4572 31.0093C42.4572 30.7589 42.5451 30.6144 42.7788 30.5085C44.4378 29.7587 46.0941 29.0035 47.7476 28.2427C48.0399 28.1075 48.091 28.2134 48.0903 28.4681C48.088 29.851 48.0903 31.234 48.0903 32.617Z" fill="#EDEDED"/>
    <path d="M31.718 45.1229C29.5705 45.0843 27.6034 44.5155 25.8354 43.3486C25.7843 43.315 25.734 43.2771 25.6851 43.2413C25.3297 42.9744 25.2606 42.6918 25.483 42.4164C25.6972 42.1517 25.9894 42.1238 26.3433 42.3613C27.0835 42.8571 27.8664 43.2714 28.7282 43.5411C31.6406 44.4526 34.3711 44.0913 36.9183 42.4765C37.4517 42.1388 37.7598 42.1188 37.9875 42.4514C38.1941 42.7505 38.0626 43.0467 37.5629 43.3751C35.8062 44.5334 33.8466 45.0857 31.718 45.1229Z" fill="#EDEDED"/>
    <path d="M32.0265 20.1211C34.0791 20.1726 36.0667 20.8171 37.7258 21.9691C37.985 22.1472 38.1405 22.3512 38.0541 22.6609C37.9512 23.0323 37.4973 23.1424 37.1066 22.8792C36.4908 22.451 35.8198 22.0997 35.1102 21.8339C32.1002 20.7528 29.2494 21.0619 26.5633 22.7368C26.431 22.8262 26.2935 22.9083 26.1515 22.9829C25.8855 23.1102 25.6616 23.0194 25.4888 22.8162C25.316 22.613 25.3077 22.3934 25.4843 22.1945C25.6004 22.0706 25.7327 21.9615 25.878 21.8697C27.5791 20.74 29.6522 20.1218 32.0265 20.1211Z" fill="#EDEDED"/>
    <path d="M29.6797 32.6248C29.6797 32.0525 29.6797 31.4801 29.6797 30.9077C29.6797 30.6402 29.7691 30.6008 30.0088 30.7353C31.0322 31.3077 32.0591 31.8743 33.0894 32.4352C33.3224 32.5626 33.3569 32.6599 33.0985 32.8001C32.0571 33.3667 31.0186 33.9391 29.9832 34.5172C29.7345 34.656 29.6827 34.5658 29.6827 34.3426C29.6812 33.7695 29.6797 33.1972 29.6797 32.6248Z" fill="#EDEDED"/>
    <defs>
    <filter id="filter0_d_1629_16520" x="0.09375" y="0.101562" width="70" height="70" filterUnits="userSpaceOnUse" color-interpolation-filters="sRGB">
    <feFlood flood-opacity="0" result="BackgroundImageFix"/>
    <feColorMatrix in="SourceAlpha" type="matrix" values="0 0 0 0 0 0 0 0 0 0 0 0 0 0 0 0 0 0 127 0" result="hardAlpha"/>
    <feOffset dy="2"/>
    <feGaussianBlur stdDeviation="2.5"/>
    <feComposite in2="hardAlpha" operator="out"/>
    <feColorMatrix type="matrix" values="0 0 0 0 1 0 0 0 0 0.337255 0 0 0 0 0 0 0 0 1 0"/>
    <feBlend mode="normal" in2="BackgroundImageFix" result="effect1_dropShadow_1629_16520"/>
    <feBlend mode="normal" in="SourceGraphic" in2="effect1_dropShadow_1629_16520" result="shape"/>
    </filter>
    </defs>
    </svg>
    