<svg width="70" height="70" viewBox="0 0 70 70" fill="none" xmlns="http://www.w3.org/2000/svg">
<g filter="url(#filter0_d_383_3625)">
<circle cx="35" cy="33" r="30" fill="#EDEDED" fill-opacity="0.02" shape-rendering="crispEdges"/>
</g>
<path d="M18.9324 24.3148L29.4627 21.9161C29.8118 21.8366 30.1782 21.899 30.4812 22.0897C30.7843 22.2803 30.9993 22.5835 31.0788 22.9326L32.5845 29.543C33.039 29.4819 33.4983 29.463 33.9563 29.4867L32.3951 22.6328C32.236 21.9346 31.8061 21.3281 31.2 20.9469C30.5938 20.5657 29.861 20.4408 29.1628 20.5999L18.6326 22.9985C17.9344 23.1575 17.3279 23.5874 16.9467 24.1936C16.5655 24.7997 16.4406 25.5325 16.5997 26.2307L20.1976 42.0261C20.3566 42.7243 20.7865 43.3307 21.3927 43.712C21.9988 44.0932 22.7316 44.2181 23.4298 44.059L29.0332 42.7827C28.6055 42.453 28.215 42.0777 27.8686 41.6634L23.13 42.7427C22.7809 42.8223 22.4145 42.7598 22.1114 42.5692C21.8083 42.3786 21.5934 42.0754 21.5139 41.7263L27.0515 40.4649C26.8317 40.0624 26.6498 39.6403 26.5082 39.2041L21.2141 40.41L17.9159 25.9309C17.8364 25.5818 17.8988 25.2154 18.0895 24.9123C18.2801 24.6092 18.5833 24.3943 18.9324 24.3148ZM20.5485 25.3312C20.1994 25.4107 19.8962 25.6257 19.7056 25.9288C19.515 26.2318 19.4525 26.5982 19.5321 26.9473L19.8319 28.2636C19.9114 28.6127 20.1263 28.9159 20.4294 29.1066C20.7325 29.2972 21.0989 29.3596 21.448 29.2801L29.3457 27.4811C29.6948 27.4016 29.998 27.1866 30.1886 26.8836C30.3793 26.5805 30.4417 26.2141 30.3622 25.865L30.0623 24.5487C29.9828 24.1996 29.7679 23.8964 29.4648 23.7058C29.1617 23.5152 28.7953 23.4527 28.4462 23.5323L20.5485 25.3312ZM28.746 24.8485L29.0459 26.1648L21.1482 27.9638L20.8483 26.6475L28.746 24.8485Z" fill="#10788E"/>
<g clip-path="url(#clip0_383_3625)">
<path d="M30.5 24L31.5 31.5L34.5 29.5L32 20.5L30.5 24Z" fill="#131313"/>
<path d="M35.1439 22.4573L45.7633 24.4242C46.1153 24.4894 46.427 24.6918 46.6299 24.9868C46.8327 25.2818 46.91 25.6454 46.8448 25.9974L45.6101 32.6638C46.0517 32.7876 46.4809 32.9521 46.8921 33.1552L48.1722 26.2433C48.3027 25.5392 48.148 24.8121 47.7423 24.222C47.3367 23.6319 46.7132 23.2271 46.0091 23.0967L35.3897 21.1299C34.6856 20.9995 33.9585 21.1541 33.3684 21.5598C32.7783 21.9655 32.3736 22.5889 32.2432 23.293L29.2929 39.2221C29.1625 39.9262 29.3171 40.6533 29.7228 41.2434C30.1284 41.8335 30.7519 42.2383 31.456 42.3687L37.1069 43.4153C36.8446 42.9432 36.6346 42.4439 36.4806 41.9263L31.7019 41.0413C31.3498 40.9761 31.0381 40.7737 30.8353 40.4786C30.6324 40.1836 30.5551 39.82 30.6203 39.468L36.2048 40.5023C36.1623 40.0456 36.1624 39.586 36.2051 39.1294L30.8662 38.1406L33.5706 23.5389C33.6358 23.1868 33.8382 22.8751 34.1332 22.6723C34.4283 22.4694 34.7918 22.3921 35.1439 22.4573ZM36.2254 24.0306C35.8734 23.9654 35.5098 24.0427 35.2148 24.2455C34.9197 24.4484 34.7174 24.7601 34.6521 25.1122L34.4063 26.4396C34.3411 26.7916 34.4184 27.1552 34.6212 27.4502C34.8241 27.7453 35.1358 27.9477 35.4879 28.0129L43.4524 29.488C43.8045 29.5532 44.168 29.4759 44.463 29.2731C44.7581 29.0702 44.9605 28.7585 45.0257 28.4064L45.2715 27.079C45.3367 26.727 45.2594 26.3634 45.0566 26.0684C44.8538 25.7733 44.542 25.5709 44.19 25.5057L36.2254 24.0306ZM43.9441 26.8332L43.6983 28.1606L35.7337 26.6854L35.9796 25.358L43.9441 26.8332ZM49.573 40.9188C49.2796 42.5031 48.3689 43.9059 47.0412 44.8186C45.7134 45.7314 44.0775 46.0793 42.4933 45.7859C40.909 45.4925 39.5062 44.5817 38.5935 43.254C37.6807 41.9263 37.3328 40.2904 37.6262 38.7061C37.9196 37.1219 38.8304 35.7191 40.1581 34.8063C41.4858 33.8936 43.1217 33.5456 44.706 33.8391C46.2902 34.1325 47.693 35.0432 48.6058 36.3709C49.5185 37.6987 49.8665 39.3346 49.573 40.9188V40.9188ZM43.4458 37.0847C43.3707 37.0097 43.2773 36.9555 43.1748 36.9277C43.0723 36.8998 42.9644 36.8991 42.8616 36.9257C42.778 36.9454 42.6991 36.9812 42.6292 37.031C42.4821 37.1348 42.3815 37.2921 42.349 37.4692L41.593 41.5511C41.5759 41.6389 41.5763 41.7292 41.5942 41.8169C41.6122 41.9046 41.6472 41.9879 41.6975 42.0619C41.7469 42.1334 41.8082 42.1958 41.8788 42.2465C42.0021 42.3332 42.1531 42.371 42.3027 42.3525C42.3676 42.3437 42.431 42.3258 42.491 42.2995L45.924 40.7839C46.028 40.74 46.1184 40.669 46.1858 40.5784C46.2549 40.4873 46.3013 40.3812 46.3215 40.2687C46.3416 40.1562 46.3348 40.0406 46.3016 39.9312C46.2679 39.8234 46.2069 39.726 46.1246 39.6486L43.4458 37.0847V37.0847Z" fill="#10788E"/>
</g>
<defs>
<filter id="filter0_d_383_3625" x="0" y="0" width="70" height="70" filterUnits="userSpaceOnUse" color-interpolation-filters="sRGB">
<feFlood flood-opacity="0" result="BackgroundImageFix"/>
<feColorMatrix in="SourceAlpha" type="matrix" values="0 0 0 0 0 0 0 0 0 0 0 0 0 0 0 0 0 0 127 0" result="hardAlpha"/>
<feOffset dy="2"/>
<feGaussianBlur stdDeviation="2.5"/>
<feComposite in2="hardAlpha" operator="out"/>
<feColorMatrix type="matrix" values="0 0 0 0 0.0628125 0 0 0 0 0.46914 0 0 0 0 0.558333 0 0 0 1 0"/>
<feBlend mode="normal" in2="BackgroundImageFix" result="effect1_dropShadow_383_3625"/>
<feBlend mode="normal" in="SourceGraphic" in2="effect1_dropShadow_383_3625" result="shape"/>
</filter>
<clipPath id="clip0_383_3625">
<rect width="27" height="27" fill="white" transform="translate(27.917 17) rotate(10.493)"/>
</clipPath>
</defs>
</svg>
