<svg width="34" height="34" viewBox="0 0 34 34" fill="none" xmlns="http://www.w3.org/2000/svg">
<path d="M24.0502 26.9997L17.0002 22.7497L9.95016 26.9997L11.8168 18.983L5.60016 13.5997L13.8002 12.8997L17.0002 5.33301L20.2002 12.883L28.4002 13.583L22.1835 18.9663L24.0502 26.9997ZM17.0002 0.333008C7.7835 0.333008 0.333496 7.83301 0.333496 16.9997C0.333496 21.4199 2.08944 25.6592 5.21505 28.7848C6.76269 30.3324 8.60001 31.5601 10.6221 32.3977C12.6442 33.2352 14.8115 33.6663 17.0002 33.6663C21.4204 33.6663 25.6597 31.9104 28.7853 28.7848C31.9109 25.6592 33.6668 21.4199 33.6668 16.9997C33.6668 14.811 33.2357 12.6437 32.3982 10.6216C31.5606 8.59952 30.3329 6.7622 28.7853 5.21456C27.2376 3.66692 25.4003 2.43926 23.3782 1.60168C21.3561 0.764104 19.1889 0.333008 17.0002 0.333008Z" fill="#EDEDED"/>
</svg>
