<svg width="60" height="60" viewBox="0 0 60 60" fill="none" xmlns="http://www.w3.org/2000/svg">
<circle cx="30" cy="30" r="29.5" fill="#040404" stroke="#FF5600"/>
<path d="M30.1043 24.4587C30.1043 23.1174 31.1797 22.042 32.521 22.042H36.7502C38.0793 22.042 39.1668 23.1295 39.1668 24.4587V27.0687C37.7652 27.5641 36.7502 28.8932 36.7502 30.4641V32.917H30.1043V24.4587ZM22.2502 30.452V32.917H28.896V24.4587C28.896 23.1174 27.8206 22.042 26.4793 22.042H22.2502C20.921 22.042 19.8335 23.1295 19.8335 24.4587V27.0566C21.2352 27.552 22.2502 28.8932 22.2502 30.452ZM39.9643 28.1199C38.7802 28.3132 37.9585 29.437 37.9585 30.6453V34.1253H21.0418V30.5003C21.0418 29.8594 20.7872 29.2447 20.334 28.7915C19.8808 28.3383 19.2661 28.0837 18.6252 28.0837C17.9842 28.0837 17.3695 28.3383 16.9163 28.7915C16.4631 29.2447 16.2085 29.8594 16.2085 30.5003V36.542C16.2085 37.8712 17.296 38.9587 18.6252 38.9587V41.3753H21.0418V38.9587H37.9585V41.3753H40.3752V38.9587C41.7043 38.9587 42.7918 37.8712 42.7918 36.542V30.5003C42.7918 29.0382 41.4747 27.8662 39.9643 28.1199V28.1199Z" fill="#FF5600"/>
</svg>
