<svg width="27" height="26" viewBox="0 0 27 26" fill="none" xmlns="http://www.w3.org/2000/svg">
<path d="M19.0639 0C19.0788 0.00935172 19.0749 0.0187045 19.0639 0.0290728C19.0529 0.039441 19.0501 0.037408 19.0422 0.0290728C19.0342 0.0207375 19.0279 0.00874183 19.0422 0H19.0639Z" fill="#0F2B85"/>
<path d="M10.8473 15.1462C10.1696 15.1447 9.49239 15.1433 8.81555 15.1419C8.45327 15.1419 8.09079 15.1446 7.72851 15.1419C7.47642 15.1395 7.28756 14.9222 7.32191 14.6625C7.3703 14.3005 7.43149 13.94 7.48821 13.579C7.55489 13.1545 7.62205 12.7301 7.68968 12.3059C7.75934 11.8684 7.82921 11.4309 7.89928 10.9932C7.9501 10.6724 7.9989 10.3512 8.04972 10.0304C8.1347 9.49247 8.22022 8.95461 8.30628 8.41682C8.36863 8.02242 8.4307 7.62795 8.4925 7.23342C8.56461 6.77261 8.63651 6.31133 8.7082 5.84957C8.80436 5.23134 8.8989 4.6125 8.99689 3.99447C9.12232 3.20161 9.25101 2.41118 9.37746 1.61934C9.40145 1.46951 9.40389 1.31439 9.47098 1.17472C9.60678 0.891529 9.83834 0.740681 10.1476 0.739868C11.8713 0.735192 13.5953 0.729499 15.3189 0.741697C15.9857 0.746373 16.6486 0.815902 17.2974 0.991958C17.877 1.14951 18.4165 1.38209 18.8532 1.80393C19.3129 2.24773 19.6158 2.77976 19.7178 3.41995C19.7815 3.81862 19.7766 4.21546 19.7253 4.61392C19.7138 4.70378 19.6908 4.79424 19.7146 4.88593C19.6919 4.91987 19.6785 4.9591 19.6755 4.99978C19.6434 5.24842 19.5834 5.49136 19.5184 5.73166C19.3812 6.2399 19.1949 6.72782 18.9374 7.18788C18.6471 7.7069 18.2809 8.16371 17.8215 8.54063C17.1148 9.11901 16.2916 9.44449 15.4022 9.6114C14.8094 9.72281 14.2088 9.75533 13.6065 9.75371C13.1629 9.75371 12.7193 9.75167 12.2757 9.75513C12.0618 9.75676 11.8959 9.86085 11.7642 10.0235C11.6373 10.1796 11.6038 10.3679 11.5745 10.5604C11.5082 10.9971 11.4322 11.4319 11.3635 11.8682C11.2974 12.2882 11.2372 12.7091 11.1718 13.1287C11.1067 13.545 11.0388 13.9608 10.9717 14.3767C10.9307 14.6335 10.8892 14.89 10.8473 15.1462Z" fill="#0F2B85"/>
<path d="M10.8477 15.146C10.8894 14.8898 10.931 14.6337 10.9723 14.3775C11.0394 13.9615 11.1073 13.5458 11.1723 13.1294C11.2378 12.7094 11.298 12.2886 11.3641 11.869C11.4328 11.4327 11.5088 10.9979 11.5751 10.5612C11.6044 10.3687 11.6379 10.1804 11.7648 10.0243C11.8965 9.86163 12.0624 9.75754 12.2763 9.75592C12.7199 9.75246 13.1634 9.75368 13.607 9.75449C14.2094 9.75449 14.81 9.72298 15.4028 9.61219C16.2922 9.44528 17.1154 9.1198 17.822 8.54141C18.2815 8.16511 18.6476 7.70789 18.9379 7.18867C19.1955 6.72819 19.3817 6.23967 19.519 5.73244C19.584 5.49153 19.644 5.24859 19.6761 5.00057C19.6791 4.95988 19.6925 4.92065 19.7151 4.88672C19.9184 4.96966 20.0874 5.10567 20.2453 5.25266C20.6316 5.61107 20.8607 6.05528 20.9675 6.57145C21.0598 7.01871 21.0585 7.4621 21.0081 7.91322C20.9268 8.63412 20.7469 9.32655 20.4289 9.97914C20.0754 10.7013 19.5631 11.2888 18.8719 11.7094C18.3697 12.0144 17.8218 12.1973 17.2455 12.3085C16.6736 12.4197 16.0972 12.4417 15.5174 12.4289C15.1399 12.4203 14.8466 12.6493 14.7939 13.043C14.7368 13.4714 14.6516 13.8969 14.5827 14.3238C14.4841 14.9441 14.393 15.5658 14.2926 16.1858C14.2641 16.3605 14.2519 16.5418 14.1328 16.6912C14.0108 16.8445 13.852 16.933 13.6623 16.9352C12.7784 16.9417 11.8936 16.9407 11.0105 16.9384C10.7743 16.9384 10.609 16.7191 10.6491 16.4751C10.7178 16.055 10.7871 15.6352 10.857 15.2159C10.8619 15.1878 10.8467 15.1691 10.8477 15.146Z" fill="#4699DA"/>
<path d="M3.18016 18.7384C3.58676 18.7462 4.04926 18.7063 4.50689 18.7791C4.92141 18.8454 5.28979 19.0005 5.5248 19.3735C5.68459 19.6271 5.72037 19.9123 5.70187 20.204C5.66914 20.7198 5.54371 21.2077 5.22087 21.6243C4.90413 22.0329 4.46358 22.2203 3.96713 22.3033C3.60323 22.3643 3.23688 22.3319 2.87176 22.3425C2.69773 22.3476 2.59405 22.4342 2.56783 22.6068C2.50331 23.0284 2.43941 23.4502 2.37612 23.8719C2.35009 24.0433 2.24662 24.1362 2.07341 24.1372C1.77862 24.1389 1.48384 24.1393 1.18926 24.1372C1.05143 24.136 0.978644 24.0388 1.00629 23.9077C1.07582 23.5824 1.11709 23.2541 1.16995 22.927C1.23948 22.4957 1.30772 22.0643 1.37467 21.6328C1.44399 21.1916 1.5119 20.7501 1.58122 20.3089C1.63123 19.9912 1.68287 19.6738 1.73349 19.3563C1.75382 19.2327 1.77232 19.1089 1.79326 18.9854C1.8205 18.8261 1.92195 18.7415 2.09028 18.7397C2.43609 18.7374 2.7817 18.7384 3.18016 18.7384ZM3.42941 19.8253H3.2379C3.0405 19.8253 3.01081 19.8499 2.97625 20.0418C2.97219 20.0652 2.96873 20.0888 2.96507 20.1121C2.9112 20.4634 2.85854 20.8149 2.80243 21.1656C2.79166 21.2327 2.80711 21.2593 2.87664 21.2612C3.12425 21.2677 3.37187 21.2642 3.61583 21.2217C3.8541 21.1811 4.05028 21.0664 4.15213 20.8355C4.21443 20.6884 4.24685 20.5304 4.24748 20.3707C4.25236 20.1093 4.13383 19.9544 3.88439 19.8753C3.72846 19.8261 3.56826 19.8356 3.42941 19.8253Z" fill="#0F2B85"/>
<path d="M15.5409 24.1334C15.3851 24.1334 15.2292 24.1348 15.0733 24.1334C14.9401 24.132 14.8732 24.0682 14.8903 23.9374C14.9188 23.7138 14.9611 23.4902 14.996 23.2665C15.0501 22.9228 15.1026 22.579 15.1562 22.2354C15.1922 22.0051 15.2296 21.7752 15.2656 21.5442C15.3038 21.3002 15.3408 21.0573 15.3795 20.814C15.4343 20.4669 15.4905 20.1201 15.5453 19.7731C15.5844 19.5263 15.6212 19.2791 15.6614 19.0325C15.697 18.8137 15.7732 18.756 15.9952 18.7493C16.4183 18.7364 16.8412 18.7586 17.2638 18.7476C17.5212 18.7409 17.7778 18.7381 18.0345 18.7531C18.3159 18.7694 18.5928 18.806 18.8542 18.9215C19.3141 19.1248 19.5454 19.4943 19.5688 19.9786C19.5942 20.5119 19.4729 21.0229 19.1866 21.4798C18.9156 21.9122 18.5082 22.1555 18.0136 22.2616C17.7658 22.3149 17.5125 22.3381 17.2592 22.3308C17.0762 22.3257 16.8932 22.3275 16.7102 22.3401C16.5757 22.3497 16.4687 22.4269 16.446 22.5603C16.3957 22.8463 16.3528 23.1338 16.3077 23.4206C16.2786 23.6036 16.2528 23.7882 16.2221 23.9716C16.2063 24.0673 16.1294 24.1304 16.0284 24.1318C15.8662 24.135 15.7035 24.1334 15.5409 24.1334ZM16.9719 21.262C17.1072 21.2667 17.2427 21.2592 17.3767 21.2395C17.6273 21.2086 17.8528 21.1295 17.9914 20.8983C18.0606 20.7831 18.086 20.6519 18.1043 20.5216C18.1618 20.1126 17.9941 19.8826 17.6025 19.8444C17.4244 19.824 17.2451 19.8156 17.0658 19.8194C16.9253 19.8249 16.8662 19.8804 16.8487 20.0215C16.833 20.149 16.8221 20.2777 16.795 20.4029C16.7397 20.6576 16.7202 20.9176 16.673 21.1732C16.6623 21.2305 16.6852 21.2641 16.7495 21.2622C16.8229 21.2604 16.8975 21.2618 16.9719 21.262Z" fill="#4699DA"/>
<path d="M22.6733 24.1341C22.5412 24.1341 22.409 24.1341 22.2769 24.1341C22.1346 24.133 22.072 24.0621 22.0899 23.9232C22.0972 23.8659 22.1472 23.7887 22.0921 23.7565C22.0445 23.7285 21.9998 23.8094 21.9559 23.8425C21.5054 24.1843 21.0022 24.2796 20.4515 24.1881C19.7399 24.0688 19.349 23.465 19.3022 22.8291C19.2604 22.2623 19.4114 21.7483 19.7483 21.2976C20.1329 20.7827 20.6505 20.4932 21.3011 20.4641C21.5694 20.4523 21.8345 20.471 22.0921 20.5607C22.2501 20.6156 22.3844 20.6983 22.4834 20.8345C22.5013 20.8589 22.5176 20.8955 22.5501 20.8892C22.5892 20.8823 22.5735 20.84 22.5792 20.8122C22.5873 20.7715 22.594 20.7325 22.6014 20.6926C22.6193 20.5946 22.6764 20.5477 22.7776 20.5479C23.0791 20.5479 23.3806 20.5462 23.6821 20.5479C23.7935 20.5479 23.8634 20.6326 23.8447 20.743C23.7789 21.1496 23.7215 21.5577 23.6496 21.9628C23.5748 22.3851 23.5207 22.8112 23.455 23.2353C23.4195 23.4657 23.381 23.6954 23.3395 23.9245C23.3287 23.983 23.2979 24.036 23.2523 24.0743C23.2067 24.1127 23.1492 24.134 23.0897 24.1347C22.9508 24.1373 22.812 24.1347 22.6731 24.1347L22.6733 24.1341ZM20.5552 22.4924C20.5454 22.7221 20.6129 22.9228 20.7979 23.0661C21.0913 23.2938 21.4169 23.294 21.7479 23.1678C22.0789 23.0415 22.2889 22.7896 22.3781 22.4514C22.4562 22.156 22.4263 21.8722 22.1915 21.6441C21.9518 21.4113 21.654 21.3942 21.358 21.4649C20.8711 21.581 20.5556 22.0025 20.5541 22.4924H20.5552Z" fill="#4699DA"/>
<path d="M8.23747 23.7472C8.03702 23.8978 7.8384 24.0303 7.60867 24.1084C7.06973 24.2914 6.53993 24.2875 6.04653 23.9787C5.72755 23.7791 5.55048 23.4646 5.46896 23.1029C5.25346 22.1474 5.7302 21.1165 6.60621 20.6737C7.15918 20.3942 7.73675 20.3742 8.31737 20.5975C8.44209 20.6448 8.54877 20.7301 8.62232 20.8414C8.63696 20.8634 8.64651 20.8951 8.68189 20.8821C8.70913 20.8725 8.70526 20.8441 8.70913 20.8211C8.75731 20.5438 8.75751 20.544 9.04355 20.5434C9.28405 20.5434 9.52456 20.5415 9.76506 20.5413C9.93928 20.5413 9.99519 20.5958 9.97019 20.7713C9.91753 21.1431 9.85492 21.5135 9.79677 21.8845C9.69119 22.5566 9.58588 23.2287 9.48085 23.9006C9.46052 24.0354 9.3546 24.1361 9.21656 24.1377C8.93533 24.1412 8.65417 24.1407 8.37307 24.1361C8.26004 24.1344 8.21044 24.0722 8.21552 23.9568C8.21714 23.9198 8.22487 23.883 8.22873 23.846C8.233 23.8132 8.23503 23.7801 8.23747 23.7472ZM7.47307 23.2401C7.54751 23.241 7.62182 23.2337 7.69467 23.2184C8.16124 23.106 8.46497 22.7736 8.53409 22.2997C8.58247 21.9683 8.39381 21.6097 8.10147 21.504C7.76887 21.384 7.44766 21.4257 7.15207 21.6188C6.8524 21.8146 6.71172 22.1084 6.68631 22.4548C6.66598 22.7366 6.76336 22.9744 7.01667 23.1257C7.15456 23.2071 7.31308 23.2469 7.47307 23.2401Z" fill="#0F2B85"/>
<path d="M11.126 25.378C10.9701 25.378 10.8144 25.3767 10.6584 25.378C10.5944 25.378 10.5387 25.3729 10.5023 25.3091C10.4659 25.2452 10.4832 25.1834 10.5206 25.1285C10.6235 24.9777 10.728 24.828 10.8343 24.6794C11.0323 24.4013 11.2312 24.1235 11.431 23.8459C11.4478 23.8251 11.4588 23.8001 11.4628 23.7736C11.4668 23.747 11.4636 23.7199 11.4535 23.6951C11.3112 23.2793 11.1709 22.8626 11.029 22.4464C10.9023 22.0755 10.7751 21.7046 10.6472 21.3338C10.593 21.174 10.5388 21.014 10.4846 20.8538C10.4702 20.8158 10.4586 20.7768 10.4498 20.7371C10.4295 20.6255 10.4868 20.5441 10.5991 20.5425C10.914 20.5379 11.229 20.5379 11.544 20.5425C11.6751 20.5446 11.7536 20.6279 11.79 20.7493C11.9591 21.3128 12.1277 21.8765 12.2956 22.4403C12.3035 22.4673 12.2956 22.5066 12.3377 22.5115C12.3722 22.5151 12.3783 22.4836 12.3938 22.4617C12.7975 21.8653 13.2014 21.2694 13.6054 20.6738C13.6325 20.6307 13.6706 20.5955 13.7158 20.5719C13.761 20.5484 13.8117 20.5373 13.8626 20.5399C14.1572 20.5423 14.4522 20.5413 14.7466 20.5399C14.8185 20.5399 14.8856 20.5502 14.9202 20.62C14.9547 20.6897 14.9405 20.7554 14.8956 20.82C14.5418 21.3275 14.1894 21.8357 13.8384 22.3448C13.1757 23.3 12.5135 24.2558 11.8518 25.2123C11.7705 25.3296 11.6818 25.3926 11.5338 25.3794C11.398 25.3686 11.2616 25.378 11.126 25.378Z" fill="#0F2B85"/>
<path d="M24.5639 24.1339C24.4352 24.1339 24.3063 24.1356 24.1776 24.1339C24.0445 24.1317 23.9776 24.064 24.0005 23.9339C24.0615 23.5911 24.1022 23.2457 24.1658 22.9034C24.2284 22.5649 24.2693 22.2223 24.3224 21.8818C24.371 21.5716 24.424 21.2619 24.4732 20.9515C24.5263 20.6146 24.5749 20.2769 24.6277 19.9401C24.6826 19.5898 24.7406 19.2397 24.7971 18.8896C24.8117 18.7988 24.8684 18.7567 24.9575 18.7502C25.2584 18.7282 25.5592 18.7589 25.8601 18.7547C25.9673 18.7532 26.0158 18.8337 25.9975 18.958C25.9664 19.1684 25.9311 19.3782 25.8985 19.5882C25.8437 19.9419 25.7912 20.2959 25.7359 20.6494C25.6808 20.9964 25.6223 21.343 25.5664 21.6899C25.4617 22.3404 25.3559 22.9892 25.2551 23.6395C25.2417 23.7263 25.2256 23.8127 25.2116 23.8993C25.1888 24.0394 25.0912 24.1301 24.9504 24.1331C24.8205 24.136 24.6918 24.1337 24.5639 24.1339Z" fill="#4699DA"/>
</svg>
