<svg width="40" height="14" viewBox="0 0 40 14" fill="none" xmlns="http://www.w3.org/2000/svg">
<path d="M35.9326 0.223827C36.3449 0.223827 36.7579 0.236203 37.1702 0.218412C37.3636 0.21029 37.427 0.279132 37.4611 0.453945C37.5879 1.11143 37.7252 1.76427 37.8614 2.41865C38.0014 3.0916 38.146 3.7634 38.2849 4.43635C38.4202 5.09074 38.5486 5.74667 38.684 6.40106C38.7946 6.93594 38.9122 7.46888 39.0235 8.00299C39.1349 8.5371 39.2425 9.07275 39.3527 9.60763C39.512 10.3811 39.6719 11.1555 39.8323 11.9309C39.8845 12.1823 39.9355 12.4336 39.9939 12.6843C40.0272 12.8274 39.9328 12.8134 39.8493 12.8134C39.3145 12.8134 38.7796 12.8134 38.2446 12.8134C37.9097 12.8134 37.5744 12.8042 37.2391 12.8185C37.0886 12.825 37.0283 12.7659 37.0016 12.634C36.9204 12.2305 36.8381 11.8273 36.7549 11.4246C36.7293 11.2985 36.7003 11.1732 36.6775 11.0467C36.6531 10.9145 36.5499 10.9396 36.4648 10.9392C35.9233 10.9369 35.3819 10.9392 34.8404 10.9392C34.1253 10.9392 33.4094 10.9454 32.6947 10.9361C32.5265 10.9338 32.4592 10.9992 32.4085 11.1488C32.2395 11.6474 32.055 12.1409 31.8806 12.6375C31.8346 12.7686 31.7646 12.8231 31.6141 12.8219C30.6217 12.8127 29.629 12.8112 28.6361 12.8177C28.4737 12.8177 28.4454 12.779 28.5073 12.6301C29.081 11.2605 29.652 9.89009 30.2203 8.51892C30.9817 6.68597 31.7423 4.85301 32.5021 3.02006C32.7558 2.4086 33.0026 1.79366 33.264 1.18568C33.539 0.545606 34.0337 0.226921 34.7317 0.227308H35.9307L35.9326 0.223827ZM34.7538 8.37621C35.1209 8.37621 35.4881 8.37621 35.8553 8.37621C36.1009 8.37621 36.1186 8.35648 36.0726 8.12598C35.9973 7.74773 35.92 7.36987 35.8406 6.9924C35.6253 5.96106 35.4088 4.92972 35.1912 3.89837C35.1804 3.84693 35.2059 3.75992 35.1286 3.75682C35.0512 3.75373 35.0415 3.83727 35.0199 3.89799C34.8876 4.27314 34.7553 4.64829 34.6196 5.02228C34.239 6.07322 33.8579 7.12364 33.4763 8.17355C33.4179 8.33444 33.4516 8.37543 33.631 8.37582C34.0066 8.37698 34.3802 8.37621 34.7538 8.37621Z" fill="#EDEDED"/>
<path d="M8.4429 8.74743C8.70706 8.07951 8.96231 7.43595 9.21641 6.79162C9.63178 5.73449 10.0463 4.67646 10.4598 3.61753C10.8721 2.5644 11.2875 1.51282 11.6924 0.456981C11.7585 0.284102 11.8378 0.216033 12.0362 0.218741C13.0031 0.232277 13.97 0.224542 14.9369 0.224542C15.1511 0.224542 15.1651 0.245039 15.0835 0.441897C14.4879 1.87108 13.8923 3.30013 13.2967 4.72906C12.5835 6.44393 11.871 8.15853 11.1591 9.87288C10.7797 10.7864 10.3972 11.6987 10.0232 12.6146C9.96478 12.7585 9.89284 12.8192 9.73002 12.8176C8.71789 12.8103 7.70614 12.8122 6.69439 12.8176C6.55787 12.8176 6.50295 12.7658 6.47046 12.6378C6.22951 11.6856 5.97967 10.7353 5.73563 9.78316C5.50087 8.8623 5.27539 7.93912 5.03947 7.01864C4.80471 6.10436 4.56028 5.19201 4.32398 4.27811C4.18745 3.7498 4.04938 3.2215 3.92949 2.68932C3.81037 2.15019 3.50097 1.78587 3.00167 1.55768C2.21597 1.20382 1.39912 0.923639 0.561636 0.720746C0.44329 0.691353 0.318756 0.677816 0.206984 0.632566C0.129633 0.600852 -0.0293242 0.63566 0.00471007 0.465488C0.0329431 0.323937 0.0634985 0.215646 0.267704 0.216806C2.00113 0.227635 3.73495 0.222608 5.46838 0.224155C6.33355 0.224155 6.92567 0.76561 7.05948 1.62266C7.17551 2.35323 7.33331 3.07646 7.4706 3.80317C7.58122 4.39026 7.68796 4.97852 7.7978 5.56561C7.91382 6.18441 8.03217 6.80322 8.14587 7.42203C8.20698 7.75038 8.2619 8.07951 8.32146 8.40902C8.34196 8.5177 8.34892 8.62793 8.4429 8.74743Z" fill="#EDEDED"/>
<path d="M22.9584 13.0235C21.7982 12.9806 20.6526 12.8475 19.555 12.4353C19.4003 12.3769 19.367 12.3057 19.4038 12.1467C19.5291 11.6022 19.6382 11.0538 19.7519 10.5069C19.8029 10.2617 19.8559 10.0169 19.9012 9.77207C19.9321 9.6046 20.0276 9.64676 20.1266 9.69472C20.5172 9.87726 20.911 10.0501 21.3287 10.1635C22.164 10.3897 23.0107 10.4883 23.8696 10.3437C24.2254 10.2837 24.5658 10.1577 24.845 9.91246C25.3114 9.5025 25.3308 8.89066 24.8945 8.44976C24.5441 8.09588 24.1013 7.88355 23.6677 7.66117C22.9561 7.29607 22.2603 6.91435 21.674 6.35587C20.8986 5.6164 20.5795 4.71449 20.7315 3.66407C20.9013 2.49298 21.5332 1.60886 22.5175 0.968395C23.1901 0.530203 23.9315 0.276106 24.7182 0.129913C25.5883 -0.0276175 26.4783 -0.0419878 27.3531 0.0873701C27.9129 0.168515 28.4633 0.305064 28.996 0.495008C29.1508 0.54954 29.1585 0.628439 29.1326 0.7522C29.0521 1.13638 28.9718 1.52042 28.8916 1.90434C28.8197 2.2501 28.7454 2.59547 28.6758 2.942C28.6228 3.20422 28.6139 3.21273 28.3722 3.11178C27.5649 2.76803 26.6938 2.59968 25.8165 2.6179C25.4685 2.62525 25.1239 2.67166 24.799 2.8136C24.4354 2.97255 24.1291 3.19339 24.0618 3.61186C23.9911 4.0516 24.2746 4.31962 24.589 4.54973C25.0736 4.90477 25.6228 5.14959 26.1453 5.43927C26.7552 5.77768 27.3392 6.14973 27.8114 6.67378C28.4387 7.36994 28.641 8.19334 28.5536 9.10724C28.4144 10.5661 27.6343 11.5844 26.3754 12.2666C25.6359 12.6677 24.8338 12.8653 24.0015 12.9574C23.6538 12.9957 23.3084 13.0347 22.9584 13.0235Z" fill="#EDEDED"/>
<path d="M15.5022 12.8136C15.0381 12.8136 14.574 12.8078 14.1099 12.8167C13.9505 12.8198 13.9041 12.778 13.9393 12.6171C14.1806 11.5187 14.4186 10.4195 14.6533 9.31927C14.8656 8.3199 15.0675 7.31821 15.279 6.31845C15.4894 5.32526 15.7075 4.33401 15.9195 3.34044C16.0549 2.70539 16.1836 2.06957 16.3167 1.43414C16.3921 1.076 16.4714 0.718254 16.5456 0.359734C16.5661 0.262272 16.6176 0.219342 16.7193 0.219729C17.6924 0.22205 18.6653 0.222823 19.6381 0.22205C19.7433 0.22205 19.7893 0.245254 19.7623 0.369015C19.5832 1.18545 19.4107 2.00305 19.2382 2.82065C19.1017 3.46807 18.9702 4.11588 18.8329 4.76292C18.6716 5.52367 18.5057 6.28325 18.344 7.04477C18.2064 7.69219 18.0733 8.34001 17.9368 8.98743C17.8038 9.6163 17.6661 10.2448 17.5338 10.8736C17.4178 11.4205 17.2994 11.9666 17.1915 12.515C17.1331 12.8124 17.1416 12.8144 16.8353 12.814L15.5022 12.8136Z" fill="#EDEDED"/>
</svg>
