<svg width="70" height="70" viewBox="0 0 70 70" fill="none" xmlns="http://www.w3.org/2000/svg">
<g filter="url(#filter0_d_65_254)">
<circle cx="35" cy="33" r="30" fill="#EDEDED" fill-opacity="0.02" shape-rendering="crispEdges"/>
</g>
<g clip-path="url(#clip0_65_254)">
<g clip-path="url(#clip1_65_254)">
<path d="M36.0639 45.9505H24.7547C24.4901 45.9505 24.2272 45.9383 23.9766 45.8395C23.799 45.7742 23.6481 45.6517 23.5477 45.4913C23.4472 45.3309 23.4029 45.1417 23.4217 44.9534C23.454 44.5333 23.7168 44.2162 24.1065 44.1205C24.3571 44.0595 24.612 44.0686 24.8645 44.0808C25.0608 44.0906 25.1291 44.0247 25.1395 43.8278C25.2182 42.3771 25.306 40.9276 25.3919 39.4769C25.5048 37.5707 25.6139 35.6638 25.7334 33.7582C25.7743 33.1064 25.6968 32.9576 25.0773 32.757C24.8011 32.6667 24.6815 32.4783 24.6821 32.2124C24.6821 31.9594 24.9017 31.7551 25.195 31.7465C26.6268 31.7045 28.061 31.6978 29.4916 31.7398C29.7764 31.7478 29.9794 31.8837 30.0276 32.1807C30.0758 32.4661 29.9544 32.6771 29.6117 32.7551C29.0019 32.8936 28.9568 33.171 28.9873 33.6839C29.1206 35.9454 29.2536 38.2069 29.3861 40.4684C29.4471 41.5234 29.4983 42.5783 29.5599 43.6332C29.5855 44.0674 29.6001 44.0759 30.0239 44.0766C31.1419 44.0766 32.2598 44.0766 33.3778 44.0766C33.7644 44.0766 33.7882 44.0467 33.8107 43.6619C34.0038 40.3251 34.1986 36.9885 34.3949 33.6521C34.4254 33.1338 34.3053 32.9442 33.8083 32.7716C33.4461 32.6454 33.2997 32.4667 33.3369 32.196C33.3772 31.9069 33.59 31.7417 33.9559 31.741C35.3377 31.738 36.7195 31.741 38.1025 31.741C38.3769 31.741 38.5799 31.8484 38.6647 32.1142C38.7324 32.3277 38.661 32.5118 38.4915 32.6631C38.4019 32.7411 38.2885 32.7515 38.183 32.785C37.7366 32.924 37.6049 33.0899 37.6305 33.5625C37.6994 34.8607 37.7805 36.1584 37.8555 37.4566C37.9722 39.4751 38.087 41.4933 38.2 43.5113C38.2311 44.0753 38.2263 44.082 38.7976 44.082C39.905 44.082 41.013 44.0753 42.1204 44.0881C42.3533 44.0881 42.4332 44.0235 42.4466 43.7906C42.5259 42.371 42.6235 40.952 42.7058 39.5324C42.8184 37.5749 42.9265 35.6173 43.0302 33.6595C43.0625 33.057 42.9784 32.9466 42.4064 32.7588C42.1381 32.6704 41.9515 32.5149 41.9795 32.21C42.0045 31.9222 42.2082 31.7971 42.471 31.7514C42.5513 31.7349 42.633 31.7257 42.715 31.724C44.0565 31.7295 45.398 31.7337 46.7396 31.7478C47.1012 31.7514 47.2988 31.9136 47.3354 32.1929C47.3719 32.4722 47.2311 32.6533 46.8743 32.7722C46.3572 32.9448 46.2469 33.1271 46.2798 33.6717C46.4176 35.9328 46.5514 38.1941 46.681 40.4556C46.7469 41.5813 46.8152 42.707 46.8725 43.8332C46.8829 44.032 46.9548 44.0948 47.1488 44.0845C47.3819 44.0645 47.6167 44.0772 47.8464 44.1223C48.3189 44.2296 48.6019 44.5626 48.6001 45.0211C48.6001 45.4602 48.319 45.7962 47.8647 45.9078C47.6756 45.9466 47.4825 45.9622 47.2896 45.9541L36.0639 45.9505Z" fill="#FF8001"/>
<path d="M36.0023 30.6862C31.6626 30.6862 27.3229 30.6862 22.9832 30.6862C22.5636 30.6862 22.1343 30.682 21.8246 30.3368C21.4184 29.8813 21.1794 29.3258 21.0172 28.7514C20.9263 28.4288 21.1831 28.2306 21.4441 28.0916C21.9648 27.8159 22.4899 27.5489 23.0124 27.2775C27.0066 25.2042 31.005 23.1413 34.9906 21.0527C35.6888 20.6869 36.3072 20.6869 37.0029 21.0527C41.4268 23.3618 45.8549 25.6589 50.2873 27.944C50.405 28.005 50.522 28.066 50.6349 28.1343C50.9751 28.3398 51.0867 28.6276 50.9318 28.988C50.7599 29.3886 50.5836 29.7905 50.3361 30.1527C50.13 30.4533 49.8482 30.6362 49.4769 30.6588C49.2939 30.6692 49.111 30.6844 48.9281 30.6844C44.6201 30.6869 40.3115 30.6875 36.0023 30.6862Z" fill="#FF8001"/>
</g>
</g>
<defs>
<filter id="filter0_d_65_254" x="0" y="0" width="70" height="70" filterUnits="userSpaceOnUse" color-interpolation-filters="sRGB">
<feFlood flood-opacity="0" result="BackgroundImageFix"/>
<feColorMatrix in="SourceAlpha" type="matrix" values="0 0 0 0 0 0 0 0 0 0 0 0 0 0 0 0 0 0 127 0" result="hardAlpha"/>
<feOffset dy="2"/>
<feGaussianBlur stdDeviation="2.5"/>
<feComposite in2="hardAlpha" operator="out"/>
<feColorMatrix type="matrix" values="0 0 0 0 1 0 0 0 0 0.501961 0 0 0 0 0.00392157 0 0 0 1 0"/>
<feBlend mode="normal" in2="BackgroundImageFix" result="effect1_dropShadow_65_254"/>
<feBlend mode="normal" in="SourceGraphic" in2="effect1_dropShadow_65_254" result="shape"/>
</filter>
<clipPath id="clip0_65_254">
<rect width="25" height="30.6117" fill="white" transform="translate(23 18)"/>
</clipPath>
<clipPath id="clip1_65_254">
<rect width="30" height="25.1741" fill="white" transform="translate(21 20.7764)"/>
</clipPath>
</defs>
</svg>
