<svg width="40" height="40" viewBox="0 0 40 40" fill="none" xmlns="http://www.w3.org/2000/svg">
<path d="M2.37184 39.9977C1.41459 39.9302 0.622166 39.485 0.210081 38.5149C-0.211463 37.5185 0.0216031 36.6234 0.728229 35.8309C0.780246 35.7722 0.838343 35.7181 0.894413 35.6627L35.6663 0.883377C36.5844 -0.0346952 37.6612 -0.236685 38.7063 0.30916C39.9898 0.977279 40.383 2.67359 39.5257 3.84769C39.3862 4.03809 39.2322 4.21742 39.065 4.38408C33.9453 9.50385 28.8221 14.6196 23.6956 19.7312C23.4835 19.942 23.4645 20.0481 23.6895 20.2717C28.843 25.4058 33.9912 30.5436 39.1339 35.685C40.0452 36.595 40.2337 37.7056 39.6636 38.7628C38.9975 39.9984 37.2849 40.3808 36.1615 39.5397C35.9638 39.391 35.7769 39.2284 35.6021 39.0533C30.4909 33.9417 25.3836 28.8268 20.28 23.7089C20.0483 23.4765 19.9422 23.4805 19.7139 23.7089C14.5959 28.8485 9.47345 33.9808 4.34647 39.106C3.81414 39.6397 3.20007 39.966 2.37184 39.9977Z" fill="#EDEDED"/>
<path d="M0.00683594 2.32037C0.0500711 1.4327 0.499986 0.666627 1.42211 0.243057C2.28547 -0.154166 3.12923 -0.0663444 3.89733 0.520033C4.07567 0.656827 4.24491 0.805087 4.40399 0.96387C8.42397 4.98294 12.4448 9.00134 16.4666 13.0191C16.6754 13.2271 16.7105 13.3406 16.4781 13.5669C15.4769 14.5391 14.4927 15.526 13.5158 16.5265C13.3348 16.7109 13.2456 16.6968 13.0699 16.5218C8.99998 12.441 4.92574 8.3652 0.847221 4.29433C0.331776 3.77821 0.0149425 3.18035 0.00683594 2.32037Z" fill="#EDEDED"/>
</svg>
