<svg width="70" height="70" viewBox="0 0 70 70" fill="none" xmlns="http://www.w3.org/2000/svg">
<g filter="url(#filter0_d_65_269)">
<circle cx="35" cy="33" r="30" fill="#EDEDED" fill-opacity="0.02" shape-rendering="crispEdges"/>
</g>
<g clip-path="url(#clip0_65_269)">
<g clip-path="url(#clip1_65_269)">
<path d="M36.0085 45.5568H22.5907C22.0816 45.5568 22.0021 45.4764 22.0021 44.962C22.0021 44.6765 21.9974 44.391 22.0021 44.1056C22.0088 43.8401 22.1368 43.7197 22.4037 43.7144C22.5778 43.7111 22.7534 43.7045 22.9271 43.7144C23.0889 43.7259 23.1412 43.6583 23.1265 43.5079C23.1198 43.437 23.1265 43.3652 23.1265 43.2938C23.1265 38.7974 23.1247 34.3012 23.1212 29.8051C23.1212 29.413 23.2359 29.1166 23.519 28.8373C24.9093 27.4689 26.283 26.0838 27.6623 24.7044C27.7185 24.6483 27.7751 24.5928 27.8322 24.5379C27.9983 24.3804 28.1934 24.3371 28.4032 24.4227C28.613 24.5084 28.7106 24.6859 28.7139 24.9128C28.7139 24.9842 28.7139 25.0556 28.7139 25.1269C28.7139 31.2173 28.7139 37.3077 28.7139 43.398C28.7139 43.7563 28.6763 43.7087 29.0336 43.7121C29.311 43.7121 29.5889 43.7068 29.8663 43.7121C29.9991 43.7159 30.0566 43.673 30.0438 43.5365C30.0404 43.4731 30.0404 43.4096 30.0438 43.3462V21.221C30.0438 21.1258 30.0438 21.0307 30.0476 20.9355C30.0552 20.7214 30.1699 20.5977 30.3783 20.5653C30.4648 20.5549 30.5519 20.551 30.639 20.5535H41.3685C41.8705 20.5535 41.9576 20.642 41.9576 21.1511C41.9576 28.5658 41.9576 35.9803 41.9576 43.3947C41.9576 43.7482 41.919 43.7068 42.2783 43.7092C42.5638 43.7092 42.8492 43.7059 43.1347 43.7092C43.2465 43.7092 43.296 43.6721 43.2875 43.5579C43.2818 43.487 43.2875 43.4152 43.2875 43.3443V25.1208C43.2875 25.0418 43.2827 24.9618 43.2875 24.8828C43.3041 24.6778 43.4012 24.5203 43.5925 24.4365C43.679 24.3949 43.7759 24.3798 43.871 24.3932C43.9661 24.4066 44.0551 24.4478 44.1268 24.5117C44.1939 24.5664 44.2543 24.6302 44.3171 24.6916C45.7136 26.0876 47.1054 27.4884 48.51 28.8763C48.6312 28.9882 48.7268 29.1249 48.7904 29.2772C48.854 29.4294 48.8839 29.5936 48.8782 29.7585C48.8706 34.2945 48.869 38.8306 48.8735 43.3666C48.8735 43.7625 48.8449 43.7064 49.2194 43.7073C49.9983 43.7073 49.9983 43.7073 49.9983 44.4876C49.9983 44.6937 50.0016 44.9002 49.9983 45.1062C49.9926 45.4264 49.8722 45.543 49.5463 45.5506C49.4749 45.5506 49.4035 45.5506 49.3322 45.5506L36.0085 45.5568ZM40.0829 23.3988H40.091C40.091 23.2166 40.0967 23.0343 40.091 22.8526C40.0815 22.6037 39.9482 22.4719 39.7065 22.4653C39.3506 22.4591 38.9928 22.4619 38.6379 22.4653C38.4118 22.4653 38.2681 22.5928 38.2572 22.8093C38.2401 23.1961 38.2453 23.5844 38.2605 23.9712C38.2691 24.1844 38.4156 24.3 38.6236 24.3043C38.9871 24.3133 39.3516 24.3147 39.7156 24.3043C39.9492 24.2966 40.0729 24.1572 40.081 23.9236C40.0876 23.7471 40.0829 23.5729 40.0829 23.3988ZM31.9118 26.4154C31.9118 26.5815 31.909 26.7485 31.9118 26.9136C31.918 27.1915 32.0379 27.3314 32.3101 27.3418C32.6574 27.3542 33.0062 27.3533 33.3535 27.3418C33.6043 27.3337 33.7389 27.2077 33.7489 26.9588C33.7637 26.5958 33.7641 26.2308 33.7489 25.8678C33.738 25.6299 33.6 25.5081 33.3645 25.5033C33.009 25.4957 32.6507 25.4947 32.2967 25.5033C32.0507 25.5095 31.9237 25.646 31.9161 25.8939C31.9042 26.069 31.9118 26.2413 31.9118 26.4154ZM40.0829 35.5186H40.091C40.091 35.3521 40.0948 35.1856 40.091 35.02C40.0843 34.7545 39.9649 34.6113 39.7075 34.6013C39.352 34.5879 38.9938 34.5894 38.6393 34.6013C38.3919 34.6093 38.2586 34.7411 38.252 34.9919C38.2401 35.3478 38.2382 35.7056 38.252 36.0601C38.2629 36.3227 38.4023 36.4407 38.6678 36.4407C38.9999 36.4436 39.333 36.4436 39.667 36.4407C39.9525 36.4407 40.0796 36.3099 40.0838 36.0163C40.0853 35.8507 40.0829 35.6847 40.0829 35.5186ZM32.8235 37.6417C32.6574 37.6417 32.4904 37.6393 32.3253 37.6417C32.0455 37.6469 31.9156 37.7692 31.9109 38.0447C31.9051 38.3847 31.9051 38.7248 31.9109 39.0648C31.9147 39.3284 32.0422 39.4683 32.2986 39.475C32.6545 39.4845 33.0103 39.4845 33.3659 39.475C33.5971 39.4683 33.7375 39.3375 33.7465 39.1034C33.7608 38.7403 33.7618 38.3759 33.7465 38.0128C33.7356 37.7611 33.5966 37.6474 33.3459 37.6417C33.1713 37.6388 32.9976 37.6417 32.8235 37.6417ZM40.0829 38.5676C40.0829 38.3939 40.0857 38.2198 40.0829 38.0442C40.0772 37.7721 39.9482 37.6384 39.6727 37.6331C39.3333 37.6268 38.9936 37.6268 38.6536 37.6331C38.4033 37.6379 38.2643 37.7583 38.2539 38.0076C38.2386 38.3701 38.2401 38.7346 38.2539 39.0977C38.2624 39.3318 38.4019 39.4669 38.6307 39.4731C38.9938 39.4831 39.3578 39.484 39.7208 39.4731C39.952 39.465 40.0748 39.3227 40.0824 39.0877C40.0872 38.9159 40.0829 38.7413 40.0829 38.5676ZM31.9118 23.3864V23.8622C31.9118 23.8779 31.9118 23.8941 31.9118 23.9098C31.9256 24.1701 32.0503 24.3014 32.3134 24.3076C32.6531 24.3152 32.9938 24.3147 33.3335 24.3076C33.5986 24.3024 33.7384 24.1815 33.7494 23.9217C33.7646 23.5663 33.7637 23.208 33.7494 22.8545C33.7403 22.607 33.6024 22.4738 33.3578 22.4672C33.0024 22.4572 32.6441 22.4562 32.2906 22.4672C32.0431 22.4757 31.9204 22.6147 31.9099 22.8635C31.9047 23.0381 31.9118 23.2142 31.9118 23.3864ZM39.1888 25.5004C39.0152 25.5004 38.841 25.4981 38.6654 25.5004C38.4076 25.5043 38.2682 25.6094 38.2563 25.8597C38.2391 26.2303 38.2444 26.6029 38.2563 26.974C38.2629 27.1953 38.399 27.3299 38.6183 27.3371C38.9895 27.3494 39.3609 27.3485 39.7327 27.3342C39.9382 27.3261 40.0753 27.2 40.0805 26.9854C40.09 26.6048 40.091 26.2265 40.0805 25.8473C40.0743 25.628 39.9378 25.5081 39.7094 25.5009C39.5348 25.4981 39.3606 25.5004 39.1865 25.5004H39.1888ZM35.0902 23.3769C35.0902 23.5587 35.0864 23.7409 35.0902 23.9222C35.0959 24.1568 35.2201 24.2919 35.4561 24.2976C35.8196 24.3065 36.1831 24.3065 36.5467 24.2976C36.7803 24.2914 36.9054 24.1549 36.9083 23.917C36.913 23.5534 36.9135 23.1899 36.9083 22.8264C36.905 22.6047 36.7774 22.4705 36.5548 22.4648C36.1836 22.4562 35.812 22.4557 35.4404 22.4648C35.2201 22.4705 35.0969 22.6075 35.0907 22.8297C35.0859 23.0134 35.0902 23.1951 35.0902 23.3769ZM35.9985 36.4417C36.1646 36.4417 36.3316 36.4417 36.4972 36.4417C36.7793 36.4374 36.9069 36.3166 36.9097 36.0415C36.9135 35.6926 36.9135 35.3437 36.9097 34.9948C36.9069 34.7502 36.7979 34.6141 36.5586 34.6036C36.1874 34.5875 35.8144 34.5875 35.4433 34.6036C35.202 34.6141 35.0935 34.7488 35.0912 34.9929C35.0867 35.3488 35.0867 35.7048 35.0912 36.061C35.0945 36.308 35.2258 36.4341 35.4761 36.4417C35.6502 36.445 35.8244 36.4417 35.9985 36.4417ZM31.9118 41.589C31.9118 41.7631 31.9075 41.9373 31.9118 42.1124C31.9194 42.3636 32.0422 42.4988 32.2891 42.5049C32.645 42.5145 33.0028 42.5135 33.3573 42.5049C33.6014 42.4997 33.738 42.3841 33.747 42.1476C33.7622 41.7765 33.7627 41.4034 33.747 41.0328C33.7356 40.7901 33.6014 40.6788 33.3602 40.674C33.0112 40.6677 32.6633 40.6677 32.3162 40.674C32.0427 40.6788 31.9199 40.8106 31.9132 41.0918C31.9061 41.2569 31.9118 41.4229 31.9118 41.589ZM39.1917 28.538C39.018 28.538 38.8439 28.5356 38.6683 28.538C38.3999 28.5428 38.2653 28.6532 38.2543 28.9187C38.2396 29.2736 38.2429 29.63 38.2543 29.9854C38.261 30.211 38.3795 30.3627 38.6212 30.3661C38.9923 30.3727 39.3639 30.3751 39.7351 30.3661C39.9459 30.3594 40.0757 30.2329 40.0824 30.0197C40.0938 29.6486 40.0976 29.2765 40.09 28.9053C40.0853 28.6703 39.9473 28.548 39.7127 28.5409C39.5357 28.5342 39.362 28.5385 39.1879 28.538H39.1917ZM36.9145 38.5633C36.9145 38.3816 36.9183 38.1998 36.9145 38.0185C36.9083 37.7806 36.7879 37.6493 36.55 37.6441C36.1868 37.6365 35.8233 37.6365 35.4594 37.6441C35.2215 37.6493 35.0993 37.7782 35.0959 38.0185C35.0912 38.3741 35.0912 38.7297 35.0959 39.0853C35.0988 39.3346 35.2234 39.4697 35.4718 39.4764C35.8268 39.4855 36.1831 39.4855 36.5381 39.4764C36.7865 39.4697 36.9088 39.3337 36.9145 39.0853C36.914 38.9111 36.9107 38.7375 36.9107 38.5633H36.9145ZM40.0867 41.5995C40.0867 41.4253 40.09 41.2507 40.0867 41.0761C40.081 40.8101 39.9587 40.6788 39.6956 40.6735C39.3468 40.6664 38.998 40.6669 38.6488 40.6735C38.398 40.6783 38.2682 40.7973 38.2563 41.0542C38.2415 41.4101 38.2453 41.7679 38.2563 42.1238C38.2629 42.3379 38.3738 42.494 38.6036 42.5002C38.9842 42.5111 39.3649 42.5126 39.7455 42.5002C39.9668 42.4926 40.0786 42.3541 40.0872 42.1229C40.0872 41.9482 40.0829 41.7741 40.0829 41.5995H40.0867ZM32.8263 28.5394C32.6526 28.5394 32.4785 28.5347 32.3029 28.5394C32.0512 28.548 31.9161 28.6712 31.9104 28.9172C31.9018 29.2727 31.9028 29.6286 31.9104 29.984C31.9151 30.2219 32.0374 30.357 32.2739 30.3647C32.645 30.3775 33.0166 30.3723 33.3878 30.3647C33.5886 30.3604 33.718 30.249 33.7356 30.0463C33.7679 29.6527 33.7679 29.2571 33.7356 28.8635C33.7189 28.6513 33.5824 28.5418 33.3692 28.5385C33.1903 28.5371 33.0062 28.5394 32.8263 28.5394ZM32.8158 36.4417C32.99 36.4417 33.1641 36.4417 33.3392 36.4417C33.5962 36.4374 33.737 36.3294 33.748 36.0796C33.7646 35.7085 33.7622 35.3354 33.748 34.9638C33.7389 34.7454 33.6052 34.617 33.3759 34.6151C33.0114 34.6127 32.6469 34.6084 32.2815 34.6151C32.0569 34.6203 31.9285 34.7492 31.9232 34.9743C31.9147 35.3383 31.9151 35.7032 31.9232 36.0687C31.9285 36.3147 32.066 36.436 32.3181 36.4412C32.4828 36.4445 32.6474 36.4417 32.8158 36.4417ZM39.1717 33.4041H39.6675C39.6832 33.4041 39.6989 33.4041 39.7151 33.4041C39.953 33.3846 40.0762 33.2614 40.08 33.0235C40.0861 32.6745 40.0861 32.3256 40.08 31.9767C40.0753 31.724 39.9511 31.596 39.6994 31.588C39.3435 31.5794 38.9857 31.5794 38.6307 31.588C38.39 31.5941 38.262 31.7107 38.2501 31.9558C38.2344 32.3112 38.2339 32.6695 38.2501 33.0239C38.261 33.2861 38.3976 33.396 38.6688 33.4046C38.8372 33.4075 39.0037 33.4041 39.1698 33.4041H39.1717ZM32.8349 33.4041C33.009 33.4041 33.1836 33.4094 33.3583 33.4041C33.6033 33.3951 33.7346 33.2895 33.7465 33.0449C33.7641 32.6814 33.7641 32.3155 33.7465 31.9505C33.7351 31.706 33.6038 31.5941 33.3611 31.5884C33.0047 31.5799 32.6474 31.5799 32.291 31.5884C32.0531 31.5941 31.9204 31.7236 31.9147 31.9586C31.9056 32.315 31.9056 32.6723 31.9147 33.0287C31.9204 33.2666 32.0512 33.3918 32.2882 33.4022C32.4676 33.4089 32.6503 33.4022 32.833 33.4032L32.8349 33.4041ZM36.9102 29.4473C36.9102 29.2651 36.9154 29.0828 36.9102 28.9006C36.9021 28.6722 36.7836 28.5461 36.5562 28.5413C36.1841 28.5337 35.8115 28.5333 35.4395 28.5413C35.2154 28.5466 35.0964 28.676 35.0926 28.9072C35.0869 29.2717 35.0869 29.6365 35.0926 30.0016C35.0964 30.23 35.2192 30.3542 35.4461 30.358C35.8101 30.3642 36.1751 30.3632 36.5405 30.358C36.7831 30.3551 36.9045 30.2338 36.9111 29.994C36.9145 29.8118 36.9107 29.629 36.9102 29.4473ZM36.9102 26.4111C36.9102 26.2284 36.9154 26.0462 36.9102 25.864C36.9021 25.6418 36.776 25.5081 36.5533 25.5033C36.1812 25.4952 35.8082 25.4924 35.4357 25.5033C35.2282 25.5104 35.0954 25.6308 35.0926 25.8511C35.0878 26.2237 35.0897 26.5962 35.0926 26.9688C35.0926 27.1877 35.2115 27.3171 35.4257 27.3233C35.8063 27.3347 36.187 27.3337 36.5676 27.3233C36.7946 27.3176 36.9059 27.1896 36.9121 26.9555C36.9145 26.7751 36.9107 26.5924 36.9102 26.4107V26.4111ZM36.9102 32.4958V31.9486C36.9002 31.7174 36.7955 31.5856 36.5667 31.5775C36.186 31.5642 35.8054 31.5651 35.4247 31.5775C35.1997 31.5851 35.0869 31.7255 35.0878 31.9543C35.0878 32.3107 35.0845 32.668 35.0878 33.0239C35.0916 33.2619 35.2134 33.3932 35.4533 33.3994C35.8177 33.4079 36.1827 33.4084 36.5476 33.3994C36.7855 33.3932 36.9016 33.2609 36.9073 33.0187C36.914 32.8441 36.9107 32.6699 36.9107 32.4953L36.9102 32.4958ZM36.9102 41.5976C36.9102 41.4072 36.9145 41.2169 36.9102 41.0266C36.9045 40.8096 36.7827 40.6831 36.5714 40.6764C36.1908 40.6655 35.8125 40.6655 35.4338 40.6764C35.2125 40.6826 35.0955 40.8191 35.0921 41.0471C35.0874 41.4106 35.0869 41.7746 35.0921 42.1381C35.0955 42.365 35.2134 42.4945 35.4418 42.5016C35.813 42.5127 36.1844 42.5127 36.5562 42.5016C36.7941 42.4945 36.9045 42.3622 36.9102 42.1176C36.914 41.9449 36.9107 41.7708 36.9102 41.5971V41.5976Z" fill="#10788E"/>
</g>
</g>
<defs>
<filter id="filter0_d_65_269" x="0" y="0" width="70" height="70" filterUnits="userSpaceOnUse" color-interpolation-filters="sRGB">
<feFlood flood-opacity="0" result="BackgroundImageFix"/>
<feColorMatrix in="SourceAlpha" type="matrix" values="0 0 0 0 0 0 0 0 0 0 0 0 0 0 0 0 0 0 127 0" result="hardAlpha"/>
<feOffset dy="2"/>
<feGaussianBlur stdDeviation="2.5"/>
<feComposite in2="hardAlpha" operator="out"/>
<feColorMatrix type="matrix" values="0 0 0 0 0.0628125 0 0 0 0 0.46914 0 0 0 0 0.558333 0 0 0 1 0"/>
<feBlend mode="normal" in2="BackgroundImageFix" result="effect1_dropShadow_65_269"/>
<feBlend mode="normal" in="SourceGraphic" in2="effect1_dropShadow_65_269" result="shape"/>
</filter>
<clipPath id="clip0_65_269">
<rect width="25" height="30.6117" fill="white" transform="translate(23 18)"/>
</clipPath>
<clipPath id="clip1_65_269">
<rect width="27.999" height="25" fill="white" transform="translate(22 20.5527)"/>
</clipPath>
</defs>
</svg>
