<svg width="70" height="70" viewBox="0 0 70 70" fill="none" xmlns="http://www.w3.org/2000/svg">
<g filter="url(#filter0_d_65_259)">
<circle cx="35" cy="33" r="30" fill="#EDEDED" fill-opacity="0.02" shape-rendering="crispEdges"/>
</g>
<g clip-path="url(#clip0_65_259)">
<g clip-path="url(#clip1_65_259)">
<path d="M25.4528 35.8373C25.1771 35.7002 24.9689 35.5816 24.75 35.4916C24.4845 35.38 24.4022 35.1775 24.437 34.9166C24.46 34.7402 24.5081 34.5662 24.5485 34.3923C24.66 33.9156 24.4886 33.5509 24.0477 33.3422C23.8094 33.2297 23.5659 33.1274 23.328 33.0139C22.9823 32.8491 22.9117 32.6251 23.1076 32.2901C23.8073 31.0908 24.5101 29.8944 25.216 28.7009C25.3832 28.4196 25.4717 28.1301 25.3367 27.8273C25.0497 27.1817 25.1607 26.5552 25.3546 25.9137C25.8195 24.3792 26.4579 22.9107 27.1244 21.4586C27.6077 20.4064 28.5305 19.7706 29.5346 19.2591C30.887 18.5712 32.3401 18.2223 33.8363 18.0479C35.4373 17.8558 37.0587 17.9181 38.6403 18.2326C40.6448 18.6331 42.0586 19.7947 43.0463 21.5358C43.1875 21.7849 43.0739 21.9783 42.7906 21.9834C42.4238 21.9895 42.0571 21.9834 41.6908 21.9834C41.3082 21.9834 40.944 22.0545 40.6279 22.2847C40.5047 22.3742 40.3773 22.4054 40.2515 22.3118C39.8423 22.0049 39.3722 21.9742 38.8883 21.9813C38.494 21.9875 38.4397 21.9041 38.4791 21.5103C38.5635 20.6474 38.2602 19.943 37.5237 19.477C36.7871 19.0111 35.9963 19.0095 35.2587 19.4888C34.5273 19.966 34.2255 20.6704 34.3278 21.5348C34.3692 21.8882 34.2987 21.9819 33.9437 21.987C33.7391 21.99 33.5345 21.987 33.3299 22.012C32.5335 22.1021 31.932 22.7414 31.9274 23.5465C31.9154 25.4984 31.9154 27.4503 31.9274 29.4022C31.9273 29.6058 31.9676 29.8074 32.0458 29.9954C32.1239 30.1834 32.2385 30.3541 32.3828 30.4977C32.5272 30.6413 32.6985 30.755 32.8869 30.8321C33.0753 30.9093 33.2772 30.9485 33.4808 30.9474C35.4245 30.9622 37.3682 30.953 39.3119 30.9515C39.6296 30.9505 39.9392 30.8511 40.1983 30.6671C40.3195 30.5827 40.4448 30.5321 40.5742 30.6292C40.9665 30.9239 41.4156 30.9663 41.8847 30.9551C42.3537 30.9438 42.4028 31.0211 42.3507 31.4748C42.3001 31.8746 42.3742 32.2803 42.5629 32.6364C42.6121 32.7156 42.6366 32.8076 42.6333 32.9008C42.63 32.994 42.5991 33.0841 42.5445 33.1596C42.2463 33.636 41.9913 34.1381 41.7824 34.6599C41.6135 35.0714 41.335 35.4287 40.9773 35.6931C37.9901 37.988 35.0049 40.2845 32.0215 42.5825C31.556 42.9405 31.1402 42.806 30.9673 42.2454C30.9095 42.0587 30.8568 41.8699 30.7975 41.6827C30.5642 40.9426 30.1923 40.6628 29.4113 40.6475C28.7637 40.6347 28.1162 40.6285 27.4676 40.6224C27.1095 40.6193 26.7515 40.6255 26.3934 40.6224C25.3909 40.6111 24.8917 40.0429 25.0042 39.0408C25.0235 38.829 25.0548 38.6185 25.0978 38.4102C25.194 37.9928 25.1019 37.6173 24.8804 37.2639C24.7853 37.1104 24.6881 36.9626 24.5925 36.8112C24.395 36.4997 24.5127 36.1606 24.86 36.0394C25.038 35.9785 25.2129 35.9192 25.4528 35.8373Z" fill="#10788E"/>
<path d="M47.9997 26.4621C47.9997 27.3828 47.9997 28.3035 47.9997 29.2242C47.9997 29.7828 47.7439 30.0339 47.1869 30.035C46.6498 30.035 46.1129 30.035 45.5762 30.035C45.3629 30.035 45.1588 30.0575 45.0724 30.2948C44.9859 30.5321 45.0816 30.6948 45.2519 30.8574C45.4188 31.0208 45.5332 31.2301 45.5808 31.4587C45.6283 31.6873 45.6067 31.9249 45.5188 32.1412C45.4308 32.3575 45.2805 32.5427 45.0869 32.6733C44.8934 32.8039 44.6653 32.874 44.4318 32.8746C44.1983 32.8752 43.97 32.8062 43.7758 32.6766C43.5816 32.547 43.4303 32.3625 43.3413 32.1466C43.2523 31.9307 43.2295 31.6933 43.2759 31.4644C43.3223 31.2356 43.4358 31.0257 43.6018 30.8615C43.6857 30.7766 43.7824 30.7081 43.81 30.5797C43.8795 30.2595 43.7077 30.0411 43.3496 30.036C42.787 30.0273 42.2243 30.036 41.6617 30.0329C41.1118 30.0329 40.8699 29.7879 40.8678 29.2334C40.8658 28.6964 40.8658 28.1593 40.8678 27.6222C40.8678 27.4089 40.8525 27.2023 40.6162 27.1148C40.3881 27.0304 40.2147 27.1194 40.0479 27.2882C39.6684 27.6718 39.1466 27.7588 38.6858 27.5388C38.2393 27.3255 37.9815 26.8575 38.026 26.3419C38.0498 26.1027 38.1475 25.8768 38.3054 25.6954C38.4632 25.5141 38.6736 25.3863 38.9073 25.3297C39.3466 25.2212 39.7395 25.3297 40.051 25.6601C40.2162 25.8345 40.3942 25.9159 40.6193 25.8294C40.8443 25.743 40.8689 25.5317 40.8678 25.3179C40.8648 24.7723 40.8648 24.2267 40.8678 23.6811C40.8709 23.1732 41.1333 22.9052 41.6397 22.9042C43.4975 22.9011 45.3559 22.9011 47.215 22.9042C47.7332 22.9042 47.9971 23.1768 47.9981 23.699C48.0012 24.6207 47.9997 25.5414 47.9997 26.4621Z" fill="#10788E"/>
<path d="M40.6624 47.7565H35.9347C35.5521 47.7565 35.348 47.6475 35.2498 47.3831C35.1398 47.0859 35.2615 46.867 35.4738 46.6563C37.6804 44.466 39.8901 42.2783 42.0798 40.0707C42.6225 39.5234 43.045 39.5935 43.3964 40.2666C44.3795 42.152 45.4015 44.0174 46.4081 45.8905C46.9329 46.868 46.4004 47.756 45.2884 47.7565H40.6624Z" fill="#10788E"/>
<path d="M32.8383 26.4624C32.8383 25.5417 32.8383 24.621 32.8383 23.7003C32.8383 23.1607 33.094 22.9059 33.6383 22.9034C34.1825 22.9008 34.7293 22.8983 35.2751 22.9034C35.4863 22.9059 35.6761 22.8758 35.7569 22.6543C35.8347 22.441 35.763 22.2661 35.5999 22.1039C35.0086 21.5152 35.117 20.6068 35.8157 20.2114C36.0663 20.0697 36.36 20.0246 36.6416 20.0843C36.9232 20.1441 37.1732 20.3046 37.3447 20.5358C37.5162 20.767 37.5973 21.0529 37.5728 21.3397C37.5483 21.6265 37.4199 21.8944 37.2116 22.0932C37.0807 22.2211 36.9917 22.3489 37.0106 22.5366C37.0341 22.7668 37.185 22.8978 37.4495 22.8993C38.0121 22.9019 38.5748 22.8993 39.1374 22.8993C39.7001 22.8993 39.965 23.1597 39.9696 23.7284C39.9696 23.8819 39.9763 24.0353 39.9696 24.1888C39.9497 24.5018 39.7681 24.6491 39.4617 24.6138C38.3666 24.4829 37.4157 25.2471 37.3298 26.3268C37.2454 27.3949 38.0863 28.3181 39.1778 28.3498C39.2873 28.3534 39.3978 28.3273 39.5077 28.3202C39.7635 28.3043 39.9425 28.4378 39.9635 28.6941C39.9834 28.9235 39.9834 29.1542 39.9635 29.3836C39.9261 29.7928 39.6663 30.0229 39.2474 30.0286C38.7701 30.0347 38.2929 30.0286 37.8152 30.0286H33.6439C33.0767 30.0286 32.8393 29.7882 32.8388 29.2184C32.8378 28.3014 32.8376 27.3828 32.8383 26.4624Z" fill="#10788E"/>
<path d="M32.2539 47.7565C31.9982 47.7565 31.7424 47.7591 31.4867 47.7565C31.1732 47.7519 30.9798 47.6282 30.8796 47.3427C30.6801 46.7729 30.4871 46.2009 30.3005 45.6267C30.2085 45.3423 30.2949 45.1367 30.5727 44.9223C31.9813 43.8346 33.3903 42.7471 34.7997 41.66C36.9238 40.0212 39.0475 38.382 41.1709 36.7425C41.3392 36.6125 41.509 36.5164 41.7305 36.5481C41.9862 36.5844 42.177 36.7701 42.2246 37.0596C42.2967 37.4959 42.3591 37.9342 42.4246 38.3716C42.4418 38.4729 42.4335 38.5769 42.4004 38.6743C42.3674 38.7716 42.3107 38.8592 42.2353 38.9291C40.4342 40.7183 38.6337 42.5076 36.8339 44.2968C35.7945 45.33 34.7501 46.3576 33.723 47.4031C33.4672 47.6614 33.2038 47.7949 32.8432 47.7612C32.6473 47.7407 32.4499 47.7565 32.2539 47.7565Z" fill="#10788E"/>
<path d="M29.2846 47.7561C29.0973 47.7561 28.9096 47.7638 28.7219 47.7561C28.4728 47.7433 28.3746 47.5515 28.5245 47.3515C28.8385 46.928 29.1628 46.5116 29.4927 46.1009C29.6201 45.9428 29.751 45.9669 29.8063 46.1618C29.9296 46.5945 30.0431 47.0313 30.1382 47.4702C30.1776 47.6538 30.0579 47.7551 29.8702 47.7576C29.6825 47.7602 29.4799 47.7561 29.2846 47.7561Z" fill="#10788E"/>
</g>
</g>
<defs>
<filter id="filter0_d_65_259" x="0" y="0" width="70" height="70" filterUnits="userSpaceOnUse" color-interpolation-filters="sRGB">
<feFlood flood-opacity="0" result="BackgroundImageFix"/>
<feColorMatrix in="SourceAlpha" type="matrix" values="0 0 0 0 0 0 0 0 0 0 0 0 0 0 0 0 0 0 127 0" result="hardAlpha"/>
<feOffset dy="2"/>
<feGaussianBlur stdDeviation="2.5"/>
<feComposite in2="hardAlpha" operator="out"/>
<feColorMatrix type="matrix" values="0 0 0 0 0.0628125 0 0 0 0 0.46914 0 0 0 0 0.558333 0 0 0 1 0"/>
<feBlend mode="normal" in2="BackgroundImageFix" result="effect1_dropShadow_65_259"/>
<feBlend mode="normal" in="SourceGraphic" in2="effect1_dropShadow_65_259" result="shape"/>
</filter>
<clipPath id="clip0_65_259">
<rect width="25" height="30.6117" fill="white" transform="translate(23 18)"/>
</clipPath>
<clipPath id="clip1_65_259">
<rect width="25" height="29.8245" fill="white" transform="translate(23 17.9409)"/>
</clipPath>
</defs>
</svg>
