<svg width="70" height="70" viewBox="0 0 70 70" fill="none" xmlns="http://www.w3.org/2000/svg">
<g filter="url(#filter0_d_65_121)">
<circle cx="35" cy="33" r="30" fill="#EDEDED" fill-opacity="0.02" shape-rendering="crispEdges"/>
</g>
<path fill-rule="evenodd" clip-rule="evenodd" d="M35.2063 40.7589H35.2064H35.2066C36.0541 40.7733 36.9671 40.7888 37.88 40.7003C38.3932 40.65 38.8895 40.4873 39.3346 40.2235C39.7796 39.9596 40.1628 39.601 40.4577 39.1723C40.7525 38.7436 40.952 38.2552 41.0423 37.7407C41.1326 37.2262 41.1115 36.698 40.9806 36.1926C40.9116 35.9331 40.9092 35.6601 40.9733 35.3994C41.2644 34.1577 41.0222 33.0257 40.1804 32.0676C39.4267 31.2111 38.4517 30.8381 37.322 30.8486C35.7857 30.8584 34.2492 30.8584 32.7125 30.8486C31.9716 30.8437 31.2869 30.6747 30.7689 30.0701C30.6222 29.8987 30.5909 29.7898 30.7585 29.6012C31.2837 29.0112 31.9492 28.8138 32.7012 28.8146C33.3256 28.8146 33.9499 28.815 34.5742 28.8155C36.5156 28.8168 38.457 28.8182 40.3985 28.8065C40.7248 28.8065 40.8875 28.9129 41.0399 29.199C42.2177 31.3817 44.8965 32.2968 47.1175 31.2956C49.4282 30.2538 50.5748 27.6265 49.7145 25.2357C49.033 23.3439 47.6418 22.2371 45.6919 22.0315C43.6986 21.821 42.1279 22.671 41.0864 24.4263C40.8891 24.7587 40.6943 24.879 40.3078 24.8757C38.9328 24.8643 37.5578 24.8652 36.1825 24.8662C35.0189 24.867 33.855 24.8678 32.6908 24.8611C29.9776 24.844 28.3523 27.273 29.0346 29.5858C29.094 29.7889 29.0571 29.9824 29.0066 30.1831C28.8462 30.8096 28.8166 31.4451 28.9994 32.0692C29.5037 33.7814 30.8058 34.7574 32.6074 34.7712C33.3715 34.7773 34.1355 34.7759 34.8997 34.7746H34.8997H34.8998H34.9015C35.6868 34.7733 36.4722 34.772 37.2578 34.7786C38.0115 34.7842 38.7123 34.9484 39.2254 35.5912C39.3649 35.7659 39.3561 35.8675 39.2126 36.0284C38.689 36.6167 38.0227 36.815 37.2699 36.8142C36.604 36.8142 35.9381 36.8136 35.2722 36.8129H35.2722H35.2722H35.2721C33.386 36.811 31.4999 36.8091 29.6143 36.8223C29.2567 36.8223 29.0787 36.711 28.9072 36.3965C28.1366 34.9833 26.9171 34.1553 25.36 33.9757C22.0478 33.5921 19.5005 36.4038 20.0834 39.7267C20.4619 41.8843 22.4319 43.5981 24.5983 43.6274C26.5138 43.6518 27.9659 42.8058 28.928 41.1358C29.094 40.8482 29.2672 40.7539 29.5831 40.758C30.4323 40.7649 31.2814 40.763 32.2115 40.761H32.2117H32.2118C32.6868 40.7599 33.1828 40.7588 33.7107 40.7588C34.173 40.7413 34.6768 40.7499 35.2061 40.7589H35.2062H35.2063ZM37.5104 39.5495C38.6971 39.5463 39.6464 38.732 39.7843 37.5496C39.0899 38.0758 38.2434 38.3543 37.3765 38.342C35.3562 38.3348 33.3346 38.336 31.3133 38.3371C30.5686 38.3375 29.824 38.3379 29.0795 38.3379C28.5512 38.3379 28.1888 38.0844 27.9899 37.5968C27.1464 35.5327 24.8741 34.7574 22.9771 35.8951C21.5908 36.7289 20.9871 38.4574 21.5259 40.0607C22.0141 41.5121 23.6049 42.5376 25.1131 42.3597C26.4962 42.1963 27.4487 41.443 27.9843 40.1485C28.1495 39.7486 28.382 39.5032 28.851 39.5439C29.0898 39.5646 29.3304 39.5594 29.5709 39.5542C29.6785 39.5519 29.786 39.5495 29.8934 39.5495C30.7402 39.5495 31.5868 39.5503 32.4333 39.551C34.126 39.5524 35.8182 39.5539 37.5104 39.5495ZM25.441 40.1844C25.2554 40.2606 25.0568 40.2989 24.8565 40.2972C23.9986 40.2931 23.3507 39.6186 23.3572 38.7426C23.3591 38.5423 23.4003 38.3443 23.4784 38.1602C23.5565 37.9762 23.6699 37.8097 23.812 37.6704C23.9541 37.5311 24.1221 37.4219 24.3062 37.349C24.4904 37.2761 24.6869 37.241 24.8846 37.2457C25.2829 37.2453 25.6652 37.4047 25.9478 37.6892C26.2304 37.9737 26.3904 38.36 26.3927 38.7637C26.3914 38.9667 26.3505 39.1674 26.2726 39.3544C26.1946 39.5413 26.081 39.7109 25.9383 39.8533C25.7957 39.9957 25.6267 40.1082 25.441 40.1844ZM30.2846 28.1783C30.3259 27.6994 30.523 27.248 30.8449 26.895C31.1668 26.542 31.5953 26.3073 32.063 26.2279C32.3139 26.1911 32.5672 26.1737 32.8207 26.1759C33.0438 26.1753 33.2668 26.1747 33.4898 26.1741L33.6822 26.1736C36.1739 26.1668 38.6654 26.16 41.1594 26.1702C41.5923 26.1702 41.82 25.985 41.9724 25.6071C42.5441 24.1915 43.5904 23.3975 45.0994 23.3569C46.553 23.3179 47.6651 23.9834 48.3659 25.2942C49.1428 26.7505 48.4829 28.8698 47.0606 29.732C45.1419 30.8933 42.767 30.0002 42.0205 28.0044C41.8601 27.5769 41.5643 27.3656 41.0712 27.3697C38.5199 27.3887 35.9683 27.3887 33.4164 27.3697C32.2979 27.3583 31.2187 27.4168 30.2846 28.1783ZM45.1507 25.321C44.9539 25.3155 44.758 25.35 44.5746 25.4224C44.3912 25.4948 44.2239 25.6037 44.0827 25.7427C43.9414 25.8817 43.8291 26.0479 43.7522 26.2316C43.6754 26.4153 43.6356 26.6127 43.6353 26.8122C43.6233 27.6931 44.2639 28.366 45.1234 28.3766C45.3238 28.3777 45.5225 28.3388 45.708 28.2621C45.8935 28.1853 46.0623 28.0722 46.2046 27.9292C46.347 27.7862 46.4601 27.6162 46.5375 27.4289C46.6149 27.2415 46.655 27.0405 46.6556 26.8374C46.6546 26.4337 46.4955 26.047 46.2133 25.7621C45.9312 25.4771 45.549 25.3173 45.1507 25.3178V25.321ZM32.9714 32.1789C31.9973 32.1968 31.0848 32.057 30.2614 31.3728C30.3817 32.5665 31.2676 33.3613 32.4719 33.3816C33.3424 33.3957 34.212 33.3922 35.0814 33.3888C35.4678 33.3872 35.8541 33.3857 36.2404 33.3857C36.347 33.3854 36.4537 33.3843 36.5605 33.3832C37.6487 33.3722 38.7389 33.3611 39.6881 34.1878C39.6934 34.1229 39.6934 34.0576 39.6881 33.9927C39.4114 32.8583 38.5383 32.1838 37.3011 32.174L37.1313 32.1728C35.7447 32.1626 34.3581 32.1524 32.9714 32.1789Z" fill="#FF5600"/>
<defs>
<filter id="filter0_d_65_121" x="0" y="0" width="70" height="70" filterUnits="userSpaceOnUse" color-interpolation-filters="sRGB">
<feFlood flood-opacity="0" result="BackgroundImageFix"/>
<feColorMatrix in="SourceAlpha" type="matrix" values="0 0 0 0 0 0 0 0 0 0 0 0 0 0 0 0 0 0 127 0" result="hardAlpha"/>
<feOffset dy="2"/>
<feGaussianBlur stdDeviation="2.5"/>
<feComposite in2="hardAlpha" operator="out"/>
<feColorMatrix type="matrix" values="0 0 0 0 1 0 0 0 0 0.337255 0 0 0 0 0 0 0 0 1 0"/>
<feBlend mode="normal" in2="BackgroundImageFix" result="effect1_dropShadow_65_121"/>
<feBlend mode="normal" in="SourceGraphic" in2="effect1_dropShadow_65_121" result="shape"/>
</filter>
</defs>
</svg>
