<svg width="70" height="70" viewBox="0 0 70 70" fill="none" xmlns="http://www.w3.org/2000/svg">
<g filter="url(#filter0_d_65_126)">
<circle cx="35" cy="33" r="30" fill="#EDEDED" fill-opacity="0.02" shape-rendering="crispEdges"/>
</g>
<g clip-path="url(#clip0_65_126)">
<path d="M48.7326 38.245C48.5219 38.2323 48.314 38.1906 48.1148 38.1211C42.2148 36.2533 36.3151 34.3855 30.4158 32.5177C30.185 32.4443 30.0626 32.4381 30.0227 32.716C29.9885 32.9693 29.7981 33.0293 29.5819 32.9665C28.1987 32.5692 26.8177 32.1641 25.4351 31.764C25.2037 31.6973 25.1464 31.5399 25.2048 31.3326C25.3857 30.6859 25.5706 30.0402 25.7597 29.3954C25.8265 29.1674 25.9843 29.0816 26.214 29.1455C27.5914 29.5288 28.9684 29.9143 30.3451 30.3021C30.5961 30.3732 30.682 30.5313 30.5697 30.8064C30.4664 31.0636 30.5208 31.1347 30.7876 31.1986C36.8299 32.6802 42.8703 34.1683 48.9089 35.6629C49.8765 35.9016 50.3039 36.9097 49.7642 37.6846C49.6503 37.8541 49.497 37.9936 49.3173 38.0912C49.1377 38.1888 48.9371 38.2415 48.7326 38.245Z" fill="#FF8001"/>
<path d="M27.2985 41.5454C24.9583 41.5454 22.6188 41.5454 20.2786 41.551C20.0596 41.551 19.9928 41.4989 19.9978 41.2787C20.0141 40.7934 19.9978 40.3076 20.0046 39.8218C20.013 39.1443 20.4538 38.6916 21.1311 38.691C25.2494 38.6876 29.3677 38.6876 33.486 38.691C34.1217 38.691 34.553 39.132 34.5648 39.7708C34.5733 40.2841 34.5559 40.7985 34.5721 41.3117C34.5789 41.5213 34.5003 41.5493 34.3161 41.5488C31.9772 41.5435 29.638 41.5424 27.2985 41.5454Z" fill="#FF8001"/>
<path d="M30.381 34.3712C30.2884 34.7074 30.1743 35.1293 30.0553 35.5479C29.8621 36.2293 29.6669 36.9099 29.4696 37.5898C29.3572 37.9776 29.1455 38.1031 28.7547 37.9938C26.9486 37.4884 25.1433 36.98 23.3387 36.4686C22.9147 36.3481 22.7811 36.1363 22.8951 35.7188C23.1758 34.6861 23.4707 33.6562 23.7689 32.628C23.8767 32.257 24.1013 32.1365 24.4765 32.2413C26.311 32.7527 28.1436 33.2679 29.9744 33.7868C30.2153 33.8551 30.3945 33.9935 30.381 34.3712Z" fill="#FF8001"/>
<path d="M32.8329 26.3113C32.7492 26.6161 32.6408 27.0195 32.5268 27.4219C32.3319 28.1122 32.1337 28.8009 31.9371 29.4907C31.8248 29.8829 31.6153 30.0135 31.2278 29.9053C29.4128 29.3984 27.5985 28.8889 25.7849 28.3767C25.3306 28.2484 25.2351 28.0764 25.3621 27.6118C25.6429 26.5886 25.9315 25.5677 26.223 24.5473C26.3325 24.1635 26.5762 24.043 26.9817 24.1579C28.4721 24.5781 29.9626 24.9991 31.453 25.4209C31.7849 25.5145 32.1185 25.603 32.4499 25.7011C32.7003 25.7733 32.8536 25.9286 32.8329 26.3113Z" fill="#FF8001"/>
</g>
<defs>
<filter id="filter0_d_65_126" x="0" y="0" width="70" height="70" filterUnits="userSpaceOnUse" color-interpolation-filters="sRGB">
<feFlood flood-opacity="0" result="BackgroundImageFix"/>
<feColorMatrix in="SourceAlpha" type="matrix" values="0 0 0 0 0 0 0 0 0 0 0 0 0 0 0 0 0 0 127 0" result="hardAlpha"/>
<feOffset dy="2"/>
<feGaussianBlur stdDeviation="2.5"/>
<feComposite in2="hardAlpha" operator="out"/>
<feColorMatrix type="matrix" values="0 0 0 0 1 0 0 0 0 0.501961 0 0 0 0 0.00392157 0 0 0 1 0"/>
<feBlend mode="normal" in2="BackgroundImageFix" result="effect1_dropShadow_65_126"/>
<feBlend mode="normal" in="SourceGraphic" in2="effect1_dropShadow_65_126" result="shape"/>
</filter>
<clipPath id="clip0_65_126">
<rect width="30" height="17.4346" fill="white" transform="translate(20 24.1162)"/>
</clipPath>
</defs>
</svg>
