<svg width="70" height="70" viewBox="0 0 70 70" fill="none" xmlns="http://www.w3.org/2000/svg">
<g filter="url(#filter0_d_65_209)">
<circle cx="35" cy="33" r="30" fill="#EDEDED" fill-opacity="0.02" shape-rendering="crispEdges"/>
</g>
<g clip-path="url(#clip0_65_209)">
<path d="M35.5509 19.8639C38.3504 19.8639 41.1499 19.869 43.9511 19.8605C44.7814 19.858 45.4606 20.1454 45.9676 20.8082C46.2734 21.2001 46.4388 21.6834 46.437 22.1805C46.4409 25.3244 46.4409 28.4685 46.437 31.6127C46.4338 32.2038 46.2041 32.7713 45.7952 33.1982C45.3864 33.6251 44.8294 33.8791 44.239 33.9078C43.4876 33.9416 42.7337 33.9268 41.9815 33.9188C41.7937 33.9167 41.7443 33.9694 41.7506 34.1539C41.7649 34.5684 41.7506 34.9838 41.7561 35.3987C41.7586 35.7457 41.6269 36.0192 41.3141 36.1784C41.0013 36.3375 40.7092 36.2628 40.4315 36.0517C39.545 35.381 38.6518 34.7212 37.7645 34.053C37.655 33.9645 37.5178 33.9175 37.377 33.9204C36.125 33.9258 34.8727 33.9258 33.6202 33.9204C33.4943 33.9161 33.3708 33.9558 33.2711 34.0327C32.4176 34.676 31.5622 35.3168 30.705 35.9551C30.6484 35.9973 30.5932 36.0395 30.5362 36.0817C30.2778 36.2628 30.0022 36.335 29.7054 36.1843C29.4011 36.0285 29.2571 35.7698 29.2559 35.4304C29.2559 34.9943 29.2487 34.5583 29.2593 34.1218C29.2631 33.9656 29.2217 33.9175 29.0613 33.9196C28.3721 33.928 27.6826 33.928 26.9929 33.9196C25.9178 33.9107 25.0288 33.305 24.7075 32.3649C24.6172 32.1057 24.5704 31.8332 24.5691 31.5587C24.5691 28.4496 24.5698 25.34 24.5712 22.2299C24.5712 20.939 25.5294 19.939 26.8148 19.866C26.927 19.8597 27.0398 19.8584 27.1525 19.8584L35.5509 19.8639ZM39.0343 27.6549V27.652C39.147 27.652 39.2593 27.652 39.372 27.652C39.8253 27.6461 40.1786 27.3143 40.1866 26.8829C40.1947 26.4515 39.849 26.1108 39.391 26.0935C39.2293 26.0872 39.0672 26.0935 38.9055 26.0935C38.5172 26.0935 38.5189 26.0935 38.3884 25.736C38.3539 25.6365 38.3093 25.5407 38.2555 25.4502C38.1871 25.3405 38.2031 25.267 38.2977 25.1801C38.4753 25.0203 38.6444 24.8512 38.8042 24.6735C39.1178 24.3206 39.1183 23.8656 38.8181 23.5684C38.5066 23.2598 38.0516 23.2586 37.6961 23.5726C37.5695 23.6841 37.4547 23.8086 37.3361 23.9289C37.0777 24.1906 37.079 24.1889 36.7531 24.0365C36.646 23.9835 36.5337 23.9418 36.418 23.912C36.3032 23.8854 36.2774 23.8234 36.2782 23.7174C36.2812 23.457 36.2888 23.1961 36.2698 22.9369C36.2373 22.4907 35.9009 22.1843 35.4809 22.1961C35.0609 22.2079 34.7409 22.5338 34.7253 22.9749C34.7164 23.2138 34.7143 23.4536 34.7253 23.6925C34.7316 23.8314 34.6797 23.8981 34.5501 23.9285C34.372 23.9722 34.2018 24.0434 34.0457 24.1395C33.9562 24.1923 33.8975 24.1754 33.8291 24.1028C33.6603 23.9238 33.4914 23.7448 33.3086 23.5785C32.957 23.2569 32.472 23.2624 32.1731 23.5815C31.8743 23.9006 31.892 24.3573 32.2221 24.6997C32.3834 24.8685 32.5446 25.0344 32.716 25.1906C32.8067 25.275 32.8139 25.3434 32.7544 25.4439C32.6585 25.6 32.5862 25.7694 32.5395 25.9466C32.5079 26.0779 32.4306 26.1003 32.3108 26.0965C32.0718 26.0889 31.8321 26.0863 31.5932 26.0965C31.1364 26.118 30.8055 26.4675 30.8173 26.9023C30.8287 27.3177 31.1833 27.6478 31.6273 27.6528C31.8667 27.6558 32.106 27.6566 32.3449 27.6528C32.4403 27.6528 32.4986 27.671 32.5277 27.7757C32.5808 27.9655 32.6587 28.1474 32.7595 28.3168C32.8169 28.4139 32.8017 28.4776 32.7206 28.5528C32.5518 28.7111 32.3884 28.8774 32.2272 29.0441C31.8895 29.3936 31.8709 29.8588 32.1816 30.1775C32.4923 30.4962 32.9655 30.4878 33.3184 30.1619C33.4523 30.0477 33.5756 29.9217 33.6869 29.7854C33.8397 29.5828 33.9937 29.538 34.2094 29.6891C34.3053 29.7487 34.4107 29.7916 34.521 29.8158C34.6725 29.8559 34.7358 29.9323 34.7257 30.0977C34.7122 30.3367 34.7122 30.5763 34.7257 30.8153C34.7346 31.0105 34.8167 31.1951 34.9557 31.3324C35.0946 31.4697 35.2802 31.5496 35.4754 31.5562C35.6712 31.5644 35.8625 31.4963 36.009 31.3662C36.1556 31.2361 36.2459 31.0542 36.2609 30.8588C36.2797 30.5994 36.2844 30.3391 36.2749 30.0792C36.2728 29.9525 36.3002 29.8757 36.4391 29.8343C36.6064 29.7809 36.768 29.7111 36.9216 29.6258C37.0326 29.5663 37.101 29.576 37.19 29.668C37.3884 29.8761 37.5742 30.1007 37.8131 30.2657C37.963 30.3743 38.1471 30.4251 38.3315 30.4091C38.5159 30.3931 38.6883 30.3111 38.8173 30.1784C39.0782 29.9175 39.1081 29.5131 38.8903 29.1898C38.7793 29.0247 38.6286 28.8943 38.4897 28.7571C38.198 28.4662 38.1942 28.4658 38.3585 28.091C38.4218 27.947 38.3973 27.7318 38.5484 27.6689C38.694 27.6098 38.8726 27.6549 39.0343 27.6549Z" fill="#10788E"/>
<path d="M44.6505 44.7966C43.9895 44.7966 43.3276 44.8194 42.6666 44.7903C42.325 44.7786 41.9994 44.6434 41.7501 44.4097C41.5008 44.176 41.3448 43.8597 41.3111 43.5197C41.2119 42.6235 41.2976 41.7506 41.8054 40.965C41.996 40.6688 42.2319 40.4043 42.5045 40.1812C42.6113 40.0942 42.6311 40.0402 42.5374 39.9215C41.7636 38.9427 41.724 37.6548 42.4285 36.6712C43.1461 35.6729 44.3804 35.2808 45.5522 35.6801C47.2888 36.2711 47.9131 38.4437 46.7615 39.9085C46.664 40.0321 46.6619 40.0803 46.7843 40.1837C47.5623 40.8405 47.9663 41.6831 47.9958 42.7025C48.0004 42.8713 47.9988 43.0402 47.9983 43.209C47.9958 44.1719 47.3652 44.805 46.401 44.8131C45.8172 44.8169 45.2335 44.8131 44.6497 44.8131L44.6505 44.7966Z" fill="#10788E"/>
<path d="M26.3469 44.7977C25.7003 44.7977 25.0523 44.8231 24.4052 44.7914C23.6454 44.7538 23.0932 44.2127 23.0236 43.4503C22.9459 42.5972 23.0291 41.7665 23.5002 41.0134C23.6917 40.7013 23.9343 40.4235 24.2178 40.1916C24.3482 40.086 24.341 40.0261 24.2448 39.9016C23.1599 38.4955 23.6323 36.5272 25.2283 35.7741C26.3368 35.2511 27.7252 35.5791 28.4846 36.5424C29.2735 37.5436 29.2773 38.9484 28.4799 39.9142C28.371 40.0468 28.3993 40.0928 28.512 40.1882C29.2891 40.8471 29.6939 41.6892 29.718 42.7087C29.7256 43.0383 29.756 43.3722 29.6694 43.6964C29.4884 44.3794 28.9041 44.8053 28.1409 44.8108C27.5432 44.8159 26.9451 44.8108 26.3469 44.8108V44.7977Z" fill="#10788E"/>
<path d="M37.0668 26.8855C37.0626 27.7297 36.3416 28.4414 35.4965 28.4355C35.0806 28.4294 34.6839 28.2593 34.3926 27.9622C34.1014 27.6652 33.9393 27.2652 33.9414 26.8492C33.949 26.0155 34.6611 25.3127 35.5007 25.3105C35.9167 25.3136 36.3146 25.4807 36.6079 25.7757C36.9012 26.0706 37.0661 26.4695 37.0668 26.8855Z" fill="#10788E"/>
</g>
<defs>
<filter id="filter0_d_65_209" x="0" y="0" width="70" height="70" filterUnits="userSpaceOnUse" color-interpolation-filters="sRGB">
<feFlood flood-opacity="0" result="BackgroundImageFix"/>
<feColorMatrix in="SourceAlpha" type="matrix" values="0 0 0 0 0 0 0 0 0 0 0 0 0 0 0 0 0 0 127 0" result="hardAlpha"/>
<feOffset dy="2"/>
<feGaussianBlur stdDeviation="2.5"/>
<feComposite in2="hardAlpha" operator="out"/>
<feColorMatrix type="matrix" values="0 0 0 0 0.0628125 0 0 0 0 0.46914 0 0 0 0 0.558333 0 0 0 1 0"/>
<feBlend mode="normal" in2="BackgroundImageFix" result="effect1_dropShadow_65_209"/>
<feBlend mode="normal" in="SourceGraphic" in2="effect1_dropShadow_65_209" result="shape"/>
</filter>
<clipPath id="clip0_65_209">
<rect width="25" height="24.9548" fill="white" transform="translate(23 19.8604)"/>
</clipPath>
</defs>
</svg>
