<svg width="70" height="70" viewBox="0 0 70 70" fill="none" xmlns="http://www.w3.org/2000/svg">
<g filter="url(#filter0_d_65_130)">
<circle cx="35" cy="33" r="30" fill="#EDEDED" fill-opacity="0.02" shape-rendering="crispEdges"/>
</g>
<path d="M43.238 29.4185C44.1089 29.3517 44.9798 29.5479 45.738 29.9816C46.7946 30.5852 47.4332 31.4697 47.4803 32.6929C47.5082 33.4156 47.2386 34.0763 46.7481 34.6263C46.2029 35.2507 45.4733 35.6857 44.6648 35.8685C44.2044 35.9644 43.7293 35.9644 43.269 35.8685C41.0749 35.4394 39.21 34.4138 37.7368 32.7138C37.5315 32.4757 37.3523 32.2102 37.2832 31.8852C37.1642 31.3376 37.4154 30.9096 37.7356 30.5161C38.2678 29.8751 38.9225 29.3715 39.6368 28.9423C40.392 28.4771 41.2007 28.1047 42.0451 27.8334C42.9421 27.5579 43.8918 27.5006 44.8154 27.6661C45.9701 27.8584 47.0178 28.2917 47.9445 29.0286C48.6928 29.6239 49.2701 30.3525 49.5969 31.2394C49.9832 32.2906 49.9832 33.365 49.5487 34.4197C48.9826 35.7941 47.9416 36.6876 46.6321 37.306C45.4824 37.851 44.2097 38.0842 42.9416 37.9822C41.8029 37.8971 40.7606 37.4906 39.7868 36.8941C38.5999 36.1697 37.5761 35.2507 36.5725 34.3001C36.1041 33.856 35.6201 33.4269 35.1791 32.956C34.738 32.4852 34.3219 32.0245 33.863 31.5941C32.7701 30.5763 31.7041 29.5257 30.4446 28.7031C29.5356 28.1078 28.5648 27.6459 27.4951 27.465C26.4419 27.2922 25.3632 27.361 24.3404 27.6661C23.1499 28.0108 22.0904 28.584 21.2451 29.5084C19.7416 31.1501 19.5719 33.4804 20.888 35.2531C22.0475 36.8173 23.6469 37.5608 25.5309 37.781C26.6576 37.9126 27.716 37.662 28.7451 37.2197C29.6032 36.8541 30.4118 36.3817 31.1517 35.8138C31.6219 35.4531 32.063 35.0453 32.3684 34.5334C32.7618 33.8739 32.7255 33.4179 32.1636 32.6947C31.5088 31.8519 30.6648 31.2346 29.7553 30.6995C29.0187 30.2622 28.2286 29.922 27.4047 29.6876C26.6094 29.4632 25.7975 29.3548 24.9963 29.5775C24.044 29.8423 23.2701 30.3989 22.766 31.2679C22.1338 32.3638 22.2898 33.6655 23.1826 34.6548C23.9565 35.512 24.9553 35.9048 26.0951 35.9644C26.2737 35.9739 26.4523 35.9644 26.6309 35.9644" stroke="#10788E" stroke-linecap="round" stroke-linejoin="round"/>
<defs>
<filter id="filter0_d_65_130" x="0" y="0" width="70" height="70" filterUnits="userSpaceOnUse" color-interpolation-filters="sRGB">
<feFlood flood-opacity="0" result="BackgroundImageFix"/>
<feColorMatrix in="SourceAlpha" type="matrix" values="0 0 0 0 0 0 0 0 0 0 0 0 0 0 0 0 0 0 127 0" result="hardAlpha"/>
<feOffset dy="2"/>
<feGaussianBlur stdDeviation="2.5"/>
<feComposite in2="hardAlpha" operator="out"/>
<feColorMatrix type="matrix" values="0 0 0 0 0.0628125 0 0 0 0 0.46914 0 0 0 0 0.558333 0 0 0 1 0"/>
<feBlend mode="normal" in2="BackgroundImageFix" result="effect1_dropShadow_65_130"/>
<feBlend mode="normal" in="SourceGraphic" in2="effect1_dropShadow_65_130" result="shape"/>
</filter>
</defs>
</svg>
