<svg width="70" height="70" viewBox="0 0 70 70" fill="none" xmlns="http://www.w3.org/2000/svg">
<g filter="url(#filter0_d_65_244)">
<circle cx="35" cy="33" r="30" fill="#EDEDED" fill-opacity="0.02" shape-rendering="crispEdges"/>
</g>
<g clip-path="url(#clip0_65_244)">
<path d="M23.0039 33.003C23.0039 29.0124 22.9977 25.0219 23.0039 21.0294C23.0039 19.6648 23.7563 18.6316 25.026 18.1526C25.37 18.0399 25.7316 17.9903 26.0932 18.006C30.668 18.0019 35.2441 17.9992 39.8216 17.9978C39.9657 17.9903 40.1095 18.0176 40.2408 18.0775C40.3722 18.1373 40.4872 18.2279 40.5761 18.3415C42.7782 20.9365 44.9881 23.5246 47.206 26.1058C47.4016 26.3223 47.5069 26.6057 47.5001 26.8975C47.4926 32.9021 47.4888 38.9058 47.4888 44.9084C47.4888 46.7364 46.2501 47.9875 44.4108 47.9906C38.3042 48.0036 32.1981 48.0036 26.0922 47.9906C24.226 47.9906 23.0049 46.7395 23.0008 44.8702C22.9939 40.9148 22.9939 36.958 23.0008 32.9999L23.0039 33.003ZM24.3901 32.9761C24.3901 36.8813 24.3901 40.7861 24.3901 44.6906C24.3901 45.9891 24.9857 46.5981 26.2656 46.5981C32.2689 46.5981 38.2722 46.5981 44.2755 46.5981C45.4925 46.5981 46.1087 45.9788 46.1087 44.7525C46.1087 39.1786 46.1087 33.6047 46.1201 28.0308C46.1201 27.5354 45.9869 27.3826 45.4853 27.3919C43.9039 27.4187 42.3205 27.4218 40.7371 27.3847C39.3437 27.3516 38.0617 26.1976 37.9729 24.8578C37.8965 23.6925 37.944 22.5199 37.9337 21.3483C37.9337 21.0892 38.0462 20.9685 38.3084 20.9809C38.4801 20.9943 38.6527 20.9943 38.8245 20.9809C39.2084 20.9396 39.3406 21.0996 39.3282 21.4815C39.3086 22.427 39.3158 23.3735 39.3282 24.319C39.3385 25.3254 40.0053 25.9963 41.0148 26.0056C42.2359 26.016 43.457 26.0108 44.6791 26.0056C44.8226 26.0056 45.026 26.0841 45.092 25.9117C45.1581 25.7393 44.9712 25.6433 44.8763 25.5329C43.2475 23.6233 41.6073 21.724 39.9867 19.8083C39.8773 19.6689 39.7355 19.5584 39.5735 19.4864C39.4116 19.4144 39.2345 19.3832 39.0577 19.3954C34.8092 19.4067 30.5606 19.4016 26.311 19.4037C24.9805 19.4037 24.387 19.993 24.387 21.3122C24.3877 25.2002 24.3887 29.0881 24.3901 32.9761Z" fill="#FF5600"/>
<path d="M35.2565 43.3218C32.9691 43.3218 30.6797 43.2774 28.3944 43.3383C26.8935 43.3775 25.7901 42.3123 25.8139 40.7816C25.8469 38.2702 25.8139 35.7588 25.8252 33.2465C25.8314 31.6249 26.7831 30.6773 28.3902 30.6763C32.9663 30.6763 37.5424 30.6763 42.1186 30.6763C43.7061 30.6763 44.6815 31.6053 44.6991 33.1866C44.7218 35.7492 44.7218 38.3118 44.6991 40.8745C44.6867 42.3825 43.7319 43.3115 42.2321 43.3177C39.9004 43.329 37.58 43.3218 35.2565 43.3218ZM27.8999 37.0171C27.8999 37.912 27.8886 38.8059 27.8999 39.7008C27.9144 40.6432 28.5285 41.3255 29.4575 41.4669C30.4897 41.6238 31.331 41.1573 31.6252 40.2407C31.8316 39.6038 31.6778 38.9422 31.7284 38.2939C31.7635 37.8305 31.4559 37.8583 31.1555 37.8687C30.8551 37.879 30.4588 37.7655 30.4732 38.3032C30.4846 38.7326 30.4856 39.1631 30.4639 39.5925C30.4392 40.0673 30.1605 40.3769 29.7889 40.3418C29.3564 40.3026 29.1561 40.0188 29.1541 39.6059C29.1479 37.8855 29.1479 36.1652 29.1541 34.4448C29.1541 34.032 29.3347 33.744 29.7899 33.7223C30.1976 33.7037 30.4381 33.9597 30.465 34.4572C30.4861 34.8178 30.4882 35.1792 30.4712 35.54C30.4433 36.0695 30.787 36.0489 31.1524 36.0561C31.5178 36.0633 31.7625 36.0055 31.7315 35.5555C31.7057 35.1798 31.7315 34.7999 31.7253 34.4201C31.7036 33.264 30.9707 32.5755 29.7744 32.5817C28.6235 32.5817 27.9061 33.2908 27.8958 34.4397C27.8937 35.2975 27.8999 36.1573 27.8999 37.0171ZM35.0696 39.0898C35.5176 39.1754 35.6446 38.9762 35.6404 38.552C35.6301 37.495 35.6477 37.4754 36.6819 37.4878C37.0948 37.4878 37.2073 37.3536 37.2063 36.9541C37.2053 36.5547 37.0762 36.4174 36.6706 36.4184C35.6384 36.4184 35.6167 36.404 35.6384 35.378C35.6508 34.897 35.4877 34.7721 35.0191 34.7669C34.5504 34.7617 34.4482 34.9475 34.4534 35.3738C34.4658 36.5402 34.5969 36.4339 33.4212 36.4195C33.0083 36.4195 32.8896 36.5547 32.8886 36.9552C32.8875 37.3557 32.999 37.4929 33.4129 37.4878C34.4524 37.4744 34.4761 37.495 34.4513 38.5086C34.4451 38.9907 34.5989 39.1878 35.0696 39.0898ZM40.4371 39.0898C40.85 39.1507 41.0688 39.034 41.0564 38.5468C41.0399 37.4981 41.0636 37.4837 42.1041 37.4826C42.4695 37.4826 42.6336 37.3959 42.6202 36.9944C42.6078 36.6362 42.5727 36.4215 42.1258 36.4164C41.0719 36.404 41.0502 36.3833 41.0554 35.3088C41.0554 34.8495 40.8551 34.7741 40.4639 34.7721C40.0727 34.77 39.8684 34.8474 39.8694 35.3057C39.8694 36.373 39.8508 36.3906 38.7835 36.4174C38.3706 36.4287 38.3108 36.6238 38.3046 36.9655C38.2984 37.3319 38.4078 37.4816 38.798 37.4816C39.8611 37.4816 39.8766 37.5033 39.8715 38.5386C39.8684 38.9618 39.9902 39.1723 40.4319 39.0918L40.4371 39.0898Z" fill="#FF5600"/>
</g>
<defs>
<filter id="filter0_d_65_244" x="0" y="0" width="70" height="70" filterUnits="userSpaceOnUse" color-interpolation-filters="sRGB">
<feFlood flood-opacity="0" result="BackgroundImageFix"/>
<feColorMatrix in="SourceAlpha" type="matrix" values="0 0 0 0 0 0 0 0 0 0 0 0 0 0 0 0 0 0 127 0" result="hardAlpha"/>
<feOffset dy="2"/>
<feGaussianBlur stdDeviation="2.5"/>
<feComposite in2="hardAlpha" operator="out"/>
<feColorMatrix type="matrix" values="0 0 0 0 1 0 0 0 0 0.337255 0 0 0 0 0 0 0 0 1 0"/>
<feBlend mode="normal" in2="BackgroundImageFix" result="effect1_dropShadow_65_244"/>
<feBlend mode="normal" in="SourceGraphic" in2="effect1_dropShadow_65_244" result="shape"/>
</filter>
<clipPath id="clip0_65_244">
<rect width="24.5004" height="30" fill="white" transform="translate(23 18)"/>
</clipPath>
</defs>
</svg>
