<svg width="30" height="31" viewBox="0 0 30 31" fill="none" xmlns="http://www.w3.org/2000/svg">
<g clip-path="url(#clip0_310_364)">
<path d="M11.2489 22.5147C5.08051 22.5435 0.00833777 17.4759 1.0327e-05 11.2727C-0.00831712 5.06948 5.0207 0.0328873 11.2277 0.00790498C17.4006 -0.0170774 22.447 5.02254 22.4834 11.2484C22.5197 17.4032 17.4513 22.4852 11.2489 22.5147ZM11.2421 20.3405C13.6637 20.3405 15.9861 19.3785 17.6984 17.6662C19.4107 15.9539 20.3727 13.6314 20.3727 11.2098C20.3727 8.78823 19.4107 6.46581 17.6984 4.75348C15.9861 3.04115 13.6637 2.07917 11.2421 2.07917C6.22213 2.07917 2.12275 6.16719 2.10382 11.203C2.09972 12.4042 2.3333 13.5943 2.79109 14.7048C3.24889 15.8153 3.92186 16.8243 4.77125 17.6736C5.62064 18.5229 6.62967 19.1958 7.74022 19.6535C8.85077 20.1112 10.0409 20.3447 11.2421 20.3405Z" fill="#EDEDED"/>
<path d="M29.9977 28.9765C29.9974 29.1588 29.9489 29.3378 29.857 29.4953C29.7651 29.6528 29.6332 29.7832 29.4746 29.8732C29.3161 29.9631 29.1365 30.0095 28.9542 30.0076C28.7718 30.0057 28.5933 29.9555 28.4366 29.8622C28.2861 29.7704 28.148 29.6598 28.0256 29.5329C25.4012 26.9151 22.78 24.2954 20.1622 21.6741C19.8404 21.3531 19.6383 21.0026 19.7579 20.5279C19.799 20.3626 19.8803 20.21 19.9946 20.0836C20.1089 19.9573 20.2527 19.8612 20.4131 19.8039C20.5735 19.7466 20.7456 19.7298 20.9141 19.7551C21.0826 19.7804 21.2422 19.8469 21.3787 19.9488C21.4778 20.0268 21.5709 20.112 21.6573 20.2039C24.2964 22.8414 26.9352 25.4792 29.5737 28.1172C29.8235 28.3663 30.0166 28.6335 29.9977 28.9765Z" fill="#EDEDED"/>
</g>
<defs>
<clipPath id="clip0_310_364">
<rect width="29.9992" height="30" fill="white" transform="translate(0 0.00732422)"/>
</clipPath>
</defs>
</svg>
