<svg width="27" height="30" viewBox="0 0 27 30" fill="none" xmlns="http://www.w3.org/2000/svg">
    <path d="M26.1251 5.75C26.1251 6.64375 25.3938 7.375 24.5001 7.375H22.8751V9C22.8751 9.89375 22.1438 10.625 21.2501 10.625C20.3563 10.625 19.6251 9.89375 19.6251 9V7.375H18.0001C17.1063 7.375 16.3751 6.64375 16.3751 5.75C16.3751 4.85625 17.1063 4.125 18.0001 4.125H19.6251V2.5C19.6251 1.60625 20.3563 0.875 21.2501 0.875C22.1438 0.875 22.8751 1.60625 22.8751 2.5V4.125H24.5001C25.3938 4.125 26.1251 4.85625 26.1251 5.75ZM22.8751 27.655C22.8751 28.825 21.6888 29.605 20.6163 29.15L11.5001 25.25L2.38381 29.15C2.13698 29.2572 1.86728 29.3011 1.5992 29.2776C1.33112 29.2541 1.07316 29.164 0.848748 29.0154C0.624341 28.8669 0.440599 28.6647 0.314214 28.4271C0.18783 28.1895 0.122809 27.9241 0.125056 27.655V4.125C0.125056 2.3375 1.58756 0.875 3.37506 0.875H14.7501C13.7624 2.19389 13.199 3.78178 13.1343 5.42819C13.0697 7.0746 13.5069 8.70178 14.3881 10.094C15.2693 11.4863 16.5528 12.5779 18.0684 13.2241C19.5841 13.8703 21.2604 14.0406 22.8751 13.7125V27.655Z" fill="#EDEDED"/>
    </svg>
    