<svg width="19" height="20" viewBox="0 0 19 20" fill="none" xmlns="http://www.w3.org/2000/svg">
    <g clip-path="url(#clip0_1390_69798)">
    <path d="M11.0853 14.5191L8.90269 18.2543C8.85157 18.3487 8.77816 18.4266 8.68926 18.4785C8.60036 18.5304 8.50003 18.5549 8.39921 18.5491C8.29839 18.5434 8.20096 18.5077 8.11755 18.446C8.03414 18.3843 7.96796 18.2989 7.92622 18.1991L6.50615 14.8099L3.08767 15.117C2.98723 15.1259 2.88647 15.1048 2.79634 15.0558C2.7062 15.0069 2.63016 14.9321 2.57646 14.8396C2.52277 14.747 2.49349 14.6403 2.4918 14.5309C2.49011 14.4216 2.51608 14.3138 2.56689 14.2194L4.79688 10.0918C5.27197 11.4468 6.15985 12.5847 7.31308 13.3165C8.46453 14.0529 9.76301 14.7298 11.0853 14.5191Z" fill="#FF5600"/>
    <path d="M8.51367 12.9243L10.3508 16.1141" stroke="#131313"/>
    <path d="M18.1747 14.1549L15.8299 10.1029C15.3929 11.4736 14.5368 12.6407 13.404 13.4104C12.2741 14.1838 10.9344 14.5146 9.6073 14.3477L11.9553 18.3976C12.0091 18.49 12.0852 18.5647 12.1754 18.6135C12.2656 18.6622 12.3664 18.6832 12.4669 18.6742C12.5673 18.6651 12.6635 18.6263 12.745 18.562C12.8266 18.4978 12.8903 18.4105 12.9293 18.3097L14.2535 14.8758L17.6796 15.0699C17.7804 15.0757 17.8808 15.0513 17.9697 14.9994C18.0586 14.9475 18.1327 14.8701 18.1838 14.7756C18.235 14.6812 18.2612 14.5733 18.2597 14.4637C18.2582 14.3542 18.2284 14.2476 18.1747 14.1549ZM14.6311 5.03858C14.2716 4.41791 13.8031 3.88016 13.2521 3.45601C12.7012 3.03186 12.0786 2.72963 11.42 2.56658C10.7615 2.40352 10.0797 2.38283 9.41379 2.50569C8.74784 2.62854 8.11072 2.89254 7.53878 3.28261C6.96685 3.67268 6.47132 4.18118 6.08047 4.77907C5.68963 5.37696 5.41113 6.05254 5.26088 6.76724C5.11062 7.48194 5.09156 8.22175 5.20477 8.94444C5.31798 9.66713 5.56125 10.3585 5.92069 10.9792C6.64661 12.2327 7.80165 13.1219 9.13172 13.4512C10.4618 13.7805 11.8579 13.523 13.013 12.7352C14.168 11.9474 14.9874 10.6939 15.2909 9.25055C15.5943 7.80716 15.357 6.29207 14.6311 5.03858ZM9.10533 5.64446L10.3973 6.50858L11.7844 5.84043C11.9268 5.77158 12.0793 5.91055 12.0428 6.07388L11.6857 7.67373L12.6995 8.89989C12.7229 8.92813 12.7385 8.96291 12.7446 9.00029C12.7507 9.03767 12.7471 9.07616 12.7341 9.11139C12.7211 9.14663 12.6992 9.17721 12.671 9.19968C12.6428 9.22215 12.6094 9.2356 12.5745 9.23851L11.061 9.36467L10.3005 10.7894C10.2829 10.8223 10.2573 10.8491 10.2264 10.867C10.1955 10.8848 10.1606 10.8929 10.1257 10.8903C10.0908 10.8878 10.0573 10.8746 10.0289 10.8525C10.0005 10.8303 9.97841 10.7999 9.9651 10.7648L9.38715 9.24231L7.90328 8.89805C7.86889 8.89022 7.83723 8.87206 7.8119 8.84563C7.78657 8.81921 7.76859 8.78559 7.76003 8.74861C7.75147 8.71163 7.75265 8.67278 7.76346 8.6365C7.77427 8.60022 7.79425 8.56796 7.82114 8.54342L8.97751 7.47691L8.82038 5.8388C8.81668 5.80097 8.82284 5.76277 8.83816 5.72854C8.85347 5.69432 8.87733 5.66544 8.90701 5.6452C8.93669 5.62495 8.97102 5.61415 9.00607 5.61402C9.04113 5.61389 9.07552 5.62444 9.10533 5.64446Z" fill="#FF5600"/>
    </g>
    <defs>
    <clipPath id="clip0_1390_69798">
    <rect width="17.6361" height="19.1388" fill="white" transform="translate(0.429688 0.563965)"/>
    </clipPath>
    </defs>
    </svg>
    