<svg width="19" height="22" viewBox="0 0 19 22" fill="none" xmlns="http://www.w3.org/2000/svg">
    <path d="M7.77792 8.74936V13.2403C7.77792 13.5621 7.91328 13.8069 8.18401 13.9748C8.45474 14.1427 8.71903 14.1287 8.97686 13.9328L12.1869 11.7083C12.4319 11.5404 12.5544 11.3026 12.5544 10.9948C12.5544 10.687 12.4319 10.4492 12.1869 10.2813L8.97686 8.05684C8.71903 7.86097 8.45474 7.84698 8.18401 8.01487C7.91328 8.18275 7.77792 8.42758 7.77792 8.74936ZM9.7117 19.389C8.64167 19.389 7.63611 19.1686 6.695 18.7276C5.75389 18.2872 4.93525 17.6892 4.23909 16.9337C3.54293 16.1783 2.99193 15.2899 2.58609 14.2686C2.17974 13.2473 1.97656 12.156 1.97656 10.9948C1.97656 9.83362 2.17974 8.74237 2.58609 7.72107C2.99193 6.69977 3.54293 5.81138 4.23909 5.0559C4.93525 4.30042 5.75389 3.70219 6.695 3.26121C7.63611 2.82079 8.64167 2.60059 9.7117 2.60059C10.7817 2.60059 11.7873 2.82079 12.7284 3.26121C13.6695 3.70219 14.4882 4.30042 15.1843 5.0559C15.8805 5.81138 16.4315 6.69977 16.8373 7.72107C17.2437 8.74237 17.4468 9.83362 17.4468 10.9948C17.4468 12.156 17.2437 13.2473 16.8373 14.2686C16.4315 15.2899 15.8805 16.1783 15.1843 16.9337C14.4882 17.6892 13.6695 18.2872 12.7284 18.7276C11.7873 19.1686 10.7817 19.389 9.7117 19.389Z" fill="#FF5600"/>
    </svg>
    