<svg width="19" height="19" viewBox="0 0 19 19" fill="none" xmlns="http://www.w3.org/2000/svg">
<g clip-path="url(#clip0_525_2839)">
<path d="M11.4789 13.8541L9.12743 17.5622C9.07236 17.656 8.99327 17.7333 8.8975 17.7848C8.80173 17.8364 8.69364 17.8606 8.58502 17.855C8.47641 17.8493 8.37144 17.8138 8.28158 17.7526C8.19172 17.6913 8.12042 17.6065 8.07546 17.5075L6.54556 14.1429L2.86272 14.4478C2.75451 14.4566 2.64595 14.4356 2.54885 14.387C2.45175 14.3385 2.36982 14.2642 2.31198 14.1723C2.25413 14.0805 2.22258 13.9745 2.22076 13.8659C2.21895 13.7574 2.24692 13.6504 2.30166 13.5566L4.7041 9.45898C5.21593 10.8041 6.17248 11.9338 7.4149 12.6603C8.65539 13.3913 10.0543 14.0634 11.4789 13.8541Z" fill="#FF5600"/>
<path d="M8.70801 12.2705L10.6872 15.4372" stroke="#131313"/>
<path d="M19.1163 13.4921L16.5901 9.46951C16.1193 10.8303 15.1971 11.9889 13.9766 12.753C12.7593 13.5208 11.316 13.8492 9.8863 13.6836L12.4158 17.704C12.4738 17.7958 12.5559 17.8699 12.653 17.9183C12.7502 17.9667 12.8588 17.9876 12.967 17.9786C13.0752 17.9696 13.1789 17.9311 13.2667 17.8673C13.3545 17.8035 13.4232 17.7168 13.4652 17.6167L14.8918 14.2077L18.5829 14.4005C18.6915 14.4062 18.7996 14.382 18.8954 14.3305C18.9912 14.279 19.071 14.2021 19.1261 14.1083C19.1812 14.0146 19.2095 13.9075 19.2079 13.7987C19.2062 13.69 19.1741 13.5842 19.1163 13.4921ZM15.2986 4.44192C14.9113 3.82576 14.4065 3.2919 13.813 2.87083C13.2194 2.44976 12.5487 2.14973 11.8392 1.98785C11.1297 1.82598 10.3953 1.80544 9.67783 1.9274C8.96038 2.04937 8.27398 2.31145 7.65782 2.69869C7.04166 3.08593 6.5078 3.59074 6.08673 4.18429C5.66566 4.77785 5.36562 5.44853 5.20375 6.15804C5.04187 6.86755 5.02133 7.602 5.1433 8.31945C5.26527 9.0369 5.52735 9.7233 5.91459 10.3395C6.69665 11.5839 7.94102 12.4666 9.37394 12.7935C10.8069 13.1204 12.311 12.8647 13.5554 12.0827C14.7997 11.3006 15.6825 10.0563 16.0094 8.62334C16.3363 7.19042 16.0806 5.68631 15.2986 4.44192ZM9.34551 5.0434L10.7374 5.90126L12.2317 5.23795C12.3851 5.1696 12.5494 5.30757 12.5102 5.46971L12.1254 7.05795L13.2177 8.27522C13.2429 8.30325 13.2597 8.33778 13.2663 8.37489C13.2728 8.412 13.2689 8.4502 13.2549 8.48519C13.2409 8.52017 13.2173 8.55053 13.187 8.57283C13.1566 8.59514 13.1206 8.60849 13.083 8.61139L11.4525 8.73662L10.6331 10.1511C10.6142 10.1837 10.5865 10.2103 10.5533 10.228C10.52 10.2457 10.4824 10.2538 10.4448 10.2512C10.4072 10.2487 10.3711 10.2356 10.3405 10.2136C10.3099 10.1916 10.2861 10.1615 10.2718 10.1266L9.64912 8.61515L8.0505 8.2734C8.01345 8.26562 7.97934 8.24759 7.95205 8.22135C7.92476 8.19512 7.9054 8.16174 7.89617 8.12503C7.88695 8.08832 7.88823 8.04976 7.89987 8.01374C7.91151 7.97772 7.93304 7.9457 7.96201 7.92133L9.20781 6.86256L9.03852 5.23634C9.03454 5.19878 9.04118 5.16086 9.05768 5.12688C9.07418 5.0929 9.09988 5.06424 9.13186 5.04414C9.16383 5.02404 9.20081 5.01332 9.23858 5.01319C9.27635 5.01306 9.3134 5.02353 9.34551 5.0434Z" fill="#FF5600"/>
</g>
<defs>
<clipPath id="clip0_525_2839">
<rect width="19" height="19" fill="white"/>
</clipPath>
</defs>
</svg>
