<svg width="70" height="70" viewBox="0 0 70 70" fill="none" xmlns="http://www.w3.org/2000/svg">
<g filter="url(#filter0_d_383_3629)">
<circle cx="35" cy="33" r="30" fill="#EDEDED" fill-opacity="0.02" shape-rendering="crispEdges"/>
</g>
<path fill-rule="evenodd" clip-rule="evenodd" d="M33.5315 22.25C32.041 22.2502 30.5724 22.6094 29.2501 23.2971C27.9277 23.9849 26.7905 24.981 25.9345 26.2013C25.0785 27.4215 24.529 28.8299 24.3325 30.3074C24.136 31.7849 24.2982 33.288 24.8054 34.6896C25.3126 36.0912 26.1499 37.3499 27.2465 38.3595C28.3431 39.369 29.6666 40.0996 31.1053 40.4894C32.5439 40.8793 34.0553 40.9169 35.5115 40.5991C36.9678 40.2813 38.3261 39.6175 39.4715 38.6638L45.8727 45.065C45.95 45.1479 46.0431 45.2144 46.1466 45.2605C46.2501 45.3066 46.3619 45.3314 46.4752 45.3334C46.5884 45.3354 46.701 45.3146 46.806 45.2721C46.9111 45.2297 47.0065 45.1665 47.0867 45.0864C47.1668 45.0063 47.2299 44.9109 47.2724 44.8058C47.3148 44.7007 47.3357 44.5882 47.3337 44.4749C47.3317 44.3616 47.3069 44.2499 47.2607 44.1464C47.2146 44.0429 47.1481 43.9497 47.0652 43.8725L40.664 37.4712C41.7929 36.1159 42.5122 34.4669 42.7377 32.7174C42.9631 30.9679 42.6853 29.1904 41.9368 27.5931C41.1884 25.9958 40.0002 24.6449 38.5116 23.6986C37.0229 22.7523 35.2954 22.2498 33.5315 22.25V22.25ZM25.9377 31.5312C25.9377 30.534 26.1342 29.5466 26.5158 28.6252C26.8974 27.7039 27.4568 26.8668 28.1619 26.1617C28.867 25.4565 29.7042 24.8972 30.6255 24.5155C31.5468 24.1339 32.5343 23.9375 33.5315 23.9375C34.5287 23.9375 35.5162 24.1339 36.4375 24.5155C37.3588 24.8972 38.1959 25.4565 38.9011 26.1617C39.6062 26.8668 40.1656 27.7039 40.5472 28.6252C40.9288 29.5466 41.1252 30.534 41.1252 31.5312C41.1252 33.5452 40.3252 35.4767 38.9011 36.9008C37.477 38.3249 35.5455 39.125 33.5315 39.125C31.5175 39.125 29.586 38.3249 28.1619 36.9008C26.7378 35.4767 25.9377 33.5452 25.9377 31.5312V31.5312Z" fill="#FF8001"/>
<defs>
<filter id="filter0_d_383_3629" x="0" y="0" width="70" height="70" filterUnits="userSpaceOnUse" color-interpolation-filters="sRGB">
<feFlood flood-opacity="0" result="BackgroundImageFix"/>
<feColorMatrix in="SourceAlpha" type="matrix" values="0 0 0 0 0 0 0 0 0 0 0 0 0 0 0 0 0 0 127 0" result="hardAlpha"/>
<feOffset dy="2"/>
<feGaussianBlur stdDeviation="2.5"/>
<feComposite in2="hardAlpha" operator="out"/>
<feColorMatrix type="matrix" values="0 0 0 0 1 0 0 0 0 0.501961 0 0 0 0 0.00392157 0 0 0 1 0"/>
<feBlend mode="normal" in2="BackgroundImageFix" result="effect1_dropShadow_383_3629"/>
<feBlend mode="normal" in="SourceGraphic" in2="effect1_dropShadow_383_3629" result="shape"/>
</filter>
</defs>
</svg>

