<svg width="34" height="34" viewBox="0 0 34 34" fill="none" xmlns="http://www.w3.org/2000/svg">
    <path d="M24.0506 27L17.0007 22.75L9.95065 27L11.8173 18.9834L5.60065 13.6L13.8007 12.9L17.0007 5.33337L20.2007 12.8834L28.4007 13.5834L22.184 18.9667L24.0506 27ZM17.0007 0.333374C7.78398 0.333374 0.333984 7.83337 0.333984 17C0.333984 21.4203 2.08993 25.6595 5.21554 28.7852C6.76318 30.3328 8.6005 31.5605 10.6226 32.398C12.6447 33.2356 14.812 33.6667 17.0007 33.6667C21.4209 33.6667 25.6602 31.9108 28.7858 28.7852C31.9114 25.6595 33.6673 21.4203 33.6673 17C33.6673 14.8113 33.2362 12.6441 32.3986 10.622C31.5611 8.59989 30.3334 6.76257 28.7858 5.21493C27.2381 3.66728 25.4008 2.43963 23.3787 1.60205C21.3566 0.76447 19.1893 0.333374 17.0007 0.333374Z" fill="#FF5600"/>
    </svg>
    