<svg width="17" height="18" viewBox="0 0 17 18" fill="none" xmlns="http://www.w3.org/2000/svg">
    <g clip-path="url(#clip0_1390_69794)">
    <path d="M7.26299 15.7377C7.26299 15.7377 6.27676 15.7377 6.27676 14.6674C6.27676 13.5972 7.26299 10.3864 11.2079 10.3864C15.1528 10.3864 16.1391 13.5972 16.1391 14.6674C16.1391 15.7377 15.1528 15.7377 15.1528 15.7377H7.26299ZM11.2079 9.31612C11.9926 9.31612 12.7452 8.97784 13.3 8.3757C13.8549 7.77356 14.1666 6.95688 14.1666 6.10532C14.1666 5.25377 13.8549 4.43709 13.3 3.83495C12.7452 3.23281 11.9926 2.89453 11.2079 2.89453C10.4232 2.89453 9.67066 3.23281 9.1158 3.83495C8.56094 4.43709 8.24922 5.25377 8.24922 6.10532C8.24922 6.95688 8.56094 7.77356 9.1158 8.3757C9.67066 8.97784 10.4232 9.31612 11.2079 9.31612ZM5.50355 15.7377C5.35735 15.4036 5.28444 15.0373 5.29053 14.6674C5.29053 13.2172 5.96116 11.7242 7.19987 10.6861C6.58159 10.4793 5.93744 10.3782 5.29053 10.3864C1.34561 10.3864 0.359375 13.5972 0.359375 14.6674C0.359375 15.7377 1.34561 15.7377 1.34561 15.7377H5.50355ZM4.79741 9.31612C5.45132 9.31612 6.07845 9.03422 6.54084 8.53244C7.00322 8.03065 7.26299 7.35009 7.26299 6.64046C7.26299 5.93083 7.00322 5.25026 6.54084 4.74848C6.07845 4.2467 5.45132 3.9648 4.79741 3.9648C4.1435 3.9648 3.51637 4.2467 3.05399 4.74848C2.5916 5.25026 2.33184 5.93083 2.33184 6.64046C2.33184 7.35009 2.5916 8.03065 3.05399 8.53244C3.51637 9.03422 4.1435 9.31612 4.79741 9.31612Z" fill="#FF5600"/>
    </g>
    <defs>
    <clipPath id="clip0_1390_69794">
    <rect width="15.7797" height="17.1242" fill="white" transform="translate(0.359375 0.753906)"/>
    </clipPath>
    </defs>
    </svg>
    