<svg width="20" height="20" viewBox="0 0 20 20" fill="none" xmlns="http://www.w3.org/2000/svg">
<path d="M7.91699 7.77116V12.2295C7.91699 12.5489 8.06283 12.792 8.35449 12.9587C8.64616 13.1253 8.93088 13.1114 9.20866 12.917L12.667 10.7087C12.9309 10.542 13.0628 10.3059 13.0628 10.0003C13.0628 9.69477 12.9309 9.45866 12.667 9.29199L9.20866 7.08366C8.93088 6.88921 8.64616 6.87533 8.35449 7.04199C8.06283 7.20866 7.91699 7.45171 7.91699 7.77116ZM10.0003 18.3337C8.84755 18.3337 7.76421 18.1148 6.75033 17.677C5.73644 17.2398 4.85449 16.6462 4.10449 15.8962C3.35449 15.1462 2.76088 14.2642 2.32366 13.2503C1.88588 12.2364 1.66699 11.1531 1.66699 10.0003C1.66699 8.84755 1.88588 7.76421 2.32366 6.75033C2.76088 5.73644 3.35449 4.85449 4.10449 4.10449C4.85449 3.35449 5.73644 2.7606 6.75033 2.32283C7.76421 1.8856 8.84755 1.66699 10.0003 1.66699C11.1531 1.66699 12.2364 1.8856 13.2503 2.32283C14.2642 2.7606 15.1462 3.35449 15.8962 4.10449C16.6462 4.85449 17.2398 5.73644 17.677 6.75033C18.1148 7.76421 18.3337 8.84755 18.3337 10.0003C18.3337 11.1531 18.1148 12.2364 17.677 13.2503C17.2398 14.2642 16.6462 15.1462 15.8962 15.8962C15.1462 16.6462 14.2642 17.2398 13.2503 17.677C12.2364 18.1148 11.1531 18.3337 10.0003 18.3337Z" fill="#FF5600"/>
</svg>
