<svg width="70" height="70" viewBox="0 0 70 70" fill="none" xmlns="http://www.w3.org/2000/svg">
<g filter="url(#filter0_d_383_3633)">
<circle cx="35" cy="33" r="30" fill="#EDEDED" fill-opacity="0.02" shape-rendering="crispEdges"/>
</g>
<path d="M30.1 35H38.2C38.5825 35 38.9034 34.904 39.1626 34.712C39.4209 34.5207 39.55 34.2833 39.55 34V32L42.25 34V28L39.55 30V28C39.55 27.7167 39.4209 27.479 39.1626 27.287C38.9034 27.0957 38.5825 27 38.2 27H30.1C29.7175 27 29.3967 27.0957 29.1375 27.287C28.8792 27.479 28.75 27.7167 28.75 28V34C28.75 34.2833 28.8792 34.5207 29.1375 34.712C29.3967 34.904 29.7175 35 30.1 35ZM22 43V25C22 24.45 22.2646 23.979 22.7938 23.587C23.3221 23.1957 23.9575 23 24.7 23H46.3C47.0425 23 47.6784 23.1957 48.2076 23.587C48.7359 23.979 49 24.45 49 25V37C49 37.55 48.7359 38.021 48.2076 38.413C47.6784 38.8043 47.0425 39 46.3 39H27.4L22 43ZM24.7 38.175L26.2863 37H46.3V25H24.7V38.175ZM24.7 25V38.175V25Z" fill="#10788E"/>
<defs>
<filter id="filter0_d_383_3633" x="0" y="0" width="70" height="70" filterUnits="userSpaceOnUse" color-interpolation-filters="sRGB">
<feFlood flood-opacity="0" result="BackgroundImageFix"/>
<feColorMatrix in="SourceAlpha" type="matrix" values="0 0 0 0 0 0 0 0 0 0 0 0 0 0 0 0 0 0 127 0" result="hardAlpha"/>
<feOffset dy="2"/>
<feGaussianBlur stdDeviation="2.5"/>
<feComposite in2="hardAlpha" operator="out"/>
<feColorMatrix type="matrix" values="0 0 0 0 0.0627451 0 0 0 0 0.470588 0 0 0 0 0.556863 0 0 0 1 0"/>
<feBlend mode="normal" in2="BackgroundImageFix" result="effect1_dropShadow_383_3633"/>
<feBlend mode="normal" in="SourceGraphic" in2="effect1_dropShadow_383_3633" result="shape"/>
</filter>
</defs>
</svg>

