<svg width="151" height="16" viewBox="0 0 151 16" fill="none" xmlns="http://www.w3.org/2000/svg">
    <path d="M16.7122 0.660156C16.3153 2.83382 16.0891 4.5121 15.6247 6.13308C15.2476 7.45076 15.6247 7.76081 17.2123 7.67318C26.7739 7.14746 36.3394 6.66219 45.9049 6.2342C63.7976 5.4501 81.7022 5.03108 99.6187 4.97716C114.03 4.91313 128.442 4.93672 142.838 5.65117C145.259 5.77249 147.7 5.84326 150.348 6.4903C148.907 7.23171 147.549 7.26878 146.228 7.3564C129.605 8.43481 112.951 8.52918 96.2965 8.75497C69.9854 9.10882 43.6743 9.01109 17.3592 8.93694C15.6882 8.93694 15.2357 9.36831 15.1841 10.7062C15.1286 12.2194 15.2357 13.7392 15.3151 15.6602C10.8896 12.0913 6.09888 9.55368 0.347656 7.28902C6.63074 6.14321 11.8183 4.1414 16.7122 0.660156Z" fill="url(#paint0_linear_1300_45047)"/>
    <defs>
    <linearGradient id="paint0_linear_1300_45047" x1="150.348" y1="8.16016" x2="0.347656" y2="8.16016" gradientUnits="userSpaceOnUse">
    <stop offset="0.182292" stop-color="#FF8001" stop-opacity="0"/>
    <stop offset="1" stop-color="#EDEDED"/>
    </linearGradient>
    </defs>
    </svg>
    