<svg width="51" height="21" viewBox="0 0 51 21" fill="none" xmlns="http://www.w3.org/2000/svg">
    <path d="M0.332126 18.6346C0.332126 18.1061 0.671777 17.741 1.13814 17.4112C5.85395 14.0779 10.5674 10.7419 15.2785 7.40314C18.6551 5.01372 22.0296 2.62346 25.4021 0.232357C25.6388 0.0640054 25.7602 0.0469174 26.0101 0.232357C33.8608 5.97742 41.7179 11.7197 49.5815 17.4593C50.5133 18.1397 50.5811 18.9884 49.7645 19.6321C49.4234 19.8985 48.9553 20.0628 48.4533 20.0921C47.9514 20.1214 47.4525 20.0137 47.0561 19.7903C46.8968 19.6974 46.7466 19.5967 46.6065 19.489C39.7636 14.3904 32.9239 9.28877 26.0875 4.1842C25.7672 3.94496 25.622 3.97091 25.3202 4.188C18.2063 9.31788 11.0857 14.4427 3.95829 19.5625C3.02029 20.2371 1.84648 20.2783 0.947193 19.6745C0.750562 19.541 0.594421 19.3797 0.488575 19.2008C0.38273 19.0218 0.329466 18.8291 0.332126 18.6346Z" fill="#EDEDED"/>
    </svg>
    