<svg width="51" height="21" viewBox="0 0 51 21" fill="none" xmlns="http://www.w3.org/2000/svg">
    <path d="M50.914 1.5646C50.914 2.09307 50.5743 2.45826 50.108 2.788C45.3921 6.12128 40.6787 9.45731 35.9676 12.7961C32.591 15.1855 29.2165 17.5758 25.844 19.9669C25.6073 20.1352 25.4859 20.1523 25.236 19.9669C17.3853 14.2218 9.52819 8.47948 1.6646 2.7399C0.73276 2.05953 0.665003 1.21081 1.48157 0.567145C1.82268 0.300678 2.29083 0.136422 2.79276 0.107099C3.29469 0.0777757 3.79357 0.185538 4.18999 0.408919C4.34925 0.501841 4.49948 0.602497 4.63962 0.710181C11.4825 5.80884 18.3222 10.9105 25.1586 16.015C25.4789 16.2543 25.6241 16.2283 25.9259 16.0112C33.0398 10.8813 40.1604 5.75652 47.2878 0.636764C48.2258 -0.0379095 49.3996 -0.0790475 50.2989 0.524741C50.4955 0.658216 50.6517 0.819489 50.7575 0.998437C50.8634 1.17738 50.9166 1.37014 50.914 1.5646Z" fill="#EDEDED"/>
    </svg>
    