<svg width="151" height="16" viewBox="0 0 151 16" fill="none" xmlns="http://www.w3.org/2000/svg">
    <path d="M134.331 15.0996C134.728 12.9259 134.954 11.2477 135.418 9.62669C135.795 8.30901 135.418 7.99896 133.831 8.08658C124.269 8.61231 114.704 9.09758 105.138 9.52557C87.2454 10.3097 69.3408 10.7287 51.4243 10.7826C37.0125 10.8466 22.6007 10.823 8.20483 10.1086C5.78368 9.98728 3.3427 9.91651 0.695313 9.26946C2.13609 8.52806 3.49351 8.49099 4.81522 8.40336C21.4378 7.32496 38.0921 7.23059 54.7464 7.00479C81.0576 6.65094 107.369 6.74868 133.684 6.82282C135.355 6.82282 135.807 6.39146 135.859 5.05356C135.914 3.54041 135.807 2.02053 135.728 0.0996094C140.153 3.66847 144.944 6.20609 150.695 8.47075C144.412 9.61656 139.225 11.6184 134.331 15.0996Z" fill="url(#paint0_linear_882_8)"/>
    <defs>
    <linearGradient id="paint0_linear_882_8" x1="0.695312" y1="7.59961" x2="150.695" y2="7.59961" gradientUnits="userSpaceOnUse">
    <stop offset="0.182292" stop-color="#FF8001" stop-opacity="0"/>
    <stop offset="1" stop-color="#EDEDED"/>
    </linearGradient>
    </defs>
    </svg>
    