<svg width="80" height="14" viewBox="0 0 150 14" fill="none" xmlns="http://www.w3.org/2000/svg">
<path d="M133.635 14C134.032 11.9816 134.259 10.4232 134.723 8.918C135.1 7.69444 134.723 7.40654 133.135 7.4879C123.574 7.97608 114.008 8.42668 104.443 8.82411C86.5501 9.55219 68.6455 9.94128 50.729 9.99135C36.3172 10.0508 21.9054 10.0289 7.50952 9.36549C5.08837 9.25283 2.64739 9.18712 0 8.58629C1.44078 7.89785 2.7982 7.86342 4.11991 7.78206C20.7425 6.78068 37.3968 6.69305 54.0511 6.48339C80.3622 6.15481 106.673 6.24557 132.988 6.31441C134.659 6.31441 135.112 5.91386 135.164 4.67152C135.219 3.26646 135.112 1.85514 135.033 0.0714293C139.458 3.38537 144.249 5.74173 150 7.84463C143.717 8.9086 138.529 10.7674 133.635 14Z" fill="url(#paint0_linear_231_333)"/>
<defs>
<linearGradient id="paint0_linear_231_333" x1="0" y1="7.03571" x2="150" y2="7.03571" gradientUnits="userSpaceOnUse">
<stop offset="0.46875" stop-color="#131313" stop-opacity="0"/>
<stop offset="0.682292" stop-color="#131313" stop-opacity="0.5"/>
<stop offset="1" stop-color="#131313"/>
</linearGradient>
</defs>
</svg>
