<svg width="159" height="19" viewBox="0 0 159 19" fill="none" xmlns="http://www.w3.org/2000/svg">
    <path d="M141.654 18.688C142.074 16.0268 142.314 13.9721 142.806 11.9875C143.206 10.3743 142.806 9.99468 141.123 10.102C130.988 10.7456 120.849 11.3397 110.709 11.8637C91.7431 12.8237 72.7642 13.3367 53.7727 13.4027C38.4962 13.4811 23.2197 13.4522 7.96009 12.5775C5.39367 12.429 2.80623 12.3423 0 11.5502C1.52723 10.6425 2.96609 10.5971 4.3671 10.4898C21.987 9.1695 39.6406 9.05397 57.2942 8.77753C85.184 8.34431 113.074 8.46397 140.968 8.55474C142.739 8.55474 143.219 8.02662 143.273 6.38863C143.332 4.5361 143.219 2.6753 143.134 0.32353C147.826 4.69288 152.904 7.79968 159 10.5723C152.34 11.9751 146.841 14.4259 141.654 18.688Z" fill="url(#paint0_linear_1760_1228)"/>
    <defs>
    <linearGradient id="paint0_linear_1760_1228" x1="0" y1="9.50576" x2="159" y2="9.50576" gradientUnits="userSpaceOnUse">
    <stop offset="0.182292" stop-color="#FF8001" stop-opacity="0"/>
    <stop offset="1" stop-color="#0F0F0F"/>
    </linearGradient>
    </defs>
    </svg>
    