<svg width="151" height="16" viewBox="0 0 151 16" fill="none" xmlns="http://www.w3.org/2000/svg">
    <path d="M16.7962 0.5C16.3993 2.67367 16.1731 4.35194 15.7087 5.97292C15.3316 7.2906 15.7087 7.60065 17.2963 7.51303C26.8579 6.9873 36.4234 6.50203 45.9889 6.07404C63.8816 5.28995 81.7862 4.87093 99.7026 4.81701C114.114 4.75297 128.526 4.77657 142.922 5.49101C145.343 5.61233 147.784 5.6831 150.432 6.33014C148.991 7.07155 147.633 7.10862 146.312 7.19624C129.689 8.27465 113.035 8.36902 96.3805 8.59482C70.0694 8.94867 43.7583 8.85093 17.4432 8.77679C15.7722 8.77679 15.3197 9.20815 15.2681 10.5461C15.2126 12.0592 15.3197 13.5791 15.3991 15.5C10.9736 11.9311 6.18286 9.39352 0.431641 7.12886C6.71472 5.98305 11.9023 3.98124 16.7962 0.5Z" fill="url(#paint0_linear_759_839)"/>
    <defs>
    <linearGradient id="paint0_linear_759_839" x1="150.432" y1="8" x2="0.431641" y2="8" gradientUnits="userSpaceOnUse">
    <stop offset="0.182292" stop-color="#FF8001" stop-opacity="0"/>
    <stop offset="1" stop-color="#EDEDED"/>
    </linearGradient>
    </defs>
    </svg>
    