<svg width="375" height="201" viewBox="0 0 375 201" fill="none" xmlns="http://www.w3.org/2000/svg">
    <path d="M83.4717 154.362C85.074 153.456 86.9242 153.398 88.6475 152.93C93.4677 151.635 98.0834 149.674 102.361 147.103C110.551 142.241 117.147 135.099 121.344 126.55C123.566 122.065 124.878 117.378 124.866 112.279C124.799 84.634 124.789 56.9892 124.836 29.3444C124.836 27.3375 124.836 27.3164 126.867 27.2771C132.657 27.1653 138.449 27.1079 144.236 26.9416C145.581 26.9054 146.01 27.2287 146.007 28.6583C145.965 62.3459 145.954 96.0334 145.974 129.721C145.974 143.065 145.953 156.409 146.007 169.752C146.007 171.146 145.629 171.533 144.251 171.515C138.307 171.445 132.363 171.454 126.414 171.515C125.153 171.515 124.781 171.128 124.802 169.882C124.869 165.805 124.826 161.722 124.817 157.645C124.79 157.39 124.743 157.137 124.678 156.889C123.034 158.216 121.534 159.491 119.968 160.679C115.273 164.24 110.412 167.552 104.767 169.417C101.81 170.451 98.7776 171.259 95.6976 171.835C95.6674 171.382 95.2472 171.351 94.972 171.167C88.8923 167.087 85.4035 161.257 83.4717 154.362Z" fill="#FF5600"/>
    <path d="M70.2932 176.047C63.7327 176.349 57.2419 175.745 50.7661 174.726C47.1609 174.176 43.5928 173.405 40.082 172.417C27.6868 168.905 17.2566 162.51 9.87085 151.72C6.81436 147.253 4.70112 142.351 3.1502 137.137C0.731617 129.067 0.0241847 120.816 0.027208 112.462C0.027208 81.3921 0.0181394 50.3219 0 19.2517C0 17.8614 0.238828 17.3718 1.76858 17.399C7.71226 17.5018 13.6559 17.4836 19.6057 17.399C20.945 17.3809 21.2654 17.7285 21.2624 19.0553C21.2241 50.3773 21.209 81.6993 21.217 113.021C21.217 117.661 21.4589 122.291 22.3568 126.819C24.1314 135.771 28.0344 143.442 36.3906 148.117C39.648 149.935 43.1234 151.332 46.7331 152.273C51.1756 153.496 55.7366 154.238 60.3377 154.485C60.5394 154.477 60.7406 154.51 60.9289 154.583C61.1172 154.656 61.2885 154.767 61.4321 154.909C63.3034 162.41 66.0818 169.525 70.2932 176.047Z" fill="#FF5600"/>
    <path d="M206.392 200.455C189.16 200.515 171.942 200.17 154.725 199.723C148.337 199.557 141.937 199.527 135.558 199.119C127.927 198.626 120.278 198.563 112.663 197.852C107.731 197.398 102.846 196.527 98.0606 195.25C91.5903 193.535 85.5094 190.595 80.148 186.588C78.3763 185.267 76.8436 183.626 75.2231 182.112C75.0236 181.924 74.7878 181.598 74.824 181.374C74.8936 180.912 75.3712 181.039 75.6978 181.018C80.5994 180.696 85.4622 179.934 90.2274 178.742C94.6171 177.635 99.025 176.575 103.378 175.329C104.639 174.967 105.697 175.423 106.749 175.662C110.284 176.46 113.866 176.813 117.458 177.052C122.225 177.354 127.011 177.484 131.779 177.762C139.817 178.225 147.871 178.458 155.91 178.669C190.605 179.549 337.779 179.395 372.482 179.364C374.599 179.364 374.599 179.364 374.599 181.534C374.599 187.226 374.553 192.917 374.629 198.605C374.647 200.007 374.327 200.503 372.815 200.5C354.827 200.436 224.377 200.455 206.392 200.455Z" fill="#EDEDED"/>
    <path d="M76.2328 30.0701C81.4112 29.7649 86.5971 30.5251 91.4699 32.3037C100.237 35.459 107.154 40.8087 110.921 49.5947C111.91 51.9008 112.336 54.3973 112.614 56.9029C112.717 57.8398 112.49 58.2811 111.429 58.266C107.956 58.2176 104.476 58.2388 101.002 58.266C100.364 58.266 100.047 58.127 99.9017 57.3925C98.4838 50.1811 93.9248 45.7805 87.1799 43.3988C80.036 40.8752 72.7621 40.8268 65.6001 42.9666C60.0283 44.632 55.3634 47.869 53.1535 53.545C50.5565 60.2275 52.1558 66.4899 58.175 70.9842C61.4462 73.4263 65.2101 74.8921 69.095 76.1011C76.4837 78.4042 84.1265 79.8489 91.4004 82.5176C98.7559 85.2136 105.51 88.8646 110.078 95.6106C113.627 100.848 114.513 106.636 113.948 112.802C113.382 118.968 110.991 124.372 106.937 129.02C103.611 132.813 99.4784 135.44 94.8771 137.431C87.8632 140.469 80.4714 141.167 72.9677 140.946C65.2434 140.717 57.7911 139.224 51.0674 135.143C44.3438 131.063 39.7061 125.472 37.5989 117.843C37.1077 116.114 36.7389 114.353 36.4955 112.572C36.3594 111.533 36.7343 111.158 37.8196 111.176C41.1936 111.236 44.5675 111.197 47.9444 111.197C49.834 111.197 50.0607 111.357 50.2723 113.295C50.4598 114.918 51.0523 116.383 51.7295 117.828C53.8125 122.335 57.5492 125.04 61.9601 126.771C69.4366 129.709 77.1942 129.845 84.8944 127.935C91.1283 126.391 96.5822 123.284 99.6175 117.308C103.106 110.444 102.363 101.822 93.5922 96.9707C89.5048 94.7099 85.1272 93.232 80.6467 91.9868C75.991 90.6902 71.3926 89.185 66.7399 87.9217C61.581 86.559 56.65 84.447 52.1044 81.6532C47.237 78.6308 43.1103 74.874 41.0575 69.2977C39.5064 65.1522 39.0068 60.6871 39.6033 56.3014C40.864 46.6963 46.2544 40.047 54.3597 35.3049C58.5318 32.8598 63.0787 31.4665 67.8464 30.5628C70.658 30.0459 73.4454 30.2938 76.2328 30.0701Z" fill="#10788E"/>
    <path d="M68.0391 25.1843C70.4832 21.4968 73.4266 18.1657 76.7853 15.286C80.8001 11.8674 85.3291 9.10319 90.2054 7.0953C94.4899 5.34496 98.9392 4.02867 103.486 3.16619C117.046 0.509514 130.771 0.615296 144.491 0.533691C145.676 0.533691 146.02 0.83593 146.002 2.02071C145.948 8.1622 145.948 14.3077 146.002 20.4573C146.002 21.4154 145.791 21.7146 144.793 21.7176C138.601 21.7176 132.398 21.642 126.224 21.9382C120.519 22.2133 114.808 22.5609 109.164 23.661C104.593 24.5526 100.128 25.6437 95.9949 27.85C95.7459 27.9752 95.471 28.0404 95.1922 28.0404C94.9135 28.0404 94.6386 27.9752 94.3896 27.85C90.3354 26.0366 86.0303 25.281 81.6617 24.876C77.1238 24.4647 72.5538 24.5682 68.0391 25.1843Z" fill="#EDEDED"/>
    <path d="M74.1917 123.787C68.7227 123.639 63.5106 122.672 59.142 119.015C57.8814 117.957 57.05 116.857 56.9956 115.047C56.7658 107.188 56.6932 99.3544 56.6025 91.5083C56.6025 90.2208 56.9049 89.9971 58.0688 90.5079C61.1495 91.8619 64.3722 92.7989 67.6252 93.6482C70.7936 94.4763 73.9256 95.4344 77.0728 96.3441C77.8196 96.5617 77.8165 97.1632 77.8317 97.7979C77.9808 104.892 78.1431 111.984 78.3184 119.072C78.3486 120.281 78.4756 121.49 78.6207 122.678C78.7144 123.452 78.4726 123.812 77.6654 123.793C76.5075 123.769 75.3496 123.787 74.1917 123.787Z" fill="#EDEDED"/>
    <path d="M70.2924 176.049C66.0871 169.527 63.3027 162.412 61.4404 154.91C65.0502 154.684 68.5904 155.603 72.2031 155.515C75.5498 155.436 78.8542 155.185 82.1254 154.442C82.5707 154.377 83.0208 154.349 83.4707 154.36C85.4026 161.254 88.8914 167.085 94.959 171.141C95.2341 171.325 95.6543 171.355 95.6846 171.809C89.3358 173.552 83.0051 175.2 76.3963 175.635C74.3708 175.774 72.3482 176.158 70.2924 176.049Z" fill="#EDEDED"/>
    <path d="M57.3135 59.7398C57.3377 54.4718 60.0797 51.3738 63.9888 49.2823C69.0769 46.5622 74.6366 46.5017 80.2356 47.0488C80.9521 47.1213 80.8705 47.4659 80.7254 47.9555C78.4882 55.6263 77.8231 63.4966 77.7959 71.4425C77.7959 73.129 77.8261 72.9779 76.1996 72.6031C73.5301 72.0074 70.904 71.2319 68.3392 70.2819C64.2699 68.7435 60.2218 67.0691 58.0118 62.8952C57.4163 61.7739 57.3891 60.5105 57.3135 59.7398Z" fill="#EDEDED"/>
    <path d="M368.676 133.227C369.568 132.474 368.888 131.172 369.52 130.471C370.242 129.67 371.394 130.026 372.367 130.096C373.737 130.189 373.459 131.341 373.462 132.127C373.495 141.058 373.646 149.989 373.404 158.914C373.296 162.919 370.801 165.53 366.901 166.772C361.85 168.398 357.085 167.981 352.816 164.769C352.057 164.2 350.129 163.221 351.607 161.625C352.84 160.28 354.119 159.981 355.731 161.625C358.149 164.064 361.266 164.732 364.522 163.523C368.945 161.879 369.843 159.594 368.673 153.108C365.798 155.798 362.66 157.56 358.76 156.406C356.148 155.632 353.778 154.592 352.109 152.078C348.29 146.335 348.919 137.005 353.699 132.553C357.892 128.651 363.488 128.881 368.676 133.227ZM353.862 144.011C353.871 144.795 353.941 145.577 354.071 146.35C354.857 150.14 357.318 152.319 361.076 152.664C364.598 152.987 367.424 151.385 368.495 147.964C369.598 144.404 369.659 140.753 367.89 137.277C366.663 134.841 364.58 133.665 361.949 133.526C357.061 133.266 353.892 137.18 353.859 144.011H353.862Z" fill="#EDEDED"/>
    <path d="M61.4099 144.86L62.6192 145.002C62.7711 145.189 62.981 145.32 63.2159 145.375C63.4507 145.43 63.6971 145.405 63.9162 145.304L65.2494 145.473C65.9206 145.969 66.6764 145.945 67.4473 145.824C71.5982 146.072 75.7461 146.646 79.9121 146.005C80.8916 145.854 81.4811 146.147 81.4902 147.232C81.4902 148.16 82.1704 149.224 80.42 149.514C75.6191 150.309 70.8212 150.306 65.9992 149.865C64.7506 149.75 63.496 149.653 62.2534 149.481C60.1916 149.2 59.9557 148.91 59.7895 146.74C59.7683 146.492 59.7411 146.241 59.7169 145.993C59.8179 145.471 59.7729 144.932 59.5869 144.434L60.4788 144.473C60.5392 145.186 61.0562 144.83 61.4099 144.86Z" fill="#EDEDED"/>
    <path d="M170.717 14.9605C170.717 18.8564 170.557 22.7643 170.763 26.6511C170.968 30.5379 173.895 33.2127 178.148 33.7719C182.886 34.3945 186.976 32.439 188.458 28.9935C189.24 27.1581 189.62 25.1761 189.57 23.1814C189.495 16.8344 189.543 10.4874 189.543 4.11923C189.543 2.77124 189.331 1.39908 191.484 1.4837C193.452 1.55624 194.205 2.27859 194.175 4.30964C194.078 11.107 194.268 17.9104 194.096 24.7077C193.927 31.4416 189.782 36.2865 183.899 37.6103C176.945 39.1789 169.003 36.4255 166.854 30.3566C166.407 29.2329 166.158 28.0408 166.116 26.8325C166.089 19.2523 166.095 11.6722 166.083 4.09203C166.083 2.71986 165.923 1.37187 168.057 1.49579C169.934 1.60762 170.563 2.50225 170.536 4.26733C170.479 7.83374 170.518 11.4002 170.518 14.9696L170.717 14.9605Z" fill="#EDEDED"/>
    <path d="M215.428 120.536C221.284 120.666 225.375 122.468 227.709 127.273C228.12 128.119 229.009 129.425 227.799 129.836C226.59 130.247 224.824 130.846 223.706 129.053C221.209 125.037 215.613 123.362 211.41 125.569C209.817 126.406 208.354 127.642 208.269 129.924C208.185 132.085 209.061 133.551 210.736 134.612C213.699 136.479 217.218 136.827 220.468 137.909C226.212 139.825 228.83 142.709 228.688 147.508C228.531 152.794 225.722 155.557 219.697 157.195C214.784 158.534 210.525 157.533 206.501 154.738C205.125 153.783 203.925 152.513 203.75 150.869C203.641 149.875 201.633 148.657 203.62 147.813C205.158 147.161 206.718 147.245 207.852 149.043C210.972 153.967 216.574 155.14 221.535 152.102C223.515 150.893 224.531 149.149 224.407 146.882C224.289 144.673 222.85 143.506 220.885 142.612C216.879 140.798 212.366 140.451 208.514 138.172C205.361 136.307 203.517 133.786 203.795 130.036C204.073 126.285 206.213 123.671 209.457 122.066C211.543 121.044 213.762 120.189 215.428 120.536Z" fill="#EDEDED"/>
    <path d="M217.846 79.3292C217.619 84.9629 220.537 91.2465 226.066 93.1325C229.945 94.4563 236.542 92.5854 238.595 88.348C238.837 87.8493 238.897 87.2086 239.254 86.8368C239.705 86.3298 240.313 85.9892 240.981 85.8696C241.649 85.7501 242.337 85.8587 242.936 86.1779C244.055 86.7522 243.541 88.0518 243.145 88.8981C241.068 93.2896 237.945 96.3906 232.899 97.2701C217.725 99.9207 212.296 86.5618 213.641 76.3491C214.548 69.4913 217.468 63.9573 224.555 61.5394C231.829 59.0339 240.109 62.5277 242.996 69.4974C243.383 70.4283 244.333 71.8639 242.933 72.3898C241.754 72.8311 239.65 73.2572 239.084 71.5496C238.12 68.6299 236.264 66.7289 233.549 65.7919C230.882 64.8852 228.032 64.9517 225.308 65.7345C221.193 66.9162 218.012 72.2387 217.834 78.0114C217.846 78.4376 217.846 78.8849 217.846 79.3292Z" fill="#EDEDED"/>
    <path d="M281.203 25.5064C278.748 25.5064 276.29 25.5577 273.835 25.5064C272.212 25.464 271.528 26.0202 271.994 27.6946C272.822 30.6625 274.452 33.0593 277.53 33.7665C280.492 34.4496 283.552 34.4768 285.741 31.6962C286.844 30.2908 288.386 29.5805 289.71 30.7653C291.364 32.2523 289.807 33.5822 288.737 34.6763C284.936 38.557 280.157 38.7716 275.501 37.2725C271.344 35.9336 268.717 32.7117 267.991 28.1328C267.169 22.9283 267.42 18.0108 271.157 13.8853C274.585 10.1012 280.111 9.1915 284.791 11.2497C290.097 13.583 291.461 19.8001 291.409 23.6415C291.388 25.1527 290.502 25.5245 289.245 25.5245L281.203 25.5064ZM279.313 22.0004C280.755 22.0004 282.207 22.079 283.64 21.9732C284.667 21.8946 286.094 22.6351 286.642 21.4412C287.189 20.2474 286.844 18.8903 286.106 17.6542C283.138 12.7035 275.743 12.7247 272.901 17.7297C271.126 20.8519 271.767 21.9883 275.32 21.9974C276.653 22.0034 277.983 22.0004 279.313 22.0004Z" fill="#EDEDED"/>
    <path d="M364.932 85.3099C362.477 85.3099 360.02 85.3431 357.568 85.3099C355.781 85.2766 355.243 85.9325 355.6 87.764C356.174 90.6927 357.9 92.7782 360.546 93.5066C363.266 94.2501 366.32 94.5251 368.708 92.1465C369.177 91.6811 369.546 91.1189 369.999 90.6353C370.991 89.5745 372.143 90.1215 373.053 90.6111C374.244 91.2549 373.757 92.3097 373.204 93.2074C370.891 96.9702 367.07 97.9253 363.182 97.7409C351.636 97.1758 349.091 86.7123 351.963 78.44C354.789 70.3007 362.583 67.6168 369.195 71.5248C372.823 73.6646 375.459 79.6852 374.746 83.8289C374.501 85.2555 373.672 85.3189 372.629 85.322C370.063 85.322 367.49 85.322 364.929 85.322L364.932 85.3099ZM362.889 81.683C364.219 81.683 365.555 81.7676 366.876 81.6558C367.901 81.5712 369.295 82.3177 369.881 81.0755C370.468 79.8333 370.126 78.4581 369.328 77.2915C367.617 74.7768 365.437 73.3382 362.187 73.7311C359.288 74.0847 357.404 75.7561 356.141 78.0984C354.717 80.7189 355.355 81.6407 358.257 81.68C359.784 81.7042 361.338 81.686 362.889 81.686V81.683Z" fill="#EDEDED"/>
    <path d="M284.686 145.598C284.686 149.168 284.719 151.945 284.662 154.744C284.662 155.521 285.182 156.748 283.794 156.86C282.645 156.956 280.913 157.552 280.468 156.177C279.697 153.719 278.999 155.234 278.086 155.911C273.884 159.012 268.109 158.274 264.693 154.227C261.643 150.63 263.085 144.649 267.414 142.821C270.337 141.588 273.503 141.545 276.544 140.898C278.204 140.545 280.314 141.083 280.296 138.284C280.278 135.627 278.803 134.053 276.441 133.596C273.672 133.061 270.963 133.415 269.019 135.924C267.886 137.386 266.247 137.601 265.005 136.468C263.493 135.074 265.005 133.862 265.911 132.841C269.709 128.64 281.78 127.857 284.205 135.392C285.375 138.976 284.359 142.727 284.686 145.598ZM272.801 153.611C277.518 153.65 279.915 151.743 280.326 147.623C280.68 144.087 279.915 143.392 276.493 144.559C275.084 145.042 273.687 145.163 272.26 145.326C269.609 145.644 267.441 146.632 267.338 149.66C267.26 152.142 269.418 153.583 272.801 153.611Z" fill="#EDEDED"/>
    <path d="M361.895 26.8503C361.895 29.6369 361.932 32.4236 361.871 35.2102C361.853 35.987 362.379 37.1959 361.034 37.3682C359.864 37.5193 358.026 38.0331 357.627 36.933C356.605 34.1221 355.253 36.2711 354.549 36.7063C351.257 38.7404 347.871 38.3414 344.657 37.0539C341.353 35.7301 339.65 32.0125 340.201 28.6214C340.751 25.2303 343.662 22.6582 347.635 22.2291C349.851 21.9933 352.043 21.7787 354.213 21.1954C355.758 20.7813 357.539 21.1954 357.348 18.5085C357.164 15.9576 355.952 14.5371 353.678 14.1139C350.975 13.6122 348.276 13.8298 346.338 16.1631C345.05 17.7106 343.408 18.1337 342.081 16.8311C340.464 15.2473 342.326 13.848 343.318 13.0561C347.332 9.8433 351.907 9.30531 356.692 11.158C360.964 12.8143 361.992 16.3535 361.904 20.4972C361.859 22.6129 361.895 24.7316 361.895 26.8503ZM357.252 27.4971C357.741 25.0217 356.977 24.0818 354.289 24.9069C352.623 25.4207 350.749 25.2514 349.056 25.7078C347.103 26.2367 344.968 26.8201 344.479 29.2682C344.143 30.9547 344.763 32.3631 346.265 33.2184C348.765 34.645 351.405 34.5271 353.905 33.3484C356.233 32.2362 357.675 30.3593 357.252 27.4971Z" fill="#EDEDED"/>
    <path d="M235.269 139.021C235.269 133.883 235.269 128.766 235.269 123.64C235.269 122.319 235.039 120.838 237.168 120.893C239.033 120.944 239.704 121.902 239.674 123.646C239.635 125.985 239.611 128.331 239.692 130.667C239.734 131.834 239.36 133.351 241.612 131.782C247.924 127.388 256.922 129.857 256.885 139.417C256.864 144.555 256.831 149.672 256.919 154.798C256.946 156.36 256.495 156.941 254.878 157.001C253.022 157.071 252.677 156.297 252.713 154.641C252.81 149.962 252.807 145.271 252.728 140.599C252.65 136.008 250.437 133.523 246.603 133.508C242.322 133.487 239.795 135.986 239.689 140.599C239.583 145.277 239.556 149.968 239.713 154.638C239.786 156.771 238.728 156.892 237.098 156.992C235.227 157.107 235.233 156.085 235.245 154.734C235.296 149.506 235.269 144.259 235.269 139.021Z" fill="#EDEDED"/>
    <path d="M321.983 143.606C321.983 139.925 321.944 136.241 322.013 132.562C322.031 131.683 321.517 130.256 322.92 130.114C324.054 130.003 325.565 129.313 326.264 131.269C327.21 133.92 328.38 131.538 329.166 131.106C333.755 128.615 339.962 129.455 342.556 134.615C343.418 136.325 343.2 138.093 343.251 139.825C343.39 144.728 343.278 149.639 343.369 154.547C343.399 156.059 343.393 157.098 341.353 157.008C339.645 156.932 338.976 156.424 339.01 154.659C339.097 150.089 339.064 145.513 339.034 140.941C338.998 135.872 337.054 133.493 333.045 133.512C328.876 133.533 326.5 136.165 326.433 140.995C326.367 145.568 326.336 150.144 326.457 154.717C326.509 156.575 325.723 156.917 324.099 157.002C322.222 157.095 321.892 156.3 321.937 154.647C322.055 150.969 321.983 147.288 321.983 143.606Z" fill="#EDEDED"/>
    <path d="M206.458 13.8602C209.412 10.2334 213.136 9.44152 217.23 10.6051C220.982 11.6751 223.225 15.2626 223.325 20.1257C223.427 25.034 223.3 29.9424 223.376 34.8507C223.403 36.6128 222.989 37.4983 220.979 37.5316C218.908 37.5679 218.971 36.4224 218.983 34.9898C219.017 30.3051 219.041 25.6204 218.983 20.9326C218.926 16.5472 216.764 14.1081 213.021 14.0325C208.988 13.9509 206.156 16.5864 206.044 20.8208C205.917 25.6143 205.995 30.4139 206.02 35.2104C206.02 36.5342 206.05 37.5769 204.154 37.5316C202.425 37.4893 201.784 36.9271 201.799 35.1892C201.863 28.1622 201.784 21.1351 201.863 14.1081C201.878 12.745 201.028 10.8681 203.541 10.4359C206.24 9.96741 205.723 12.2554 206.458 13.8602Z" fill="#EDEDED"/>
    <path d="M295.879 93.0684C293.461 96.6741 290.719 97.9043 287.112 97.3844C283.182 96.8313 280.376 94.4074 279.947 90.448C279.285 84.3368 279.738 78.1922 279.599 72.0628C279.563 70.4882 280.407 70.3129 281.716 70.2494C283.315 70.1829 283.883 70.739 283.853 72.3439C283.774 76.9168 283.796 81.4897 283.811 86.0625C283.829 90.5659 286.172 93.6397 289.636 93.5309C292.88 93.4281 296.735 90.6566 296.454 86.1109C296.173 81.5652 296.499 76.9652 296.342 72.3983C296.275 70.3915 297.279 70.325 298.761 70.2615C300.574 70.1799 300.943 71.0473 300.931 72.6794C300.871 80.0379 300.871 87.3994 300.931 94.764C300.931 96.251 300.931 97.324 298.909 97.2605C297.222 97.2061 296.058 97.0157 296.348 94.9393C296.366 94.6401 296.188 94.3137 295.879 93.0684Z" fill="#EDEDED"/>
    <path d="M249.042 83.5572C248.988 80.4955 249.647 77.6545 251.361 75.0582C254.179 70.8269 258.919 69.0709 264.527 70.3222C268.569 71.2289 272.27 75.5056 272.911 79.9364C273.79 86.0114 273.515 91.7569 267.983 95.7646C264.246 98.4848 259.82 98.4364 255.98 96.7046C252.141 94.9727 249.514 91.5272 249.275 86.8879C249.217 85.7756 249.121 84.6664 249.042 83.5572ZM269.298 83.5995C269.688 81.5201 268.693 79.4286 267.699 77.5185C265.132 72.5285 258.381 72.3441 255.194 77.0167C252.516 80.9458 252.585 86.5886 255.167 90.7747C256.376 92.7452 258.021 93.4948 260.246 93.8635C265.918 94.7763 269.313 89.3179 269.292 83.5995H269.298Z" fill="#EDEDED"/>
    <path d="M335.832 70.0649C339.227 69.9682 342.056 70.6966 343.973 73.4439C344.605 74.3507 346.035 75.3511 344.681 76.4966C343.499 77.4939 342.187 77.4365 340.92 76.019C338.429 73.2324 334.61 72.8183 332.125 74.795C329.522 76.8653 329.815 79.3044 332.824 80.6795C335.242 81.7857 337.921 82.1031 340.451 82.8798C343.925 83.9437 345.787 86.0715 346.111 89.3931C346.452 92.8839 344.23 95.5739 341.361 96.6468C337.207 98.2245 332.706 98.5328 328.618 95.8549C328.145 95.5866 327.723 95.2379 327.37 94.8243C326.442 93.5489 324.504 92.1042 326.245 90.593C327.717 89.3115 329.235 90.0127 330.523 91.95C332.415 94.7971 338.719 94.5644 340.932 91.9168C342.577 89.9522 341.697 87.5011 338.855 86.549C336.548 85.7753 334.127 85.3401 331.823 84.5633C327.684 83.167 325.71 80.5435 326.049 77.1917C326.408 73.6616 329.791 70.5817 333.737 70.1979C334.514 70.1465 335.294 70.1042 335.832 70.0649Z" fill="#EDEDED"/>
    <path d="M324.991 10.1367C328.685 10.2576 331.878 10.9437 333.728 14.2441C334.224 15.1267 334.901 16.39 333.519 17.061C332.494 17.5597 331.231 17.9919 330.381 16.4565C328.776 13.5641 326.01 13.6971 323.34 14.1172C321.574 14.3953 319.915 15.1992 319.712 17.3784C319.51 19.5575 320.955 20.2073 322.684 21.0717C325.027 22.2444 327.618 22.0238 329.982 23.1028C332.8 24.3873 334.961 25.8229 335.182 29.1747C335.421 32.7532 333.93 35.0865 330.647 36.7307C326.472 38.8071 318.276 38.2419 315.882 34.068C315.126 32.7533 314.476 31.5473 315.625 30.6315C316.834 29.6795 318.231 30.148 319.331 31.4446C321.574 34.0801 325.157 34.9475 328.18 33.6177C329.646 32.9709 330.901 31.916 330.801 30.148C330.702 28.3799 329.807 27.1105 327.826 26.7145C325.657 26.2611 323.516 25.6859 321.411 24.9918C317.26 23.6619 314.935 20.7393 315.277 17.4509C315.643 13.9207 318.863 10.9467 322.935 10.3815C323.697 10.2727 324.474 10.1972 324.991 10.1367Z" fill="#EDEDED"/>
    <path d="M252.743 30.8554C254.747 25.0343 256.788 19.2223 258.717 13.377C259.001 12.5186 259.212 11.7116 259.865 11.0558C260.908 10.0009 262.211 10.2971 263.291 10.6568C264.96 11.2129 263.593 12.443 263.375 13.1019C260.755 20.6942 258.04 28.2501 255.231 35.7698C254.741 37.0876 253.532 37.6135 252.002 37.5047C250.605 37.4019 249.84 36.9395 249.339 35.5311C246.817 28.4798 244.102 21.4981 241.644 14.4257C241.251 13.2893 239.504 11.4728 241.644 10.5903C243.915 9.66244 245.227 11.0799 245.959 13.3558C247.839 19.2132 249.889 25.0101 251.887 30.8312L252.743 30.8554Z" fill="#EDEDED"/>
    <path d="M369.099 19.7384C369.099 14.6215 369.133 9.50461 369.081 4.38771C369.081 2.75562 369.254 1.49831 371.319 1.50737C373.383 1.51644 373.51 2.8342 373.507 4.43304C373.473 14.558 373.473 24.682 373.507 34.805C373.507 36.4341 373.42 37.5252 371.27 37.5252C369.066 37.5252 369.066 36.3162 369.081 34.7476C369.127 29.7516 369.099 24.7435 369.099 19.7384Z" fill="#EDEDED"/>
    <path d="M296.36 133.453C298.743 130.666 300.926 129.769 303.474 129.702C304.626 129.672 305.735 129.608 305.675 131.346C305.63 132.658 305.739 133.731 303.837 133.683C299.06 133.565 295.819 136.895 296.24 141.903C296.602 146.222 296.288 150.596 296.33 154.945C296.33 156.187 296.33 157.166 294.628 156.97C293.322 156.822 291.907 157.179 291.907 155.033C291.971 147.45 291.925 139.866 291.95 132.28C291.95 131.12 292.152 130.164 293.721 129.983C295.75 129.741 296.563 130.591 296.36 133.453Z" fill="#EDEDED"/>
    <path d="M313.022 73.0383C315.035 70.7926 316.952 70.0854 319.153 69.9856C320.628 69.9191 321.744 69.9524 321.792 71.9714C321.838 73.8634 320.801 73.7848 319.476 73.8513C314.942 74.081 312.707 76.4233 312.674 80.9569C312.638 85.6326 312.583 90.3112 312.707 94.9838C312.756 96.8184 312.045 97.2204 310.389 97.2567C308.632 97.2929 308.16 96.6703 308.182 94.9566C308.275 87.9447 308.16 80.9297 308.281 73.9208C308.3 72.736 307.154 70.8652 309.421 70.3634C311.265 69.9494 312.674 70.5146 313.022 73.0383Z" fill="#EDEDED"/>
    <path d="M297.501 24.0124C297.501 20.2253 297.474 16.4352 297.525 12.6482C297.525 11.8684 297.077 10.6594 298.432 10.5325C299.451 10.4358 300.754 9.96128 301.298 11.4392C301.99 13.3161 302.658 12.757 303.85 11.7233C305.286 10.4781 307.175 9.98243 309.143 10.1064C310.431 10.188 311.235 10.7108 311.259 12.1223C311.284 13.5337 310.625 14.1564 309.231 14.1443C303.444 14.0989 301.624 17.4115 301.842 22.4347C302.014 26.4363 301.842 30.4561 301.893 34.4638C301.915 36.2016 301.757 37.4408 299.475 37.5315C296.993 37.6343 297.519 36.0536 297.51 34.7056C297.486 31.1422 297.501 27.5788 297.501 24.0124Z" fill="#EDEDED"/>
    <path d="M230.577 23.6626C230.577 20.1053 230.592 16.5479 230.577 12.9906C230.577 11.6063 230.423 10.2976 232.539 10.4246C234.187 10.5213 235.194 10.7268 235.161 12.8153C235.052 20.2705 235.052 27.7187 235.161 35.1598C235.194 37.2755 234.175 37.4145 232.524 37.5233C230.39 37.6623 230.562 36.3869 230.571 35.0026C230.595 31.2246 230.577 27.4436 230.577 23.6626Z" fill="#EDEDED"/>
    <path d="M310.382 143.391C310.382 139.598 310.448 135.802 310.352 132.012C310.306 130.304 311.077 129.95 312.559 130.002C313.916 130.047 314.902 130.132 314.886 131.933C314.826 139.631 314.805 147.332 314.905 155.03C314.932 156.898 313.922 156.934 312.628 156.952C311.334 156.971 310.264 157.034 310.336 155.106C310.482 151.207 310.379 147.296 310.382 143.391Z" fill="#EDEDED"/>
    <path d="M233.177 5.99882C231.003 6.01393 229.918 4.944 229.885 3.41165C229.845 1.71912 231.034 0.540383 232.823 0.501092C234.459 0.464823 235.605 1.33225 235.632 3.08221C235.659 4.94098 234.61 5.92023 233.177 5.99882Z" fill="#EDEDED"/>
    <path d="M312.618 120.215C314.471 120.194 315.524 121.104 315.43 122.935C315.336 124.767 314.239 125.468 312.382 125.483C310.526 125.498 309.779 124.323 309.734 122.908C309.683 121.2 310.856 120.23 312.618 120.215Z" fill="#EDEDED"/>
    <path d="M67.4323 145.825C66.6613 145.946 65.9055 145.97 65.2344 145.474C66.0023 145.393 66.8034 145.06 67.4323 145.825Z" fill="#10788E"/>
    <path d="M59.5719 144.434C59.758 144.932 59.803 145.471 59.702 145.993C59.1064 145.519 58.928 145.011 59.5719 144.434Z" fill="#10788E"/>
    <path d="M63.9015 145.305C63.6824 145.406 63.436 145.431 63.2011 145.376C62.9663 145.321 62.7564 145.19 62.6045 145.003C62.8229 144.899 63.0703 144.872 63.3059 144.927C63.5416 144.982 63.7516 145.115 63.9015 145.305Z" fill="#10788E"/>
    <path d="M61.4111 144.861C61.0574 144.83 60.5404 145.187 60.4648 144.474C60.873 144.368 61.263 144.329 61.4111 144.861Z" fill="#10788E"/>
    </svg>
    