<svg width="28" height="36" viewBox="0 0 28 36" fill="none" xmlns="http://www.w3.org/2000/svg">
    <path d="M15.0813 0.344674L15.2513 0.333008C15.5534 0.333021 15.8452 0.442412 16.0729 0.640953C16.3005 0.839493 16.4486 1.11375 16.4896 1.41301L16.5013 1.58301V15.4613C14.8791 15.7139 13.3354 16.3317 11.9869 17.2682C10.6384 18.2046 9.5203 19.4353 8.71704 20.8671C7.91379 22.299 7.44638 23.8946 7.3501 25.5336C7.25383 27.1725 7.53121 28.812 8.1613 30.328H4.41797C3.92537 30.328 3.4376 30.231 2.98252 30.0424C2.52744 29.8538 2.11397 29.5775 1.76573 29.2291C1.41749 28.8807 1.1413 28.4671 0.952942 28.0119C0.764585 27.5568 0.66775 27.0689 0.667969 26.5763V7.41634C0.667969 6.42178 1.06306 5.46795 1.76632 4.76469C2.46958 4.06143 3.42341 3.66634 4.41797 3.66634L14.0013 3.66467V1.58301C14.0013 1.28095 14.1107 0.989104 14.3092 0.761457C14.5078 0.533809 14.782 0.385755 15.0813 0.344674Z" fill="#EDEDED"/>
    <path d="M27.3333 26.1667C27.3333 28.5978 26.3676 30.9294 24.6485 32.6485C22.9294 34.3676 20.5978 35.3333 18.1667 35.3333C15.7355 35.3333 13.4039 34.3676 11.6849 32.6485C9.96577 30.9294 9 28.5978 9 26.1667C9 23.7355 9.96577 21.4039 11.6849 19.6849C13.4039 17.9658 15.7355 17 18.1667 17C20.5978 17 22.9294 17.9658 24.6485 19.6849C26.3676 21.4039 27.3333 23.7355 27.3333 26.1667ZM13.1667 25.3333C12.9457 25.3333 12.7337 25.4211 12.5774 25.5774C12.4211 25.7337 12.3333 25.9457 12.3333 26.1667C12.3333 26.3877 12.4211 26.5996 12.5774 26.7559C12.7337 26.9122 12.9457 27 13.1667 27H21.155L18.41 29.745C18.2537 29.9015 18.166 30.1136 18.1662 30.3348C18.1664 30.5559 18.2544 30.7679 18.4108 30.9242C18.5673 31.0804 18.7795 31.1681 19.0006 31.168C19.2217 31.1678 19.4337 31.0798 19.59 30.9233L23.7567 26.7567C23.9129 26.6004 24.0007 26.3885 24.0007 26.1675C24.0007 25.9465 23.9129 25.7346 23.7567 25.5783L19.59 21.4117C19.4337 21.2552 19.2217 21.1672 19.0006 21.167C18.7795 21.1669 18.5673 21.2546 18.4108 21.4108C18.2544 21.5671 18.1664 21.7791 18.1662 22.0002C18.166 22.2214 18.2537 22.4335 18.41 22.59L21.155 25.3333H13.1667Z" fill="#EDEDED"/>
    </svg>
    