<svg width="41" height="40" viewBox="0 0 41 40" fill="none" xmlns="http://www.w3.org/2000/svg">
<path d="M20.8627 34.6029H8.49482C7.69763 34.6029 7.16427 34.1958 7.01168 33.4877C6.94037 33.1419 7.03734 32.831 7.18851 32.528C8.33821 30.2203 9.22327 27.79 9.8268 25.2834C10.4771 22.5916 10.7616 19.8592 10.7859 17.0926C10.8201 13.1351 12.5585 10.1139 15.9783 8.15375C20.3151 5.66877 25.7542 6.85172 28.7761 10.842C30.1666 12.6781 30.9324 14.7445 30.9581 17.0519C30.9958 20.4204 31.4165 23.7296 32.3756 26.9633C32.9411 28.8643 33.6673 30.7137 34.5461 32.4916C35.0995 33.6132 34.4805 34.6015 33.2298 34.6022C29.1075 34.6027 24.9851 34.6029 20.8627 34.6029Z" fill="#EDEDED"/>
<path d="M20.8664 5.38728C20.3338 5.38417 19.814 5.22323 19.3728 4.92481C18.9316 4.62638 18.5888 4.20385 18.3877 3.71064C18.1865 3.21742 18.1361 2.67565 18.2428 2.1538C18.3495 1.63194 18.6085 1.15343 18.9871 0.778738C19.3657 0.404046 19.8468 0.149993 20.3698 0.0486863C20.8927 -0.0526207 21.4339 0.00336735 21.925 0.209573C22.4162 0.415779 22.8351 0.762946 23.129 1.2072C23.4228 1.65145 23.5784 2.17285 23.576 2.70549C23.5757 3.05992 23.5051 3.41076 23.3685 3.73778C23.2318 4.0648 23.0318 4.36153 22.7799 4.61085C22.528 4.86017 22.2292 5.05714 21.9008 5.1904C21.5724 5.32366 21.2208 5.39057 20.8664 5.38728Z" fill="#EDEDED"/>
<path d="M20.8749 36.074C21.896 36.074 22.9164 36.074 23.9368 36.074C24.1307 36.074 24.2676 36.074 24.2819 36.3442C24.3653 37.94 23.3671 39.4032 21.8647 39.8567C21.1186 40.0803 20.3185 40.0414 19.5977 39.7465C18.8769 39.4515 18.279 38.9184 17.9037 38.2359C17.5806 37.6612 17.4758 37.0394 17.4758 36.3863C17.4758 36.1253 17.5799 36.0697 17.8152 36.0718C18.8342 36.0797 19.8546 36.074 20.8749 36.074Z" fill="#EDEDED"/>
</svg>
