<svg width="41" height="41" viewBox="0 0 41 41" fill="none" xmlns="http://www.w3.org/2000/svg">
    <path d="M3.28786 40.0807C2.3306 40.0132 1.53818 39.568 1.1261 38.5979C0.704553 37.6015 0.937619 36.7064 1.64424 35.9139C1.69626 35.8552 1.75436 35.8011 1.81043 35.7457L36.5823 0.966385C37.5004 0.0483126 38.5772 -0.153677 39.6223 0.392168C40.9059 1.06029 41.299 2.75659 40.4418 3.9307C40.3022 4.12109 40.1482 4.30042 39.981 4.46709C34.8613 9.58686 29.7381 14.7026 24.6116 19.8142C24.3995 20.025 24.3806 20.1311 24.6055 20.3547C29.7591 25.4889 34.9072 30.6266 40.0499 35.768C40.9613 36.678 41.1497 37.7886 40.5796 38.8458C39.9135 40.0814 38.201 40.4638 37.0775 39.6227C36.8798 39.474 36.6929 39.3114 36.5182 39.1363C31.407 34.0247 26.2996 28.9098 21.196 23.7919C20.9643 23.5595 20.8582 23.5635 20.6299 23.7919C15.5119 28.9315 10.3895 34.0638 5.26249 39.189C4.73016 39.7227 4.11608 40.049 3.28786 40.0807Z" fill="#EDEDED"/>
    <path d="M0.921875 2.40338C0.96511 1.51571 1.41503 0.749635 2.33715 0.326065C3.2005 -0.0711585 4.04427 0.0166634 4.81237 0.603041C4.99071 0.739835 5.15995 0.888095 5.31903 1.04688C9.339 5.06595 13.3599 9.08435 17.3817 13.1021C17.5904 13.3101 17.6255 13.4236 17.3931 13.6499C16.392 14.6221 15.4077 15.609 14.4309 16.6095C14.2498 16.794 14.1606 16.7798 13.985 16.6048C9.91502 12.524 5.84078 8.44821 1.76226 4.37734C1.24681 3.86122 0.929982 3.26336 0.921875 2.40338Z" fill="#EDEDED"/>
    </svg>
    
    