<svg width="41" height="41" viewBox="0 0 41 41" fill="none" xmlns="http://www.w3.org/2000/svg">
    <path d="M21.9111 39.8237C21.3934 40.2731 20.7684 40.4485 20.0703 40.1666C19.3541 39.8763 19.0197 39.3065 18.9764 38.5493C18.9729 38.4934 18.975 38.4367 18.9753 38.3804L18.9716 3.25174C18.9716 2.32434 19.4134 1.67844 20.217 1.42629C21.2027 1.11546 22.2581 1.77364 22.4181 2.79964C22.4438 2.96628 22.4565 3.13465 22.4563 3.30326C22.4563 8.47501 22.4525 13.6464 22.445 18.8175C22.4444 19.0311 22.4884 19.0942 22.7149 19.0935C27.911 19.0837 33.1062 19.0785 38.3005 19.0778C39.2203 19.0771 39.8765 19.5429 40.1225 20.3648C40.4101 21.3253 39.7383 22.3834 38.7461 22.526C38.5711 22.5507 38.3946 22.5631 38.2179 22.5629C33.0546 22.5627 27.8916 22.5589 22.7289 22.5516C22.4945 22.5513 22.443 22.6069 22.443 22.8375C22.4539 28.0184 22.4589 33.1979 22.458 38.376C22.4587 38.9144 22.3133 39.3894 21.9111 39.8237Z" fill="#EDEDED"/>
    <path d="M1.68759 21.9884C1.26109 21.5182 1.1014 20.904 1.35321 20.2243C1.58864 19.5877 2.05916 19.2059 2.74328 19.1141C2.90244 19.0931 3.06281 19.0825 3.22335 19.0823C7.28368 19.0819 11.3441 19.0806 15.4047 19.0786C15.6152 19.0782 15.6903 19.1178 15.6872 19.3495C15.6725 20.3462 15.6739 21.3418 15.6858 22.3405C15.6875 22.5251 15.6353 22.563 15.4583 22.5633C11.3415 22.5578 7.22511 22.557 3.10905 22.5609C2.58803 22.5606 2.12604 22.4186 1.68759 21.9884Z" fill="#EDEDED"/>
    </svg>
    