<svg width="41" height="41" viewBox="0 0 41 41" fill="none" xmlns="http://www.w3.org/2000/svg">
    <path d="M20.4747 13.5273H31.0144C31.752 13.5273 31.753 13.5273 31.753 14.2417C31.753 20.5723 31.753 26.9029 31.753 33.2335C31.753 34.8856 31.0212 36.0032 29.6149 36.5378C29.2004 36.6803 28.7634 36.7462 28.3253 36.7321C23.1116 36.7321 17.898 36.7321 12.6844 36.7321C11.0614 36.7321 9.9797 36.0217 9.4413 34.6592C9.29399 34.2637 9.22245 33.844 9.23041 33.422C9.23041 26.9774 9.22652 20.5334 9.21875 14.09C9.21875 13.6041 9.42575 13.5303 9.83587 13.5312C13.3818 13.5345 16.9281 13.5332 20.4747 13.5273Z" fill="#EDEDED"/>
    <path d="M20.4912 12.494H6.10791C5.04471 12.494 4.67832 12.1285 4.67249 11.0673C4.67249 10.7106 4.65597 10.353 4.6861 9.99825C4.74246 9.3442 5.09719 9.01085 5.75513 8.96518C5.93298 8.95254 6.11082 8.95837 6.28964 8.95837H34.7103C34.8882 8.95837 35.067 8.95254 35.2439 8.96518C35.8707 9.01085 36.2449 9.33545 36.2983 9.95743C36.3421 10.4576 36.3421 10.9607 36.2983 11.4609C36.2391 12.1509 35.7939 12.491 35.0165 12.492C30.6289 12.492 26.2404 12.492 21.8509 12.492L20.4912 12.494Z" fill="#EDEDED"/>
    <path d="M20.4368 6.85541C18.9003 6.85541 17.3638 6.85541 15.8283 6.85541C15.081 6.85541 14.6378 6.46667 14.629 5.82137C14.6203 5.17606 15.043 4.74262 15.7885 4.7397C18.9256 4.72739 22.0624 4.72739 25.1988 4.7397C25.9374 4.7397 26.3651 5.17703 26.3495 5.83011C26.334 6.48319 25.8918 6.85347 25.1415 6.85541C23.5739 6.85833 22.0054 6.85541 20.4368 6.85541Z" fill="#EDEDED"/>
    </svg>
    