<svg width="440" height="424" viewBox="0 0 440 424" fill="none" xmlns="http://www.w3.org/2000/svg">
    <mask id="path-1-inside-1_1428_67766" fill="white">
    <path d="M430 194C435.523 194 440.027 189.52 439.742 184.004C438.604 161.943 433.705 140.213 425.233 119.759C415.483 96.2222 401.193 74.8358 383.179 56.8213C365.164 38.8067 343.778 24.5168 320.241 14.7674C299.787 6.29507 278.057 1.39583 255.996 0.257672C250.48 -0.0268831 246 4.47715 246 10L246 184C246 189.523 250.477 194 256 194H430Z"/>
    </mask>
    <path d="M430 194C435.523 194 440.027 189.52 439.742 184.004C438.604 161.943 433.705 140.213 425.233 119.759C415.483 96.2222 401.193 74.8358 383.179 56.8213C365.164 38.8067 343.778 24.5168 320.241 14.7674C299.787 6.29507 278.057 1.39583 255.996 0.257672C250.48 -0.0268831 246 4.47715 246 10L246 184C246 189.523 250.477 194 256 194H430Z" fill="url(#paint0_linear_1428_67766)" fill-opacity="0.25" stroke="#EDEDED" stroke-width="2" mask="url(#path-1-inside-1_1428_67766)"/>
    <mask id="path-2-inside-2_1428_67766" fill="white">
    <path d="M430 230C435.523 230 440.027 234.48 439.742 239.996C438.604 262.057 433.705 283.787 425.233 304.241C415.483 327.778 401.193 349.164 383.179 367.179C365.164 385.193 343.778 399.483 320.241 409.233C299.787 417.705 278.057 422.604 255.996 423.742C250.48 424.027 246 419.523 246 414L246 240C246 234.477 250.477 230 256 230H430Z"/>
    </mask>
    <path d="M430 230C435.523 230 440.027 234.48 439.742 239.996C438.604 262.057 433.705 283.787 425.233 304.241C415.483 327.778 401.193 349.164 383.179 367.179C365.164 385.193 343.778 399.483 320.241 409.233C299.787 417.705 278.057 422.604 255.996 423.742C250.48 424.027 246 419.523 246 414L246 240C246 234.477 250.477 230 256 230H430Z" fill="url(#paint1_linear_1428_67766)" fill-opacity="0.25" stroke="#EDEDED" stroke-width="2" mask="url(#path-2-inside-2_1428_67766)"/>
    <mask id="path-3-inside-3_1428_67766" fill="white">
    <path d="M10 194C4.47714 194 -0.026886 189.52 0.25766 184.004C1.39584 161.943 6.29507 140.213 14.7674 119.759C24.5168 96.2222 38.8067 74.8358 56.8213 56.8213C74.8358 38.8067 96.2223 24.5168 119.759 14.7674C140.213 6.29507 161.943 1.39583 184.004 0.257672C189.52 -0.0268831 194 4.47715 194 10L194 184C194 189.523 189.523 194 184 194H10Z"/>
    </mask>
    <path d="M10 194C4.47714 194 -0.026886 189.52 0.25766 184.004C1.39584 161.943 6.29507 140.213 14.7674 119.759C24.5168 96.2222 38.8067 74.8358 56.8213 56.8213C74.8358 38.8067 96.2223 24.5168 119.759 14.7674C140.213 6.29507 161.943 1.39583 184.004 0.257672C189.52 -0.0268831 194 4.47715 194 10L194 184C194 189.523 189.523 194 184 194H10Z" fill="url(#paint2_linear_1428_67766)" fill-opacity="0.25" stroke="#EDEDED" stroke-width="2" mask="url(#path-3-inside-3_1428_67766)"/>
    <mask id="path-4-inside-4_1428_67766" fill="white">
    <path d="M10 230C4.47714 230 -0.026886 234.48 0.25766 239.996C1.39584 262.057 6.29507 283.787 14.7674 304.241C24.5168 327.778 38.8067 349.164 56.8213 367.179C74.8358 385.193 96.2223 399.483 119.759 409.233C140.213 417.705 161.943 422.604 184.004 423.742C189.52 424.027 194 419.523 194 414L194 240C194 234.477 189.523 230 184 230H10Z"/>
    </mask>
    <path d="M10 230C4.47714 230 -0.026886 234.48 0.25766 239.996C1.39584 262.057 6.29507 283.787 14.7674 304.241C24.5168 327.778 38.8067 349.164 56.8213 367.179C74.8358 385.193 96.2223 399.483 119.759 409.233C140.213 417.705 161.943 422.604 184.004 423.742C189.52 424.027 194 419.523 194 414L194 240C194 234.477 189.523 230 184 230H10Z" fill="url(#paint3_linear_1428_67766)" fill-opacity="0.25" stroke="#EDEDED" stroke-width="2" mask="url(#path-4-inside-4_1428_67766)"/>
    <defs>
    <linearGradient id="paint0_linear_1428_67766" x1="373.5" y1="49" x2="246" y2="194" gradientUnits="userSpaceOnUse">
    <stop stop-color="#FF8001"/>
    <stop offset="1" stop-color="#8E1010" stop-opacity="0"/>
    </linearGradient>
    <linearGradient id="paint1_linear_1428_67766" x1="370" y1="382.5" x2="246" y2="230" gradientUnits="userSpaceOnUse">
    <stop stop-color="#FF8001"/>
    <stop offset="0.993733" stop-color="#8E1010" stop-opacity="0"/>
    </linearGradient>
    <linearGradient id="paint2_linear_1428_67766" x1="57" y1="55.5" x2="194" y2="194" gradientUnits="userSpaceOnUse">
    <stop stop-color="#FF8001"/>
    <stop offset="1" stop-color="#8E1010" stop-opacity="0"/>
    </linearGradient>
    <linearGradient id="paint3_linear_1428_67766" x1="61" y1="370" x2="194" y2="237.5" gradientUnits="userSpaceOnUse">
    <stop stop-color="#FF8001"/>
    <stop offset="1" stop-color="#8E1010" stop-opacity="0"/>
    </linearGradient>
    </defs>
    </svg>
    