<svg width="76" height="76" viewBox="0 0 76 76" fill="none" xmlns="http://www.w3.org/2000/svg">
<path d="M28.539 33.679C28.9633 33.6823 29.3743 33.7685 29.772 33.9375C30.173 34.1032 30.5343 34.3717 30.8558 34.7429C31.1773 35.1108 31.4325 35.6013 31.6214 36.2145C31.8103 36.8243 31.9048 37.575 31.9048 38.4666C31.9048 39.2985 31.8319 40.0608 31.6861 40.7536C31.5402 41.4463 31.3215 42.0462 31.0298 42.5533C30.7415 43.0571 30.3769 43.4482 29.9361 43.7266C29.4986 44.0017 28.9865 44.1392 28.3998 44.1392C27.853 44.1392 27.3674 44.0249 26.9432 43.7962C26.5222 43.5675 26.1808 43.2509 25.919 42.8466C25.6572 42.4389 25.4948 41.9683 25.4318 41.4347H26.3466C26.4361 41.9782 26.6548 42.4257 27.0028 42.777C27.3541 43.1283 27.8198 43.304 28.3998 43.304C29.2317 43.304 29.8781 42.9162 30.3388 42.1406C30.7995 41.3651 31.0298 40.2614 31.0298 38.8295H30.9652C30.8061 39.1278 30.5973 39.388 30.3388 39.6101C30.0835 39.8321 29.7919 40.0062 29.4638 40.1321C29.1356 40.2547 28.7893 40.3161 28.4247 40.3161C27.8579 40.3161 27.3392 40.1735 26.8686 39.8885C26.3979 39.6001 26.0218 39.2074 25.74 38.7102C25.4583 38.2098 25.3174 37.6397 25.3174 37C25.3174 36.3968 25.45 35.8433 25.7152 35.3395C25.9836 34.8324 26.3582 34.428 26.8388 34.1264C27.3227 33.8215 27.8894 33.6723 28.539 33.679ZM28.539 34.5142C28.0982 34.5142 27.7022 34.6269 27.3508 34.8523C27.0028 35.0743 26.7261 35.3743 26.5206 35.7521C26.3184 36.1267 26.2173 36.5426 26.2173 37C26.2173 37.4607 26.3184 37.88 26.5206 38.2578C26.7261 38.6323 27.0028 38.9306 27.3508 39.1527C27.7022 39.3714 28.0982 39.4808 28.539 39.4808C28.8771 39.4808 29.192 39.4129 29.4836 39.277C29.7753 39.1378 30.0272 38.9489 30.2393 38.7102C30.4548 38.4716 30.6172 38.2015 30.7265 37.8999C30.8392 37.5949 30.884 37.2751 30.8608 36.9403C30.821 36.4763 30.6967 36.062 30.4879 35.6974C30.2824 35.3295 30.0106 35.0412 29.6726 34.8324C29.3378 34.6203 28.96 34.5142 28.539 34.5142ZM37.1697 44.1392C36.4538 44.1392 35.8423 43.9337 35.3352 43.5227C34.8314 43.1084 34.4436 42.5102 34.1719 41.728C33.9034 40.9458 33.7692 40.0062 33.7692 38.9091C33.7692 37.8153 33.9034 36.879 34.1719 36.1001C34.4436 35.3179 34.8331 34.7197 35.3402 34.3054C35.8506 33.8878 36.4604 33.679 37.1697 33.679C37.879 33.679 38.4872 33.8878 38.9943 34.3054C39.5047 34.7197 39.8942 35.3179 40.1626 36.1001C40.4344 36.879 40.5703 37.8153 40.5703 38.9091C40.5703 40.0062 40.4344 40.9458 40.1626 41.728C39.8942 42.5102 39.5064 43.1084 38.9993 43.5227C38.4955 43.9337 37.8856 44.1392 37.1697 44.1392ZM37.1697 43.304C37.9552 43.304 38.5684 42.9212 39.0092 42.1555C39.45 41.3866 39.6704 40.3045 39.6704 38.9091C39.6704 37.9811 39.5693 37.1889 39.3672 36.5327C39.1683 35.8731 38.8816 35.3693 38.5071 35.0213C38.1359 34.6733 37.6901 34.4993 37.1697 34.4993C36.3908 34.4993 35.7793 34.8871 35.3352 35.6626C34.8911 36.4349 34.669 37.517 34.669 38.9091C34.669 39.8371 34.7684 40.6293 34.9673 41.2855C35.1695 41.9418 35.4562 42.4422 35.8274 42.7869C36.2019 43.1316 36.6494 43.304 37.1697 43.304ZM47.7443 42.1108V41.6484C47.7443 41.2673 47.8205 40.9242 47.973 40.6193C48.1255 40.3111 48.3425 40.0675 48.6243 39.8885C48.906 39.7095 49.2407 39.62 49.6285 39.62C50.0196 39.62 50.3544 39.7095 50.6328 39.8885C50.9112 40.0675 51.125 40.3111 51.2741 40.6193C51.4233 40.9242 51.4978 41.2673 51.4978 41.6484V42.1108C51.4978 42.492 51.4216 42.835 51.2692 43.1399C51.12 43.4448 50.9062 43.6884 50.6278 43.8707C50.3494 44.0497 50.0163 44.1392 49.6285 44.1392C49.2341 44.1392 48.896 44.0497 48.6143 43.8707C48.3359 43.6884 48.1205 43.4448 47.968 43.1399C47.8189 42.835 47.7443 42.492 47.7443 42.1108ZM48.5248 41.6484V42.1108C48.5248 42.4853 48.616 42.8052 48.7983 43.0703C48.9839 43.3321 49.2606 43.4631 49.6285 43.4631C49.9865 43.4631 50.2566 43.3321 50.4389 43.0703C50.6212 42.8052 50.7123 42.4853 50.7123 42.1108V41.6484C50.7123 41.2739 50.6228 40.9557 50.4439 40.6939C50.2649 40.4287 49.9931 40.2962 49.6285 40.2962C49.2673 40.2962 48.9922 40.4287 48.8032 40.6939C48.6176 40.9557 48.5248 41.2739 48.5248 41.6484ZM42.6136 36.1697V35.7074C42.6136 35.3262 42.6898 34.9832 42.8423 34.6783C42.9948 34.3733 43.2119 34.1314 43.4936 33.9524C43.7753 33.7701 44.1101 33.679 44.4978 33.679C44.8889 33.679 45.2237 33.7701 45.5021 33.9524C45.7805 34.1314 45.9943 34.3733 46.1434 34.6783C46.2926 34.9832 46.3672 35.3262 46.3672 35.7074V36.1697C46.3672 36.5509 46.2909 36.8956 46.1385 37.2038C45.9893 37.5088 45.7755 37.7507 45.4971 37.9297C45.2187 38.1087 44.8856 38.1982 44.4978 38.1982C44.1034 38.1982 43.7654 38.1087 43.4836 37.9297C43.2052 37.7507 42.9898 37.5088 42.8373 37.2038C42.6882 36.8956 42.6136 36.5509 42.6136 36.1697ZM43.3942 35.7074V36.1697C43.3942 36.5443 43.4853 36.8641 43.6676 37.1293C43.8532 37.3911 44.1299 37.522 44.4978 37.522C44.8558 37.522 45.1259 37.3911 45.3082 37.1293C45.4905 36.8641 45.5817 36.5443 45.5817 36.1697V35.7074C45.5817 35.3329 45.4922 35.0147 45.3132 34.7528C45.1342 34.4877 44.8624 34.3551 44.4978 34.3551C44.1366 34.3551 43.8615 34.4877 43.6726 34.7528C43.487 35.0147 43.3942 35.3329 43.3942 35.7074ZM43.071 44L50.066 33.8182H50.946L43.951 44H43.071Z" fill="#10788E"/>
<mask id="path-2-outside-1_80_4600" maskUnits="userSpaceOnUse" x="0.000244141" y="0" width="76" height="76" fill="black">
<rect fill="white" x="0.000244141" width="76" height="76"/>
<path d="M38.0002 73C29.6666 73 21.6065 70.0265 15.2696 64.6142C8.93264 59.202 4.73482 51.7062 3.43115 43.4752C2.12749 35.2442 3.80354 26.8181 8.15784 19.7125C12.5121 12.607 19.2589 7.28825 27.1847 4.71302C35.1104 2.13779 43.6949 2.47508 51.3942 5.66422C59.0934 8.85335 65.4021 14.685 69.1855 22.1103C72.9688 29.5356 73.9786 38.0672 72.0332 46.1706C70.0877 54.2739 65.3148 61.4172 58.5727 66.3156L54.4582 60.6525C59.8519 56.7338 63.6702 51.0192 65.2266 44.5365C66.783 38.0538 65.9751 31.2285 62.9484 25.2883C59.9217 19.348 54.8748 14.6827 48.7154 12.1314C42.556 9.58007 35.6884 9.31024 29.3478 11.3704C23.0072 13.4306 17.6098 17.6856 14.1263 23.37C10.6429 29.0545 9.30204 35.7954 10.345 42.3802C11.3879 48.965 14.7462 54.9616 19.8157 59.2914C24.8852 63.6212 31.3334 66 38.0002 66V73Z"/>
</mask>
<path d="M38.0002 73C29.6666 73 21.6065 70.0265 15.2696 64.6142C8.93264 59.202 4.73482 51.7062 3.43115 43.4752C2.12749 35.2442 3.80354 26.8181 8.15784 19.7125C12.5121 12.607 19.2589 7.28825 27.1847 4.71302C35.1104 2.13779 43.6949 2.47508 51.3942 5.66422C59.0934 8.85335 65.4021 14.685 69.1855 22.1103C72.9688 29.5356 73.9786 38.0672 72.0332 46.1706C70.0877 54.2739 65.3148 61.4172 58.5727 66.3156L54.4582 60.6525C59.8519 56.7338 63.6702 51.0192 65.2266 44.5365C66.783 38.0538 65.9751 31.2285 62.9484 25.2883C59.9217 19.348 54.8748 14.6827 48.7154 12.1314C42.556 9.58007 35.6884 9.31024 29.3478 11.3704C23.0072 13.4306 17.6098 17.6856 14.1263 23.37C10.6429 29.0545 9.30204 35.7954 10.345 42.3802C11.3879 48.965 14.7462 54.9616 19.8157 59.2914C24.8852 63.6212 31.3334 66 38.0002 66V73Z" stroke="#10788E" stroke-width="6" mask="url(#path-2-outside-1_80_4600)"/>
</svg>
