<svg width="73" height="76" viewBox="0 0 73 76" fill="none" xmlns="http://www.w3.org/2000/svg">
<path d="M28.6832 44.1392C28.2623 44.1359 27.8513 44.0514 27.4503 43.8857C27.0492 43.7166 26.688 43.4465 26.3665 43.0753C26.045 42.7008 25.7898 42.2069 25.6008 41.5938C25.4119 40.9806 25.3174 40.2266 25.3174 39.3317C25.3174 38.5031 25.3904 37.7441 25.5362 37.0547C25.682 36.3653 25.9008 35.7687 26.1924 35.2649C26.4841 34.7611 26.8487 34.3717 27.2862 34.0966C27.7237 33.8182 28.2358 33.679 28.8224 33.679C29.3726 33.679 29.8582 33.7933 30.2791 34.022C30.7 34.2474 31.0414 34.5623 31.3032 34.9666C31.5651 35.371 31.7291 35.8366 31.7954 36.3636H30.8807C30.7879 35.8267 30.5674 35.3842 30.2194 35.0362C29.8714 34.6882 29.4058 34.5142 28.8224 34.5142C27.9872 34.5142 27.3409 34.902 26.8835 35.6776C26.4261 36.4498 26.1958 37.5469 26.1924 38.9688H26.2571C26.4195 38.6671 26.6283 38.407 26.8835 38.1882C27.142 37.9661 27.4353 37.7938 27.7635 37.6712C28.0916 37.5452 28.4363 37.4822 28.7976 37.4822C29.3643 37.4822 29.883 37.6264 30.3537 37.9148C30.8243 38.1998 31.2005 38.5926 31.4822 39.093C31.7639 39.5902 31.9048 40.1586 31.9048 40.7983C31.9048 41.4048 31.7706 41.9633 31.5021 42.4737C31.237 42.9841 30.8624 43.3902 30.3785 43.6918C29.8979 43.9934 29.3328 44.1425 28.6832 44.1392ZM28.6832 43.304C29.1273 43.304 29.5234 43.1913 29.8714 42.9659C30.2228 42.7405 30.4995 42.4389 30.7017 42.0611C30.9039 41.6799 31.0049 41.259 31.0049 40.7983C31.0049 40.3376 30.9039 39.92 30.7017 39.5455C30.4995 39.1709 30.2228 38.8726 29.8714 38.6506C29.5234 38.4285 29.1273 38.3175 28.6832 38.3175C28.3451 38.3175 28.0303 38.3871 27.7386 38.5263C27.4469 38.6622 27.1934 38.8494 26.978 39.0881C26.7658 39.3234 26.6034 39.5935 26.4907 39.8984C26.3814 40.2034 26.3399 40.5232 26.3665 40.858C26.4029 41.3253 26.5239 41.7446 26.7294 42.1158C26.9382 42.4837 27.21 42.7737 27.5447 42.9858C27.8828 43.1979 28.2623 43.304 28.6832 43.304ZM37.1697 44.1392C36.4538 44.1392 35.8423 43.9337 35.3352 43.5227C34.8314 43.1084 34.4436 42.5102 34.1719 41.728C33.9034 40.9458 33.7692 40.0062 33.7692 38.9091C33.7692 37.8153 33.9034 36.879 34.1719 36.1001C34.4436 35.3179 34.8331 34.7197 35.3402 34.3054C35.8506 33.8878 36.4604 33.679 37.1697 33.679C37.879 33.679 38.4872 33.8878 38.9943 34.3054C39.5047 34.7197 39.8942 35.3179 40.1626 36.1001C40.4344 36.879 40.5703 37.8153 40.5703 38.9091C40.5703 40.0062 40.4344 40.9458 40.1626 41.728C39.8942 42.5102 39.5064 43.1084 38.9993 43.5227C38.4955 43.9337 37.8856 44.1392 37.1697 44.1392ZM37.1697 43.304C37.9552 43.304 38.5684 42.9212 39.0092 42.1555C39.45 41.3866 39.6704 40.3045 39.6704 38.9091C39.6704 37.9811 39.5693 37.1889 39.3672 36.5327C39.1683 35.8731 38.8816 35.3693 38.5071 35.0213C38.1359 34.6733 37.6901 34.4993 37.1697 34.4993C36.3908 34.4993 35.7793 34.8871 35.3352 35.6626C34.8911 36.4349 34.669 37.517 34.669 38.9091C34.669 39.8371 34.7684 40.6293 34.9673 41.2855C35.1695 41.9418 35.4562 42.4422 35.8274 42.7869C36.2019 43.1316 36.6494 43.304 37.1697 43.304ZM47.7443 42.1108V41.6484C47.7443 41.2673 47.8205 40.9242 47.973 40.6193C48.1255 40.3111 48.3425 40.0675 48.6243 39.8885C48.906 39.7095 49.2407 39.62 49.6285 39.62C50.0196 39.62 50.3544 39.7095 50.6328 39.8885C50.9112 40.0675 51.125 40.3111 51.2741 40.6193C51.4233 40.9242 51.4978 41.2673 51.4978 41.6484V42.1108C51.4978 42.492 51.4216 42.835 51.2692 43.1399C51.12 43.4448 50.9062 43.6884 50.6278 43.8707C50.3494 44.0497 50.0163 44.1392 49.6285 44.1392C49.2341 44.1392 48.896 44.0497 48.6143 43.8707C48.3359 43.6884 48.1205 43.4448 47.968 43.1399C47.8189 42.835 47.7443 42.492 47.7443 42.1108ZM48.5248 41.6484V42.1108C48.5248 42.4853 48.616 42.8052 48.7983 43.0703C48.9839 43.3321 49.2606 43.4631 49.6285 43.4631C49.9865 43.4631 50.2566 43.3321 50.4389 43.0703C50.6212 42.8052 50.7123 42.4853 50.7123 42.1108V41.6484C50.7123 41.2739 50.6228 40.9557 50.4439 40.6939C50.2649 40.4287 49.9931 40.2962 49.6285 40.2962C49.2673 40.2962 48.9922 40.4287 48.8032 40.6939C48.6176 40.9557 48.5248 41.2739 48.5248 41.6484ZM42.6136 36.1697V35.7074C42.6136 35.3262 42.6898 34.9832 42.8423 34.6783C42.9948 34.3733 43.2119 34.1314 43.4936 33.9524C43.7753 33.7701 44.1101 33.679 44.4978 33.679C44.8889 33.679 45.2237 33.7701 45.5021 33.9524C45.7805 34.1314 45.9943 34.3733 46.1434 34.6783C46.2926 34.9832 46.3672 35.3262 46.3672 35.7074V36.1697C46.3672 36.5509 46.2909 36.8956 46.1385 37.2038C45.9893 37.5088 45.7755 37.7507 45.4971 37.9297C45.2187 38.1087 44.8856 38.1982 44.4978 38.1982C44.1034 38.1982 43.7654 38.1087 43.4836 37.9297C43.2052 37.7507 42.9898 37.5088 42.8373 37.2038C42.6882 36.8956 42.6136 36.5509 42.6136 36.1697ZM43.3942 35.7074V36.1697C43.3942 36.5443 43.4853 36.8641 43.6676 37.1293C43.8532 37.3911 44.1299 37.522 44.4978 37.522C44.8558 37.522 45.1259 37.3911 45.3082 37.1293C45.4905 36.8641 45.5817 36.5443 45.5817 36.1697V35.7074C45.5817 35.3329 45.4922 35.0147 45.3132 34.7528C45.1342 34.4877 44.8624 34.3551 44.4978 34.3551C44.1366 34.3551 43.8615 34.4877 43.6726 34.7528C43.487 35.0147 43.3942 35.3329 43.3942 35.7074ZM43.071 44L50.066 33.8182H50.946L43.951 44H43.071Z" fill="#FF8001"/>
<mask id="path-2-outside-1_80_4595" maskUnits="userSpaceOnUse" x="0.000244141" y="0" width="63" height="76" fill="black">
<rect fill="white" x="0.000244141" width="63" height="76"/>
<path d="M38.0002 73C32.4769 73 27.0319 71.6928 22.1106 69.1852C17.1892 66.6777 12.9312 63.041 9.68465 58.5725C6.4381 54.104 4.2952 48.9306 3.43115 43.4752C2.56711 38.0198 3.00645 32.4374 4.71327 27.1844C6.42008 21.9314 9.3459 17.1569 13.2515 13.2513C17.1571 9.34565 21.9316 6.41983 27.1847 4.71302C32.4377 3.00621 38.0201 2.56686 43.4755 3.43091C48.9308 4.29496 54.1042 6.43786 58.5727 9.68441L54.4582 15.3475C50.8834 12.7503 46.7447 11.036 42.3804 10.3447C38.0161 9.65349 33.5502 10.005 29.3478 11.3704C25.1453 12.7359 21.3257 15.0765 18.2013 18.201C15.0768 21.3255 12.7361 25.1451 11.3707 29.3475C10.0052 33.5499 9.65374 38.0159 10.345 42.3802C11.0362 46.7445 12.7505 50.8832 15.3478 54.458C17.945 58.0328 21.3514 60.9421 25.2885 62.9482C29.2256 64.9542 33.5816 66 38.0002 66V73Z"/>
</mask>
<path d="M38.0002 73C32.4769 73 27.0319 71.6928 22.1106 69.1852C17.1892 66.6777 12.9312 63.041 9.68465 58.5725C6.4381 54.104 4.2952 48.9306 3.43115 43.4752C2.56711 38.0198 3.00645 32.4374 4.71327 27.1844C6.42008 21.9314 9.3459 17.1569 13.2515 13.2513C17.1571 9.34565 21.9316 6.41983 27.1847 4.71302C32.4377 3.00621 38.0201 2.56686 43.4755 3.43091C48.9308 4.29496 54.1042 6.43786 58.5727 9.68441L54.4582 15.3475C50.8834 12.7503 46.7447 11.036 42.3804 10.3447C38.0161 9.65349 33.5502 10.005 29.3478 11.3704C25.1453 12.7359 21.3257 15.0765 18.2013 18.201C15.0768 21.3255 12.7361 25.1451 11.3707 29.3475C10.0052 33.5499 9.65374 38.0159 10.345 42.3802C11.0362 46.7445 12.7505 50.8832 15.3478 54.458C17.945 58.0328 21.3514 60.9421 25.2885 62.9482C29.2256 64.9542 33.5816 66 38.0002 66V73Z" stroke="#FF8001" stroke-width="6" mask="url(#path-2-outside-1_80_4595)"/>
</svg>
