<svg width="120" height="120" viewBox="0 0 120 120" fill="none" xmlns="http://www.w3.org/2000/svg">
<path d="M120 60C120 72.6708 115.989 85.0163 108.541 95.2671C101.093 105.518 90.5916 113.148 78.541 117.063C66.4904 120.979 53.5096 120.979 41.459 117.063C29.4084 113.148 18.9067 105.518 11.459 95.2671C4.0113 85.0163 -1.10771e-06 72.6708 0 60C1.10771e-06 47.3292 4.0113 34.9837 11.459 24.7329C18.9067 14.482 29.4084 6.85208 41.459 2.93661C53.5096 -0.978871 66.4904 -0.978869 78.541 2.93661L74.8328 14.3493C65.1923 11.2169 54.8077 11.2169 45.1672 14.3493C35.5267 17.4817 27.1253 23.5856 21.1672 31.7863C15.209 39.987 12 49.8634 12 60C12 70.1366 15.209 80.013 21.1672 88.2137C27.1253 96.4144 35.5267 102.518 45.1672 105.651C54.8077 108.783 65.1923 108.783 74.8328 105.651C84.4733 102.518 92.8747 96.4144 98.8328 88.2137C104.791 80.013 108 70.1366 108 60H120Z" fill="#FF5600"/>
<path d="M36.3402 66.1392C35.9193 66.1359 35.5083 66.0514 35.1072 65.8857C34.7062 65.7166 34.3449 65.4465 34.0234 65.0753C33.7019 64.7008 33.4467 64.2069 33.2578 63.5938C33.0689 62.9806 32.9744 62.2266 32.9744 61.3317C32.9744 60.5031 33.0473 59.7441 33.1932 59.0547C33.339 58.3653 33.5578 57.7687 33.8494 57.2649C34.1411 56.7611 34.5057 56.3717 34.9432 56.0966C35.3807 55.8182 35.8928 55.679 36.4794 55.679C37.0296 55.679 37.5152 55.7933 37.9361 56.022C38.357 56.2474 38.6984 56.5623 38.9602 56.9666C39.2221 57.371 39.3861 57.8366 39.4524 58.3636H38.5376C38.4448 57.8267 38.2244 57.3842 37.8764 57.0362C37.5284 56.6882 37.0627 56.5142 36.4794 56.5142C35.6442 56.5142 34.9979 56.902 34.5405 57.6776C34.0831 58.4498 33.8527 59.5469 33.8494 60.9688H33.9141C34.0765 60.6671 34.2853 60.407 34.5405 60.1882C34.799 59.9661 35.0923 59.7938 35.4205 59.6712C35.7486 59.5452 36.0933 59.4822 36.4545 59.4822C37.0213 59.4822 37.54 59.6264 38.0107 59.9148C38.4813 60.1998 38.8575 60.5926 39.1392 61.093C39.4209 61.5902 39.5618 62.1586 39.5618 62.7983C39.5618 63.4048 39.4276 63.9633 39.1591 64.4737C38.8939 64.9841 38.5194 65.3902 38.0355 65.6918C37.5549 65.9934 36.9898 66.1425 36.3402 66.1392ZM36.3402 65.304C36.7843 65.304 37.1804 65.1913 37.5284 64.9659C37.8797 64.7405 38.1565 64.4389 38.3587 64.0611C38.5608 63.6799 38.6619 63.259 38.6619 62.7983C38.6619 62.3376 38.5608 61.92 38.3587 61.5455C38.1565 61.1709 37.8797 60.8726 37.5284 60.6506C37.1804 60.4285 36.7843 60.3175 36.3402 60.3175C36.0021 60.3175 35.6873 60.3871 35.3956 60.5263C35.1039 60.6622 34.8504 60.8494 34.6349 61.0881C34.4228 61.3234 34.2604 61.5935 34.1477 61.8984C34.0384 62.2034 33.9969 62.5232 34.0234 62.858C34.0599 63.3253 34.1809 63.7446 34.3864 64.1158C34.5952 64.4837 34.867 64.7737 35.2017 64.9858C35.5398 65.1979 35.9193 65.304 36.3402 65.304ZM44.8267 66.1392C44.1108 66.1392 43.4993 65.9337 42.9922 65.5227C42.4884 65.1084 42.1006 64.5102 41.8288 63.728C41.5604 62.9458 41.4261 62.0062 41.4261 60.9091C41.4261 59.8153 41.5604 58.879 41.8288 58.1001C42.1006 57.3179 42.4901 56.7197 42.9972 56.3054C43.5076 55.8878 44.1174 55.679 44.8267 55.679C45.536 55.679 46.1442 55.8878 46.6513 56.3054C47.1617 56.7197 47.5511 57.3179 47.8196 58.1001C48.0914 58.879 48.2273 59.8153 48.2273 60.9091C48.2273 62.0062 48.0914 62.9458 47.8196 63.728C47.5511 64.5102 47.1634 65.1084 46.6562 65.5227C46.1525 65.9337 45.5426 66.1392 44.8267 66.1392ZM44.8267 65.304C45.6122 65.304 46.2254 64.9212 46.6662 64.1555C47.107 63.3866 47.3274 62.3045 47.3274 60.9091C47.3274 59.9811 47.2263 59.1889 47.0241 58.5327C46.8253 57.8731 46.5386 57.3693 46.1641 57.0213C45.7929 56.6733 45.3471 56.4993 44.8267 56.4993C44.0478 56.4993 43.4363 56.8871 42.9922 57.6626C42.5481 58.4349 42.326 59.517 42.326 60.9091C42.326 61.8371 42.4254 62.6293 42.6243 63.2855C42.8265 63.9418 43.1132 64.4422 43.4844 64.7869C43.8589 65.1316 44.3063 65.304 44.8267 65.304ZM57.3501 66.1392C56.6342 66.1392 56.0227 65.9337 55.5156 65.5227C55.0118 65.1084 54.6241 64.5102 54.3523 63.728C54.0838 62.9458 53.9496 62.0062 53.9496 60.9091C53.9496 59.8153 54.0838 58.879 54.3523 58.1001C54.6241 57.3179 55.0135 56.7197 55.5206 56.3054C56.031 55.8878 56.6409 55.679 57.3501 55.679C58.0594 55.679 58.6676 55.8878 59.1747 56.3054C59.6851 56.7197 60.0746 57.3179 60.343 58.1001C60.6148 58.879 60.7507 59.8153 60.7507 60.9091C60.7507 62.0062 60.6148 62.9458 60.343 63.728C60.0746 64.5102 59.6868 65.1084 59.1797 65.5227C58.6759 65.9337 58.0661 66.1392 57.3501 66.1392ZM57.3501 65.304C58.1357 65.304 58.7488 64.9212 59.1896 64.1555C59.6304 63.3866 59.8509 62.3045 59.8509 60.9091C59.8509 59.9811 59.7498 59.1889 59.5476 58.5327C59.3487 57.8731 59.062 57.3693 58.6875 57.0213C58.3163 56.6733 57.8705 56.4993 57.3501 56.4993C56.5713 56.4993 55.9598 56.8871 55.5156 57.6626C55.0715 58.4349 54.8494 59.517 54.8494 60.9091C54.8494 61.8371 54.9489 62.6293 55.1477 63.2855C55.3499 63.9418 55.6366 64.4422 56.0078 64.7869C56.3823 65.1316 56.8298 65.304 57.3501 65.304ZM65.9361 66.1392C65.2202 66.1392 64.6087 65.9337 64.1016 65.5227C63.5978 65.1084 63.21 64.5102 62.9382 63.728C62.6697 62.9458 62.5355 62.0062 62.5355 60.9091C62.5355 59.8153 62.6697 58.879 62.9382 58.1001C63.21 57.3179 63.5994 56.7197 64.1065 56.3054C64.617 55.8878 65.2268 55.679 65.9361 55.679C66.6454 55.679 67.2536 55.8878 67.7607 56.3054C68.2711 56.7197 68.6605 57.3179 68.929 58.1001C69.2008 58.879 69.3366 59.8153 69.3366 60.9091C69.3366 62.0062 69.2008 62.9458 68.929 63.728C68.6605 64.5102 68.2727 65.1084 67.7656 65.5227C67.2618 65.9337 66.652 66.1392 65.9361 66.1392ZM65.9361 65.304C66.7216 65.304 67.3348 64.9212 67.7756 64.1555C68.2164 63.3866 68.4368 62.3045 68.4368 60.9091C68.4368 59.9811 68.3357 59.1889 68.1335 58.5327C67.9347 57.8731 67.648 57.3693 67.2734 57.0213C66.9022 56.6733 66.4564 56.4993 65.9361 56.4993C65.1572 56.4993 64.5457 56.8871 64.1016 57.6626C63.6574 58.4349 63.4354 59.517 63.4354 60.9091C63.4354 61.8371 63.5348 62.6293 63.7337 63.2855C63.9358 63.9418 64.2225 64.4422 64.5938 64.7869C64.9683 65.1316 65.4157 65.304 65.9361 65.304ZM74.522 66.1392C73.8061 66.1392 73.1946 65.9337 72.6875 65.5227C72.1837 65.1084 71.7959 64.5102 71.5241 63.728C71.2557 62.9458 71.1214 62.0062 71.1214 60.9091C71.1214 59.8153 71.2557 58.879 71.5241 58.1001C71.7959 57.3179 72.1854 56.7197 72.6925 56.3054C73.2029 55.8878 73.8127 55.679 74.522 55.679C75.2313 55.679 75.8395 55.8878 76.3466 56.3054C76.857 56.7197 77.2464 57.3179 77.5149 58.1001C77.7867 58.879 77.9226 59.8153 77.9226 60.9091C77.9226 62.0062 77.7867 62.9458 77.5149 63.728C77.2464 64.5102 76.8587 65.1084 76.3516 65.5227C75.8478 65.9337 75.2379 66.1392 74.522 66.1392ZM74.522 65.304C75.3075 65.304 75.9207 64.9212 76.3615 64.1555C76.8023 63.3866 77.0227 62.3045 77.0227 60.9091C77.0227 59.9811 76.9216 59.1889 76.7195 58.5327C76.5206 57.8731 76.2339 57.3693 75.8594 57.0213C75.4882 56.6733 75.0424 56.4993 74.522 56.4993C73.7431 56.4993 73.1316 56.8871 72.6875 57.6626C72.2434 58.4349 72.0213 59.517 72.0213 60.9091C72.0213 61.8371 72.1207 62.6293 72.3196 63.2855C72.5218 63.9418 72.8085 64.4422 73.1797 64.7869C73.5542 65.1316 74.0017 65.304 74.522 65.304ZM82.9489 64.071V57.772H83.799V64.071H82.9489ZM80.2244 61.3466V60.4964H86.5234V61.3466H80.2244Z" fill="#EDEDED"/>
</svg>
