<svg width="37" height="36" viewBox="0 0 37 36" fill="none" xmlns="http://www.w3.org/2000/svg">
    <path d="M14.8459 35.2041C11.7632 35.2041 8.68118 35.2041 5.59979 35.2041C2.87436 35.2041 1.0019 33.3355 0.999966 30.6217C0.994803 24.4408 0.994803 18.2606 0.999966 12.081C0.999966 9.42145 2.88308 7.5364 5.53395 7.53059C10.4394 7.52479 15.3448 7.52672 20.2503 7.53641C20.4244 7.54468 20.5981 7.51423 20.759 7.44726C20.9199 7.3803 21.0639 7.27848 21.1807 7.14913C22.8802 5.40641 24.5906 3.67337 26.3121 1.95001C29.3134 -1.05135 34.2995 0.0242984 35.685 4.02579C36.445 6.22065 35.8602 8.18896 34.2327 9.83486C32.5326 11.5563 30.8202 13.2667 29.0956 14.9662C28.9505 15.1001 28.8367 15.2644 28.7624 15.4473C28.6881 15.6302 28.6551 15.8273 28.6657 16.0244C28.6802 20.785 28.596 25.5465 28.7044 30.3041C28.7693 33.1419 26.6916 35.3387 23.7541 35.2263C20.7867 35.116 17.8143 35.2041 14.8459 35.2041ZM17.7311 10.4497H5.67821C4.4525 10.4497 3.91903 10.986 3.91903 12.2205C3.91903 18.3039 3.91903 24.3869 3.91903 30.4697C3.91903 31.7622 4.44088 32.2831 5.73728 32.2831C11.7884 32.2831 17.8395 32.2618 23.8897 32.2986C25.3536 32.3073 25.8134 31.4272 25.8134 30.3748C25.8134 26.6312 25.8134 22.8875 25.8134 19.1439C25.8134 18.9735 25.8928 18.7344 25.7166 18.6501C25.523 18.5533 25.4262 18.7983 25.3061 18.9145C23.8393 20.3754 22.3871 21.8374 20.9203 23.2935C17.937 26.2626 14.3415 27.8033 10.1338 27.9156C8.8916 27.9505 8.31553 27.3715 8.33974 26.1206C8.41041 22.5471 9.54803 19.3434 11.8475 16.6073C13.5292 14.6041 15.5033 12.8779 17.3206 11.0015C17.46 10.8563 17.6517 10.7479 17.7311 10.4497ZM32.9267 6.18967C32.9189 4.75967 32.3032 3.81569 31.2808 3.41002C30.1809 2.97337 29.1798 3.17572 28.3433 4.01029C23.7883 8.55558 19.2402 13.1083 14.6987 17.6684C12.8795 19.5079 11.8078 21.7561 11.374 24.3043C11.2869 24.8155 11.3595 24.8736 11.8668 24.7826C13.4423 24.5049 14.9524 23.937 16.3204 23.1076C17.886 22.1579 19.0962 20.8121 20.3723 19.538C24.2624 15.6543 28.1503 11.769 32.0359 7.88204C32.5917 7.3234 32.9402 6.67763 32.9267 6.1916V6.18967Z" fill="#EDEDED"/>
    </svg>
    