<svg width="26" height="20" viewBox="0 0 26 20" fill="none" xmlns="http://www.w3.org/2000/svg">
    <path d="M13.1264 19.2567C10.1322 19.2567 7.13787 19.2567 4.14359 19.2567C2.80296 19.2567 1.7973 18.7428 1.15102 17.6611C0.915578 17.2735 0.791867 16.837 0.791651 16.3931C0.791651 12.0535 0.783517 7.71382 0.796087 3.37485C0.800524 1.89272 2.09013 0.655346 3.69991 0.531609C3.87147 0.518011 4.0445 0.513253 4.21753 0.513253C10.1824 0.513253 16.1473 0.511439 22.1123 0.507812C23.2466 0.507812 24.1827 0.844352 24.8837 1.6772C25.3147 2.18068 25.5464 2.80416 25.5404 3.44488C25.5404 7.73897 25.5404 12.0331 25.5404 16.3272C25.5322 17.1113 25.1859 17.8604 24.5775 18.4101C23.9692 18.9597 23.1485 19.2649 22.2956 19.2588C20.694 19.2472 19.0916 19.2588 17.4892 19.2588L13.1264 19.2567ZM3.79604 6.12971C3.80641 6.29913 3.80493 6.469 3.79161 6.63825C3.74502 6.97275 3.90622 7.14136 4.23528 7.28141C7.10731 8.51516 9.97441 9.75888 12.8366 11.0126C13.0858 11.1214 13.2943 11.103 13.5317 10.9969C14.3835 10.6182 15.2405 10.2491 16.0961 9.87854C18.1399 8.98972 20.1843 8.10157 22.2291 7.21411C22.3955 7.14204 22.533 7.06861 22.5323 6.87417C22.5323 6.37582 22.5323 5.87747 22.5323 5.37844C22.5323 5.17448 22.4302 5.14389 22.2498 5.23771C22.1758 5.27646 22.093 5.30162 22.0146 5.33561C19.1702 6.56936 16.326 7.80492 13.4821 9.04229C13.386 9.09031 13.2783 9.11547 13.169 9.11547C13.0596 9.11547 12.9519 9.09031 12.8558 9.04229C11.6934 8.52831 10.5228 8.0286 9.35598 7.52209C7.64489 6.77967 5.93379 6.03656 4.2227 5.29278C3.82562 5.12077 3.80639 5.13505 3.80195 5.54977C3.79456 5.74762 3.79604 5.93662 3.79604 6.12971Z" fill="#EDEDED"/>
    </svg>
    