<svg width="210" height="210" viewBox="0 0 210 210" fill="none" xmlns="http://www.w3.org/2000/svg">
<g filter="url(#filter0_d_80_296)">
<circle cx="105" cy="103" r="100" fill="#EDEDED" fill-opacity="0.02" shape-rendering="crispEdges"/>
</g>
<g clip-path="url(#clip0_80_296)">
<path d="M104.338 53.0057C115.915 52.8811 127.07 55.2162 137.465 60.7062C146.457 65.4547 153.838 71.9977 159.059 80.8115C161.265 84.5229 162.897 88.5466 163.9 92.7461C164.117 93.6604 163.968 93.789 162.988 93.572C157.763 92.4105 152.568 92.5069 147.45 94.1748C145.007 94.9786 142.784 96.1402 141.046 98.1175C139.989 99.3232 138.727 99.4056 137.778 98.3024C135.532 95.69 132.554 94.3959 129.338 93.6182C124.345 92.3762 119.109 92.5068 114.184 93.996C111.572 94.7857 109.161 95.9754 107.284 98.0733C106.048 99.4519 104.963 99.3936 103.733 98.0472C101.346 95.4348 98.2268 94.213 94.881 93.4936C89.6401 92.3643 84.4515 92.5592 79.3614 94.3336C77.0243 95.1495 74.9405 96.3713 73.2706 98.2361C72.3241 99.2891 71.1786 99.3936 70.3045 98.437C66.8119 94.6189 62.2222 93.4132 57.335 92.9249C54.2444 92.6094 51.1919 92.8948 48.1615 93.5479C46.9277 93.8131 46.8594 93.7247 47.1568 92.517C49.0779 84.8225 52.8558 78.1348 58.2493 72.3675C67.6419 62.3198 79.3614 56.661 92.7449 54.1592C96.5308 53.4498 100.361 53.1363 104.338 53.0057Z" fill="#EDEDED"/>
<path d="M107.422 144.209C108.184 140.963 108.956 137.72 109.703 134.471C110.137 132.582 110.533 130.683 110.951 128.788C111.078 128.219 111.319 127.729 111.926 128.348C114.41 130.88 117.683 132.053 120.768 133.534C123.422 134.808 123.402 134.778 122.87 137.605C122.5 139.575 121.959 141.526 121.973 143.55C121.987 145.573 122.564 147.446 123.893 149.01C124.248 149.43 124.168 149.665 123.878 150.014C123.347 150.708 122.675 151.282 121.906 151.698C121.137 152.113 120.289 152.361 119.417 152.426C110.238 153.176 101.013 153.182 91.8325 152.444C90.9271 152.385 90.0439 152.139 89.2394 151.719C88.4348 151.3 87.7267 150.717 87.1604 150.008C86.863 149.645 86.7585 149.405 87.0941 148.993C89.2101 146.381 89.4874 143.441 88.6675 140.276C88.3259 138.952 88.1652 137.583 87.8919 136.241C87.5884 134.746 87.6708 134.547 89.0976 133.87C90.7273 133.098 92.3349 132.272 93.9988 131.583C95.8576 130.811 97.3969 129.61 98.894 128.317C99.6737 127.644 99.8405 127.731 100.074 128.76C101.187 133.643 102.306 138.524 103.432 143.403C103.48 143.604 103.413 143.891 103.813 144.042C103.884 142.766 103.962 141.526 104.014 140.286C104.115 137.979 104.155 135.664 104.32 133.363C104.401 132.433 104.143 131.505 103.592 130.751C103.305 130.339 102.758 129.913 103.09 129.344C103.421 128.776 104.065 129.065 104.571 129.043C105.375 129.005 106.179 129.009 106.982 129.043C108.001 129.085 108.359 129.626 107.738 130.373C106.653 131.681 106.605 133.13 106.701 134.7C106.902 137.861 107.012 141.026 107.161 144.189L107.422 144.209Z" fill="#EDEDED"/>
<path d="M67.7443 141.67C67.7443 138.23 67.7544 134.79 67.7443 131.351C67.7443 130.67 67.1696 130.242 66.8521 129.703C66.4161 128.962 66.5768 128.562 67.4268 128.516C68.3639 128.463 69.3031 128.463 70.2402 128.516C70.9355 128.554 71.2972 129.026 70.7928 129.587C69.8101 130.68 69.8584 131.93 69.9367 133.242C70.1035 136.013 70.2301 138.784 70.3788 141.63C70.8651 141.371 70.7928 140.913 70.8712 140.569C71.7976 136.532 72.6998 132.491 73.6041 128.449C73.7368 127.865 73.9739 127.378 74.5627 128.005C76.6707 130.248 79.5182 131.255 82.1727 132.553C83.6678 133.284 84.5259 134.241 84.761 135.915C85.0544 137.995 85.5447 140.046 85.9346 142.112C86.5776 145.528 84.4294 148.585 80.9771 148.912C74.0804 149.584 67.1388 149.662 60.2287 149.146C59.0612 149.055 57.8896 149.003 56.7322 148.84C53.8585 148.438 51.8731 146.027 52.1102 143.129C52.3474 140.231 52.9422 137.376 53.5028 134.524C53.6154 133.96 53.9932 133.602 54.5076 133.351C55.6772 132.778 56.8206 132.145 58.0062 131.608C59.8676 130.776 61.5978 129.676 63.1425 128.345C63.9845 127.62 64.1473 127.704 64.3985 128.803C65.3041 132.774 66.2024 136.745 67.0933 140.718C67.1656 141.035 67.2621 141.347 67.3465 141.66L67.7443 141.67Z" fill="#EDEDED"/>
<path d="M140.62 141.777C140.746 138.405 140.867 135.095 140.998 131.786C141.03 130.998 140.439 130.528 140.093 129.933C139.649 129.171 139.796 128.749 140.63 128.695C141.567 128.635 142.506 128.635 143.443 128.695C144.223 128.743 144.496 129.258 143.992 129.828C143.021 130.926 143.055 132.165 143.148 133.49C143.31 135.827 143.395 138.168 143.517 140.509C143.54 140.911 143.489 141.313 143.708 141.747C144.11 141.208 144.142 140.587 144.273 140.021C145.127 136.309 145.951 132.585 146.783 128.874C147.042 127.714 147.263 127.596 148.063 128.432C150.099 130.564 152.86 131.434 155.39 132.678C156.808 133.375 157.552 134.306 157.801 135.835C158.149 138.045 158.677 140.226 159.007 142.438C159.495 145.71 157.48 148.467 154.184 148.869C148.991 149.488 143.767 149.576 138.542 149.417C135.929 149.337 133.317 149.19 130.725 148.979C126.929 148.67 124.64 145.685 125.265 141.946C125.641 139.703 126.069 137.467 126.414 135.222C126.475 134.722 126.668 134.248 126.974 133.849C127.28 133.449 127.688 133.139 128.155 132.951C129.521 132.328 130.855 131.627 132.246 131.066C133.739 130.463 134.921 129.459 136.108 128.424C137.037 127.62 137.198 127.702 137.463 128.886C138.377 132.959 139.31 137.028 140.234 141.098C140.28 141.321 140.262 141.574 140.62 141.777Z" fill="#EDEDED"/>
<path d="M113.142 109.102C113.172 109.822 112.916 110.599 113.881 111.023C114.339 111.224 114.283 111.815 114.176 112.295C113.903 113.465 113.871 114.767 113.312 115.78C111.723 118.668 110.676 121.963 107.919 124.055C105.895 125.59 103.255 125.114 101.659 123.139C100.861 122.15 100.161 121.085 99.5692 119.96C98.3333 117.613 96.8704 115.372 96.2093 112.745C95.9943 111.891 95.8395 111.158 96.8121 110.714C97.1819 110.547 97.1156 110.228 97.1035 109.942C97.0623 109.106 97.0966 108.268 97.206 107.438C97.4632 105.493 98.4881 104.022 100.242 103.242C103.275 101.876 106.43 101.888 109.522 103.011C112.02 103.924 113.119 105.933 113.142 109.102Z" fill="#EDEDED"/>
<path d="M61.2696 114.327C61.2375 113.78 61.2576 113.393 61.6173 113.266C62.2201 113.053 62.1639 112.627 62.1578 112.141C62.0996 108.266 63.6007 106.474 67.4288 105.911C68.9897 105.671 70.5836 105.762 72.107 106.178C74.5888 106.87 75.895 108.562 75.9713 111.142C75.9974 111.978 75.6136 112.951 76.6988 113.499C76.8394 113.569 76.9379 113.955 76.8816 114.142C76.4355 115.605 76.5018 117.156 75.4629 118.529C74.5546 119.723 73.9538 121.19 73.164 122.51C72.5612 123.515 71.6669 124.24 70.7204 124.847C69.575 125.58 68.3753 125.365 67.2058 124.714C65.6544 123.85 64.8245 122.393 64.0267 120.926C62.9958 119.029 61.5248 117.309 61.3942 115.014C61.3715 114.782 61.3298 114.552 61.2696 114.327Z" fill="#EDEDED"/>
<path d="M142.047 105.822C142.927 105.792 143.807 105.863 144.671 106.035C147.426 106.602 148.943 108.409 149.016 111.224C149.036 112.054 148.794 112.938 149.741 113.517C150.054 113.718 149.97 114.2 149.892 114.56C149.104 118.385 147.127 121.864 144.245 124.499C143.122 125.532 141.707 125.504 140.356 124.758C138.311 123.625 137.593 121.499 136.358 119.734C135.216 118.117 134.662 116.35 134.336 114.453C134.25 113.953 134.209 113.426 134.702 113.225C135.24 113.004 135.258 112.675 135.226 112.221C134.875 107.398 137.969 105.991 141.48 105.816C141.747 105.812 142.014 105.822 142.047 105.822Z" fill="#EDEDED"/>
</g>
<defs>
<filter id="filter0_d_80_296" x="0" y="0" width="210" height="210" filterUnits="userSpaceOnUse" color-interpolation-filters="sRGB">
<feFlood flood-opacity="0" result="BackgroundImageFix"/>
<feColorMatrix in="SourceAlpha" type="matrix" values="0 0 0 0 0 0 0 0 0 0 0 0 0 0 0 0 0 0 127 0" result="hardAlpha"/>
<feOffset dy="2"/>
<feGaussianBlur stdDeviation="2.5"/>
<feComposite in2="hardAlpha" operator="out"/>
<feColorMatrix type="matrix" values="0 0 0 0 0.558333 0 0 0 0 0.0628125 0 0 0 0 0.0628127 0 0 0 1 0"/>
<feBlend mode="normal" in2="BackgroundImageFix" result="effect1_dropShadow_80_296"/>
<feBlend mode="normal" in="SourceGraphic" in2="effect1_dropShadow_80_296" result="shape"/>
</filter>
<clipPath id="clip0_80_296">
<rect width="116.995" height="100" fill="white" transform="translate(47 53)"/>
</clipPath>
</defs>
</svg>
