<svg width="357" height="346" viewBox="0 0 357 346" fill="none" xmlns="http://www.w3.org/2000/svg">
    <path d="M115.857 0.886276C169.079 0.922309 208.661 48.5395 197.264 98.9012C196.645 101.742 197.122 102.955 200.109 104.096C237.925 118.541 275.693 133.092 313.413 147.75C323.273 151.569 327.518 161.448 323.391 170.33C319.263 179.212 308.852 182.545 299.296 178.089C262.769 161.026 226.261 143.926 189.772 126.791C187.12 125.541 185.861 125.68 184.089 128.136C164.791 154.878 130.793 168.186 98.1952 160.703C63.3666 152.716 41.4346 131.175 33.9793 97.2798C24.2558 53.1937 55.4403 9.77433 101.356 2.0213C106.147 1.23735 110.999 0.857597 115.857 0.886276ZM112.678 94.6494V98.8532C112.678 107.357 112.678 107.261 121.497 107.081C123.604 107.033 124.137 106.276 124.087 104.414C123.988 100.613 124.205 96.8053 124.007 93.0039C123.889 90.7098 124.695 89.7009 126.975 89.0042C140.448 84.9205 148.511 72.4472 146.738 58.7188C145.115 46.2094 133.544 35.6879 120.586 34.9492C106.332 34.1325 94.0926 42.7022 90.554 55.9683C88.8001 62.5743 88.8683 62.6343 95.7473 62.6343C100.507 62.6343 100.507 62.6343 101.771 58.1362C103.921 50.4673 111.278 45.5788 119.867 46.1253C123.704 46.4249 127.321 47.9807 130.124 50.5368C132.928 53.0929 134.75 56.4972 135.292 60.1901C136.699 70.2192 129.615 78.6088 119.148 79.3235C114.525 79.6357 112.722 81.4734 112.684 85.9775C112.641 88.8601 112.666 91.7488 112.666 94.6494H112.678ZM118.157 129.325C124.93 129.229 123.994 130.172 124.05 123.608C124.1 118.263 124.05 118.263 118.473 118.263C112.66 118.263 112.66 118.263 112.66 123.884C112.666 129.325 112.666 129.325 118.144 129.325H118.157Z" fill="#EDEDED"/>
    <path d="M327.053 284.11C332.729 284.11 338.4 284.11 344.07 284.11C351.265 284.146 356.099 288.464 356.161 295.406C356.31 311.213 356.198 327.013 356.248 342.819C356.248 344.651 355.554 345.258 353.707 345.258C332.438 345.214 311.173 345.214 289.912 345.258C288.053 345.258 287.434 344.573 287.434 342.777C287.489 326.869 287.384 310.949 287.52 295.058C287.576 288.554 292.478 284.17 299.295 284.116C305.114 284.074 310.94 284.116 317.459 284.116C304.91 278.525 299.964 270.58 302.257 260.527C303.221 256.152 305.716 252.235 309.318 249.438C312.921 246.642 317.41 245.137 322.026 245.181C326.642 245.224 331.101 246.811 334.647 249.675C338.193 252.538 340.609 256.501 341.486 260.893C343.618 270.652 338.499 278.723 327.053 284.11Z" fill="#EDEDED"/>
    <path d="M40.2982 284.109C46.074 284.109 51.8499 284.109 57.6505 284.109C64.6224 284.157 69.512 288.565 69.5678 295.267C69.6917 311.068 69.5678 326.874 69.6546 342.68C69.6546 344.68 68.8799 345.263 66.9216 345.257C45.7641 345.213 24.6047 345.213 3.44312 345.257C1.38564 345.257 0.790726 344.506 0.796923 342.602C0.852698 326.898 0.753539 311.194 0.871287 295.49C0.927062 288.535 5.72373 284.145 12.8754 284.079C18.552 284.043 24.2225 284.079 30.0355 283.857C24.6068 281.713 20.027 278.662 17.3684 273.462C16.0384 271.019 15.2791 268.323 15.1442 265.565C15.0092 262.806 15.502 260.053 16.5875 257.499C19.8844 249.422 28.6783 244.203 37.2553 245.248C46.8549 246.419 53.9879 253.277 55.2273 262.448C56.4668 271.618 51.0132 279.371 40.2982 284.109Z" fill="#EDEDED"/>
    <path d="M183.805 284.111C189.451 284.111 195.096 284.111 200.742 284.111C208.067 284.147 212.802 288.549 212.839 295.683C212.932 311.297 212.839 326.911 212.914 342.49C212.914 344.568 212.232 345.27 210.081 345.264C189.011 345.212 167.957 345.212 146.919 345.264C144.738 345.264 144.099 344.513 144.106 342.46C144.174 326.845 144.106 311.231 144.174 295.653C144.211 288.549 148.952 284.141 156.295 284.105C161.935 284.105 167.574 284.105 173.648 284.105C160.528 276.898 156.178 269.091 159.326 258.93C161.923 250.522 170.648 244.643 179.61 245.207C189.215 245.808 196.807 252.552 198.375 261.878C199.943 271.205 194.638 279.186 183.805 284.111Z" fill="#EDEDED"/>
    <path d="M40.9591 173.285C40.9095 179.291 41.5788 178.534 35.4807 178.564C29.3826 178.594 29.4756 178.564 29.5065 172.607C29.5375 166.817 28.8496 167.538 34.7866 167.472H35.0965C41.7709 167.562 40.8661 166.619 40.9591 173.285Z" fill="#EDEDED"/>
    <path d="M40.9604 195.444C40.8612 201.732 41.766 200.717 35.3271 200.777C29.5017 200.837 29.4645 200.777 29.5078 195.078C29.5574 188.856 28.727 189.673 35.0854 189.673C41.7784 189.661 40.8674 188.784 40.9604 195.444Z" fill="#EDEDED"/>
    <path d="M178.448 200.79C172.809 200.79 172.772 200.79 172.815 195.181C172.858 188.851 172.016 189.662 178.622 189.656C185.011 189.656 184.199 188.923 184.255 195.061C184.274 200.79 184.243 200.796 178.448 200.79Z" fill="#EDEDED"/>
    <path d="M29.5022 217.238C29.5022 211.941 29.5022 211.941 35.1293 211.941C40.9609 211.941 40.9795 211.941 40.9547 217.671C40.9547 223.712 41.5744 223.075 35.2966 223.075C28.6284 223.045 29.5951 223.802 29.5022 217.238Z" fill="#EDEDED"/>
    <path d="M184.243 217.521C184.175 223.743 184.975 223.058 178.443 223.058C172.097 223.058 172.828 223.659 172.797 217.653C172.797 211.912 172.797 211.912 178.585 211.912C184.243 211.972 184.243 211.972 184.243 217.521Z" fill="#EDEDED"/>
    <path d="M327.53 217.754C327.468 223.634 328.224 223.075 322.12 223.057C315.303 223.057 316.09 223.88 316.083 217.154C316.083 211.07 315.414 212.001 321.512 211.953C327.61 211.905 327.53 211.971 327.53 217.754Z" fill="#EDEDED"/>
    </svg>
    