<svg width="169" height="121" viewBox="0 0 169 121" fill="none" xmlns="http://www.w3.org/2000/svg">
    <path d="M69.1959 1.00266C86.6179 1.00266 104.035 1.03327 121.457 1.00266C127.878 1.00266 133.059 3.1192 136.339 8.9384C137.565 11.1828 138.179 13.7104 138.119 16.2672C138.119 26.379 138.119 36.4925 138.119 46.6077C138.119 47.9949 138.236 49.2648 136.078 49.1883C112.761 48.3621 93.1766 69.0532 96.7415 93.6968C97.2158 96.9762 97.1393 97.0068 93.9212 97.0068C68.2575 97.0068 42.5956 97.0068 16.9353 97.0068C9.00976 97.0068 3.80259 93.6713 1.26784 87.1381C0.543357 85.0444 0.216434 82.8339 0.303917 80.6202C0.303917 59.5466 0.252916 38.473 0.303917 17.3791C0.339618 7.11768 6.42402 1.05876 16.6854 1.02816C34.1889 0.956758 51.6924 1.00776 69.1959 1.00266ZM69.2826 48.8262C70.1715 48.6895 71.0325 48.4105 71.8327 48C80.7034 43.5595 89.5776 39.1394 98.4552 34.7398C104.978 31.4757 111.476 28.181 117.994 24.9119C119.825 23.9888 120.488 22.5097 119.61 20.7043C118.733 18.8989 117.198 18.7561 115.5 19.6231C115.046 19.8577 114.571 20.0362 114.112 20.2657C99.9376 27.3616 85.7678 34.4678 71.6032 41.5841C70.8837 42.0049 70.0652 42.2267 69.2316 42.2267C68.3981 42.2267 67.5796 42.0049 66.8601 41.5841C59.0162 37.555 51.1212 33.6228 43.2314 29.6754C36.5604 26.3399 29.8844 22.9994 23.1778 19.7353C20.8624 18.6082 18.6948 19.5109 18.4092 21.6172C18.1236 23.7236 19.6996 24.5906 21.2449 25.3607C36.3412 32.9054 51.4391 40.4434 66.5388 47.9745C67.3921 48.4274 68.3228 48.7163 69.2826 48.8262ZM69.201 78.983C74.8111 78.983 80.4212 79.0136 86.0313 78.983C88.7956 78.983 90.1777 77.861 90.0451 75.8414C89.8768 73.2607 87.949 73.1077 85.9956 73.0415H85.7304C74.7788 73.0415 63.8272 73.0415 52.8757 73.0415C52.1129 73.0473 51.352 73.1173 50.601 73.2505C49.2342 73.4902 48.561 74.4236 48.4896 75.7496C48.4109 76.3452 48.5326 76.9501 48.8355 77.469C49.1383 77.9879 49.6051 78.3913 50.1624 78.6158C51.0409 78.9381 51.9786 79.0668 52.9114 78.9932C58.3413 78.9966 63.7712 78.9932 69.201 78.983Z" fill="#EDEDED"/>
    <path d="M168.102 88.5256C167.342 104.382 157.785 116.408 142.296 120.085C133.075 122.273 124.292 120.457 116.341 115.036C114.454 113.746 114.301 112.873 115.979 111.221C127.674 99.6438 139.281 87.985 150.92 76.3568C153.557 73.7201 156.255 71.1343 158.82 68.4261C160.126 67.044 160.921 67.2531 161.951 68.7168C166.083 74.4844 168.24 81.4324 168.102 88.5256Z" fill="#EDEDED"/>
    <path d="M102.25 89.0049C102.398 67.4723 120.1 52.2843 140.501 55.3443C145.301 56.0828 149.86 57.9381 153.812 60.7606C156.25 62.4845 156.281 62.5813 154.174 64.6979L113.838 105.035C113.715 105.152 113.588 105.264 113.465 105.386C109.497 109.349 109.472 109.364 106.697 104.545C103.76 99.4703 102.112 94.0081 102.25 89.0049Z" fill="#EDEDED"/>
    </svg>
    