<svg width="455" height="243" viewBox="0 0 455 243" fill="none" xmlns="http://www.w3.org/2000/svg">
<path d="M18.9321 222.789H20.4662L25.7431 235.459H25.871L31.148 222.789H32.6821V237.334H31.4321V225.594H31.3184L26.4108 237.334H25.2034L20.2957 225.594H20.1821V237.334H18.9321V222.789Z" fill="#EDEDED"/>
<path d="M88.0514 223.982V222.789H98.5983V223.982H93.9889V237.334H92.6608V223.982H88.0514Z" fill="#EDEDED"/>
<path d="M154.46 237.334L150.476 222.789H151.826L155.121 235.296H155.235L158.53 222.789H160.064L163.36 235.296H163.473L166.769 222.789H168.125L164.141 237.334H162.72L159.347 224.997H159.255L155.881 237.334H154.46Z" fill="#EDEDED"/>
<path d="M221.051 223.982V222.789H231.598V223.982H226.989V237.334H225.661V223.982H221.051Z" fill="#EDEDED"/>
<path d="M289.932 237.334V222.789H298.348V223.982H291.26V229.458H297.688V230.651H291.26V237.334H289.932Z" fill="#EDEDED"/>
<path d="M363.83 226.425C363.749 225.615 363.392 224.971 362.757 224.493C362.123 224.015 361.325 223.776 360.364 223.776C359.687 223.776 359.09 223.892 358.574 224.124C358.063 224.356 357.66 224.678 357.367 225.09C357.078 225.497 356.933 225.961 356.933 226.482C356.933 226.865 357.016 227.201 357.182 227.49C357.348 227.779 357.57 228.028 357.85 228.236C358.134 228.44 358.446 228.615 358.787 228.762C359.133 228.908 359.481 229.031 359.831 229.131L361.365 229.571C361.829 229.699 362.293 229.862 362.757 230.061C363.221 230.26 363.645 230.511 364.029 230.814C364.417 231.112 364.727 231.479 364.959 231.915C365.196 232.346 365.314 232.864 365.314 233.47C365.314 234.247 365.113 234.945 364.71 235.566C364.308 236.186 363.73 236.678 362.978 237.043C362.225 237.403 361.323 237.583 360.272 237.583C359.282 237.583 358.423 237.419 357.693 237.093C356.964 236.761 356.391 236.304 355.975 235.722C355.558 235.139 355.324 234.465 355.272 233.698H356.635C356.683 234.271 356.872 234.756 357.203 235.154C357.535 235.551 357.966 235.854 358.496 236.063C359.026 236.266 359.618 236.368 360.272 236.368C360.996 236.368 361.64 236.247 362.203 236.006C362.772 235.76 363.217 235.419 363.539 234.983C363.865 234.543 364.029 234.031 364.029 233.449C364.029 232.957 363.901 232.545 363.645 232.213C363.389 231.877 363.032 231.595 362.573 231.368C362.118 231.141 361.59 230.94 360.989 230.764L359.249 230.253C358.108 229.912 357.222 229.441 356.593 228.84C355.963 228.238 355.648 227.471 355.648 226.539C355.648 225.757 355.856 225.071 356.273 224.479C356.694 223.882 357.263 223.418 357.978 223.087C358.697 222.751 359.505 222.583 360.399 222.583C361.304 222.583 362.104 222.748 362.8 223.08C363.496 223.411 364.048 223.868 364.455 224.45C364.867 225.028 365.087 225.686 365.115 226.425H363.83Z" fill="#EDEDED"/>
<path d="M430.83 226.425C430.749 225.615 430.392 224.971 429.757 224.493C429.123 224.015 428.325 223.776 427.364 223.776C426.687 223.776 426.09 223.892 425.574 224.124C425.063 224.356 424.66 224.678 424.367 225.09C424.078 225.497 423.933 225.961 423.933 226.482C423.933 226.865 424.016 227.201 424.182 227.49C424.348 227.779 424.57 228.028 424.85 228.236C425.134 228.44 425.446 228.615 425.787 228.762C426.133 228.908 426.481 229.031 426.831 229.131L428.365 229.571C428.829 229.699 429.293 229.862 429.757 230.061C430.221 230.26 430.645 230.511 431.029 230.814C431.417 231.112 431.727 231.479 431.959 231.915C432.196 232.346 432.314 232.864 432.314 233.47C432.314 234.247 432.113 234.945 431.71 235.566C431.308 236.186 430.73 236.678 429.978 237.043C429.225 237.403 428.323 237.583 427.272 237.583C426.282 237.583 425.423 237.419 424.693 237.093C423.964 236.761 423.391 236.304 422.975 235.722C422.558 235.139 422.324 234.465 422.272 233.698H423.635C423.683 234.271 423.872 234.756 424.203 235.154C424.535 235.551 424.966 235.854 425.496 236.063C426.026 236.266 426.618 236.368 427.272 236.368C427.996 236.368 428.64 236.247 429.203 236.006C429.772 235.76 430.217 235.419 430.539 234.983C430.865 234.543 431.029 234.031 431.029 233.449C431.029 232.957 430.901 232.545 430.645 232.213C430.389 231.877 430.032 231.595 429.573 231.368C429.118 231.141 428.59 230.94 427.989 230.764L426.249 230.253C425.108 229.912 424.222 229.441 423.593 228.84C422.963 228.238 422.648 227.471 422.648 226.539C422.648 225.757 422.856 225.071 423.273 224.479C423.694 223.882 424.263 223.418 424.978 223.087C425.697 222.751 426.505 222.583 427.399 222.583C428.304 222.583 429.104 222.748 429.8 223.08C430.496 223.411 431.048 223.868 431.455 224.45C431.867 225.028 432.087 225.686 432.115 226.425H430.83Z" fill="#EDEDED"/>
<rect x="26.7859" width="25.2974" height="208.332" rx="5" fill="#FF5600"/>
<rect x="0.000244141" y="58.0352" width="25.2974" height="150.296" rx="5" fill="#FF8001"/>
<rect x="93.7856" y="95.2334" width="25.2974" height="113.094" rx="5" fill="#FF5600"/>
<rect x="67.0002" y="41.6631" width="25.2974" height="166.665" rx="5" fill="#FF8001"/>
<rect x="160.786" y="41.6631" width="25.2974" height="166.665" rx="5" fill="#FF5600"/>
<rect x="134" y="156.247" width="25.2974" height="52.0829" rx="5" fill="#FF8001"/>
<rect x="227.785" y="101.189" width="25.2974" height="107.142" rx="5" fill="#FF5600"/>
<rect x="201" y="13.3916" width="25.2974" height="194.939" rx="5" fill="#FF8001"/>
<rect x="294.786" width="25.2974" height="208.332" rx="5" fill="#FF5600"/>
<rect x="268" y="78.8691" width="25.2974" height="129.463" rx="5" fill="#FF8001"/>
<rect x="361.786" y="72.918" width="25.2974" height="135.416" rx="5" fill="#10788E"/>
<rect x="335" y="113.095" width="25.2974" height="95.2373" rx="5" fill="#EDEDED"/>
<rect x="428.785" y="113.093" width="25.2974" height="95.2373" rx="5" fill="#10788E"/>
<rect x="402" y="168.153" width="25.2974" height="40.1782" rx="5" fill="#EDEDED"/>
</svg>
