<svg width="29" height="28" viewBox="0 0 29 28" fill="none" xmlns="http://www.w3.org/2000/svg">
    <path d="M3.8533 28C2.99774 28 2.26508 27.6956 1.6553 27.0869C1.04656 26.4771 0.742188 25.7444 0.742188 24.8889V3.11111C0.742188 2.25556 1.04656 1.52289 1.6553 0.913111C2.26508 0.30437 2.99774 0 3.8533 0H21.2366C21.6514 0 22.0471 0.0777779 22.4235 0.233333C22.7989 0.388889 23.1292 0.609259 23.4144 0.894445L27.8477 5.32778C28.1329 5.61296 28.3533 5.94326 28.5089 6.31867C28.6644 6.69511 28.7422 7.09074 28.7422 7.50556V24.8889C28.7422 25.7444 28.4378 26.4771 27.8291 27.0869C27.2193 27.6956 26.4866 28 25.6311 28H3.8533ZM14.7422 23.3333C16.0385 23.3333 17.1403 22.8796 18.0477 21.9722C18.9552 21.0648 19.4089 19.963 19.4089 18.6667C19.4089 17.3704 18.9552 16.2685 18.0477 15.3611C17.1403 14.4537 16.0385 14 14.7422 14C13.4459 14 12.344 14.4537 11.4366 15.3611C10.5292 16.2685 10.0755 17.3704 10.0755 18.6667C10.0755 19.963 10.5292 21.0648 11.4366 21.9722C12.344 22.8796 13.4459 23.3333 14.7422 23.3333ZM6.96441 10.8889H17.8533C18.294 10.8889 18.6637 10.7396 18.9624 10.4409C19.26 10.1433 19.4089 9.77407 19.4089 9.33333V6.22222C19.4089 5.78148 19.26 5.41178 18.9624 5.11311C18.6637 4.81548 18.294 4.66667 17.8533 4.66667H6.96441C6.52367 4.66667 6.15397 4.81548 5.8553 5.11311C5.55767 5.41178 5.40885 5.78148 5.40885 6.22222V9.33333C5.40885 9.77407 5.55767 10.1433 5.8553 10.4409C6.15397 10.7396 6.52367 10.8889 6.96441 10.8889Z" fill="#EDEDED"/>
    </svg>
    