<svg width="34" height="30" viewBox="0 0 34 30" fill="none" xmlns="http://www.w3.org/2000/svg">
    <path d="M17.0147 6.74232C17.3003 6.11488 17.6249 5.50586 17.9865 4.91883C19.9617 1.71828 24.1264 0.0632079 27.6737 1.15854C30.4826 2.02539 32.249 3.98882 33.0877 6.7708C33.9146 9.51502 33.4389 12.1614 32.3073 14.7236C31.123 17.4034 29.3472 19.6696 27.3088 21.7432C24.6597 24.4385 21.6334 26.6509 18.425 28.6267C17.9673 28.9084 17.5281 29.2186 16.949 29.1839C16.6542 29.1685 16.3736 29.1146 16.1209 28.9623C12.604 26.8354 9.28412 24.4509 6.4207 21.4782C4.64368 19.6337 3.08407 17.6282 1.95246 15.3149C0.986835 13.3409 0.403995 11.2741 0.505574 9.05311C0.679002 5.28043 2.92737 2.25387 6.12649 1.20684C8.37919 0.469391 10.5452 0.811178 12.635 1.8384C14.5792 2.79442 15.8558 4.37024 16.7582 6.28908C16.8152 6.41292 16.8728 6.5318 16.9317 6.65192C16.9566 6.68445 16.9844 6.71471 17.0147 6.74232Z" fill="#EDEDED"/>
    </svg>
    
    