<svg width="34" height="30" viewBox="0 0 34 30" fill="none" xmlns="http://www.w3.org/2000/svg">
    <path d="M17.1713 6.62416C17.4569 5.99671 17.7814 5.3877 18.1428 4.80067C20.1174 1.60012 24.2808 -0.0549561 27.8268 1.04038C30.6348 1.90723 32.4007 3.87066 33.2391 6.65264C34.0657 9.39685 33.5902 12.0432 32.4589 14.6054C31.2751 17.2852 29.4999 19.5514 27.4621 21.6251C24.8139 24.3204 21.7886 26.5327 18.5812 28.5085C18.1236 28.7902 17.6846 29.1005 17.1057 29.0658C16.811 29.0503 16.5305 28.9964 16.2779 28.8441C12.7622 26.7172 9.44334 24.3328 6.58086 21.3601C4.80443 19.5155 3.24533 17.51 2.11409 15.1967C1.14878 13.2228 0.566134 11.1559 0.66768 8.93494C0.841051 5.16227 3.08868 2.13571 6.28675 1.08867C8.53872 0.351227 10.704 0.693014 12.7931 1.72024C14.7367 2.67625 16.0129 4.25207 16.915 6.17092C16.972 6.29475 17.0296 6.41364 17.0884 6.53376C17.1133 6.56629 17.1411 6.59654 17.1713 6.62416Z" fill="#EDEDED"/>
    </svg>
    
    