<svg width="26" height="22" viewBox="0 0 26 22" fill="none" xmlns="http://www.w3.org/2000/svg">
    <path d="M13.182 5.63916L12.6746 5.17654C12.63 5.13587 12.5891 5.09131 12.5524 5.04339L12.5221 5.00389L12.5002 4.95919C12.4559 4.86872 12.4109 4.77585 12.3658 4.67807C11.7226 3.31097 10.8346 2.23087 9.50609 1.57759C8.02771 0.850883 6.53947 0.626703 5.00092 1.13039L5.00089 1.1304C2.81702 1.8452 1.25062 3.9215 1.12915 6.56309L13.182 5.63916ZM13.182 5.63916L13.4665 5.01423C13.6722 4.5626 13.9058 4.12423 14.166 3.70168M13.182 5.63916L14.166 3.70168M14.166 3.70168C15.5338 1.48544 18.4264 0.345768 20.8582 1.09672L20.8583 1.09675C22.7893 1.69272 24.0014 3.0281 24.5875 4.97272C25.1626 6.88128 24.8415 8.73932 24.0236 10.5912C23.1682 12.5271 21.8796 14.1777 20.3755 15.7079L20.3755 15.7079C18.426 17.6915 16.1919 19.3268 13.8071 20.7955C13.8071 20.7955 13.8071 20.7955 13.807 20.7955L14.0692 21.2213M14.166 3.70168L1.71483 11.2368C2.56354 12.9719 3.73325 14.4761 5.06601 15.8596C7.21358 18.0893 9.7035 19.8777 12.3412 21.473M14.0692 21.2213C14.0401 21.2392 14.0111 21.2573 13.9821 21.2753C13.6693 21.4702 13.3597 21.663 12.9622 21.6392C12.7411 21.6276 12.5307 21.5872 12.3412 21.473M14.0692 21.2213C16.4755 19.7393 18.7453 18.08 20.7321 16.0584L14.0692 21.2213ZM12.3412 21.473L12.5999 21.0451C12.5998 21.045 12.5996 21.045 12.5995 21.0449C12.5994 21.0448 12.5994 21.0448 12.5993 21.0447L12.3412 21.473ZM4.84538 0.655273L4.84536 0.655205L4.84538 0.655273Z" fill="#8E1010" stroke="#EDEDED"/>
    </svg>
    