<svg width="114" height="61" viewBox="0 0 114 61" fill="none" xmlns="http://www.w3.org/2000/svg">
    <path d="M25.9219 46.4154C26.4025 46.1434 26.9574 46.1261 27.4743 45.9856C28.9201 45.5972 30.3045 45.0087 31.5875 44.2373C34.0439 42.7785 36.0224 40.6359 37.2811 38.0712C37.9476 36.7255 38.3412 35.3191 38.3375 33.7894C38.3176 25.4953 38.3146 17.2013 38.3285 8.90723C38.3285 8.30513 38.3285 8.29878 38.9378 8.28699C40.6743 8.25344 42.4117 8.23622 44.1473 8.18634C44.5508 8.17546 44.6796 8.27249 44.6787 8.7014C44.666 18.8084 44.6627 28.9154 44.6687 39.0224C44.6687 43.0258 44.6624 47.0293 44.6787 51.0327C44.6787 51.4508 44.5653 51.5668 44.1518 51.5614C42.3691 51.5405 40.5864 51.5433 38.8018 51.5614C38.4237 51.5614 38.3122 51.4453 38.3185 51.0717C38.3384 49.8485 38.3258 48.6234 38.323 47.4002C38.3147 47.3237 38.3008 47.2479 38.2813 47.1735C37.788 47.5715 37.3383 47.9542 36.8686 48.3106C35.4603 49.3788 34.0022 50.3726 32.3093 50.9321C31.4221 51.2422 30.5127 51.4847 29.5889 51.6575C29.5798 51.5215 29.4538 51.5124 29.3713 51.4571C27.5477 50.233 26.5013 48.4838 25.9219 46.4154Z" fill="#FF5600"/>
    <path d="M21.9664 52.9215C19.9987 53.0122 18.0518 52.8308 16.1095 52.5252C15.0282 52.36 13.958 52.1286 12.9049 51.8324C9.18713 50.7788 6.05873 48.86 3.84346 45.6228C2.9267 44.2826 2.29286 42.8118 1.82768 41.2476C1.10225 38.8265 0.890066 36.3509 0.890973 33.8446C0.890973 24.5229 0.888253 15.2011 0.882812 5.87942C0.882812 5.4623 0.954446 5.3154 1.41328 5.32356C3.19601 5.35439 4.97875 5.34895 6.7633 5.32356C7.165 5.31812 7.26112 5.4224 7.26021 5.82048C7.24873 15.2178 7.24419 24.6151 7.24661 34.0124C7.24661 35.4043 7.31916 36.7935 7.58847 38.1518C8.12075 40.8377 9.29141 43.1391 11.7978 44.5419C12.7748 45.0873 13.8172 45.5063 14.8999 45.7887C16.2323 46.1556 17.6004 46.3781 18.9804 46.4525C19.0409 46.45 19.1013 46.4599 19.1577 46.4818C19.2142 46.5036 19.2656 46.5369 19.3086 46.5795C19.8699 48.8301 20.7033 50.9647 21.9664 52.9215Z" fill="#FF5600"/>
    <path d="M62.7915 60.2441C57.6229 60.2623 52.4587 60.1589 47.2946 60.0247C45.3786 59.9748 43.4589 59.9658 41.5456 59.8433C39.2569 59.6955 36.9627 59.6765 34.6785 59.4634C33.1992 59.3271 31.7341 59.0659 30.2988 58.6827C28.3581 58.1682 26.5342 57.2859 24.9261 56.0838C24.3947 55.6876 23.935 55.1952 23.4489 54.7409C23.3891 54.6847 23.3184 54.5867 23.3292 54.5196C23.3501 54.3809 23.4934 54.419 23.5913 54.4126C25.0615 54.316 26.52 54.0875 27.9493 53.7298C29.266 53.3979 30.588 53.0796 31.8938 52.7061C32.2719 52.5972 32.5893 52.7342 32.9049 52.8058C33.9649 53.0452 35.0394 53.1513 36.1167 53.2229C37.5467 53.3136 38.9821 53.3526 40.4121 53.436C42.8233 53.5747 45.2389 53.6446 47.6501 53.708C58.0563 53.9719 102.199 53.9257 112.608 53.9166C113.243 53.9166 113.243 53.9166 113.243 54.5677C113.243 56.2751 113.229 57.9826 113.252 59.6892C113.258 60.1099 113.161 60.2586 112.708 60.2577C107.313 60.2387 68.186 60.2441 62.7915 60.2441Z" fill="#EDEDED"/>
    <path d="M23.751 9.12519C25.3042 9.03361 26.8596 9.26169 28.3212 9.7953C30.9508 10.742 33.0256 12.347 34.1554 14.983C34.4519 15.6749 34.5798 16.4239 34.6632 17.1756C34.694 17.4567 34.626 17.5891 34.3077 17.5846C33.2659 17.5701 32.2221 17.5764 31.1803 17.5846C30.9889 17.5846 30.8937 17.5429 30.8502 17.3225C30.4249 15.1589 29.0575 13.8386 27.0344 13.1241C24.8917 12.3669 22.71 12.3524 20.5618 12.9944C18.8906 13.4941 17.4915 14.4652 16.8286 16.1682C16.0497 18.1731 16.5294 20.0519 18.3348 21.4003C19.3159 22.133 20.4448 22.5728 21.6101 22.9355C23.8262 23.6265 26.1186 24.0599 28.3003 24.8606C30.5065 25.6694 32.5323 26.7648 33.9024 28.7888C34.967 30.3602 35.2327 32.0967 35.0631 33.9466C34.8935 35.7964 34.1763 37.4177 32.9603 38.8123C31.9628 39.9504 30.7232 40.7384 29.3431 41.3359C27.2394 42.2472 25.0223 42.4567 22.7717 42.3905C20.4548 42.3216 18.2196 41.8736 16.2029 40.6495C14.1862 39.4253 12.7952 37.7478 12.1632 35.4591C12.0159 34.9404 11.9053 34.4119 11.8322 33.8776C11.7914 33.5657 11.9039 33.4533 12.2294 33.4587C13.2414 33.4768 14.2533 33.465 15.2662 33.465C15.833 33.465 15.901 33.5131 15.9644 34.0944C16.0207 34.5813 16.1984 35.0211 16.4015 35.4545C17.0263 36.8065 18.1471 37.6181 19.4701 38.1377C21.7125 39.0191 24.0393 39.0599 26.3489 38.4868C28.2187 38.0234 29.8545 37.0913 30.7649 35.2986C31.8114 33.2393 31.5883 30.6522 28.9577 29.1968C27.7318 28.5185 26.4187 28.0751 25.0749 27.7015C23.6784 27.3125 22.2992 26.861 20.9037 26.4819C19.3563 26.0731 17.8773 25.4394 16.514 24.6012C15.054 23.6945 13.8163 22.5673 13.2006 20.8943C12.7353 19.6506 12.5855 18.311 12.7644 16.9952C13.1425 14.1134 14.7593 12.1185 17.1904 10.6957C18.4418 9.96215 19.8056 9.54412 21.2356 9.27299C22.0789 9.11793 22.9149 9.19229 23.751 9.12519Z" fill="#10788E"/>
    <path d="M21.293 7.65939C22.026 6.55308 22.9089 5.55367 23.9163 4.68968C25.1205 3.66402 26.4789 2.83471 27.9415 2.2323C29.2266 1.70716 30.5611 1.31224 31.925 1.05348C35.9919 0.256418 40.1087 0.288155 44.2237 0.263672C44.5791 0.263672 44.6825 0.35435 44.6771 0.709809C44.6608 2.55239 44.6608 4.39618 44.6771 6.24118C44.6771 6.52863 44.6136 6.61841 44.3144 6.61931C42.4573 6.61931 40.5966 6.59664 38.7449 6.68551C37.0338 6.76802 35.3209 6.8723 33.6279 7.20237C32.2569 7.46987 30.9176 7.79722 29.678 8.45917C29.6033 8.49673 29.5208 8.5163 29.4372 8.5163C29.3536 8.5163 29.2712 8.49673 29.1965 8.45917C27.9805 7.9151 26.6892 7.68841 25.3789 7.5669C24.0178 7.44351 22.6471 7.47454 21.293 7.65939Z" fill="#EDEDED"/>
    <path d="M23.1389 37.2424C21.4986 37.198 19.9353 36.9078 18.625 35.8106C18.2468 35.4932 17.9975 35.1632 17.9812 34.62C17.9122 32.2624 17.8905 29.912 17.8633 27.558C17.8633 27.1717 17.954 27.1046 18.3031 27.2578C19.2271 27.6641 20.1937 27.9452 21.1694 28.2C22.1197 28.4484 23.0591 28.7359 24.0031 29.0088C24.2271 29.0741 24.2262 29.2546 24.2307 29.445C24.2754 31.5735 24.3241 33.7011 24.3767 35.8278C24.3858 36.1906 24.4239 36.5533 24.4674 36.9096C24.4955 37.1418 24.4229 37.2497 24.1808 37.2442C23.8335 37.237 23.4862 37.2424 23.1389 37.2424Z" fill="#EDEDED"/>
    <path d="M21.9676 52.9219C20.7062 50.965 19.8711 48.8304 19.3125 46.5798C20.3952 46.5118 21.457 46.7875 22.5406 46.7612C23.5445 46.7376 24.5356 46.6623 25.5167 46.4393C25.6503 46.4197 25.7853 46.4115 25.9202 46.4148C26.4997 48.4832 27.5461 50.2323 29.366 51.4492C29.4485 51.5046 29.5746 51.5136 29.5836 51.6496C27.6794 52.1728 25.7806 52.667 23.7984 52.7976C23.1908 52.8393 22.5842 52.9545 21.9676 52.9219Z" fill="#EDEDED"/>
    <path d="M18.0742 18.0267C18.0815 16.4461 18.9039 15.5167 20.0764 14.8892C21.6025 14.0731 23.2701 14.055 24.9494 14.2191C25.1644 14.2409 25.1399 14.3442 25.0963 14.4911C24.4253 16.7925 24.2258 19.1538 24.2177 21.5377C24.2177 22.0437 24.2267 21.9984 23.7389 21.8859C22.9382 21.7072 22.1505 21.4746 21.3813 21.1895C20.1607 20.728 18.9465 20.2256 18.2837 18.9733C18.105 18.6369 18.0969 18.2579 18.0742 18.0267Z" fill="#EDEDED"/>
    <path d="M111.464 40.0744C111.731 39.8486 111.527 39.4577 111.717 39.2474C111.934 39.0071 112.279 39.1141 112.571 39.1349C112.982 39.163 112.898 39.5085 112.899 39.7443C112.909 42.4238 112.955 45.1034 112.882 47.7811C112.849 48.9826 112.101 49.766 110.932 50.1387C109.416 50.6266 107.987 50.5014 106.707 49.5375C106.479 49.3671 105.901 49.0733 106.344 48.5945C106.714 48.191 107.098 48.1012 107.581 48.5945C108.306 49.3263 109.241 49.5267 110.218 49.1639C111.545 48.6707 111.814 47.9851 111.463 46.0392C110.601 46.8462 109.659 47.3749 108.49 47.0285C107.706 46.7963 106.995 46.4844 106.495 45.73C105.349 44.0071 105.538 41.2078 106.972 39.8721C108.229 38.7015 109.908 38.7704 111.464 40.0744ZM107.021 43.3098C107.023 43.545 107.044 43.7796 107.083 44.0116C107.319 45.1487 108.057 45.8025 109.184 45.9059C110.241 46.0029 111.088 45.5223 111.409 44.4958C111.74 43.4276 111.759 42.3322 111.228 41.2894C110.86 40.5586 110.235 40.2058 109.446 40.1641C107.98 40.0861 107.03 41.2604 107.02 43.3098H107.021Z" fill="#EDEDED"/>
    <path d="M19.3046 43.5644L19.6673 43.607C19.7129 43.6632 19.7758 43.7026 19.8463 43.719C19.9167 43.7354 19.9906 43.7279 20.0563 43.6977L20.4562 43.7485C20.6575 43.8972 20.8842 43.8899 21.1154 43.8536C22.3605 43.928 23.6046 44.1003 24.8541 43.9081C25.1479 43.8627 25.3247 43.9507 25.3274 44.2762C25.3274 44.5546 25.5315 44.8738 25.0065 44.9608C23.5665 45.1993 22.1274 45.1984 20.6811 45.066C20.3066 45.0316 19.9303 45.0025 19.5576 44.9509C18.9392 44.8665 18.8684 44.7795 18.8186 44.1284C18.8122 44.054 18.8041 43.9788 18.7968 43.9044C18.8271 43.7478 18.8136 43.5859 18.7578 43.4365L19.0253 43.4483C19.0434 43.6623 19.1985 43.5553 19.3046 43.5644Z" fill="#EDEDED"/>
    <path d="M52.0901 4.59182C52.0901 5.76067 52.0421 6.93314 52.1037 8.09926C52.1654 9.26538 53.0432 10.0679 54.319 10.2356C55.7399 10.4224 56.9668 9.83575 57.4111 8.80202C57.6459 8.25135 57.7597 7.65671 57.7448 7.05827C57.7222 5.15403 57.7367 3.24979 57.7367 1.3392C57.7367 0.93477 57.6732 0.523091 58.3188 0.548481C58.9091 0.570243 59.1349 0.786965 59.1259 1.39632C59.0968 3.43568 59.154 5.47684 59.1023 7.5162C59.0515 9.53651 57.8083 10.9901 56.0437 11.3873C53.9581 11.8579 51.576 11.0318 50.9313 9.21098C50.7974 8.87385 50.7225 8.51619 50.71 8.15367C50.7018 5.87946 50.7037 3.60525 50.7 1.33103C50.7 0.919355 50.652 0.514929 51.2922 0.552107C51.8553 0.585658 52.0439 0.854067 52.0357 1.38363C52.0185 2.45363 52.0303 3.52363 52.0303 4.59454L52.0901 4.59182Z" fill="#EDEDED"/>
    <path d="M65.4992 36.2668C67.2556 36.3058 68.4825 36.8462 69.1825 38.288C69.3059 38.5419 69.5725 38.9336 69.2097 39.057C68.847 39.1803 68.3175 39.3598 67.982 38.8221C67.233 37.617 65.5545 37.1146 64.2941 37.7766C63.8162 38.0278 63.3773 38.3986 63.3519 39.0833C63.3265 39.7316 63.5895 40.1714 64.0919 40.4897C64.9805 41.0501 66.036 41.1544 67.0108 41.479C68.7337 42.0539 69.519 42.919 69.4763 44.3589C69.4292 45.9449 68.5868 46.7737 66.7796 47.2652C65.306 47.6669 64.0284 47.3667 62.8215 46.528C62.4089 46.2414 62.0489 45.8606 61.9963 45.3673C61.9636 45.0689 61.3615 44.7035 61.9573 44.4505C62.4188 44.2547 62.8867 44.28 63.2268 44.8196C64.1626 46.2967 65.8429 46.6486 67.3309 45.7372C67.9248 45.3745 68.2295 44.8513 68.1923 44.1712C68.157 43.5084 67.7253 43.1583 67.1359 42.8899C65.9344 42.3459 64.5806 42.2416 63.4254 41.5579C62.4796 40.9984 61.9265 40.2421 62.0099 39.1168C62.0933 37.9915 62.7353 37.2071 63.7083 36.7256C64.334 36.4191 64.9995 36.1625 65.4992 36.2668Z" fill="#EDEDED"/>
    <path d="M66.2268 23.9039C66.1588 25.5941 67.0339 27.4793 68.6924 28.0452C69.8558 28.4424 71.8344 27.8811 72.4501 26.6097C72.5226 26.4601 72.5408 26.2679 72.6478 26.1564C72.783 26.0042 72.9654 25.902 73.1658 25.8662C73.3661 25.8303 73.5727 25.8629 73.7522 25.9587C74.0877 26.131 73.9336 26.5209 73.8148 26.7748C73.1918 28.0923 72.2551 29.0227 70.7417 29.2866C66.1906 30.0818 64.562 26.0738 64.9655 23.0098C65.2375 20.9523 66.1135 19.292 68.239 18.5666C70.4207 17.8149 72.9044 18.8631 73.7704 20.9541C73.8864 21.2334 74.1712 21.6642 73.7513 21.8219C73.3977 21.9543 72.7666 22.0822 72.597 21.5698C72.3077 20.6939 71.751 20.1235 70.9367 19.8424C70.1369 19.5704 69.2818 19.5903 68.4648 19.8252C67.2307 20.1797 66.2767 21.7766 66.2232 23.5085C66.2268 23.6364 66.2268 23.7706 66.2268 23.9039Z" fill="#EDEDED"/>
    <path d="M85.2268 7.75591C84.4905 7.75591 83.7533 7.77132 83.017 7.75591C82.53 7.74321 82.3251 7.91006 82.4647 8.41242C82.7132 9.30288 83.202 10.022 84.1251 10.2341C85.0137 10.4391 85.9314 10.4472 86.5879 9.613C86.9188 9.19134 87.3813 8.97825 87.7785 9.33371C88.2745 9.77984 87.8075 10.1788 87.4865 10.5071C86.3467 11.6714 84.913 11.7358 83.5166 11.286C82.2698 10.8843 81.4818 9.91768 81.2642 8.5439C81.0175 6.98242 81.0928 5.50708 82.2136 4.26933C83.2418 3.13403 84.8995 2.86109 86.3032 3.47861C87.8946 4.17865 88.3035 6.0439 88.2881 7.19642C88.2817 7.64981 88.0161 7.76135 87.6388 7.76135L85.2268 7.75591ZM84.6601 6.70404C85.0926 6.70404 85.5278 6.72761 85.9577 6.69588C86.266 6.6723 86.694 6.89446 86.8581 6.53628C87.0222 6.1781 86.9189 5.77096 86.6976 5.40008C85.8071 3.91477 83.5891 3.92112 82.7368 5.42275C82.2045 6.35946 82.3967 6.70041 83.4622 6.70313C83.8621 6.70494 84.2611 6.70404 84.6601 6.70404Z" fill="#EDEDED"/>
    <path d="M110.344 25.6981C109.607 25.6981 108.87 25.7081 108.135 25.6981C107.599 25.6882 107.438 25.8849 107.545 26.4344C107.717 27.3131 108.235 27.9388 109.028 28.1573C109.844 28.3804 110.76 28.4629 111.476 27.7493C111.617 27.6096 111.728 27.441 111.864 27.2959C112.161 26.9776 112.506 27.1417 112.779 27.2886C113.137 27.4818 112.991 27.7982 112.825 28.0676C112.131 29.1965 110.985 29.483 109.819 29.4277C106.356 29.2582 105.592 26.1189 106.454 23.637C107.301 21.1951 109.639 20.3898 111.622 21.5623C112.71 22.2043 113.501 24.0106 113.287 25.2538C113.214 25.6818 112.965 25.7009 112.652 25.7018C111.883 25.7018 111.111 25.7018 110.343 25.7018L110.344 25.6981ZM109.731 24.61C110.13 24.61 110.531 24.6354 110.927 24.6018C111.234 24.5764 111.652 24.8004 111.828 24.4277C112.004 24.055 111.902 23.6425 111.662 23.2924C111.149 22.538 110.495 22.1064 109.52 22.2243C108.651 22.3303 108.086 22.8318 107.707 23.5346C107.28 24.3207 107.471 24.5973 108.342 24.6091C108.799 24.6163 109.266 24.6109 109.731 24.6109V24.61Z" fill="#EDEDED"/>
    <path d="M86.2724 43.786C86.2724 44.8569 86.2823 45.6903 86.2651 46.5299C86.2651 46.763 86.4211 47.1311 86.0049 47.1647C85.6603 47.1937 85.1407 47.3723 85.0074 46.9598C84.7762 46.2225 84.5667 46.6768 84.2929 46.88C83.0324 47.8103 81.3005 47.5891 80.2758 46.3749C79.3609 45.2958 79.7934 43.5013 81.0919 42.9527C81.9688 42.5827 82.9182 42.57 83.8304 42.376C84.3282 42.2699 84.9612 42.4313 84.9557 41.5916C84.9503 40.7945 84.5078 40.3221 83.7996 40.1852C82.969 40.0247 82.1565 40.1308 81.5734 40.8834C81.2334 41.3223 80.7419 41.3867 80.3692 41.0466C79.9158 40.6286 80.3692 40.265 80.6412 39.9585C81.7802 38.6981 85.4009 38.4632 86.1282 40.7238C86.4791 41.7993 86.1744 42.9246 86.2724 43.786ZM82.7078 46.1899C84.1224 46.2017 84.8415 45.6295 84.9648 44.3936C85.0709 43.3326 84.8415 43.1241 83.815 43.4741C83.3924 43.6192 82.9735 43.6554 82.5455 43.7044C81.7502 43.7996 81.1001 44.0961 81.0692 45.0047C81.0457 45.7492 81.6931 46.1817 82.7078 46.1899Z" fill="#EDEDED"/>
    <path d="M109.432 8.15911C109.432 8.99517 109.443 9.83122 109.425 10.6673C109.42 10.9003 109.577 11.263 109.174 11.3147C108.823 11.3601 108.272 11.5142 108.152 11.1841C107.845 10.3408 107.44 10.9856 107.229 11.1161C106.241 11.7264 105.226 11.6067 104.262 11.2204C103.271 10.8232 102.76 9.7079 102.925 8.69049C103.09 7.67308 103.963 6.90141 105.155 6.77264C105.82 6.70191 106.477 6.63753 107.128 6.46252C107.591 6.33829 108.126 6.46252 108.068 5.65639C108.013 4.89107 107.649 4.46488 106.968 4.33793C106.157 4.1874 105.347 4.25269 104.766 4.95273C104.38 5.417 103.887 5.54395 103.489 5.15313C103.004 4.67797 103.563 4.25813 103.86 4.02056C105.064 3.05665 106.436 2.89524 107.872 3.4511C109.153 3.94801 109.461 5.00986 109.435 6.25306C109.421 6.8878 109.432 7.52346 109.432 8.15911ZM108.039 8.35316C108.186 7.61051 107.957 7.3285 107.151 7.57605C106.651 7.7302 106.089 7.67942 105.581 7.81635C104.995 7.97504 104.355 8.15004 104.208 8.88454C104.108 9.39052 104.293 9.81308 104.744 10.0697C105.494 10.4977 106.286 10.4623 107.036 10.1087C107.734 9.775 108.166 9.21189 108.039 8.35316Z" fill="#EDEDED"/>
    <path d="M71.4531 41.8129C71.4531 40.2713 71.4531 38.7361 71.4531 37.1982C71.4531 36.802 71.3842 36.3576 72.0226 36.374C72.5821 36.3894 72.7834 36.6768 72.7743 37.2C72.7625 37.9019 72.7553 38.6056 72.7797 39.3065C72.7924 39.6565 72.68 40.1117 73.3555 39.6411C75.2489 38.3226 77.9475 39.0635 77.9366 41.9316C77.9303 43.4732 77.9203 45.0084 77.9466 46.5463C77.9547 47.0151 77.8196 47.1892 77.3345 47.2073C76.7777 47.2282 76.6744 46.996 76.6852 46.4991C76.7143 45.0954 76.7134 43.6881 76.6898 42.2862C76.6662 40.9088 76.0024 40.1634 74.8526 40.1589C73.5686 40.1525 72.8106 40.9024 72.7788 42.2862C72.7471 43.6899 72.7389 45.0972 72.7861 46.4982C72.8078 47.1384 72.4905 47.1747 72.0017 47.2046C71.4404 47.239 71.4422 46.9325 71.4459 46.5272C71.4613 44.9585 71.4531 43.3843 71.4531 41.8129Z" fill="#EDEDED"/>
    <path d="M97.4601 43.1883C97.4601 42.0839 97.4483 40.9785 97.4691 39.875C97.4746 39.6111 97.3204 39.1831 97.7412 39.1405C98.0812 39.1069 98.5346 38.9002 98.7441 39.4869C99.0279 40.2821 99.3788 39.5676 99.6146 39.4379C100.991 38.6907 102.853 38.9428 103.631 40.4907C103.889 41.0039 103.824 41.5344 103.839 42.054C103.881 43.5248 103.847 44.9983 103.875 46.4709C103.884 46.9243 103.882 47.2362 103.27 47.209C102.758 47.1864 102.557 47.034 102.567 46.5045C102.593 45.1334 102.583 43.7605 102.574 42.3886C102.563 40.8679 101.98 40.1543 100.778 40.1597C99.5275 40.166 98.8148 40.9559 98.7949 42.4049C98.7749 43.7769 98.7658 45.1497 98.8021 46.5217C98.8175 47.0794 98.5818 47.1818 98.0948 47.2072C97.5317 47.2353 97.4329 46.9968 97.4465 46.5008C97.4818 45.3973 97.4601 44.2928 97.4601 43.1883Z" fill="#EDEDED"/>
    <path d="M62.8107 4.26182C63.6967 3.17368 64.8138 2.9361 66.0416 3.28521C67.1669 3.60622 67.8398 4.68257 67.8697 6.14158C67.9005 7.61419 67.8624 9.08681 67.8851 10.5594C67.8933 11.0881 67.769 11.3538 67.166 11.3637C66.5449 11.3746 66.5639 11.031 66.5676 10.6011C66.5775 9.19562 66.5848 7.79011 66.5676 6.38369C66.5503 5.06795 65.902 4.33618 64.7794 4.31351C63.5697 4.28902 62.7201 5.07974 62.6865 6.35014C62.6484 7.7883 62.672 9.22827 62.6793 10.6673C62.6793 11.0645 62.6883 11.3773 62.1198 11.3637C61.6011 11.351 61.4089 11.1824 61.4134 10.661C61.4324 8.55271 61.4089 6.44445 61.4324 4.33618C61.437 3.92722 61.1822 3.3641 61.9357 3.23443C62.7455 3.09388 62.5904 3.78032 62.8107 4.26182Z" fill="#EDEDED"/>
    <path d="M89.6324 28.026C88.907 29.1078 88.0846 29.4769 87.0028 29.3209C85.824 29.155 84.9825 28.4277 84.8537 27.2398C84.6551 25.4063 84.7911 23.5628 84.7494 21.7239C84.7385 21.2514 84.9915 21.1988 85.3842 21.1798C85.8639 21.1599 86.0343 21.3267 86.0253 21.8082C86.0017 23.1802 86.008 24.5521 86.0126 25.9241C86.018 27.2752 86.7208 28.1974 87.7599 28.1647C88.7329 28.1339 89.8891 27.3024 89.8047 25.9386C89.7204 24.5748 89.8183 23.1947 89.7712 21.8245C89.7512 21.2224 90.0523 21.2025 90.4966 21.1834C91.0407 21.1589 91.1513 21.4192 91.1477 21.9089C91.1295 24.1166 91.1295 26.3252 91.1477 28.5347C91.1477 28.9809 91.1477 29.3028 90.541 29.2837C90.0351 29.2674 89.6859 29.2103 89.773 28.5873C89.7784 28.4975 89.7249 28.3996 89.6324 28.026Z" fill="#EDEDED"/>
    <path d="M75.583 25.1724C75.5666 24.2539 75.7643 23.4015 76.2785 22.6226C77.1236 21.3531 78.5454 20.8262 80.2275 21.2016C81.4399 21.4737 82.5498 22.7568 82.742 24.0861C83.0059 25.9087 82.9234 27.6325 81.2639 28.8349C80.1432 29.651 78.8156 29.6365 77.664 29.1169C76.5124 28.5974 75.7244 27.5636 75.6528 26.1717C75.6355 25.838 75.6065 25.5052 75.583 25.1724ZM81.6584 25.1851C81.7754 24.5613 81.477 23.9338 81.1787 23.3607C80.4089 21.8636 78.384 21.8083 77.4283 23.2102C76.6249 24.389 76.6457 26.0819 77.4201 27.3378C77.7828 27.9291 78.2761 28.1539 78.9435 28.2646C80.6446 28.5384 81.6629 26.9008 81.6566 25.1851H81.6584Z" fill="#EDEDED"/>
    <path d="M101.613 21.1246C102.631 21.0955 103.48 21.3141 104.055 22.1383C104.245 22.4104 104.673 22.7105 104.267 23.0542C103.913 23.3534 103.519 23.3362 103.139 22.9109C102.392 22.0749 101.247 21.9506 100.501 22.5437C99.7206 23.1648 99.8085 23.8966 100.711 24.3092C101.436 24.6411 102.24 24.7363 102.999 24.9693C104.04 25.2885 104.599 25.9269 104.696 26.9234C104.799 27.9708 104.132 28.7778 103.272 29.0997C102.026 29.573 100.675 29.6655 99.4494 28.8621C99.3076 28.7816 99.1808 28.677 99.0749 28.5529C98.7966 28.1703 98.2153 27.7368 98.7376 27.2834C99.1792 26.8989 99.6344 27.1093 100.021 27.6906C100.588 28.5448 102.479 28.4749 103.143 27.6806C103.636 27.0912 103.372 26.3558 102.52 26.0701C101.828 25.838 101.102 25.7074 100.411 25.4744C99.1693 25.0555 98.5771 24.2684 98.6787 23.2627C98.7866 22.2036 99.8013 21.2796 100.985 21.1645C101.218 21.149 101.452 21.1363 101.613 21.1246Z" fill="#EDEDED"/>
    <path d="M98.3635 3.14453C99.4716 3.1808 100.429 3.38664 100.984 4.37685C101.133 4.64163 101.336 5.02066 100.922 5.22197C100.614 5.37159 100.235 5.50126 99.9803 5.04061C99.4988 4.17282 98.6691 4.21272 97.8684 4.33876C97.3388 4.42219 96.841 4.66339 96.7802 5.31718C96.7195 5.97097 97.1529 6.16593 97.6716 6.42527C98.3744 6.7771 99.1515 6.71091 99.8606 7.03463C100.706 7.42001 101.354 7.85073 101.42 8.85635C101.492 9.92999 101.045 10.63 100.06 11.1233C98.8078 11.7463 96.3495 11.5767 95.6314 10.3244C95.4047 9.92999 95.2097 9.56818 95.5543 9.29342C95.917 9.00779 96.3359 9.14834 96.666 9.53735C97.3388 10.3281 98.4134 10.5883 99.3201 10.1893C99.7599 9.99528 100.136 9.67881 100.106 9.14834C100.076 8.61787 99.808 8.23702 99.2141 8.11824C98.5635 7.98218 97.9211 7.80962 97.2899 7.60137C96.0448 7.20238 95.3475 6.32552 95.45 5.33894C95.5597 4.27982 96.5254 3.38755 97.7469 3.21798C97.9754 3.18534 98.2084 3.16267 98.3635 3.14453Z" fill="#EDEDED"/>
    <path d="M76.693 9.36074C77.2942 7.61427 77.9062 5.87053 78.4848 4.11682C78.57 3.85929 78.6335 3.61718 78.8293 3.42041C79.1422 3.10394 79.533 3.1928 79.8567 3.30071C80.3573 3.46756 79.9474 3.83662 79.8821 4.0343C79.0962 6.31214 78.282 8.57909 77.4393 10.8352C77.2924 11.2305 76.9296 11.3883 76.4708 11.3557C76.0519 11.3248 75.8225 11.1861 75.6719 10.7635C74.9157 8.64801 74.1014 6.55334 73.3642 4.43147C73.2463 4.09052 72.7222 3.54554 73.3642 3.28076C74.0452 3.00238 74.4387 3.42766 74.6581 4.11047C75.2222 5.86781 75.837 7.60702 76.4363 9.35349L76.693 9.36074Z" fill="#EDEDED"/>
    <path d="M111.592 6.02539C111.592 4.49021 111.602 2.95503 111.587 1.41984C111.587 0.93018 111.638 0.552958 112.258 0.555679C112.877 0.558399 112.915 0.953756 112.914 1.43344C112.904 4.47117 112.904 7.50859 112.914 10.5457C112.914 11.0345 112.888 11.3618 112.243 11.3618C111.582 11.3618 111.582 10.9991 111.587 10.5285C111.6 9.02956 111.592 7.52702 111.592 6.02539Z" fill="#EDEDED"/>
    <path d="M89.7732 40.1424C90.4877 39.3063 91.1424 39.037 91.9069 39.0171C92.2523 39.008 92.5851 38.9889 92.567 39.5103C92.5534 39.9039 92.586 40.2258 92.0157 40.2113C90.583 40.1759 89.6109 41.1752 89.7369 42.6777C89.8457 43.9735 89.7514 45.2856 89.7641 46.5905C89.7641 46.9632 89.7641 47.257 89.2536 47.1981C88.8619 47.1536 88.4375 47.2606 88.4375 46.6168C88.4565 44.3417 88.4429 42.0666 88.4502 39.7905C88.4502 39.4423 88.5109 39.1558 88.9816 39.1014C89.59 39.0288 89.8339 39.2837 89.7732 40.1424Z" fill="#EDEDED"/>
    <path d="M94.7734 22.0166C95.3774 21.3429 95.9522 21.1307 96.6124 21.1008C97.0549 21.0808 97.3895 21.0908 97.404 21.6965C97.4176 22.2642 97.1066 22.2406 96.7094 22.2605C95.3492 22.3295 94.6791 23.0322 94.6692 24.3924C94.6583 25.7952 94.6419 27.1989 94.6791 28.6008C94.6936 29.1512 94.4805 29.2718 93.9836 29.2827C93.4568 29.2936 93.3153 29.1068 93.3217 28.5926C93.3498 26.4889 93.3153 24.3842 93.3516 22.2814C93.357 21.9259 93.0134 21.3646 93.6935 21.2141C94.2466 21.0899 94.6692 21.2595 94.7734 22.0166Z" fill="#EDEDED"/>
    <path d="M90.1155 7.30753C90.1155 6.17133 90.1074 5.03422 90.1228 3.89803C90.1228 3.66408 89.9886 3.30136 90.3948 3.26328C90.7004 3.23426 91.0912 3.0919 91.2545 3.53531C91.4621 4.09842 91.6625 3.93067 92.0198 3.62055C92.4505 3.24696 93.0172 3.09824 93.6076 3.13542C93.9939 3.1599 94.2351 3.31678 94.2423 3.74025C94.2496 4.16371 94.0519 4.35051 93.6339 4.34688C91.8983 4.33328 91.3524 5.32712 91.4177 6.83419C91.4694 8.03477 91.4177 9.24079 91.4331 10.4432C91.4394 10.9646 91.3923 11.3364 90.7077 11.3636C89.9632 11.3944 90.121 10.9202 90.1183 10.5157C90.111 9.44663 90.1155 8.37753 90.1155 7.30753Z" fill="#EDEDED"/>
    <path d="M70.0429 7.20279C70.0429 6.1355 70.0474 5.06822 70.0429 4.00094C70.0429 3.58563 69.9967 3.19299 70.6314 3.23108C71.1256 3.26009 71.4276 3.32176 71.4176 3.94834C71.385 6.18507 71.385 8.41969 71.4176 10.6522C71.4276 11.2869 71.122 11.3286 70.6269 11.3613C69.9867 11.403 70.0384 11.0203 70.0411 10.605C70.0484 9.47156 70.0429 8.33717 70.0429 7.20279Z" fill="#EDEDED"/>
    <path d="M93.9795 43.1239C93.9795 41.9859 93.9994 40.847 93.9704 39.7099C93.9568 39.1976 94.188 39.0915 94.6324 39.1069C95.0395 39.1205 95.3351 39.1459 95.3306 39.6863C95.3125 41.9959 95.3061 44.3064 95.336 46.6159C95.3442 47.1763 95.0413 47.1872 94.6532 47.1927C94.2651 47.1981 93.9441 47.2171 93.9659 46.6386C94.0094 45.4689 93.9786 44.2955 93.9795 43.1239Z" fill="#EDEDED"/>
    <path d="M70.8237 1.90318C70.1717 1.90772 69.8462 1.58672 69.8362 1.12698C69.8244 0.619179 70.1808 0.265534 70.7176 0.253746C71.2082 0.242864 71.5519 0.50311 71.56 1.02814C71.5682 1.58581 71.2535 1.87961 70.8237 1.90318Z" fill="#EDEDED"/>
    <path d="M94.6507 36.1705C95.2066 36.1642 95.5221 36.4371 95.494 36.9866C95.4659 37.5361 95.1368 37.7465 94.58 37.751C94.0232 37.7556 93.7992 37.4028 93.7856 36.9785C93.7702 36.4661 94.1221 36.1751 94.6507 36.1705Z" fill="#EDEDED"/>
    <path d="M21.1124 43.8539C20.8811 43.8901 20.6544 43.8974 20.4531 43.7487C20.6834 43.7242 20.9237 43.6245 21.1124 43.8539Z" fill="#10788E"/>
    <path d="M18.7549 43.4365C18.8107 43.5859 18.8241 43.7478 18.7939 43.9044C18.6152 43.7621 18.5617 43.6097 18.7549 43.4365Z" fill="#10788E"/>
    <path d="M20.0531 43.698C19.9874 43.7282 19.9135 43.7358 19.843 43.7193C19.7726 43.7029 19.7096 43.6635 19.6641 43.6073C19.7296 43.5761 19.8038 43.5681 19.8744 43.5845C19.9451 43.601 20.0081 43.641 20.0531 43.698Z" fill="#10788E"/>
    <path d="M19.3034 43.5648C19.1973 43.5557 19.0422 43.6627 19.0195 43.4487C19.1419 43.417 19.2589 43.4052 19.3034 43.5648Z" fill="#10788E"/>
    </svg>
    