<svg width="31" height="30" viewBox="0 0 31 30" fill="none" xmlns="http://www.w3.org/2000/svg">
<path d="M30.5944 15.8906L24.0334 22.4531C23.7935 22.6825 23.4748 22.8111 23.143 22.8125C22.8952 22.8121 22.6531 22.738 22.4475 22.5996C22.2419 22.4613 22.082 22.2649 21.9883 22.0355C21.8945 21.806 21.8711 21.5539 21.9209 21.3111C21.9708 21.0683 22.0916 20.8458 22.2682 20.6719L26.689 16.25H12.2081C11.8766 16.25 11.5587 16.1183 11.3244 15.8839C11.09 15.6495 10.9584 15.3315 10.9584 15C10.9584 14.6685 11.09 14.3505 11.3244 14.1161C11.5587 13.8817 11.8766 13.75 12.2081 13.75L26.689 13.75L22.2682 9.32812C22.032 9.09399 21.8986 8.77561 21.8971 8.44302C21.8956 8.11044 22.0263 7.7909 22.2604 7.55469C22.4945 7.31848 22.8128 7.18496 23.1453 7.18349C23.4778 7.18202 23.7973 7.31274 24.0334 7.54688L30.5944 14.1094C30.829 14.3464 30.9607 14.6664 30.9607 15C30.9607 15.3336 30.829 15.6536 30.5944 15.8906ZM12.2081 27.5L3.46011 27.5L3.46011 2.5L12.2081 2.5C12.5395 2.5 12.8574 2.3683 13.0917 2.13388C13.3261 1.89946 13.4578 1.58152 13.4578 1.25C13.4578 0.918479 13.3261 0.600537 13.0917 0.366117C12.8574 0.131696 12.5395 0 12.2081 0L3.46011 0C2.79722 0 2.16149 0.263392 1.69275 0.732233C1.22402 1.20107 0.960693 1.83696 0.960693 2.5L0.960693 27.5C0.960693 28.163 1.22402 28.7989 1.69275 29.2678C2.16149 29.7366 2.79722 30 3.46011 30L12.2081 30C12.5395 30 12.8574 29.8683 13.0917 29.6339C13.3261 29.3995 13.4578 29.0815 13.4578 28.75C13.4578 28.4185 13.3261 28.1005 13.0917 27.8661C12.8574 27.6317 12.5395 27.5 12.2081 27.5Z" fill="#FF8001"/>
</svg>
