<svg width="24" height="36" viewBox="0 0 24 36" fill="none" xmlns="http://www.w3.org/2000/svg">
<path d="M11.7816 35.0361C11.6425 34.5701 11.5294 34.1707 11.4039 33.7714C10.5614 31.1134 9.20645 28.7206 7.61351 26.4508C6.22393 24.469 4.67858 22.6004 3.26428 20.6378C2.25795 19.239 1.30601 17.8005 0.743505 16.1575C-1.35261 10.041 1.12304 4.03704 6.41246 1.30548C12.2347 -1.70115 19.5937 0.83446 22.3277 6.79024C22.9891 8.23112 23.2926 9.7468 23.4323 11.3231C23.6246 13.4909 22.8544 15.3855 21.9117 17.238C20.8386 19.3459 19.4447 21.2559 18.0978 23.1895C16.5685 25.387 15.0343 27.582 13.7937 29.9631C13.0074 31.4738 12.3447 33.034 11.9022 34.6826C11.8756 34.7778 11.8373 34.8736 11.7816 35.0361ZM11.705 18.0793C13.0282 18.0814 14.3224 17.6912 15.424 16.958C16.5256 16.2248 17.3851 15.1815 17.894 13.96C18.4028 12.7385 18.5382 11.3936 18.283 10.0952C18.0278 8.79675 17.3934 7.60312 16.46 6.6651C15.5267 5.72708 14.3362 5.08677 13.0391 4.82509C11.742 4.5634 10.3964 4.69207 9.17234 5.19485C7.94832 5.69762 6.90079 6.55194 6.16212 7.64985C5.42345 8.74775 5.02679 10.04 5.02227 11.3632C5.01918 12.2433 5.18968 13.1153 5.52401 13.9293C5.85834 14.7434 6.34994 15.4835 6.97067 16.1073C7.59139 16.7311 8.32905 17.2264 9.14143 17.5648C9.95381 17.9032 10.8249 18.078 11.705 18.0793Z" fill="#EDEDED"/>
</svg>
