<svg width="28" height="22" viewBox="0 0 28 22" fill="none" xmlns="http://www.w3.org/2000/svg">
    <path d="M0.00227277 8.943C-0.109057 3.96851 3.88412 -0.0921128 8.80101 0.00158981C13.5076 0.0915656 17.2752 3.956 17.287 8.72418C17.2994 13.6433 13.3222 17.5841 8.48698 17.4976C3.7804 17.4135 0.0897088 13.5653 0.00227277 8.943Z" fill="#8E1010"/>
    <path d="M10.7152 8.943C10.6038 3.96851 14.597 -0.0921128 19.5139 0.00158981C24.2205 0.0915656 27.9881 3.956 27.9999 8.72418C28.0123 13.6433 24.0351 17.5841 19.1999 17.4976C14.4933 17.4135 10.8026 13.5653 10.7152 8.943Z" fill="#FF8001"/>
    <path d="M1.44391 20.7428C1.44391 20.4058 1.4468 20.0685 1.44208 19.7312C1.4405 19.621 1.47831 19.5755 1.58702 19.5869C1.63942 19.5917 1.69215 19.5917 1.74456 19.5869C1.86272 19.5776 1.95908 19.5891 1.93072 19.7504C1.92731 19.7711 1.92652 19.7975 1.94963 19.8095C1.97956 19.8252 1.99531 19.7993 2.01527 19.7828C2.44431 19.4136 2.92324 19.4402 3.31079 19.8662C3.38352 19.946 3.40899 19.8928 3.44838 19.8438C3.78132 19.4293 4.43932 19.4802 4.73051 19.6987C4.83643 19.775 4.92281 19.8759 4.98242 19.9929C5.04203 20.1099 5.07315 20.2397 5.07317 20.3714C5.08393 20.8458 5.07684 21.3204 5.07973 21.7951C5.07973 21.881 5.04481 21.9154 4.96157 21.9119C4.87848 21.9075 4.79522 21.9075 4.71213 21.9119C4.6071 21.9183 4.57691 21.8691 4.57796 21.7684C4.5819 21.3958 4.5798 21.0231 4.57796 20.6504C4.57904 20.5971 4.57668 20.5437 4.57087 20.4907C4.52938 20.1622 4.34086 19.9899 4.04153 20.0049C3.7422 20.0198 3.52216 20.2327 3.51481 20.5415C3.50615 20.9051 3.51218 21.269 3.51218 21.6329C3.51218 21.9497 3.53161 21.9079 3.23622 21.9098C3.00621 21.9114 3.00569 21.9098 3.00542 21.6822C3.00542 21.3095 3.00989 20.9368 3.00542 20.5641C2.9986 20.1332 2.70163 19.9146 2.29806 20.0397C2.10848 20.0983 2.00713 20.2415 1.96249 20.4313C1.92468 20.5932 1.93807 20.7582 1.93623 20.9219C1.93308 21.2059 1.93308 21.4898 1.93623 21.7738C1.93623 21.8664 1.91208 21.9132 1.81073 21.9114C1.37486 21.9034 1.44838 21.9686 1.44313 21.5536C1.44129 21.284 1.44391 21.0135 1.44391 20.7428Z" fill="#040404"/>
    <path d="M26.63 20.2782C26.63 20.7704 26.6265 21.2631 26.6321 21.7548C26.6336 21.8786 26.5916 21.9257 26.4724 21.9121C26.4245 21.9071 26.3762 21.9071 26.3283 21.9121C26.2067 21.9238 26.1206 21.9071 26.1392 21.7463C26.1487 21.6635 26.0972 21.6861 26.0604 21.7244C25.754 22.0511 25.1483 22.0282 24.7799 21.7873C24.338 21.4979 24.1429 20.8476 24.3411 20.2936C24.4288 20.0448 24.5985 19.8343 24.8216 19.6977C25.0447 19.5612 25.3075 19.507 25.5655 19.5443C25.7406 19.5661 25.9048 19.6421 26.0358 19.762C26.0599 19.7838 26.0796 19.8291 26.1203 19.8081C26.161 19.787 26.1395 19.7447 26.1397 19.7112C26.1397 19.4096 26.1437 19.108 26.1397 18.8061C26.1382 18.7023 26.1621 18.6567 26.2768 18.6567C26.6302 18.6567 26.6302 18.6517 26.6302 19.0145C26.6311 19.4356 26.631 19.8569 26.63 20.2782ZM25.4799 21.4998C25.8803 21.4966 26.1757 21.1734 26.1736 20.7403C26.1715 20.3229 25.8638 20.0027 25.4673 20.0053C25.0624 20.008 24.7765 20.3248 24.7788 20.7666C24.7815 21.1928 25.0782 21.5032 25.4799 21.4998Z" fill="#040404"/>
    <path d="M21.9993 20.7515C21.9993 21.0882 21.9954 21.4253 22.0014 21.7631C22.0035 21.8818 21.9592 21.9244 21.8473 21.9137C21.7907 21.9092 21.7338 21.9092 21.6772 21.9137C21.5692 21.9212 21.491 21.9119 21.4981 21.7639C21.5036 21.6462 21.4369 21.7152 21.4036 21.7466C21.0184 22.1086 20.2349 22.0439 19.8594 21.5118C19.4043 20.8668 19.6309 19.9273 20.3286 19.6289C20.702 19.4692 21.0722 19.4855 21.3996 19.7666C21.4225 19.786 21.4435 19.8222 21.4752 19.8105C21.5165 19.7953 21.5052 19.7495 21.5015 19.7168C21.4915 19.6154 21.5388 19.5837 21.6328 19.589C21.7157 19.5935 21.7988 19.5935 21.8817 19.589C21.9733 19.5845 22.0025 19.6241 22.0014 19.7155C21.997 20.0599 21.9996 20.4057 21.9993 20.7515ZM20.1406 20.7515C20.1382 21.183 20.4257 21.4969 20.827 21.4993C21.2334 21.5022 21.5283 21.1915 21.5338 20.7539C21.5393 20.3373 21.2358 20.0085 20.8427 20.0037C20.437 19.9992 20.143 20.3136 20.1406 20.752V20.7515Z" fill="#040404"/>
    <path d="M7.89306 20.7446V21.7152C7.89306 21.9095 7.89306 21.9095 7.70926 21.9106C7.66121 21.9106 7.6129 21.9077 7.56485 21.9106C7.45982 21.9186 7.38525 21.9007 7.39969 21.7626C7.40731 21.6891 7.37134 21.6803 7.3141 21.7301C6.96698 22.0317 6.5747 22.037 6.18504 21.8603C5.79539 21.6835 5.5827 21.3422 5.53833 20.911C5.47846 20.3299 5.71819 19.8579 6.19791 19.6399C6.58809 19.4623 6.97196 19.4783 7.31462 19.773C7.33431 19.7898 7.35059 19.8206 7.37869 19.8092C7.41413 19.7948 7.40494 19.756 7.40258 19.7269C7.38867 19.613 7.44223 19.5851 7.54673 19.584C7.89411 19.5808 7.89411 19.5776 7.89464 19.9322C7.89464 20.2025 7.89464 20.4727 7.89464 20.743L7.89306 20.7446ZM6.04089 20.7574C6.04719 21.1998 6.33759 21.5065 6.74379 21.4998C7.14185 21.4935 7.43356 21.1724 7.42647 20.7478C7.41965 20.3094 7.1232 19.9974 6.72068 20.0046C6.31816 20.0118 6.03459 20.3294 6.04089 20.7579V20.7574Z" fill="#040404"/>
    <path d="M14.3369 20.9455C14.0922 20.9455 13.8472 20.9479 13.6017 20.9455C13.4998 20.9455 13.4825 20.9854 13.5119 21.077C13.6109 21.3868 13.9404 21.5756 14.2907 21.5157C14.4514 21.489 14.6073 21.4419 14.7407 21.3434C14.8169 21.2873 14.8665 21.2992 14.9075 21.3807C14.9162 21.396 14.9258 21.4108 14.9363 21.4249C15.1033 21.6767 15.1052 21.6842 14.8381 21.8154C14.4724 21.9954 14.0877 22.0313 13.7038 21.8953C13.2223 21.7254 13.0114 21.3445 12.9668 20.8494C12.904 20.1495 13.3517 19.586 14.0108 19.5375C14.6286 19.4923 15.1188 19.9102 15.1811 20.5382C15.2218 20.9457 15.2218 20.9457 14.8213 20.9455H14.3369ZM14.0948 20.5518C14.2474 20.5518 14.4002 20.5472 14.5527 20.5518C14.6599 20.556 14.6806 20.5134 14.6546 20.4163C14.5816 20.1437 14.3658 19.9778 14.0848 19.9839C13.8039 19.9901 13.5699 20.1764 13.5098 20.4365C13.4909 20.5179 13.5132 20.5525 13.5978 20.5512C13.7634 20.5499 13.9291 20.5518 14.0948 20.5518Z" fill="#040404"/>
    <path d="M9.47609 19.5337C9.75074 19.5387 10.0144 19.5904 10.2638 19.7142C10.3426 19.7536 10.3667 19.7975 10.3163 19.8779C10.262 19.9631 10.2339 20.0802 10.1588 20.134C10.0698 20.1984 9.97996 20.0837 9.88701 20.0576C9.69087 20.0025 9.49499 19.9657 9.2915 19.9969C9.22577 20.0038 9.16269 20.0268 9.1077 20.064C9.04022 20.1135 8.99506 20.1766 9.00084 20.2652C9.00688 20.3589 9.07121 20.4044 9.14866 20.4326C9.33588 20.5005 9.53595 20.4995 9.72816 20.5405C9.84004 20.5616 9.949 20.5964 10.0527 20.644C10.2701 20.7505 10.4072 20.9131 10.4203 21.1674C10.4332 21.4336 10.3326 21.6439 10.111 21.7876C9.80981 21.9827 9.47241 21.9881 9.1337 21.9559C8.90617 21.9345 8.68626 21.8618 8.49013 21.7429C8.40349 21.6896 8.3964 21.6412 8.45022 21.5629C8.50405 21.4847 8.53582 21.3675 8.60961 21.3252C8.69573 21.2757 8.77555 21.3907 8.86272 21.4242C9.11873 21.5225 9.37893 21.5573 9.64781 21.4951C9.68625 21.4868 9.72343 21.4734 9.75835 21.4551C9.84264 21.4093 9.91274 21.3486 9.90644 21.2398C9.90014 21.1309 9.82426 21.0742 9.73236 21.047C9.6355 21.0201 9.537 20.9997 9.43749 20.9858C9.24293 20.9555 9.04705 20.9326 8.86482 20.8485C8.65477 20.7524 8.51088 20.6012 8.48751 20.361C8.46283 20.1076 8.52952 19.8883 8.74299 19.7291C8.96171 19.5654 9.21431 19.534 9.47609 19.5337Z" fill="#040404"/>
    <path d="M11.2359 20.7355C11.2359 20.5492 11.234 20.3628 11.2359 20.1765C11.2359 20.0881 11.2044 20.0415 11.1125 20.0495C11.0994 20.0503 11.0864 20.0503 11.0733 20.0495C10.7396 20.0455 10.7157 20.0146 10.7643 19.6704C10.7732 19.6073 10.8047 19.5882 10.8601 19.5882C10.9389 19.5882 11.0177 19.5813 11.0964 19.5882C11.208 19.5978 11.2422 19.548 11.2377 19.4412C11.2317 19.2951 11.2377 19.1484 11.2353 19.0025C11.2335 18.9168 11.2679 18.8891 11.3519 18.8867C11.7282 18.8761 11.7279 18.8737 11.7271 19.2594C11.7271 19.589 11.7271 19.589 12.0538 19.5887C12.1851 19.5887 12.3163 19.5887 12.4476 19.5887C12.518 19.5887 12.5548 19.618 12.5503 19.692C12.5503 19.7008 12.5503 19.7096 12.5503 19.7186C12.5445 20.1195 12.607 20.0474 12.2336 20.0516C12.1023 20.0532 11.9711 20.0546 11.8398 20.0516C11.7547 20.0498 11.7248 20.0865 11.7256 20.1717C11.7292 20.4688 11.724 20.7656 11.7282 21.0627C11.7337 21.4409 11.912 21.5684 12.2767 21.4668C12.3534 21.4455 12.4342 21.3552 12.5022 21.409C12.5548 21.4503 12.5653 21.5501 12.5913 21.6249C12.6572 21.8141 12.6537 21.8173 12.4652 21.8911C12.2675 21.9655 12.055 21.99 11.8458 21.9627C11.4811 21.9206 11.2624 21.6797 11.2419 21.2972C11.2322 21.1108 11.2403 20.9245 11.2403 20.7382L11.2359 20.7355Z" fill="#040404"/>
    <path d="M18.5546 21.9691C18.0588 21.9627 17.6492 21.7881 17.4407 21.3036C17.2323 20.8191 17.2737 20.3493 17.6111 19.9303C17.7745 19.7274 17.9979 19.6124 18.2497 19.5656C18.6084 19.4985 18.9545 19.5241 19.2706 19.7365C19.3494 19.7897 19.3709 19.8368 19.31 19.917C19.2491 19.9971 19.2252 20.1331 19.1335 20.1728C19.0419 20.2125 18.9555 20.1041 18.8633 20.0684C18.4976 19.9268 18.1205 20.0368 17.9404 20.3445C17.7535 20.6639 17.8196 21.1109 18.088 21.3414C18.3167 21.5379 18.6738 21.561 18.9862 21.3773C19.1102 21.3047 19.1734 21.3241 19.2241 21.4476C19.2298 21.4596 19.2363 21.4712 19.2435 21.4822C19.383 21.7261 19.3796 21.7431 19.1178 21.8602C18.9415 21.9421 18.7482 21.9795 18.5546 21.9691Z" fill="#040404"/>
    <path d="M15.7168 20.7441C15.7168 20.4026 15.7195 20.0611 15.715 19.7195C15.715 19.6224 15.7412 19.5787 15.8416 19.5864C15.9027 19.5919 15.9642 19.5919 16.0254 19.5864C16.1432 19.5758 16.2262 19.5987 16.2055 19.7461C16.2026 19.7666 16.2018 19.7935 16.226 19.8042C16.259 19.8183 16.2722 19.7871 16.2879 19.7688C16.498 19.5236 16.765 19.4996 17.0559 19.5603C17.1347 19.5771 17.1757 19.6117 17.1347 19.698C17.1268 19.7186 17.1199 19.7397 17.1142 19.7611C17.0819 19.8526 17.0722 19.9692 17.0092 20.0273C16.9462 20.0853 16.8375 20.0137 16.7466 20.0078C16.4544 19.9889 16.2477 20.158 16.2215 20.4604C16.1895 20.8541 16.2123 21.2494 16.2094 21.6442C16.2068 21.946 16.2307 21.9061 15.9492 21.908C15.7129 21.9096 15.7129 21.908 15.7129 21.6721C15.7129 21.3614 15.7129 21.0508 15.7129 20.7404L15.7168 20.7441Z" fill="#040404"/>
    <path d="M23.1762 19.8038C23.2169 19.8017 23.2319 19.766 23.255 19.7418C23.4748 19.5195 23.7389 19.5003 24.0227 19.5685C24.0897 19.5845 24.1068 19.6244 24.0829 19.687C24.0813 19.6909 24.0803 19.6955 24.0789 19.6995C24.044 19.8059 24.0325 19.9279 23.9687 20.0096C23.8928 20.1065 23.7736 20.0096 23.673 20.0096C23.36 20.0096 23.1636 20.2042 23.1586 20.5524C23.1531 20.9469 23.1571 21.3417 23.1565 21.7364C23.1565 21.9087 23.155 21.91 22.9916 21.9111C22.6668 21.9127 22.6663 21.9127 22.6658 21.5802C22.6658 20.9637 22.6658 20.3474 22.6621 19.7309C22.6621 19.6191 22.7007 19.5752 22.8073 19.5874C22.8246 19.5893 22.8422 19.5874 22.8598 19.5874C22.9428 19.5893 23.0305 19.5744 23.1074 19.5972C23.2069 19.6263 23.1103 19.7476 23.1762 19.8038Z" fill="#040404"/>
    </svg>
    