<svg width="40" height="31" viewBox="0 0 40 31" fill="none" xmlns="http://www.w3.org/2000/svg">
    <path d="M26.1554 29.9979H18.0528C14.3187 30.0042 10.7163 28.6187 7.94871 26.112C5.18112 23.6052 3.447 20.157 3.08483 16.4405C2.30332 8.57277 7.87207 1.41031 15.7091 0.183714C16.736 0.0355107 17.7737 -0.0231196 18.8107 0.00848556C20.4596 0.0391505 22.1102 -0.079128 23.7556 0.104862C25.3957 0.294994 26.9938 0.751628 28.4868 1.45675C28.8556 1.63198 28.6822 1.77566 28.528 1.97192C26.1773 4.9508 27.4477 9.32625 31.0276 10.5441C32.6739 11.1048 34.2562 10.9086 35.7272 9.9816C36.0689 9.76607 36.1653 9.82302 36.2774 10.1866C37.9421 15.6047 37.0011 20.5041 33.3634 24.8602C33.0865 25.1914 33.0795 25.3684 33.3634 25.6856C34.1782 26.6011 34.951 27.5544 35.7474 28.4892C36.0102 28.7976 36.1855 29.1227 35.998 29.5248C35.8105 29.927 35.4574 30.0049 35.0482 30.0041C32.0834 29.9953 29.1191 29.9933 26.1554 29.9979ZM20.0224 15.8044H26.8519C27.6404 15.8044 28.0189 15.546 28.026 15.0159C28.033 14.4858 27.651 14.202 26.8712 14.202H13.2139C13.0536 14.1952 12.893 14.2016 12.7338 14.2213C12.3378 14.2861 12.1126 14.5402 12.0714 14.9283C12.0302 15.3164 12.2265 15.6126 12.5901 15.7492C12.7601 15.8132 12.9633 15.8018 13.1517 15.8018C15.4431 15.8053 17.7345 15.8062 20.0259 15.8044H20.0224ZM19.9979 10.2847H23.8923C24.3155 10.2847 24.7387 10.2935 25.1618 10.2847C25.6507 10.269 25.981 9.94919 25.9933 9.50498C26.0073 9.04238 25.6726 8.70594 25.1636 8.67615C25.0182 8.66739 24.8718 8.67615 24.7255 8.67615H16.2795C15.8125 8.67615 15.3447 8.65863 14.8777 8.68404C14.2784 8.71821 13.9201 9.28244 14.1531 9.80287C14.3284 10.1849 14.6508 10.2961 15.0494 10.2944C16.708 10.2795 18.3525 10.283 20.0014 10.2839L19.9979 10.2847ZM20.0478 19.7217H15.5401C15.335 19.7217 15.1309 19.7147 14.9268 19.7217C14.437 19.7427 14.1084 20.0546 14.0953 20.5014C14.0813 20.9658 14.4133 21.2996 14.9233 21.332C15.0249 21.3381 15.1274 21.332 15.2299 21.332C18.4395 21.332 21.6488 21.332 24.8578 21.332C25.0182 21.3393 25.1789 21.3319 25.3379 21.3101C25.5255 21.2785 25.6954 21.1801 25.8161 21.0331C25.9369 20.8861 26.0004 20.7004 25.9951 20.5102C25.9917 20.318 25.9189 20.1336 25.79 19.991C25.6611 19.8485 25.485 19.7575 25.2941 19.7348C25.1634 19.7221 25.032 19.7186 24.9007 19.7243L20.0478 19.7217Z" fill="#EDEDED"/>
    <path d="M28.7813 5.52842C28.783 4.76519 29.0113 4.01966 29.4372 3.38628C29.863 2.75291 30.4673 2.2602 31.1735 1.97058C31.8796 1.68096 32.6558 1.60747 33.4038 1.75942C34.1517 1.91137 34.8377 2.28192 35.3749 2.82412C35.9121 3.36632 36.2762 4.05577 36.4212 4.80511C36.5661 5.55445 36.4854 6.32995 36.1892 7.03336C35.893 7.73677 35.3946 8.33643 34.7573 8.75635C34.12 9.17628 33.3724 9.39758 32.6091 9.3922C32.1041 9.3899 31.6044 9.28814 31.1387 9.09271C30.673 8.89728 30.2503 8.61202 29.8949 8.25322C29.5394 7.89443 29.2581 7.46912 29.067 7.00159C28.876 6.53406 28.7789 6.03347 28.7813 5.52842Z" fill="#FF5600"/>
    </svg>
    