<svg width="36" height="31" viewBox="0 0 36 31" fill="none" xmlns="http://www.w3.org/2000/svg">
<path d="M24.1168 29.998H16.0143C12.2802 30.0043 8.67773 28.6189 5.91014 26.1121C3.14254 23.6053 1.40842 20.1571 1.04626 16.4406C0.264742 8.57289 5.83349 1.41043 13.6706 0.183836C14.6974 0.0356328 15.7351 -0.0229975 16.7721 0.00860763C18.421 0.0392726 20.0717 -0.079006 21.7171 0.104984C23.3572 0.295116 24.9552 0.75175 26.4482 1.45687C26.8171 1.6321 26.6436 1.77578 26.4894 1.97204C24.1387 4.95092 25.4091 9.32637 28.989 10.5442C30.6353 11.1049 32.2176 10.9087 33.6886 9.98172C34.0303 9.76619 34.1267 9.82314 34.2389 10.1867C35.9035 15.6048 34.9626 20.5042 31.3248 24.8604C31.048 25.1915 31.041 25.3685 31.3248 25.6857C32.1396 26.6013 32.9124 27.5545 33.7088 28.4893C33.9717 28.7977 34.1469 29.1228 33.9594 29.5249C33.7719 29.9271 33.4188 30.0051 33.0096 30.0042C30.0448 29.9954 27.0805 29.9934 24.1168 29.998ZM17.9838 15.8046H24.8133C25.6019 15.8046 25.9804 15.5461 25.9874 15.016C25.9944 14.486 25.6124 14.2021 24.8326 14.2021H11.1753C11.015 14.1953 10.8544 14.2018 10.6952 14.2214C10.2992 14.2862 10.074 14.5403 10.0328 14.9284C9.99166 15.3165 10.1879 15.6127 10.5515 15.7494C10.7215 15.8133 10.9247 15.8019 11.1131 15.8019C13.4045 15.8054 15.6959 15.8063 17.9873 15.8046H17.9838ZM17.9593 10.2849H21.8537C22.2769 10.2849 22.7001 10.2936 23.1233 10.2849C23.6122 10.2691 23.9425 9.94931 23.9547 9.50511C23.9687 9.0425 23.6341 8.70606 23.125 8.67627C22.9796 8.66751 22.8333 8.67627 22.6869 8.67627H14.2409C13.774 8.67627 13.3061 8.65875 12.8391 8.68416C12.2398 8.71833 11.8815 9.28256 12.1146 9.80299C12.2898 10.185 12.6122 10.2963 13.0108 10.2945C14.6694 10.2796 16.3139 10.2831 17.9628 10.284L17.9593 10.2849ZM18.0092 19.7218H13.5015C13.2965 19.7218 13.0923 19.7148 12.8882 19.7218C12.3984 19.7428 12.0699 20.0547 12.0567 20.5016C12.0427 20.9659 12.3748 21.2997 12.8847 21.3321C12.9863 21.3383 13.0888 21.3321 13.1913 21.3321C16.4009 21.3321 19.6102 21.3321 22.8192 21.3321C22.9796 21.3394 23.1403 21.332 23.2994 21.3102C23.487 21.2786 23.6568 21.1802 23.7776 21.0332C23.8983 20.8862 23.9619 20.7005 23.9565 20.5103C23.9532 20.3182 23.8803 20.1337 23.7514 19.9912C23.6226 19.8486 23.4464 19.7576 23.2556 19.7349C23.1248 19.7222 22.9934 19.7187 22.8622 19.7244L18.0092 19.7218Z" fill="#EDEDED"/>
</svg>
