<svg width="46" height="46" viewBox="0 0 46 46" fill="none" xmlns="http://www.w3.org/2000/svg">
    <path d="M18.208 17.8726V28.1268C18.208 28.8615 18.5434 29.4205 19.2143 29.8038C19.8851 30.1872 20.54 30.1552 21.1788 29.708L29.133 24.6288C29.74 24.2455 30.0434 23.7025 30.0434 22.9997C30.0434 22.2969 29.74 21.7538 29.133 21.3705L21.1788 16.2913C20.54 15.8441 19.8851 15.8122 19.2143 16.1955C18.5434 16.5788 18.208 17.1379 18.208 17.8726ZM22.9997 42.1663C20.3483 42.1663 17.8566 41.6629 15.5247 40.656C13.1927 39.6504 11.1643 38.2851 9.43926 36.5601C7.71426 34.8351 6.34895 32.8066 5.34334 30.4747C4.33645 28.1427 3.83301 25.6511 3.83301 22.9997C3.83301 20.3483 4.33645 17.8566 5.34334 15.5247C6.34895 13.1927 7.71426 11.1643 9.43926 9.43926C11.1643 7.71426 13.1927 6.34831 15.5247 5.34142C17.8566 4.33581 20.3483 3.83301 22.9997 3.83301C25.6511 3.83301 28.1427 4.33581 30.4747 5.34142C32.8066 6.34831 34.8351 7.71426 36.5601 9.43926C38.2851 11.1643 39.6504 13.1927 40.656 15.5247C41.6629 17.8566 42.1663 20.3483 42.1663 22.9997C42.1663 25.6511 41.6629 28.1427 40.656 30.4747C39.6504 32.8066 38.2851 34.8351 36.5601 36.5601C34.8351 38.2851 32.8066 39.6504 30.4747 40.656C28.1427 41.6629 25.6511 42.1663 22.9997 42.1663Z" fill="#EDEDED"/>
    </svg>
    