<svg width="51" height="51" viewBox="0 0 51 51" fill="none" xmlns="http://www.w3.org/2000/svg">
    <path d="M27.0231 49.1902C26.3761 49.7519 25.5947 49.9712 24.722 49.6188C23.8267 49.2559 23.4087 48.5436 23.3546 47.5971C23.3503 47.5271 23.3529 47.4563 23.3533 47.386L23.3486 3.4726C23.3486 2.3133 23.9009 1.50587 24.9054 1.19067C26.1377 0.802102 27.4569 1.62488 27.657 2.90745C27.6891 3.11576 27.705 3.32624 27.7047 3.53701C27.7047 10.0021 27.7 16.4667 27.6907 22.9309C27.6898 23.1979 27.7448 23.2768 28.028 23.2759C34.5235 23.2637 41.0179 23.2572 47.5111 23.2563C48.661 23.2555 49.4812 23.8377 49.7887 24.8652C50.1483 26.0659 49.3085 27.3885 48.0681 27.5668C47.8494 27.5977 47.6287 27.6131 47.4078 27.6129C40.9533 27.6126 34.4992 27.6079 28.0455 27.5988C27.7525 27.5984 27.6881 27.6679 27.6881 27.9563C27.7018 34.4327 27.708 40.9074 27.7069 47.3804C27.7077 48.0535 27.526 48.6472 27.0231 49.1902Z" fill="#EDEDED"/>
    <path d="M1.74238 26.8947C1.20922 26.307 1.00961 25.5392 1.32438 24.6896C1.61869 23.8937 2.20688 23.4164 3.06207 23.3016C3.26104 23.2754 3.4615 23.2622 3.66219 23.262C8.7379 23.2614 13.8137 23.2598 18.8897 23.2573C19.1529 23.2569 19.2467 23.3063 19.2429 23.5959C19.2246 24.8418 19.2263 26.0865 19.2412 27.3349C19.2433 27.5657 19.1781 27.613 18.9567 27.6134C13.8105 27.6066 8.66468 27.6056 3.51931 27.6104C2.868 27.61 2.29047 27.4326 1.74238 26.8947Z" fill="#EDEDED"/>
    </svg>
    