<svg width="151" height="151" viewBox="0 0 151 151" fill="none" xmlns="http://www.w3.org/2000/svg">
    <path d="M102.217 150.199H55.5222C55.2838 150.199 55.0442 150.184 54.8071 150.199C54.217 150.239 54.1298 149.968 54.2092 149.469C54.6325 146.828 55.0155 144.182 55.4362 141.542C55.8049 139.228 56.2178 136.922 56.5851 134.609C56.9681 132.215 57.325 129.816 57.691 127.419C58.1039 124.713 58.4986 122.005 58.78 119.283C59.1212 115.974 59.2867 112.659 58.8659 109.354C58.311 104.99 56.3024 101.245 53.3182 97.9314C50.1634 94.4283 46.5019 91.449 42.7973 88.5107C38.1081 84.7948 33.3237 81.2009 28.5901 77.5423C27.4413 76.6554 26.7105 75.3828 25.8977 74.2147C22.6296 69.5148 20.1065 64.4369 17.7123 59.2954C15.399 54.3281 13.3318 49.2663 11.361 44.1697C9.84087 40.2349 8.37416 36.2815 6.99864 32.2945C5.77813 28.7628 4.50161 25.2485 3.24853 21.7205C2.38622 19.2948 1.42492 16.8951 0.675939 14.4394C-0.90148 9.29304 1.01591 4.34069 6.14676 1.64371C8.65031 0.327563 11.3375 -0.0978833 14.1355 0.415887C17.0623 0.957025 19.3106 2.52321 20.9974 4.85819C22.0499 6.33482 22.6296 8.00301 23.2639 9.65379C24.2122 12.1418 25.1618 14.6223 26.0918 17.1178C27.014 19.5896 27.9154 22.0689 28.8272 24.5457C29.7503 27.0602 30.673 29.5751 31.5952 32.0905C32.3989 34.311 33.1804 36.5452 34.0076 38.7633C35.021 41.4889 36.063 44.2045 37.0986 46.9226C37.9878 49.2539 38.9925 51.5391 40.1127 53.7783C41.9615 57.4933 44.6377 60.7777 47.9542 63.4018C52.3726 66.9124 57.1296 69.995 61.7459 73.2481C64.6194 75.277 67.4525 77.3533 70.3429 79.366C73.712 81.7289 77.3177 83.7674 81.1074 85.4517C83.9312 86.7163 86.9094 87.6391 89.9727 88.1984C92.9687 88.7283 95.9646 88.8353 98.9722 88.3962C102.104 87.9359 105.123 86.9347 107.879 85.4417C109.674 84.4776 109.653 84.495 111.499 85.4255C118.812 89.1053 124.655 94.3823 129.67 100.575C133.233 104.974 136.213 109.72 138.788 114.7C140.571 118.147 142.156 121.683 143.536 125.294C144.695 128.322 145.724 131.391 146.623 134.5C147.412 137.212 148.115 139.942 148.735 142.69C149.243 144.956 149.631 147.245 150.081 149.522C150.187 150.055 149.972 150.205 149.43 150.204C145.392 150.188 141.354 150.195 137.316 150.195L102.217 150.199Z" fill="#EDEDED"/>
    <path d="M93.3272 78.7321C85.9867 78.7047 79.5516 76.3826 74.0217 71.7657C70.0996 68.4965 67.3056 64.4871 65.5289 59.8358C64.083 56.0515 63.5633 52.123 63.8147 48.1049C64.1838 42.2225 66.2306 36.9297 69.9551 32.2265C72.6997 28.7373 76.2589 25.9077 80.3496 23.9627C82.7348 22.8285 85.2728 22.0151 87.8915 21.5456C94.5964 20.3055 101.545 21.3818 107.495 24.5822C113.01 27.579 117.164 31.8185 119.87 37.2834C122.38 42.3527 123.337 47.6956 122.62 53.3011C121.631 61.0138 118.036 67.3682 111.834 72.364C109.128 74.5436 106.015 76.2135 102.658 77.2853C99.6447 78.2693 96.5341 78.8042 93.3272 78.7321Z" fill="#EDEDED"/>
    </svg>
    