<svg width="40" height="41" viewBox="0 0 40 41" fill="none" xmlns="http://www.w3.org/2000/svg">
<path d="M15.0004 30.0121C6.77596 30.0505 0.0130702 23.2937 0.00196689 15.0227C-0.00913637 6.75182 6.69622 0.0363628 14.9722 0.003053C23.2027 -0.0302568 29.9313 6.68924 29.9798 14.9904C30.0282 23.1968 23.2704 29.9728 15.0004 30.0121ZM14.9914 27.1132C18.2202 27.1132 21.3167 25.8305 23.5998 23.5474C25.8829 21.2643 27.1656 18.1678 27.1656 14.939C27.1656 11.7102 25.8829 8.61359 23.5998 6.33048C21.3167 4.04737 18.2202 2.76474 14.9914 2.76474C8.29812 2.76474 2.83229 8.21543 2.80705 14.9299C2.80158 16.5314 3.11302 18.1182 3.72341 19.5989C4.33381 21.0796 5.2311 22.4249 6.36362 23.5573C7.49614 24.6897 8.84151 25.5869 10.3222 26.1972C11.803 26.8075 13.3898 27.1188 14.9914 27.1132Z" fill="#EDEDED"/>
<path d="M39.9989 38.6278C39.9986 38.8709 39.9339 39.1096 39.8114 39.3196C39.6889 39.5296 39.513 39.7034 39.3016 39.8234C39.0901 39.9434 38.8507 40.0052 38.6076 40.0027C38.3645 40.0001 38.1264 39.9332 37.9175 39.8088C37.7169 39.6864 37.5327 39.5389 37.3694 39.3697C33.8702 35.8793 30.3754 32.3864 26.8849 28.8913C26.456 28.4633 26.1864 27.9959 26.3459 27.3631C26.4007 27.1426 26.5091 26.9391 26.6615 26.7707C26.8139 26.6023 27.0056 26.4741 27.2195 26.3977C27.4334 26.3213 27.6629 26.2989 27.8875 26.3326C28.1122 26.3663 28.325 26.455 28.507 26.5909C28.6391 26.6949 28.7633 26.8086 28.8785 26.931C32.3972 30.4477 35.9156 33.9648 39.4337 37.4822C39.7667 37.8142 40.0241 38.1706 39.9989 38.6278Z" fill="#EDEDED"/>
</svg>
