<svg width="163" height="121" viewBox="0 0 163 121" fill="none" xmlns="http://www.w3.org/2000/svg">
    <path d="M71.0767 0.429688C90.8188 0.429688 110.551 0.429688 130.273 0.429688C132.315 0.429688 134.398 0.429688 136.277 1.32319C139.759 2.98255 141.5 5.91835 141.515 9.7017C141.577 26.04 141.515 42.3784 141.582 58.6912C141.582 60.9786 140.249 60.7335 138.692 60.6263C123.814 59.5438 110.83 67.3403 105.081 80.9369C102.043 87.9607 101.68 95.8532 104.06 103.126C104.749 105.306 104.06 105.572 102.171 105.572C71.4647 105.541 40.7606 105.528 10.0581 105.531C4.48774 105.531 0.837132 101.957 0.607374 96.3408C0.479731 93.114 0.551187 89.8821 0.551187 86.64C0.551187 61.4517 0.551187 36.2753 0.551187 11.1109C0.551187 6.88844 1.60807 3.36549 5.65692 1.37936C7.53072 0.46033 9.59346 0.429688 11.646 0.429688H71.0767ZM69.4224 51.3696C70.5094 51.2099 71.5452 50.8029 72.4501 50.1799C85.3846 42.552 98.3362 34.9359 111.305 27.3318C114.741 25.2895 118.182 23.2932 121.593 21.2049C123.124 20.2706 124.013 18.938 123.007 17.1561C122.001 15.3742 120.5 14.9912 118.703 16.1349C118.192 16.4515 117.682 16.717 117.171 17.0182C102.099 25.8766 87.0065 34.7096 71.9753 43.6446C70.1883 44.7066 68.9118 44.6657 67.181 43.5476C59.1752 38.4419 51.0775 33.4331 43.0105 28.404C36.4547 24.3194 29.8972 20.2348 23.3381 16.1502C22.2352 15.461 21.1835 15.221 20.0245 16.0175C19.589 16.2888 19.2345 16.6723 18.9982 17.1277C18.762 17.5832 18.6526 18.0938 18.6816 18.6061C18.748 20.1378 19.8764 20.9496 21.0558 21.6695C36.322 31.2002 51.5864 40.7309 66.8491 50.2616C67.6249 50.798 68.4996 51.1746 69.4224 51.3696Z" fill="#EDEDED"/>
    <path d="M162.419 93.3539C162.456 96.908 161.786 100.434 160.446 103.726C159.107 107.019 157.126 110.011 154.618 112.53C152.11 115.049 149.126 117.043 145.84 118.397C142.553 119.75 139.03 120.436 135.476 120.414C120.634 120.414 108.492 108.314 108.467 93.5479C108.406 89.9755 109.055 86.4267 110.377 83.1073C111.699 79.7879 113.667 76.7642 116.167 74.2116C118.667 71.659 121.65 69.6285 124.941 68.2378C128.232 66.8471 131.767 66.1241 135.339 66.1105C138.912 66.097 142.452 66.7933 145.754 68.159C149.056 69.5248 152.053 71.5326 154.572 74.0662C157.092 76.5998 159.082 79.6086 160.429 82.9178C161.777 86.2271 162.453 89.771 162.419 93.3437V93.3539ZM138.381 87.564C138.381 84.6742 138.381 81.7894 138.381 78.8843C138.381 77.0411 137.636 75.7034 135.573 75.6779C133.419 75.6523 132.54 77.0054 132.51 78.9507C132.469 84.6487 132.469 90.3433 132.51 96.0344C132.51 97.9083 133.485 99.2102 135.389 99.2715C137.483 99.3378 138.381 97.9695 138.381 95.963C138.386 93.1752 138.381 90.3722 138.381 87.564ZM138.33 108.498C138.218 106.721 137.375 105.613 135.532 105.592C133.689 105.572 132.648 106.711 132.617 108.401C132.586 110.091 133.638 111.26 135.435 111.301C137.232 111.341 138.167 110.285 138.33 108.518V108.498Z" fill="#EDEDED"/>
    </svg>
    