<svg width="120" height="120" viewBox="0 0 120 120" fill="none" xmlns="http://www.w3.org/2000/svg">
<path d="M120 60C120 70.7453 117.114 81.2935 111.645 90.5425C106.175 99.7915 98.3214 107.402 88.9052 112.578C79.489 117.755 68.8554 120.308 58.1154 119.97C47.3753 119.633 36.923 116.417 27.8504 110.66L34.2803 100.528C41.5384 105.134 49.9003 107.706 58.4923 107.976C67.0843 108.246 75.5912 106.204 83.1242 102.063C90.6572 97.9214 96.9398 91.8332 101.316 84.434C105.691 77.0348 108 68.5963 108 60H120Z" fill="#FF5600"/>
<path d="M78.541 2.93661C89.9798 6.6533 100.038 13.722 107.409 23.2256C114.781 32.7291 119.126 44.2288 119.882 56.2325L107.905 56.986C107.301 47.3831 103.825 38.1833 97.9274 30.5805C92.0301 22.9776 83.9839 17.3226 74.8328 14.3493L78.541 2.93661Z" fill="#FF8001"/>
<path d="M0 60C7.99937e-07 50.8498 2.09281 41.8208 6.11835 33.6036C10.1439 25.3865 15.9955 18.1989 23.2256 12.5907C30.4557 6.98245 38.8727 3.10216 47.8328 1.24662C56.7929 -0.608919 66.0587 -0.390549 74.9215 1.88503L71.9372 13.508C64.847 11.6876 57.4343 11.5129 50.2662 12.9973C43.0982 14.4817 36.3646 17.586 30.5805 22.0725C24.7964 26.5591 20.1151 32.3092 16.8947 38.8829C13.6743 45.4566 12 52.6798 12 60H0Z" fill="#10788E"/>
<path d="M24.7329 108.541C17.5876 103.35 11.6765 96.6448 7.4216 88.9052C3.16671 81.1656 0.672967 72.5821 0.118396 63.7674L12.0947 63.0139C12.5384 70.0657 14.5334 76.9325 17.9373 83.1242C21.3412 89.3159 26.0701 94.6797 31.7863 98.8328L24.7329 108.541Z" fill="#EDEDED"/>
<path d="M36.3402 65.1392C35.9193 65.1359 35.5083 65.0514 35.1072 64.8857C34.7062 64.7166 34.3449 64.4465 34.0234 64.0753C33.7019 63.7008 33.4467 63.2069 33.2578 62.5938C33.0689 61.9806 32.9744 61.2266 32.9744 60.3317C32.9744 59.5031 33.0473 58.7441 33.1932 58.0547C33.339 57.3653 33.5578 56.7687 33.8494 56.2649C34.1411 55.7611 34.5057 55.3717 34.9432 55.0966C35.3807 54.8182 35.8928 54.679 36.4794 54.679C37.0296 54.679 37.5152 54.7933 37.9361 55.022C38.357 55.2474 38.6984 55.5623 38.9602 55.9666C39.2221 56.371 39.3861 56.8366 39.4524 57.3636H38.5376C38.4448 56.8267 38.2244 56.3842 37.8764 56.0362C37.5284 55.6882 37.0627 55.5142 36.4794 55.5142C35.6442 55.5142 34.9979 55.902 34.5405 56.6776C34.0831 57.4498 33.8527 58.5469 33.8494 59.9688H33.9141C34.0765 59.6671 34.2853 59.407 34.5405 59.1882C34.799 58.9661 35.0923 58.7938 35.4205 58.6712C35.7486 58.5452 36.0933 58.4822 36.4545 58.4822C37.0213 58.4822 37.54 58.6264 38.0107 58.9148C38.4813 59.1998 38.8575 59.5926 39.1392 60.093C39.4209 60.5902 39.5618 61.1586 39.5618 61.7983C39.5618 62.4048 39.4276 62.9633 39.1591 63.4737C38.8939 63.9841 38.5194 64.3902 38.0355 64.6918C37.5549 64.9934 36.9898 65.1425 36.3402 65.1392ZM36.3402 64.304C36.7843 64.304 37.1804 64.1913 37.5284 63.9659C37.8797 63.7405 38.1565 63.4389 38.3587 63.0611C38.5608 62.6799 38.6619 62.259 38.6619 61.7983C38.6619 61.3376 38.5608 60.92 38.3587 60.5455C38.1565 60.1709 37.8797 59.8726 37.5284 59.6506C37.1804 59.4285 36.7843 59.3175 36.3402 59.3175C36.0021 59.3175 35.6873 59.3871 35.3956 59.5263C35.1039 59.6622 34.8504 59.8494 34.6349 60.0881C34.4228 60.3234 34.2604 60.5935 34.1477 60.8984C34.0384 61.2034 33.9969 61.5232 34.0234 61.858C34.0599 62.3253 34.1809 62.7446 34.3864 63.1158C34.5952 63.4837 34.867 63.7737 35.2017 63.9858C35.5398 64.1979 35.9193 64.304 36.3402 64.304ZM44.8267 65.1392C44.1108 65.1392 43.4993 64.9337 42.9922 64.5227C42.4884 64.1084 42.1006 63.5102 41.8288 62.728C41.5604 61.9458 41.4261 61.0062 41.4261 59.9091C41.4261 58.8153 41.5604 57.879 41.8288 57.1001C42.1006 56.3179 42.4901 55.7197 42.9972 55.3054C43.5076 54.8878 44.1174 54.679 44.8267 54.679C45.536 54.679 46.1442 54.8878 46.6513 55.3054C47.1617 55.7197 47.5511 56.3179 47.8196 57.1001C48.0914 57.879 48.2273 58.8153 48.2273 59.9091C48.2273 61.0062 48.0914 61.9458 47.8196 62.728C47.5511 63.5102 47.1634 64.1084 46.6562 64.5227C46.1525 64.9337 45.5426 65.1392 44.8267 65.1392ZM44.8267 64.304C45.6122 64.304 46.2254 63.9212 46.6662 63.1555C47.107 62.3866 47.3274 61.3045 47.3274 59.9091C47.3274 58.9811 47.2263 58.1889 47.0241 57.5327C46.8253 56.8731 46.5386 56.3693 46.1641 56.0213C45.7929 55.6733 45.3471 55.4993 44.8267 55.4993C44.0478 55.4993 43.4363 55.8871 42.9922 56.6626C42.5481 57.4349 42.326 58.517 42.326 59.9091C42.326 60.8371 42.4254 61.6293 42.6243 62.2855C42.8265 62.9418 43.1132 63.4422 43.4844 63.7869C43.8589 64.1316 44.3063 64.304 44.8267 64.304ZM57.3501 65.1392C56.6342 65.1392 56.0227 64.9337 55.5156 64.5227C55.0118 64.1084 54.6241 63.5102 54.3523 62.728C54.0838 61.9458 53.9496 61.0062 53.9496 59.9091C53.9496 58.8153 54.0838 57.879 54.3523 57.1001C54.6241 56.3179 55.0135 55.7197 55.5206 55.3054C56.031 54.8878 56.6409 54.679 57.3501 54.679C58.0594 54.679 58.6676 54.8878 59.1747 55.3054C59.6851 55.7197 60.0746 56.3179 60.343 57.1001C60.6148 57.879 60.7507 58.8153 60.7507 59.9091C60.7507 61.0062 60.6148 61.9458 60.343 62.728C60.0746 63.5102 59.6868 64.1084 59.1797 64.5227C58.6759 64.9337 58.0661 65.1392 57.3501 65.1392ZM57.3501 64.304C58.1357 64.304 58.7488 63.9212 59.1896 63.1555C59.6304 62.3866 59.8509 61.3045 59.8509 59.9091C59.8509 58.9811 59.7498 58.1889 59.5476 57.5327C59.3487 56.8731 59.062 56.3693 58.6875 56.0213C58.3163 55.6733 57.8705 55.4993 57.3501 55.4993C56.5713 55.4993 55.9598 55.8871 55.5156 56.6626C55.0715 57.4349 54.8494 58.517 54.8494 59.9091C54.8494 60.8371 54.9489 61.6293 55.1477 62.2855C55.3499 62.9418 55.6366 63.4422 56.0078 63.7869C56.3823 64.1316 56.8298 64.304 57.3501 64.304ZM65.9361 65.1392C65.2202 65.1392 64.6087 64.9337 64.1016 64.5227C63.5978 64.1084 63.21 63.5102 62.9382 62.728C62.6697 61.9458 62.5355 61.0062 62.5355 59.9091C62.5355 58.8153 62.6697 57.879 62.9382 57.1001C63.21 56.3179 63.5994 55.7197 64.1065 55.3054C64.617 54.8878 65.2268 54.679 65.9361 54.679C66.6454 54.679 67.2536 54.8878 67.7607 55.3054C68.2711 55.7197 68.6605 56.3179 68.929 57.1001C69.2008 57.879 69.3366 58.8153 69.3366 59.9091C69.3366 61.0062 69.2008 61.9458 68.929 62.728C68.6605 63.5102 68.2727 64.1084 67.7656 64.5227C67.2618 64.9337 66.652 65.1392 65.9361 65.1392ZM65.9361 64.304C66.7216 64.304 67.3348 63.9212 67.7756 63.1555C68.2164 62.3866 68.4368 61.3045 68.4368 59.9091C68.4368 58.9811 68.3357 58.1889 68.1335 57.5327C67.9347 56.8731 67.648 56.3693 67.2734 56.0213C66.9022 55.6733 66.4564 55.4993 65.9361 55.4993C65.1572 55.4993 64.5457 55.8871 64.1016 56.6626C63.6574 57.4349 63.4354 58.517 63.4354 59.9091C63.4354 60.8371 63.5348 61.6293 63.7337 62.2855C63.9358 62.9418 64.2225 63.4422 64.5938 63.7869C64.9683 64.1316 65.4157 64.304 65.9361 64.304ZM74.522 65.1392C73.8061 65.1392 73.1946 64.9337 72.6875 64.5227C72.1837 64.1084 71.7959 63.5102 71.5241 62.728C71.2557 61.9458 71.1214 61.0062 71.1214 59.9091C71.1214 58.8153 71.2557 57.879 71.5241 57.1001C71.7959 56.3179 72.1854 55.7197 72.6925 55.3054C73.2029 54.8878 73.8127 54.679 74.522 54.679C75.2313 54.679 75.8395 54.8878 76.3466 55.3054C76.857 55.7197 77.2464 56.3179 77.5149 57.1001C77.7867 57.879 77.9226 58.8153 77.9226 59.9091C77.9226 61.0062 77.7867 61.9458 77.5149 62.728C77.2464 63.5102 76.8587 64.1084 76.3516 64.5227C75.8478 64.9337 75.2379 65.1392 74.522 65.1392ZM74.522 64.304C75.3075 64.304 75.9207 63.9212 76.3615 63.1555C76.8023 62.3866 77.0227 61.3045 77.0227 59.9091C77.0227 58.9811 76.9216 58.1889 76.7195 57.5327C76.5206 56.8731 76.2339 56.3693 75.8594 56.0213C75.4882 55.6733 75.0424 55.4993 74.522 55.4993C73.7431 55.4993 73.1316 55.8871 72.6875 56.6626C72.2434 57.4349 72.0213 58.517 72.0213 59.9091C72.0213 60.8371 72.1207 61.6293 72.3196 62.2855C72.5218 62.9418 72.8085 63.4422 73.1797 63.7869C73.5542 64.1316 74.0017 64.304 74.522 64.304ZM82.9489 63.071V56.772H83.799V63.071H82.9489ZM80.2244 60.3466V59.4964H86.5234V60.3466H80.2244Z" fill="#EDEDED"/>
</svg>
