<svg width="61" height="45" viewBox="0 0 61 45" fill="none" xmlns="http://www.w3.org/2000/svg">
<path d="M36.5033 2.10579H35.9148C25.9803 2.10579 16.0455 2.10579 6.11057 2.10579C4.53597 2.10579 3.43342 2.91962 3.1564 4.28748C3.11039 4.54786 3.09054 4.81218 3.09714 5.0765C3.09346 12.0644 3.09346 19.0524 3.09714 26.0403C3.09714 27.9305 4.22312 29.0551 6.12917 29.0585C10.0467 29.0654 13.9642 29.0585 17.8818 29.0627C18.1106 29.0593 18.3394 29.0736 18.566 29.1054C19.0801 29.186 19.393 29.5292 19.4274 30.0233C19.4482 30.2538 19.3881 30.4845 19.2575 30.6756C19.1269 30.8667 18.9338 31.0064 18.7114 31.0707C18.5076 31.1259 18.2969 31.1516 18.0857 31.1472C14.0798 31.1523 10.074 31.1523 6.06853 31.1472C3.61534 31.1417 1.83402 29.7876 1.15801 27.4302C1.0366 26.9697 0.980004 26.4944 0.989868 26.0182C0.989868 19.0478 0.989868 12.0775 0.989868 5.10751C0.989868 2.64467 2.39632 0.766185 4.66484 0.16529C5.12768 0.0489287 5.60374 -0.00643851 6.08094 0.00059481H38.9558C39.4437 0.00059481 39.811 0.207325 40.0081 0.660752C40.2148 1.12521 40.0673 1.52213 39.72 1.86048C38.798 2.75975 37.8781 3.65971 37.0642 4.66235C35.8018 6.20814 34.7621 7.92322 33.9757 9.75756C33.9274 9.87126 33.8827 9.98634 33.8255 10.0959C33.4988 10.7244 32.9538 10.949 32.388 10.692C31.8223 10.4349 31.6562 9.88366 31.9353 9.20972C32.8568 6.97111 34.1295 4.8938 35.7053 3.05606C35.9444 2.77698 36.1787 2.49307 36.5033 2.10579Z" fill="#EDEDED"/>
<path d="M7.82715 15.705V10.0799C7.82715 9.92986 7.88675 9.78596 7.99285 9.67987C8.09895 9.57377 8.24285 9.51416 8.3929 9.51416H8.95727C9.10732 9.51416 9.25122 9.57377 9.35732 9.67987C9.46342 9.78596 9.52303 9.92986 9.52303 10.0799V15.6782C9.52303 17.3472 10.5188 18.3698 12.134 18.3698C13.7493 18.3698 14.7181 17.3472 14.7181 15.6782V10.0799C14.7181 10.0056 14.7328 9.93205 14.7612 9.86341C14.7896 9.79477 14.8313 9.7324 14.8838 9.67987C14.9364 9.62733 14.9988 9.58566 15.0674 9.55723C15.136 9.52879 15.2096 9.51416 15.2839 9.51416H15.8751C15.9495 9.51407 16.0231 9.52864 16.0918 9.55704C16.1604 9.58544 16.2228 9.62711 16.2754 9.67966C16.3279 9.73222 16.3696 9.79462 16.398 9.8633C16.4264 9.93198 16.441 10.0056 16.4409 10.0799V15.705C16.4409 18.2623 14.7719 19.8775 12.134 19.8775C9.49615 19.8775 7.82715 18.2616 7.82715 15.705Z" fill="#EDEDED"/>
<path d="M23.8973 17.3741H19.7744C19.6601 17.374 19.5485 17.4085 19.4543 17.4731C19.3601 17.5377 19.2876 17.6293 19.2465 17.7359L18.6126 19.3808C18.5715 19.4874 18.499 19.579 18.4048 19.6436C18.3106 19.7082 18.199 19.7427 18.0847 19.7426H17.5334C17.441 19.7425 17.3499 19.7197 17.2683 19.6763C17.1866 19.6328 17.1169 19.57 17.0651 19.4934C17.0134 19.4168 16.9812 19.3286 16.9714 19.2367C16.9617 19.1447 16.9746 19.0517 17.009 18.9659L20.6716 9.86982C20.7138 9.76514 20.7864 9.67547 20.8799 9.61236C20.9735 9.54924 21.0838 9.51555 21.1967 9.51563H22.506C22.6188 9.5155 22.729 9.54918 22.8225 9.61231C22.916 9.67545 22.9884 9.76514 23.0304 9.86982L26.6936 18.9659C26.7281 19.0518 26.741 19.1448 26.7312 19.2368C26.7214 19.3288 26.6892 19.417 26.6373 19.4937C26.5855 19.5703 26.5157 19.6331 26.4339 19.6765C26.3522 19.7199 26.2611 19.7426 26.1685 19.7426H25.5911C25.4768 19.7428 25.3652 19.7083 25.2709 19.6437C25.1767 19.5791 25.1042 19.4874 25.0632 19.3808L24.4272 17.7359C24.386 17.6289 24.3133 17.537 24.2186 17.4724C24.124 17.4077 24.0119 17.3735 23.8973 17.3741ZM23.3949 15.0966L22.3613 12.436C22.32 12.3296 22.2476 12.2382 22.1534 12.1737C22.0593 12.1093 21.9479 12.0748 21.8338 12.0748C21.7197 12.0748 21.6082 12.1093 21.5141 12.1737C21.4199 12.2382 21.3475 12.3296 21.3063 12.436L20.2726 15.0966C20.2393 15.1823 20.2274 15.2748 20.238 15.3661C20.2485 15.4574 20.2812 15.5448 20.3331 15.6206C20.385 15.6964 20.4547 15.7584 20.536 15.8013C20.6173 15.8441 20.7079 15.8664 20.7998 15.8664H22.8622C22.9546 15.8672 23.0457 15.8454 23.1276 15.8029C23.2096 15.7604 23.2799 15.6985 23.3324 15.6226C23.385 15.5467 23.4181 15.4591 23.429 15.3674C23.4399 15.2757 23.4282 15.1828 23.3949 15.0966Z" fill="#EDEDED"/>
<path d="M39.2218 44.9983H22.9191C22.6373 44.9983 22.3534 45.0197 22.0922 44.8819C21.4465 44.5449 21.3583 43.7104 21.9303 43.1364C22.7654 42.2998 23.6275 41.4894 24.3745 40.5695C27.7697 36.3874 29.4904 31.6112 29.4697 26.2149C29.46 23.8154 29.46 21.4157 29.4697 19.0158C29.4745 16.932 30.3393 15.3478 32.2137 14.3672C32.9166 13.9999 33.6773 13.8662 34.4629 13.8655C41.5207 13.8655 48.5784 13.8531 55.6355 13.871C58.5118 13.8779 60.6198 15.9659 60.6308 18.8567C60.657 25.9135 60.657 32.971 60.6308 40.0292C60.6239 42.4328 59.2526 44.1824 56.94 44.8447C56.4486 44.9825 55.9318 44.999 55.4198 44.999L39.2218 44.9983ZM25.1291 42.9097H25.7754C35.6741 42.9097 45.5728 42.9097 55.4715 42.9097C57.4533 42.9097 58.5318 41.8188 58.5318 39.8246C58.5318 32.9074 58.5318 25.9904 58.5318 19.0737C58.5318 17.065 57.4375 15.9569 55.4363 15.9562C48.5022 15.953 41.5678 15.953 34.6331 15.9562C34.281 15.9562 33.9261 15.9604 33.5836 16.0562C32.3432 16.4007 31.5618 17.5033 31.5577 18.9428C31.5515 21.4132 31.5459 23.8836 31.5577 26.3541C31.579 30.5576 30.5557 34.4854 28.5504 38.1673C27.636 39.8453 26.5148 41.3813 25.1291 42.9097Z" fill="#EDEDED"/>
<path d="M43.471 34.4098V34.8274C43.471 34.9007 43.4566 34.9732 43.4285 35.041C43.4005 35.1087 43.3593 35.1702 43.3075 35.222C43.2557 35.2739 43.1941 35.315 43.1264 35.343C43.0587 35.3711 42.9861 35.3855 42.9128 35.3855H36.8426C36.7692 35.3856 36.6965 35.3713 36.6287 35.3432C36.5609 35.3152 36.4993 35.2741 36.4474 35.2223C36.3955 35.1705 36.3543 35.1089 36.3262 35.0411C36.2981 34.9734 36.2837 34.9007 36.2837 34.8274V25.7154C36.2837 25.642 36.2981 25.5694 36.3262 25.5016C36.3543 25.4339 36.3955 25.3723 36.4474 25.3205C36.4993 25.2686 36.5609 25.2275 36.6287 25.1995C36.6965 25.1715 36.7692 25.1571 36.8426 25.1572H42.7785C42.8518 25.1572 42.9243 25.1717 42.9921 25.1997C43.0598 25.2278 43.1213 25.2689 43.1731 25.3207C43.225 25.3725 43.2661 25.4341 43.2941 25.5018C43.3222 25.5695 43.3366 25.6421 43.3366 25.7154V26.133C43.3366 26.281 43.2778 26.423 43.1731 26.5277C43.0685 26.6324 42.9265 26.6912 42.7785 26.6912H38.5377C38.3897 26.6912 38.2477 26.75 38.143 26.8546C38.0384 26.9593 37.9796 27.1013 37.9796 27.2493V28.8246C37.9796 28.8979 37.994 28.9705 38.0221 29.0382C38.0501 29.1059 38.0912 29.1675 38.143 29.2193C38.1949 29.2711 38.2564 29.3122 38.3241 29.3403C38.3919 29.3683 38.4644 29.3828 38.5377 29.3828H41.5698C41.7178 29.3828 41.8598 29.4416 41.9645 29.5463C42.0691 29.6509 42.1279 29.7929 42.1279 29.941V30.3324C42.1279 30.4804 42.0691 30.6224 41.9645 30.7271C41.8598 30.8317 41.7178 30.8905 41.5698 30.8905H38.5377C38.4644 30.8905 38.3919 30.905 38.3241 30.933C38.2564 30.9611 38.1949 31.0022 38.143 31.054C38.0912 31.1059 38.0501 31.1674 38.0221 31.2351C37.994 31.3028 37.9796 31.3754 37.9796 31.4487V33.2934C37.9796 33.4415 38.0384 33.5834 38.143 33.6881C38.2477 33.7928 38.3897 33.8516 38.5377 33.8516H42.9128C43.0609 33.8516 43.2028 33.9104 43.3075 34.0151C43.4122 34.1198 43.471 34.2617 43.471 34.4098Z" fill="#EDEDED"/>
<path d="M53.2156 25.707V34.8335C53.2156 34.9797 53.1576 35.1199 53.0542 35.2233C52.9508 35.3267 52.8106 35.3848 52.6644 35.3848H51.8588C51.7706 35.3847 51.6838 35.3636 51.6055 35.3231C51.5272 35.2825 51.4597 35.2238 51.4088 35.1518L47.2742 29.2945C47.2067 29.199 47.1105 29.1276 46.9997 29.0903C46.8888 29.0531 46.769 29.0521 46.6575 29.0875C46.5461 29.1229 46.4487 29.1928 46.3796 29.2871C46.3105 29.3814 46.2731 29.4952 46.273 29.6122V34.8349C46.273 34.9811 46.2149 35.1213 46.1115 35.2247C46.0081 35.3281 45.8679 35.3861 45.7217 35.3861H45.209C45.0628 35.3861 44.9226 35.3281 44.8192 35.2247C44.7158 35.1213 44.6577 34.9811 44.6577 34.8349V25.707C44.6577 25.5608 44.7158 25.4206 44.8192 25.3172C44.9226 25.2138 45.0628 25.1558 45.209 25.1558H46.0387C46.1272 25.1557 46.2144 25.177 46.293 25.2178C46.3715 25.2585 46.4391 25.3176 46.49 25.3901L50.5991 31.2391C50.6666 31.3348 50.7627 31.4066 50.8736 31.444C50.9845 31.4814 51.1045 31.4826 51.2161 31.4472C51.3277 31.4119 51.4252 31.342 51.4944 31.2476C51.5636 31.1532 51.601 31.0392 51.6011 30.9221V25.707C51.6011 25.5608 51.6592 25.4206 51.7625 25.3172C51.8659 25.2138 52.0062 25.1558 52.1524 25.1558H52.6651C52.8111 25.1559 52.9512 25.2141 53.0544 25.3175C53.1577 25.4208 53.2156 25.561 53.2156 25.707Z" fill="#EDEDED"/>
</svg>
