<svg width="50" height="50" viewBox="0 0 50 50" fill="none" xmlns="http://www.w3.org/2000/svg">
<path d="M9.60927 2.06497C9.45674 2.06116 9.30441 2.07828 9.15653 2.11585C7.15556 2.62972 5.91796 4.1305 5.62958 5.89017C5.3413 7.64984 5.8413 9.6349 6.86747 11.5731C8.88847 15.3901 13.0454 19.1004 18.3765 19.9569C17.8286 19.3006 17.2974 18.5657 16.7872 17.7718C12.9778 16.5443 9.94921 13.6367 8.42099 10.7504C7.52196 9.05247 7.16649 7.38216 7.36434 6.17454C7.56229 4.96693 8.15263 4.18841 9.59364 3.81829C9.59999 3.81663 9.60028 3.81497 9.60263 3.81312C9.59628 3.79915 9.61288 3.80531 9.60263 3.81312C9.60683 3.8213 9.61268 3.82851 9.61981 3.83431C9.67128 3.88245 9.78475 4.05306 9.83534 4.33626C9.93651 4.90306 9.79501 5.85902 9.04091 6.84408L10.4367 7.91263C11.4541 6.58353 11.7697 5.16986 11.5656 4.02738C11.4637 3.45609 11.234 2.93704 10.8207 2.55042C10.5107 2.26048 10.0641 2.07503 9.60927 2.06488V2.06497ZM40.3909 2.06497C39.936 2.07513 39.4895 2.26058 39.1795 2.55052C38.7662 2.93724 38.5365 3.45619 38.4345 4.02747C38.2305 5.16995 38.5461 6.58353 39.5634 7.91273L40.9593 6.84417C40.2052 5.85911 40.0637 4.90316 40.1648 4.33636C40.2154 4.05316 40.3289 3.88255 40.3804 3.83441C40.3875 3.82858 40.3933 3.82137 40.3975 3.81322C40.3873 3.8054 40.4039 3.79925 40.3975 3.81322C40.3999 3.81507 40.4002 3.81673 40.4065 3.81839C41.8475 4.18851 42.4379 4.96683 42.6358 6.17454C42.8337 7.38216 42.4782 9.05247 41.5792 10.7504C40.051 13.6367 37.0224 16.5444 33.213 17.7718C32.7029 18.5657 32.1715 19.3006 31.6237 19.9569C36.9548 19.1004 41.1117 15.3901 43.1327 11.5731C44.1589 9.6349 44.6589 7.64984 44.3706 5.89017C44.0822 4.1304 42.8446 2.62972 40.8436 2.11585C40.6958 2.07828 40.5434 2.06116 40.3909 2.06497ZM13.4216 2.8182C13.6311 6.38587 15.0583 10.9305 16.9896 14.6174C18.0352 16.6137 19.2236 18.361 20.3843 19.5671C21.545 20.7734 22.6563 21.3728 23.4376 21.3728H26.5626C27.3438 21.3728 28.4552 20.7734 29.6159 19.5671C30.7766 18.361 31.9649 16.6137 33.0105 14.6174C34.9419 10.9304 36.3689 6.38597 36.5786 2.8182H13.4216ZM22.754 23.1307V24.6932H27.2462V23.1307H22.754ZM23.3834 26.451C23.1433 28.9868 22.1338 32.1027 20.997 33.8729H29.0032C27.8665 32.1027 26.8568 28.9868 26.6168 26.451H23.3834ZM19.629 35.6307V36.9979H30.3712V35.6307H19.629ZM16.504 38.7557V47.9354H33.4962V38.7557H16.504ZM18.7501 41.0018H31.2501V45.6893H18.7501V41.0018Z" fill="#FF5600"/>
</svg>
