<svg width="26" height="22" viewBox="0 0 26 22" fill="none" xmlns="http://www.w3.org/2000/svg">
    <path d="M13.182 5.63922L12.6746 5.1766C12.63 5.13593 12.5891 5.09137 12.5524 5.04345L12.5221 5.00395L12.5002 4.95925C12.4559 4.86878 12.4109 4.77591 12.3658 4.67813C11.7226 3.31103 10.8346 2.23094 9.50609 1.57765C8.02771 0.850944 6.53947 0.626764 5.00092 1.13045L5.00089 1.13046C2.81702 1.84526 1.25062 3.92156 1.12915 6.56315L13.182 5.63922ZM13.182 5.63922L13.4665 5.01429C13.6722 4.56266 13.9058 4.12429 14.166 3.70175M13.182 5.63922L14.166 3.70175M14.166 3.70175C15.5338 1.4855 18.4264 0.345829 20.8582 1.09678L20.8583 1.09681C22.7893 1.69278 24.0014 3.02816 24.5875 4.97278C25.1626 6.88134 24.8415 8.73938 24.0236 10.5913C23.1682 12.5271 21.8796 14.1778 20.3755 15.7079L20.3755 15.708C18.426 17.6916 16.1919 19.3268 13.8071 20.7955C13.8071 20.7955 13.8071 20.7956 13.807 20.7956L14.0692 21.2213M14.166 3.70175L1.71483 11.2369C2.56354 12.972 3.73325 14.4762 5.06601 15.8597C7.21358 18.0893 9.7035 19.8778 12.3412 21.473M14.0692 21.2213C14.0401 21.2392 14.0111 21.2573 13.9821 21.2754C13.6693 21.4702 13.3597 21.6631 12.9622 21.6393C12.7411 21.6277 12.5307 21.5873 12.3412 21.473M14.0692 21.2213C16.4755 19.7394 18.7453 18.08 20.7321 16.0584L14.0692 21.2213ZM12.3412 21.473L12.5999 21.0452C12.5998 21.0451 12.5996 21.045 12.5995 21.045C12.5994 21.0449 12.5994 21.0449 12.5993 21.0448L12.3412 21.473ZM4.84538 0.655334L4.84536 0.655266L4.84538 0.655334Z" fill="#D9D9D9" fill-opacity="0.5" stroke="#EDEDED"/>
    </svg>
    