<svg width="36" height="41" viewBox="0 0 36 41" fill="none" xmlns="http://www.w3.org/2000/svg">
    <path d="M34.4207 32.7096C34.4207 36.558 31.301 39.6778 27.4526 39.6778C23.6041 39.6778 20.4844 36.558 20.4844 32.7096C20.4844 28.8612 23.6041 25.7414 27.4526 25.7414C31.301 25.7414 34.4207 28.8612 34.4207 32.7096Z" fill="#040404"/>
    <path d="M27.3222 24.1925C31.9547 24.1925 35.7098 27.9476 35.7098 32.5801C35.7098 37.2126 31.9547 40.9678 27.3222 40.9678C22.6897 40.9678 18.9346 37.2126 18.9346 32.5801C18.9346 27.9476 22.6897 24.1925 27.3222 24.1925ZM27.3222 27.5476C27.0997 27.5476 26.8864 27.6359 26.7291 27.7932C26.5718 27.9505 26.4834 28.1639 26.4834 28.3863V32.5801C26.4835 32.8026 26.5719 33.0159 26.7292 33.1731L29.2455 35.6894C29.4037 35.8422 29.6155 35.9268 29.8355 35.9248C30.0554 35.9229 30.2658 35.8347 30.4213 35.6792C30.5768 35.5237 30.665 35.3133 30.6669 35.0934C30.6688 34.8735 30.5843 34.6616 30.4315 34.5034L28.161 32.2329V28.3863C28.161 28.1639 28.0726 27.9505 27.9153 27.7932C27.758 27.6359 27.5447 27.5476 27.3222 27.5476Z" fill="#8E1010"/>
    <path d="M13.9262 0.967775C15.2349 0.96678 16.5145 1.35341 17.6035 2.07887C18.6926 2.80433 19.5422 3.83608 20.0452 5.04389C20.5482 6.2517 20.682 7.58141 20.4296 8.86516C20.1773 10.1489 19.5502 11.3292 18.6275 12.2569C17.7048 13.1847 16.5278 13.8183 15.2452 14.0779C13.9625 14.3375 12.6317 14.2113 11.4207 13.7154C10.2098 13.2194 9.17289 12.3759 8.44103 11.2913C7.70917 10.2067 7.31514 8.92968 7.30866 7.6214C7.30475 6.74972 7.47297 5.88585 7.80369 5.0793C8.1344 4.27275 8.62109 3.53939 9.23587 2.92126C9.85065 2.30314 10.5814 1.81239 11.3863 1.47717C12.1912 1.14195 13.0543 0.968844 13.9262 0.967775Z" fill="#040404"/>
    <path fill-rule="evenodd" clip-rule="evenodd" d="M3.81095 35.0344H13.9477C14.9807 35.0344 16.0137 35.035 17.047 35.0355C17.3365 35.0357 17.6261 35.0359 17.9157 35.036C17.5721 34.0658 17.3851 33.0216 17.3851 31.9337C17.3851 27.4562 20.5523 23.7185 24.7685 22.8388C22.0473 18.8952 18.1727 16.8237 13.1163 17.1239C7.58714 17.4515 3.75157 20.4231 1.58497 25.5116C0.714642 27.5486 0.628633 29.7115 0.663446 31.8909C0.696211 33.8859 1.81842 35.0344 3.81095 35.0344Z" fill="#040404"/>
    </svg>
    