<svg width="41" height="41" viewBox="0 0 41 41" fill="none" xmlns="http://www.w3.org/2000/svg">
<path d="M20.5676 40.0023C16.6023 40.0023 12.6362 40.0023 8.66932 40.0023C6.33052 40.0023 5.01329 38.6539 4.97483 36.3115C4.93397 33.7527 5.03492 31.2132 6.0565 28.8215C8.59961 22.8471 13.1017 19.3582 19.5917 18.9736C26.2488 18.5782 31.1608 21.6861 34.3745 27.4694C36.003 30.4008 36.3275 33.6241 36.1172 36.9064C35.997 38.7656 34.5896 39.9951 32.7039 39.9999C28.6549 40.0096 24.6107 40.0023 20.5676 40.0023Z" fill="#EDEDED"/>
<path d="M20.5413 0.00488506C22.0774 0.00371642 23.5794 0.457662 24.8577 1.30942C26.136 2.16118 27.1333 3.37257 27.7237 4.79066C28.3141 6.20875 28.4711 7.76996 28.175 9.27722C27.8788 10.7845 27.1427 12.1702 26.0596 13.2595C24.9766 14.3488 23.5951 15.0927 22.0895 15.3975C20.584 15.7023 19.0219 15.5541 17.6005 14.9718C16.179 14.3896 14.962 13.3992 14.1029 12.1258C13.2439 10.8524 12.7814 9.35298 12.7738 7.81691C12.7692 6.79348 12.9666 5.7792 13.3548 4.83223C13.743 3.88526 14.3143 3.02423 15.0359 2.29848C15.7575 1.57273 16.6153 0.996551 17.56 0.602968C18.5047 0.209385 19.5179 0.00614005 20.5413 0.00488506Z" fill="#EDEDED"/>
</svg>
