<svg width="41" height="41" viewBox="0 0 41 41" fill="none" xmlns="http://www.w3.org/2000/svg">
<path d="M27.2334 21.5391C29.2314 20.4434 30.3916 18.5098 30.3916 16.0605C30.3916 12.0645 27.4268 9.55078 22.5283 9.55078H11.249V34.043H22.7217C27.8135 34.043 30.8428 31.4648 30.8428 27.3398C30.8428 24.6328 29.5537 22.6348 27.2334 21.5391ZM21.7549 13.6113C24.2686 13.6113 25.5576 14.5781 25.5576 16.5762C25.5576 18.5742 24.2686 19.541 21.7549 19.541H16.0186V13.6113H21.7549ZM21.8193 29.9824H16.0186V23.4727H21.8193C24.5908 23.4727 25.9443 24.5684 25.9443 26.7598C25.9443 28.9512 24.5908 29.9824 21.8193 29.9824Z" fill="#EDEDED"/>
</svg>
