<svg width="26" height="22" viewBox="0 0 26 22" fill="none" xmlns="http://www.w3.org/2000/svg">
    <path fill-rule="evenodd" clip-rule="evenodd" d="M17.5071 21.8991H11.5981C8.87489 21.9037 6.24771 20.8936 4.22936 19.0659C2.21101 17.2383 0.946345 14.7243 0.682228 12.0146C0.112282 6.2784 4.17346 1.05638 9.88889 0.162087C10.6377 0.054035 11.3945 0.0112887 12.1508 0.0343314C12.5478 0.0417118 12.9448 0.0372586 13.3419 0.0328058C14.1476 0.0237699 14.9532 0.0147361 15.757 0.104598C20.8364 1.18343 22.8039 2.88995 24.8889 7.45503C26.103 11.4052 25.4167 14.9773 22.7638 18.1533C22.5619 18.3948 22.5568 18.5238 22.7638 18.755C23.152 19.1911 23.5271 19.639 23.9025 20.0871C24.1017 20.3249 24.301 20.5628 24.5024 20.7991C24.6941 21.024 24.8219 21.261 24.6851 21.5542C24.5484 21.8474 24.2909 21.9042 23.9925 21.9036C21.8303 21.8972 19.6685 21.8957 17.5071 21.8991ZM18.0151 11.5509H13.037C11.3659 11.5522 9.69487 11.5515 8.02379 11.549C8.00586 11.549 7.98775 11.5491 7.96953 11.5493C7.84814 11.5502 7.722 11.5512 7.61422 11.5106C7.34906 11.411 7.20594 11.1951 7.23597 10.9121C7.266 10.6291 7.43021 10.4439 7.71901 10.3966C7.83514 10.3823 7.95226 10.3776 8.06916 10.3826H18.0292C18.5978 10.3826 18.8764 10.5895 18.8713 10.976C18.8662 11.3624 18.5902 11.5509 18.0151 11.5509ZM15.8567 7.52657H13.0166L13.0191 7.52593L12.5678 7.52563C11.5163 7.52487 10.4659 7.5241 9.40777 7.5336C9.11704 7.53488 8.88191 7.45375 8.75412 7.17525C8.58416 6.79581 8.84549 6.38444 9.28253 6.35952C9.5244 6.34637 9.76659 6.349 10.0086 6.35163C10.1074 6.3527 10.2062 6.35377 10.3049 6.35377H16.4644C16.5 6.35377 16.5355 6.35306 16.5711 6.35235C16.6422 6.35093 16.7131 6.34952 16.7838 6.35377C17.1551 6.37549 17.3991 6.62079 17.3889 6.95806C17.38 7.28192 17.1391 7.51508 16.7826 7.52657C16.5768 7.53083 16.3711 7.52941 16.1653 7.52799C16.0625 7.52728 15.9596 7.52657 15.8567 7.52657ZM16.5921 14.4088C16.6878 14.4046 16.7837 14.4072 16.879 14.4164C17.0182 14.433 17.1467 14.4993 17.2407 14.6033C17.3347 14.7072 17.3878 14.8417 17.3902 14.9818C17.3941 15.1204 17.3478 15.2558 17.2597 15.363C17.1717 15.4702 17.0478 15.5419 16.911 15.565C16.795 15.5809 16.6778 15.5862 16.5608 15.5809H9.53939C9.51445 15.5809 9.4895 15.5814 9.46459 15.5819C9.41482 15.5829 9.36514 15.5839 9.31576 15.5809C8.94389 15.5573 8.70172 15.3139 8.71194 14.9754C8.72153 14.6496 8.96114 14.4222 9.31831 14.4069C9.41751 14.4035 9.51672 14.4046 9.61611 14.4057C9.66588 14.4063 9.71569 14.4069 9.76558 14.4069L16.5921 14.4088Z" fill="#EDEDED"/>
    </svg>
    