<svg width="41" height="41" viewBox="0 0 41 41" fill="none" xmlns="http://www.w3.org/2000/svg">
<path d="M13.2031 16.5994C13.2031 15.0785 13.2031 13.5576 13.2031 12.0374C13.2137 7.94075 16.0328 4.69657 20.0876 4.11437C24.0491 3.54844 28.0382 6.41345 28.7584 10.3452C28.8614 10.8783 28.9158 11.4195 28.9211 11.9624C28.9211 15.075 28.9451 18.1876 28.914 21.3002C28.8864 24.0442 27.7397 26.2414 25.4866 27.8204C20.9026 31.0327 14.3513 28.3226 13.3524 22.8155C13.2548 22.2822 13.2053 21.7412 13.2045 21.199C13.2055 19.6644 13.205 18.1312 13.2031 16.5994Z" fill="#EDEDED"/>
<path d="M21.1142 37.0439C13.7896 37.0141 7.55665 32.1139 5.80368 25.061C5.61339 24.2935 5.53982 24.4491 6.28402 24.2885C6.96313 24.1421 7.65286 24.0402 8.32631 23.8719C8.66233 23.7877 8.7649 23.8719 8.83989 24.1952C9.42775 26.7114 10.665 28.8641 12.5892 30.5873C15.5504 33.233 19.0167 34.3203 22.9492 33.7261C28.0843 32.948 32.0656 29.2503 33.2774 24.2164C33.3566 23.8874 33.4436 23.7771 33.8093 23.8691C34.5733 24.0615 35.3522 24.2008 36.1289 24.3395C36.4084 24.3897 36.4635 24.488 36.3921 24.7639C34.7023 31.2141 30.6144 35.2046 24.1284 36.7354C23.1133 36.9731 22.0755 37.0212 21.1142 37.0439Z" fill="#EDEDED"/>
</svg>
