<svg width="41" height="40" viewBox="0 0 41 40" fill="none" xmlns="http://www.w3.org/2000/svg">
<path d="M10.9113 6.21592C11.4132 6.2307 11.9222 6.4045 12.4034 6.66698C12.9751 6.97852 13.4917 7.37638 14.0415 7.72339C14.3287 7.91403 14.6322 8.07901 14.9484 8.21642C16.0869 8.67872 17.1717 8.21169 17.6151 7.06306C17.8474 6.46244 17.9438 5.82752 18.0679 5.2003C18.1974 4.54233 18.3298 3.88377 18.6952 3.30857C19.3035 2.34556 20.2233 1.9684 21.3146 2.01333C22.3882 2.05767 23.246 2.517 23.7609 3.50661C24.1031 4.16458 24.2048 4.88994 24.3479 5.60347C24.446 6.09591 24.5412 6.58954 24.7233 7.05951C25.1808 8.24184 26.2709 8.7 27.4373 8.19928C28.0113 7.95335 28.515 7.58683 29.0293 7.23982C29.5194 6.90936 30.0089 6.5789 30.5758 6.38677C31.7185 6.00015 32.704 6.30755 33.5263 7.12513C34.3486 7.94271 34.6767 8.9406 34.286 10.0963C34.0974 10.6538 33.7752 11.1368 33.4506 11.6192C33.1421 12.0761 32.8234 12.5278 32.5745 13.0214C32.3203 13.5251 32.169 14.0453 32.3381 14.6176C32.5397 15.2927 32.9807 15.7278 33.6386 15.9648C34.4491 16.2604 35.3045 16.3568 36.1381 16.5477C37.5368 16.8681 38.4223 17.704 38.6086 18.8935C38.8941 20.7213 37.9902 22.0379 36.1623 22.4611C35.3861 22.6385 34.5928 22.7449 33.829 22.982C33.0226 23.232 32.4752 23.7221 32.2996 24.5781C32.1932 25.0912 32.3511 25.5529 32.5757 25.9969C32.8784 26.5963 33.2798 27.1349 33.6499 27.6929C33.9839 28.1966 34.2919 28.7168 34.3965 29.3192C34.6052 30.524 34.1187 31.4634 33.1888 32.1793C32.2293 32.9183 31.1865 32.9703 30.1076 32.43C29.4354 32.093 28.8502 31.6195 28.2106 31.2311C27.8819 31.0318 27.5526 30.8368 27.1831 30.7173C26.2573 30.4164 25.3002 30.7989 24.8533 31.6632C24.5737 32.2035 24.4703 32.7971 24.3497 33.3859C24.2249 33.9924 24.1351 34.6078 23.9021 35.1883C23.4393 36.3417 22.4579 37.0032 21.1881 37.0097C19.9071 37.0168 18.9074 36.3594 18.4386 35.1972C18.1223 34.4145 18.0526 33.5715 17.8539 32.7604C17.7647 32.3963 17.6713 32.0345 17.4992 31.6963C17.0435 30.796 16.0911 30.4052 15.1346 30.7221C14.6132 30.8947 14.1657 31.2003 13.7116 31.4953C13.1347 31.8707 12.5807 32.281 11.9417 32.5594C9.97371 33.4125 7.94956 31.7152 7.88453 29.8868C7.86443 29.3098 8.06188 28.7831 8.32909 28.2829C8.65245 27.6835 9.07573 27.1473 9.43043 26.5686C9.6261 26.2493 9.81941 25.9295 9.93942 25.5713C10.2829 24.5503 9.85784 23.566 8.87532 23.1244C8.24928 22.8436 7.57476 22.7467 6.90792 22.6143C6.24109 22.4818 5.57071 22.3547 4.9825 21.9864C4.01594 21.3817 3.63642 20.463 3.67898 19.3717C3.72154 18.2804 4.18738 17.4238 5.19177 16.9077C5.84205 16.5737 6.55736 16.4732 7.26085 16.3313C7.75329 16.2314 8.24691 16.1374 8.71748 15.9571C9.89331 15.5073 10.3615 14.4053 9.8667 13.2449C9.61782 12.6614 9.24303 12.1512 8.89306 11.6274C8.58092 11.1604 8.28475 10.6887 8.0737 10.1619C7.32056 8.28204 8.98587 6.2372 10.9113 6.21592ZM21.1745 13.6469C20.0178 13.6459 18.8868 13.9878 17.9243 14.6292C16.9617 15.2707 16.2109 16.183 15.7665 17.2509C15.3221 18.3188 15.2041 19.4945 15.4274 20.6294C15.6508 21.7643 16.2054 22.8076 17.0213 23.6275C17.8371 24.4474 18.8777 25.0072 20.0115 25.2362C21.1453 25.4651 22.3215 25.3529 23.3916 24.9138C24.4617 24.4747 25.3777 23.7283 26.0239 22.769C26.6701 21.8096 27.0175 20.6803 27.0223 19.5236C27.0255 18.7534 26.8766 17.9902 26.5842 17.2776C26.2919 16.5651 25.8617 15.9172 25.3184 15.3713C24.7751 14.8253 24.1294 14.3919 23.4183 14.096C22.7072 13.8001 21.9447 13.6475 21.1745 13.6469Z" fill="#EDEDED"/>
</svg>
