<svg width="41" height="40" viewBox="0 0 41 40" fill="none" xmlns="http://www.w3.org/2000/svg">
<path d="M27.3398 27.7791C27.3398 29.7496 26.0435 31.3643 24.043 31.8676C23.0224 32.1243 22.0035 32.0411 20.9944 31.7946C19.1408 31.3415 17.4987 30.4434 15.9642 29.3413C13.2619 27.399 11.0215 25.0265 9.33508 22.1476C8.61727 20.921 8.05653 19.6264 7.80277 18.2183C7.55998 16.8734 7.62247 15.5582 8.36983 14.3666C9.33423 12.8258 10.8218 12.1925 12.5669 12.4023C12.9845 12.4526 13.248 12.6861 13.3755 13.0978C13.8518 14.6347 14.335 16.1698 14.825 17.7031C14.9517 18.1 14.8774 18.4336 14.5856 18.7275C14.3032 19.0121 14.0253 19.3013 13.7466 19.5893C13.4114 19.9351 13.3856 20.2573 13.6706 20.6449C15.1867 22.7048 17.0059 24.5233 19.0664 26.0386C19.4325 26.3084 19.764 26.2856 20.0908 25.9727C20.3906 25.6856 20.6881 25.3961 20.9834 25.1042C21.2655 24.8259 21.5889 24.7461 21.9698 24.8673C23.5038 25.3541 25.0395 25.8351 26.5722 26.3211C27.0789 26.4807 27.2685 26.726 27.3086 27.25C27.3246 27.4277 27.3305 27.6038 27.3398 27.7791Z" fill="#EDEDED"/>
<path d="M32.6783 21.7095C32.6884 22.0414 32.4697 22.2951 32.1594 22.3108C31.8554 22.326 31.6134 22.0996 31.5881 21.7568C31.525 20.9437 31.3875 20.138 31.1772 19.35C30.7079 17.5704 29.9056 15.8958 28.8127 14.4149C27.1567 12.1479 25.0556 10.4167 22.4863 9.27156C21.0663 8.63203 19.5466 8.24249 17.994 8.12011C17.5401 8.08549 17.2855 7.7439 17.4358 7.36388C17.5279 7.13123 17.747 7.00456 18.0333 7.0282C19.2722 7.12912 20.4823 7.36599 21.657 7.7819C25.7337 9.22723 28.7899 11.8776 30.8749 15.6508C31.8967 17.4977 32.5107 19.5423 32.6753 21.6466C32.6753 21.6673 32.6766 21.6905 32.6783 21.7095Z" fill="#EDEDED"/>
<path d="M29.5119 21.4881C29.522 21.8107 29.3096 22.0565 29.0052 22.0755C28.6919 22.0945 28.4525 21.8842 28.4238 21.5367C28.3813 20.9967 28.295 20.4611 28.1658 19.9351C27.5586 17.4975 26.2509 15.4982 24.3437 13.8853C22.77 12.5527 20.9657 11.6943 18.923 11.367C18.6869 11.3295 18.4484 11.3079 18.2106 11.286C17.8239 11.2505 17.5984 11.0195 17.6275 10.6817C17.6567 10.344 17.929 10.1548 18.3128 10.2C22.9444 10.7438 26.2336 13.2029 28.355 17.286C29.1593 18.8318 29.4106 20.2476 29.5119 21.4881Z" fill="#EDEDED"/>
<path d="M26.3466 21.2928C26.351 21.4289 26.3035 21.5616 26.2137 21.664C26.124 21.7664 25.9986 21.8309 25.8631 21.8443C25.5401 21.8734 25.2884 21.6632 25.258 21.3093C25.2158 20.8237 25.1432 20.3432 24.9849 19.8834C23.9892 16.9894 22.0144 15.1784 19.0102 14.521C18.8189 14.4787 18.62 14.4703 18.4241 14.45C18.0441 14.4112 17.8207 14.1667 17.8574 13.8298C17.8912 13.5135 18.1695 13.3302 18.5398 13.3632C22.0832 13.6786 25.1267 16.3733 26.062 19.6803C26.2102 20.207 26.3055 20.7472 26.3466 21.2928Z" fill="#EDEDED"/>
</svg>
