<svg width="41" height="40" viewBox="0 0 41 40" fill="none" xmlns="http://www.w3.org/2000/svg">
<path d="M14.7284 19.5027C14.1017 19.3195 13.4933 19.1383 12.8836 18.9619C10.094 18.1611 7.30358 17.3609 4.51221 16.5615C3.36304 16.2309 2.69517 15.3447 2.69381 14.1374C2.69043 10.9501 2.73505 7.76149 2.67624 4.5749C2.64244 2.77813 4.47504 1.41332 6.28397 2.33942C10.1709 4.32952 14.0902 6.25675 17.9967 8.20899C23.9851 11.2054 29.975 14.1989 35.9664 17.1894C36.6843 17.547 37.3076 17.9682 37.5793 18.7712C37.7656 19.3094 37.751 19.8968 37.5382 20.4251C37.3254 20.9533 36.9287 21.3868 36.4214 21.6455C34.5678 22.5919 32.7035 23.516 30.8384 24.4475L6.407 36.6659C5.1179 37.3108 3.97345 37.1202 3.19066 36.1251C2.88377 35.7337 2.69855 35.2876 2.69787 34.7867C2.69314 31.4412 2.68571 28.0944 2.69787 24.751C2.70193 23.737 3.4712 22.8224 4.51357 22.5203C6.10213 22.0606 7.69204 21.6045 9.28331 21.1521C10.9922 20.6613 12.7006 20.1696 14.4086 19.6771C14.508 19.6453 14.6344 19.6534 14.7284 19.5027Z" fill="#EDEDED"/>
</svg>
