<svg width="41" height="41" viewBox="0 0 41 41" fill="none" xmlns="http://www.w3.org/2000/svg">
<path d="M20.2557 3.04424C23.0036 3.04424 25.7515 3.03592 28.4994 3.04424C33.7721 3.06256 37.7441 7.0412 37.7557 12.3272C37.7668 17.7941 37.7668 23.2616 37.7557 28.7297C37.7441 34.0173 33.7771 38.0093 28.5061 38.0259C22.9836 38.0426 17.4606 38.0426 11.937 38.0259C6.65607 38.0093 2.69077 34.029 2.68244 28.7413C2.67356 23.301 2.67356 17.8607 2.68244 12.4204C2.69244 7.00289 6.60612 3.07256 12.0087 3.04424C14.7599 3.03259 17.5078 3.04424 20.2557 3.04424ZM20.3007 6.80305C17.5828 6.80305 14.8626 6.80305 12.1402 6.80305C8.70119 6.81137 6.45123 9.04134 6.44624 12.4654C6.43736 17.8724 6.43736 23.281 6.44624 28.6914C6.44624 31.9539 8.7295 34.2588 11.9754 34.2671C17.4667 34.2782 22.9581 34.2782 28.4495 34.2671C31.6537 34.2671 33.9736 31.9572 33.9819 28.7713C33.9953 23.2799 33.9953 17.788 33.9819 12.2955C33.9819 9.10462 31.6587 6.81637 28.4528 6.79971C25.7332 6.79805 23.0186 6.80471 20.3007 6.80305Z" fill="#EDEDED"/>
<path d="M20.2691 22.4031C21.4882 22.4031 22.7123 22.4531 23.933 22.3848C24.7041 22.3415 25.0122 22.6529 25.1704 23.3557C25.9265 26.7165 22.4841 30.0506 19.14 29.1846C16.542 28.5052 14.9465 26.2552 15.2346 23.6738C15.3595 22.5497 15.5077 22.4148 16.6136 22.4131L20.2691 22.4031Z" fill="#EDEDED"/>
<path d="M13.6724 14.291C14.1064 14.2979 14.5286 14.4338 14.8852 14.6814C15.2418 14.9291 15.5165 15.2772 15.6745 15.6816C15.8325 16.0859 15.8666 16.5282 15.7724 16.9519C15.6782 17.3757 15.46 17.7619 15.1456 18.0612C14.8311 18.3605 14.4347 18.5595 14.0068 18.6327C13.5789 18.706 13.1389 18.6502 12.7428 18.4725C12.3467 18.2949 12.0125 18.0033 11.7827 17.635C11.5529 17.2667 11.4379 16.8383 11.4524 16.4044C11.4782 15.8338 11.7236 15.2951 12.1374 14.9013C12.5511 14.5074 13.1011 14.2887 13.6724 14.291Z" fill="#EDEDED"/>
<path d="M26.8294 18.6642C26.3959 18.6685 25.9709 18.5439 25.6084 18.3061C25.2459 18.0683 24.9622 17.7281 24.7935 17.3287C24.6248 16.9294 24.5786 16.4889 24.6607 16.0632C24.7429 15.6375 24.9498 15.2458 25.2551 14.938C25.5603 14.6302 25.9502 14.42 26.3752 14.3342C26.8002 14.2485 27.241 14.291 27.6418 14.4563C28.0426 14.6217 28.3851 14.9024 28.626 15.2629C28.8668 15.6234 28.9951 16.0474 28.9944 16.4809C28.9876 17.0547 28.7579 17.6033 28.3539 18.0108C27.9498 18.4183 27.4031 18.6526 26.8294 18.6642Z" fill="#EDEDED"/>
</svg>
