<svg width="41" height="40" viewBox="0 0 41 40" fill="none" xmlns="http://www.w3.org/2000/svg">
<path d="M24.8064 20.0704C24.8064 22.9725 24.8064 25.8746 24.8064 28.7766C24.8064 28.953 24.8064 29.1283 24.8064 29.3047C24.8064 29.6014 24.7367 29.8591 24.4315 29.9996C24.1263 30.14 23.8855 30.0101 23.6659 29.8169C23.0586 29.2814 22.4419 28.7608 21.8547 28.2011C19.7193 26.1787 17.208 25.1047 14.251 25.0561C12.7503 25.0318 11.6943 23.9029 11.6837 22.398C11.6731 20.8329 11.6731 19.2674 11.6837 17.7016C11.6953 16.2041 12.7619 15.0879 14.269 15.0615C17.1869 15.0118 19.676 13.961 21.7945 11.9777C22.3722 11.437 22.9731 10.9217 23.5645 10.3936C23.8032 10.1824 24.0397 9.95959 24.4041 10.1053C24.7937 10.2616 24.8117 10.5964 24.8117 10.9396L24.8064 20.0704Z" fill="#EDEDED"/>
<path d="M30.4429 20.0814C30.3985 21.6929 29.8641 23.1059 28.7711 24.2993C28.486 24.6108 28.1808 24.8273 27.7731 24.5105C27.432 24.2423 27.4563 23.9064 27.8344 23.464C29.6297 21.3455 29.6297 18.7708 27.8344 16.6576C27.4573 16.214 27.4288 15.8803 27.7668 15.611C28.1723 15.2879 28.4786 15.5054 28.7648 15.8148C29.8768 17.0209 30.4101 18.4518 30.4429 20.0814Z" fill="#EDEDED"/>
</svg>
