<svg width="41" height="40" viewBox="0 0 41 40" fill="none" xmlns="http://www.w3.org/2000/svg">
<path d="M4.67578 19.5481C4.74398 15.4014 6.32353 11.5774 9.46831 8.40804C9.75407 8.12023 9.75953 8.12159 9.89525 8.49465C10.3188 9.65817 10.8051 10.7965 11.2866 11.9368C11.3814 12.1612 11.3704 12.3201 11.2184 12.522C6.5902 18.6669 8.63284 27.3265 15.5103 30.7359C21.512 33.7122 28.9494 31.1007 31.777 25.0219C34.6415 18.8613 32.0041 11.6783 25.8333 8.84316C25.7635 8.80537 25.691 8.77277 25.6164 8.74564C25.3913 8.67743 25.3784 8.57649 25.4923 8.3753C26.1013 7.30317 26.3393 6.15398 26.1409 4.92908C26.0904 4.61535 26.222 4.64127 26.4355 4.72447C27.5669 5.1378 28.6464 5.68162 29.6519 6.34494C33.5284 8.94683 35.9537 12.5349 36.7448 17.1385C37.9043 23.8987 34.754 30.4242 28.9699 33.7961C25.272 35.9526 21.287 36.5923 17.1383 35.5495C10.9087 33.9809 6.9544 29.9931 5.17297 23.838C5.00728 23.2341 4.88781 22.6185 4.8156 21.9965C4.72421 21.2913 4.68942 20.5759 4.67578 19.5481Z" fill="#EDEDED"/>
<path d="M23.5234 19.849C23.5256 20.4512 23.3258 21.0367 22.9559 21.5119C22.586 21.9871 22.0674 22.3245 21.4831 22.4702C20.8988 22.6159 20.2825 22.5613 19.7329 22.3154C19.1832 22.0694 18.7319 21.6462 18.4512 21.1134C17.7631 19.8074 17.1479 18.4652 16.5266 17.1264C15.0943 14.0471 13.7112 10.9487 12.5156 7.76911C12.1119 6.69698 11.717 5.6194 11.4926 4.4893C11.4362 4.24534 11.4175 3.99415 11.4374 3.74453C11.4722 3.43558 11.6249 3.35238 11.9093 3.484C12.1937 3.61563 12.4215 3.82024 12.6418 4.03371C13.7658 5.11948 14.7151 6.35256 15.6509 7.59792C18.263 11.0653 20.7087 14.6486 23.0398 18.3103C23.345 18.7663 23.5129 19.3004 23.5234 19.849Z" fill="#EDEDED"/>
<path d="M20.8304 8.42271C20.2984 8.4223 19.7784 8.26413 19.3363 7.9682C18.8941 7.67227 18.5497 7.25186 18.3465 6.76016C18.1433 6.26845 18.0905 5.72754 18.1947 5.20581C18.299 4.68409 18.5556 4.205 18.9321 3.82913C19.3087 3.45326 19.7882 3.19749 20.3101 3.09417C20.832 2.99086 21.3728 3.04464 21.8642 3.24871C22.3555 3.45277 22.7753 3.79797 23.0705 4.24063C23.3656 4.68329 23.5229 5.20353 23.5223 5.73557C23.518 6.44774 23.2329 7.12944 22.7288 7.63259C22.2248 8.13573 21.5426 8.41967 20.8304 8.42271Z" fill="#EDEDED"/>
</svg>
