<svg width="41" height="40" viewBox="0 0 41 40" fill="none" xmlns="http://www.w3.org/2000/svg">
<path d="M17.2544 25.916H9.10641C8.96891 25.916 8.83065 25.9196 8.69315 25.9117C8.04621 25.8752 7.67879 25.519 7.67804 24.9065C7.67503 21.3193 7.67503 17.732 7.67804 14.1447C7.67804 13.5123 8.04621 13.156 8.71569 13.123C8.91556 13.113 9.11618 13.1152 9.31679 13.1152C14.6862 13.1152 20.0555 13.1152 25.4249 13.1152C25.6622 13.1082 25.8998 13.1206 26.1349 13.1524C26.5933 13.2239 26.8803 13.5459 26.9179 13.9859C26.9276 14.1039 26.9261 14.2234 26.9261 14.3436C26.9261 17.7878 26.9261 21.232 26.9261 24.6761C26.9261 25.6277 26.6256 25.9146 25.6278 25.9153C22.8371 25.9167 20.046 25.917 17.2544 25.916ZM14.1459 19.5192C14.1459 20.46 14.1414 21.4015 14.1459 22.3423C14.1459 22.9798 14.5449 23.2009 15.1227 22.8868C16.8449 21.9458 18.5643 21.0006 20.2809 20.0515C20.8445 19.7395 20.843 19.296 20.2809 18.9833C18.5598 18.0346 16.8384 17.089 15.1167 16.1465C14.5396 15.8317 14.1467 16.055 14.1399 16.6953C14.1376 17.6375 14.1459 18.5791 14.1459 19.5192Z" fill="#EDEDED"/>
<path d="M33.6743 19.5173C33.6743 20.8529 33.6743 22.1884 33.6743 23.5239C33.6743 24.0383 33.6742 24.0411 33.2031 23.8287C31.6019 23.0996 30.0008 22.3706 28.4003 21.6444C28.1433 21.5278 28.0366 21.3747 28.0412 21.0928C28.0584 20.0318 28.0554 18.97 28.0412 17.9097C28.0412 17.6593 28.1291 17.5148 28.3627 17.4089C30.0218 16.6591 31.6781 15.9038 33.3316 15.1431C33.6239 15.0079 33.675 15.1137 33.6743 15.3684C33.672 16.7514 33.6743 18.1344 33.6743 19.5173Z" fill="#EDEDED"/>
<path d="M17.3019 32.0194C15.1545 31.9808 13.1874 31.412 11.4194 30.2451C11.3683 30.2115 11.318 30.1736 11.2691 30.1378C10.9137 29.8709 10.8446 29.5883 11.067 29.3129C11.2811 29.0482 11.5734 29.0203 11.9273 29.2578C12.6674 29.7536 13.4504 30.1678 14.3122 30.4376C17.2246 31.349 19.9551 30.9877 22.5023 29.373C23.0357 29.0353 23.3438 29.0152 23.5715 29.3479C23.7781 29.647 23.6466 29.9432 23.1469 30.2716C21.3902 31.4299 19.4306 31.9822 17.3019 32.0194Z" fill="#EDEDED"/>
<path d="M17.6066 7.01953C19.6592 7.07107 21.6468 7.71557 23.3058 8.86754C23.5651 9.04569 23.7206 9.24959 23.6342 9.55938C23.5313 9.9307 23.0774 10.0409 22.6867 9.77759C22.0709 9.3494 21.3999 8.99811 20.6903 8.73232C17.6803 7.65127 14.8295 7.96035 12.1433 9.63522C12.0111 9.72462 11.8736 9.80679 11.7316 9.88134C11.4656 10.0087 11.2417 9.91782 11.0689 9.71463C10.896 9.51145 10.8878 9.2918 11.0644 9.09291C11.1805 8.96907 11.3128 8.8599 11.4581 8.76809C13.1592 7.6384 15.2323 7.02025 17.6066 7.01953Z" fill="#EDEDED"/>
<path d="M15.2617 19.5213C15.2617 18.9489 15.2617 18.3766 15.2617 17.8042C15.2617 17.5366 15.3511 17.4973 15.5908 17.6318C16.6142 18.2042 17.6411 18.7708 18.6715 19.3317C18.9044 19.4591 18.939 19.5564 18.6805 19.6966C17.6391 20.2632 16.6007 20.8356 15.5653 21.4137C15.3166 21.5525 15.2647 21.4623 15.2647 21.2391C15.2632 20.666 15.2617 20.0937 15.2617 19.5213Z" fill="#EDEDED"/>
</svg>
