<svg width="111" height="110" viewBox="0 0 111 110" fill="none" xmlns="http://www.w3.org/2000/svg">
    <g filter="url(#filter0_d_792_31776)">
    <circle cx="55.6836" cy="53" r="50" fill="#EDEDED" fill-opacity="0.02" shape-rendering="crispEdges"/>
    </g>
    <g clip-path="url(#clip0_792_31776)">
    <path d="M53.5917 70.303C53.5917 72.2281 53.5828 74.1533 53.5988 76.0802C53.5988 76.4357 53.5331 76.562 53.1455 76.562C48.8677 76.562 44.6325 76.1664 40.4604 75.2003C39.5716 74.9941 38.657 74.803 37.8829 74.2786C36.3328 73.228 35.516 71.8104 35.7124 69.8781C36.1506 65.5789 36.5621 61.2771 36.9967 56.977C37.1061 55.9042 37.1825 54.8279 37.4927 53.7773C37.9984 52.0672 39.2952 51.0496 41.0835 51.022C41.7501 51.0122 42.4167 51.0344 43.0824 51.0149C43.3559 51.0001 43.6296 51.0411 43.8867 51.1353C44.1439 51.2296 44.3792 51.3752 44.5783 51.5633C46.0006 52.8742 47.736 53.7975 49.6178 54.2448C52.5785 54.9559 55.4004 54.5844 58.0962 53.1783C58.9012 52.7683 59.644 52.2461 60.3022 51.6273C60.5174 51.4134 60.7759 51.2481 61.0603 51.1423C61.3446 51.0365 61.6483 50.9928 61.951 51.014C62.7047 51.0451 63.4619 50.9829 64.2157 51.0433C65.8155 51.1731 66.9763 52.1988 67.4616 53.8369C67.794 54.9523 67.858 56.1078 67.9887 57.2526C68.1664 58.84 68.3069 60.4327 68.4837 62.021C68.5139 62.2877 68.4571 62.3766 68.1922 62.4245C67.2456 62.5961 66.3044 62.7925 65.3622 62.9872C65.2024 63.0138 65.0388 63.0059 64.8823 62.9641C62.1181 62.3846 59.3533 61.808 56.5879 61.2344C55.5213 61.0149 54.7987 61.5828 54.7845 62.6565C54.7801 62.9801 54.7436 63.172 54.373 63.2787C53.8041 63.4413 53.5882 63.9009 53.5899 64.4804C53.5944 66.4233 53.5917 68.3627 53.5917 70.303Z" fill="#EDEDED"/>
    <path d="M43.5399 43.3469C43.5308 42.241 43.7112 41.1416 44.0732 40.0966C44.2074 39.6975 44.3958 39.7597 44.6811 39.845C46.9574 40.5294 49.2381 41.2014 51.5134 41.8893C52.2963 42.1276 53.1329 42.1233 53.9132 41.8769C56.1352 41.2094 58.3573 40.5587 60.5793 39.885C60.9081 39.7855 61.0495 39.853 61.1552 40.1792C62.9711 45.7894 59.4114 51.3782 53.867 52.1782C48.9937 52.8812 44.7123 49.8495 43.6857 45.0383C43.5678 44.4827 43.5188 43.9146 43.5399 43.3469Z" fill="#EDEDED"/>
    <path d="M63.733 32.8849L58.8366 34.3452C56.9416 34.9105 55.044 35.4687 53.1482 36.0437C52.7232 36.1712 52.2695 36.1669 51.847 36.0313C47.8811 34.858 43.9141 33.6872 39.9458 32.5187C39.8463 32.4894 39.7467 32.46 39.6498 32.4254C39.489 32.3667 39.3574 32.2867 39.3574 32.0841C39.3574 31.8814 39.4632 31.7614 39.6587 31.7037C40.2951 31.5143 40.9288 31.3152 41.5652 31.1268C44.935 30.1313 48.3039 29.1359 51.6719 28.1404C52.1963 27.9849 52.7011 27.9404 53.2362 28.1004C57.2139 29.2855 61.1934 30.4655 65.1747 31.6405C65.3969 31.7072 65.6866 31.7294 65.6813 32.0378C65.676 32.3463 65.3915 32.3738 65.1693 32.4467C64.2619 32.7409 64.2619 32.74 64.2619 33.7159C64.2619 34.7665 64.2619 35.8177 64.2619 36.8694C64.2619 37.041 64.2459 37.1983 64.413 37.3449C64.6956 37.5929 64.7392 38.2231 64.4672 38.4666C64.2654 38.6444 64.3223 38.7679 64.4059 38.9466C64.5561 39.2674 64.6965 39.5927 64.8387 39.918C64.9649 40.2078 64.8583 40.3802 64.5552 40.4211C64.1878 40.4718 63.8151 40.4718 63.4477 40.4211C63.1153 40.374 63.0246 40.1882 63.158 39.8878C63.2531 39.6718 63.3606 39.4603 63.4451 39.2399C63.5588 38.9439 63.8086 38.7021 63.4522 38.3253C63.2362 38.096 63.2486 37.6142 63.5908 37.3272C63.6371 37.2921 63.6742 37.2462 63.6986 37.1935C63.7231 37.1408 63.7343 37.083 63.7313 37.025C63.7313 35.6633 63.733 34.3025 63.733 32.8849Z" fill="#EDEDED"/>
    <path d="M54.6738 70.4461V64.9355C54.6738 64.2244 54.68 64.1809 55.3751 64.1951C55.8062 64.204 55.9537 64.0858 55.9039 63.6547C55.8666 63.3338 55.8986 63.0041 55.8968 62.677C55.8951 62.3499 56.0044 62.1962 56.3848 62.2753C58.9623 62.8086 61.5479 63.2805 64.1077 63.8751C65.1493 64.1187 66.0915 63.892 67.0674 63.6974C69.3854 63.2281 71.7025 62.7526 74.0188 62.2708C74.3743 62.1962 74.5227 62.3206 74.5201 62.6699C74.5201 63.0556 74.5325 63.4405 74.5201 63.8254C74.5094 64.0822 74.5796 64.1809 74.8605 64.1978C76.1288 64.2662 75.9422 64.1978 75.9448 65.3532C75.9502 68.9227 75.9502 72.4919 75.9448 76.0607C75.9448 76.6544 75.9448 76.6571 75.3653 76.6402C72.0611 76.5369 68.7625 76.9799 65.6026 77.9512C65.4222 78.0145 65.2261 78.018 65.0436 77.961C61.8739 76.9723 58.56 76.5267 55.2418 76.6429C54.6783 76.6607 54.6774 76.6589 54.6774 76.0892C54.675 74.2078 54.6738 72.3268 54.6738 70.4461ZM64.8889 70.4461C64.8889 68.6246 64.8889 66.8038 64.8889 64.9835C64.8889 64.7693 64.9023 64.5951 64.6063 64.5391C61.9849 64.017 59.3662 63.4838 56.7501 62.9392C56.4274 62.8726 56.3581 62.9481 56.359 63.269C56.3697 66.8965 56.3697 70.5237 56.359 74.1507C56.359 74.4751 56.4683 74.5862 56.759 74.644C59.3365 75.155 61.9141 75.6661 64.4916 76.2029C64.8471 76.2785 64.904 76.2029 64.9014 75.8661C64.8818 74.0627 64.8889 72.2557 64.8889 70.4497V70.4461ZM65.4222 70.3999C65.4222 72.2353 65.4222 74.0716 65.4169 75.9105C65.4169 76.2038 65.4693 76.2811 65.7848 76.2154C68.3748 75.675 70.9672 75.1479 73.5619 74.6342C73.8632 74.5746 73.9592 74.4564 73.9583 74.1427C73.9453 70.5282 73.9453 66.9137 73.9583 63.2992C73.9583 62.9437 73.8606 62.8726 73.5282 62.9437C70.9678 63.4769 68.4053 64.0016 65.8408 64.5177C65.5191 64.5817 65.4106 64.6884 65.4142 65.0244C65.4293 66.8198 65.4204 68.6116 65.4204 70.4034L65.4222 70.3999Z" fill="#EDEDED"/>
    <path d="M61.2548 36.6438C61.2548 37.162 61.2423 37.681 61.2601 38.1983C61.2699 38.4801 61.1712 38.6427 60.8993 38.7218C58.3661 39.4684 55.833 40.2221 53.2999 40.9643C52.8256 41.0945 52.3234 41.0828 51.8556 40.9305C49.4185 40.2064 46.9852 39.4838 44.5558 38.7627C44.2127 38.6623 44.0456 38.5058 44.0572 38.113C44.0856 37.1353 44.0785 36.1576 44.0572 35.1799C44.051 34.8457 44.131 34.7835 44.4554 34.8822C46.7156 35.5692 48.9883 36.2154 51.2415 36.9264C52.1158 37.2122 53.0584 37.2122 53.9328 36.9264C56.1708 36.2296 58.4204 35.5683 60.6655 34.8937C60.7809 34.8684 60.8948 34.8369 61.0068 34.7995C61.2299 34.7035 61.2575 34.8208 61.2566 35.0004C61.2521 35.5488 61.2548 36.0963 61.2548 36.6438Z" fill="#EDEDED"/>
    <path d="M57.7289 65.8712C58.3359 65.9938 58.943 66.12 59.5509 66.2418C60.8673 66.5084 62.1845 66.7644 63.5008 67.032C63.7026 67.0737 64.003 67.0631 63.9186 67.4026C63.8483 67.6861 63.6057 67.6043 63.4057 67.5644C61.5259 67.1831 59.646 66.7982 57.7644 66.4213C57.5733 66.3831 57.4089 66.3449 57.4249 66.1058C57.4365 65.9156 57.5556 65.8569 57.7289 65.8712Z" fill="#EDEDED"/>
    <path d="M57.6745 68.6461C58.8877 68.8985 60.0005 69.1322 61.1142 69.3571C61.9239 69.5215 62.7363 69.6771 63.5469 69.8362C63.73 69.8726 63.9788 69.8549 63.9291 70.1437C63.8793 70.4326 63.6624 70.3979 63.442 70.3535C61.6768 69.998 59.9108 69.6424 58.1438 69.2869C57.9847 69.2558 57.8265 69.2202 57.6674 69.1874C57.4772 69.1482 57.3785 69.0434 57.4292 68.8416C57.4382 68.7842 57.4684 68.7323 57.5138 68.6961C57.5592 68.6599 57.6166 68.642 57.6745 68.6461Z" fill="#EDEDED"/>
    <path d="M63.5449 71.8157L58.6422 70.8255C58.3391 70.7642 58.0342 70.7082 57.7329 70.6362C57.5552 70.5935 57.3774 70.518 57.429 70.2807C57.4805 70.0434 57.6574 70.0665 57.8458 70.1029C59.771 70.4952 61.6944 70.8842 63.616 71.2699C63.8097 71.3082 63.9795 71.3464 63.9288 71.5908C63.888 71.7926 63.72 71.8112 63.5449 71.8157Z" fill="#EDEDED"/>
    <path d="M63.5376 66.2243C62.943 66.1096 62.2933 65.9897 61.6365 65.8572C60.3773 65.6012 59.1182 65.3408 57.859 65.076C57.6653 65.036 57.3942 65.0351 57.4359 64.7382C57.4839 64.3942 57.7648 64.5062 57.9692 64.5462C59.8535 64.9213 61.736 65.3062 63.6194 65.6866C63.7856 65.7195 63.9563 65.7497 63.9429 65.9692C63.9296 66.1887 63.7812 66.2341 63.5376 66.2243Z" fill="#EDEDED"/>
    <path d="M63.5532 69.0121C62.6946 68.8495 61.8529 68.7001 61.0147 68.5295C59.9482 68.3117 58.8816 68.0771 57.815 67.8513C57.607 67.8078 57.3706 67.7767 57.4373 67.4816C57.4986 67.2043 57.7297 67.2843 57.9083 67.3198C59.8015 67.6985 61.6938 68.0815 63.5852 68.4691C63.7469 68.5019 63.962 68.5037 63.9345 68.7713C63.9069 69.0388 63.7114 69.0014 63.5532 69.0121Z" fill="#EDEDED"/>
    <path d="M63.5248 73.1686C62.8297 73.0317 62.0769 72.8869 61.3268 72.7349C60.142 72.494 58.959 72.2469 57.7715 72.0069C57.5706 71.9661 57.3742 71.9287 57.4293 71.6568C57.4844 71.3848 57.7102 71.4399 57.8906 71.479C59.8134 71.8641 61.735 72.252 63.6554 72.6425C63.811 72.6744 63.9461 72.7313 63.9301 72.9242C63.915 73.1366 63.7594 73.1704 63.5248 73.1686Z" fill="#EDEDED"/>
    <path d="M63.5713 74.5943C62.6229 74.4166 61.6648 74.2388 60.7093 74.0424C59.7396 73.8468 58.7735 73.6335 57.8047 73.4318C57.6074 73.3909 57.4003 73.3553 57.4332 73.0922C57.4696 72.8069 57.6998 72.8594 57.8829 72.8958C59.8092 73.2798 61.735 73.6667 63.6602 74.0566C63.8166 74.0877 63.9526 74.1508 63.9348 74.3401C63.9135 74.5508 63.7553 74.5899 63.5713 74.5943Z" fill="#EDEDED"/>
    <path d="M66.8114 71.8122C66.6665 71.8051 66.4977 71.7793 66.4817 71.566C66.463 71.318 66.6648 71.2994 66.8372 71.2612C68.27 70.9732 69.703 70.6864 71.1364 70.4008C71.571 70.3119 72.003 70.2168 72.4367 70.1288C72.6456 70.087 72.9113 69.9626 72.97 70.3012C73.0286 70.6399 72.7256 70.6203 72.5256 70.6621C71.051 70.9678 69.5756 71.2656 68.1002 71.5642C67.6789 71.6487 67.2585 71.726 66.8114 71.8122Z" fill="#EDEDED"/>
    <path d="M66.8654 66.2516C66.6823 66.2356 66.5188 66.209 66.485 66.0028C66.4512 65.7966 66.6121 65.7272 66.781 65.6926L72.5511 64.5265C72.7351 64.4891 72.9146 64.4678 72.9804 64.7042C73.032 64.8935 72.9093 64.9895 72.7556 65.0224C70.7913 65.436 68.8279 65.8457 66.8654 66.2516Z" fill="#EDEDED"/>
    <path d="M66.7706 67.6053C66.6195 67.6053 66.4897 67.5636 66.4809 67.3663C66.472 67.1512 66.6177 67.0925 66.7884 67.0587C67.4106 66.9361 68.0327 66.817 68.6549 66.6908C69.9401 66.4294 71.225 66.1658 72.5097 65.8997C72.707 65.8588 72.9123 65.8108 72.9772 66.0686C73.0421 66.3263 72.8234 66.3877 72.635 66.4241C70.7294 66.8128 68.8229 67.198 66.9155 67.5796C66.871 67.5902 66.8266 67.5965 66.7706 67.6053Z" fill="#EDEDED"/>
    <path d="M66.7963 70.3952C66.6469 70.3952 66.5047 70.3685 66.4798 70.1774C66.4541 69.9694 66.5829 69.8912 66.7643 69.8566C67.4318 69.7277 68.0975 69.5988 68.765 69.4628C70.0093 69.2104 71.2536 68.9526 72.498 68.6976C72.6864 68.6593 72.8988 68.5847 72.9682 68.8593C73.0375 69.134 72.8108 69.182 72.6269 69.2148C70.7165 69.6071 68.805 69.9946 66.8923 70.3774C66.8656 70.3881 66.8363 70.3898 66.7963 70.3952Z" fill="#EDEDED"/>
    <path d="M66.8226 73.1668C66.6448 73.1766 66.4831 73.1562 66.4786 72.9286C66.4724 72.6504 66.7079 72.654 66.883 72.6184C68.2296 72.3465 69.5788 72.0852 70.9262 71.8185C71.4764 71.7083 72.0239 71.583 72.5741 71.4719C72.7599 71.4346 72.9501 71.4443 72.9829 71.6861C73.0114 71.8896 72.8701 71.9669 72.6914 72.0034L66.9541 73.1517C66.9115 73.1606 66.8653 73.1615 66.8226 73.1668Z" fill="#EDEDED"/>
    <path d="M66.8223 69.0151C66.6783 68.9991 66.513 69.0009 66.4863 68.8044C66.4535 68.5609 66.633 68.5111 66.8161 68.4756C67.7138 68.2978 68.6142 68.1334 69.511 67.9512C70.5233 67.7459 71.533 67.5281 72.5436 67.313C72.7302 67.273 72.9116 67.2526 72.9764 67.4828C73.0413 67.713 72.8662 67.7983 72.684 67.8383C70.7606 68.2276 68.837 68.6151 66.913 69.0009C66.8845 69.0044 66.8552 69.0089 66.8223 69.0151Z" fill="#EDEDED"/>
    <path d="M66.8281 74.5859C66.6797 74.5859 66.5135 74.5859 66.4806 74.3637C66.4477 74.1415 66.6228 74.0837 66.7783 74.0526C68.7171 73.6598 70.6568 73.2711 72.5974 72.8865C72.7751 72.8519 72.9342 72.8732 72.9787 73.0812C73.0231 73.2892 72.8898 73.3763 72.712 73.4127L66.9348 74.5753C66.9099 74.5806 66.8797 74.5806 66.8281 74.5859Z" fill="#EDEDED"/>
    </g>
    <defs>
    <filter id="filter0_d_792_31776" x="0.683594" y="0" width="110" height="110" filterUnits="userSpaceOnUse" color-interpolation-filters="sRGB">
    <feFlood flood-opacity="0" result="BackgroundImageFix"/>
    <feColorMatrix in="SourceAlpha" type="matrix" values="0 0 0 0 0 0 0 0 0 0 0 0 0 0 0 0 0 0 127 0" result="hardAlpha"/>
    <feOffset dy="2"/>
    <feGaussianBlur stdDeviation="2.5"/>
    <feComposite in2="hardAlpha" operator="out"/>
    <feColorMatrix type="matrix" values="0 0 0 0 0.558333 0 0 0 0 0.0628125 0 0 0 0 0.0628127 0 0 0 1 0"/>
    <feBlend mode="normal" in2="BackgroundImageFix" result="effect1_dropShadow_792_31776"/>
    <feBlend mode="normal" in="SourceGraphic" in2="effect1_dropShadow_792_31776" result="shape"/>
    </filter>
    <clipPath id="clip0_792_31776">
    <rect width="40.2658" height="50" fill="white" transform="translate(35.6836 28)"/>
    </clipPath>
    </defs>
    </svg>
    