<svg width="111" height="110" viewBox="0 0 111 110" fill="none" xmlns="http://www.w3.org/2000/svg">
    <g filter="url(#filter0_d_792_31731)">
    <circle cx="55.6836" cy="53" r="50" fill="#EDEDED" fill-opacity="0.02" shape-rendering="crispEdges"/>
    </g>
    <g clip-path="url(#clip0_792_31731)">
    <path d="M48.6407 68.4754C48.6407 70.957 48.6407 73.4382 48.6407 75.9191C48.6407 77.2544 47.9124 77.9919 46.5864 77.996C44.1562 78.0021 41.7253 78.0021 39.2937 77.996C39.0547 78.0026 38.8158 77.9764 38.584 77.9179C38.1094 77.7803 37.8444 77.5338 37.8475 76.9401C37.8763 72.0293 37.8639 67.1176 37.8639 62.2058V61.8463C37.8588 61.1807 37.6842 60.9219 37.2425 60.9219C36.8009 60.9219 36.6201 61.193 36.6201 61.8463C36.6201 65.697 36.6098 69.5498 36.6324 73.3985C36.6324 73.8309 36.4896 73.986 36.1045 74.0918C34.2864 74.592 32.4129 73.3009 32.2096 71.3853C32.1895 71.1805 32.1802 70.9748 32.1818 70.769C32.1818 66.729 32.1818 62.6889 32.1818 58.6488C32.1818 56.7404 32.9666 55.2829 34.6973 54.3995C35.3968 54.0421 36.1558 53.9301 36.9344 53.9301C41.1456 53.9301 45.3569 53.924 49.5682 53.9394C49.7871 53.9516 50.0058 53.9104 50.2053 53.8193C50.4048 53.7282 50.5792 53.59 50.7134 53.4166C52.5366 51.2596 54.3823 49.1262 56.2209 46.9846C56.6657 46.4711 57.1864 46.0602 57.8736 45.9267C58.0677 45.8877 58.1406 45.8168 58.1817 45.6052C58.5926 43.44 59.0147 41.2768 59.4585 39.1178C59.5257 38.8046 59.7088 38.5285 59.9711 38.3446C60.2334 38.1608 60.5555 38.0829 60.8728 38.1266C61.0389 38.1503 61.1985 38.2076 61.3417 38.2951C61.4848 38.3827 61.6086 38.4985 61.7055 38.6355C61.8023 38.7725 61.8701 38.9279 61.9048 39.0921C61.9395 39.2563 61.9403 39.4258 61.9072 39.5903C61.599 41.2892 61.2559 42.9798 60.9098 44.6726C60.7978 45.2221 60.7732 45.8024 60.4989 46.3067C60.3962 46.505 60.5339 46.583 60.6325 46.6929C61.7901 47.9953 61.865 49.3635 60.803 50.7316C58.5741 53.6138 56.3267 56.4836 54.0927 59.3596C53.8704 59.6643 53.5754 59.9085 53.2345 60.07C52.8936 60.2315 52.5177 60.305 52.1411 60.284C51.1315 60.2614 50.1208 60.2974 49.1121 60.2686C48.7228 60.2583 48.6294 60.3713 48.6314 60.7555C48.6489 63.3408 48.6407 65.9086 48.6407 68.4754Z" fill="#EDEDED"/>
    <path d="M65.7562 30.5267H56.0498C54.7812 30.5267 54.3457 30.955 54.3457 32.2101C54.3457 36.1982 54.3457 40.1869 54.3457 44.1763C54.3457 45.0144 54.1167 45.416 53.5435 45.6307C52.7383 45.9317 51.9504 45.4643 51.8364 44.6138C51.8236 44.4773 51.8195 44.3401 51.8241 44.203C51.8241 40.1458 51.8241 36.0886 51.8241 32.0314C51.8241 30.3952 52.502 29.1667 53.9554 28.3892C54.5614 28.0646 55.2301 28.0071 55.8988 28.0061C62.4724 28.0006 69.0461 28.0006 75.6198 28.0061C78.1332 28.0112 79.6801 29.5848 79.6821 32.093C79.6862 38.2394 79.6862 44.3851 79.6821 50.5301C79.6821 52.5423 78.6745 53.9197 76.8123 54.4785C76.4014 54.6038 75.968 54.6099 75.5417 54.611C71.553 54.6164 67.5646 54.6164 63.5766 54.611C63.2346 54.611 62.8895 54.6233 62.5834 54.424C62.0832 54.0984 61.8541 53.5489 61.9938 53.0066C62.1427 52.4324 62.6203 52.076 63.3065 52.0739C66.7303 52.0678 70.1541 52.0678 73.5778 52.0739C74.2968 52.0739 75.0158 52.0821 75.7348 52.0739C76.6469 52.0595 77.1369 51.5871 77.1379 50.6688C77.1454 44.4375 77.1454 38.2062 77.1379 31.9749C77.1379 30.993 76.65 30.5308 75.6712 30.5308C72.3645 30.526 69.0595 30.5246 65.7562 30.5267Z" fill="#EDEDED"/>
    <path d="M49.2735 45.11C49.269 46.4853 48.8573 47.8284 48.0903 48.97C47.3233 50.1115 46.2355 51.0004 44.9639 51.5243C43.6923 52.0483 42.2941 52.1839 40.9455 51.914C39.597 51.6442 38.3586 50.981 37.3865 50.0081C36.4145 49.0352 35.7524 47.7962 35.4837 46.4474C35.2151 45.0986 35.3519 43.7005 35.877 42.4294C36.4021 41.1583 37.2918 40.0712 38.4341 39.3052C39.5763 38.5392 40.9198 38.1287 42.2951 38.1255C43.2123 38.1245 44.1206 38.3046 44.9681 38.6553C45.8156 39.0061 46.5856 39.5206 47.2338 40.1695C47.8821 40.8183 48.396 41.5887 48.746 42.4365C49.0959 43.2843 49.2752 44.1928 49.2735 45.11Z" fill="#EDEDED"/>
    <path d="M65.7548 33.0731C68.2685 33.0731 70.7823 33.0731 73.296 33.0731C73.9513 33.0731 74.3899 33.4038 74.5635 33.9852C74.6383 34.2414 74.6297 34.5147 74.5389 34.7657C74.448 35.0166 74.2797 35.2321 74.0582 35.3811C73.8281 35.5327 73.5559 35.6078 73.2806 35.5957C68.2538 35.5957 63.227 35.5957 58.2002 35.5957C57.4196 35.5957 56.8649 35.04 56.8731 34.3272C56.8814 33.6144 57.435 33.0792 58.2146 33.0792C60.728 33.069 63.2414 33.0731 65.7548 33.0731Z" fill="#EDEDED"/>
    <path d="M68.9227 45.7272C70.3422 45.7272 71.7617 45.7272 73.1812 45.7272C74.0368 45.7272 74.6192 46.2408 74.6192 46.9937C74.6192 47.7466 74.0368 48.2807 73.1915 48.2807C70.3525 48.2855 67.5131 48.2855 64.6734 48.2807C63.7726 48.2807 63.2067 47.7671 63.2169 46.9844C63.2272 46.2244 63.788 45.7334 64.6631 45.7313C66.0826 45.7241 67.5011 45.7272 68.9227 45.7272Z" fill="#EDEDED"/>
    <path d="M68.9258 41.9333C67.5063 41.9333 66.0868 41.9333 64.6673 41.9333C63.786 41.9333 63.2293 41.4505 63.217 40.6935C63.2057 39.915 63.7696 39.3973 64.6714 39.3952C67.5104 39.3891 70.3494 39.3891 73.1884 39.3952C74.0399 39.3952 74.6202 39.9294 74.6192 40.672C74.6182 41.4146 74.0471 41.9313 73.1812 41.9333C71.7648 41.9354 70.3453 41.9333 68.9258 41.9333Z" fill="#EDEDED"/>
    </g>
    <defs>
    <filter id="filter0_d_792_31731" x="0.683594" y="0" width="110" height="110" filterUnits="userSpaceOnUse" color-interpolation-filters="sRGB">
    <feFlood flood-opacity="0" result="BackgroundImageFix"/>
    <feColorMatrix in="SourceAlpha" type="matrix" values="0 0 0 0 0 0 0 0 0 0 0 0 0 0 0 0 0 0 127 0" result="hardAlpha"/>
    <feOffset dy="2"/>
    <feGaussianBlur stdDeviation="2.5"/>
    <feComposite in2="hardAlpha" operator="out"/>
    <feColorMatrix type="matrix" values="0 0 0 0 1 0 0 0 0 0.337255 0 0 0 0 0 0 0 0 1 0"/>
    <feBlend mode="normal" in2="BackgroundImageFix" result="effect1_dropShadow_792_31731"/>
    <feBlend mode="normal" in="SourceGraphic" in2="effect1_dropShadow_792_31731" result="shape"/>
    </filter>
    <clipPath id="clip0_792_31731">
    <rect width="47.4958" height="50" fill="white" transform="translate(32.1836 28)"/>
    </clipPath>
    </defs>
    </svg>
    