<svg width="111" height="110" viewBox="0 0 111 110" fill="none" xmlns="http://www.w3.org/2000/svg">
    <g filter="url(#filter0_d_792_31750)">
    <circle cx="55.6836" cy="53" r="50" fill="#EDEDED" fill-opacity="0.02" shape-rendering="crispEdges"/>
    </g>
    <g clip-path="url(#clip0_792_31750)">
    <path d="M55.3517 28.0028C61.1401 27.9406 66.7176 29.1081 71.9152 31.8531C76.4115 34.2274 80.102 37.4989 82.7124 41.9057C83.8154 43.7615 84.6314 45.7733 85.1329 47.873C85.2414 48.3302 85.167 48.3945 84.6767 48.286C82.0643 47.7052 79.467 47.7535 76.9079 48.5874C75.6861 48.9893 74.5748 49.5701 73.7057 50.5588C73.1772 51.1616 72.5462 51.2028 72.072 50.6512C70.9486 49.345 69.4596 48.6979 67.852 48.3091C65.3554 47.6881 62.7375 47.7534 60.275 48.498C58.9689 48.8929 57.7631 49.4877 56.8247 50.5367C56.2068 51.2259 55.6642 51.1968 55.0493 50.5236C53.8556 49.2174 52.2962 48.6065 50.6233 48.2468C48.0029 47.6821 45.4086 47.7796 42.8635 48.6668C41.695 49.0747 40.653 49.6856 39.8181 50.618C39.3448 51.1445 38.7721 51.1968 38.335 50.7185C36.5888 48.8095 34.2939 48.2066 31.8503 47.9625C30.305 47.8047 28.7787 47.9474 27.2636 48.2739C26.6466 48.4066 26.6125 48.3624 26.7612 47.7585C27.7217 43.9113 29.6107 40.5674 32.3075 37.6837C37.0037 32.6599 42.8635 29.8305 49.5552 28.5796C51.4482 28.2249 53.3633 28.0682 55.3517 28.0028Z" fill="#EDEDED"/>
    <path d="M56.8954 73.6044C57.2762 71.9817 57.662 70.36 58.0358 68.7353C58.2528 67.7908 58.4507 66.8413 58.6597 65.8938C58.723 65.6095 58.8436 65.3643 59.147 65.6738C60.3889 66.9398 62.0257 67.5266 63.568 68.2671C64.8953 68.9041 64.8852 68.889 64.619 70.3027C64.4341 71.2874 64.1638 72.263 64.1709 73.2748C64.1779 74.2866 64.4663 75.2231 65.1304 76.0048C65.3082 76.2148 65.2681 76.3323 65.1234 76.5072C64.8577 76.8541 64.5216 77.141 64.1371 77.3488C63.7527 77.5566 63.3286 77.6807 62.8928 77.7129C58.3031 78.0882 53.6906 78.0912 49.1004 77.7219C48.6477 77.6927 48.2061 77.5693 47.8038 77.3596C47.4016 77.1499 47.0475 76.8586 46.7643 76.5041C46.6156 76.3223 46.5634 76.2027 46.7312 75.9967C47.7892 74.6905 47.9279 73.2206 47.5179 71.6381C47.3471 70.9759 47.2667 70.2917 47.1301 69.6205C46.9784 68.873 47.0196 68.7735 47.7329 68.4349C48.5478 68.0491 49.3516 67.6361 50.1835 67.2915C51.113 66.9056 51.8826 66.3048 52.6312 65.6587C53.021 65.3221 53.1044 65.3653 53.2209 65.8798C53.7776 68.3214 54.3372 70.7619 54.8999 73.2015C54.924 73.302 54.8909 73.4456 55.0908 73.521C55.126 72.883 55.1652 72.263 55.1913 71.6431C55.2415 70.4896 55.2616 69.3321 55.344 68.1817C55.3847 67.7166 55.2555 67.2526 54.9803 66.8755C54.8366 66.6695 54.5633 66.4565 54.7291 66.1722C54.8949 65.8878 55.2164 66.0325 55.4696 66.0214C55.8715 66.0024 56.2734 66.0044 56.6753 66.0214C57.1847 66.0425 57.3636 66.3128 57.0531 66.6866C56.5105 67.3407 56.4864 68.0651 56.5347 68.8499C56.6351 70.4304 56.6904 72.0128 56.7647 73.5943L56.8954 73.6044Z" fill="#EDEDED"/>
    <path d="M37.0552 72.3351C37.0552 70.6149 37.0602 68.8948 37.0552 67.1756C37.0552 66.835 36.7678 66.621 36.609 66.3517C36.391 65.981 36.4714 65.781 36.8964 65.7579C37.3649 65.7317 37.8345 65.7317 38.3031 65.7579C38.6507 65.777 38.8316 66.0131 38.5794 66.2934C38.0881 66.84 38.1122 67.465 38.1514 68.1211C38.2347 69.5067 38.2981 70.8922 38.3724 72.315C38.6156 72.1854 38.5794 71.9563 38.6186 71.7845C39.0818 69.7659 39.5329 67.7453 39.985 65.7247C40.0514 65.4324 40.1699 65.1892 40.4643 65.5027C41.5183 66.624 42.9421 67.1274 44.2694 67.7765C45.0169 68.1422 45.4459 68.6205 45.5635 69.4574C45.7102 70.4974 45.9553 71.5232 46.1503 72.5561C46.4718 74.2642 45.3977 75.7925 43.6715 75.9562C40.2232 76.2919 36.7524 76.3309 33.2973 76.0728C32.7136 76.0276 32.1278 76.0015 31.5491 75.9201C30.1123 75.7191 29.1195 74.5134 29.2381 73.0645C29.3567 71.6157 29.6541 70.1879 29.9344 68.7621C29.9907 68.4798 30.1796 68.301 30.4368 68.1754C31.0216 67.889 31.5933 67.5725 32.1861 67.3042C33.1168 66.8878 33.9819 66.3381 34.7543 65.6725C35.1752 65.3098 35.2566 65.352 35.3822 65.9016C35.835 67.887 36.2842 69.8727 36.7296 71.8588C36.7658 72.0176 36.814 72.1733 36.8562 72.3301L37.0552 72.3351Z" fill="#EDEDED"/>
    <path d="M73.4942 72.3885C73.5575 70.7025 73.6178 69.0476 73.6831 67.3928C73.6992 66.9989 73.4038 66.7638 73.2309 66.4664C73.0089 66.0856 73.0822 65.8746 73.4992 65.8475C73.9676 65.8173 74.4375 65.8173 74.9059 65.8475C75.2957 65.8716 75.4324 66.1288 75.1802 66.4142C74.6949 66.9628 74.712 67.5827 74.7582 68.2448C74.8396 69.4134 74.8818 70.5839 74.943 71.7545C74.9541 71.9554 74.929 72.1564 75.0385 72.3734C75.2395 72.1041 75.2555 71.7937 75.3208 71.5103C75.7479 69.6545 76.1598 67.7927 76.5758 65.9369C76.7054 65.3571 76.8159 65.2979 77.2158 65.7158C78.2337 66.7819 79.6142 67.217 80.8792 67.8389C81.5886 68.1876 81.9603 68.6528 82.0849 69.4174C82.2587 70.5226 82.523 71.6128 82.6878 72.719C82.9319 74.3548 81.9241 75.7333 80.2763 75.9343C77.68 76.2438 75.0676 76.288 72.4553 76.2086C71.1491 76.1684 69.8429 76.095 68.5467 75.9895C66.6487 75.8348 65.5043 74.3427 65.8168 72.4729C66.0047 71.3516 66.2187 70.2333 66.3915 69.1109C66.4218 68.8612 66.5184 68.6241 66.6715 68.4244C66.8245 68.2247 67.0283 68.0697 67.2616 67.9756C67.9449 67.6641 68.612 67.3134 69.3073 67.0331C70.0539 66.7317 70.6447 66.2293 71.2385 65.7118C71.7027 65.3099 71.7831 65.3511 71.9157 65.9429C72.3729 67.9796 72.8391 70.0142 73.3013 72.0489C73.3244 72.1604 73.3153 72.287 73.4942 72.3885Z" fill="#EDEDED"/>
    <path d="M59.7536 56.0511C59.7686 56.4108 59.641 56.7997 60.1233 57.0117C60.3524 57.1121 60.3243 57.4075 60.271 57.6477C60.1344 58.2324 60.1183 58.8835 59.839 59.3899C59.0442 60.8338 58.5207 62.4816 57.1422 63.5275C56.1304 64.2952 54.8101 64.0571 54.0124 63.0694C53.6132 62.5748 53.2632 62.0424 52.9674 61.4798C52.3495 60.3063 51.618 59.186 51.2874 57.8727C51.1799 57.4457 51.1026 57.079 51.5889 56.8569C51.7737 56.7735 51.7406 56.6138 51.7346 56.4711C51.7139 56.0531 51.7311 55.6341 51.7858 55.2192C51.9144 54.2465 52.4268 53.5111 53.304 53.1212C54.8202 52.438 56.3977 52.444 57.944 53.0057C59.1929 53.4618 59.7425 54.4666 59.7536 56.0511Z" fill="#EDEDED"/>
    <path d="M33.8179 58.6635C33.8018 58.3902 33.8118 58.1963 33.9917 58.133C34.2931 58.0265 34.265 57.8135 34.262 57.5703C34.2328 55.6332 34.9834 54.7369 36.8975 54.4556C37.6779 54.3355 38.4749 54.381 39.2365 54.5892C40.4774 54.9348 41.1305 55.7809 41.1687 57.071C41.1818 57.489 40.9899 57.9753 41.5324 58.2496C41.6028 58.2847 41.652 58.4776 41.6239 58.5711C41.4008 59.3026 41.434 60.0782 40.9145 60.7645C40.4603 61.3613 40.1599 62.0948 39.7651 62.7549C39.4636 63.2573 39.0165 63.62 38.5433 63.9235C37.9705 64.2902 37.3707 64.1827 36.7859 63.8571C36.0103 63.4251 35.5953 62.6966 35.1964 61.9632C34.681 61.0147 33.9455 60.1546 33.8802 59.0071C33.8688 58.8911 33.848 58.7762 33.8179 58.6635Z" fill="#EDEDED"/>
    <path d="M74.206 54.4112C74.646 54.3959 75.0864 54.4317 75.5182 54.5177C76.8957 54.801 77.6543 55.7043 77.6905 57.112C77.7006 57.527 77.58 57.9691 78.0532 58.2584C78.21 58.3589 78.1678 58.6001 78.1286 58.7799C77.7346 60.6925 76.7464 62.4318 75.3052 63.7495C74.7435 64.2659 74.0362 64.2518 73.361 63.8791C72.3381 63.3124 71.9794 62.2494 71.3615 61.3672C70.7908 60.5583 70.5135 59.6752 70.3507 58.7267C70.3075 58.4765 70.2874 58.2132 70.5336 58.1127C70.8029 58.0022 70.8119 57.8374 70.7958 57.6104C70.62 55.1989 72.1673 54.4956 73.9227 54.4082C74.0563 54.4062 74.1899 54.4112 74.206 54.4112Z" fill="#EDEDED"/>
    </g>
    <defs>
    <filter id="filter0_d_792_31750" x="0.683594" y="0" width="110" height="110" filterUnits="userSpaceOnUse" color-interpolation-filters="sRGB">
    <feFlood flood-opacity="0" result="BackgroundImageFix"/>
    <feColorMatrix in="SourceAlpha" type="matrix" values="0 0 0 0 0 0 0 0 0 0 0 0 0 0 0 0 0 0 127 0" result="hardAlpha"/>
    <feOffset dy="2"/>
    <feGaussianBlur stdDeviation="2.5"/>
    <feComposite in2="hardAlpha" operator="out"/>
    <feColorMatrix type="matrix" values="0 0 0 0 1 0 0 0 0 0.501961 0 0 0 0 0.00392157 0 0 0 1 0"/>
    <feBlend mode="normal" in2="BackgroundImageFix" result="effect1_dropShadow_792_31750"/>
    <feBlend mode="normal" in="SourceGraphic" in2="effect1_dropShadow_792_31750" result="shape"/>
    </filter>
    <clipPath id="clip0_792_31750">
    <rect width="58.4973" height="50" fill="white" transform="translate(26.6836 28)"/>
    </clipPath>
    </defs>
    </svg>
    