<svg width="40" height="31" viewBox="0 0 40 31" fill="none" xmlns="http://www.w3.org/2000/svg">
<path d="M0.00373509 12.6015C-0.155308 5.59199 5.54923 -0.129795 12.5734 0.00224018C19.297 0.129024 24.6794 5.57436 24.6962 12.2932C24.7139 19.2247 19.0322 24.7777 12.1247 24.6557C5.40106 24.5372 0.128644 19.1148 0.00373509 12.6015Z" fill="#D82F2C"/>
<path d="M15.3079 12.6015C15.1489 5.59199 20.8534 -0.129795 27.8776 0.00224018C34.6012 0.129024 39.9836 5.57436 40.0004 12.2932C40.0181 19.2247 34.3364 24.7777 27.4289 24.6557C20.7053 24.5372 15.4328 19.1148 15.3079 12.6015Z" fill="#FF8001"/>
<path d="M2.06315 29.2278C2.06315 28.7529 2.06728 28.2777 2.06053 27.8024C2.05828 27.6471 2.11229 27.583 2.26758 27.5991C2.34245 27.6059 2.41778 27.6059 2.49264 27.5991C2.66144 27.586 2.7991 27.6021 2.75859 27.8294C2.75372 27.8587 2.75259 27.8958 2.7856 27.9127C2.82836 27.9348 2.85087 27.8984 2.87937 27.8752C3.49229 27.3549 4.17647 27.3924 4.73012 27.9926C4.83402 28.1051 4.87041 28.0301 4.92667 27.9611C5.4023 27.377 6.34231 27.4487 6.75829 27.7567C6.90961 27.8641 7.033 28.0062 7.11816 28.1711C7.20332 28.336 7.24777 28.5189 7.2478 28.7045C7.26318 29.373 7.25305 30.0418 7.25718 30.7106C7.25718 30.8317 7.20729 30.8801 7.08838 30.8752C6.96968 30.869 6.85074 30.869 6.73204 30.8752C6.58199 30.8842 6.53886 30.8148 6.54036 30.6731C6.54599 30.1479 6.54298 29.6228 6.54036 29.0976C6.54191 29.0225 6.53853 28.9473 6.53023 28.8726C6.47096 28.4097 6.20164 28.167 5.77403 28.188C5.34641 28.209 5.03208 28.5091 5.02158 28.9442C5.0092 29.4566 5.01782 29.9694 5.01782 30.4821C5.01782 30.9285 5.04558 30.8696 4.62359 30.8722C4.295 30.8745 4.29425 30.8722 4.29388 30.5515C4.29388 30.0264 4.30026 29.5012 4.29388 28.9761C4.28413 28.3688 3.85989 28.0609 3.28336 28.2372C3.01254 28.3197 2.86775 28.5215 2.80398 28.7889C2.74996 29.017 2.76909 29.2496 2.76647 29.4802C2.76197 29.8803 2.76197 30.2805 2.76647 30.6806C2.76647 30.8111 2.73196 30.8771 2.58717 30.8745C1.9645 30.8632 2.06953 30.9551 2.06203 30.3704C2.0594 29.9904 2.06315 29.6093 2.06315 29.2278Z" fill="#EDEDED"/>
<path d="M38.0435 28.5738C38.0435 29.2674 38.0386 29.9617 38.0465 30.6545C38.0488 30.8289 37.9887 30.8953 37.8184 30.8762C37.75 30.869 37.681 30.869 37.6125 30.8762C37.4388 30.8927 37.3158 30.869 37.3424 30.6425C37.3559 30.5258 37.2824 30.5577 37.2299 30.6117C36.7922 31.072 35.9268 31.0397 35.4005 30.7003C34.7692 30.2925 34.4905 29.3761 34.7737 28.5956C34.8989 28.2449 35.1414 27.9483 35.4601 27.7559C35.7789 27.5635 36.1543 27.4871 36.5228 27.5397C36.773 27.5704 37.0076 27.6775 37.1946 27.8465C37.2292 27.8772 37.2573 27.941 37.3154 27.9114C37.3736 27.8817 37.3428 27.8221 37.3432 27.7748C37.3432 27.3499 37.3488 26.9249 37.3432 26.4995C37.3409 26.3532 37.3751 26.2891 37.539 26.2891C38.0439 26.2891 38.0439 26.2819 38.0439 26.7932C38.0451 27.3866 38.045 27.9801 38.0435 28.5738ZM36.4006 30.2951C36.9726 30.2906 37.3946 29.8353 37.3916 29.225C37.3886 28.6368 36.949 28.1856 36.3826 28.1893C35.8042 28.1931 35.3957 28.6394 35.399 29.2621C35.4028 29.8627 35.8267 30.3 36.4006 30.2951Z" fill="#EDEDED"/>
<path d="M31.4289 29.2406C31.4289 29.7151 31.4232 30.19 31.4319 30.666C31.4349 30.8333 31.3715 30.8933 31.2117 30.8783C31.1308 30.8719 31.0495 30.8719 30.9686 30.8783C30.8145 30.8888 30.7027 30.8756 30.7128 30.6671C30.7207 30.5013 30.6254 30.5984 30.5778 30.6427C30.0275 31.1528 28.9082 31.0617 28.3718 30.3119C27.7217 29.403 28.0455 28.0793 29.0421 27.6588C29.5755 27.4337 30.1044 27.4566 30.5721 27.8527C30.6048 27.8801 30.6348 27.9311 30.6802 27.9146C30.7391 27.8932 30.7229 27.8287 30.7177 27.7826C30.7034 27.6396 30.7709 27.595 30.9052 27.6025C31.0237 27.6089 31.1424 27.6089 31.2608 27.6025C31.3917 27.5961 31.4334 27.652 31.4319 27.7807C31.4255 28.2661 31.4292 28.7533 31.4289 29.2406ZM28.7735 29.2406C28.7702 29.8486 29.1809 30.2909 29.754 30.2942C30.3347 30.2984 30.7559 29.8606 30.7638 29.244C30.7717 28.6569 30.3381 28.1937 29.7766 28.1869C29.197 28.1805 28.7769 28.6235 28.7735 29.2413V29.2406Z" fill="#EDEDED"/>
<path d="M11.2767 29.2304V30.598C11.2767 30.8719 11.2767 30.8719 11.0141 30.8734C10.9455 30.8734 10.8765 30.8692 10.8078 30.8734C10.6578 30.8846 10.5513 30.8595 10.5719 30.6648C10.5828 30.5613 10.5314 30.5489 10.4496 30.619C9.95373 31.044 9.39333 31.0515 8.83668 30.8025C8.28003 30.5534 7.9762 30.0725 7.91281 29.4649C7.82728 28.646 8.16975 27.981 8.85506 27.6738C9.41246 27.4236 9.96085 27.4461 10.4504 27.8613C10.4785 27.8849 10.5018 27.9284 10.5419 27.9123C10.5925 27.8921 10.5794 27.8373 10.576 27.7964C10.5561 27.6359 10.6327 27.5965 10.782 27.595C11.2782 27.5905 11.2782 27.586 11.279 28.0856C11.279 28.4665 11.279 28.8473 11.279 29.2282L11.2767 29.2304ZM8.63075 29.2484C8.63975 29.8718 9.05461 30.304 9.63489 30.2946C10.2035 30.2856 10.6203 29.8332 10.6102 29.2349C10.6004 28.6171 10.1769 28.1775 9.60188 28.1876C9.02685 28.1978 8.62175 28.6453 8.63075 29.2492V29.2484Z" fill="#EDEDED"/>
<path d="M20.4818 29.514C20.1322 29.514 19.7822 29.5174 19.4315 29.514C19.2859 29.514 19.2612 29.5703 19.3032 29.6993C19.4446 30.1359 19.9154 30.4019 20.4157 30.3175C20.6453 30.28 20.8681 30.2136 21.0587 30.0748C21.1674 29.9956 21.2383 30.0125 21.2969 30.1273C21.3093 30.1489 21.3231 30.1697 21.3381 30.1896C21.5767 30.5444 21.5793 30.5549 21.1978 30.7398C20.6753 30.9934 20.1258 31.0441 19.5774 30.8524C18.8895 30.6131 18.5882 30.0763 18.5245 29.3786C18.4348 28.3925 19.0744 27.5984 20.0159 27.5301C20.8985 27.4663 21.5988 28.0552 21.6877 28.9401C21.7459 29.5144 21.7458 29.5144 21.1738 29.514H20.4818ZM20.1359 28.9592C20.3539 28.9592 20.5722 28.9529 20.7901 28.9592C20.9431 28.9652 20.9728 28.9052 20.9356 28.7683C20.8314 28.3842 20.523 28.1505 20.1217 28.1592C19.7203 28.1678 19.3861 28.4303 19.3002 28.7968C19.2732 28.9116 19.3051 28.9604 19.4258 28.9585C19.6625 28.9566 19.8992 28.9592 20.1359 28.9592Z" fill="#EDEDED"/>
<path d="M13.5388 27.5254C13.9312 27.5325 14.3078 27.6053 14.6641 27.7797C14.7766 27.8352 14.8111 27.8971 14.7391 28.0104C14.6615 28.1304 14.6213 28.2955 14.5141 28.3712C14.3869 28.462 14.2586 28.3003 14.1258 28.2636C13.8456 28.1859 13.5658 28.1342 13.2751 28.1781C13.1812 28.1878 13.0911 28.2202 13.0125 28.2726C12.9161 28.3424 12.8516 28.4313 12.8599 28.5562C12.8685 28.6882 12.9604 28.7523 13.0711 28.7921C13.3385 28.8878 13.6243 28.8863 13.8989 28.944C14.0587 28.9739 14.2144 29.0229 14.3625 29.0899C14.6731 29.24 14.8689 29.4692 14.8877 29.8274C14.906 30.2025 14.7624 30.4988 14.4458 30.7014C14.0156 30.9763 13.5336 30.9838 13.0497 30.9384C12.7246 30.9084 12.4105 30.8058 12.1303 30.6384C12.0065 30.5633 11.9964 30.4951 12.0733 30.3848C12.1502 30.2745 12.1956 30.1095 12.301 30.0498C12.424 29.98 12.538 30.1421 12.6626 30.1894C13.0283 30.3278 13.4 30.3769 13.7841 30.2891C13.839 30.2775 13.8921 30.2586 13.942 30.2329C14.0624 30.1683 14.1626 30.0828 14.1536 29.9294C14.1446 29.776 14.0362 29.6961 13.9049 29.6578C13.7665 29.6199 13.6258 29.5911 13.4837 29.5716C13.2057 29.5288 12.9259 29.4965 12.6656 29.378C12.3655 29.2426 12.1599 29.0295 12.1265 28.6912C12.0913 28.3341 12.1866 28.025 12.4915 27.8007C12.804 27.57 13.1648 27.5258 13.5388 27.5254Z" fill="#EDEDED"/>
<path d="M16.0521 29.2186C16.0521 28.956 16.0495 28.6935 16.0521 28.4309C16.0521 28.3064 16.0071 28.2407 15.8758 28.252C15.8572 28.2531 15.8386 28.2531 15.82 28.252C15.3432 28.2464 15.3091 28.2028 15.3785 27.7178C15.3912 27.6289 15.4362 27.6019 15.5154 27.6019C15.6279 27.6019 15.7404 27.5922 15.853 27.6019C16.0124 27.6154 16.0611 27.5453 16.0548 27.3949C16.0461 27.1889 16.0548 26.9823 16.0514 26.7767C16.0488 26.6559 16.0979 26.6169 16.2179 26.6135C16.7555 26.5985 16.7551 26.5952 16.754 27.1387C16.754 27.6031 16.754 27.6031 17.2206 27.6027C17.4081 27.6027 17.5957 27.6027 17.7832 27.6027C17.8838 27.6027 17.9363 27.6439 17.9299 27.7482C17.9299 27.7606 17.9299 27.773 17.9299 27.7857C17.9216 28.3506 18.0109 28.249 17.4775 28.255C17.29 28.2572 17.1024 28.2591 16.9149 28.255C16.7933 28.2524 16.7506 28.3041 16.7517 28.4241C16.757 28.8428 16.7495 29.261 16.7555 29.6796C16.7633 30.2126 17.018 30.3923 17.539 30.249C17.6486 30.219 17.7641 30.0918 17.8613 30.1676C17.9363 30.2258 17.9513 30.3664 17.9884 30.4718C18.0826 30.7385 18.0777 30.743 17.8084 30.8469C17.5259 30.9517 17.2223 30.9864 16.9235 30.9478C16.4025 30.8886 16.09 30.5491 16.0608 30.0101C16.0469 29.7475 16.0585 29.4849 16.0585 29.2224L16.0521 29.2186Z" fill="#EDEDED"/>
<path d="M26.5069 30.9565C25.7987 30.9475 25.2135 30.7015 24.9157 30.0188C24.6179 29.3361 24.6771 28.6741 25.1591 28.0836C25.3924 27.7978 25.7116 27.6358 26.0714 27.5698C26.5838 27.4752 27.0781 27.5112 27.5298 27.8106C27.6423 27.8856 27.673 27.952 27.586 28.0649C27.499 28.1778 27.4649 28.3695 27.334 28.4254C27.203 28.4813 27.0796 28.3286 26.948 28.2783C26.4255 28.0788 25.8868 28.2337 25.6295 28.6673C25.3624 29.1174 25.457 29.7472 25.8403 30.0721C26.167 30.3489 26.6772 30.3815 27.1235 30.1227C27.3006 30.0203 27.391 30.0477 27.4634 30.2217C27.4715 30.2386 27.4808 30.2549 27.4911 30.2705C27.6903 30.6141 27.6854 30.6381 27.3114 30.8031C27.0596 30.9185 26.7835 30.9712 26.5069 30.9565Z" fill="#EDEDED"/>
<path d="M22.4529 29.2311C22.4529 28.7499 22.4566 28.2686 22.4503 27.7874C22.4503 27.6505 22.4878 27.5889 22.6311 27.5998C22.7184 27.6075 22.8063 27.6075 22.8936 27.5998C23.0621 27.5848 23.1806 27.6171 23.151 27.8249C23.1468 27.8538 23.1457 27.8916 23.1802 27.9066C23.2275 27.9265 23.2462 27.8826 23.2687 27.8568C23.5688 27.5113 23.9503 27.4775 24.3659 27.5631C24.4784 27.5867 24.537 27.6354 24.4784 27.757C24.4671 27.7861 24.4573 27.8157 24.4492 27.8459C24.403 27.9749 24.3892 28.1392 24.2991 28.221C24.2091 28.3028 24.0538 28.2019 23.924 28.1936C23.5066 28.167 23.2113 28.4052 23.1738 28.8313C23.1281 29.386 23.1607 29.9431 23.1566 30.4993C23.1528 30.9247 23.187 30.8684 22.7849 30.8711C22.4473 30.8733 22.4473 30.8711 22.4473 30.5387C22.4473 30.1009 22.4473 29.6632 22.4473 29.2259L22.4529 29.2311Z" fill="#EDEDED"/>
<path d="M33.1094 27.906C33.1676 27.903 33.189 27.8528 33.222 27.8186C33.5359 27.5054 33.9133 27.4784 34.3188 27.5744C34.4144 27.5969 34.4388 27.6532 34.4047 27.7414C34.4024 27.747 34.4009 27.7534 34.399 27.759C34.3492 27.909 34.3326 28.0808 34.2415 28.196C34.1331 28.3325 33.9628 28.196 33.8191 28.196C33.372 28.196 33.0914 28.4702 33.0843 28.9608C33.0764 29.5167 33.0821 30.073 33.0813 30.6293C33.0813 30.8719 33.0791 30.8738 32.8457 30.8753C32.3817 30.8776 32.381 30.8776 32.3802 30.4091C32.3802 29.5403 32.3803 28.672 32.375 27.8032C32.375 27.6457 32.4301 27.5838 32.5824 27.6011C32.6072 27.6037 32.6323 27.6011 32.6574 27.6011C32.776 27.6037 32.9013 27.5827 33.0112 27.6149C33.1533 27.6558 33.0153 27.8269 33.1094 27.906Z" fill="#EDEDED"/>
</svg>
