<svg width="150" height="15" viewBox="0 0 150 15" fill="none" xmlns="http://www.w3.org/2000/svg">
<path d="M133.635 15C134.032 12.8263 134.259 11.1481 134.723 9.52708C135.1 8.2094 134.723 7.89935 133.135 7.98697C123.574 8.5127 114.008 8.99797 104.443 9.42596C86.5501 10.2101 68.6455 10.6291 50.729 10.683C36.3172 10.747 21.9054 10.7234 7.50952 10.009C5.08837 9.88767 2.64739 9.8169 0 9.16986C1.44078 8.42845 2.7982 8.39138 4.11991 8.30376C20.7425 7.22535 37.3968 7.13098 54.0511 6.90518C80.3622 6.55133 106.673 6.64907 132.988 6.72321C134.659 6.72321 135.112 6.29185 135.164 4.95395C135.219 3.4408 135.112 1.92092 135.033 0C139.458 3.56886 144.249 6.10648 150 8.37114C143.717 9.51695 138.529 11.5188 133.635 15Z" fill="url(#paint0_linear_73_154)"/>
<defs>
<linearGradient id="paint0_linear_73_154" x1="0" y1="7.5" x2="150" y2="7.5" gradientUnits="userSpaceOnUse">
<stop offset="0.145833" stop-color="#006382" stop-opacity="0"/>
<stop offset="1" stop-color="#10788E"/>
</linearGradient>
</defs>
</svg>
