<svg width="70" height="70" viewBox="0 0 70 70" fill="none" xmlns="http://www.w3.org/2000/svg">
<g filter="url(#filter0_d_65_134)">
<circle cx="35" cy="33" r="30" fill="#EDEDED" fill-opacity="0.02" shape-rendering="crispEdges"/>
</g>
<g clip-path="url(#clip0_65_134)">
<path d="M23.6568 43.768H20.2585C20.134 43.768 20.0028 43.8025 20.0045 43.5913C20.0154 42.1937 19.971 40.7928 20.0363 39.399C20.1104 37.8028 21.4591 36.5089 23.0543 36.4298C23.6535 36.4002 24.2615 36.3645 24.8547 36.5122C26.3137 36.8732 27.3294 38.1342 27.342 39.6311C27.3536 40.9283 27.342 42.226 27.3503 43.5232C27.3503 43.7427 27.2702 43.7729 27.0803 43.7718C25.9411 43.7641 24.7992 43.768 23.6568 43.768Z" fill="#FF5600"/>
<path d="M46.3175 43.7682C45.1745 43.7682 44.0315 43.7644 42.8891 43.7726C42.7014 43.7726 42.6405 43.7298 42.6416 43.5328C42.6509 42.2252 42.6361 40.9176 42.6493 39.6105C42.6669 37.8787 44.1128 36.4389 45.8451 36.4224C46.4097 36.4169 46.9771 36.3769 47.5368 36.5195C48.2336 36.6976 48.8522 37.1007 49.2965 37.6662C49.7407 38.2317 49.9859 38.9281 49.994 39.6473C50.0011 40.9362 49.994 42.2263 50.0001 43.5147C50.0001 43.7144 49.9567 43.7781 49.746 43.7759C48.603 43.7627 47.46 43.7682 46.3175 43.7682Z" fill="#FF5600"/>
<path d="M34.9781 22.7539C37.4929 22.7276 39.949 23.0749 42.2833 24.0588C43.6869 24.6503 44.9666 25.4306 45.9285 26.646C46.5447 27.4247 46.9217 28.301 46.9332 29.3106C46.9376 29.7172 46.6967 29.996 46.3296 30.0179C45.9625 30.0399 45.6711 29.7985 45.6514 29.3886C45.58 28.0102 44.7597 27.1059 43.7199 26.3612C42.1121 25.2089 40.27 24.6399 38.3478 24.2997C36.5447 23.9815 34.7051 23.9248 32.8858 24.1312C30.8939 24.3507 28.9728 24.8319 27.2004 25.801C26.4602 26.2065 25.7787 26.6921 25.2283 27.3467C24.7345 27.9306 24.4299 28.583 24.3915 29.3556C24.3739 29.709 24.1769 29.9466 23.9026 29.9993C23.4548 30.086 23.102 29.799 23.1025 29.3375C23.1025 28.4694 23.3818 27.6864 23.8664 26.978C24.667 25.8048 25.7836 25.0136 27.0364 24.3929C29.1243 23.358 31.3581 22.907 33.6639 22.7594C34.0996 22.7298 34.5397 22.7539 34.9781 22.7539Z" fill="#FF5600"/>
<path d="M46.322 30.9683C46.7849 30.9692 47.237 31.1075 47.6213 31.3656C48.0055 31.6237 48.3046 31.99 48.4806 32.4181C48.6566 32.8463 48.7016 33.317 48.6099 33.7707C48.5182 34.2244 48.294 34.6408 47.9656 34.967C47.6373 35.2932 47.2195 35.5147 46.7651 35.6034C46.3108 35.6921 45.8404 35.644 45.4135 35.4652C44.9865 35.2864 44.6222 34.9849 44.3666 34.599C44.1111 34.213 43.9757 33.7599 43.9778 33.2971C43.9807 32.6777 44.2291 32.0847 44.6685 31.6481C45.108 31.2116 45.7026 30.9671 46.322 30.9683Z" fill="#FF5600"/>
<path d="M21.345 33.2914C21.3504 32.6716 21.6018 32.0793 22.0439 31.6448C22.486 31.2104 23.0826 30.9693 23.7024 30.9747C24.3222 30.9801 24.9145 31.2315 25.349 31.6736C25.7834 32.1156 26.0245 32.7122 26.0191 33.332C26.0125 34.6128 24.9524 35.6537 23.6596 35.6471C23.0405 35.641 22.4491 35.3896 22.0151 34.9479C21.5812 34.5063 21.3402 33.9105 21.345 33.2914Z" fill="#FF5600"/>
<path d="M34.5677 41.0969C34.5677 40.563 34.5677 40.569 34.0409 40.4609C33.6667 40.3841 33.2974 40.2892 32.955 40.1026C32.8058 40.0208 32.7844 39.938 32.8453 39.7991C32.9193 39.623 32.9397 39.3728 33.0708 39.2855C33.2217 39.1851 33.4 39.403 33.5778 39.4644C34.0843 39.6422 34.5941 39.7613 35.1335 39.662C35.6729 39.5626 36.0394 39.2274 36.1283 38.7708C36.2205 38.2951 36.0186 37.866 35.5664 37.557C35.1143 37.2481 34.5891 37.1098 34.1178 36.8508C33.6552 36.5962 33.2272 36.3021 33.0302 35.7803C32.6395 34.7476 33.2283 33.6364 34.3356 33.356C34.6023 33.2879 34.6917 33.1826 34.6648 32.9203C34.6434 32.7123 34.6648 32.5 34.6594 32.2904C34.655 32.1526 34.7011 32.101 34.8465 32.0939C35.3793 32.067 35.3782 32.061 35.3793 32.6042C35.3793 32.7957 35.3244 33.0191 35.4062 33.1711C35.4973 33.3434 35.7535 33.2567 35.9341 33.3006C36.2185 33.3625 36.4947 33.4573 36.7571 33.5832C36.8669 33.638 36.9048 33.6967 36.8477 33.8191C36.7632 34.0007 36.7473 34.2537 36.6112 34.3602C36.4521 34.4836 36.2688 34.2504 36.0855 34.201C35.6394 34.0781 35.1971 34.0018 34.7373 34.1061C34.3148 34.2021 34.0289 34.4474 33.9383 34.8743C33.8478 35.3012 34.0294 35.6425 34.3773 35.8928C34.7499 36.1671 35.185 36.3147 35.5988 36.504C35.8571 36.6195 36.1034 36.7603 36.3341 36.9244C36.9882 37.3979 37.262 38.0498 37.1297 38.8356C36.9893 39.6718 36.4581 40.1981 35.6526 40.4214C35.3831 40.496 35.2591 40.5975 35.3096 40.8801C35.319 40.9803 35.32 41.0811 35.3123 41.1814C35.3123 41.6983 35.19 41.7921 34.678 41.6895C34.5749 41.6687 34.5683 41.6132 34.5683 41.537L34.5677 41.0969Z" fill="#FF5600"/>
</g>
<defs>
<filter id="filter0_d_65_134" x="0" y="0" width="70" height="70" filterUnits="userSpaceOnUse" color-interpolation-filters="sRGB">
<feFlood flood-opacity="0" result="BackgroundImageFix"/>
<feColorMatrix in="SourceAlpha" type="matrix" values="0 0 0 0 0 0 0 0 0 0 0 0 0 0 0 0 0 0 127 0" result="hardAlpha"/>
<feOffset dy="2"/>
<feGaussianBlur stdDeviation="2.5"/>
<feComposite in2="hardAlpha" operator="out"/>
<feColorMatrix type="matrix" values="0 0 0 0 1 0 0 0 0 0.337255 0 0 0 0 0 0 0 0 1 0"/>
<feBlend mode="normal" in2="BackgroundImageFix" result="effect1_dropShadow_65_134"/>
<feBlend mode="normal" in="SourceGraphic" in2="effect1_dropShadow_65_134" result="shape"/>
</filter>
<clipPath id="clip0_65_134">
<rect width="30" height="21.0294" fill="white" transform="translate(20 22.7441)"/>
</clipPath>
</defs>
</svg>
