<svg width="70" height="70" viewBox="0 0 70 70" fill="none" xmlns="http://www.w3.org/2000/svg">
<g filter="url(#filter0_d_65_122)">
<circle cx="35" cy="33" r="30" fill="#EDEDED" fill-opacity="0.02" shape-rendering="crispEdges"/>
</g>
<g clip-path="url(#clip0_65_122)">
<path d="M32.5638 32.49C30.7552 32.4669 28.542 32.3187 26.3727 31.7762C25.5552 31.5708 24.7612 31.2996 24.0376 30.8527C23.7607 30.6904 23.5163 30.4781 23.3167 30.2268C22.895 29.6728 22.8972 29.0304 23.3343 28.4841C23.7713 27.9378 24.3879 27.6424 25.0176 27.3915C26.3518 26.86 27.7558 26.6195 29.1734 26.4543C31.0824 26.2293 33.0076 26.1742 34.9263 26.2896C36.9825 26.4153 39.0244 26.6387 40.9702 27.3783C41.4847 27.5732 41.9755 27.8176 42.3978 28.1832C43.2257 28.897 43.2213 29.8523 42.3796 30.5584C41.8855 30.9751 41.3008 31.2387 40.6941 31.4539C39.3061 31.948 37.8637 32.171 36.4071 32.3208C35.2678 32.4383 34.1258 32.4932 32.5638 32.49Z" fill="#10788E"/>
<path d="M43.0018 39.1514C43.0018 39.7196 43.0232 40.2231 42.9958 40.7244C42.9672 41.246 42.6471 41.6155 42.248 41.9142C41.4656 42.5017 40.5547 42.8014 39.6219 43.0309C36.9996 43.6761 34.3307 43.8084 31.6447 43.7134C29.8697 43.6508 28.1078 43.4669 26.3821 43.0304C25.4487 42.7948 24.5368 42.5 23.756 41.907C23.2536 41.5255 22.9577 41.045 23.0049 40.3823C23.0324 39.998 23.0099 39.6049 23.0099 39.1645C23.4584 39.4561 23.8697 39.7037 24.3133 39.8937C25.5146 40.4092 26.7769 40.6903 28.0611 40.8858C30.1371 41.2021 32.2278 41.2905 34.323 41.2092C36.6839 41.1175 39.0256 40.8886 41.2674 40.0672C41.8876 39.8493 42.4721 39.5406 43.0018 39.1514Z" fill="#10788E"/>
<path d="M43.0017 35.4097C43.0017 35.9807 43.0281 36.4935 42.994 37.0019C42.9617 37.4993 42.652 37.8579 42.2699 38.1489C41.4748 38.7528 40.5436 39.0504 39.5938 39.2892C37.5695 39.7982 35.5023 39.9668 33.4236 39.9882C31.0879 40.0123 28.7649 39.8586 26.4842 39.3041C25.6831 39.1092 24.9018 38.8588 24.1853 38.4415C23.6456 38.1269 23.1284 37.7536 23.04 37.0914C22.9686 36.5566 23.0252 36.0037 23.0252 35.4163C23.4587 35.7192 23.9228 35.976 24.4099 36.1822C25.6315 36.6961 26.9152 36.9695 28.2192 37.1562C30.4844 37.477 32.7763 37.5673 35.0598 37.4258C37.1066 37.3033 39.137 37.0683 41.0883 36.3826C41.7681 36.1486 42.4121 35.8211 43.0017 35.4097Z" fill="#10788E"/>
<path d="M23.011 31.6665C23.4502 31.9372 23.8483 32.1914 24.2831 32.3803C25.457 32.8903 26.6918 33.1725 27.948 33.3647C30.7641 33.7963 33.5928 33.8407 36.4253 33.5733C38.0461 33.4235 39.6526 33.1632 41.19 32.5999C41.7225 32.4044 42.2375 32.1738 42.7086 31.8537C42.7904 31.7988 42.8733 31.75 43.0117 31.6665C42.9864 32.2979 43.0831 32.8898 42.9524 33.4685C42.8426 33.9478 42.4857 34.2657 42.0931 34.5303C41.2536 35.0964 40.3005 35.383 39.3281 35.6048C36.6411 36.2176 33.9156 36.3186 31.1753 36.1907C29.5386 36.1138 27.9151 35.9282 26.325 35.5142C25.412 35.2765 24.5181 34.9871 23.7533 34.4046C23.2591 34.0291 22.9687 33.5541 23.0082 32.9041C23.0307 32.5115 23.011 32.1173 23.011 31.6665Z" fill="#10788E"/>
<path d="M23.0109 42.9152C24.6289 44.0084 26.4205 44.3944 28.2433 44.6606C30.5219 44.9928 32.8141 45.0576 35.1119 44.9231C36.6102 44.8358 38.0993 44.6733 39.5636 44.3279C40.7671 44.0435 41.9333 43.6658 43.01 42.9004C42.9781 43.5653 43.0934 44.1841 42.932 44.788C42.8293 45.1724 42.54 45.4425 42.2287 45.6764C41.4671 46.2474 40.5815 46.5367 39.6761 46.7635C36.9188 47.4536 34.1126 47.5646 31.2894 47.4438C29.6697 47.3746 28.0632 47.195 26.4869 46.8058C25.5991 46.5862 24.7299 46.3116 23.9558 45.7977C23.3332 45.3865 22.9455 44.8643 23.0059 44.0743C23.0345 43.7064 23.0109 43.3325 23.0109 42.9152Z" fill="#10788E"/>
<path d="M45.6482 22.631C45.5142 22.737 45.5098 22.8446 45.4791 22.9369C45.0398 24.2363 44.6044 25.5368 44.1729 26.8384C44.1015 27.052 44.0115 27.2447 43.7825 27.3369C43.4739 27.461 43.2335 27.3457 43.0105 27.1393C42.0391 26.2355 41.068 25.3316 40.0973 24.4275C38.4304 22.8745 36.7631 21.3212 35.0955 19.7678C35.0433 19.7189 34.9856 19.6755 34.8835 19.5899C34.8835 20.0082 34.8912 20.3772 34.8835 20.7462C34.8758 21.0245 34.7474 21.2447 34.4783 21.3413C34.2093 21.438 33.9748 21.3748 33.7838 21.1596C33.6717 21.0241 33.6144 20.8515 33.6235 20.6759C33.6191 19.8523 33.6136 19.0287 33.6235 18.2052C33.6295 17.7489 33.8782 17.4974 34.318 17.4914C35.1597 17.4826 36.0014 17.4887 36.8436 17.4914C37.1346 17.4914 37.363 17.6073 37.48 17.8823C37.5826 18.125 37.5173 18.3452 37.352 18.5439C37.206 18.7191 37.005 18.7328 36.803 18.7372C36.5043 18.7432 36.2062 18.7372 35.8806 18.802C38.3266 21.0767 40.7726 23.3514 43.2455 25.6503C43.3888 25.2242 43.5201 24.8377 43.6496 24.4506C43.9856 23.4447 44.3215 22.4381 44.6571 21.4308C44.8833 20.7571 45.3709 20.6462 45.8766 21.153C48.1485 23.4224 50.4196 25.6935 52.6897 27.9661C53.04 28.317 53.0889 28.6009 52.8588 28.9061C52.6612 29.1686 52.3301 29.2355 52.0572 29.0538C51.9527 28.9802 51.8558 28.8963 51.7679 28.8034C49.7869 26.8247 47.8072 24.8448 45.8288 22.8638C45.7636 22.7903 45.7033 22.7125 45.6482 22.631Z" fill="#10788E"/>
</g>
<defs>
<filter id="filter0_d_65_122" x="0" y="0" width="70" height="70" filterUnits="userSpaceOnUse" color-interpolation-filters="sRGB">
<feFlood flood-opacity="0" result="BackgroundImageFix"/>
<feColorMatrix in="SourceAlpha" type="matrix" values="0 0 0 0 0 0 0 0 0 0 0 0 0 0 0 0 0 0 127 0" result="hardAlpha"/>
<feOffset dy="2"/>
<feGaussianBlur stdDeviation="2.5"/>
<feComposite in2="hardAlpha" operator="out"/>
<feColorMatrix type="matrix" values="0 0 0 0 0.0628125 0 0 0 0 0.46914 0 0 0 0 0.558333 0 0 0 1 0"/>
<feBlend mode="normal" in2="BackgroundImageFix" result="effect1_dropShadow_65_122"/>
<feBlend mode="normal" in="SourceGraphic" in2="effect1_dropShadow_65_122" result="shape"/>
</filter>
<clipPath id="clip0_65_122">
<rect width="30" height="29.9995" fill="white" transform="translate(23 17.4883)"/>
</clipPath>
</defs>
</svg>
