<svg width="70" height="70" viewBox="0 0 70 70" fill="none" xmlns="http://www.w3.org/2000/svg">
<g filter="url(#filter0_d_65_249)">
<circle cx="35" cy="33" r="30" fill="#EDEDED" fill-opacity="0.02" shape-rendering="crispEdges"/>
</g>
<g clip-path="url(#clip0_65_249)">
<path d="M42.025 28.8652H40.4255C40.1306 28.8652 39.8995 28.7426 39.7846 28.4677C39.7277 28.3453 39.7066 28.2093 39.7238 28.0755C39.741 27.9416 39.7959 27.8154 39.8819 27.7115C39.9368 27.6405 40.0077 27.5835 40.0888 27.5452C40.1699 27.5069 40.2589 27.4883 40.3486 27.491C41.4192 27.4871 42.4897 27.4794 43.5603 27.491C43.9647 27.4964 44.2148 27.7772 44.2167 28.1859C44.2216 29.2318 44.2216 30.2779 44.2167 31.3241C44.2167 31.7377 43.9491 31.9903 43.5433 31.9918C43.1374 31.9932 42.8717 31.7412 42.8591 31.33C42.8464 30.9188 42.8591 30.5081 42.8591 30.0506C42.5228 30.3377 42.2265 30.5986 41.9238 30.8472C40.3267 32.1538 38.5175 33.0896 36.6226 33.8759C33.4041 35.2146 30.0542 36.0886 26.6328 36.7056C25.7963 36.857 24.954 36.9786 24.1121 37.1003C23.6333 37.1694 23.3165 36.9412 23.2678 36.5231C23.2192 36.0954 23.4625 35.8059 23.9403 35.7416C25.8195 35.4933 27.6847 35.1492 29.5287 34.7105C32.5871 33.9806 35.5764 33.0467 38.3715 31.5738C39.6683 30.8901 40.8673 30.0652 41.9238 29.038C41.9674 29.0022 42.0136 28.9697 42.062 28.9407C42.0479 28.9129 42.0357 28.8891 42.025 28.8652Z" fill="#10788E"/>
<path d="M42.5069 39.1621C42.5069 37.5329 42.5069 35.9037 42.5069 34.2745C42.5069 33.6906 42.7502 33.4473 43.3341 33.4473C44.6234 33.4473 45.9122 33.4473 47.2008 33.4473C47.7322 33.4473 47.9998 33.7076 47.9998 34.2336C47.9998 37.5329 47.9998 40.832 47.9998 44.131C47.9998 44.6604 47.7356 44.9237 47.2071 44.9246C45.902 44.9269 44.5969 44.9269 43.2918 44.9246C42.7638 44.9246 42.5084 44.6599 42.5079 44.1246C42.5062 42.4701 42.5059 40.816 42.5069 39.1621ZM43.8796 39.1757C43.8796 40.5543 43.8831 41.9329 43.8758 43.312C43.8758 43.4935 43.9244 43.5485 44.1074 43.546C44.8779 43.537 45.6482 43.537 46.4183 43.546C46.5882 43.546 46.6378 43.4945 46.6378 43.3251C46.6329 40.5595 46.6329 37.7942 46.6378 35.0293C46.6378 34.8546 46.5848 34.8142 46.4183 34.8161C45.6563 34.8244 44.8938 34.8263 44.1312 34.8161C43.9332 34.8132 43.8723 34.8589 43.8738 35.0667C43.8845 36.4346 43.8796 37.8054 43.8796 39.1757Z" fill="#10788E"/>
<path d="M32.0546 24.4716C32.0546 25.0069 31.5777 25.3184 31.0945 25.0853C30.8921 24.9879 30.7149 24.8386 30.5217 24.7193C29.4385 24.0502 28.3042 23.8999 27.111 24.3962C26.8634 24.5021 26.6498 24.6744 26.494 24.894C26.4221 24.9875 26.37 25.0946 26.3409 25.2089C26.3118 25.3231 26.3063 25.4421 26.3247 25.5586C26.3432 25.6751 26.3852 25.7865 26.4482 25.8862C26.5112 25.9859 26.5938 26.0717 26.6911 26.1383C27.1436 26.4566 27.6809 26.5276 28.204 26.6313C28.949 26.7807 29.6989 26.8906 30.4215 27.1558C32.1831 27.8035 32.3101 30.1422 30.929 31.1748C30.4648 31.5318 29.9239 31.7759 29.349 31.8877C29.1719 31.9208 29.1091 31.9904 29.1232 32.1714C29.1371 32.39 29.1371 32.6093 29.1232 32.8279C29.1008 33.2566 28.8351 33.5091 28.4225 33.5023C28.0098 33.4955 27.7631 33.2327 27.7548 32.7991C27.7505 32.5884 27.7456 32.3772 27.7548 32.1665C27.7617 32.0264 27.7203 31.9607 27.5738 31.9446C26.5967 31.8381 25.7767 31.3753 25.0118 30.7948C24.7018 30.5597 24.6541 30.169 24.8872 29.8468C24.9352 29.776 24.9967 29.7154 25.0682 29.6685C25.1398 29.6216 25.2199 29.5894 25.304 29.5736C25.3881 29.5579 25.4745 29.5591 25.5581 29.577C25.6418 29.5949 25.721 29.6292 25.7913 29.678C26.2439 29.9777 26.6755 30.3159 27.2113 30.4595C28.1767 30.7174 29.1213 30.7315 29.9933 30.1515C30.4745 29.8313 30.6186 29.3417 30.3787 28.8931C30.2361 28.6264 29.986 28.4901 29.7174 28.3879C29.1607 28.1763 28.5699 28.1091 27.9899 27.9987C27.4176 27.8887 26.8512 27.768 26.3037 27.5495C24.7144 26.9169 24.5519 24.8478 25.5928 23.8196C26.1084 23.3076 26.7698 22.9677 27.4862 22.8463C27.6921 22.8089 27.7782 22.7388 27.7563 22.5213C27.7411 22.3431 27.7421 22.164 27.7592 21.986C27.7835 21.6532 28.0376 21.4162 28.3855 21.3884C28.5443 21.3716 28.7038 21.4132 28.8341 21.5054C28.9644 21.5977 29.0567 21.7343 29.0935 21.8897C29.1519 22.1223 29.1198 22.3583 29.1227 22.5923C29.1227 22.7125 29.1378 22.7802 29.2838 22.8001C30.2171 22.9276 31.0244 23.3407 31.7582 23.915C31.9646 24.0765 32.0551 24.2415 32.0546 24.4716Z" fill="#10788E"/>
<path d="M41.4954 40.0933C41.4954 41.4305 41.4954 42.7679 41.4954 44.1054C41.4954 44.6636 41.236 44.9229 40.6784 44.9234C39.3898 44.9234 38.1011 44.9234 36.8122 44.9234C36.273 44.9234 36.0117 44.6728 36.0112 44.1395C36.008 41.4326 36.008 38.7254 36.0112 36.0178C36.0112 35.4937 36.2701 35.2392 36.7898 35.2392C38.0949 35.2354 39.3999 35.2354 40.7047 35.2392C41.2351 35.2392 41.4935 35.5025 41.4939 36.0334C41.4962 37.3865 41.4967 38.7398 41.4954 40.0933ZM40.1227 40.0709C40.1227 38.9838 40.1192 37.8972 40.1261 36.8105C40.1261 36.6534 40.0852 36.6052 39.9241 36.6066C39.1455 36.6148 38.3669 36.6148 37.5883 36.6066C37.4146 36.6066 37.3723 36.6611 37.3728 36.8271C37.3776 38.9922 37.3776 41.1573 37.3728 43.3225C37.3728 43.4908 37.4214 43.5463 37.5927 43.5448C38.347 43.5371 39.1012 43.5346 39.855 43.5448C40.0604 43.5483 40.1309 43.5049 40.128 43.2811C40.1149 42.2115 40.1227 41.141 40.1227 40.0709Z" fill="#10788E"/>
<path d="M29.5054 41.4844C29.5054 40.6085 29.5054 39.7326 29.5054 38.8567C29.5054 38.3214 29.7613 38.0669 30.2951 38.0659C31.5993 38.0659 32.9037 38.0659 34.2085 38.0659C34.7316 38.0659 35.0037 38.3302 35.0046 38.8586C35.0089 40.6166 35.0089 42.3749 35.0046 44.1336C35.0046 44.6494 34.717 44.9199 34.1954 44.9209C32.8977 44.9209 31.6014 44.9209 30.3063 44.9209C29.7711 44.9209 29.5063 44.6499 29.5054 44.1078C29.5041 43.2341 29.5041 42.3597 29.5054 41.4844ZM33.6246 41.4752C33.6246 40.8591 33.6212 40.2426 33.627 39.626C33.627 39.4844 33.5944 39.4275 33.4382 39.4314C32.6437 39.4385 31.8489 39.4385 31.0538 39.4314C30.9166 39.4314 30.8747 39.4693 30.8752 39.6085C30.8801 40.8572 30.8801 42.1061 30.8752 43.3555C30.8752 43.5087 30.9268 43.5467 31.0698 43.5457C31.8484 43.5404 32.627 43.5389 33.4056 43.5457C33.5745 43.5457 33.6299 43.4971 33.6275 43.3253C33.6192 42.7083 33.6246 42.0917 33.6246 41.4742V41.4752Z" fill="#10788E"/>
<path d="M25.7397 44.9238C25.0915 44.9238 24.4433 44.9238 23.7932 44.9238C23.2637 44.9238 23.0015 44.659 23 44.1281C22.9974 43.0576 22.9974 41.988 23 40.9194C23 40.3841 23.2608 40.1223 23.7888 40.1213C25.0936 40.1191 26.3982 40.1191 27.7027 40.1213C28.2341 40.1213 28.4915 40.3836 28.492 40.915C28.492 41.9856 28.492 43.0552 28.492 44.1238C28.492 44.6639 28.2302 44.9223 27.6827 44.9243C27.037 44.9252 26.3883 44.9238 25.7397 44.9238ZM25.7693 43.5413C26.1494 43.5413 26.5299 43.5364 26.9105 43.5413C27.0589 43.5442 27.128 43.5106 27.1246 43.3413C27.1153 42.7909 27.1168 42.2406 27.1246 41.6902C27.1246 41.5393 27.073 41.4955 26.9299 41.4955C26.1452 41.5004 25.3601 41.5004 24.5747 41.4955C24.4224 41.4955 24.38 41.553 24.3834 41.6955C24.3893 42.247 24.3893 42.7974 24.3834 43.3466C24.3834 43.497 24.437 43.5413 24.582 43.5413C24.9757 43.5364 25.3727 43.5413 25.7718 43.5413H25.7693Z" fill="#10788E"/>
</g>
<defs>
<filter id="filter0_d_65_249" x="0" y="0" width="70" height="70" filterUnits="userSpaceOnUse" color-interpolation-filters="sRGB">
<feFlood flood-opacity="0" result="BackgroundImageFix"/>
<feColorMatrix in="SourceAlpha" type="matrix" values="0 0 0 0 0 0 0 0 0 0 0 0 0 0 0 0 0 0 127 0" result="hardAlpha"/>
<feOffset dy="2"/>
<feGaussianBlur stdDeviation="2.5"/>
<feComposite in2="hardAlpha" operator="out"/>
<feColorMatrix type="matrix" values="0 0 0 0 0.0628125 0 0 0 0 0.46914 0 0 0 0 0.558333 0 0 0 1 0"/>
<feBlend mode="normal" in2="BackgroundImageFix" result="effect1_dropShadow_65_249"/>
<feBlend mode="normal" in="SourceGraphic" in2="effect1_dropShadow_65_249" result="shape"/>
</filter>
<clipPath id="clip0_65_249">
<rect width="25" height="23.5367" fill="white" transform="translate(23 21.3882)"/>
</clipPath>
</defs>
</svg>
