<svg width="70" height="70" viewBox="0 0 70 70" fill="none" xmlns="http://www.w3.org/2000/svg">
<g filter="url(#filter0_d_65_264)">
<circle cx="35" cy="33" r="30" fill="#EDEDED" fill-opacity="0.02" shape-rendering="crispEdges"/>
</g>
<g clip-path="url(#clip0_65_264)">
<path d="M35.4978 46.1606C33.2151 46.1606 30.9318 46.1577 28.6476 46.1654C28.4315 46.1654 28.3524 46.1326 28.3422 45.8885C28.2544 43.7625 26.8395 41.8594 24.8404 41.1373C24.3196 40.9468 23.7722 40.8387 23.2181 40.8169C23.0627 40.8107 22.9971 40.7812 22.9986 40.6037C23.0077 39.5424 23.0058 38.4811 22.9986 37.4198C22.9986 37.2751 23.0328 37.2307 23.1838 37.2235C24.7381 37.1525 26.0378 36.5355 27.059 35.3604C27.8603 34.438 28.2814 33.3536 28.3417 32.135C28.3524 31.9295 28.4011 31.8726 28.6138 31.8726C33.2035 31.88 37.7933 31.88 42.3833 31.8726C42.5681 31.8726 42.6428 31.8976 42.6515 32.1109C42.7045 33.3033 43.1539 34.4439 43.9286 35.352C44.7033 36.26 45.7589 36.8835 46.9281 37.1236C47.2188 37.1876 47.5156 37.2199 47.8133 37.2201C47.9392 37.2177 47.9966 37.2495 47.9957 37.3942C47.9899 38.4716 47.9899 39.549 47.9957 40.6264C47.9957 40.789 47.9281 40.8049 47.7974 40.8102C46.6739 40.8536 45.654 41.2082 44.765 41.8937C43.4634 42.9048 42.7552 44.245 42.6568 45.8929C42.6438 46.1114 42.5859 46.1654 42.3703 46.1645C40.0793 46.1572 37.7888 46.1606 35.4978 46.1606ZM38.1993 36.8549C38.0508 35.5399 37.524 34.7386 36.5037 34.3425C36.1153 34.1915 35.8558 34.0728 35.9195 33.5919C35.9474 33.3796 35.7101 33.2238 35.4896 33.2281C35.3848 33.2301 35.2843 33.2705 35.2072 33.3416C35.1301 33.4127 35.0818 33.5097 35.0714 33.6141C35.0568 33.7176 35.0537 33.8224 35.0622 33.9267C35.082 34.1047 35.0111 34.1679 34.8364 34.2161C33.7587 34.5229 33.0699 35.2326 32.8721 36.3325C32.5826 37.9519 33.7756 39.3852 35.4182 39.457C35.7651 39.4725 36.0936 39.541 36.4067 39.7199C36.7263 39.9097 36.9788 40.1945 37.1287 40.5347C37.2787 40.8748 37.3187 41.2533 37.2432 41.6173C37.0821 42.3684 36.4231 42.9632 35.6874 43.0206C34.6314 43.1031 33.8186 42.4012 33.7187 41.3206C33.6873 40.9829 33.5002 40.7846 33.2363 40.8102C32.9724 40.8358 32.8176 41.0514 32.8436 41.3934C32.9304 42.5425 33.5272 43.3414 34.5899 43.7346C34.9614 43.8721 35.1206 44.0028 35.0723 44.3969C35.0482 44.6077 35.2021 44.7573 35.4144 44.8002C35.6266 44.8431 35.7931 44.752 35.8968 44.559C35.9605 44.4423 35.9556 44.3062 35.9383 44.1813C35.905 43.9401 36.0058 43.8537 36.2335 43.7954C37.4019 43.4924 38.2264 42.3534 38.168 41.1527C38.0985 39.7175 37.0194 38.6393 35.5842 38.579C34.9841 38.554 34.4746 38.3562 34.0926 37.8738C33.5619 37.2056 33.5995 36.2678 34.1833 35.5915C34.7052 34.9904 35.6628 34.8326 36.3585 35.2316C36.9373 35.5625 37.2268 36.0647 37.2803 36.7179C37.2963 36.922 37.3513 37.0961 37.5553 37.1873C37.8385 37.3142 38.2447 37.1197 38.1989 36.8549H38.1993Z" fill="#FF5600"/>
<path d="M32.8203 26.4388C32.8203 25.0479 32.8203 23.6572 32.8203 22.2669C32.8203 21.4951 33.1469 21.1699 33.9197 21.1699C34.4021 21.1699 34.8845 21.1699 35.3669 21.1699C36.0423 21.1699 36.392 21.5153 36.3935 22.1946C36.3969 23.8184 36.3935 25.4422 36.3935 27.0669C36.3935 28.2889 36.3901 29.5103 36.3973 30.7332C36.3973 30.9262 36.3612 30.9991 36.1499 30.9966C35.1207 30.986 34.0916 30.986 33.0624 30.9966C32.8511 30.9991 32.814 30.9233 32.815 30.7332C32.8236 29.3005 32.8203 27.8697 32.8203 26.4388Z" fill="#FF5600"/>
<path d="M37.2847 29.5719C37.2847 28.7137 37.2847 27.9129 37.2847 27.1116C37.2847 27.0267 37.3426 26.9837 37.3922 26.9336C38.0194 26.3064 38.6393 25.6793 39.2683 25.0599C39.7054 24.6281 40.2071 24.6286 40.6495 25.0599C40.9722 25.373 41.2911 25.6914 41.6027 26.0155C41.7055 26.1222 41.7643 26.141 41.8816 26.0228C42.8699 25.0223 43.8635 24.0267 44.8624 23.0362C44.9589 22.9397 44.9975 22.8914 44.8441 22.7998C44.685 22.7032 44.561 22.5584 44.4901 22.3864C44.4192 22.2144 44.4051 22.0242 44.4499 21.8436C44.4976 21.655 44.6061 21.4873 44.7586 21.3663C44.9111 21.2454 45.0991 21.178 45.2937 21.1745C45.9039 21.163 46.5151 21.1596 47.1268 21.1745C47.6242 21.1876 47.9826 21.5605 47.9918 22.0598C48.0029 22.6541 48.0024 23.2489 47.9918 23.8447C47.9855 24.2789 47.7327 24.5915 47.3217 24.7092C46.9551 24.8139 46.5749 24.6662 46.3569 24.3015C46.2406 24.1086 46.1847 24.2533 46.1186 24.3203C44.9177 25.5161 43.7181 26.7144 42.5198 27.9153C41.9891 28.4459 41.5183 28.4459 40.9848 27.9153C40.6953 27.6258 40.3991 27.3412 40.1164 27.0431C40.0011 26.9201 39.9365 26.9201 39.8168 27.0431C39.0271 27.8444 38.2287 28.635 37.4333 29.4325C37.4014 29.4638 37.3657 29.4957 37.2847 29.5719Z" fill="#FF5600"/>
<path d="M31.9335 27.7815C31.9335 28.7694 31.9297 29.7593 31.9369 30.7454C31.9369 30.922 31.9075 30.9967 31.7058 30.9948C30.6614 30.9847 29.617 30.9866 28.5731 30.9948C28.4052 30.9948 28.3574 30.9466 28.3579 30.7787C28.3637 28.7868 28.3579 26.7944 28.3627 24.8026C28.3627 24.241 28.7077 23.8701 29.2639 23.8537C29.8428 23.8368 30.4217 23.8363 31.0006 23.8537C31.5997 23.8696 31.934 24.2362 31.935 24.8445C31.934 25.8225 31.9335 26.8015 31.9335 27.7815Z" fill="#FF5600"/>
<path d="M23.896 29.0993C23.896 28.5768 23.8926 28.0544 23.896 27.5319C23.9023 26.872 24.2559 26.5256 24.9158 26.5247C25.4465 26.5247 25.9771 26.5208 26.5078 26.5247C27.0896 26.5295 27.4543 26.8624 27.463 27.4412C27.4799 28.5662 27.4668 29.6917 27.4717 30.8181C27.4717 30.9628 27.4085 30.9903 27.2821 30.9903C26.2208 30.9868 25.1595 30.9868 24.0982 30.9903C23.9409 30.9903 23.8893 30.9421 23.8917 30.7848C23.9013 30.2248 23.896 29.6623 23.896 29.0993Z" fill="#FF5600"/>
<path d="M23.0049 34.4342C23.0049 33.9035 23.002 33.3729 23.0049 32.8422C23.0087 32.2498 23.3763 31.8774 23.9654 31.8774C25.0575 31.8774 26.1497 31.8812 27.2414 31.8726C27.4223 31.8726 27.4667 31.9131 27.4585 32.0974C27.3567 34.3898 25.4743 36.2543 23.1785 36.3339C23.0382 36.3387 23.0001 36.3035 23.0015 36.1665C23.0092 35.5905 23.0049 35.0126 23.0049 34.4342Z" fill="#FF5600"/>
<path d="M25.5905 46.1605C25.0522 46.1605 24.5143 46.1634 23.9764 46.1605C23.3753 46.1566 23.0082 45.7987 23.0058 45.2053C23.0014 44.1054 23.0092 43.005 23 41.9051C23 41.7242 23.0589 41.7015 23.22 41.7073C25.2837 41.7826 27.0976 43.3929 27.4015 45.4306C27.4285 45.6129 27.43 45.7987 27.4604 45.98C27.4874 46.1426 27.4165 46.1653 27.2766 46.1638C26.7146 46.1566 26.1526 46.1605 25.5905 46.1605Z" fill="#FF5600"/>
<path d="M45.4127 46.1607C44.8507 46.1607 44.2882 46.1564 43.7242 46.1636C43.5829 46.1636 43.5313 46.1385 43.5371 45.9803C43.5853 43.931 45.2052 42.0766 47.2275 41.7679C47.4253 41.7375 47.6265 41.7307 47.8252 41.7052C47.9463 41.6893 47.9965 41.7172 47.996 41.8533C47.9907 43.0014 48.0008 44.1496 47.9868 45.2977C47.981 45.7902 47.5932 46.1511 47.0968 46.1578C46.5348 46.166 45.9727 46.1578 45.4083 46.1578L45.4127 46.1607Z" fill="#FF5600"/>
<path d="M45.413 31.8794C45.9591 31.8794 46.5052 31.876 47.0532 31.8794C47.6254 31.8833 47.9944 32.2547 47.9963 32.836C48.0007 33.9359 47.993 35.0363 48.0021 36.1362C48.0021 36.3205 47.9389 36.3383 47.7807 36.3316C45.8226 36.2481 44.167 34.8844 43.6628 32.9359C43.5927 32.6394 43.5519 32.3368 43.5408 32.0323C43.5326 31.8876 43.5919 31.876 43.7043 31.877C44.2726 31.8809 44.8428 31.8794 45.413 31.8794Z" fill="#FF5600"/>
</g>
<defs>
<filter id="filter0_d_65_264" x="0" y="0" width="70" height="70" filterUnits="userSpaceOnUse" color-interpolation-filters="sRGB">
<feFlood flood-opacity="0" result="BackgroundImageFix"/>
<feColorMatrix in="SourceAlpha" type="matrix" values="0 0 0 0 0 0 0 0 0 0 0 0 0 0 0 0 0 0 127 0" result="hardAlpha"/>
<feOffset dy="2"/>
<feGaussianBlur stdDeviation="2.5"/>
<feComposite in2="hardAlpha" operator="out"/>
<feColorMatrix type="matrix" values="0 0 0 0 1 0 0 0 0 0.337255 0 0 0 0 0 0 0 0 1 0"/>
<feBlend mode="normal" in2="BackgroundImageFix" result="effect1_dropShadow_65_264"/>
<feBlend mode="normal" in="SourceGraphic" in2="effect1_dropShadow_65_264" result="shape"/>
</filter>
<clipPath id="clip0_65_264">
<rect width="25" height="25.001" fill="white" transform="translate(23 21.1646)"/>
</clipPath>
</defs>
</svg>
