<svg width="61" height="75" viewBox="0 0 61 75" fill="none" xmlns="http://www.w3.org/2000/svg">
    <path d="M25 0V17.5C25 19.4874 25.7888 21.3935 27.1932 22.7998C28.5975 24.206 30.5026 24.9974 32.49 25H49.99V30.175C47.3934 30.6247 45.0002 31.8685 43.14 33.735L21.705 55.17C19.2835 57.5904 17.5656 60.6236 16.735 63.945L15.225 69.99H7.5C5.51088 69.99 3.60322 69.1998 2.1967 67.7933C0.790177 66.3868 0 64.4791 0 62.49V7.5C0 5.51088 0.790177 3.60322 2.1967 2.1967C3.60322 0.790177 5.51088 0 7.5 0H25ZM49.99 35.3C48.7393 35.6696 47.6013 36.347 46.68 37.27L25.25 58.7C23.4714 60.4796 22.2098 62.709 21.6 65.15L20.085 71.205C19.9576 71.7152 19.9643 72.2496 20.1044 72.7565C20.2445 73.2633 20.5132 73.7253 20.8846 74.0976C21.2559 74.4699 21.7172 74.74 22.2236 74.8814C22.7301 75.0229 23.2645 75.031 23.775 74.905L29.83 73.39C32.2711 72.7804 34.5006 71.5188 36.28 69.74L57.72 48.3C58.9483 47.0743 59.7328 45.474 59.9494 43.7523C60.1659 42.0307 59.8022 40.2859 58.9158 38.7942C58.0294 37.3025 56.6708 36.1489 55.0551 35.516C53.4394 34.8832 51.6588 34.8072 49.995 35.3H49.99ZM29.99 1.25V17.5C29.99 18.163 30.2534 18.7989 30.7222 19.2678C31.1911 19.7366 31.827 20 32.49 20H48.74L29.99 1.25Z" fill="#EDEDED"/>
    </svg>
    