<svg width="37" height="38" viewBox="0 0 37 38" fill="none" xmlns="http://www.w3.org/2000/svg">
    <path d="M19.7224 36.1206C19.2561 36.5254 18.6929 36.6834 18.064 36.4295C17.4188 36.1679 17.1176 35.6546 17.0785 34.9725C17.0755 34.922 17.0773 34.871 17.0776 34.8203L17.0742 3.17286C17.0742 2.33737 17.4723 1.75548 18.1962 1.52832C19.0843 1.24829 20.035 1.84124 20.1792 2.76557C20.2023 2.91569 20.2138 3.06738 20.2136 3.21928C20.2136 7.8785 20.2102 12.5374 20.2035 17.196C20.2029 17.3885 20.2425 17.4453 20.4466 17.4447C25.1278 17.4359 29.8081 17.4312 34.4876 17.4306C35.3163 17.43 35.9075 17.8495 36.1291 18.5901C36.3882 19.4554 35.783 20.4086 34.8891 20.5371C34.7314 20.5593 34.5724 20.5704 34.4132 20.5703C29.7616 20.5701 25.1102 20.5667 20.4592 20.5601C20.248 20.5598 20.2016 20.6099 20.2016 20.8177C20.2115 25.4851 20.216 30.1513 20.2151 34.8163C20.2158 35.3014 20.0848 35.7292 19.7224 36.1206Z" fill="#EDEDED"/>
    <path d="M1.50309 20.0529C1.11885 19.6293 0.974991 19.076 1.20185 18.4637C1.41395 17.8901 1.83784 17.5461 2.45416 17.4634C2.59755 17.4445 2.74202 17.435 2.88666 17.4348C6.54461 17.4344 10.2027 17.4333 13.8608 17.4315C14.0505 17.4312 14.1181 17.4668 14.1153 17.6755C14.1021 18.5734 14.1034 19.4704 14.1141 20.3701C14.1156 20.5364 14.0686 20.5705 13.9091 20.5708C10.2003 20.5659 6.49184 20.5652 2.78368 20.5687C2.31429 20.5684 1.89809 20.4405 1.50309 20.0529Z" fill="#EDEDED"/>
    </svg>
    