<svg width="56" height="70" viewBox="0 0 56 70" fill="none" xmlns="http://www.w3.org/2000/svg">
    <path fill-rule="evenodd" clip-rule="evenodd" d="M6.75 0H18C21.3152 0 24.4946 1.31696 26.8388 3.66117C29.183 6.00537 30.5 9.18479 30.5 12.5V18.75C30.5 22.2033 33.3 25 36.75 25H43C46.3152 25 49.4946 26.317 51.8388 28.6612C54.183 31.0054 55.5 34.1848 55.5 37.5V63.75C55.5 67.2 52.7 70 49.25 70H6.75C5.0924 70 3.50268 69.3415 2.33058 68.1694C1.15848 66.9973 0.5 65.4076 0.5 63.75V6.25C0.5 2.79667 3.3 0 6.75 0ZM26.2333 56.7667C26.7021 57.2348 27.3375 57.4978 28 57.4978C28.6625 57.4978 29.2979 57.2348 29.7667 56.7667L39.7667 46.7667C40.0123 46.5378 40.2093 46.2618 40.3459 45.9551C40.4826 45.6485 40.556 45.3174 40.562 44.9817C40.5679 44.6461 40.5061 44.3126 40.3804 44.0013C40.2547 43.69 40.0675 43.4073 39.8301 43.1699C39.5927 42.9325 39.31 42.7453 38.9987 42.6196C38.6874 42.4939 38.3539 42.4321 38.0183 42.438C37.6826 42.4439 37.3515 42.5174 37.0449 42.6541C36.7382 42.7907 36.4622 42.9877 36.2333 43.2333L30.5 48.9667V35C30.5 34.337 30.2366 33.7011 29.7678 33.2322C29.2989 32.7634 28.663 32.5 28 32.5C27.337 32.5 26.7011 32.7634 26.2322 33.2322C25.7634 33.7011 25.5 34.337 25.5 35V48.9667L19.7667 43.2333C19.2927 42.7917 18.6659 42.5513 18.0183 42.5627C17.3706 42.5742 16.7526 42.8366 16.2946 43.2946C15.8366 43.7526 15.5742 44.3706 15.5627 45.0183C15.5513 45.6659 15.7917 46.2927 16.2333 46.7667L26.2333 56.7667Z" fill="#EDEDED"/>
    <path d="M35.4997 12.5004C35.5055 8.29553 33.9914 4.23026 31.2363 1.05371C36.814 2.52026 41.902 5.44196 45.98 9.52C50.0581 13.598 52.9798 18.6861 54.4463 24.2637C51.2698 21.5087 47.2045 19.9945 42.9997 20.0004H36.7497C36.4181 20.0004 36.1002 19.8687 35.8658 19.6343C35.6314 19.3998 35.4997 19.0819 35.4997 18.7504V12.5004Z" fill="#EDEDED"/>
    </svg>
    