<svg width="61" height="60" viewBox="0 0 61 60" fill="none" xmlns="http://www.w3.org/2000/svg">
    <g filter="url(#filter0_d_1791_57579)">
    <circle cx="30.0708" cy="27.9614" r="24.9614" fill="#EDEDED" fill-opacity="0.02" shape-rendering="crispEdges"/>
    </g>
    <g clip-path="url(#clip0_1791_57579)">
    <g clip-path="url(#clip1_1791_57579)">
    <path d="M35.9147 24.5206H34.5838C34.3385 24.5206 34.1461 24.4186 34.0506 24.1898C34.0032 24.088 33.9856 23.9749 34 23.8635C34.0143 23.7521 34.0599 23.6471 34.1316 23.5606C34.1772 23.5015 34.2362 23.4541 34.3037 23.4223C34.3712 23.3904 34.4452 23.3749 34.5198 23.3772C35.4106 23.374 36.3014 23.3675 37.1921 23.3772C37.5286 23.3817 37.7367 23.6153 37.7383 23.9554C37.7424 24.8256 37.7424 25.696 37.7383 26.5665C37.7383 26.9107 37.5156 27.1208 37.1779 27.122C36.8403 27.1232 36.6192 26.9135 36.6087 26.5714C36.5981 26.2292 36.6087 25.8875 36.6087 25.5069C36.3289 25.7458 36.0823 25.9628 35.8305 26.1697C34.5016 27.2569 32.9962 28.0355 31.4196 28.6898C28.7417 29.8036 25.9544 30.5308 23.1076 31.0442C22.4116 31.1701 21.7108 31.2713 21.0103 31.3726C20.6119 31.43 20.3483 31.2402 20.3078 30.8924C20.2673 30.5365 20.4698 30.2955 20.8674 30.2421C22.4309 30.0355 23.9828 29.7491 25.5171 29.3841C28.0619 28.7768 30.5491 27.9998 32.8748 26.7742C33.9538 26.2054 34.9515 25.5191 35.8305 24.6643C35.8668 24.6346 35.9052 24.6075 35.9455 24.5834C35.9337 24.5603 35.9236 24.5404 35.9147 24.5206Z" fill="#10788E"/>
    <path d="M36.3169 33.088C36.3169 31.7325 36.3169 30.3769 36.3169 29.0213C36.3169 28.5355 36.5193 28.333 37.0052 28.333C38.0779 28.333 39.1503 28.333 40.2224 28.333C40.6646 28.333 40.8873 28.5496 40.8873 28.9873C40.8873 31.7325 40.8873 34.4775 40.8873 37.2224C40.8873 37.6629 40.6674 37.8819 40.2277 37.8827C39.1418 37.8846 38.0559 37.8846 36.9699 37.8827C36.5306 37.8827 36.3181 37.6625 36.3177 37.2171C36.3163 35.8405 36.3161 34.4641 36.3169 33.088ZM37.4591 33.0994C37.4591 34.2464 37.4619 35.3935 37.4558 36.5409C37.4558 36.6919 37.4963 36.7377 37.6485 36.7357C38.2896 36.7281 38.9306 36.7281 39.5714 36.7357C39.7127 36.7357 39.754 36.6928 39.754 36.5519C39.7499 34.2507 39.7499 31.9499 39.754 29.6493C39.754 29.5039 39.7098 29.4703 39.5714 29.472C38.9373 29.4788 38.3028 29.4805 37.6684 29.472C37.5036 29.4695 37.453 29.5076 37.4542 29.6805C37.4631 30.8186 37.4591 31.9592 37.4591 33.0994Z" fill="#10788E"/>
    <path d="M27.6206 20.8653C27.6206 21.3107 27.2239 21.5698 26.8218 21.3759C26.6534 21.2949 26.506 21.1706 26.3452 21.0714C25.444 20.5147 24.5002 20.3896 23.5074 20.8026C23.3013 20.8906 23.1236 21.034 22.994 21.2168C22.9341 21.2945 22.8908 21.3836 22.8666 21.4787C22.8423 21.5738 22.8378 21.6728 22.8531 21.7697C22.8685 21.8666 22.9034 21.9594 22.9558 22.0423C23.0082 22.1252 23.077 22.1966 23.158 22.2521C23.5345 22.5169 23.9815 22.576 24.4168 22.6622C25.0366 22.7865 25.6606 22.878 26.2618 23.0987C27.7275 23.6376 27.8332 25.5835 26.6841 26.4427C26.2979 26.7397 25.8478 26.9428 25.3695 27.0358C25.2221 27.0634 25.1699 27.1213 25.1816 27.2719C25.1931 27.4538 25.1931 27.6362 25.1816 27.8181C25.163 28.1748 24.9419 28.3849 24.5986 28.3792C24.2552 28.3736 24.0499 28.1549 24.043 27.7942C24.0394 27.6189 24.0354 27.4431 24.043 27.2678C24.0487 27.1512 24.0143 27.0966 23.8924 27.0832C23.0794 26.9945 22.3972 26.6095 21.7607 26.1264C21.5028 25.9309 21.4631 25.6058 21.657 25.3377C21.6969 25.2788 21.7481 25.2283 21.8077 25.1893C21.8672 25.1503 21.9339 25.1235 22.0038 25.1104C22.0738 25.0973 22.1457 25.0983 22.2153 25.1132C22.2849 25.1281 22.3508 25.1567 22.4093 25.1972C22.7859 25.4466 23.145 25.728 23.5908 25.8475C24.3941 26.0621 25.18 26.0738 25.9055 25.5912C26.306 25.3248 26.4258 24.9174 26.2262 24.5441C26.1076 24.3223 25.8995 24.2089 25.676 24.1239C25.2128 23.9477 24.7212 23.8919 24.2386 23.7999C23.7625 23.7084 23.2912 23.608 22.8357 23.4262C21.5133 22.8999 21.3781 21.1783 22.2441 20.3228C22.6731 19.8968 23.2234 19.6139 23.8195 19.513C23.9908 19.4818 24.0625 19.4235 24.0443 19.2425C24.0317 19.0943 24.0325 18.9452 24.0467 18.7971C24.0669 18.5202 24.2783 18.323 24.5678 18.2999C24.6999 18.2859 24.8326 18.3205 24.941 18.3973C25.0495 18.474 25.1262 18.5877 25.1569 18.717C25.2055 18.9105 25.1788 19.1069 25.1812 19.3016C25.1812 19.4016 25.1937 19.4579 25.3152 19.4745C26.0918 19.5806 26.7635 19.9243 27.3741 20.4021C27.5457 20.5365 27.6211 20.6738 27.6206 20.8653Z" fill="#10788E"/>
    <path d="M35.4753 33.8635C35.4753 34.9761 35.4753 36.0889 35.4753 37.2018C35.4753 37.6662 35.2595 37.882 34.7955 37.8824C33.7233 37.8824 32.651 37.8824 31.5786 37.8824C31.13 37.8824 30.9126 37.6739 30.9122 37.2301C30.9095 34.9779 30.9095 32.7253 30.9122 30.4725C30.9122 30.0365 31.1276 29.8247 31.56 29.8247C32.6459 29.8215 33.7317 29.8215 34.8173 29.8247C35.2587 29.8247 35.4737 30.0437 35.4741 30.4855C35.476 31.6113 35.4764 32.7373 35.4753 33.8635ZM34.3331 33.8448C34.3331 32.9403 34.3303 32.0362 34.3359 31.1321C34.3359 31.0013 34.3019 30.9612 34.1679 30.9624C33.5201 30.9692 32.8722 30.9692 32.2244 30.9624C32.0799 30.9624 32.0447 31.0078 32.0451 31.1458C32.0491 32.9473 32.0491 34.7488 32.0451 36.5503C32.0451 36.6904 32.0855 36.7366 32.2281 36.7353C32.8556 36.7289 33.4832 36.7268 34.1104 36.7353C34.2813 36.7382 34.34 36.7021 34.3375 36.5159C34.3266 35.6259 34.3331 34.7352 34.3331 33.8448Z" fill="#10788E"/>
    <path d="M25.4989 35.0211C25.4989 34.2923 25.4989 33.5635 25.4989 32.8347C25.4989 32.3893 25.7118 32.1776 26.156 32.1768C27.2411 32.1768 28.3265 32.1768 29.4121 32.1768C29.8474 32.1768 30.0737 32.3966 30.0745 32.8363C30.078 34.2991 30.078 35.7621 30.0745 37.2253C30.0745 37.6545 29.8352 37.8796 29.4012 37.8804C28.3215 37.8804 27.2428 37.8804 26.1653 37.8804C25.7199 37.8804 25.4997 37.6549 25.4989 37.2039C25.4978 36.477 25.4978 35.7494 25.4989 35.0211ZM28.9262 35.0134C28.9262 34.5008 28.9234 33.9878 28.9283 33.4748C28.9283 33.357 28.9011 33.3096 28.7712 33.3129C28.1101 33.3188 27.4488 33.3188 26.7872 33.3129C26.673 33.3129 26.6382 33.3445 26.6386 33.4603C26.6427 34.4992 26.6427 35.5384 26.6386 36.5779C26.6386 36.7054 26.6815 36.737 26.8006 36.7362C27.4484 36.7318 28.0962 36.7305 28.744 36.7362C28.8845 36.7362 28.9307 36.6957 28.9287 36.5528C28.9218 36.0394 28.9262 35.5264 28.9262 35.0126V35.0134Z" fill="#10788E"/>
    <path d="M22.3651 37.883C21.8258 37.883 21.2865 37.883 20.7456 37.883C20.3051 37.883 20.0868 37.6628 20.0856 37.221C20.0834 36.3303 20.0834 35.4403 20.0856 34.5512C20.0856 34.1058 20.3026 33.888 20.7419 33.8872C21.8276 33.8853 22.9131 33.8853 23.9985 33.8872C24.4406 33.8872 24.6548 34.1054 24.6552 34.5475C24.6552 35.4383 24.6552 36.3282 24.6552 37.2174C24.6552 37.6668 24.4374 37.8818 23.9819 37.8834C23.4446 37.8842 22.9048 37.883 22.3651 37.883ZM22.3898 36.7327C22.706 36.7327 23.0227 36.7287 23.3393 36.7327C23.4628 36.7351 23.5203 36.7072 23.5174 36.5663C23.5098 36.1084 23.511 35.6505 23.5174 35.1925C23.5174 35.067 23.4745 35.0306 23.3555 35.0306C22.7025 35.0346 22.0493 35.0346 21.3958 35.0306C21.2691 35.0306 21.2339 35.0783 21.2367 35.197C21.2416 35.6558 21.2416 36.1138 21.2367 36.5708C21.2367 36.6959 21.2812 36.7327 21.4019 36.7327C21.7295 36.7287 22.0598 36.7327 22.3919 36.7327H22.3898Z" fill="#10788E"/>
    </g>
    </g>
    <defs>
    <filter id="filter0_d_1791_57579" x="0.109375" y="0" width="59.9219" height="59.9229" filterUnits="userSpaceOnUse" color-interpolation-filters="sRGB">
    <feFlood flood-opacity="0" result="BackgroundImageFix"/>
    <feColorMatrix in="SourceAlpha" type="matrix" values="0 0 0 0 0 0 0 0 0 0 0 0 0 0 0 0 0 0 127 0" result="hardAlpha"/>
    <feOffset dy="2"/>
    <feGaussianBlur stdDeviation="2.5"/>
    <feComposite in2="hardAlpha" operator="out"/>
    <feColorMatrix type="matrix" values="0 0 0 0 0.0628125 0 0 0 0 0.46914 0 0 0 0 0.558333 0 0 0 1 0"/>
    <feBlend mode="normal" in2="BackgroundImageFix" result="effect1_dropShadow_1791_57579"/>
    <feBlend mode="normal" in="SourceGraphic" in2="effect1_dropShadow_1791_57579" result="shape"/>
    </filter>
    <clipPath id="clip0_1791_57579">
    <rect width="20.8012" height="25.4704" fill="white" transform="translate(20.0859 15.4805)"/>
    </clipPath>
    <clipPath id="clip1_1791_57579">
    <rect width="20.8012" height="19.5837" fill="white" transform="translate(20.0859 18.2998)"/>
    </clipPath>
    </defs>
    </svg>
    