<svg width="28" height="36" viewBox="0 0 28 36" fill="none" xmlns="http://www.w3.org/2000/svg">
    <path d="M15.1106 0.344674L15.2806 0.333008C15.5827 0.333021 15.8745 0.442412 16.1022 0.640953C16.3298 0.839493 16.4779 1.11375 16.5189 1.41301L16.5306 1.58301V15.4613C14.9084 15.7139 13.3647 16.3317 12.0162 17.2682C10.6677 18.2046 9.54959 19.4353 8.74634 20.8671C7.94309 22.299 7.47567 23.8946 7.3794 25.5336C7.28313 27.1725 7.56051 28.812 8.1906 30.328H4.44727C3.95467 30.328 3.4669 30.231 3.01182 30.0424C2.55674 29.8538 2.14327 29.5775 1.79503 29.2291C1.44678 28.8807 1.1706 28.4671 0.982239 28.0119C0.793882 27.5568 0.697047 27.0689 0.697266 26.5763V7.41634C0.697266 6.42178 1.09235 5.46795 1.79562 4.76469C2.49888 4.06143 3.4527 3.66634 4.44727 3.66634L14.0306 3.66467V1.58301C14.0306 1.28095 14.14 0.989104 14.3385 0.761457C14.5371 0.533809 14.8113 0.385755 15.1106 0.344674Z" fill="#EDEDED"/>
    <path d="M27.3646 26.1667C27.3646 28.5978 26.3988 30.9294 24.6797 32.6485C22.9606 34.3676 20.6291 35.3333 18.1979 35.3333C15.7668 35.3333 13.4352 34.3676 11.7161 32.6485C9.99702 30.9294 9.03125 28.5978 9.03125 26.1667C9.03125 23.7355 9.99702 21.4039 11.7161 19.6849C13.4352 17.9658 15.7668 17 18.1979 17C20.6291 17 22.9606 17.9658 24.6797 19.6849C26.3988 21.4039 27.3646 23.7355 27.3646 26.1667ZM13.1979 25.3333C12.9769 25.3333 12.7649 25.4211 12.6087 25.5774C12.4524 25.7337 12.3646 25.9457 12.3646 26.1667C12.3646 26.3877 12.4524 26.5996 12.6087 26.7559C12.7649 26.9122 12.9769 27 13.1979 27H21.1862L18.4412 29.745C18.285 29.9015 18.1973 30.1136 18.1975 30.3348C18.1976 30.5559 18.2856 30.7679 18.4421 30.9242C18.5986 31.0804 18.8107 31.1681 19.0318 31.168C19.253 31.1678 19.465 31.0798 19.6212 30.9233L23.7879 26.7567C23.9441 26.6004 24.0319 26.3885 24.0319 26.1675C24.0319 25.9465 23.9441 25.7346 23.7879 25.5783L19.6212 21.4117C19.465 21.2552 19.253 21.1672 19.0318 21.167C18.8107 21.1669 18.5986 21.2546 18.4421 21.4108C18.2856 21.5671 18.1976 21.7791 18.1975 22.0002C18.1973 22.2214 18.285 22.4335 18.4412 22.59L21.1862 25.3333H13.1979Z" fill="#EDEDED"/>
    </svg>
    