<svg width="76" height="76" viewBox="0 0 76 76" fill="none" xmlns="http://www.w3.org/2000/svg">
    <path d="M37.9923 66.443C25.9317 66.443 15.3071 59.0059 11.168 47.5756C9.38765 42.7156 9.01357 37.4523 10.0887 32.3894C10.458 30.6006 10.4723 30.6038 12.2585 31.0589C14.4013 31.6032 14.3535 31.5937 13.9141 33.7454C13.388 36.4075 13.361 39.1441 13.8345 41.816C14.8104 47.6123 17.4546 52.5348 21.9168 56.3815C27.2117 60.9475 33.4011 63.077 40.3723 62.2605C50.7629 61.0446 57.8184 55.3438 61.2267 45.5067C65.4231 33.4112 58.8165 19.7242 46.8992 15.217C41.7954 13.2838 36.6206 13.0228 31.3746 14.434C30.8397 14.5772 30.6073 14.4976 30.4704 13.9422C30.2933 13.1679 30.0532 12.4094 29.7524 11.6743C29.434 10.9326 29.7524 10.6732 30.3892 10.5093C32.0368 10.0923 33.6988 9.70559 35.3911 9.61488C47.4899 8.96713 56.7645 13.7639 62.8983 24.2425C66.0471 29.625 67.0931 35.5422 66.1841 41.7205C64.6255 52.3168 58.8165 59.7762 49.1168 64.1926C45.6161 65.7905 41.8639 66.4876 37.9923 66.443Z" fill="#EDEDED"/>
    <path d="M23.6523 20.5881C23.6507 21.588 23.2517 22.5463 22.5432 23.2522C21.8348 23.9581 20.8749 24.3537 19.8747 24.352C18.8744 24.3503 17.9159 23.9515 17.2098 23.2432C16.5037 22.5349 16.108 21.5753 16.1097 20.5753C16.1031 20.0719 16.1974 19.5722 16.387 19.1058C16.5767 18.6394 16.8579 18.2157 17.214 17.8597C17.5701 17.5036 17.9939 17.2225 18.4605 17.0329C18.927 16.8433 19.4268 16.7491 19.9304 16.7557C21.9967 16.7525 23.6651 18.4729 23.6523 20.5881Z" fill="#EDEDED"/>
    <path d="M32.2037 38.0056C32.2037 35.2279 32.2037 32.4501 32.2037 29.6724C32.199 29.4244 32.2258 29.1768 32.2833 28.9356C32.4075 28.4581 32.8246 28.2321 33.2846 28.4279C33.9708 28.7191 34.5852 29.1409 35.2252 29.5149C39.516 32.0146 43.8042 34.5202 48.0897 37.0316C48.2231 37.1074 48.3512 37.1919 48.4734 37.2846C49.0767 37.7621 49.0544 38.4353 48.4129 38.8507C48.0467 39.0878 47.6647 39.2979 47.289 39.5159C42.7657 42.1451 38.242 44.7722 33.7176 47.3971C33.503 47.5528 33.2457 47.6389 32.9806 47.6438C32.5985 47.6231 32.3836 47.4751 32.2849 47.1027C32.226 46.8616 32.1987 46.6139 32.2037 46.3658C32.2037 43.5796 32.2037 40.7929 32.2037 38.0056Z" fill="#EDEDED"/>
    </svg>
    