<svg width="60" height="60" viewBox="0 0 60 60" fill="none" xmlns="http://www.w3.org/2000/svg">
    <g filter="url(#filter0_d_1791_57650)">
    <circle cx="30" cy="25" r="25" fill="#EDEDED" fill-opacity="0.02" shape-rendering="crispEdges"/>
    </g>
    <g clip-path="url(#clip0_1791_57650)">
    <path d="M46.2326 32.078C46.0219 32.0653 45.814 32.0236 45.6148 31.9541C39.7148 30.0863 33.8151 28.2185 27.9158 26.3507C27.685 26.2773 27.5626 26.2711 27.5227 26.549C27.4885 26.8023 27.2981 26.8623 27.0819 26.7995C25.6987 26.4022 24.3177 25.9971 22.9351 25.597C22.7037 25.5303 22.6464 25.3729 22.7048 25.1656C22.8857 24.5189 23.0706 23.8732 23.2597 23.2284C23.3265 23.0004 23.4843 22.9147 23.714 22.9785C25.0914 23.3618 26.4684 23.7473 27.8451 24.1351C28.0961 24.2062 28.182 24.3643 28.0697 24.6394C27.9664 24.8966 28.0208 24.9678 28.2876 25.0316C34.3299 26.5132 40.3703 28.0013 46.4089 29.4959C47.3765 29.7346 47.8039 30.7427 47.2642 31.5176C47.1503 31.6871 46.997 31.8266 46.8173 31.9242C46.6377 32.0218 46.4371 32.0746 46.2326 32.078Z" fill="#8E1010"/>
    <path d="M24.7989 35.3784C22.4588 35.3784 20.1192 35.3784 17.7791 35.384C17.5601 35.384 17.4933 35.3319 17.4983 35.1117C17.5146 34.6264 17.4983 34.1406 17.505 33.6548C17.5135 32.9773 17.9543 32.5246 18.6316 32.524C22.7499 32.5206 26.8682 32.5206 30.9865 32.524C31.6222 32.524 32.0535 32.965 32.0653 33.6038C32.0738 34.1171 32.0563 34.6315 32.0726 35.1447C32.0794 35.3543 32.0007 35.3823 31.8165 35.3818C29.4777 35.3765 27.1385 35.3754 24.7989 35.3784Z" fill="#8E1010"/>
    <path d="M27.8803 28.2042C27.7876 28.5404 27.6736 28.9623 27.5546 29.3809C27.3614 30.0623 27.1661 30.7429 26.9688 31.4228C26.8565 31.8106 26.6448 31.9361 26.2539 31.8268C24.4479 31.3214 22.6425 30.813 20.838 30.3016C20.414 30.1811 20.2803 29.9693 20.3943 29.5518C20.6751 28.5191 20.9699 27.4892 21.2682 26.461C21.376 26.09 21.6006 25.9695 21.9758 26.0743C23.8103 26.5857 25.6429 27.1009 27.4737 27.6198C27.7146 27.6881 27.8938 27.8265 27.8803 28.2042Z" fill="#8E1010"/>
    <path d="M30.3329 20.1443C30.2492 20.4491 30.1408 20.8525 30.0268 21.2549C29.8319 21.9452 29.6337 22.6339 29.4371 23.3237C29.3248 23.7159 29.1153 23.8465 28.7278 23.7383C26.9128 23.2314 25.0985 22.7219 23.2849 22.2097C22.8306 22.0814 22.7351 21.9094 22.8621 21.4448C23.1429 20.4216 23.4315 19.4007 23.723 18.3803C23.8325 17.9965 24.0762 17.876 24.4817 17.9909C25.9721 18.4111 27.4626 18.8321 28.953 19.2539C29.2849 19.3475 29.6185 19.436 29.9499 19.5341C30.2003 19.6063 30.3536 19.7616 30.3329 20.1443Z" fill="#8E1010"/>
    </g>
    <defs>
    <filter id="filter0_d_1791_57650" x="0" y="0" width="60" height="60" filterUnits="userSpaceOnUse" color-interpolation-filters="sRGB">
    <feFlood flood-opacity="0" result="BackgroundImageFix"/>
    <feColorMatrix in="SourceAlpha" type="matrix" values="0 0 0 0 0 0 0 0 0 0 0 0 0 0 0 0 0 0 127 0" result="hardAlpha"/>
    <feOffset dy="5"/>
    <feGaussianBlur stdDeviation="2.5"/>
    <feComposite in2="hardAlpha" operator="out"/>
    <feColorMatrix type="matrix" values="0 0 0 0 0.558333 0 0 0 0 0.0628125 0 0 0 0 0.0628127 0 0 0 1 0"/>
    <feBlend mode="normal" in2="BackgroundImageFix" result="effect1_dropShadow_1791_57650"/>
    <feBlend mode="normal" in="SourceGraphic" in2="effect1_dropShadow_1791_57650" result="shape"/>
    </filter>
    <clipPath id="clip0_1791_57650">
    <rect width="30" height="17.4346" fill="white" transform="translate(17.5 17.9492)"/>
    </clipPath>
    </defs>
    </svg>
    