<svg width="74" height="74" viewBox="0 0 74 74" fill="none" xmlns="http://www.w3.org/2000/svg">
    <path d="M22.7083 32.9167V22.7083H51.2917V32.9167H22.7083ZM60.4792 73.75C63.9988 73.75 67.3743 72.3518 69.8631 69.8631C72.3518 67.3743 73.75 63.9988 73.75 60.4792V13.5208C73.75 10.0012 72.3518 6.6257 69.8631 4.13694C67.3743 1.64817 63.9988 0.25 60.4792 0.25H13.5208C10.0012 0.25 6.6257 1.64817 4.13694 4.13694C1.64817 6.6257 0.25 10.0012 0.25 13.5208V60.4792C0.25 63.9988 1.64817 67.3743 4.13694 69.8631C6.6257 72.3518 10.0012 73.75 13.5208 73.75H60.4792ZM19.6458 16.5833H54.3542C55.1664 16.5833 55.9454 16.906 56.5197 17.4803C57.094 18.0546 57.4167 18.8336 57.4167 19.6458V35.9792C57.4167 36.7914 57.094 37.5704 56.5197 38.1447C55.9454 38.719 55.1664 39.0417 54.3542 39.0417H19.6458C18.8336 39.0417 18.0546 38.719 17.4803 38.1447C16.906 37.5704 16.5833 36.7914 16.5833 35.9792V19.6458C16.5833 18.8336 16.906 18.0546 17.4803 17.4803C18.0546 16.906 18.8336 16.5833 19.6458 16.5833Z" fill="#EDEDED"/>
    </svg>
    