<svg width="61" height="60" viewBox="0 0 61 60" fill="none" xmlns="http://www.w3.org/2000/svg">
    <g filter="url(#filter0_d_1791_57600)">
    <circle cx="30.0708" cy="24.9614" r="24.9614" fill="#EDEDED" fill-opacity="0.02" shape-rendering="crispEdges"/>
    </g>
    <g clip-path="url(#clip0_1791_57600)">
    <g clip-path="url(#clip1_1791_57600)">
    <path d="M35.9147 21.5206H34.5838C34.3385 21.5206 34.1461 21.4186 34.0506 21.1898C34.0032 21.088 33.9856 20.9749 34 20.8635C34.0143 20.7521 34.0599 20.6471 34.1316 20.5606C34.1772 20.5015 34.2362 20.4541 34.3037 20.4223C34.3712 20.3904 34.4452 20.3749 34.5198 20.3772C35.4106 20.374 36.3014 20.3675 37.1921 20.3772C37.5286 20.3817 37.7367 20.6153 37.7383 20.9554C37.7424 21.8256 37.7424 22.696 37.7383 23.5665C37.7383 23.9107 37.5156 24.1208 37.1779 24.122C36.8403 24.1232 36.6192 23.9135 36.6087 23.5714C36.5981 23.2292 36.6087 22.8875 36.6087 22.5069C36.3289 22.7458 36.0823 22.9628 35.8305 23.1697C34.5016 24.2569 32.9962 25.0355 31.4196 25.6898C28.7417 26.8036 25.9544 27.5308 23.1076 28.0442C22.4116 28.1701 21.7108 28.2713 21.0103 28.3726C20.6119 28.43 20.3483 28.2402 20.3078 27.8924C20.2673 27.5365 20.4698 27.2955 20.8674 27.2421C22.4309 27.0355 23.9828 26.7491 25.5171 26.3841C28.0619 25.7768 30.5491 24.9998 32.8748 23.7742C33.9538 23.2054 34.9515 22.5191 35.8305 21.6643C35.8668 21.6346 35.9052 21.6075 35.9455 21.5834C35.9337 21.5603 35.9236 21.5404 35.9147 21.5206Z" fill="#FF8001"/>
    <path d="M36.3169 30.088C36.3169 28.7325 36.3169 27.3769 36.3169 26.0213C36.3169 25.5355 36.5193 25.333 37.0052 25.333C38.0779 25.333 39.1503 25.333 40.2224 25.333C40.6646 25.333 40.8873 25.5496 40.8873 25.9873C40.8873 28.7325 40.8873 31.4775 40.8873 34.2224C40.8873 34.6629 40.6674 34.8819 40.2277 34.8827C39.1418 34.8846 38.0559 34.8846 36.9699 34.8827C36.5306 34.8827 36.3181 34.6625 36.3177 34.2171C36.3163 32.8405 36.3161 31.4641 36.3169 30.088ZM37.4591 30.0994C37.4591 31.2464 37.4619 32.3935 37.4558 33.5409C37.4558 33.6919 37.4963 33.7377 37.6485 33.7357C38.2896 33.7281 38.9306 33.7281 39.5714 33.7357C39.7127 33.7357 39.754 33.6928 39.754 33.5519C39.7499 31.2507 39.7499 28.9499 39.754 26.6493C39.754 26.5039 39.7098 26.4703 39.5714 26.472C38.9373 26.4788 38.3028 26.4805 37.6684 26.472C37.5036 26.4695 37.453 26.5076 37.4542 26.6805C37.4631 27.8186 37.4591 28.9592 37.4591 30.0994Z" fill="#FF8001"/>
    <path d="M27.6206 17.8653C27.6206 18.3107 27.2239 18.5698 26.8218 18.3759C26.6534 18.2949 26.506 18.1706 26.3452 18.0714C25.444 17.5147 24.5002 17.3896 23.5074 17.8026C23.3013 17.8906 23.1236 18.034 22.994 18.2168C22.9341 18.2945 22.8908 18.3836 22.8666 18.4787C22.8423 18.5738 22.8378 18.6728 22.8531 18.7697C22.8685 18.8666 22.9034 18.9594 22.9558 19.0423C23.0082 19.1252 23.077 19.1966 23.158 19.2521C23.5345 19.5169 23.9815 19.576 24.4168 19.6622C25.0366 19.7865 25.6606 19.878 26.2618 20.0987C27.7275 20.6376 27.8332 22.5835 26.6841 23.4427C26.2979 23.7397 25.8478 23.9428 25.3695 24.0358C25.2221 24.0634 25.1699 24.1213 25.1816 24.2719C25.1931 24.4538 25.1931 24.6362 25.1816 24.8181C25.163 25.1748 24.9419 25.3849 24.5986 25.3792C24.2552 25.3736 24.0499 25.1549 24.043 24.7942C24.0394 24.6189 24.0354 24.4431 24.043 24.2678C24.0487 24.1512 24.0143 24.0966 23.8924 24.0832C23.0794 23.9945 22.3972 23.6095 21.7607 23.1264C21.5028 22.9309 21.4631 22.6058 21.657 22.3377C21.6969 22.2788 21.7481 22.2283 21.8077 22.1893C21.8672 22.1503 21.9339 22.1235 22.0038 22.1104C22.0738 22.0973 22.1457 22.0983 22.2153 22.1132C22.2849 22.1281 22.3508 22.1567 22.4093 22.1972C22.7859 22.4466 23.145 22.728 23.5908 22.8475C24.3941 23.0621 25.18 23.0738 25.9055 22.5912C26.306 22.3248 26.4258 21.9174 26.2262 21.5441C26.1076 21.3223 25.8995 21.2089 25.676 21.1239C25.2128 20.9477 24.7212 20.8919 24.2386 20.7999C23.7625 20.7084 23.2912 20.608 22.8357 20.4262C21.5133 19.8999 21.3781 18.1783 22.2441 17.3228C22.6731 16.8968 23.2234 16.6139 23.8195 16.513C23.9908 16.4818 24.0625 16.4235 24.0443 16.2425C24.0317 16.0943 24.0325 15.9452 24.0467 15.7971C24.0669 15.5202 24.2783 15.323 24.5678 15.2999C24.6999 15.2859 24.8326 15.3205 24.941 15.3973C25.0495 15.474 25.1262 15.5877 25.1569 15.717C25.2055 15.9105 25.1788 16.1069 25.1812 16.3016C25.1812 16.4016 25.1937 16.4579 25.3152 16.4745C26.0918 16.5806 26.7635 16.9243 27.3741 17.4021C27.5457 17.5365 27.6211 17.6738 27.6206 17.8653Z" fill="#FF8001"/>
    <path d="M35.4753 30.8635C35.4753 31.9761 35.4753 33.0889 35.4753 34.2018C35.4753 34.6662 35.2595 34.882 34.7955 34.8824C33.7233 34.8824 32.651 34.8824 31.5786 34.8824C31.13 34.8824 30.9126 34.6739 30.9122 34.2301C30.9095 31.9779 30.9095 29.7253 30.9122 27.4725C30.9122 27.0365 31.1276 26.8247 31.56 26.8247C32.6459 26.8215 33.7317 26.8215 34.8173 26.8247C35.2587 26.8247 35.4737 27.0437 35.4741 27.4855C35.476 28.6113 35.4764 29.7373 35.4753 30.8635ZM34.3331 30.8448C34.3331 29.9403 34.3303 29.0362 34.3359 28.1321C34.3359 28.0013 34.3019 27.9612 34.1679 27.9624C33.5201 27.9692 32.8722 27.9692 32.2244 27.9624C32.0799 27.9624 32.0447 28.0078 32.0451 28.1458C32.0491 29.9473 32.0491 31.7488 32.0451 33.5503C32.0451 33.6904 32.0855 33.7366 32.2281 33.7353C32.8556 33.7289 33.4832 33.7268 34.1104 33.7353C34.2813 33.7382 34.34 33.7021 34.3375 33.5159C34.3266 32.6259 34.3331 31.7352 34.3331 30.8448Z" fill="#FF8001"/>
    <path d="M25.4989 32.0211C25.4989 31.2923 25.4989 30.5635 25.4989 29.8347C25.4989 29.3893 25.7118 29.1776 26.156 29.1768C27.2411 29.1768 28.3265 29.1768 29.4121 29.1768C29.8474 29.1768 30.0737 29.3966 30.0745 29.8363C30.078 31.2991 30.078 32.7621 30.0745 34.2253C30.0745 34.6545 29.8352 34.8796 29.4012 34.8804C28.3215 34.8804 27.2428 34.8804 26.1653 34.8804C25.7199 34.8804 25.4997 34.6549 25.4989 34.2039C25.4978 33.477 25.4978 32.7494 25.4989 32.0211ZM28.9262 32.0134C28.9262 31.5008 28.9234 30.9878 28.9283 30.4748C28.9283 30.357 28.9011 30.3096 28.7712 30.3129C28.1101 30.3188 27.4488 30.3188 26.7872 30.3129C26.673 30.3129 26.6382 30.3445 26.6386 30.4603C26.6427 31.4992 26.6427 32.5384 26.6386 33.5779C26.6386 33.7054 26.6815 33.737 26.8006 33.7362C27.4484 33.7318 28.0962 33.7305 28.744 33.7362C28.8845 33.7362 28.9307 33.6957 28.9287 33.5528C28.9218 33.0394 28.9262 32.5264 28.9262 32.0126V32.0134Z" fill="#FF8001"/>
    <path d="M22.3651 34.883C21.8258 34.883 21.2865 34.883 20.7456 34.883C20.3051 34.883 20.0868 34.6628 20.0856 34.221C20.0834 33.3303 20.0834 32.4403 20.0856 31.5512C20.0856 31.1058 20.3026 30.888 20.7419 30.8872C21.8276 30.8853 22.9131 30.8853 23.9985 30.8872C24.4406 30.8872 24.6548 31.1054 24.6552 31.5475C24.6552 32.4383 24.6552 33.3282 24.6552 34.2174C24.6552 34.6668 24.4374 34.8818 23.9819 34.8834C23.4446 34.8842 22.9048 34.883 22.3651 34.883ZM22.3898 33.7327C22.706 33.7327 23.0227 33.7287 23.3393 33.7327C23.4628 33.7351 23.5203 33.7072 23.5174 33.5663C23.5098 33.1084 23.511 32.6505 23.5174 32.1925C23.5174 32.067 23.4745 32.0306 23.3555 32.0306C22.7025 32.0346 22.0493 32.0346 21.3958 32.0306C21.2691 32.0306 21.2339 32.0783 21.2367 32.197C21.2416 32.6558 21.2416 33.1138 21.2367 33.5708C21.2367 33.6959 21.2812 33.7327 21.4019 33.7327C21.7295 33.7287 22.0598 33.7327 22.3919 33.7327H22.3898Z" fill="#FF8001"/>
    </g>
    </g>
    <defs>
    <filter id="filter0_d_1791_57600" x="0.109375" y="0" width="59.9219" height="59.9229" filterUnits="userSpaceOnUse" color-interpolation-filters="sRGB">
    <feFlood flood-opacity="0" result="BackgroundImageFix"/>
    <feColorMatrix in="SourceAlpha" type="matrix" values="0 0 0 0 0 0 0 0 0 0 0 0 0 0 0 0 0 0 127 0" result="hardAlpha"/>
    <feOffset dy="5"/>
    <feGaussianBlur stdDeviation="2.5"/>
    <feComposite in2="hardAlpha" operator="out"/>
    <feColorMatrix type="matrix" values="0 0 0 0 1 0 0 0 0 0.501961 0 0 0 0 0.00392157 0 0 0 1 0"/>
    <feBlend mode="normal" in2="BackgroundImageFix" result="effect1_dropShadow_1791_57600"/>
    <feBlend mode="normal" in="SourceGraphic" in2="effect1_dropShadow_1791_57600" result="shape"/>
    </filter>
    <clipPath id="clip0_1791_57600">
    <rect width="20.8012" height="25.4704" fill="white" transform="translate(20.0859 12.4805)"/>
    </clipPath>
    <clipPath id="clip1_1791_57600">
    <rect width="20.8012" height="19.5837" fill="white" transform="translate(20.0859 15.2998)"/>
    </clipPath>
    </defs>
    </svg>
    