<svg width="58" height="69" viewBox="0 0 58 69" fill="none" xmlns="http://www.w3.org/2000/svg">
    <g clip-path="url(#clip0_1518_73931)">
    <path d="M29.16 68.9914H17.1069C15.7072 68.9914 14.9296 68.3551 14.787 66.9574C14.603 65.1415 14.7559 63.3436 15.4195 61.6245C15.7033 60.8503 16.2407 60.1938 16.9449 59.7608C18.7594 58.6354 20.7358 57.91 22.7537 57.2647C23.2034 57.1215 23.2618 57.4325 23.3655 57.7164L25.6024 63.8341C25.647 63.9777 25.702 64.1178 25.767 64.2535C25.942 64.58 26.1947 64.571 26.3593 64.2819C26.9762 63.1978 27.5685 62.0994 28.1595 60.9998C28.3254 60.6914 28.1219 60.4771 27.9223 60.2667C27.4441 59.7621 27.0229 59.22 26.8647 58.5218C26.6872 57.7474 26.9179 57.1021 27.5892 56.6775C28.626 56.0322 29.7095 55.987 30.7801 56.5884C31.5875 57.0427 31.8428 57.901 31.4942 58.8303C31.2746 59.3945 30.9283 59.9013 30.482 60.3119C30.1968 60.5842 30.1813 60.8282 30.3718 61.1611C30.9239 62.1343 31.4475 63.1229 31.9892 64.1025C32.0787 64.2651 32.1396 64.4897 32.3845 64.4768C32.658 64.4639 32.7034 64.229 32.7733 64.0251C33.4745 61.9717 34.1925 59.9221 34.869 57.8597C35.057 57.2867 35.2786 57.1189 35.8903 57.3564C37.4987 57.9797 39.1109 58.5799 40.674 59.3207C42.1877 60.0383 42.9316 61.236 43.266 62.7925C43.5434 64.0758 43.6562 65.389 43.6017 66.7006C43.5774 67.196 43.4352 67.6786 43.187 68.1086C42.8578 68.6959 42.3795 69.0031 41.6628 69.0005C37.4974 68.9824 33.3293 68.9914 29.16 68.9914Z" fill="#EDEDED"/>
    <path d="M28.1729 20.4439C28.1729 24.0577 28.1729 27.6681 28.1729 31.275C28.1729 31.7086 28.2092 32.1616 27.766 32.4249C27.3227 32.6882 26.9534 32.3914 26.5736 32.1874C23.1404 30.3392 19.693 30.3612 16.2391 32.1345C16.1432 32.1836 16.0563 32.2481 15.9617 32.301C15.1323 32.7734 14.5633 32.4507 14.5866 31.4879C14.6377 28.6486 15.0861 25.8302 15.9189 23.1143C17.8785 16.8211 21.8807 12.158 27.4938 8.79594C28.0122 8.48619 28.169 8.59977 28.1703 9.29026C28.1755 13.009 28.1764 16.7269 28.1729 20.4439Z" fill="#EDEDED"/>
    <path d="M29.8242 20.5134C29.8242 17.0506 29.8164 13.5878 29.8333 10.1264C29.8333 9.67076 29.5832 9.04609 30.0057 8.79184C30.4502 8.52468 30.8416 9.08998 31.2187 9.32616C35.6045 12.0791 38.9768 15.7303 41.0686 20.4915C42.6122 24.0071 43.2939 27.7087 43.4105 31.5251C43.439 32.4505 42.8117 32.8157 42.0082 32.3537C38.4389 30.3261 34.8684 30.3545 31.2952 32.3382C30.4022 32.8338 29.8281 32.5099 29.8268 31.4812C29.8216 27.827 29.8208 24.1711 29.8242 20.5134Z" fill="#EDEDED"/>
    <path d="M0.0134072 31.2721C0.42115 28.8046 1.20799 26.4143 2.34626 24.1853C6.52597 16.1394 13.1409 11.1782 21.9047 8.96479C22.3648 8.84863 22.83 8.75571 23.2966 8.66924C23.4768 8.63568 23.7049 8.55437 23.815 8.7983C23.9252 9.04223 23.7373 9.15451 23.5921 9.28487C22.6318 10.1522 21.7012 11.0479 20.8173 11.9952C17.2921 15.769 14.7597 20.0733 13.706 25.1687C13.2997 27.1722 13.1077 29.2129 13.1331 31.2567C13.1422 32.3601 12.5784 32.6867 11.6116 32.1601C8.25098 30.3351 4.87223 30.25 1.46755 32.0452C1.10466 32.2375 0.744368 32.3498 0.368519 32.1111C0.0756155 31.9278 -0.0423221 31.6619 0.0134072 31.2721Z" fill="#EDEDED"/>
    <path d="M44.8767 30.1233C44.7342 23.079 42.006 17.1214 37.2301 12.0221C36.3454 11.0756 35.4222 10.1722 34.4605 9.31177C34.305 9.17109 34.0717 9.033 34.1909 8.7852C34.3102 8.53739 34.5797 8.63806 34.7664 8.68066C45.653 11.067 53.3268 17.1989 57.145 27.7937C57.5247 28.8456 57.7411 29.9452 57.9653 31.0396C58.0444 31.4268 58.025 31.7714 57.6737 32.0218C57.3225 32.2722 56.9855 32.1999 56.6369 32.0128C53.1298 30.122 49.6565 30.2665 46.2103 32.1844C45.4327 32.6129 44.9 32.2954 44.8793 31.41C44.8676 30.9828 44.8767 30.5531 44.8767 30.1233Z" fill="#EDEDED"/>
    <path d="M29.5871 37.0469C30.6654 37.0856 31.8007 37.1966 32.8674 37.6703C33.7513 38.0574 33.9353 38.3569 33.8536 39.2952C33.8186 39.703 33.9146 39.996 34.3241 40.1767C36.0841 40.951 36.4237 41.5628 36.215 43.5013C36.2008 43.6304 36.1878 43.7595 36.1645 43.8885C36.1178 44.1467 36.1956 44.2757 36.4833 44.3157C37.1637 44.4074 37.419 44.8668 37.419 45.5005C37.4337 46.3199 37.2701 47.1326 36.9395 47.8831C36.7036 48.3993 36.3485 48.8059 35.7523 48.8639C35.335 48.904 35.3078 49.2021 35.2223 49.4822C34.4757 51.9215 32.8596 53.5244 30.4775 54.3995C29.8096 54.6597 29.0739 54.692 28.3857 54.4911C25.7172 53.7167 23.8962 52.0918 23.1847 49.3634C23.1044 49.0575 22.9942 48.9259 22.6832 48.9065C22.0481 48.8665 21.6606 48.4755 21.4351 47.9244C21.122 47.1671 20.9541 46.3581 20.94 45.5393C20.9257 44.7262 21.1992 44.41 22.0131 44.3028C22.3643 44.2577 22.3825 44.0938 22.3514 43.833C22.26 43.1278 22.2806 42.4127 22.4123 41.7138C22.8166 39.6953 24.0971 38.4317 25.9686 37.6961C27.1065 37.2431 28.2989 37.074 29.5871 37.0469Z" fill="#EDEDED"/>
    <path d="M30.9295 4.17359C30.9295 5.01122 30.9295 5.85142 30.9295 6.68388C30.9295 7.02848 30.8233 7.11108 30.5109 6.92781C29.618 6.40511 28.7094 6.39994 27.8126 6.91362C27.4989 7.09302 27.3797 7.01816 27.3797 6.67743C27.3797 4.98282 27.3551 3.28693 27.4005 1.59232C27.4264 0.642414 28.2338 -0.0248444 29.1786 -0.000322326C29.6266 0.010644 30.0543 0.188088 30.3775 0.497129C30.7008 0.80617 30.8963 1.22445 30.9257 1.66976C30.9257 1.71235 30.9257 1.75494 30.9257 1.79883L30.9295 4.17359Z" fill="#EDEDED"/>
    </g>
    <defs>
    <clipPath id="clip0_1518_73931">
    <rect width="58" height="69" fill="white"/>
    </clipPath>
    </defs>
    </svg>
    