<svg width="104" height="70" viewBox="0 0 104 70" fill="none" xmlns="http://www.w3.org/2000/svg">
    <path d="M32.8521 69.6027V41.8161C33.8704 42.8344 39.9806 48.3625 43.7631 48.3625C46.8181 48.3625 49.8732 40.0495 49.5823 39.6339C47.9529 37.3062 45.6058 30.7111 44.636 27.7045C43.5691 30.1292 41.319 34.8621 40.8535 34.3966C40.2716 33.8147 32.1247 24.3583 26.3055 24.7949C25.5801 24.8494 20.0499 29.5958 19.7589 29.5958C19.468 29.5958 13.3578 24.7949 13.0668 24.7949C0.119141 24.7949 0.119141 47.9262 0.119141 50.1084C0.119141 51.8542 3.02874 53.5049 3.90161 53.4545C9.7693 53.115 21.9411 52.4361 23.6869 52.4361C25.8691 52.4361 26.8874 50.3992 26.8874 47.9261C26.8874 45.9475 25.4326 43.9981 23.6869 43.9981L7.82957 43.5618V32.5054H27.4693V42.5433C27.4693 42.9796 30.2335 44.7255 30.2335 47.9261C30.2335 55.782 27.4693 56.5094 7.82957 56.5094V69.6027H32.8521Z" fill="#EDEDED"/>
    <circle cx="19.0281" cy="11.5574" r="11.2019" fill="#EDEDED"/>
    <path d="M66.7491 55.4922H100.646C100.646 48.9456 95.4087 44.2903 82.17 44.2903C75.9144 44.2903 65.4398 42.69 56.711 25.2324C56.159 24.1283 54.9653 20.1406 51.6192 20.1406C50.3099 20.1406 47.1094 20.7225 47.1094 24.3595C47.1094 27.2691 51.6192 43.9993 66.7491 52.5826V55.4922Z" fill="#EDEDED"/>
    <path d="M61.6582 68.4389V60.3457C61.6582 57.5843 63.8968 55.3457 66.6582 55.3457H97.1016C99.863 55.3457 102.102 57.5843 102.102 60.3457V68.4389" stroke="#EDEDED" stroke-width="3"/>
    <circle cx="81.5906" cy="30.1785" r="11.2019" fill="#EDEDED"/>
    <path d="M39.7582 15.6718C39.112 15.1769 39.035 14.232 39.5925 13.639C40.1302 13.0671 41.0367 13.0608 41.5823 13.6251L45.0799 17.2429C45.4463 17.6218 45.4555 18.2201 45.101 18.6102C44.7515 18.9948 44.1657 19.0475 43.7531 18.7316L39.7582 15.6718Z" fill="#EDEDED"/>
    <path d="M64.5499 17.7581C65.2277 17.3074 65.3677 16.3698 64.851 15.7408C64.3527 15.1343 63.4486 15.0675 62.8666 15.5941L59.1352 18.9702C58.7443 19.3239 58.6952 19.9202 59.0228 20.3331C59.3459 20.7402 59.9269 20.8319 60.3596 20.5442L64.5499 17.7581Z" fill="#EDEDED"/>
    <path d="M46.8777 11.0937C46.6703 10.3066 47.1885 9.51276 47.9925 9.38577C48.7678 9.26331 49.4881 9.81386 49.5734 10.5941L50.1204 15.5964C50.1777 16.1204 49.8183 16.5988 49.2991 16.6899C48.7873 16.7796 48.292 16.4623 48.1596 15.9597L46.8777 11.0937Z" fill="#EDEDED"/>
    <path d="M58.1498 12.3282C58.4919 11.5897 58.1209 10.7172 57.3517 10.4512C56.6098 10.1947 55.8042 10.6105 55.5834 11.3637L54.1678 16.1925C54.0196 16.6984 54.2895 17.2324 54.7847 17.4131C55.2728 17.5912 55.8161 17.3656 56.0345 16.8941L58.1498 12.3282Z" fill="#EDEDED"/>
    </svg>
    