<svg width="87" height="70" viewBox="0 0 87 70" fill="none" xmlns="http://www.w3.org/2000/svg">
    <path d="M43.3209 51.8852C29.118 51.9514 17.4391 40.2862 17.4199 26.0069C17.4008 11.7277 28.9803 0.133892 43.2721 0.0763848C57.4855 0.0188775 69.1051 11.6197 69.1888 25.9512C69.2725 40.1189 57.6023 51.8173 43.3209 51.8852ZM43.3053 46.8803C48.8811 46.8803 54.2286 44.6659 58.1713 40.7243C62.114 36.7827 64.329 31.4366 64.329 25.8623C64.329 20.288 62.114 14.9419 58.1713 11.0003C54.2286 7.05866 48.8811 4.84426 43.3053 4.84426C31.7466 4.84426 22.3076 14.2545 22.2641 25.8466C22.2546 28.6116 22.7924 31.3511 23.8465 33.9074C24.9006 36.4637 26.4502 38.7863 28.4059 40.7414C30.3617 42.6964 32.685 44.2454 35.2421 45.299C37.7992 46.3526 40.5395 46.89 43.3053 46.8803Z" fill="#EDEDED"/>
    <path d="M86.4895 66.7591C86.4889 67.1788 86.3772 67.5908 86.1657 67.9534C85.9542 68.3159 85.6504 68.616 85.2853 68.8232C84.9201 69.0303 84.5066 69.1371 84.0868 69.1326C83.667 69.1282 83.2559 69.0127 82.8952 68.798C82.5487 68.5867 82.2306 68.3319 81.9487 68.0399C75.9059 62.0138 69.8706 55.9837 63.8429 49.9495C63.1021 49.2106 62.6367 48.4038 62.9121 47.3111C63.0067 46.9306 63.1939 46.5792 63.4571 46.2885C63.7203 45.9977 64.0513 45.7765 64.4207 45.6446C64.7901 45.5126 65.1864 45.474 65.5743 45.5322C65.9622 45.5904 66.3297 45.7435 66.6441 45.978C66.8723 46.1576 67.0867 46.3539 67.2856 46.5653C73.3621 52.6367 79.438 58.7086 85.5134 64.7812C86.0886 65.3545 86.5331 65.9696 86.4895 66.7591Z" fill="#EDEDED"/>
    <path d="M43.6888 38.6751C46.5456 38.6751 49.4029 38.6751 52.2608 38.6751C53.9458 38.6751 54.8948 37.7037 54.9225 36.0161C54.9519 34.1727 54.8792 32.3431 54.1432 30.6201C52.311 26.3159 49.0675 23.8023 44.3919 23.5252C39.5959 23.2403 36.0571 25.4794 33.7418 29.646C32.5686 31.7578 32.3348 34.08 32.4863 36.4447C32.5729 37.7842 33.5868 38.67 34.9454 38.6734C37.8624 38.6803 40.7761 38.6751 43.6888 38.6751Z" fill="#EDEDED"/>
    <path d="M43.7086 9.8584C42.6019 9.85756 41.5198 10.1846 40.5989 10.7982C39.678 11.4119 38.9595 12.2846 38.5341 13.3063C38.1088 14.3279 37.9956 15.4527 38.209 16.5386C38.4224 17.6244 38.9527 18.6228 39.733 19.4075C40.5132 20.1923 41.5085 20.7283 42.5932 20.9478C43.6778 21.1674 44.8032 21.0607 45.8273 20.6412C46.8514 20.2217 47.7282 19.5082 48.3471 18.5908C48.9659 17.6733 49.2992 16.5931 49.3046 15.4865C49.3079 14.7492 49.1657 14.0184 48.886 13.3362C48.6064 12.654 48.1948 12.0337 47.6749 11.5108C47.155 10.9879 46.5371 10.5728 45.8564 10.2893C45.1758 10.0057 44.4459 9.8593 43.7086 9.8584Z" fill="#EDEDED"/>
    <path d="M10.5021 11.4902C9.55198 11.4895 8.62295 11.7703 7.83228 12.2971C7.04161 12.824 6.42474 13.5733 6.05956 14.4504C5.69438 15.3275 5.59725 16.2932 5.78044 17.2255C5.96363 18.1578 6.41891 19.0149 7.08883 19.6886C7.75874 20.3624 8.61325 20.8226 9.54448 21.0111C10.4757 21.1996 11.4419 21.108 12.3211 20.7478C13.2003 20.3876 13.9531 19.7751 14.4845 18.9874C15.0158 18.1998 15.3019 17.2723 15.3066 16.3222C15.3094 15.6892 15.1873 15.0618 14.9472 14.4761C14.7071 13.8904 14.3537 13.3578 13.9074 12.9089C13.461 12.46 12.9305 12.1036 12.3461 11.8602C11.7618 11.6167 11.1351 11.491 10.5021 11.4902Z" fill="#EDEDED"/>
    <path fill-rule="evenodd" clip-rule="evenodd" d="M15.7285 36.2309C14.6238 33.1673 14.0216 29.8636 14.0216 26.4192C14.0216 25.5547 14.0596 24.6991 14.1338 23.8539C13.2113 23.5024 12.195 23.2897 11.0847 23.2239C6.9671 22.9793 3.92888 24.9017 1.94107 28.4789C0.933787 30.292 0.733075 32.2858 0.863168 34.316C0.937506 35.466 1.80801 36.2265 2.97438 36.2294C4.72729 36.2336 6.47875 36.2327 8.22952 36.2317H8.23012H8.23072C8.98095 36.2313 9.73105 36.2309 10.4811 36.2309H15.7285Z" fill="#EDEDED"/>
    <path d="M76.2538 11.4883C77.2039 11.4876 78.1329 11.7683 78.9236 12.2952C79.7143 12.822 80.3311 13.5713 80.6963 14.4484C81.0615 15.3256 81.1586 16.2912 80.9754 17.2235C80.7922 18.1558 80.3369 19.0129 79.667 19.6867C78.9971 20.3604 78.1426 20.8206 77.2114 21.0091C76.2801 21.1976 75.3139 21.106 74.4347 20.7458C73.5555 20.3857 72.8027 19.7731 72.2714 18.9855C71.74 18.1978 71.454 17.2704 71.4493 16.3203C71.4464 15.6873 71.5686 15.0599 71.8087 14.4742C72.0488 13.8884 72.4021 13.3558 72.8485 12.9069C73.2948 12.458 73.8254 12.1017 74.4097 11.8582C74.9941 11.6148 75.6207 11.4891 76.2538 11.4883Z" fill="#EDEDED"/>
    <path fill-rule="evenodd" clip-rule="evenodd" d="M71.7793 24.2214C72.9136 23.647 74.2092 23.3074 75.6669 23.221C79.7845 22.9764 82.8228 24.8988 84.8106 28.476C85.8179 30.2891 86.0186 32.2828 85.8885 34.313C85.8141 35.463 84.9436 36.2235 83.7773 36.2265C82.0243 36.2307 80.2729 36.2297 78.5221 36.2288H78.5215H78.5209C77.7707 36.2284 77.0206 36.228 76.2706 36.228H70.1551C71.2595 33.1648 71.8615 29.8615 71.8615 26.4177C71.8615 25.6788 71.8338 24.9464 71.7793 24.2214Z" fill="#EDEDED"/>
    </svg>
    