<svg width="93" height="75" viewBox="0 0 93 75" fill="none" xmlns="http://www.w3.org/2000/svg">
    <path d="M45.7602 55.526C30.5399 55.597 18.0245 43.0962 18.0039 27.7941C17.9834 12.492 30.3924 0.0677141 45.7079 0.00608751C60.9394 -0.0555391 73.3914 12.3762 73.4811 27.7343C73.5707 42.9169 61.0646 55.4532 45.7602 55.526ZM45.7434 50.1627C51.7187 50.1627 57.4492 47.7897 61.6743 43.5657C65.8995 39.3417 68.2731 33.6127 68.2731 27.6391C68.2731 21.6655 65.8995 15.9365 61.6743 11.7125C57.4492 7.48851 51.7187 5.1155 45.7434 5.1155C33.3569 5.1155 23.2417 15.1998 23.195 27.6223C23.1849 30.5853 23.7613 33.5211 24.8909 36.2605C26.0205 38.9999 27.681 41.4888 29.7769 43.584C31.8727 45.6791 34.3625 47.339 37.1027 48.468C39.843 49.5971 42.7796 50.173 45.7434 50.1627Z" fill="#EDEDED"/>
    <path d="M92.022 71.465C92.0214 71.9148 91.9017 72.3564 91.675 72.7449C91.4483 73.1334 91.1228 73.455 90.7315 73.677C90.3402 73.8989 89.8971 74.0134 89.4472 74.0086C88.9974 74.0039 88.5568 73.8802 88.1703 73.65C87.7989 73.4236 87.458 73.1506 87.1559 72.8376C80.6803 66.3799 74.2127 59.9178 67.7532 53.4514C66.9593 52.6596 66.4606 51.795 66.7557 50.624C66.8571 50.2162 67.0577 49.8397 67.3397 49.5281C67.6218 49.2165 67.9765 48.9795 68.3724 48.8381C68.7682 48.6967 69.1929 48.6553 69.6086 48.7177C70.0243 48.78 70.4182 48.9441 70.7551 49.1954C70.9996 49.3878 71.2293 49.5982 71.4425 49.8248C77.9543 56.3311 84.4654 62.8379 90.976 69.3455C91.5924 69.9599 92.0687 70.6191 92.022 71.465Z" fill="#EDEDED"/>
    <path d="M46.1533 41.3685C49.2147 41.3685 52.2767 41.3685 55.3393 41.3685C57.145 41.3685 58.1619 40.3275 58.1916 38.519C58.2232 36.5435 58.1452 34.5829 57.3565 32.7364C55.3931 28.1239 51.9173 25.4303 46.9067 25.1334C41.7672 24.8281 37.9749 27.2276 35.4938 31.6926C34.2365 33.9557 33.986 36.4443 34.1483 38.9783C34.2411 40.4137 35.3277 41.363 36.7835 41.3667C39.9096 41.3741 43.0319 41.3685 46.1533 41.3685Z" fill="#EDEDED"/>
    <path d="M46.1749 10.4883C44.989 10.4874 43.8294 10.8378 42.8425 11.4954C41.8556 12.153 41.0856 13.0883 40.6298 14.1831C40.174 15.2779 40.0528 16.4833 40.2814 17.6469C40.5101 18.8106 41.0783 19.8805 41.9145 20.7214C42.7507 21.5624 43.8173 22.1368 44.9796 22.3721C46.142 22.6074 47.348 22.493 48.4454 22.0434C49.5428 21.5939 50.4824 20.8293 51.1456 19.8461C51.8089 18.863 52.1659 17.7054 52.1718 16.5195C52.1754 15.7294 52.0229 14.9463 51.7232 14.2152C51.4235 13.4841 50.9825 12.8194 50.4254 12.259C49.8682 11.6987 49.206 11.2539 48.4766 10.95C47.7472 10.6462 46.9651 10.4893 46.1749 10.4883Z" fill="#EDEDED"/>
    <path d="M10.5896 12.2363C9.57141 12.2356 8.57583 12.5364 7.72852 13.101C6.88121 13.6656 6.22016 14.4686 5.82883 15.4085C5.43749 16.3485 5.3334 17.3833 5.52971 18.3824C5.72602 19.3815 6.21392 20.3 6.93182 21.022C7.64972 21.744 8.56544 22.2371 9.56337 22.4392C10.5613 22.6412 11.5967 22.543 12.5389 22.157C13.4811 21.7711 14.2878 21.1146 14.8572 20.2705C15.4266 19.4265 15.7332 18.4326 15.7382 17.4145C15.7413 16.7361 15.6104 16.0638 15.3531 15.4361C15.0958 14.8084 14.7171 14.2377 14.2388 13.7566C13.7605 13.2756 13.1919 12.8936 12.5657 12.6328C11.9395 12.3719 11.268 12.2372 10.5896 12.2363Z" fill="#EDEDED"/>
    <path fill-rule="evenodd" clip-rule="evenodd" d="M16.1914 38.7491C15.0075 35.4659 14.3621 31.9254 14.3621 28.2342C14.3621 27.3079 14.4028 26.391 14.4824 25.4854C13.4938 25.1088 12.4049 24.8809 11.2151 24.8104C6.80256 24.5483 3.54672 26.6084 1.41652 30.4418C0.337076 32.3848 0.121986 34.5213 0.261397 36.6969C0.341061 37.9293 1.27392 38.7443 2.52384 38.7475C4.40244 38.7519 6.27948 38.7509 8.15577 38.7499H8.15635H8.15692C8.96081 38.7495 9.76457 38.7491 10.5682 38.7491H16.1914Z" fill="#EDEDED"/>
    <path d="M81.051 12.2344C82.0692 12.2336 83.0648 12.5345 83.9121 13.0991C84.7594 13.6637 85.4205 14.4666 85.8118 15.4066C86.2031 16.3465 86.3072 17.3814 86.1109 18.3804C85.9146 19.3795 85.4267 20.298 84.7088 21.02C83.9909 21.7421 83.0752 22.2352 82.0773 22.4372C81.0793 22.6392 80.0439 22.541 79.1017 22.1551C78.1595 21.7691 77.3528 21.1126 76.7834 20.2686C76.214 19.4245 75.9074 18.4307 75.9024 17.4125C75.8994 16.7341 76.0302 16.0618 76.2875 15.4341C76.5448 14.8064 76.9235 14.2357 77.4018 13.7547C77.8801 13.2736 78.4487 12.8917 79.0749 12.6308C79.7011 12.3699 80.3727 12.2352 81.051 12.2344Z" fill="#EDEDED"/>
    <path fill-rule="evenodd" clip-rule="evenodd" d="M76.2585 25.8795C77.474 25.2639 78.8623 24.9 80.4244 24.8074C84.837 24.5453 88.0928 26.6054 90.223 30.4388C91.3024 32.3818 91.5175 34.5184 91.3781 36.694C91.2985 37.9264 90.3656 38.7414 89.1157 38.7446C87.2371 38.749 85.36 38.748 83.4838 38.747H83.4832H83.4826C82.6787 38.7466 81.875 38.7461 81.0713 38.7461H74.518C75.7015 35.4635 76.3465 31.9237 76.3465 28.2332C76.3465 27.4413 76.3168 26.6564 76.2585 25.8795Z" fill="#EDEDED"/>
    </svg>
    