<svg width="80" height="75" viewBox="0 0 80 75" fill="none" xmlns="http://www.w3.org/2000/svg">
    <path d="M13.8462 0C10.1739 0 6.6521 1.475 4.05544 4.1005C1.45879 6.72601 0 10.287 0 14V48.2222C0 51.9353 1.45879 55.4962 4.05544 58.1217C6.6521 60.7472 10.1739 62.2222 13.8462 62.2222H53.8462C57.5184 62.2222 61.0402 60.7472 63.6369 58.1217C66.2335 55.4962 67.6923 51.9353 67.6923 48.2222V14C67.6923 10.287 66.2335 6.72601 63.6369 4.1005C61.0402 1.475 57.5184 0 53.8462 0H13.8462ZM24.6154 43.5307V18.6916C24.6149 18.1278 24.766 17.5745 25.0524 17.0909C25.3388 16.6072 25.7498 16.2113 26.2414 15.9455C26.7331 15.6797 27.287 15.5539 27.8438 15.5817C28.4007 15.6094 28.9397 15.7897 29.4031 16.1031L47.8462 28.5227C48.2688 28.8065 48.6156 29.1917 48.8554 29.6439C49.0952 30.096 49.2207 30.6011 49.2207 31.1142C49.2207 31.6273 49.0952 32.1324 48.8554 32.5846C48.6156 33.0367 48.2688 33.4219 47.8462 33.7058L29.3969 46.1253C28.9331 46.4374 28.3943 46.6163 27.8378 46.6429C27.2813 46.6695 26.7281 46.5429 26.2373 46.2766C25.7464 46.0102 25.3363 45.6141 25.0506 45.1305C24.765 44.6469 24.6146 44.0939 24.6154 43.5307ZM24.6154 74.6667C22.2267 74.6686 19.8704 74.1072 17.7339 73.0271C15.5973 71.9469 13.7394 70.3778 12.3077 68.4444H56.9231C61.4114 68.4444 65.7158 66.6417 68.8895 63.4327C72.0632 60.2238 73.8462 55.8715 73.8462 51.3333V12.4444C77.5815 15.2818 80 19.7991 80 24.8889V51.3333C80 57.5217 77.5687 63.4566 73.2409 67.8325C68.9132 72.2083 63.0435 74.6667 56.9231 74.6667H24.6154Z" fill="#EDEDED"/>
    </svg>
    